<svg width="321" height="123" viewBox="0 0 321 123" fill="none" xmlns="http://www.w3.org/2000/svg">
<path d="M284.151 7H30.8489C14.3628 7 1 20.3226 1 36.7591C1 53.1956 14.3628 66.5182 30.8489 66.5182H32.7062V85.6108C32.7062 92.0328 37.9303 97.2412 44.3717 97.2412C50.8132 97.2412 56.0373 92.0328 56.0373 85.6108V61.6357C56.0373 55.2137 61.2613 50.0054 67.7027 50.0054C74.1442 50.0054 79.3683 55.2137 79.3683 61.6357L78.8396 110.363C78.8396 116.785 84.0637 121.993 90.5051 121.993C96.9465 121.993 102.171 116.785 102.171 110.363V66.5251H102.212C102.637 60.4914 107.673 55.72 113.836 55.72C119.999 55.72 125.036 60.4914 125.46 66.5251H125.502V93.4477C125.502 99.8697 130.726 105.078 137.167 105.078C143.609 105.078 148.833 99.8697 148.833 93.4477V60.9075C148.833 54.4855 154.057 49.2772 160.498 49.2772C166.94 49.2772 172.164 54.4855 172.164 60.9075V81.1792C172.164 87.6013 177.388 92.8096 183.829 92.8096C189.331 92.8096 193.936 89.0091 195.161 83.8978V61.6427C195.161 55.2206 200.385 50.0123 206.826 50.0123C213.268 50.0123 218.492 55.2206 218.492 61.6427L217.963 110.37C217.963 116.792 223.187 122 229.629 122C236.07 122 241.294 116.792 241.294 110.37V66.532H241.405C242.157 60.8313 247.033 56.4205 252.96 56.4205C259.401 56.4205 264.625 61.6288 264.625 68.0508V88.1214C265.773 93.3436 270.433 97.2482 276.012 97.2482C282.454 97.2482 287.678 92.0398 287.678 85.6178V66.317C302.501 64.5763 314 52.0166 314 36.7729C314 20.3226 300.637 7 284.151 7Z" fill="#FBB33B" stroke="#1D1D1B" stroke-width="2" stroke-miterlimit="10"/>
</svg>
