<svg width="462" height="178" viewBox="0 0 462 178" fill="none" xmlns="http://www.w3.org/2000/svg">
<path d="M408.086 11H43.9138C20.2117 11 1 30.2308 1 53.9565C1 77.6822 20.2117 96.9132 43.9138 96.9132H46.584V124.473C46.584 133.743 54.0947 141.261 63.3556 141.261C72.6164 141.261 80.1271 133.743 80.1271 124.473V89.8655C80.1271 80.5955 87.6377 73.0773 96.8985 73.0773C106.159 73.0773 113.67 80.5955 113.67 89.8655L112.91 160.202C112.91 169.472 120.421 176.99 129.681 176.99C138.942 176.99 146.453 169.472 146.453 160.202V96.9232H146.513C147.123 88.2138 154.364 81.3262 163.224 81.3262C172.085 81.3262 179.326 88.2138 179.936 96.9232H179.996V135.785C179.996 145.055 187.507 152.573 196.767 152.573C206.028 152.573 213.539 145.055 213.539 135.785V88.8143C213.539 79.5443 221.05 72.0261 230.31 72.0261C239.571 72.0261 247.082 79.5443 247.082 88.8143V118.076C247.082 127.346 254.593 134.864 263.853 134.864C271.764 134.864 278.385 129.378 280.145 122V89.8755C280.145 80.6055 287.655 73.0873 296.916 73.0873C306.177 73.0873 313.688 80.6055 313.688 89.8755L312.928 160.212C312.928 169.482 320.438 177 329.699 177C338.96 177 346.471 169.482 346.471 160.212V96.9332H346.631C347.711 88.7043 354.721 82.3373 363.242 82.3373C372.503 82.3373 380.014 89.8555 380.014 99.1255V128.097C381.664 135.635 388.364 141.271 396.385 141.271C405.646 141.271 413.157 133.753 413.157 124.483V96.6228C434.469 94.1101 451 75.9804 451 53.9765C451 30.2408 431.788 11 408.086 11Z" fill="#F68B38" stroke="black" stroke-width="2" stroke-miterlimit="10"/>
<path d="M418.086 1H53.9138C30.2117 1 11 20.2308 11 43.9565C11 67.6822 30.2117 86.9132 53.9138 86.9132H56.584V114.473C56.584 123.743 64.0947 131.261 73.3556 131.261C82.6164 131.261 90.1271 123.743 90.1271 114.473V79.8655C90.1271 70.5955 97.6377 63.0773 106.899 63.0773C116.159 63.0773 123.67 70.5955 123.67 79.8655L122.91 150.202C122.91 159.472 130.421 166.99 139.681 166.99C148.942 166.99 156.453 159.472 156.453 150.202V86.9232H156.513C157.123 78.2138 164.364 71.3262 173.224 71.3262C182.085 71.3262 189.326 78.2138 189.936 86.9232H189.996V125.785C189.996 135.055 197.507 142.573 206.767 142.573C216.028 142.573 223.539 135.055 223.539 125.785V78.8143C223.539 69.5443 231.05 62.0261 240.31 62.0261C249.571 62.0261 257.082 69.5443 257.082 78.8143V108.076C257.082 117.346 264.593 124.864 273.853 124.864C281.764 124.864 288.385 119.378 290.145 112V79.8755C290.145 70.6055 297.655 63.0873 306.916 63.0873C316.177 63.0873 323.688 70.6055 323.688 79.8755L322.928 150.212C322.928 159.482 330.438 167 339.699 167C348.96 167 356.471 159.482 356.471 150.212V86.9332H356.631C357.711 78.7043 364.721 72.3373 373.242 72.3373C382.503 72.3373 390.014 79.8555 390.014 89.1255V118.097C391.664 125.635 398.364 131.271 406.385 131.271C415.646 131.271 423.157 123.753 423.157 114.483V86.6228C444.469 84.1101 461 65.9804 461 43.9765C461 20.2408 441.788 1 418.086 1Z" fill="#FBB33B" stroke="black" stroke-width="2" stroke-miterlimit="10"/>
</svg>
