<svg width="292" height="144" viewBox="0 0 292 144" fill="none" xmlns="http://www.w3.org/2000/svg">
<path d="M243.539 10H38.5098C17.7907 10 1 25.4156 1 44.4181C1 63.4296 17.8004 78.8453 38.5098 78.8453H41.3714C41.0416 79.9668 40.8476 100.927 40.8476 100.927C40.8476 108.359 47.4145 114.376 55.5042 114.376C63.594 114.376 70.1609 108.35 70.1609 100.927V73.1935C70.1609 65.7616 76.7278 59.7448 84.8176 59.7448C92.9171 59.7448 99.4743 65.7705 99.4743 73.1935L98.8147 129.551C98.8147 136.983 105.382 143 113.471 143C121.561 143 128.128 136.974 128.128 129.551L128.4 78.8453C129.699 72.6416 135.646 67.9511 142.785 67.9511C149.924 67.9511 155.87 72.6416 157.17 78.8453H157.441V109.988C157.441 117.42 164.008 123.437 172.098 123.437C180.198 123.437 186.755 117.411 186.755 109.988V73.149C186.755 65.717 193.322 59.7003 201.411 59.7003C209.501 59.7003 216.068 65.7259 216.068 73.149V95.7918C216.068 103.224 222.635 109.24 230.725 109.24C238.824 109.24 245.382 103.215 245.382 95.7918V78.8007C265.218 77.8929 281 62.8511 281 44.4181C281.048 25.4067 264.258 10 243.539 10Z" fill="#FBB33B" stroke="black" stroke-width="2" stroke-miterlimit="10"/>
</svg>
