<svg width="313" height="154" viewBox="0 0 313 154" fill="none" xmlns="http://www.w3.org/2000/svg">
<path d="M260.863 11H41.1891C18.99 11 1 27.4587 1 47.7472C1 68.0451 19.0004 84.504 41.1891 84.504H44.255C43.9017 85.7013 43.6938 108.08 43.6938 108.08C43.6938 116.015 50.7298 122.439 59.3974 122.439C68.065 122.439 75.101 116.006 75.101 108.08V78.4697C75.101 70.5349 82.1369 64.1111 90.8046 64.1111C99.4826 64.1111 106.508 70.5444 106.508 78.4697L105.801 138.641C105.801 146.576 112.837 153 121.505 153C130.173 153 137.209 146.567 137.209 138.641L137.5 84.504C138.892 77.8806 145.263 72.8726 152.912 72.8726C160.561 72.8726 166.932 77.8806 168.325 84.504H168.616V117.754C168.616 125.689 175.652 132.113 184.319 132.113C192.997 132.113 200.023 125.68 200.023 117.754V78.4222C200.023 70.4874 207.059 64.0635 215.727 64.0635C224.394 64.0635 231.43 70.4969 231.43 78.4222V102.597C231.43 110.532 238.466 116.956 247.134 116.956C255.812 116.956 262.837 110.523 262.837 102.597V84.4564C284.091 83.4872 301 67.4274 301 47.7472C301.052 27.4587 283.062 11 260.863 11Z" fill="#F68B38" stroke="#1D1D1B" stroke-width="2" stroke-miterlimit="10"/>
<path d="M271.863 1H52.1892C29.9901 1 12 17.4587 12 37.7472C12 58.0451 30.0005 74.504 52.1892 74.504H55.255C54.9017 75.7013 54.6938 98.0803 54.6938 98.0803C54.6938 106.015 61.7298 112.439 70.3974 112.439C79.065 112.439 86.101 106.006 86.101 98.0803V68.4697C86.101 60.5349 93.137 54.1111 101.805 54.1111C110.472 54.1111 117.508 60.5444 117.508 68.4697L116.801 128.641C116.801 136.576 123.837 143 132.505 143C141.183 143 148.209 136.567 148.209 128.641L148.5 74.504C149.892 67.8806 156.263 62.8726 163.912 62.8726C171.561 62.8726 177.932 67.8806 179.325 74.504H179.616V107.754C179.616 115.689 186.652 122.113 195.319 122.113C203.997 122.113 211.023 115.68 211.023 107.754V68.4222C211.023 60.4874 218.059 54.0635 226.727 54.0635C235.394 54.0635 242.43 60.4969 242.43 68.4222V92.5973C242.43 100.532 249.466 106.956 258.134 106.956C266.812 106.956 273.837 100.523 273.837 92.5973V74.4564C295.091 73.4872 312 57.4274 312 37.7472C312.052 17.4492 294.051 1 271.863 1Z" fill="#FBB33B" stroke="#1D1D1B" stroke-width="2" stroke-miterlimit="10"/>
</svg>
