<svg width="187" height="122" viewBox="0 0 187 122" fill="none" xmlns="http://www.w3.org/2000/svg">
<path d="M143.25 121H36.7502C17.0065 121 1 105.13 1 85.5553V44.4447C1 24.8697 17.0065 9 36.7502 9H143.25C162.993 9 179 24.8697 179 44.4447L179 85.5553C179 105.13 162.993 121 143.25 121Z" fill="#F68B38" stroke="black" stroke-miterlimit="10"/>
<path d="M150.25 113H43.7502C24.0065 113 8 94.2604 8 71.1456V42.8544C8 19.7396 24.0065 1 43.7502 1H150.25C169.993 1 186 19.7396 186 42.8544L186 71.1456C186 94.2604 169.993 113 150.25 113Z" fill="#F499AD" stroke="black" stroke-miterlimit="10"/>
</svg>
