<svg width="296" height="241" viewBox="0 0 296 241" fill="none" xmlns="http://www.w3.org/2000/svg">
<path d="M227.96 240H58.0397C26.5385 240 1 214.399 1 182.82V68.1799C1 36.6013 26.5385 11 58.0397 11H227.96C259.461 11 285 36.6013 285 68.1799V182.82C285 214.399 259.461 240 227.96 240Z" fill="#F68B38" stroke="black" stroke-width="2" stroke-miterlimit="10"/>
<path d="M237.96 230H68.0397C36.5385 230 11 204.399 11 172.82V58.1799C11 26.6013 36.5385 1 68.0397 1H237.96C269.461 1 295 26.6013 295 58.1799V172.82C295 204.399 269.461 230 237.96 230Z" fill="#F499AD" stroke="black" stroke-width="2" stroke-miterlimit="10"/>
</svg>
