<svg width="27" height="27" viewBox="0 0 27 27" fill="none" xmlns="http://www.w3.org/2000/svg">
<path d="M13.5 26C20.4036 26 26 20.4036 26 13.5C26 6.59644 20.4036 1 13.5 1C6.59644 1 1 6.59644 1 13.5C1 20.4036 6.59644 26 13.5 26Z" stroke="#1D1D1B" stroke-width="0.5" stroke-miterlimit="10"/>
<path d="M16.0396 16.8561C15.5465 17.5351 14.7481 17.9264 13.8147 17.9264C11.7092 17.9264 10.451 16.2456 10.451 13.4767C10.451 12.7194 10.539 12.0482 10.7093 11.471C10.2475 11.2773 9.92263 10.8213 9.92263 10.291C9.92263 9.58462 10.496 9.01128 11.2024 9.01128C11.582 9.01128 11.9244 9.17761 12.1573 9.44178C12.6034 9.17957 13.1298 9.04259 13.7286 9.04259C15.1884 9.04259 16.0904 9.8077 16.4114 11.3516L19.9101 10.6726C19.7849 10.1012 19.6362 9.65116 19.4307 9.24023C19.235 9.35372 19.008 9.42025 18.7634 9.42025C18.0257 9.42025 17.4269 8.82147 17.4269 8.08376C17.4269 7.76285 17.5404 7.46737 17.7302 7.23647C16.7049 6.49484 15.3938 6.11914 13.846 6.11914C11.8579 6.11914 10.1437 6.74727 8.97163 7.88613C7.62927 9.21087 6.91699 11.1638 6.91699 13.4747C6.91699 15.7505 7.63122 17.7386 8.88749 19.0125C9.36494 19.4958 9.9285 19.8891 10.5625 20.1865C10.768 19.6523 11.2846 19.2747 11.8892 19.2747C12.6758 19.2747 13.3118 19.9126 13.3118 20.6973C13.3118 20.752 13.3079 20.8049 13.302 20.8597C13.5036 20.8734 13.7071 20.8812 13.9145 20.8812C15.9691 20.8812 17.6167 20.2355 18.6695 19.0301C19.3837 18.1984 19.7575 17.3648 20.0784 15.9227L16.5464 15.3963C16.4466 16.1086 16.3272 16.4471 16.0396 16.8561ZM12.4352 7.38128C12.7365 7.38128 12.9811 7.62587 12.9811 7.92722C12.9811 8.22856 12.7365 8.47316 12.4352 8.47316C12.1338 8.47316 11.8892 8.22856 11.8892 7.92722C11.8892 7.62587 12.1338 7.38128 12.4352 7.38128ZM8.56657 13.8915C8.09107 13.8915 7.70363 13.506 7.70363 13.0286C7.70363 12.5531 8.08911 12.1656 8.56657 12.1656C9.04403 12.1656 9.42951 12.5511 9.42951 13.0286C9.42951 13.5041 9.04403 13.8915 8.56657 13.8915ZM15.116 20.1376C14.6405 20.1376 14.253 19.7521 14.253 19.2747C14.253 18.7992 14.6385 18.4117 15.116 18.4117C15.5915 18.4117 15.9789 18.7972 15.9789 19.2747C15.9789 19.7521 15.5934 20.1376 15.116 20.1376Z" fill="#FBB33B" stroke="black" stroke-width="0.5" stroke-miterlimit="10"/>
</svg>
