<svg width="42" height="42" viewBox="0 0 42 42" fill="none" xmlns="http://www.w3.org/2000/svg">
<path d="M21 41C32.0457 41 41 32.0457 41 21C41 9.95429 32.0457 1 21 1C9.9543 1 1 9.95429 1 21C1 32.0457 9.9543 41 21 41Z" fill="#FBB33B" stroke="black" stroke-width="0.75" stroke-miterlimit="10"/>
<path d="M29.0692 16.9734C29.0786 17.1475 29.0785 17.3214 29.0785 17.4955C29.0785 22.832 25.1517 29 17.9789 29C15.7776 29 13.7256 28.333 12 27.1825C12.3078 27.2212 12.6156 27.2405 12.9327 27.2405C14.7609 27.2405 16.4399 26.5928 17.7737 25.51C16.0668 25.481 14.6303 24.3112 14.1267 22.7064C14.3598 22.7547 14.6117 22.7837 14.8635 22.7837C15.218 22.7837 15.5631 22.7354 15.8895 22.6387C14.108 22.2713 12.7648 20.6375 12.7648 18.6749C12.7648 18.6556 12.7648 18.6363 12.7648 18.6266C13.2872 18.9263 13.8935 19.11 14.5277 19.1293C13.4831 18.4042 12.7928 17.1668 12.7928 15.765C12.7928 15.0206 12.9887 14.3341 13.3245 13.7348C15.246 16.1807 18.1188 17.7855 21.3648 17.9595C21.2995 17.6598 21.2622 17.3504 21.2622 17.0411C21.2622 14.8078 23.0064 13 25.161 13C26.2803 13 27.297 13.4931 28.0059 14.2761C28.892 14.0925 29.7315 13.7541 30.4777 13.2997C30.1885 14.2471 29.5636 15.0302 28.7614 15.5329C29.5543 15.4363 30.3004 15.2139 31 14.8949C30.487 15.6876 29.8248 16.403 29.0692 16.9734Z" fill="black"/>
</svg>
