<svg width="121" height="102" viewBox="0 0 121 102" fill="none" xmlns="http://www.w3.org/2000/svg">
<path d="M104.349 77.3115C104.063 76.8423 103.575 76.7203 103.068 76.7062C102.388 76.6921 101.708 76.7062 101.027 76.7062C100.446 76.7062 99.892 77.2176 99.9202 77.8135C99.9202 77.8322 99.9295 77.8463 99.9295 77.8604C99.2868 78.1747 98.6768 78.5548 98.1279 79.0192C98.3953 78.5595 98.6581 78.095 98.8504 77.593C99.1085 76.922 99.1085 76.223 99.1179 75.5145C99.1272 74.9562 99.2352 74.4542 99.4885 73.9803C99.77 73.4548 99.6199 72.7745 99.0897 72.4649C98.7941 72.2913 98.4188 72.2819 98.1044 72.4086C98.0669 72.4039 98.0247 72.3992 97.9871 72.3945C97.9355 72.3898 97.8745 72.3757 97.8182 72.371C97.7995 72.371 97.7854 72.371 97.7666 72.371C97.7573 72.371 97.7526 72.371 97.7432 72.371C97.64 72.3804 97.5273 72.3945 97.4241 72.4132C97.3913 72.4179 97.3584 72.4273 97.3256 72.4414C97.2318 72.4742 97.1379 72.5212 97.0488 72.5587C97.0394 72.5634 97.0347 72.5634 97.0253 72.5681C97.0066 72.5775 96.9925 72.5869 96.9784 72.5962C96.9643 72.6056 96.9503 72.615 96.9362 72.6244C96.8471 72.6901 96.7579 72.7557 96.6781 72.8261C96.65 72.8496 96.6265 72.8777 96.6031 72.9059C96.5374 72.9903 96.467 73.0748 96.406 73.1639C96.3966 73.178 96.3873 73.1968 96.3779 73.2109C96.3732 73.2202 96.3732 73.2249 96.3685 73.2343C96.3263 73.3235 96.2887 73.422 96.2512 73.5111C96.2465 73.5299 96.2371 73.544 96.2324 73.5627C96.2277 73.5815 96.2231 73.6003 96.2184 73.619C96.2137 73.6472 96.209 73.68 96.2043 73.7082C95.2096 74.7075 94.4589 75.8945 93.9945 77.2035C93.9991 77.1238 94.0132 77.044 94.0179 76.9643C94.1305 75.4817 94.4214 73.0654 92.479 72.6525C90.4991 72.2303 90.3536 74.5996 90.2035 75.9039C90.1003 76.7954 89.9595 77.6774 89.7343 78.5454C89.6358 78.9395 89.5185 79.3242 89.3825 79.7089C89.3262 79.8685 89.2652 80.028 89.1948 80.1828C89.1901 80.1781 89.1807 80.1781 89.176 80.1734C89.5607 79.1272 88.9227 77.546 88.5285 76.6968C88.4676 76.5702 88.3972 76.4716 88.3174 76.3919C88.2236 76.1995 88.0781 76.0306 87.8905 75.9274C87.6277 75.7866 87.3322 75.735 87.0366 75.8148C86.3938 75.9884 85.9059 76.5608 85.7745 77.2082C85.7276 77.4381 85.7135 77.6586 85.7182 77.8885C85.4414 78.1184 85.2865 78.4891 85.4038 78.9817C86.2202 82.2753 87.0366 85.569 87.8529 88.8626C87.9233 89.1347 88.0688 89.3224 88.2424 89.4537C88.3831 89.8948 88.8288 90.2326 89.298 90.2326C89.603 90.2326 89.8422 90.12 90.0252 89.9417C90.2129 90.1059 90.4569 90.2138 90.7431 90.2467C91.9207 90.3639 93.1406 90.2467 94.2807 89.9088C94.8812 89.7306 95.5005 89.5147 95.9744 89.0925C96.4201 88.689 96.6406 88.1354 96.6312 87.5583C96.8236 87.3753 96.9925 87.1735 97.1145 86.939C97.5273 86.1695 97.7479 85.2546 98.0294 84.4289C98.0669 84.3163 98.0763 84.1943 98.0669 84.077C98.1701 83.9597 98.2827 83.8377 98.4188 83.6969C98.6065 83.5046 98.7988 83.3216 99.0053 83.1433C99.1132 83.0495 99.2211 82.9603 99.3337 82.8759C99.3665 82.8571 99.5026 82.7539 99.5073 82.7492C100.028 82.3786 100.577 82.0689 101.079 81.6701C101.487 81.3464 101.802 80.957 102.13 80.5535C102.289 80.3611 102.454 80.1781 102.637 80.0092C102.735 79.9248 102.745 79.9201 102.66 79.9904C102.716 79.9529 102.768 79.9201 102.829 79.8872C102.909 79.8403 102.993 79.8028 103.073 79.7606C103.589 79.5025 104.077 79.1928 104.34 78.658C104.565 78.217 104.607 77.7384 104.349 77.3115Z" fill="#F68B38"/>
<path d="M70.7949 85.2031C70.7949 85.2031 78.2783 96.149 88.8817 88.4357" stroke="black" stroke-width="2" stroke-miterlimit="10" stroke-linecap="round" stroke-linejoin="round"/>
<path d="M86.2776 90.3157L87.6147 88.0871C87.6147 88.0871 86.3339 85.9711 86.6576 82.3444C86.6576 82.3444 84.368 77.4368 86.7233 75.7947C86.7233 75.7947 89.4633 74.42 89.8433 80.6413C89.8433 80.6413 94.7133 81.1198 95.3749 84.9436" stroke="black" stroke-miterlimit="10" stroke-linecap="round" stroke-linejoin="round"/>
<path d="M91.5186 90.5974C91.5186 90.5974 95.4737 90.3675 96.7546 87.7823C96.7546 87.7823 97.6929 86.5484 97.8759 84.9907L103.994 79.1072C103.994 79.1072 104.759 77.5073 103.52 76.6394C103.52 76.6394 102.113 75.4899 99.7479 77.3525C99.7479 77.3525 96.0743 81.4672 95.7458 81.9927" stroke="black" stroke-miterlimit="10" stroke-linecap="round" stroke-linejoin="round"/>
<path d="M90.8109 80.824C90.8109 80.824 89.4503 72.2146 92.5515 72.3601C92.5515 72.3601 94.6393 71.7689 94.7191 75.8789" stroke="black" stroke-miterlimit="10" stroke-linecap="round" stroke-linejoin="round"/>
<path d="M92.8447 79.9086C92.8447 79.9086 95.6504 71.5432 98.381 72.6692C98.381 72.6692 100.98 73.753 97.2784 80.1526" stroke="black" stroke-miterlimit="10" stroke-linecap="round" stroke-linejoin="round"/>
<path d="M90.3893 73.6703H87.5039V63.2593C87.5039 63.1983 87.5696 63.1514 87.654 63.1514H90.2345C90.319 63.1514 90.3847 63.1983 90.3847 63.2593V73.6703H90.3893Z" fill="#FBB33B" stroke="#1D1D1B" stroke-miterlimit="10"/>
<path d="M93.2751 75.1997H90.3896V60.6599C90.3896 60.5755 90.4553 60.5098 90.5398 60.5098H93.1203C93.2047 60.5098 93.2704 60.5755 93.2704 60.6599L93.2751 75.1997Z" fill="#FBB33B" stroke="#1D1D1B" stroke-miterlimit="10"/>
<path d="M96.4304 58.9619H93.8359C93.7561 58.9619 93.6904 59.0229 93.6904 59.1027V78.0762H96.5759V59.1027C96.5759 59.0229 96.5102 58.9619 96.4304 58.9619Z" fill="#FBB33B" stroke="#1D1D1B" stroke-miterlimit="10"/>
<path d="M99.4626 80.1917H96.5771V60.6505C96.5771 60.5754 96.6428 60.5098 96.7273 60.5098H99.3078C99.3922 60.5098 99.4579 60.5708 99.4579 60.6505L99.4626 80.1917Z" fill="#FBB33B" stroke="#1D1D1B" stroke-miterlimit="10"/>
<path d="M102.344 76.458H99.459V63.2835C99.459 63.2085 99.5247 63.1475 99.6091 63.1475H102.19C102.274 63.1475 102.34 63.2085 102.34 63.2835V76.458H102.344Z" fill="#FBB33B" stroke="#1D1D1B" stroke-miterlimit="10"/>
<path d="M104.268 69.6777L101.397 80.7925L101.153 81.7449C101.045 82.1578 100.679 82.4487 100.261 82.4487H89.7469C89.3294 82.4487 88.9587 82.1625 88.8555 81.7449L85.7402 69.6823C85.5853 69.0865 86.0264 68.5 86.6316 68.5H90.8026C90.8777 68.5 90.934 68.561 90.934 68.6361C90.934 70.9304 92.7544 72.7883 95.0017 72.7883C97.2491 72.7883 99.0695 70.9304 99.0695 68.6361C99.0695 68.561 99.1258 68.5 99.2009 68.5H103.372C103.982 68.4953 104.423 69.0771 104.268 69.6777Z" fill="#F499AD" stroke="#1D1D1B" stroke-miterlimit="10"/>
<path d="M65.31 48.1329C61.2892 48.1329 58.0284 44.8721 58.0284 40.8513C58.0284 39.7628 58.2724 38.7353 58.6993 37.811C52.6188 32.9316 44.9008 30.0039 36.4979 30.0039C16.891 30.0039 1 45.8996 1 65.5018C1 66.9609 1.09853 68.3919 1.26743 69.8042C1.98058 69.5696 2.74064 69.4382 3.53355 69.4382C7.55439 69.4382 10.8152 72.699 10.8152 76.7198C10.8152 79.8914 8.77894 82.5845 5.94981 83.5839C12.1336 94.009 23.497 101 36.4979 101C56.1048 101 71.9958 85.104 71.9958 65.5018C71.9958 59.0741 70.2786 53.0545 67.2946 47.8514C66.6612 48.0297 65.9997 48.1329 65.31 48.1329ZM26.5232 91.5646C23.9896 91.5646 21.93 89.5096 21.93 86.9713C21.93 84.4331 23.985 82.3781 26.5232 82.3781C29.0568 82.3781 31.1164 84.4331 31.1164 86.9713C31.1164 89.5096 29.0568 91.5646 26.5232 91.5646Z" fill="#F68B38" stroke="black" stroke-miterlimit="10"/>
<path d="M71.3628 48.1334C67.3419 48.1334 64.0812 44.8726 64.0812 40.8518C64.0812 39.7633 64.3251 38.7358 64.7521 37.8115C58.6715 32.9321 50.9536 30.0044 42.5506 30.0044C22.9437 30.0044 7.05273 45.9001 7.05273 65.5023C7.05273 66.9614 7.15126 68.3924 7.32017 69.8046C8.03332 69.5701 8.79338 69.4387 9.58628 69.4387C13.6071 69.4387 16.8679 72.6995 16.8679 76.7203C16.8679 79.8919 14.8317 82.585 12.0026 83.5844C18.1863 94.0095 29.5498 101 42.5506 101C62.1575 101 78.0485 85.1045 78.0485 65.5023C78.0485 59.0746 76.3314 53.055 73.3474 47.8519C72.714 48.0302 72.0525 48.1334 71.3628 48.1334ZM32.5759 91.5651C30.0424 91.5651 27.9827 89.5101 27.9827 86.9718C27.9827 84.4336 30.0377 82.3786 32.5759 82.3786C35.1095 82.3786 37.1692 84.4336 37.1692 86.9718C37.1692 89.5101 35.1095 91.5651 32.5759 91.5651Z" fill="#FBB33B" stroke="black" stroke-miterlimit="10"/>
<path d="M12.3846 83.4336L5.95215 83.5837" stroke="black" stroke-miterlimit="10"/>
<path d="M38.2247 50.4668C38.2106 50.4856 38.2153 50.4809 38.2247 50.4668V50.4668Z" fill="#F499AD"/>
<path d="M43.3616 49.9724C43.249 49.8082 43.1082 49.6721 42.9534 49.5595C42.9534 49.5407 42.9581 49.522 42.9581 49.5032C42.8783 48.4663 42.1277 47.5796 41.0345 47.5796C40.387 47.5796 39.7302 47.969 39.3736 48.5273C39.2751 48.6165 39.2047 48.6868 39.2328 48.6587C39.0264 48.8511 38.834 49.0809 38.6886 49.3296C38.5385 49.583 38.4446 49.8786 38.3555 50.1554C38.2945 50.343 38.2476 50.4369 38.2288 50.465C38.2616 50.4134 38.4024 50.2304 38.7214 50.0005C38.135 50.4275 37.8347 50.9764 37.8112 51.5488C37.6095 51.7224 37.4453 51.9242 37.2951 52.1728C36.7603 53.0502 37.0887 54.3029 37.9848 54.8096C38.6886 55.2037 39.4017 55.4758 40.1477 55.6682C40.0164 55.8418 39.9178 56.0388 39.8803 56.2547C39.5566 56.2828 39.2328 56.3063 38.9091 56.3391C38.8669 56.3391 38.8247 56.3485 38.7824 56.3485C38.4399 56.0201 37.8769 55.8981 37.45 56.0154C36.826 56.189 36.5022 56.7332 36.4412 57.3432C36.3146 58.5583 36.4459 59.8251 36.8307 60.984C37.0324 61.5892 37.2482 62.2179 37.7784 62.612C37.8347 62.6542 37.9004 62.6918 37.9614 62.7246C38.0927 63.053 38.2945 63.3439 38.6182 63.541C39.3361 63.9773 40.4058 64.1181 41.2128 63.9304C42.381 63.6583 42.8267 62.6542 43.2068 61.6361C43.9199 59.7266 44.3187 57.6997 44.4407 55.6682C44.5392 53.7493 44.4923 51.5957 43.3616 49.9724Z" fill="#F499AD"/>
<path d="M60.098 57.9756C60.342 56.0191 60.3701 53.936 59.6242 52.0827C59.5022 51.7777 59.3051 51.5197 59.0611 51.3367C59.0095 51.2241 58.9626 51.1115 58.911 50.9989L58.4653 49.9855C58.3198 49.6618 58.2025 49.3286 57.9867 49.0471C57.541 48.47 56.795 48.2026 56.0959 48.4935C55.5189 48.7375 55.1107 49.3052 55.1154 49.9245C54.2615 50.8441 53.6187 51.9842 53.309 53.204C53.1167 53.4433 52.9759 53.7717 52.99 54.072C53.0041 54.4286 53.1214 54.7992 53.3935 55.0432L53.6703 55.259C53.8861 55.3857 54.116 55.4467 54.3647 55.4467C54.3834 55.4514 54.4022 55.4514 54.4163 55.4514C54.7963 55.5077 55.1717 55.5781 55.5329 55.7048C55.6315 55.7517 55.73 55.808 55.8238 55.869C55.8848 55.9253 55.9458 55.9862 56.0021 56.0472C56.0162 56.0754 56.0396 56.0989 56.0537 56.127C56.1241 56.2584 56.2179 56.3663 56.3211 56.4554C56.2836 56.4789 56.2461 56.493 56.2132 56.5211C56.0209 56.5774 55.8285 56.6337 55.6362 56.6759C55.5799 56.69 55.3077 56.7745 55.2655 56.7416C55.4766 56.7135 55.5048 56.7088 55.35 56.7276C55.303 56.7322 55.2561 56.7369 55.2092 56.7416C54.7541 56.7839 54.2943 56.7698 53.8439 56.7182C53.3794 56.6666 52.8774 57.0184 52.6569 57.3985C52.3941 57.8442 52.4317 58.3368 52.6569 58.7872C52.6991 58.867 52.8211 59.0359 52.8164 59.125C52.7413 58.9374 52.7319 58.9186 52.7883 59.0547C52.8117 59.111 52.8352 59.172 52.8539 59.2283C52.9384 59.4628 53.0134 59.7021 53.0744 59.9461C53.1073 60.0681 53.1308 60.1901 53.1589 60.3121C53.173 60.373 53.2527 60.6311 53.2246 60.6827C53.1964 60.4716 53.1917 60.4434 53.2105 60.5983C53.2152 60.6593 53.2246 60.7249 53.2293 60.7859C53.2387 60.8798 53.2433 60.9736 53.248 61.0674C53.3043 62.1184 53.4123 63.2491 54.2521 63.9951C54.2615 64.0045 54.2755 64.0092 54.2849 64.0186C54.2896 64.0702 54.299 64.1359 54.3037 64.164C54.3084 64.2062 54.3225 64.3188 54.3318 64.3564C54.3318 64.3657 54.3365 64.3751 54.3365 64.3845C54.3553 64.4408 54.4257 64.5956 54.4116 64.5581C54.3928 64.5206 54.4585 64.6895 54.4867 64.7364C54.4914 64.7458 54.4961 64.7505 54.5007 64.7599C54.5242 64.7927 54.6884 65.0085 54.7166 65.0414C54.7213 65.0461 54.7213 65.0507 54.726 65.0554C54.8198 65.1493 54.9324 65.2337 55.045 65.3041C55.106 65.3463 55.1904 65.3698 55.2561 65.3979C55.3265 65.4261 55.4016 65.4683 55.4766 65.4824C55.5235 65.4918 55.7957 65.5293 55.8473 65.534C55.852 65.534 55.8614 65.534 55.866 65.534C55.8754 65.534 55.8848 65.534 55.8942 65.534C56.1992 65.5152 56.3587 65.4777 56.6308 65.3369C56.6402 65.3323 56.6449 65.3276 56.6543 65.3229C56.6824 65.3041 56.917 65.1258 56.9358 65.1024C56.9405 65.0977 56.9405 65.0977 56.9451 65.093C56.9545 65.0836 56.9921 65.0367 57.0343 64.9804C57.3909 64.9991 57.7521 64.8912 58.043 64.6144C58.1181 64.544 58.1932 64.4736 58.2635 64.4033C58.5732 64.1124 58.6858 63.7793 58.6764 63.4602C58.9298 63.0943 59.1127 62.6767 59.2488 62.2685C59.3849 61.851 59.4787 61.4193 59.6242 61.0064C59.6617 60.9314 59.7039 60.8563 59.7508 60.7812C59.7743 60.7531 59.7977 60.7249 59.8212 60.7015C60.2998 60.2464 60.3467 59.4112 59.9385 58.8951C60.0042 58.5949 60.0605 58.2852 60.098 57.9756Z" fill="#F499AD"/>
<path d="M55.4947 72.7597C55.4525 72.5814 55.368 72.4266 55.2507 72.2906C55.1522 72.1404 55.0255 72.0231 54.866 71.934C54.7581 71.8871 54.6455 71.8401 54.5376 71.7932C54.2936 71.7275 54.0496 71.7275 53.8057 71.7932C53.6977 71.8401 53.5851 71.8871 53.4772 71.934C53.2708 72.056 53.1066 72.2202 52.9846 72.4266C52.9236 72.5158 52.8579 72.6049 52.7969 72.6987C52.6984 72.8583 52.6421 73.0272 52.6327 73.2101C52.5905 73.3931 52.5999 73.5761 52.6562 73.7591C52.6843 73.8764 52.7359 73.9796 52.8016 74.0781C52.7969 74.111 52.7922 74.1391 52.7875 74.172C51.1783 74.1766 49.569 74.1813 47.9644 74.1813C47.9363 74.1813 47.9081 74.1907 47.88 74.1907C47.8612 74.0359 47.8237 73.8857 47.7627 73.7403C47.7814 73.6371 47.7861 73.5339 47.7814 73.4307C47.772 73.3462 47.7814 73.2571 47.7814 73.1726C47.7955 73.1257 47.8002 73.0835 47.8143 73.0365C47.8706 72.8536 47.88 72.6706 47.8377 72.4876C47.8283 72.3046 47.7767 72.1357 47.6735 71.9762C47.5891 71.8167 47.4671 71.6853 47.3169 71.5915C47.1856 71.4695 47.0261 71.3897 46.8478 71.3428C46.7258 71.3287 46.6038 71.31 46.4818 71.2959C46.2332 71.2959 46.0032 71.3616 45.7874 71.4836C45.6936 71.5539 45.5998 71.629 45.5106 71.6994C45.3417 71.873 45.2244 72.0747 45.1587 72.3046C45.0696 72.5533 45.0414 72.8207 45.018 73.0788C44.9945 73.3415 45.0414 73.6089 45.0837 73.8623C45.1024 73.9374 45.1306 74.003 45.1587 74.0687C45.154 74.0922 45.154 74.1203 45.154 74.1438C45.1353 74.1766 45.1165 74.2095 45.0931 74.2423C44.9382 74.4347 44.7834 74.6224 44.6473 74.8288C44.4503 75.1291 44.3095 75.4622 44.1922 75.8C43.9905 76.363 43.9107 77.0105 43.9858 77.6063C43.9764 77.794 44.0186 77.9723 44.1031 78.1365C44.1594 78.3054 44.2532 78.4555 44.3893 78.5775C44.6286 78.8168 45.018 78.9951 45.3605 78.981C45.4543 78.9763 45.5435 78.9669 45.6373 78.9482C45.8109 79.0326 46.0032 79.0795 46.2097 79.0514C46.6507 78.9951 47.0917 78.9669 47.5375 78.9904C47.636 78.9951 47.7392 79.0092 47.8377 79.0139C47.8471 79.0139 47.8471 79.0139 47.8518 79.0139C47.8659 79.0185 47.8706 79.0185 47.8893 79.0232C48.0864 79.0608 48.2788 79.103 48.4711 79.1593C48.565 79.1875 48.6541 79.2203 48.7432 79.2531C48.7714 79.2625 48.8136 79.2813 48.8558 79.3047C49.0294 79.3939 49.1937 79.4971 49.3532 79.6097C49.3766 79.6332 49.4142 79.666 49.447 79.6989C49.5174 79.7692 49.5878 79.8396 49.6535 79.9147C49.6769 79.9381 49.691 79.9522 49.7051 79.9663C49.7144 79.9804 49.7191 79.9897 49.7332 80.0132C49.7895 80.0977 49.8411 80.1774 49.8927 80.2619C49.9443 80.3463 49.9912 80.4355 50.0382 80.5199C50.0475 80.534 50.0804 80.6044 50.1086 80.6607C50.132 80.717 50.1789 80.8296 50.1836 80.8483C50.2258 80.9609 50.2634 81.0782 50.2962 81.1955C50.4182 81.6037 50.5027 82.0213 50.5683 82.4388C50.573 82.4764 50.5777 82.4858 50.5777 82.4905L50.5871 82.5843C50.6059 82.7344 50.62 82.8892 50.634 83.0394C50.6528 83.2927 50.6716 83.5461 50.6763 83.7994C50.695 84.3578 50.6763 84.9161 50.6293 85.4744C50.573 86.1923 51.3049 86.8819 52.004 86.8491C52.5483 86.8256 52.9564 86.5488 53.1817 86.1313C53.2943 86.1313 53.4022 86.1172 53.5054 86.0844C53.8385 85.9764 54.1575 85.77 54.3264 85.451C54.5047 85.1085 54.5423 84.7706 54.4672 84.3906C54.4531 84.3109 54.439 84.2311 54.425 84.1513C54.5704 83.9355 54.6596 83.6728 54.683 83.3819C54.7862 81.9181 54.8848 80.4495 54.988 78.9857C55.0021 78.7887 54.9551 78.5963 54.8707 78.418C55.0771 77.1418 55.2836 75.8657 55.49 74.5895C55.5416 74.2705 55.5416 73.9749 55.4196 73.684C55.4759 73.562 55.5135 73.4353 55.5228 73.304C55.5604 73.1257 55.551 72.9427 55.4947 72.7597Z" fill="#F499AD"/>
<path d="M47.4761 53.3974C47.4668 53.3411 47.4574 53.2848 47.4433 53.2332C47.2603 52.2104 46.9976 51.1969 46.6316 50.2117C46.519 49.9114 46.322 49.7143 46.0921 49.5971C45.4915 48.654 44.6986 47.8283 43.7603 47.1949C43.2817 46.8711 42.5216 47.087 42.2542 47.589C41.9586 48.1426 42.1369 48.7525 42.6483 49.095C42.714 49.1373 42.775 49.1795 42.836 49.2264C42.8454 49.2311 42.8735 49.2546 42.9017 49.2733C42.9392 49.3015 43.0002 49.3531 43.0143 49.3625C43.0612 49.4 43.1081 49.4422 43.155 49.4845C43.3615 49.6674 43.5538 49.8645 43.7368 50.0709C43.7884 50.1272 43.8353 50.1882 43.8869 50.2445C43.8916 50.2539 43.9198 50.2867 43.9432 50.3149C43.9714 50.3524 44.0136 50.4134 44.023 50.4228C44.0605 50.4744 44.0934 50.5213 44.1262 50.5729C44.2904 50.8169 44.4359 51.0656 44.5672 51.3283C44.6235 51.4409 44.6752 51.5535 44.7268 51.6708C44.7315 51.6802 44.7315 51.6849 44.7362 51.6943C44.7643 51.7646 44.7924 51.8397 44.8159 51.9101C44.9097 52.1681 44.9848 52.4356 45.0458 52.703C45.074 52.8391 45.1021 52.9751 45.1256 53.1065C45.1256 53.1159 45.1256 53.1159 45.1303 53.1206C45.135 53.1863 45.1443 53.2473 45.149 53.3129C45.1725 53.6038 45.1772 53.8947 45.1631 54.1856C45.1537 54.3592 45.2053 54.5328 45.2898 54.6876C45.271 55.9966 45.1819 57.3056 44.8159 58.5724C44.3514 60.1582 43.3943 61.5423 42.4794 62.8982C42.3199 63.1375 42.2917 63.4237 42.3621 63.6958C41.6396 64.4653 42.6436 65.9385 43.779 65.3661C46.0968 64.1884 47.1618 61.5845 47.5278 59.1448C47.8093 57.2352 47.7952 55.2929 47.4761 53.3974Z" fill="#F68B38"/>
<path d="M63.1423 54.6407C63.1095 54.4858 63.0626 54.331 63.025 54.1762C63.1189 54.0214 63.1752 53.8384 63.1658 53.6413C63.0719 51.2673 61.6879 48.9871 59.5578 47.8939C59.0464 47.6312 58.338 47.7438 58.0518 48.288C57.7843 48.79 57.9016 49.5126 58.4459 49.7941C58.657 49.902 58.8587 50.0193 59.0558 50.1554C59.098 50.1835 59.1449 50.2163 59.1872 50.2492C59.2716 50.3196 59.3608 50.3946 59.4452 50.4697C59.5156 50.5354 59.5766 50.6105 59.647 50.6761C59.6282 50.8169 59.6376 50.9623 59.6845 51.0984C60.1302 52.398 60.6745 53.7023 60.9841 55.0442C60.8715 55.2178 60.8011 55.4289 60.7871 55.6494C60.6932 57.0241 60.6604 58.4082 60.3742 59.7594C60.0927 61.0731 59.6423 62.3305 59.0089 63.5175C58.7274 64.043 58.8775 64.7139 59.403 65.0236C59.7033 65.2018 60.088 65.2065 60.407 65.0752C60.909 65.0799 61.2985 64.7655 61.4908 64.2776C61.9412 63.1422 62.4151 62.0114 62.842 60.8667C63.0016 60.435 63.0954 59.9846 63.147 59.5295C63.2268 59.3794 63.2831 59.2105 63.2972 59.0322C63.3816 57.5683 63.4426 56.0951 63.1423 54.6407Z" fill="#F68B38"/>
<path d="M49.7448 80.905C48.586 79.3286 46.6577 79.1316 44.8419 79.1925C44.2649 79.2113 43.7159 79.6852 43.7394 80.2951C43.7488 80.4968 43.8097 80.6892 43.913 80.8581C43.3969 82.3923 44.0021 84.0908 45.0531 85.2496C46.1322 86.4413 47.7227 87.0512 49.2287 87.497C49.8809 87.6893 50.6644 87.1451 50.6222 86.4366C50.5096 84.5693 50.9412 82.5284 49.7448 80.905Z" fill="#F68B38"/>
<path d="M38.1939 63.9066C37.0304 62.2645 36.3032 59.8388 36.2703 57.1223C36.2656 56.8314 36.2703 56.5405 36.2844 56.2402C36.2938 56.0197 40.629 55.9869 40.6477 55.7711C40.6947 55.2456 36.4439 54.5465 36.5377 54.0492C37.3307 49.8266 39.7844 46.7629 42.5573 46.8849C45.7852 47.0256 48.2155 51.4453 47.981 56.7516C47.7792 61.312 45.682 65.042 43.0499 65.9147" stroke="black" stroke-miterlimit="10"/>
<path d="M41.0322 46.9976C43.3593 48.3206 44.9264 52.0459 44.734 56.3576C44.5745 59.9421 43.2421 63.0199 41.4029 64.5917" stroke="black" stroke-miterlimit="10"/>
<path d="M39.9062 44.1121C40.8774 43.0517 42.0316 42.4559 43.2468 42.5075C44.3681 42.5544 45.3862 43.1503 46.2261 44.1355" stroke="black" stroke-miterlimit="10" stroke-linecap="round" stroke-linejoin="round"/>
<path d="M55.375 45.1306C56.3462 44.0703 57.5004 43.4744 58.7155 43.526C59.8369 43.573 60.855 44.1688 61.6948 45.1541" stroke="black" stroke-miterlimit="10" stroke-linecap="round" stroke-linejoin="round"/>
<path d="M55.4095 65.9575C53.5328 64.4843 52.2848 61.2704 52.313 57.5358C52.313 57.3434 52.3177 57.1464 52.327 56.9493C52.3411 56.6256 56.5215 56.6021 56.5543 56.2925C56.6012 55.8421 52.5053 55.1101 52.5851 54.6832C53.3733 50.4981 55.752 47.4719 58.4263 47.5892C61.5604 47.7253 63.9157 52.1403 63.6811 57.4513C63.5357 60.7684 62.4143 63.6492 60.8285 65.31" stroke="black" stroke-miterlimit="10"/>
<path d="M56.835 47.8936C59.1527 49.1556 60.7197 52.9278 60.5274 57.3099C60.3819 60.627 59.2606 63.5078 57.6748 65.1686" stroke="black" stroke-miterlimit="10"/>
<path d="M33.502 65.3986C34.8391 64.3335 36.5563 63.7236 38.4002 63.8081C42.4538 63.9863 45.5973 67.416 45.419 71.4697C45.2595 75.134 42.4398 78.0523 38.9069 78.4464" stroke="black" stroke-miterlimit="10" stroke-linecap="round" stroke-linejoin="round"/>
<path d="M54.1201 66.8254C55.4479 65.6759 57.2026 65.0096 59.0934 65.0941C63.0204 65.2677 66.0607 68.5895 65.8871 72.5165C65.7275 76.1479 62.8703 79.0286 59.3327 79.2961" stroke="black" stroke-miterlimit="10" stroke-linecap="round" stroke-linejoin="round"/>
<path d="M54.3145 67.8171C54.3659 66.6471 52.8149 65.6286 50.8501 65.5423C48.8854 65.4559 47.251 66.3344 47.1995 67.5045C47.1481 68.6745 48.6992 69.693 50.6639 69.7794C52.6287 69.8657 54.2631 68.9872 54.3145 67.8171Z" stroke="black" stroke-miterlimit="10" stroke-linecap="round" stroke-linejoin="round"/>
<path d="M45.4443 70.7053C45.4443 70.7053 51.492 73.9754 57.6242 70.3018" stroke="black" stroke-miterlimit="10" stroke-linecap="round" stroke-linejoin="round"/>
<path d="M53.0079 90.1622C52.5856 91.1193 50.9013 91.7762 48.926 91.6917C46.9602 91.6073 45.3509 90.8097 44.999 89.8291" stroke="black" stroke-miterlimit="10" stroke-linecap="round" stroke-linejoin="round"/>
<path d="M55.5717 71.2627L55.0979 82.0866C54.9571 85.2535 52.2781 87.7073 49.1112 87.5713C45.9442 87.4305 43.4904 84.7515 43.6265 81.5846L43.8892 75.6401" stroke="black" stroke-miterlimit="10" stroke-linecap="round" stroke-linejoin="round"/>
<path d="M52.8324 72.4318L52.7574 74.1396L48.0938 73.9379L48.1923 71.7046" stroke="black" stroke-miterlimit="10" stroke-linecap="round" stroke-linejoin="round"/>
<path d="M43.7344 79.1784C43.7344 79.1784 46.8262 78.2447 49.1581 79.8117C49.1581 79.8117 51.5086 81.3976 50.6547 87.4312" stroke="black" stroke-miterlimit="10" stroke-linecap="round" stroke-linejoin="round"/>
<path d="M31.6624 92.8916C34.7847 92.8916 37.3159 90.3604 37.3159 87.2381C37.3159 84.1157 34.7847 81.5845 31.6624 81.5845C28.54 81.5845 26.0088 84.1157 26.0088 87.2381C26.0088 90.3604 28.54 92.8916 31.6624 92.8916Z" fill="#F499AD" stroke="#1D1D1B" stroke-miterlimit="10"/>
<path d="M35.236 91.626C35.1609 91.687 34.9827 91.8606 35.0061 91.7761C35.9632 88.276 31.9283 83.5374 27.8653 83.101C27.7526 83.087 28.006 82.9274 28.0951 82.8524C30.5161 80.8818 34.0818 81.2478 36.0524 83.6687C38.0229 86.0897 37.657 89.6554 35.236 91.626Z" fill="#F68B38" stroke="black" stroke-miterlimit="10"/>
<path d="M20.0872 57.9014C22.269 57.9014 24.0377 56.1327 24.0377 53.9509C24.0377 51.7692 22.269 50.0005 20.0872 50.0005C17.9054 50.0005 16.1367 51.7692 16.1367 53.9509C16.1367 56.1327 17.9054 57.9014 20.0872 57.9014Z" fill="#F499AD" stroke="#1D1D1B" stroke-miterlimit="10"/>
<path d="M17.8264 57.1882C17.7748 57.1507 17.62 57.0615 17.681 57.0615C20.2146 57.0334 22.6214 53.416 22.1382 50.6056C22.1241 50.5306 22.2836 50.6666 22.3493 50.7136C24.1369 51.9616 24.5732 54.4247 23.3252 56.2123C22.0772 57.9999 19.614 58.4362 17.8264 57.1882Z" fill="#F68B38" stroke="black" stroke-miterlimit="10"/>
<path d="M37.1421 68.2377C37.5333 68.2377 37.8505 67.9205 37.8505 67.5293C37.8505 67.138 37.5333 66.8208 37.1421 66.8208C36.7508 66.8208 36.4336 67.138 36.4336 67.5293C36.4336 67.9205 36.7508 68.2377 37.1421 68.2377Z" fill="black"/>
<path d="M41.2573 69.0082C41.6485 69.0082 41.9657 68.691 41.9657 68.2998C41.9657 67.9085 41.6485 67.5913 41.2573 67.5913C40.866 67.5913 40.5488 67.9085 40.5488 68.2998C40.5488 68.691 40.866 69.0082 41.2573 69.0082Z" fill="black"/>
<path d="M38.7417 71.6806C39.1329 71.6806 39.4501 71.3634 39.4501 70.9721C39.4501 70.5808 39.1329 70.2637 38.7417 70.2637C38.3504 70.2637 38.0332 70.5808 38.0332 70.9721C38.0332 71.3634 38.3504 71.6806 38.7417 71.6806Z" fill="black"/>
<path d="M58.2104 69.1948C58.6017 69.1948 58.9189 68.8776 58.9189 68.4863C58.9189 68.095 58.6017 67.7778 58.2104 67.7778C57.8191 67.7778 57.502 68.095 57.502 68.4863C57.502 68.8776 57.8191 69.1948 58.2104 69.1948Z" fill="black"/>
<path d="M62.3618 69.6918C62.7531 69.6918 63.0702 69.3746 63.0702 68.9834C63.0702 68.5921 62.7531 68.2749 62.3618 68.2749C61.9705 68.2749 61.6533 68.5921 61.6533 68.9834C61.6533 69.3746 61.9705 69.6918 62.3618 69.6918Z" fill="black"/>
<path d="M60.0307 72.5253C60.422 72.5253 60.7392 72.2081 60.7392 71.8169C60.7392 71.4256 60.422 71.1084 60.0307 71.1084C59.6395 71.1084 59.3223 71.4256 59.3223 71.8169C59.3223 72.2081 59.6395 72.5253 60.0307 72.5253Z" fill="black"/>
<path d="M18.8063 43.5262C20.2807 43.5262 21.4759 42.331 21.4759 40.8566C21.4759 39.3822 20.2807 38.187 18.8063 38.187C17.3319 38.187 16.1367 39.3822 16.1367 40.8566C16.1367 42.331 17.3319 43.5262 18.8063 43.5262Z" fill="#F68B38" stroke="black" stroke-miterlimit="10"/>
<path d="M50.4658 74.0403V72.5249" stroke="black" stroke-miterlimit="10" stroke-linecap="round" stroke-linejoin="round"/>
<path d="M88.3611 1C70.7952 1 56.5557 13.4097 56.5557 28.7189C56.5557 38.6092 62.5048 47.2843 71.4473 52.1918C71.0861 53.1912 65.9861 67.3228 66.704 67.0835C67.4453 66.8348 86.2264 56.4379 86.2264 56.4379C86.2264 56.4379 87.5448 56.4426 88.3611 56.4426C105.927 56.4426 120.167 44.0329 120.167 28.7236C120.162 13.4097 105.922 1 88.3611 1Z" fill="#F499AD" stroke="black" stroke-miterlimit="10"/>
<path d="M66.4179 15.6711C69.4441 13.3815 72.1324 11.2702 75.6466 9.71721C79.6252 7.95779 83.89 7.10389 88.1079 6.1327C88.2768 6.09516 88.2346 5.83712 88.0657 5.83242C81.1172 5.72921 69.9508 9.03221 66.3053 15.5585C66.263 15.6241 66.3475 15.7227 66.4179 15.6711Z" fill="black"/>
<path d="M97.3468 49.0533C97.2999 49.072 97.3093 49.1612 97.3609 49.1705C101.715 49.8227 107.936 46.196 110.024 42.4754C110.108 42.3253 109.916 42.1845 109.794 42.2971C108.03 43.9064 106.139 45.3561 104.042 46.5009C101.893 47.6739 99.5567 48.1008 97.3468 49.0533Z" fill="black"/>
<path d="M110.751 41.5792C110.882 41.4572 111.07 41.3962 111.211 41.2883C111.394 41.1428 111.544 40.9833 111.699 40.8097C112.013 40.4578 112.276 40.1013 112.234 39.6086C112.229 39.5429 112.149 39.4726 112.083 39.5242C111.75 39.7728 111.534 40.0684 111.276 40.3922C111.14 40.5611 110.99 40.7112 110.868 40.8895C110.746 41.0678 110.699 41.2789 110.591 41.4619C110.535 41.5557 110.671 41.6542 110.751 41.5792Z" fill="black"/>
</svg>
