<svg width="42" height="42" viewBox="0 0 42 42" fill="none" xmlns="http://www.w3.org/2000/svg">
<path d="M21 41C32.0457 41 41 32.0457 41 21C41 9.95429 32.0457 1 21 1C9.9543 1 1 9.95429 1 21C1 32.0457 9.9543 41 21 41Z" fill="#FBB33B" stroke="black" stroke-width="0.75" stroke-miterlimit="10"/>
<path fill-rule="evenodd" clip-rule="evenodd" d="M24.1926 14.0019L24.1501 14.0174L24.1655 14.0019H24.1926ZM14.3615 15.6368C16.7229 13.9182 18.9118 14.0006 18.9118 14.0006L19.0883 14.1746C16.1986 14.8638 14.8884 16.1547 14.8884 16.1547C14.8884 16.1547 15.2388 15.9833 15.8508 15.7218C19.7427 14.1913 23.9929 14.3021 27.9274 16.2397C27.9274 16.2397 26.6146 15.0326 23.9027 14.2596L24.1423 14.0238C24.5172 14.0251 26.5012 14.0947 28.6244 15.6471C28.6244 15.6471 31 19.7053 31 24.691C30.9858 24.6738 30.9286 24.7328 30.8233 24.8416C30.3457 25.335 28.8776 26.8513 25.9357 26.9147C25.9357 26.9147 25.3276 26.2267 24.8947 25.6263C26.9946 25.0234 27.7805 23.8176 27.7805 23.8176C27.2813 24.132 26.8139 24.3538 26.4003 24.5502L26.4003 24.5502L26.4002 24.5502C26.2427 24.625 26.0931 24.696 25.9524 24.767C25.1859 25.1043 24.4183 25.2744 23.6517 25.4442L23.5974 25.4563C20.1275 26.0194 18.079 25.1768 16.2179 24.4113C16.0861 24.3571 15.9553 24.3033 15.825 24.2504L15.1512 23.9077C15.1512 23.9077 15.9358 25.1136 17.952 25.7165C17.4225 26.3207 16.8982 27.0074 16.8982 27.0074C13.3089 26.9224 12 24.6807 12 24.6807C12 19.6872 14.3615 15.6368 14.3615 15.6368ZM24.4242 23.1334C25.3401 23.1334 26.0861 22.3604 26.0861 21.4071C26.0861 20.4602 25.344 19.6872 24.4242 19.6872V19.691C23.512 19.691 22.7648 20.4614 22.7622 21.4148C22.7622 22.3604 23.5082 23.1334 24.4242 23.1334ZM20.1365 21.4071C20.1365 22.3604 19.3906 23.1334 18.4746 23.1334C17.5586 23.1334 16.8127 22.3604 16.8127 21.4148C16.8127 20.4614 17.5586 19.691 18.4746 19.691L18.4798 19.6872C19.3957 19.6872 20.1365 20.4602 20.1365 21.4071Z" fill="black"/>
</svg>
