<svg width="44" height="44" viewBox="0 0 44 44" fill="none" xmlns="http://www.w3.org/2000/svg">
<path d="M22 43C33.598 43 43 33.598 43 22C43 10.402 33.598 1 22 1C10.402 1 1 10.402 1 22C1 33.598 10.402 43 22 43Z" fill="#FBB33B" stroke="black" stroke-width="0.75" stroke-miterlimit="10"/>
<path d="M17.898 25.931L17.7293 31.208C18.2552 31.1878 18.4735 30.9461 18.7414 30.6642L21.1226 28.1667L26.3912 31.7719C27.3536 32.2654 27.9985 31.9633 28.2168 30.8152L30.9553 14.6822C31.2033 13.2623 30.3798 12.7386 29.4769 13.1213L10.0002 21.5906C8.67063 22.1747 8.72026 22.9401 9.83151 23.2422L14.9512 24.6319L26.4011 16.7064C26.9369 16.3136 27.4528 16.4949 27.046 16.8877L17.898 25.931Z" fill="black"/>
</svg>
