<svg width="42" height="42" viewBox="0 0 42 42" fill="none" xmlns="http://www.w3.org/2000/svg">
<path d="M21 41C32.0457 41 41 32.0457 41 21C41 9.95429 32.0457 1 21 1C9.9543 1 1 9.95429 1 21C1 32.0457 9.9543 41 21 41Z" fill="#FBB33B" stroke="black" stroke-width="0.75" stroke-miterlimit="10"/>
<path fill-rule="evenodd" clip-rule="evenodd" d="M14.9389 19.0098L21.0581 25.2388L27.112 19.0763L32.0757 24.1291L26.3086 29.9998L24.8249 28.5297L29.148 24.1291L27.112 22.0565L21.0581 28.2191L14.9389 21.9901L12.9277 24.0373L17.3165 28.5049L15.8329 29.975L10 24.0373L14.9389 19.0098Z" fill="black"/>
<path fill-rule="evenodd" clip-rule="evenodd" d="M27.1368 21.9899L21.0176 15.7609L14.9637 21.9235L10 16.8707L15.7672 11L17.2508 12.47L12.9277 16.8707L14.9637 18.9432L21.0176 12.7806L27.1368 19.0097L29.148 16.9624L24.7592 12.4948L26.2428 11.0248L32.0757 16.9624L27.1368 21.9899Z" fill="black"/>
<path fill-rule="evenodd" clip-rule="evenodd" d="M20.1055 29.8543V25.9297H22.1037V29.8543H20.1055Z" fill="black"/>
<path fill-rule="evenodd" clip-rule="evenodd" d="M20.1055 15.071V11.1465H22.1037V15.071H20.1055Z" fill="black"/>
</svg>
