<svg width="264" height="461" viewBox="0 0 264 461" fill="none" xmlns="http://www.w3.org/2000/svg">
<path d="M1 1.5V253.046V344.742V407.237C1 417.067 8.94498 425.028 18.7565 425.028C28.5679 425.028 36.5129 417.067 36.5129 407.237V344.742V295.929C36.5129 286.099 44.458 278.138 54.2695 278.138C64.0809 278.138 72.0259 286.099 72.0259 295.929L72.4351 344.742V441.709C72.4351 451.529 80.3802 459.5 90.1916 459.5C99.0749 459.5 106.431 452.96 107.739 444.429V322.381C107.739 312.55 115.684 304.59 125.495 304.59C135.306 304.59 143.251 312.55 143.251 322.381L143.461 344.732V377.835C143.461 387.655 151.406 395.626 161.218 395.626C171.029 395.626 178.974 387.665 178.974 377.835V344.732V338.852C178.974 329.021 186.919 321.061 196.731 321.061C206.542 321.061 214.487 329.021 214.487 338.852V344.732V403.376C214.487 413.197 222.432 421.167 232.244 421.167C242.055 421.167 250 413.207 250 403.376V344.732V249.186V1.5H1Z" fill="#F68B38" stroke="black" stroke-width="2" stroke-miterlimit="10"/>
<path d="M14 1.5V240.199V331.827V394.275C14 404.099 21.945 412.053 31.7565 412.053C41.5679 412.053 49.513 404.099 49.513 394.275V331.827V283.05C49.513 273.227 57.458 265.272 67.2695 265.272C77.0809 265.272 85.0259 273.227 85.0259 283.05L85.4352 331.827V428.722C85.4352 438.535 93.3802 446.5 103.192 446.5C112.075 446.5 119.431 439.964 120.739 431.44V309.482C120.739 299.659 128.684 291.704 138.495 291.704C148.306 291.704 156.252 299.659 156.252 309.482L156.461 331.817V364.895C156.461 374.708 164.406 382.673 174.218 382.673C184.029 382.673 191.974 374.718 191.974 364.895V331.817V325.941C191.974 316.118 199.919 308.163 209.731 308.163C219.542 308.163 227.487 316.118 227.487 325.941V331.817V390.418C227.487 400.231 235.432 408.196 245.244 408.196C255.055 408.196 263 400.241 263 390.418V331.817V236.342V1.5H14Z" fill="#F499AD" stroke="black" stroke-width="2" stroke-miterlimit="10"/>
</svg>
