<svg width="49" height="49" viewBox="0 0 49 49" fill="none" xmlns="http://www.w3.org/2000/svg">
<circle cx="22" cy="27" r="21.75" fill="#F68B38" stroke="black" stroke-width="0.5"/>
<circle cx="27" cy="22" r="21.75" fill="white" stroke="black" stroke-width="0.5"/>
<path d="M28.7324 26.7109H23.5371V26.1914C23.5371 25.3073 23.6374 24.5918 23.8379 24.0449C24.0384 23.4889 24.3346 22.9831 24.7266 22.5273C25.1276 22.0716 26.0208 21.2695 27.4062 20.1211C28.1445 19.5195 28.5137 18.9681 28.5137 18.4668C28.5137 17.9655 28.3633 17.5781 28.0625 17.3047C27.7708 17.0221 27.3242 16.8809 26.7227 16.8809C26.0755 16.8809 25.5378 17.0951 25.1094 17.5234C24.6901 17.9518 24.4212 18.6992 24.3027 19.7656L18.998 19.1094C19.1803 17.1589 19.8867 15.5911 21.1172 14.4062C22.3568 13.2122 24.2526 12.6152 26.8047 12.6152C28.7917 12.6152 30.3958 13.0299 31.6172 13.8594C33.276 14.9805 34.1055 16.4753 34.1055 18.3438C34.1055 19.1185 33.8913 19.8659 33.4629 20.5859C33.0345 21.306 32.1595 22.1855 30.8379 23.2246C29.9173 23.9538 29.334 24.5417 29.0879 24.9883C28.8509 25.4258 28.7324 26 28.7324 26.7109ZM23.3594 28.0918H28.9238V33H23.3594V28.0918Z" fill="#171717"/>
</svg>
