<svg width="256" height="256" viewBox="0 0 256 256" fill="none" xmlns="http://www.w3.org/2000/svg">
<path d="M122.41 44.2281L29.13 205.788C28.3879 207.081 27.9983 208.547 28 210.038C28.0017 211.529 28.3947 212.993 29.1397 214.285C29.8847 215.577 30.9557 216.65 32.2455 217.398C33.5353 218.146 34.9989 218.543 36.49 218.548H223.05C224.541 218.543 226.005 218.146 227.294 217.398C228.584 216.65 229.655 215.577 230.4 214.285C231.145 212.993 231.538 211.529 231.54 210.038C231.542 208.547 231.152 207.081 230.41 205.788L137.13 44.2281C136.38 42.9415 135.305 41.8741 134.014 41.1322C132.723 40.3904 131.259 40 129.77 40C128.281 40 126.817 40.3904 125.526 41.1322C124.235 41.8741 123.16 42.9415 122.41 44.2281Z" fill="url(#paint0_linear)"/>
<path d="M116.002 184C116.002 181.627 116.705 179.307 118.024 177.334C119.343 175.36 121.217 173.822 123.409 172.914C125.602 172.006 128.015 171.768 130.343 172.231C132.671 172.694 134.809 173.837 136.487 175.515C138.165 177.193 139.308 179.332 139.771 181.659C140.234 183.987 139.996 186.4 139.088 188.593C138.18 190.785 136.642 192.659 134.668 193.978C132.695 195.297 130.375 196 128.002 196C126.408 196.068 124.817 195.804 123.33 195.225C121.844 194.646 120.493 193.765 119.365 192.637C118.237 191.509 117.356 190.158 116.777 188.672C116.198 187.185 115.934 185.594 116.002 184ZM120.362 165.36L117.322 105.36H138.362L135.442 165.36H120.362Z" fill="#353535"/>
<defs>
<linearGradient id="paint0_linear" x1="290" y1="264" x2="148" y2="156" gradientUnits="userSpaceOnUse">
<stop stop-color="#F4AD3D"/>
<stop offset="1" stop-color="#F3BD46"/>
</linearGradient>
</defs>
</svg>
