<svg width="49" height="49" viewBox="0 0 49 49" fill="none" xmlns="http://www.w3.org/2000/svg">
<circle cx="22" cy="27" r="21.75" fill="#F68B38" stroke="black" stroke-width="0.5"/>
<circle cx="27" cy="22" r="21.75" fill="white" stroke="black" stroke-width="0.5"/>
<path d="M28.7324 26.7109H23.5371V26.1914C23.5371 25.3073 23.6374 24.5918 23.8379 24.0449C24.0384 23.4889 24.3346 22.9831 24.7266 22.5273C25.1276 22.0716 26.0208 21.2695 27.4062 20.1211C28.1445 19.5195 28.5137 18.9681 28.5137 18.4668C28.5137 17.9655 28.3633 17.5781 28.0625 17.3047C27.7708 17.0221 27.3242 16.8809 26.7227 16.8809C26.0755 16.8809 25.5378 17.0951 25.1094 17.5234C24.6901 17.9518 24.4212 18.6992 24.3027 19.7656L18.998 19.1094C19.1803 17.1589 19.8867 15.5911 21.1172 14.4062C22.3568 13.2122 24.2526 12.6152 26.8047 12.6152C28.7917 12.6152 30.3958 13.0299 31.6172 13.8594C33.276 14.9805 34.1055 16.4753 34.1055 18.3438C34.1055 19.1185 33.8913 19.8659 33.4629 20.5859C33.0345 21.306 32.1595 22.1855 30.8379 23.2246C29.9173 23.9538 29.334 24.5417 29.0879 24.9883C28.8509 25.4258 28.7324 26 28.7324 26.7109ZM23.3594 28.0918H28.9238V33H23.3594V28.0918Z" fill="#FBB33B"/>
<path d="M28.7324 26.7109V26.9609H28.9824V26.7109H28.7324ZM23.5371 26.7109H23.2871V26.9609H23.5371V26.7109ZM23.8379 24.0449L24.0726 24.131L24.0731 24.1297L23.8379 24.0449ZM24.7266 22.5273L24.5389 22.3622L24.537 22.3643L24.7266 22.5273ZM27.4062 20.1211L27.2483 19.9273L27.2467 19.9286L27.4062 20.1211ZM28.0625 17.3047L27.8885 17.4843L27.8943 17.4897L28.0625 17.3047ZM25.1094 17.5234L24.9326 17.3467L24.9307 17.3486L25.1094 17.5234ZM24.3027 19.7656L24.272 20.0137L24.5233 20.0448L24.5512 19.7932L24.3027 19.7656ZM18.998 19.1094L18.7491 19.0861L18.7266 19.3277L18.9674 19.3575L18.998 19.1094ZM21.1172 14.4062L21.2906 14.5863L21.2906 14.5863L21.1172 14.4062ZM31.6172 13.8594L31.4767 14.0662L31.4772 14.0665L31.6172 13.8594ZM30.8379 23.2246L30.6834 23.0281L30.6827 23.0286L30.8379 23.2246ZM29.0879 24.9883L28.8689 24.8676L28.8681 24.8692L29.0879 24.9883ZM23.3594 28.0918V27.8418H23.1094V28.0918H23.3594ZM28.9238 28.0918H29.1738V27.8418H28.9238V28.0918ZM28.9238 33V33.25H29.1738V33H28.9238ZM23.3594 33H23.1094V33.25H23.3594V33ZM28.7324 26.4609H23.5371V26.9609H28.7324V26.4609ZM23.7871 26.7109V26.1914H23.2871V26.7109H23.7871ZM23.7871 26.1914C23.7871 25.323 23.886 24.6399 24.0726 24.131L23.6032 23.9589C23.3887 24.5437 23.2871 25.2916 23.2871 26.1914H23.7871ZM24.0731 24.1297C24.2631 23.6029 24.5437 23.1234 24.9161 22.6904L24.537 22.3643C24.1256 22.8427 23.8137 23.375 23.6027 23.9601L24.0731 24.1297ZM24.9142 22.6925C25.3002 22.254 26.1779 21.464 27.5658 20.3136L27.2467 19.9286C25.8637 21.075 24.955 21.8893 24.5389 22.3622L24.9142 22.6925ZM27.5642 20.3149C28.3126 19.7051 28.7637 19.0888 28.7637 18.4668H28.2637C28.2637 18.8474 27.9765 19.334 27.2483 19.9273L27.5642 20.3149ZM28.7637 18.4668C28.7637 17.9128 28.5954 17.4512 28.2307 17.1197L27.8943 17.4897C28.1312 17.705 28.2637 18.0182 28.2637 18.4668H28.7637ZM28.2364 17.1251C27.8799 16.7797 27.3583 16.6309 26.7227 16.6309V17.1309C27.2902 17.1309 27.6618 17.2646 27.8886 17.4842L28.2364 17.1251ZM26.7227 16.6309C26.0142 16.6309 25.4113 16.868 24.9326 17.3467L25.2862 17.7002C25.6642 17.3221 26.1368 17.1309 26.7227 17.1309V16.6309ZM24.9307 17.3486C24.4518 17.8379 24.1746 18.655 24.0543 19.738L24.5512 19.7932C24.6678 18.7435 24.9284 18.0658 25.288 17.6983L24.9307 17.3486ZM24.3334 19.5175L19.0287 18.8613L18.9674 19.3575L24.272 20.0137L24.3334 19.5175ZM19.247 19.1326C19.4245 17.2325 20.1095 15.7236 21.2906 14.5863L20.9438 14.2262C19.6639 15.4587 18.9361 17.0853 18.7491 19.0861L19.247 19.1326ZM21.2906 14.5863C22.4653 13.4548 24.2865 12.8652 26.8047 12.8652V12.3652C24.2187 12.3652 22.2482 12.9697 20.9438 14.2262L21.2906 14.5863ZM26.8047 12.8652C28.7585 12.8652 30.3089 13.2731 31.4767 14.0662L31.7576 13.6526C30.4827 12.7868 28.8248 12.3652 26.8047 12.3652V12.8652ZM31.4772 14.0665C33.0731 15.1451 33.8555 16.5651 33.8555 18.3438H34.3555C34.3555 16.3854 33.479 14.8159 31.7572 13.6522L31.4772 14.0665ZM33.8555 18.3438C33.8555 19.0698 33.6554 19.7735 33.248 20.4581L33.6777 20.7138C34.1272 19.9583 34.3555 19.1671 34.3555 18.3438H33.8555ZM33.248 20.4581C32.8443 21.1367 32.0002 21.9928 30.6834 23.0281L30.9924 23.4211C32.3188 22.3783 33.2247 21.4753 33.6777 20.7138L33.248 20.4581ZM30.6827 23.0286C29.7613 23.7584 29.1415 24.373 28.8689 24.8676L29.3069 25.1089C29.5265 24.7103 30.0733 24.1491 30.9931 23.4206L30.6827 23.0286ZM28.8681 24.8692C28.6046 25.3556 28.4824 25.9751 28.4824 26.7109H28.9824C28.9824 26.0249 29.0972 25.496 29.3077 25.1074L28.8681 24.8692ZM23.3594 28.3418H28.9238V27.8418H23.3594V28.3418ZM28.6738 28.0918V33H29.1738V28.0918H28.6738ZM28.9238 32.75H23.3594V33.25H28.9238V32.75ZM23.6094 33V28.0918H23.1094V33H23.6094Z" fill="black"/>
</svg>
