<svg width="44" height="44" viewBox="0 0 44 44" fill="none" xmlns="http://www.w3.org/2000/svg">
<circle cx="22" cy="22" r="21.75" fill="white" stroke="black" stroke-width="0.5"/>
<path d="M23.7324 26.7109H18.5371V26.1914C18.5371 25.3073 18.6374 24.5918 18.8379 24.0449C19.0384 23.4889 19.3346 22.9831 19.7266 22.5273C20.1276 22.0716 21.0208 21.2695 22.4062 20.1211C23.1445 19.5195 23.5137 18.9681 23.5137 18.4668C23.5137 17.9655 23.3633 17.5781 23.0625 17.3047C22.7708 17.0221 22.3242 16.8809 21.7227 16.8809C21.0755 16.8809 20.5378 17.0951 20.1094 17.5234C19.6901 17.9518 19.4212 18.6992 19.3027 19.7656L13.998 19.1094C14.1803 17.1589 14.8867 15.5911 16.1172 14.4062C17.3568 13.2122 19.2526 12.6152 21.8047 12.6152C23.7917 12.6152 25.3958 13.0299 26.6172 13.8594C28.276 14.9805 29.1055 16.4753 29.1055 18.3438C29.1055 19.1185 28.8913 19.8659 28.4629 20.5859C28.0345 21.306 27.1595 22.1855 25.8379 23.2246C24.9173 23.9538 24.334 24.5417 24.0879 24.9883C23.8509 25.4258 23.7324 26 23.7324 26.7109ZM18.3594 28.0918H23.9238V33H18.3594V28.0918Z" fill="#FBB33B"/>
<path d="M23.7324 26.7109V26.9609H23.9824V26.7109H23.7324ZM18.5371 26.7109H18.2871V26.9609H18.5371V26.7109ZM18.8379 24.0449L19.0726 24.131L19.0731 24.1297L18.8379 24.0449ZM19.7266 22.5273L19.5389 22.3622L19.537 22.3643L19.7266 22.5273ZM22.4062 20.1211L22.2483 19.9273L22.2467 19.9286L22.4062 20.1211ZM23.0625 17.3047L22.8885 17.4843L22.8943 17.4897L23.0625 17.3047ZM20.1094 17.5234L19.9326 17.3467L19.9307 17.3486L20.1094 17.5234ZM19.3027 19.7656L19.272 20.0137L19.5233 20.0448L19.5512 19.7932L19.3027 19.7656ZM13.998 19.1094L13.7491 19.0861L13.7266 19.3277L13.9674 19.3575L13.998 19.1094ZM16.1172 14.4062L16.2906 14.5863L16.2906 14.5863L16.1172 14.4062ZM26.6172 13.8594L26.4767 14.0662L26.4772 14.0665L26.6172 13.8594ZM25.8379 23.2246L25.6834 23.0281L25.6827 23.0286L25.8379 23.2246ZM24.0879 24.9883L23.8689 24.8676L23.8681 24.8692L24.0879 24.9883ZM18.3594 28.0918V27.8418H18.1094V28.0918H18.3594ZM23.9238 28.0918H24.1738V27.8418H23.9238V28.0918ZM23.9238 33V33.25H24.1738V33H23.9238ZM18.3594 33H18.1094V33.25H18.3594V33ZM23.7324 26.4609H18.5371V26.9609H23.7324V26.4609ZM18.7871 26.7109V26.1914H18.2871V26.7109H18.7871ZM18.7871 26.1914C18.7871 25.323 18.886 24.6399 19.0726 24.131L18.6032 23.9589C18.3887 24.5437 18.2871 25.2916 18.2871 26.1914H18.7871ZM19.0731 24.1297C19.2631 23.6029 19.5437 23.1234 19.9161 22.6904L19.537 22.3643C19.1256 22.8427 18.8137 23.375 18.6027 23.9601L19.0731 24.1297ZM19.9142 22.6925C20.3002 22.254 21.1779 21.464 22.5658 20.3136L22.2467 19.9286C20.8637 21.075 19.955 21.8893 19.5389 22.3622L19.9142 22.6925ZM22.5642 20.3149C23.3126 19.7051 23.7637 19.0888 23.7637 18.4668H23.2637C23.2637 18.8474 22.9765 19.334 22.2483 19.9273L22.5642 20.3149ZM23.7637 18.4668C23.7637 17.9128 23.5954 17.4512 23.2307 17.1197L22.8943 17.4897C23.1312 17.705 23.2637 18.0182 23.2637 18.4668H23.7637ZM23.2364 17.1251C22.8799 16.7797 22.3583 16.6309 21.7227 16.6309V17.1309C22.2902 17.1309 22.6618 17.2646 22.8886 17.4842L23.2364 17.1251ZM21.7227 16.6309C21.0142 16.6309 20.4113 16.868 19.9326 17.3467L20.2862 17.7002C20.6642 17.3221 21.1368 17.1309 21.7227 17.1309V16.6309ZM19.9307 17.3486C19.4518 17.8379 19.1746 18.655 19.0543 19.738L19.5512 19.7932C19.6678 18.7435 19.9284 18.0658 20.288 17.6983L19.9307 17.3486ZM19.3334 19.5175L14.0287 18.8613L13.9674 19.3575L19.272 20.0137L19.3334 19.5175ZM14.247 19.1326C14.4245 17.2325 15.1095 15.7236 16.2906 14.5863L15.9438 14.2262C14.6639 15.4587 13.9361 17.0853 13.7491 19.0861L14.247 19.1326ZM16.2906 14.5863C17.4653 13.4548 19.2865 12.8652 21.8047 12.8652V12.3652C19.2187 12.3652 17.2482 12.9697 15.9438 14.2262L16.2906 14.5863ZM21.8047 12.8652C23.7585 12.8652 25.3089 13.2731 26.4767 14.0662L26.7576 13.6526C25.4827 12.7868 23.8248 12.3652 21.8047 12.3652V12.8652ZM26.4772 14.0665C28.0731 15.1451 28.8555 16.5651 28.8555 18.3438H29.3555C29.3555 16.3854 28.479 14.8159 26.7572 13.6522L26.4772 14.0665ZM28.8555 18.3438C28.8555 19.0698 28.6554 19.7735 28.248 20.4581L28.6777 20.7138C29.1272 19.9583 29.3555 19.1671 29.3555 18.3438H28.8555ZM28.248 20.4581C27.8443 21.1367 27.0002 21.9928 25.6834 23.0281L25.9924 23.4211C27.3188 22.3783 28.2247 21.4753 28.6777 20.7138L28.248 20.4581ZM25.6827 23.0286C24.7613 23.7584 24.1415 24.373 23.8689 24.8676L24.3069 25.1089C24.5265 24.7103 25.0733 24.1491 25.9931 23.4206L25.6827 23.0286ZM23.8681 24.8692C23.6046 25.3556 23.4824 25.9751 23.4824 26.7109H23.9824C23.9824 26.0249 24.0972 25.496 24.3077 25.1074L23.8681 24.8692ZM18.3594 28.3418H23.9238V27.8418H18.3594V28.3418ZM23.6738 28.0918V33H24.1738V28.0918H23.6738ZM23.9238 32.75H18.3594V33.25H23.9238V32.75ZM18.6094 33V28.0918H18.1094V33H18.6094Z" fill="black"/>
</svg>
