<svg width="296" height="165" viewBox="0 0 296 165" fill="none" xmlns="http://www.w3.org/2000/svg">
<path d="M227.96 164H58.0397C26.5385 164 1 142.321 1 115.58V59.42C1 32.6792 26.5385 11 58.0397 11H227.96C259.462 11 285 32.6792 285 59.42L285 115.58C285 142.321 259.461 164 227.96 164Z" fill="#F68B38" stroke="black" stroke-width="2" stroke-miterlimit="10"/>
<path d="M237.96 154H68.0397C36.5385 154 11 128.4 11 96.8239V58.1761C11 26.5996 36.5385 1 68.0397 1H237.96C269.462 1 295 26.5996 295 58.1761L295 96.8239C295 128.4 269.461 154 237.96 154Z" fill="#F499AD" stroke="black" stroke-width="2" stroke-miterlimit="10"/>
</svg>
