<svg width="1009" height="1100" viewBox="0 0 1009 1100" fill="none" xmlns="http://www.w3.org/2000/svg">
<path d="M975.218 1099H33.7717C15.6773 1099 1 1084.23 1 1066C1 1047.78 15.6673 1033 33.7717 1033H975.228C993.323 1033 1008 1047.77 1008 1066C1007.99 1084.23 993.323 1099 975.218 1099Z" fill="#FBB33B" stroke="black" stroke-width="2" stroke-miterlimit="10"/>
<path d="M968 1067V3L942.238 26.1069L916.477 3L890.725 26.1069L864.973 3L839.212 26.1069L813.46 3L787.708 26.1069L761.957 3L736.215 26.1069L710.463 3L684.712 26.1069L658.96 3L633.208 26.1069L607.457 3L581.705 26.1069L555.953 3L530.212 26.1069L504.46 3L478.708 26.1069L452.967 3L427.215 26.1069L401.463 3L375.712 26.1069L349.97 3L324.218 26.1069L298.477 3L272.735 26.1069L246.983 3L221.242 26.1069L195.49 3L169.748 26.1069L143.997 3L118.255 26.1069L92.5033 3L66.7517 26.1069L41 3V1067H968Z" fill="#F499AD" stroke="#1D1D1B" stroke-width="2" stroke-miterlimit="10"/>
</svg>
