<svg width="345" height="444" viewBox="0 0 345 444" fill="none" xmlns="http://www.w3.org/2000/svg">
<path d="M332.834 443H12.1625C5.99932 443 1 437.629 1 431C1 424.374 5.99592 419 12.1625 419H332.837C339.001 419 344 424.371 344 431C343.997 437.629 339.001 443 332.834 443Z" fill="#FBB33B" stroke="black" stroke-miterlimit="10"/>
<path d="M327 427V2L318.413 11.3943L309.826 2L301.242 11.3943L292.658 2L284.071 11.3943L275.487 2L266.903 11.3943L258.319 2L249.738 11.3943L241.154 2L232.571 11.3943L223.987 2L215.403 11.3943L206.819 2L198.235 11.3943L189.651 2L181.071 11.3943L172.487 2L163.903 11.3943L155.322 2L146.738 11.3943L138.154 2L129.571 11.3943L120.99 2L112.406 11.3943L103.826 2L95.245 11.3943L86.6611 2L78.0806 11.3943L69.4967 2L60.9161 11.3943L52.3322 2L43.7517 11.3943L35.1678 2L26.5839 11.3943L18 2V427H327Z" fill="#F499AD" stroke="#1D1D1B" stroke-miterlimit="10"/>
</svg>
