<svg width="155" height="101" viewBox="0 0 155 101" fill="none" xmlns="http://www.w3.org/2000/svg">
<path d="M118.476 100H30.5241C14.2189 100 1 86.9641 1 70.8847V37.1153C1 21.0359 14.2189 8 30.5241 8H118.476C134.781 8 148 21.0359 148 37.1153L148 70.8847C148 86.9641 134.781 100 118.476 100Z" fill="#F68B38" stroke="black" stroke-miterlimit="10"/>
<path d="M124.476 93H36.5241C20.2189 93 7 77.6068 7 58.6196V35.3804C7 16.3932 20.2189 1 36.5241 1H124.476C140.781 1 154 16.3932 154 35.3804L154 58.6196C154 77.6068 140.781 93 124.476 93Z" fill="#F499AD" stroke="black" stroke-miterlimit="10"/>
</svg>
