<svg width="160" height="389" viewBox="0 0 160 389" fill="none"
    xmlns="http://www.w3.org/2000/svg">
    <path d="M97.5792 145.422H146V84.7953C146 66.604 139.151 49.9974 127.886 37.3459C125.518 40.0334 122.036 41.7447 118.151 41.7447C111.014 41.7447 105.222 36.0148 105.222 28.9411C105.222 26.1459 106.137 23.5725 107.667 21.4681C97.4832 16.0678 85.8532 13 73.5 13C33.464 13 1 45.1421 1 84.7889V159.43C8.13671 159.43 13.9293 165.16 13.9293 172.234C13.9293 179.301 8.14311 185.037 1 185.037V316.205C1 355.852 33.4576 388 73.5 388C113.536 388 146 355.858 146 316.205V305.214C138.863 305.214 133.071 299.484 133.071 292.41C133.071 285.343 138.857 279.607 146 279.607V200.503H97.5792V145.422ZM120.807 300.156V351.877H43.0394V300.156H120.807Z" fill="#F68B38" stroke="black" stroke-width="2" stroke-miterlimit="10"/>
    <path d="M159 267.613V72.7953C159 54.604 152.151 37.9974 140.886 25.3459C138.518 28.0334 135.036 29.7447 131.151 29.7447C124.014 29.7447 118.222 24.0148 118.222 16.9411C118.222 14.1459 119.137 11.5725 120.667 9.46812C110.483 4.06779 98.8532 1 86.5 1C46.464 1 14 33.1421 14 72.7953V147.437C21.1367 147.437 26.9293 153.166 26.9293 160.24C26.9293 167.308 21.1431 173.044 14 173.044V304.205C14 343.852 46.4576 376 86.5 376C126.536 376 159 343.858 159 304.205V293.214C151.863 293.214 146.071 287.484 146.071 280.41C146.071 273.343 151.857 267.613 159 267.613ZM72.7514 348.536C65.6147 348.536 59.8221 342.806 59.8221 335.732C59.8221 328.658 65.6083 322.928 72.7514 322.928C79.8881 322.928 85.6807 328.658 85.6807 335.732C85.6807 342.806 79.8881 348.536 72.7514 348.536Z" fill="white" stroke="black" stroke-width="2" stroke-miterlimit="10"/>
    <rect x="42.25" y="274.25" width="87.5" height="0.5" stroke="#171717" stroke-width="0.5" stroke-dasharray="6 5"/>
    <path d="M1 158.933L14.7069 147.766" stroke="black" stroke-width="2" stroke-miterlimit="10"/>
    <path d="M1 209.68V182.441L14.3695 173.848V210.069" fill="#F68B38"/>
    <path d="M1 209.68V182.441L14.3695 173.848V210.069" stroke="black" stroke-width="2" stroke-miterlimit="10"/>
</svg>



