<svg width="206" height="81" viewBox="0 0 206 81" fill="none" xmlns="http://www.w3.org/2000/svg">
<path d="M186.118 1H25.8821C15.4532 1 7 9.4569 7 19.8905C7 30.3241 15.4532 38.7811 25.8821 38.7811H27.057V50.9008C27.057 54.9774 30.3617 58.2836 34.4364 58.2836C38.5112 58.2836 41.8159 54.9774 41.8159 50.9008V35.6818C41.8159 31.6052 45.1206 28.2991 49.1953 28.2991C53.2701 28.2991 56.5748 31.6052 56.5748 35.6818L56.2404 66.6128C56.2404 70.6894 59.5451 73.9956 63.6198 73.9956C67.6946 73.9956 70.9993 70.6894 70.9993 66.6128V38.7855H71.0257C71.2941 34.9555 74.48 31.9266 78.3787 31.9266C82.2775 31.9266 85.4634 34.9555 85.7318 38.7855H85.7582V55.8754C85.7582 59.952 89.0629 63.2582 93.1377 63.2582C97.2124 63.2582 100.517 59.952 100.517 55.8754V35.2196C100.517 31.143 103.822 27.8368 107.897 27.8368C111.971 27.8368 115.276 31.143 115.276 35.2196V48.0876C115.276 52.1642 118.581 55.4704 122.655 55.4704C126.136 55.4704 129.049 53.058 129.824 49.8134V35.6862C129.824 31.6096 133.128 28.3035 137.203 28.3035C141.278 28.3035 144.583 31.6096 144.583 35.6862L144.248 66.6172C144.248 70.6938 147.553 74 151.628 74C155.702 74 159.007 70.6938 159.007 66.6172V38.7899H159.078C159.553 35.1712 162.637 32.3712 166.387 32.3712C170.461 32.3712 173.766 35.6774 173.766 39.754V52.4944C174.492 55.8094 177.44 58.288 180.969 58.288C185.044 58.288 188.349 54.9818 188.349 50.9052V38.6534C197.726 37.5484 205 29.5757 205 19.8993C205 9.46131 196.547 1 186.118 1Z" fill="#FBB33B" stroke="black" stroke-miterlimit="10"/>
</svg>
