<svg width="250" height="611" viewBox="0 0 250 611" fill="none" xmlns="http://www.w3.org/2000/svg">
<path d="M95.977 519.42C95.977 519.42 104.232 544.662 133.086 533.585C133.086 533.585 145.469 545.301 140.84 548.58C136.212 551.859 119.681 572.672 113.66 570.883C107.639 569.094 87.882 560.726 86.5395 559.247C85.197 557.767 79.7168 539.483 79.7168 539.483L81.951 523.399L88.6333 512.662L95.977 519.42Z" fill="#F68B38" stroke="black" stroke-width="2" stroke-miterlimit="10"/>
<path d="M179.312 258.265C179.312 258.265 229.835 267.222 226.018 313.637C226.018 313.637 264.089 283.717 233.071 251.068C233.061 251.068 203.336 232.174 179.312 258.265Z" fill="#FBB33B" stroke="black" stroke-width="2" stroke-miterlimit="10"/>
<path d="M152.196 227.698H228V132.149C228 103.48 217.278 77.3078 199.643 57.3691C195.935 61.6046 190.484 64.3017 184.402 64.3017C173.229 64.3017 164.161 55.2713 164.161 44.1232C164.161 39.7179 165.594 35.6622 167.988 32.3458C152.046 23.8348 133.839 19 114.5 19C51.823 19 1 69.656 1 132.139V249.774C12.1726 249.774 21.241 258.804 21.241 269.952C21.241 281.091 12.1827 290.131 1 290.131V496.851C1 559.334 51.813 610 114.5 610C177.177 610 228 559.344 228 496.851V479.529C216.827 479.529 207.759 470.499 207.759 459.351C207.759 448.212 216.817 439.172 228 439.172V314.505H152.196V227.698ZM188.56 471.558V553.071H66.8134V471.558H188.56Z" fill="#F68B38" stroke="black" stroke-width="2" stroke-miterlimit="10"/>
<path d="M249 421.182V114.149C249 85.4799 238.278 59.3078 220.643 39.3691C216.935 43.6046 211.484 46.3017 205.402 46.3017C194.229 46.3017 185.161 37.2713 185.161 26.1232C185.161 21.7179 186.594 17.6622 188.988 14.3458C173.046 5.83483 154.839 1 135.5 1C72.823 1 22 51.656 22 114.149V231.784C33.1726 231.784 42.241 240.814 42.241 251.962C42.241 263.101 33.1827 272.141 22 272.141V478.851C22 541.334 72.813 592 135.5 592C198.177 592 249 541.344 249 478.851V461.529C237.827 461.529 228.759 452.499 228.759 441.351C228.759 430.212 237.817 421.182 249 421.182ZM113.976 548.716C102.804 548.716 93.7354 539.686 93.7354 528.538C93.7354 517.39 102.794 508.359 113.976 508.359C125.149 508.359 134.217 517.39 134.217 528.538C134.217 539.686 125.149 548.716 113.976 548.716Z" fill="white" stroke="black" stroke-width="2" stroke-miterlimit="10"/>
<path d="M1 249.528L22.53 231.954" stroke="black" stroke-width="2" stroke-miterlimit="10"/>
<path d="M1 329.387V286.523L22 273V330" fill="#F68B38"/>
<path d="M1 329.387V286.523L22 273V330" stroke="black" stroke-width="2" stroke-miterlimit="10"/>
</svg>
