<svg width="100" height="100" viewBox="0 0 100 100" fill="none" xmlns="http://www.w3.org/2000/svg">
<path fill-rule="evenodd" clip-rule="evenodd" d="M89.5 49.75C89.5 71.7033 71.7033 89.5 49.75 89.5C27.7967 89.5 10 71.7033 10 49.75C10 27.7967 27.7967 10 49.75 10C71.7033 10 89.5 27.7967 89.5 49.75ZM38.0111 44.4584L46.042 52.4893L63.4258 35.1055C63.621 34.9102 63.9376 34.9102 64.1329 35.1055L70.0393 41.0119C70.2345 41.2072 70.2345 41.5238 70.0393 41.719L46.3955 65.3628C46.2002 65.5581 45.8837 65.5581 45.6884 65.3628L31.3976 51.072C31.2023 50.8767 31.2023 50.5601 31.3976 50.3649L37.304 44.4584C37.4993 44.2632 37.8158 44.2632 38.0111 44.4584Z" fill="#13CC3E"/>
</svg>
