<svg width="313" height="634" viewBox="0 0 313 634" fill="none" xmlns="http://www.w3.org/2000/svg">
<path d="M295 6H13C6.37258 6 1 11.3726 1 18V621C1 627.627 6.37258 633 13 633H295C301.627 633 307 627.627 307 621V18C307 11.3726 301.627 6 295 6Z" fill="#F68B38" stroke="#1D1D1B" stroke-miterlimit="10"/>
<path d="M300 1H18C11.3726 1 6 6.37258 6 13V616C6 622.627 11.3726 628 18 628H300C306.627 628 312 622.627 312 616V13C312 6.37258 306.627 1 300 1Z" fill="white" stroke="#1D1D1B" stroke-miterlimit="10"/>
</svg>
