<svg width="266" height="164" viewBox="0 0 266 164" fill="none"
    xmlns="http://www.w3.org/2000/svg">
    <rect width="266" height="164" fill="white"/>
    <rect y="40" width="266" height="1" fill="black" fill-opacity="0.6"/>
    <rect y="81" width="266" height="1" fill="black" fill-opacity="0.6"/>
    <rect y="122" width="266" height="1" fill="black" fill-opacity="0.6"/>
    <rect y="163" width="266" height="1" fill="black" fill-opacity="0.6"/>
    <rect width="266" height="40" fill="#FBB33B"/>
    <rect x="132" width="1" height="164" fill="black" fill-opacity="0.6"/>
    <rect width="1" height="164" fill="black" fill-opacity="0.6"/>
    <rect x="265" width="1" height="164" fill="black" fill-opacity="0.6"/>
    <rect width="266" height="1" fill="black" fill-opacity="0.6"/>
    <path d="M46.9258 24V15.4102H49.8848C50.5527 15.4102 51.0625 15.4512 51.4141 15.5332C51.9062 15.6465 52.3262 15.8516 52.6738 16.1484C53.127 16.5312 53.4648 17.0215 53.6875 17.6191C53.9141 18.2129 54.0273 18.8926 54.0273 19.6582C54.0273 20.3105 53.9512 20.8887 53.7988 21.3926C53.6465 21.8965 53.4512 22.3145 53.2129 22.6465C52.9746 22.9746 52.7129 23.2344 52.4277 23.4258C52.1465 23.6133 51.8047 23.7559 51.4023 23.8535C51.0039 23.9512 50.5449 24 50.0254 24H46.9258ZM48.0625 22.9863H49.8965C50.4629 22.9863 50.9062 22.9336 51.2266 22.8281C51.5508 22.7227 51.8086 22.5742 52 22.3828C52.2695 22.1133 52.4785 21.752 52.627 21.2988C52.7793 20.8418 52.8555 20.2891 52.8555 19.6406C52.8555 18.7422 52.707 18.0527 52.4102 17.5723C52.1172 17.0879 51.7598 16.7637 51.3379 16.5996C51.0332 16.4824 50.543 16.4238 49.8672 16.4238H48.0625V22.9863ZM59.7227 21.9961L60.8125 22.1309C60.6406 22.7676 60.3223 23.2617 59.8574 23.6133C59.3926 23.9648 58.7988 24.1406 58.0762 24.1406C57.166 24.1406 56.4434 23.8613 55.9082 23.3027C55.377 22.7402 55.1113 21.9531 55.1113 20.9414C55.1113 19.8945 55.3809 19.082 55.9199 18.5039C56.459 17.9258 57.1582 17.6367 58.0176 17.6367C58.8496 17.6367 59.5293 17.9199 60.0566 18.4863C60.584 19.0527 60.8477 19.8496 60.8477 20.877C60.8477 20.9395 60.8457 21.0332 60.8418 21.1582H56.2012C56.2402 21.8418 56.4336 22.3652 56.7812 22.7285C57.1289 23.0918 57.5625 23.2734 58.082 23.2734C58.4688 23.2734 58.7988 23.1719 59.0723 22.9688C59.3457 22.7656 59.5625 22.4414 59.7227 21.9961ZM56.2598 20.291H59.7344C59.6875 19.7676 59.5547 19.375 59.3359 19.1133C59 18.707 58.5645 18.5039 58.0293 18.5039C57.5449 18.5039 57.1367 18.666 56.8047 18.9902C56.4766 19.3145 56.2949 19.748 56.2598 20.291ZM62.1426 26.3848V17.7773H63.1035V18.5859C63.3301 18.2695 63.5859 18.0332 63.8711 17.877C64.1562 17.7168 64.502 17.6367 64.9082 17.6367C65.4395 17.6367 65.9082 17.7734 66.3145 18.0469C66.7207 18.3203 67.0273 18.707 67.2344 19.207C67.4414 19.7031 67.5449 20.248 67.5449 20.8418C67.5449 21.4785 67.4297 22.0527 67.1992 22.5645C66.9727 23.0723 66.6406 23.4629 66.2031 23.7363C65.7695 24.0059 65.3125 24.1406 64.832 24.1406C64.4805 24.1406 64.1641 24.0664 63.8828 23.918C63.6055 23.7695 63.377 23.582 63.1973 23.3555V26.3848H62.1426ZM63.0977 20.9238C63.0977 21.7246 63.2598 22.3164 63.584 22.6992C63.9082 23.082 64.3008 23.2734 64.7617 23.2734C65.2305 23.2734 65.6309 23.0762 65.9629 22.6816C66.2988 22.2832 66.4668 21.668 66.4668 20.8359C66.4668 20.043 66.3027 19.4492 65.9746 19.0547C65.6504 18.6602 65.2617 18.4629 64.8086 18.4629C64.3594 18.4629 63.9609 18.6738 63.6133 19.0957C63.2695 19.5137 63.0977 20.123 63.0977 20.9238ZM68.4297 20.8887C68.4297 19.7363 68.75 18.8828 69.3906 18.3281C69.9258 17.8672 70.5781 17.6367 71.3477 17.6367C72.2031 17.6367 72.9023 17.918 73.4453 18.4805C73.9883 19.0391 74.2598 19.8125 74.2598 20.8008C74.2598 21.6016 74.1387 22.2324 73.8965 22.6934C73.6582 23.1504 73.3086 23.5059 72.8477 23.7598C72.3906 24.0137 71.8906 24.1406 71.3477 24.1406C70.4766 24.1406 69.7715 23.8613 69.2324 23.3027C68.6973 22.7441 68.4297 21.9395 68.4297 20.8887ZM69.5137 20.8887C69.5137 21.6855 69.6875 22.2832 70.0352 22.6816C70.3828 23.0762 70.8203 23.2734 71.3477 23.2734C71.8711 23.2734 72.3066 23.0742 72.6543 22.6758C73.002 22.2773 73.1758 21.6699 73.1758 20.8535C73.1758 20.084 73 19.502 72.6484 19.1074C72.3008 18.709 71.8672 18.5098 71.3477 18.5098C70.8203 18.5098 70.3828 18.707 70.0352 19.1016C69.6875 19.4961 69.5137 20.0918 69.5137 20.8887ZM75.0801 22.1426L76.123 21.9785C76.1816 22.3965 76.3438 22.7168 76.6094 22.9395C76.8789 23.1621 77.2539 23.2734 77.7344 23.2734C78.2188 23.2734 78.5781 23.1758 78.8125 22.9805C79.0469 22.7812 79.1641 22.5488 79.1641 22.2832C79.1641 22.0449 79.0605 21.8574 78.8535 21.7207C78.709 21.627 78.3496 21.5078 77.7754 21.3633C77.002 21.168 76.4648 21 76.1641 20.8594C75.8672 20.7148 75.6406 20.5176 75.4844 20.2676C75.332 20.0137 75.2559 19.7344 75.2559 19.4297C75.2559 19.1523 75.3184 18.8965 75.4434 18.6621C75.5723 18.4238 75.7461 18.2266 75.9648 18.0703C76.1289 17.9492 76.3516 17.8477 76.6328 17.7656C76.918 17.6797 77.2227 17.6367 77.5469 17.6367C78.0352 17.6367 78.4629 17.707 78.8301 17.8477C79.2012 17.9883 79.4746 18.1797 79.6504 18.4219C79.8262 18.6602 79.9473 18.9805 80.0137 19.3828L78.9824 19.5234C78.9355 19.2031 78.7988 18.9531 78.5723 18.7734C78.3496 18.5938 78.0332 18.5039 77.623 18.5039C77.1387 18.5039 76.793 18.584 76.5859 18.7441C76.3789 18.9043 76.2754 19.0918 76.2754 19.3066C76.2754 19.4434 76.3184 19.5664 76.4043 19.6758C76.4902 19.7891 76.625 19.8828 76.8086 19.957C76.9141 19.9961 77.2246 20.0859 77.7402 20.2266C78.4863 20.4258 79.0059 20.5898 79.2988 20.7188C79.5957 20.8438 79.8281 21.0273 79.9961 21.2695C80.1641 21.5117 80.248 21.8125 80.248 22.1719C80.248 22.5234 80.1445 22.8555 79.9375 23.168C79.7344 23.4766 79.4395 23.7168 79.0527 23.8887C78.666 24.0566 78.2285 24.1406 77.7402 24.1406C76.9316 24.1406 76.3145 23.9727 75.8887 23.6367C75.4668 23.3008 75.1973 22.8027 75.0801 22.1426ZM81.5078 16.623V15.4102H82.5625V16.623H81.5078ZM81.5078 24V17.7773H82.5625V24H81.5078ZM86.4766 23.0566L86.6289 23.9883C86.332 24.0508 86.0664 24.082 85.832 24.082C85.4492 24.082 85.1523 24.0215 84.9414 23.9004C84.7305 23.7793 84.582 23.6211 84.4961 23.4258C84.4102 23.2266 84.3672 22.8105 84.3672 22.1777V18.5977H83.5938V17.7773H84.3672V16.2363L85.416 15.6035V17.7773H86.4766V18.5977H85.416V22.2363C85.416 22.5371 85.4336 22.7305 85.4688 22.8164C85.5078 22.9023 85.5684 22.9707 85.6504 23.0215C85.7363 23.0723 85.8574 23.0977 86.0137 23.0977C86.1309 23.0977 86.2852 23.084 86.4766 23.0566Z" fill="black"/>
    <path d="M17.6562 61.2441V60.2598L23.3457 57.8574V58.9062L18.834 60.7578L23.3457 62.627V63.6758L17.6562 61.2441ZM28.4785 65H27.4238V58.2793C27.1699 58.5215 26.8359 58.7637 26.4219 59.0059C26.0117 59.248 25.6426 59.4297 25.3145 59.5508V58.5312C25.9043 58.2539 26.4199 57.918 26.8613 57.5234C27.3027 57.1289 27.6152 56.7461 27.7988 56.375H28.4785V65ZM31.1855 60.7637C31.1855 59.748 31.2891 58.9316 31.4961 58.3145C31.707 57.6934 32.0176 57.2148 32.4277 56.8789C32.8418 56.543 33.3613 56.375 33.9863 56.375C34.4473 56.375 34.8516 56.4688 35.1992 56.6562C35.5469 56.8398 35.834 57.1074 36.0605 57.459C36.2871 57.8066 36.4648 58.2324 36.5938 58.7363C36.7227 59.2363 36.7871 59.9121 36.7871 60.7637C36.7871 61.7715 36.6836 62.5859 36.4766 63.207C36.2695 63.8242 35.959 64.3027 35.5449 64.6426C35.1348 64.9785 34.6152 65.1465 33.9863 65.1465C33.1582 65.1465 32.5078 64.8496 32.0352 64.2559C31.4688 63.541 31.1855 62.377 31.1855 60.7637ZM32.2695 60.7637C32.2695 62.1738 32.4336 63.1133 32.7617 63.582C33.0938 64.0469 33.502 64.2793 33.9863 64.2793C34.4707 64.2793 34.877 64.0449 35.2051 63.5762C35.5371 63.1074 35.7031 62.1699 35.7031 60.7637C35.7031 59.3496 35.5371 58.4102 35.2051 57.9453C34.877 57.4805 34.4668 57.248 33.9746 57.248C33.4902 57.248 33.1035 57.4531 32.8145 57.8633C32.4512 58.3867 32.2695 59.3535 32.2695 60.7637ZM37.8652 60.7637C37.8652 59.748 37.9688 58.9316 38.1758 58.3145C38.3867 57.6934 38.6973 57.2148 39.1074 56.8789C39.5215 56.543 40.041 56.375 40.666 56.375C41.127 56.375 41.5312 56.4688 41.8789 56.6562C42.2266 56.8398 42.5137 57.1074 42.7402 57.459C42.9668 57.8066 43.1445 58.2324 43.2734 58.7363C43.4023 59.2363 43.4668 59.9121 43.4668 60.7637C43.4668 61.7715 43.3633 62.5859 43.1562 63.207C42.9492 63.8242 42.6387 64.3027 42.2246 64.6426C41.8145 64.9785 41.2949 65.1465 40.666 65.1465C39.8379 65.1465 39.1875 64.8496 38.7148 64.2559C38.1484 63.541 37.8652 62.377 37.8652 60.7637ZM38.9492 60.7637C38.9492 62.1738 39.1133 63.1133 39.4414 63.582C39.7734 64.0469 40.1816 64.2793 40.666 64.2793C41.1504 64.2793 41.5566 64.0449 41.8848 63.5762C42.2168 63.1074 42.3828 62.1699 42.3828 60.7637C42.3828 59.3496 42.2168 58.4102 41.8848 57.9453C41.5566 57.4805 41.1465 57.248 40.6543 57.248C40.1699 57.248 39.7832 57.4531 39.4941 57.8633C39.1309 58.3867 38.9492 59.3535 38.9492 60.7637ZM47.7676 62.4219V61.3613H51.0078V62.4219H47.7676ZM60.7637 63.9863V65H55.0859C55.0781 64.7461 55.1191 64.502 55.209 64.2676C55.3535 63.8809 55.584 63.5 55.9004 63.125C56.2207 62.75 56.6816 62.3164 57.2832 61.8242C58.2168 61.0586 58.8477 60.4531 59.1758 60.0078C59.5039 59.5586 59.668 59.1348 59.668 58.7363C59.668 58.3184 59.5176 57.9668 59.2168 57.6816C58.9199 57.3926 58.5312 57.248 58.0508 57.248C57.543 57.248 57.1367 57.4004 56.832 57.7051C56.5273 58.0098 56.373 58.4316 56.3691 58.9707L55.2852 58.8594C55.3594 58.0508 55.6387 57.4355 56.123 57.0137C56.6074 56.5879 57.2578 56.375 58.0742 56.375C58.8984 56.375 59.5508 56.6035 60.0312 57.0605C60.5117 57.5176 60.752 58.084 60.752 58.7598C60.752 59.1035 60.6816 59.4414 60.541 59.7734C60.4004 60.1055 60.166 60.4551 59.8379 60.8223C59.5137 61.1895 58.9727 61.6934 58.2148 62.334C57.582 62.8652 57.1758 63.2266 56.9961 63.418C56.8164 63.6055 56.668 63.7949 56.5508 63.9863H60.7637ZM65.2812 65V62.9434H61.5547V61.9766L65.4746 56.4102H66.3359V61.9766H67.4961V62.9434H66.3359V65H65.2812ZM65.2812 61.9766V58.1035L62.5918 61.9766H65.2812ZM68.7383 63.0137L69.752 62.9199C69.8379 63.3965 70.002 63.7422 70.2441 63.957C70.4863 64.1719 70.7969 64.2793 71.1758 64.2793C71.5 64.2793 71.7832 64.2051 72.0254 64.0566C72.2715 63.9082 72.4727 63.7109 72.6289 63.4648C72.7852 63.2148 72.916 62.8789 73.0215 62.457C73.127 62.0352 73.1797 61.6055 73.1797 61.168C73.1797 61.1211 73.1777 61.0508 73.1738 60.957C72.9629 61.293 72.6738 61.5664 72.3066 61.7773C71.9434 61.9844 71.5488 62.0879 71.123 62.0879C70.4121 62.0879 69.8105 61.8301 69.3184 61.3145C68.8262 60.7988 68.5801 60.1191 68.5801 59.2754C68.5801 58.4043 68.8359 57.7031 69.3477 57.1719C69.8633 56.6406 70.5078 56.375 71.2812 56.375C71.8398 56.375 72.3496 56.5254 72.8105 56.8262C73.2754 57.127 73.627 57.5566 73.8652 58.1152C74.1074 58.6699 74.2285 59.4746 74.2285 60.5293C74.2285 61.627 74.1094 62.502 73.8711 63.1543C73.6328 63.8027 73.2773 64.2969 72.8047 64.6367C72.3359 64.9766 71.7852 65.1465 71.1523 65.1465C70.4805 65.1465 69.9316 64.9609 69.5059 64.5898C69.0801 64.2148 68.8242 63.6895 68.7383 63.0137ZM73.0566 59.2227C73.0566 58.6172 72.8945 58.1367 72.5703 57.7812C72.25 57.4258 71.8633 57.248 71.4102 57.248C70.9414 57.248 70.5332 57.4395 70.1855 57.8223C69.8379 58.2051 69.6641 58.7012 69.6641 59.3105C69.6641 59.8574 69.8281 60.3027 70.1562 60.6465C70.4883 60.9863 70.8965 61.1562 71.3809 61.1562C71.8691 61.1562 72.2695 60.9863 72.582 60.6465C72.8984 60.3027 73.0566 59.8281 73.0566 59.2227ZM75.418 63.0137L76.4316 62.9199C76.5176 63.3965 76.6816 63.7422 76.9238 63.957C77.166 64.1719 77.4766 64.2793 77.8555 64.2793C78.1797 64.2793 78.4629 64.2051 78.7051 64.0566C78.9512 63.9082 79.1523 63.7109 79.3086 63.4648C79.4648 63.2148 79.5957 62.8789 79.7012 62.457C79.8066 62.0352 79.8594 61.6055 79.8594 61.168C79.8594 61.1211 79.8574 61.0508 79.8535 60.957C79.6426 61.293 79.3535 61.5664 78.9863 61.7773C78.623 61.9844 78.2285 62.0879 77.8027 62.0879C77.0918 62.0879 76.4902 61.8301 75.998 61.3145C75.5059 60.7988 75.2598 60.1191 75.2598 59.2754C75.2598 58.4043 75.5156 57.7031 76.0273 57.1719C76.543 56.6406 77.1875 56.375 77.9609 56.375C78.5195 56.375 79.0293 56.5254 79.4902 56.8262C79.9551 57.127 80.3066 57.5566 80.5449 58.1152C80.7871 58.6699 80.9082 59.4746 80.9082 60.5293C80.9082 61.627 80.7891 62.502 80.5508 63.1543C80.3125 63.8027 79.957 64.2969 79.4844 64.6367C79.0156 64.9766 78.4648 65.1465 77.832 65.1465C77.1602 65.1465 76.6113 64.9609 76.1855 64.5898C75.7598 64.2148 75.5039 63.6895 75.418 63.0137ZM79.7363 59.2227C79.7363 58.6172 79.5742 58.1367 79.25 57.7812C78.9297 57.4258 78.543 57.248 78.0898 57.248C77.6211 57.248 77.2129 57.4395 76.8652 57.8223C76.5176 58.2051 76.3438 58.7012 76.3438 59.3105C76.3438 59.8574 76.5078 60.3027 76.8359 60.6465C77.168 60.9863 77.5762 61.1562 78.0605 61.1562C78.5488 61.1562 78.9492 60.9863 79.2617 60.6465C79.5781 60.3027 79.7363 59.8281 79.7363 59.2227ZM87.7695 66.2363V65.1816C87.2422 65.1152 86.8125 64.998 86.4805 64.8301C86.1523 64.6582 85.8672 64.3828 85.625 64.0039C85.3867 63.625 85.248 63.1621 85.209 62.6152L86.2695 62.416C86.3516 62.9824 86.4961 63.3984 86.7031 63.6641C87 64.0391 87.3555 64.248 87.7695 64.291V60.9336C87.3359 60.8516 86.8926 60.6836 86.4395 60.4297C86.1035 60.2422 85.8438 59.9824 85.6602 59.6504C85.4805 59.3184 85.3906 58.9414 85.3906 58.5195C85.3906 57.7695 85.6562 57.1621 86.1875 56.6973C86.543 56.3848 87.0703 56.1934 87.7695 56.123V55.6191H88.3906V56.123C89.0039 56.1816 89.4902 56.3613 89.8496 56.6621C90.3105 57.0449 90.5879 57.5703 90.6816 58.2383L89.5918 58.4023C89.5293 57.9883 89.3984 57.6719 89.1992 57.4531C89.0039 57.2305 88.7344 57.084 88.3906 57.0137V60.0547C88.9219 60.1875 89.2734 60.291 89.4453 60.3652C89.7734 60.5098 90.041 60.6855 90.248 60.8926C90.4551 61.0996 90.6133 61.3457 90.7227 61.6309C90.8359 61.916 90.8926 62.2246 90.8926 62.5566C90.8926 63.2871 90.6602 63.8965 90.1953 64.3848C89.7305 64.873 89.1289 65.1348 88.3906 65.1699V66.2363H87.7695ZM87.7695 57.002C87.3594 57.0645 87.0352 57.2285 86.7969 57.4941C86.5625 57.7598 86.4453 58.0742 86.4453 58.4375C86.4453 58.7969 86.5449 59.0977 86.7441 59.3398C86.9473 59.582 87.2891 59.7754 87.7695 59.9199V57.002ZM88.3906 64.291C88.8008 64.2402 89.1387 64.0625 89.4043 63.7578C89.6738 63.4531 89.8086 63.0762 89.8086 62.627C89.8086 62.2441 89.7129 61.9375 89.5215 61.707C89.334 61.4727 88.957 61.2637 88.3906 61.0801V64.291ZM92.3516 65V56.4102H94.0625L96.0957 62.4922C96.2832 63.0586 96.4199 63.4824 96.5059 63.7637C96.6035 63.4512 96.7559 62.9922 96.9629 62.3867L99.0195 56.4102H100.549V65H99.4531V57.8105L96.957 65H95.9316L93.4473 57.6875V65H92.3516ZM102.576 65V56.4102H103.713V65H102.576ZM105.688 65V56.4102H107.398L109.432 62.4922C109.619 63.0586 109.756 63.4824 109.842 63.7637C109.939 63.4512 110.092 62.9922 110.299 62.3867L112.355 56.4102H113.885V65H112.789V57.8105L110.293 65H109.268L106.783 57.6875V65H105.688Z" fill="black"/>
    <path d="M23.041 104.986V106H17.3633C17.3555 105.746 17.3965 105.502 17.4863 105.268C17.6309 104.881 17.8613 104.5 18.1777 104.125C18.498 103.75 18.959 103.316 19.5605 102.824C20.4941 102.059 21.125 101.453 21.4531 101.008C21.7812 100.559 21.9453 100.135 21.9453 99.7363C21.9453 99.3184 21.7949 98.9668 21.4941 98.6816C21.1973 98.3926 20.8086 98.248 20.3281 98.248C19.8203 98.248 19.4141 98.4004 19.1094 98.7051C18.8047 99.0098 18.6504 99.4316 18.6465 99.9707L17.5625 99.8594C17.6367 99.0508 17.916 98.4355 18.4004 98.0137C18.8848 97.5879 19.5352 97.375 20.3516 97.375C21.1758 97.375 21.8281 97.6035 22.3086 98.0605C22.7891 98.5176 23.0293 99.084 23.0293 99.7598C23.0293 100.104 22.959 100.441 22.8184 100.773C22.6777 101.105 22.4434 101.455 22.1152 101.822C21.791 102.189 21.25 102.693 20.4922 103.334C19.8594 103.865 19.4531 104.227 19.2734 104.418C19.0938 104.605 18.9453 104.795 18.8281 104.986H23.041ZM24.1777 103.75L25.2852 103.656C25.3672 104.195 25.5566 104.602 25.8535 104.875C26.1543 105.145 26.5156 105.279 26.9375 105.279C27.4453 105.279 27.875 105.088 28.2266 104.705C28.5781 104.322 28.7539 103.814 28.7539 103.182C28.7539 102.58 28.584 102.105 28.2441 101.758C27.9082 101.41 27.4668 101.236 26.9199 101.236C26.5801 101.236 26.2734 101.314 26 101.471C25.7266 101.623 25.5117 101.822 25.3555 102.068L24.3652 101.939L25.1973 97.5273H29.4688V98.5352H26.041L25.5781 100.844C26.0938 100.484 26.6348 100.305 27.2012 100.305C27.9512 100.305 28.584 100.564 29.0996 101.084C29.6152 101.604 29.873 102.271 29.873 103.088C29.873 103.865 29.6465 104.537 29.1934 105.104C28.6426 105.799 27.8906 106.146 26.9375 106.146C26.1562 106.146 25.5176 105.928 25.0215 105.49C24.5293 105.053 24.248 104.473 24.1777 103.75ZM30.8574 101.764C30.8574 100.748 30.9609 99.9316 31.168 99.3145C31.3789 98.6934 31.6895 98.2148 32.0996 97.8789C32.5137 97.543 33.0332 97.375 33.6582 97.375C34.1191 97.375 34.5234 97.4688 34.8711 97.6562C35.2188 97.8398 35.5059 98.1074 35.7324 98.459C35.959 98.8066 36.1367 99.2324 36.2656 99.7363C36.3945 100.236 36.459 100.912 36.459 101.764C36.459 102.771 36.3555 103.586 36.1484 104.207C35.9414 104.824 35.6309 105.303 35.2168 105.643C34.8066 105.979 34.2871 106.146 33.6582 106.146C32.8301 106.146 32.1797 105.85 31.707 105.256C31.1406 104.541 30.8574 103.377 30.8574 101.764ZM31.9414 101.764C31.9414 103.174 32.1055 104.113 32.4336 104.582C32.7656 105.047 33.1738 105.279 33.6582 105.279C34.1426 105.279 34.5488 105.045 34.877 104.576C35.209 104.107 35.375 103.17 35.375 101.764C35.375 100.35 35.209 99.4102 34.877 98.9453C34.5488 98.4805 34.1387 98.248 33.6465 98.248C33.1621 98.248 32.7754 98.4531 32.4863 98.8633C32.123 99.3867 31.9414 100.354 31.9414 101.764ZM37.5371 101.764C37.5371 100.748 37.6406 99.9316 37.8477 99.3145C38.0586 98.6934 38.3691 98.2148 38.7793 97.8789C39.1934 97.543 39.7129 97.375 40.3379 97.375C40.7988 97.375 41.2031 97.4688 41.5508 97.6562C41.8984 97.8398 42.1855 98.1074 42.4121 98.459C42.6387 98.8066 42.8164 99.2324 42.9453 99.7363C43.0742 100.236 43.1387 100.912 43.1387 101.764C43.1387 102.771 43.0352 103.586 42.8281 104.207C42.6211 104.824 42.3105 105.303 41.8965 105.643C41.4863 105.979 40.9668 106.146 40.3379 106.146C39.5098 106.146 38.8594 105.85 38.3867 105.256C37.8203 104.541 37.5371 103.377 37.5371 101.764ZM38.6211 101.764C38.6211 103.174 38.7852 104.113 39.1133 104.582C39.4453 105.047 39.8535 105.279 40.3379 105.279C40.8223 105.279 41.2285 105.045 41.5566 104.576C41.8887 104.107 42.0547 103.17 42.0547 101.764C42.0547 100.35 41.8887 99.4102 41.5566 98.9453C41.2285 98.4805 40.8184 98.248 40.3262 98.248C39.8418 98.248 39.4551 98.4531 39.166 98.8633C38.8027 99.3867 38.6211 100.354 38.6211 101.764ZM47.4395 103.422V102.361H50.6797V103.422H47.4395ZM58.2734 106V103.943H54.5469V102.977L58.4668 97.4102H59.3281V102.977H60.4883V103.943H59.3281V106H58.2734ZM58.2734 102.977V99.1035L55.584 102.977H58.2734ZM61.7305 104.014L62.7441 103.92C62.8301 104.396 62.9941 104.742 63.2363 104.957C63.4785 105.172 63.7891 105.279 64.168 105.279C64.4922 105.279 64.7754 105.205 65.0176 105.057C65.2637 104.908 65.4648 104.711 65.6211 104.465C65.7773 104.215 65.9082 103.879 66.0137 103.457C66.1191 103.035 66.1719 102.605 66.1719 102.168C66.1719 102.121 66.1699 102.051 66.166 101.957C65.9551 102.293 65.666 102.566 65.2988 102.777C64.9355 102.984 64.541 103.088 64.1152 103.088C63.4043 103.088 62.8027 102.83 62.3105 102.314C61.8184 101.799 61.5723 101.119 61.5723 100.275C61.5723 99.4043 61.8281 98.7031 62.3398 98.1719C62.8555 97.6406 63.5 97.375 64.2734 97.375C64.832 97.375 65.3418 97.5254 65.8027 97.8262C66.2676 98.127 66.6191 98.5566 66.8574 99.1152C67.0996 99.6699 67.2207 100.475 67.2207 101.529C67.2207 102.627 67.1016 103.502 66.8633 104.154C66.625 104.803 66.2695 105.297 65.7969 105.637C65.3281 105.977 64.7773 106.146 64.1445 106.146C63.4727 106.146 62.9238 105.961 62.498 105.59C62.0723 105.215 61.8164 104.689 61.7305 104.014ZM66.0488 100.223C66.0488 99.6172 65.8867 99.1367 65.5625 98.7812C65.2422 98.4258 64.8555 98.248 64.4023 98.248C63.9336 98.248 63.5254 98.4395 63.1777 98.8223C62.8301 99.2051 62.6562 99.7012 62.6562 100.311C62.6562 100.857 62.8203 101.303 63.1484 101.646C63.4805 101.986 63.8887 102.156 64.373 102.156C64.8613 102.156 65.2617 101.986 65.5742 101.646C65.8906 101.303 66.0488 100.828 66.0488 100.223ZM68.4102 104.014L69.4238 103.92C69.5098 104.396 69.6738 104.742 69.916 104.957C70.1582 105.172 70.4688 105.279 70.8477 105.279C71.1719 105.279 71.4551 105.205 71.6973 105.057C71.9434 104.908 72.1445 104.711 72.3008 104.465C72.457 104.215 72.5879 103.879 72.6934 103.457C72.7988 103.035 72.8516 102.605 72.8516 102.168C72.8516 102.121 72.8496 102.051 72.8457 101.957C72.6348 102.293 72.3457 102.566 71.9785 102.777C71.6152 102.984 71.2207 103.088 70.7949 103.088C70.084 103.088 69.4824 102.83 68.9902 102.314C68.498 101.799 68.252 101.119 68.252 100.275C68.252 99.4043 68.5078 98.7031 69.0195 98.1719C69.5352 97.6406 70.1797 97.375 70.9531 97.375C71.5117 97.375 72.0215 97.5254 72.4824 97.8262C72.9473 98.127 73.2988 98.5566 73.5371 99.1152C73.7793 99.6699 73.9004 100.475 73.9004 101.529C73.9004 102.627 73.7812 103.502 73.543 104.154C73.3047 104.803 72.9492 105.297 72.4766 105.637C72.0078 105.977 71.457 106.146 70.8242 106.146C70.1523 106.146 69.6035 105.961 69.1777 105.59C68.752 105.215 68.4961 104.689 68.4102 104.014ZM72.7285 100.223C72.7285 99.6172 72.5664 99.1367 72.2422 98.7812C71.9219 98.4258 71.5352 98.248 71.082 98.248C70.6133 98.248 70.2051 98.4395 69.8574 98.8223C69.5098 99.2051 69.3359 99.7012 69.3359 100.311C69.3359 100.857 69.5 101.303 69.8281 101.646C70.1602 101.986 70.5684 102.156 71.0527 102.156C71.541 102.156 71.9414 101.986 72.2539 101.646C72.5703 101.303 72.7285 100.828 72.7285 100.223ZM75.0898 104.014L76.1035 103.92C76.1895 104.396 76.3535 104.742 76.5957 104.957C76.8379 105.172 77.1484 105.279 77.5273 105.279C77.8516 105.279 78.1348 105.205 78.377 105.057C78.623 104.908 78.8242 104.711 78.9805 104.465C79.1367 104.215 79.2676 103.879 79.373 103.457C79.4785 103.035 79.5312 102.605 79.5312 102.168C79.5312 102.121 79.5293 102.051 79.5254 101.957C79.3145 102.293 79.0254 102.566 78.6582 102.777C78.2949 102.984 77.9004 103.088 77.4746 103.088C76.7637 103.088 76.1621 102.83 75.6699 102.314C75.1777 101.799 74.9316 101.119 74.9316 100.275C74.9316 99.4043 75.1875 98.7031 75.6992 98.1719C76.2148 97.6406 76.8594 97.375 77.6328 97.375C78.1914 97.375 78.7012 97.5254 79.1621 97.8262C79.627 98.127 79.9785 98.5566 80.2168 99.1152C80.459 99.6699 80.5801 100.475 80.5801 101.529C80.5801 102.627 80.4609 103.502 80.2227 104.154C79.9844 104.803 79.6289 105.297 79.1562 105.637C78.6875 105.977 78.1367 106.146 77.5039 106.146C76.832 106.146 76.2832 105.961 75.8574 105.59C75.4316 105.215 75.1758 104.689 75.0898 104.014ZM79.4082 100.223C79.4082 99.6172 79.2461 99.1367 78.9219 98.7812C78.6016 98.4258 78.2148 98.248 77.7617 98.248C77.293 98.248 76.8848 98.4395 76.5371 98.8223C76.1895 99.2051 76.0156 99.7012 76.0156 100.311C76.0156 100.857 76.1797 101.303 76.5078 101.646C76.8398 101.986 77.248 102.156 77.7324 102.156C78.2207 102.156 78.6211 101.986 78.9336 101.646C79.25 101.303 79.4082 100.828 79.4082 100.223ZM87.4414 107.236V106.182C86.9141 106.115 86.4844 105.998 86.1523 105.83C85.8242 105.658 85.5391 105.383 85.2969 105.004C85.0586 104.625 84.9199 104.162 84.8809 103.615L85.9414 103.416C86.0234 103.982 86.168 104.398 86.375 104.664C86.6719 105.039 87.0273 105.248 87.4414 105.291V101.934C87.0078 101.852 86.5645 101.684 86.1113 101.43C85.7754 101.242 85.5156 100.982 85.332 100.65C85.1523 100.318 85.0625 99.9414 85.0625 99.5195C85.0625 98.7695 85.3281 98.1621 85.8594 97.6973C86.2148 97.3848 86.7422 97.1934 87.4414 97.123V96.6191H88.0625V97.123C88.6758 97.1816 89.1621 97.3613 89.5215 97.6621C89.9824 98.0449 90.2598 98.5703 90.3535 99.2383L89.2637 99.4023C89.2012 98.9883 89.0703 98.6719 88.8711 98.4531C88.6758 98.2305 88.4062 98.084 88.0625 98.0137V101.055C88.5938 101.188 88.9453 101.291 89.1172 101.365C89.4453 101.51 89.7129 101.686 89.9199 101.893C90.127 102.1 90.2852 102.346 90.3945 102.631C90.5078 102.916 90.5645 103.225 90.5645 103.557C90.5645 104.287 90.332 104.896 89.8672 105.385C89.4023 105.873 88.8008 106.135 88.0625 106.17V107.236H87.4414ZM87.4414 98.002C87.0312 98.0645 86.707 98.2285 86.4688 98.4941C86.2344 98.7598 86.1172 99.0742 86.1172 99.4375C86.1172 99.7969 86.2168 100.098 86.416 100.34C86.6191 100.582 86.9609 100.775 87.4414 100.92V98.002ZM88.0625 105.291C88.4727 105.24 88.8105 105.062 89.0762 104.758C89.3457 104.453 89.4805 104.076 89.4805 103.627C89.4805 103.244 89.3848 102.938 89.1934 102.707C89.0059 102.473 88.6289 102.264 88.0625 102.08V105.291ZM92.0234 106V97.4102H93.7344L95.7676 103.492C95.9551 104.059 96.0918 104.482 96.1777 104.764C96.2754 104.451 96.4277 103.992 96.6348 103.387L98.6914 97.4102H100.221V106H99.125V98.8105L96.6289 106H95.6035L93.1191 98.6875V106H92.0234ZM102.248 106V97.4102H103.385V106H102.248ZM105.359 106V97.4102H107.07L109.104 103.492C109.291 104.059 109.428 104.482 109.514 104.764C109.611 104.451 109.764 103.992 109.971 103.387L112.027 97.4102H113.557V106H112.461V98.8105L109.965 106H108.939L106.455 98.6875V106H105.359Z" fill="black"/>
    <path d="M38.3457 143.244L32.6562 145.676V144.627L37.1621 142.758L32.6562 140.906V139.857L38.3457 142.26V143.244ZM39.5059 144.75L40.6133 144.656C40.6953 145.195 40.8848 145.602 41.1816 145.875C41.4824 146.145 41.8438 146.279 42.2656 146.279C42.7734 146.279 43.2031 146.088 43.5547 145.705C43.9062 145.322 44.082 144.814 44.082 144.182C44.082 143.58 43.9121 143.105 43.5723 142.758C43.2363 142.41 42.7949 142.236 42.248 142.236C41.9082 142.236 41.6016 142.314 41.3281 142.471C41.0547 142.623 40.8398 142.822 40.6836 143.068L39.6934 142.939L40.5254 138.527H44.7969V139.535H41.3691L40.9062 141.844C41.4219 141.484 41.9629 141.305 42.5293 141.305C43.2793 141.305 43.9121 141.564 44.4277 142.084C44.9434 142.604 45.2012 143.271 45.2012 144.088C45.2012 144.865 44.9746 145.537 44.5215 146.104C43.9707 146.799 43.2188 147.146 42.2656 147.146C41.4844 147.146 40.8457 146.928 40.3496 146.49C39.8574 146.053 39.5762 145.473 39.5059 144.75ZM46.1855 142.764C46.1855 141.748 46.2891 140.932 46.4961 140.314C46.707 139.693 47.0176 139.215 47.4277 138.879C47.8418 138.543 48.3613 138.375 48.9863 138.375C49.4473 138.375 49.8516 138.469 50.1992 138.656C50.5469 138.84 50.834 139.107 51.0605 139.459C51.2871 139.807 51.4648 140.232 51.5938 140.736C51.7227 141.236 51.7871 141.912 51.7871 142.764C51.7871 143.771 51.6836 144.586 51.4766 145.207C51.2695 145.824 50.959 146.303 50.5449 146.643C50.1348 146.979 49.6152 147.146 48.9863 147.146C48.1582 147.146 47.5078 146.85 47.0352 146.256C46.4688 145.541 46.1855 144.377 46.1855 142.764ZM47.2695 142.764C47.2695 144.174 47.4336 145.113 47.7617 145.582C48.0938 146.047 48.502 146.279 48.9863 146.279C49.4707 146.279 49.877 146.045 50.2051 145.576C50.5371 145.107 50.7031 144.17 50.7031 142.764C50.7031 141.35 50.5371 140.41 50.2051 139.945C49.877 139.48 49.4668 139.248 48.9746 139.248C48.4902 139.248 48.1035 139.453 47.8145 139.863C47.4512 140.387 47.2695 141.354 47.2695 142.764ZM52.8652 142.764C52.8652 141.748 52.9688 140.932 53.1758 140.314C53.3867 139.693 53.6973 139.215 54.1074 138.879C54.5215 138.543 55.041 138.375 55.666 138.375C56.127 138.375 56.5312 138.469 56.8789 138.656C57.2266 138.84 57.5137 139.107 57.7402 139.459C57.9668 139.807 58.1445 140.232 58.2734 140.736C58.4023 141.236 58.4668 141.912 58.4668 142.764C58.4668 143.771 58.3633 144.586 58.1562 145.207C57.9492 145.824 57.6387 146.303 57.2246 146.643C56.8145 146.979 56.2949 147.146 55.666 147.146C54.8379 147.146 54.1875 146.85 53.7148 146.256C53.1484 145.541 52.8652 144.377 52.8652 142.764ZM53.9492 142.764C53.9492 144.174 54.1133 145.113 54.4414 145.582C54.7734 146.047 55.1816 146.279 55.666 146.279C56.1504 146.279 56.5566 146.045 56.8848 145.576C57.2168 145.107 57.3828 144.17 57.3828 142.764C57.3828 141.35 57.2168 140.41 56.8848 139.945C56.5566 139.48 56.1465 139.248 55.6543 139.248C55.1699 139.248 54.7832 139.453 54.4941 139.863C54.1309 140.387 53.9492 141.354 53.9492 142.764ZM59.5449 142.764C59.5449 141.748 59.6484 140.932 59.8555 140.314C60.0664 139.693 60.377 139.215 60.7871 138.879C61.2012 138.543 61.7207 138.375 62.3457 138.375C62.8066 138.375 63.2109 138.469 63.5586 138.656C63.9062 138.84 64.1934 139.107 64.4199 139.459C64.6465 139.807 64.8242 140.232 64.9531 140.736C65.082 141.236 65.1465 141.912 65.1465 142.764C65.1465 143.771 65.043 144.586 64.8359 145.207C64.6289 145.824 64.3184 146.303 63.9043 146.643C63.4941 146.979 62.9746 147.146 62.3457 147.146C61.5176 147.146 60.8672 146.85 60.3945 146.256C59.8281 145.541 59.5449 144.377 59.5449 142.764ZM60.6289 142.764C60.6289 144.174 60.793 145.113 61.1211 145.582C61.4531 146.047 61.8613 146.279 62.3457 146.279C62.8301 146.279 63.2363 146.045 63.5645 145.576C63.8965 145.107 64.0625 144.17 64.0625 142.764C64.0625 141.35 63.8965 140.41 63.5645 139.945C63.2363 139.48 62.8262 139.248 62.334 139.248C61.8496 139.248 61.4629 139.453 61.1738 139.863C60.8105 140.387 60.6289 141.354 60.6289 142.764ZM72.0547 148.236V147.182C71.5273 147.115 71.0977 146.998 70.7656 146.83C70.4375 146.658 70.1523 146.383 69.9102 146.004C69.6719 145.625 69.5332 145.162 69.4941 144.615L70.5547 144.416C70.6367 144.982 70.7812 145.398 70.9883 145.664C71.2852 146.039 71.6406 146.248 72.0547 146.291V142.934C71.6211 142.852 71.1777 142.684 70.7246 142.43C70.3887 142.242 70.1289 141.982 69.9453 141.65C69.7656 141.318 69.6758 140.941 69.6758 140.52C69.6758 139.77 69.9414 139.162 70.4727 138.697C70.8281 138.385 71.3555 138.193 72.0547 138.123V137.619H72.6758V138.123C73.2891 138.182 73.7754 138.361 74.1348 138.662C74.5957 139.045 74.873 139.57 74.9668 140.238L73.877 140.402C73.8145 139.988 73.6836 139.672 73.4844 139.453C73.2891 139.23 73.0195 139.084 72.6758 139.014V142.055C73.207 142.188 73.5586 142.291 73.7305 142.365C74.0586 142.51 74.3262 142.686 74.5332 142.893C74.7402 143.1 74.8984 143.346 75.0078 143.631C75.1211 143.916 75.1777 144.225 75.1777 144.557C75.1777 145.287 74.9453 145.896 74.4805 146.385C74.0156 146.873 73.4141 147.135 72.6758 147.17V148.236H72.0547ZM72.0547 139.002C71.6445 139.064 71.3203 139.229 71.082 139.494C70.8477 139.76 70.7305 140.074 70.7305 140.438C70.7305 140.797 70.8301 141.098 71.0293 141.34C71.2324 141.582 71.5742 141.775 72.0547 141.92V139.002ZM72.6758 146.291C73.0859 146.24 73.4238 146.062 73.6895 145.758C73.959 145.453 74.0938 145.076 74.0938 144.627C74.0938 144.244 73.998 143.938 73.8066 143.707C73.6191 143.473 73.2422 143.264 72.6758 143.08V146.291ZM76.6367 147V138.41H78.3477L80.3809 144.492C80.5684 145.059 80.7051 145.482 80.791 145.764C80.8887 145.451 81.041 144.992 81.248 144.387L83.3047 138.41H84.834V147H83.7383V139.811L81.2422 147H80.2168L77.7324 139.688V147H76.6367ZM86.8613 147V138.41H87.998V147H86.8613ZM89.9727 147V138.41H91.6836L93.7168 144.492C93.9043 145.059 94.041 145.482 94.127 145.764C94.2246 145.451 94.377 144.992 94.584 144.387L96.6406 138.41H98.1699V147H97.0742V139.811L94.5781 147H93.5527L91.0684 139.688V147H89.9727Z" fill="black"/>
    <path d="M167.471 65H166.416V58.2793C166.162 58.5215 165.828 58.7637 165.414 59.0059C165.004 59.248 164.635 59.4297 164.307 59.5508V58.5312C164.896 58.2539 165.412 57.918 165.854 57.5234C166.295 57.1289 166.607 56.7461 166.791 56.375H167.471V65ZM170.178 60.7637C170.178 59.748 170.281 58.9316 170.488 58.3145C170.699 57.6934 171.01 57.2148 171.42 56.8789C171.834 56.543 172.354 56.375 172.979 56.375C173.439 56.375 173.844 56.4688 174.191 56.6562C174.539 56.8398 174.826 57.1074 175.053 57.459C175.279 57.8066 175.457 58.2324 175.586 58.7363C175.715 59.2363 175.779 59.9121 175.779 60.7637C175.779 61.7715 175.676 62.5859 175.469 63.207C175.262 63.8242 174.951 64.3027 174.537 64.6426C174.127 64.9785 173.607 65.1465 172.979 65.1465C172.15 65.1465 171.5 64.8496 171.027 64.2559C170.461 63.541 170.178 62.377 170.178 60.7637ZM171.262 60.7637C171.262 62.1738 171.426 63.1133 171.754 63.582C172.086 64.0469 172.494 64.2793 172.979 64.2793C173.463 64.2793 173.869 64.0449 174.197 63.5762C174.529 63.1074 174.695 62.1699 174.695 60.7637C174.695 59.3496 174.529 58.4102 174.197 57.9453C173.869 57.4805 173.459 57.248 172.967 57.248C172.482 57.248 172.096 57.4531 171.807 57.8633C171.443 58.3867 171.262 59.3535 171.262 60.7637ZM182.688 66.2363V65.1816C182.16 65.1152 181.73 64.998 181.398 64.8301C181.07 64.6582 180.785 64.3828 180.543 64.0039C180.305 63.625 180.166 63.1621 180.127 62.6152L181.188 62.416C181.27 62.9824 181.414 63.3984 181.621 63.6641C181.918 64.0391 182.273 64.248 182.688 64.291V60.9336C182.254 60.8516 181.811 60.6836 181.357 60.4297C181.021 60.2422 180.762 59.9824 180.578 59.6504C180.398 59.3184 180.309 58.9414 180.309 58.5195C180.309 57.7695 180.574 57.1621 181.105 56.6973C181.461 56.3848 181.988 56.1934 182.688 56.123V55.6191H183.309V56.123C183.922 56.1816 184.408 56.3613 184.768 56.6621C185.229 57.0449 185.506 57.5703 185.6 58.2383L184.51 58.4023C184.447 57.9883 184.316 57.6719 184.117 57.4531C183.922 57.2305 183.652 57.084 183.309 57.0137V60.0547C183.84 60.1875 184.191 60.291 184.363 60.3652C184.691 60.5098 184.959 60.6855 185.166 60.8926C185.373 61.0996 185.531 61.3457 185.641 61.6309C185.754 61.916 185.811 62.2246 185.811 62.5566C185.811 63.2871 185.578 63.8965 185.113 64.3848C184.648 64.873 184.047 65.1348 183.309 65.1699V66.2363H182.688ZM182.688 57.002C182.277 57.0645 181.953 57.2285 181.715 57.4941C181.48 57.7598 181.363 58.0742 181.363 58.4375C181.363 58.7969 181.463 59.0977 181.662 59.3398C181.865 59.582 182.207 59.7754 182.688 59.9199V57.002ZM183.309 64.291C183.719 64.2402 184.057 64.0625 184.322 63.7578C184.592 63.4531 184.727 63.0762 184.727 62.627C184.727 62.2441 184.631 61.9375 184.439 61.707C184.252 61.4727 183.875 61.2637 183.309 61.0801V64.291ZM193.434 61.9883L194.57 62.2754C194.332 63.209 193.902 63.9219 193.281 64.4141C192.664 64.9023 191.908 65.1465 191.014 65.1465C190.088 65.1465 189.334 64.959 188.752 64.584C188.174 64.2051 187.732 63.6582 187.428 62.9434C187.127 62.2285 186.977 61.4609 186.977 60.6406C186.977 59.7461 187.146 58.9668 187.486 58.3027C187.83 57.6348 188.316 57.1289 188.945 56.7852C189.578 56.4375 190.273 56.2637 191.031 56.2637C191.891 56.2637 192.613 56.4824 193.199 56.9199C193.785 57.3574 194.193 57.9727 194.424 58.7656L193.305 59.0293C193.105 58.4043 192.816 57.9492 192.438 57.6641C192.059 57.3789 191.582 57.2363 191.008 57.2363C190.348 57.2363 189.795 57.3945 189.35 57.7109C188.908 58.0273 188.598 58.4531 188.418 58.9883C188.238 59.5195 188.148 60.0684 188.148 60.6348C188.148 61.3652 188.254 62.0039 188.465 62.5508C188.68 63.0938 189.012 63.5 189.461 63.7695C189.91 64.0391 190.396 64.1738 190.92 64.1738C191.557 64.1738 192.096 63.9902 192.537 63.623C192.979 63.2559 193.277 62.7109 193.434 61.9883ZM196.012 65V56.4102H197.148V59.9375H201.613V56.4102H202.75V65H201.613V60.9512H197.148V65H196.012ZM204.672 65V56.4102H210.883V57.4238H205.809V60.0547H210.561V61.0625H205.809V63.9863H211.082V65H204.672ZM212.676 65V56.4102H218.887V57.4238H213.812V60.0547H218.564V61.0625H213.812V63.9863H219.086V65H212.676ZM220.27 62.2402L221.342 62.1465C221.393 62.5762 221.51 62.9297 221.693 63.207C221.881 63.4805 222.17 63.7031 222.561 63.875C222.951 64.043 223.391 64.127 223.879 64.127C224.312 64.127 224.695 64.0625 225.027 63.9336C225.359 63.8047 225.605 63.6289 225.766 63.4062C225.93 63.1797 226.012 62.9336 226.012 62.668C226.012 62.3984 225.934 62.1641 225.777 61.9648C225.621 61.7617 225.363 61.5918 225.004 61.4551C224.773 61.3652 224.264 61.2266 223.475 61.0391C222.686 60.8477 222.133 60.668 221.816 60.5C221.406 60.2852 221.1 60.0195 220.896 59.7031C220.697 59.3828 220.598 59.0254 220.598 58.6309C220.598 58.1973 220.721 57.793 220.967 57.418C221.213 57.0391 221.572 56.752 222.045 56.5566C222.518 56.3613 223.043 56.2637 223.621 56.2637C224.258 56.2637 224.818 56.3672 225.303 56.5742C225.791 56.7773 226.166 57.0781 226.428 57.4766C226.689 57.875 226.83 58.3262 226.85 58.8301L225.76 58.9121C225.701 58.3691 225.502 57.959 225.162 57.6816C224.826 57.4043 224.328 57.2656 223.668 57.2656C222.98 57.2656 222.479 57.3926 222.162 57.6465C221.85 57.8965 221.693 58.1992 221.693 58.5547C221.693 58.8633 221.805 59.1172 222.027 59.3164C222.246 59.5156 222.816 59.7207 223.738 59.9316C224.664 60.1387 225.299 60.3203 225.643 60.4766C226.143 60.707 226.512 61 226.75 61.3555C226.988 61.707 227.107 62.1133 227.107 62.5742C227.107 63.0312 226.977 63.4629 226.715 63.8691C226.453 64.2715 226.076 64.5859 225.584 64.8125C225.096 65.0352 224.545 65.1465 223.932 65.1465C223.154 65.1465 222.502 65.0332 221.975 64.8066C221.451 64.5801 221.039 64.2402 220.738 63.7871C220.441 63.3301 220.285 62.8145 220.27 62.2402ZM228.684 65V56.4102H234.895V57.4238H229.82V60.0547H234.572V61.0625H229.82V63.9863H235.094V65H228.684Z" fill="black"/>
    <path d="M169.041 104.986V106H163.363C163.355 105.746 163.396 105.502 163.486 105.268C163.631 104.881 163.861 104.5 164.178 104.125C164.498 103.75 164.959 103.316 165.561 102.824C166.494 102.059 167.125 101.453 167.453 101.008C167.781 100.559 167.945 100.135 167.945 99.7363C167.945 99.3184 167.795 98.9668 167.494 98.6816C167.197 98.3926 166.809 98.248 166.328 98.248C165.82 98.248 165.414 98.4004 165.109 98.7051C164.805 99.0098 164.65 99.4316 164.646 99.9707L163.562 99.8594C163.637 99.0508 163.916 98.4355 164.4 98.0137C164.885 97.5879 165.535 97.375 166.352 97.375C167.176 97.375 167.828 97.6035 168.309 98.0605C168.789 98.5176 169.029 99.084 169.029 99.7598C169.029 100.104 168.959 100.441 168.818 100.773C168.678 101.105 168.443 101.455 168.115 101.822C167.791 102.189 167.25 102.693 166.492 103.334C165.859 103.865 165.453 104.227 165.273 104.418C165.094 104.605 164.945 104.795 164.828 104.986H169.041ZM170.178 103.75L171.285 103.656C171.367 104.195 171.557 104.602 171.854 104.875C172.154 105.145 172.516 105.279 172.938 105.279C173.445 105.279 173.875 105.088 174.227 104.705C174.578 104.322 174.754 103.814 174.754 103.182C174.754 102.58 174.584 102.105 174.244 101.758C173.908 101.41 173.467 101.236 172.92 101.236C172.58 101.236 172.273 101.314 172 101.471C171.727 101.623 171.512 101.822 171.355 102.068L170.365 101.939L171.197 97.5273H175.469V98.5352H172.041L171.578 100.844C172.094 100.484 172.635 100.305 173.201 100.305C173.951 100.305 174.584 100.564 175.1 101.084C175.615 101.604 175.873 102.271 175.873 103.088C175.873 103.865 175.646 104.537 175.193 105.104C174.643 105.799 173.891 106.146 172.938 106.146C172.156 106.146 171.518 105.928 171.021 105.49C170.529 105.053 170.248 104.473 170.178 103.75ZM182.688 107.236V106.182C182.16 106.115 181.73 105.998 181.398 105.83C181.07 105.658 180.785 105.383 180.543 105.004C180.305 104.625 180.166 104.162 180.127 103.615L181.188 103.416C181.27 103.982 181.414 104.398 181.621 104.664C181.918 105.039 182.273 105.248 182.688 105.291V101.934C182.254 101.852 181.811 101.684 181.357 101.43C181.021 101.242 180.762 100.982 180.578 100.65C180.398 100.318 180.309 99.9414 180.309 99.5195C180.309 98.7695 180.574 98.1621 181.105 97.6973C181.461 97.3848 181.988 97.1934 182.688 97.123V96.6191H183.309V97.123C183.922 97.1816 184.408 97.3613 184.768 97.6621C185.229 98.0449 185.506 98.5703 185.6 99.2383L184.51 99.4023C184.447 98.9883 184.316 98.6719 184.117 98.4531C183.922 98.2305 183.652 98.084 183.309 98.0137V101.055C183.84 101.188 184.191 101.291 184.363 101.365C184.691 101.51 184.959 101.686 185.166 101.893C185.373 102.1 185.531 102.346 185.641 102.631C185.754 102.916 185.811 103.225 185.811 103.557C185.811 104.287 185.578 104.896 185.113 105.385C184.648 105.873 184.047 106.135 183.309 106.17V107.236H182.688ZM182.688 98.002C182.277 98.0645 181.953 98.2285 181.715 98.4941C181.48 98.7598 181.363 99.0742 181.363 99.4375C181.363 99.7969 181.463 100.098 181.662 100.34C181.865 100.582 182.207 100.775 182.688 100.92V98.002ZM183.309 105.291C183.719 105.24 184.057 105.062 184.322 104.758C184.592 104.453 184.727 104.076 184.727 103.627C184.727 103.244 184.631 102.938 184.439 102.707C184.252 102.473 183.875 102.264 183.309 102.08V105.291ZM193.434 102.988L194.57 103.275C194.332 104.209 193.902 104.922 193.281 105.414C192.664 105.902 191.908 106.146 191.014 106.146C190.088 106.146 189.334 105.959 188.752 105.584C188.174 105.205 187.732 104.658 187.428 103.943C187.127 103.229 186.977 102.461 186.977 101.641C186.977 100.746 187.146 99.9668 187.486 99.3027C187.83 98.6348 188.316 98.1289 188.945 97.7852C189.578 97.4375 190.273 97.2637 191.031 97.2637C191.891 97.2637 192.613 97.4824 193.199 97.9199C193.785 98.3574 194.193 98.9727 194.424 99.7656L193.305 100.029C193.105 99.4043 192.816 98.9492 192.438 98.6641C192.059 98.3789 191.582 98.2363 191.008 98.2363C190.348 98.2363 189.795 98.3945 189.35 98.7109C188.908 99.0273 188.598 99.4531 188.418 99.9883C188.238 100.52 188.148 101.068 188.148 101.635C188.148 102.365 188.254 103.004 188.465 103.551C188.68 104.094 189.012 104.5 189.461 104.77C189.91 105.039 190.396 105.174 190.92 105.174C191.557 105.174 192.096 104.99 192.537 104.623C192.979 104.256 193.277 103.711 193.434 102.988ZM196.012 106V97.4102H197.148V100.938H201.613V97.4102H202.75V106H201.613V101.951H197.148V106H196.012ZM204.672 106V97.4102H210.883V98.4238H205.809V101.055H210.561V102.062H205.809V104.986H211.082V106H204.672ZM212.676 106V97.4102H218.887V98.4238H213.812V101.055H218.564V102.062H213.812V104.986H219.086V106H212.676ZM220.27 103.24L221.342 103.146C221.393 103.576 221.51 103.93 221.693 104.207C221.881 104.48 222.17 104.703 222.561 104.875C222.951 105.043 223.391 105.127 223.879 105.127C224.312 105.127 224.695 105.062 225.027 104.934C225.359 104.805 225.605 104.629 225.766 104.406C225.93 104.18 226.012 103.934 226.012 103.668C226.012 103.398 225.934 103.164 225.777 102.965C225.621 102.762 225.363 102.592 225.004 102.455C224.773 102.365 224.264 102.227 223.475 102.039C222.686 101.848 222.133 101.668 221.816 101.5C221.406 101.285 221.1 101.02 220.896 100.703C220.697 100.383 220.598 100.025 220.598 99.6309C220.598 99.1973 220.721 98.793 220.967 98.418C221.213 98.0391 221.572 97.752 222.045 97.5566C222.518 97.3613 223.043 97.2637 223.621 97.2637C224.258 97.2637 224.818 97.3672 225.303 97.5742C225.791 97.7773 226.166 98.0781 226.428 98.4766C226.689 98.875 226.83 99.3262 226.85 99.8301L225.76 99.9121C225.701 99.3691 225.502 98.959 225.162 98.6816C224.826 98.4043 224.328 98.2656 223.668 98.2656C222.98 98.2656 222.479 98.3926 222.162 98.6465C221.85 98.8965 221.693 99.1992 221.693 99.5547C221.693 99.8633 221.805 100.117 222.027 100.316C222.246 100.516 222.816 100.721 223.738 100.932C224.664 101.139 225.299 101.32 225.643 101.477C226.143 101.707 226.512 102 226.75 102.355C226.988 102.707 227.107 103.113 227.107 103.574C227.107 104.031 226.977 104.463 226.715 104.869C226.453 105.271 226.076 105.586 225.584 105.812C225.096 106.035 224.545 106.146 223.932 106.146C223.154 106.146 222.502 106.033 221.975 105.807C221.451 105.58 221.039 105.24 220.738 104.787C220.441 104.33 220.285 103.814 220.27 103.24ZM228.684 106V97.4102H234.895V98.4238H229.82V101.055H234.572V102.062H229.82V104.986H235.094V106H228.684Z" fill="black"/>
    <path d="M163.498 144.75L164.605 144.656C164.688 145.195 164.877 145.602 165.174 145.875C165.475 146.145 165.836 146.279 166.258 146.279C166.766 146.279 167.195 146.088 167.547 145.705C167.898 145.322 168.074 144.814 168.074 144.182C168.074 143.58 167.904 143.105 167.564 142.758C167.229 142.41 166.787 142.236 166.24 142.236C165.9 142.236 165.594 142.314 165.32 142.471C165.047 142.623 164.832 142.822 164.676 143.068L163.686 142.939L164.518 138.527H168.789V139.535H165.361L164.898 141.844C165.414 141.484 165.955 141.305 166.521 141.305C167.271 141.305 167.904 141.564 168.42 142.084C168.936 142.604 169.193 143.271 169.193 144.088C169.193 144.865 168.967 145.537 168.514 146.104C167.963 146.799 167.211 147.146 166.258 147.146C165.477 147.146 164.838 146.928 164.342 146.49C163.85 146.053 163.568 145.473 163.498 144.75ZM170.178 142.764C170.178 141.748 170.281 140.932 170.488 140.314C170.699 139.693 171.01 139.215 171.42 138.879C171.834 138.543 172.354 138.375 172.979 138.375C173.439 138.375 173.844 138.469 174.191 138.656C174.539 138.84 174.826 139.107 175.053 139.459C175.279 139.807 175.457 140.232 175.586 140.736C175.715 141.236 175.779 141.912 175.779 142.764C175.779 143.771 175.676 144.586 175.469 145.207C175.262 145.824 174.951 146.303 174.537 146.643C174.127 146.979 173.607 147.146 172.979 147.146C172.15 147.146 171.5 146.85 171.027 146.256C170.461 145.541 170.178 144.377 170.178 142.764ZM171.262 142.764C171.262 144.174 171.426 145.113 171.754 145.582C172.086 146.047 172.494 146.279 172.979 146.279C173.463 146.279 173.869 146.045 174.197 145.576C174.529 145.107 174.695 144.17 174.695 142.764C174.695 141.35 174.529 140.41 174.197 139.945C173.869 139.48 173.459 139.248 172.967 139.248C172.482 139.248 172.096 139.453 171.807 139.863C171.443 140.387 171.262 141.354 171.262 142.764ZM182.688 148.236V147.182C182.16 147.115 181.73 146.998 181.398 146.83C181.07 146.658 180.785 146.383 180.543 146.004C180.305 145.625 180.166 145.162 180.127 144.615L181.188 144.416C181.27 144.982 181.414 145.398 181.621 145.664C181.918 146.039 182.273 146.248 182.688 146.291V142.934C182.254 142.852 181.811 142.684 181.357 142.43C181.021 142.242 180.762 141.982 180.578 141.65C180.398 141.318 180.309 140.941 180.309 140.52C180.309 139.77 180.574 139.162 181.105 138.697C181.461 138.385 181.988 138.193 182.688 138.123V137.619H183.309V138.123C183.922 138.182 184.408 138.361 184.768 138.662C185.229 139.045 185.506 139.57 185.6 140.238L184.51 140.402C184.447 139.988 184.316 139.672 184.117 139.453C183.922 139.23 183.652 139.084 183.309 139.014V142.055C183.84 142.188 184.191 142.291 184.363 142.365C184.691 142.51 184.959 142.686 185.166 142.893C185.373 143.1 185.531 143.346 185.641 143.631C185.754 143.916 185.811 144.225 185.811 144.557C185.811 145.287 185.578 145.896 185.113 146.385C184.648 146.873 184.047 147.135 183.309 147.17V148.236H182.688ZM182.688 139.002C182.277 139.064 181.953 139.229 181.715 139.494C181.48 139.76 181.363 140.074 181.363 140.438C181.363 140.797 181.463 141.098 181.662 141.34C181.865 141.582 182.207 141.775 182.688 141.92V139.002ZM183.309 146.291C183.719 146.24 184.057 146.062 184.322 145.758C184.592 145.453 184.727 145.076 184.727 144.627C184.727 144.244 184.631 143.938 184.439 143.707C184.252 143.473 183.875 143.264 183.309 143.08V146.291ZM193.434 143.988L194.57 144.275C194.332 145.209 193.902 145.922 193.281 146.414C192.664 146.902 191.908 147.146 191.014 147.146C190.088 147.146 189.334 146.959 188.752 146.584C188.174 146.205 187.732 145.658 187.428 144.943C187.127 144.229 186.977 143.461 186.977 142.641C186.977 141.746 187.146 140.967 187.486 140.303C187.83 139.635 188.316 139.129 188.945 138.785C189.578 138.438 190.273 138.264 191.031 138.264C191.891 138.264 192.613 138.482 193.199 138.92C193.785 139.357 194.193 139.973 194.424 140.766L193.305 141.029C193.105 140.404 192.816 139.949 192.438 139.664C192.059 139.379 191.582 139.236 191.008 139.236C190.348 139.236 189.795 139.395 189.35 139.711C188.908 140.027 188.598 140.453 188.418 140.988C188.238 141.52 188.148 142.068 188.148 142.635C188.148 143.365 188.254 144.004 188.465 144.551C188.68 145.094 189.012 145.5 189.461 145.77C189.91 146.039 190.396 146.174 190.92 146.174C191.557 146.174 192.096 145.99 192.537 145.623C192.979 145.256 193.277 144.711 193.434 143.988ZM196.012 147V138.41H197.148V141.938H201.613V138.41H202.75V147H201.613V142.951H197.148V147H196.012ZM204.672 147V138.41H210.883V139.424H205.809V142.055H210.561V143.062H205.809V145.986H211.082V147H204.672ZM212.676 147V138.41H218.887V139.424H213.812V142.055H218.564V143.062H213.812V145.986H219.086V147H212.676ZM220.27 144.24L221.342 144.146C221.393 144.576 221.51 144.93 221.693 145.207C221.881 145.48 222.17 145.703 222.561 145.875C222.951 146.043 223.391 146.127 223.879 146.127C224.312 146.127 224.695 146.062 225.027 145.934C225.359 145.805 225.605 145.629 225.766 145.406C225.93 145.18 226.012 144.934 226.012 144.668C226.012 144.398 225.934 144.164 225.777 143.965C225.621 143.762 225.363 143.592 225.004 143.455C224.773 143.365 224.264 143.227 223.475 143.039C222.686 142.848 222.133 142.668 221.816 142.5C221.406 142.285 221.1 142.02 220.896 141.703C220.697 141.383 220.598 141.025 220.598 140.631C220.598 140.197 220.721 139.793 220.967 139.418C221.213 139.039 221.572 138.752 222.045 138.557C222.518 138.361 223.043 138.264 223.621 138.264C224.258 138.264 224.818 138.367 225.303 138.574C225.791 138.777 226.166 139.078 226.428 139.477C226.689 139.875 226.83 140.326 226.85 140.83L225.76 140.912C225.701 140.369 225.502 139.959 225.162 139.682C224.826 139.404 224.328 139.266 223.668 139.266C222.98 139.266 222.479 139.393 222.162 139.646C221.85 139.896 221.693 140.199 221.693 140.555C221.693 140.863 221.805 141.117 222.027 141.316C222.246 141.516 222.816 141.721 223.738 141.932C224.664 142.139 225.299 142.32 225.643 142.477C226.143 142.707 226.512 143 226.75 143.355C226.988 143.707 227.107 144.113 227.107 144.574C227.107 145.031 226.977 145.463 226.715 145.869C226.453 146.271 226.076 146.586 225.584 146.812C225.096 147.035 224.545 147.146 223.932 147.146C223.154 147.146 222.502 147.033 221.975 146.807C221.451 146.58 221.039 146.24 220.738 145.787C220.441 145.33 220.285 144.814 220.27 144.24ZM228.684 147V138.41H234.895V139.424H229.82V142.055H234.572V143.062H229.82V145.986H235.094V147H228.684Z" fill="black"/>
    <path d="M160.539 21.2402L161.611 21.1465C161.662 21.5762 161.779 21.9297 161.963 22.207C162.15 22.4805 162.439 22.7031 162.83 22.875C163.221 23.043 163.66 23.127 164.148 23.127C164.582 23.127 164.965 23.0625 165.297 22.9336C165.629 22.8047 165.875 22.6289 166.035 22.4062C166.199 22.1797 166.281 21.9336 166.281 21.668C166.281 21.3984 166.203 21.1641 166.047 20.9648C165.891 20.7617 165.633 20.5918 165.273 20.4551C165.043 20.3652 164.533 20.2266 163.744 20.0391C162.955 19.8477 162.402 19.668 162.086 19.5C161.676 19.2852 161.369 19.0195 161.166 18.7031C160.967 18.3828 160.867 18.0254 160.867 17.6309C160.867 17.1973 160.99 16.793 161.236 16.418C161.482 16.0391 161.842 15.752 162.314 15.5566C162.787 15.3613 163.312 15.2637 163.891 15.2637C164.527 15.2637 165.088 15.3672 165.572 15.5742C166.061 15.7773 166.436 16.0781 166.697 16.4766C166.959 16.875 167.1 17.3262 167.119 17.8301L166.029 17.9121C165.971 17.3691 165.771 16.959 165.432 16.6816C165.096 16.4043 164.598 16.2656 163.938 16.2656C163.25 16.2656 162.748 16.3926 162.432 16.6465C162.119 16.8965 161.963 17.1992 161.963 17.5547C161.963 17.8633 162.074 18.1172 162.297 18.3164C162.516 18.5156 163.086 18.7207 164.008 18.9316C164.934 19.1387 165.568 19.3203 165.912 19.4766C166.412 19.707 166.781 20 167.02 20.3555C167.258 20.707 167.377 21.1133 167.377 21.5742C167.377 22.0312 167.246 22.4629 166.984 22.8691C166.723 23.2715 166.346 23.5859 165.854 23.8125C165.365 24.0352 164.814 24.1465 164.201 24.1465C163.424 24.1465 162.771 24.0332 162.244 23.8066C161.721 23.5801 161.309 23.2402 161.008 22.7871C160.711 22.3301 160.555 21.8145 160.539 21.2402ZM171.098 23.0566L171.25 23.9883C170.953 24.0508 170.688 24.082 170.453 24.082C170.07 24.082 169.773 24.0215 169.562 23.9004C169.352 23.7793 169.203 23.6211 169.117 23.4258C169.031 23.2266 168.988 22.8105 168.988 22.1777V18.5977H168.215V17.7773H168.988V16.2363L170.037 15.6035V17.7773H171.098V18.5977H170.037V22.2363C170.037 22.5371 170.055 22.7305 170.09 22.8164C170.129 22.9023 170.189 22.9707 170.271 23.0215C170.357 23.0723 170.479 23.0977 170.635 23.0977C170.752 23.0977 170.906 23.084 171.098 23.0566ZM176.195 23.2324C175.805 23.5645 175.428 23.7988 175.064 23.9355C174.705 24.0723 174.318 24.1406 173.904 24.1406C173.221 24.1406 172.695 23.9746 172.328 23.6426C171.961 23.3066 171.777 22.8789 171.777 22.3594C171.777 22.0547 171.846 21.7773 171.982 21.5273C172.123 21.2734 172.305 21.0703 172.527 20.918C172.754 20.7656 173.008 20.6504 173.289 20.5723C173.496 20.5176 173.809 20.4648 174.227 20.4141C175.078 20.3125 175.705 20.1914 176.107 20.0508C176.111 19.9062 176.113 19.8145 176.113 19.7754C176.113 19.3457 176.014 19.043 175.814 18.8672C175.545 18.6289 175.145 18.5098 174.613 18.5098C174.117 18.5098 173.75 18.5977 173.512 18.7734C173.277 18.9453 173.104 19.252 172.99 19.6934L171.959 19.5527C172.053 19.1113 172.207 18.7559 172.422 18.4863C172.637 18.2129 172.947 18.0039 173.354 17.8594C173.76 17.7109 174.23 17.6367 174.766 17.6367C175.297 17.6367 175.729 17.6992 176.061 17.8242C176.393 17.9492 176.637 18.1074 176.793 18.2988C176.949 18.4863 177.059 18.7246 177.121 19.0137C177.156 19.1934 177.174 19.5176 177.174 19.9863V21.3926C177.174 22.373 177.195 22.9941 177.238 23.2559C177.285 23.5137 177.375 23.7617 177.508 24H176.406C176.297 23.7812 176.227 23.5254 176.195 23.2324ZM176.107 20.877C175.725 21.0332 175.15 21.166 174.385 21.2754C173.951 21.3379 173.645 21.4082 173.465 21.4863C173.285 21.5645 173.146 21.6797 173.049 21.832C172.951 21.9805 172.902 22.1465 172.902 22.3301C172.902 22.6113 173.008 22.8457 173.219 23.0332C173.434 23.2207 173.746 23.3145 174.156 23.3145C174.562 23.3145 174.924 23.2266 175.24 23.0508C175.557 22.8711 175.789 22.627 175.938 22.3184C176.051 22.0801 176.107 21.7285 176.107 21.2637V20.877ZM178.82 24V15.4102H179.875V20.3086L182.371 17.7773H183.736L181.357 20.0859L183.977 24H182.676L180.619 20.8184L179.875 21.5332V24H178.82ZM184.82 16.623V15.4102H185.875V16.623H184.82ZM184.82 24V17.7773H185.875V24H184.82ZM187.486 24V17.7773H188.436V18.6621C188.893 17.9785 189.553 17.6367 190.416 17.6367C190.791 17.6367 191.135 17.7051 191.447 17.8418C191.764 17.9746 192 18.1504 192.156 18.3691C192.312 18.5879 192.422 18.8477 192.484 19.1484C192.523 19.3438 192.543 19.6855 192.543 20.1738V24H191.488V20.2148C191.488 19.7852 191.447 19.4648 191.365 19.2539C191.283 19.0391 191.137 18.8691 190.926 18.7441C190.719 18.6152 190.475 18.5508 190.193 18.5508C189.744 18.5508 189.355 18.6934 189.027 18.9785C188.703 19.2637 188.541 19.8047 188.541 20.6016V24H187.486ZM193.973 24.5156L194.998 24.668C195.041 24.9844 195.16 25.2148 195.355 25.3594C195.617 25.5547 195.975 25.6523 196.428 25.6523C196.916 25.6523 197.293 25.5547 197.559 25.3594C197.824 25.1641 198.004 24.8906 198.098 24.5391C198.152 24.3242 198.178 23.873 198.174 23.1855C197.713 23.7285 197.139 24 196.451 24C195.596 24 194.934 23.6914 194.465 23.0742C193.996 22.457 193.762 21.7168 193.762 20.8535C193.762 20.2598 193.869 19.7129 194.084 19.2129C194.299 18.709 194.609 18.3203 195.016 18.0469C195.426 17.7734 195.906 17.6367 196.457 17.6367C197.191 17.6367 197.797 17.9336 198.273 18.5273V17.7773H199.246V23.1562C199.246 24.125 199.146 24.8105 198.947 25.2129C198.752 25.6191 198.439 25.9395 198.01 26.1738C197.584 26.4082 197.059 26.5254 196.434 26.5254C195.691 26.5254 195.092 26.3574 194.635 26.0215C194.178 25.6895 193.957 25.1875 193.973 24.5156ZM194.846 20.7773C194.846 21.5938 195.008 22.1895 195.332 22.5645C195.656 22.9395 196.062 23.127 196.551 23.127C197.035 23.127 197.441 22.9414 197.77 22.5703C198.098 22.1953 198.262 21.6094 198.262 20.8125C198.262 20.0508 198.092 19.4766 197.752 19.0898C197.416 18.7031 197.01 18.5098 196.533 18.5098C196.064 18.5098 195.666 18.7012 195.338 19.084C195.01 19.4629 194.846 20.0273 194.846 20.7773ZM204.273 24V15.4102H207.496C208.152 15.4102 208.678 15.498 209.072 15.6738C209.471 15.8457 209.781 16.1133 210.004 16.4766C210.23 16.8359 210.344 17.2129 210.344 17.6074C210.344 17.9746 210.244 18.3203 210.045 18.6445C209.846 18.9688 209.545 19.2305 209.143 19.4297C209.662 19.582 210.061 19.8418 210.338 20.209C210.619 20.5762 210.76 21.0098 210.76 21.5098C210.76 21.9121 210.674 22.2871 210.502 22.6348C210.334 22.9785 210.125 23.2441 209.875 23.4316C209.625 23.6191 209.311 23.7617 208.932 23.8594C208.557 23.9531 208.096 24 207.549 24H204.273ZM205.41 19.0195H207.268C207.771 19.0195 208.133 18.9863 208.352 18.9199C208.641 18.834 208.857 18.6914 209.002 18.4922C209.15 18.293 209.225 18.043 209.225 17.7422C209.225 17.457 209.156 17.207 209.02 16.9922C208.883 16.7734 208.688 16.625 208.434 16.5469C208.18 16.4648 207.744 16.4238 207.127 16.4238H205.41V19.0195ZM205.41 22.9863H207.549C207.916 22.9863 208.174 22.9727 208.322 22.9453C208.584 22.8984 208.803 22.8203 208.979 22.7109C209.154 22.6016 209.299 22.4434 209.412 22.2363C209.525 22.0254 209.582 21.7832 209.582 21.5098C209.582 21.1895 209.5 20.9121 209.336 20.6777C209.172 20.4395 208.943 20.2734 208.65 20.1797C208.361 20.082 207.943 20.0332 207.396 20.0332H205.41V22.9863ZM211.797 20.8887C211.797 19.7363 212.117 18.8828 212.758 18.3281C213.293 17.8672 213.945 17.6367 214.715 17.6367C215.57 17.6367 216.27 17.918 216.812 18.4805C217.355 19.0391 217.627 19.8125 217.627 20.8008C217.627 21.6016 217.506 22.2324 217.264 22.6934C217.025 23.1504 216.676 23.5059 216.215 23.7598C215.758 24.0137 215.258 24.1406 214.715 24.1406C213.844 24.1406 213.139 23.8613 212.6 23.3027C212.064 22.7441 211.797 21.9395 211.797 20.8887ZM212.881 20.8887C212.881 21.6855 213.055 22.2832 213.402 22.6816C213.75 23.0762 214.188 23.2734 214.715 23.2734C215.238 23.2734 215.674 23.0742 216.021 22.6758C216.369 22.2773 216.543 21.6699 216.543 20.8535C216.543 20.084 216.367 19.502 216.016 19.1074C215.668 18.709 215.234 18.5098 214.715 18.5098C214.188 18.5098 213.75 18.707 213.402 19.1016C213.055 19.4961 212.881 20.0918 212.881 20.8887ZM218.869 24V17.7773H219.818V18.6621C220.275 17.9785 220.936 17.6367 221.799 17.6367C222.174 17.6367 222.518 17.7051 222.83 17.8418C223.146 17.9746 223.383 18.1504 223.539 18.3691C223.695 18.5879 223.805 18.8477 223.867 19.1484C223.906 19.3438 223.926 19.6855 223.926 20.1738V24H222.871V20.2148C222.871 19.7852 222.83 19.4648 222.748 19.2539C222.666 19.0391 222.52 18.8691 222.309 18.7441C222.102 18.6152 221.857 18.5508 221.576 18.5508C221.127 18.5508 220.738 18.6934 220.41 18.9785C220.086 19.2637 219.924 19.8047 219.924 20.6016V24H218.869ZM229.627 24V23.0859C229.143 23.7891 228.484 24.1406 227.652 24.1406C227.285 24.1406 226.941 24.0703 226.621 23.9297C226.305 23.7891 226.068 23.6133 225.912 23.4023C225.76 23.1875 225.652 22.9258 225.59 22.6172C225.547 22.4102 225.525 22.082 225.525 21.6328V17.7773H226.58V21.2285C226.58 21.7793 226.602 22.1504 226.645 22.3418C226.711 22.6191 226.852 22.8379 227.066 22.998C227.281 23.1543 227.547 23.2324 227.863 23.2324C228.18 23.2324 228.477 23.1523 228.754 22.9922C229.031 22.8281 229.227 22.6074 229.34 22.3301C229.457 22.0488 229.516 21.6426 229.516 21.1113V17.7773H230.57V24H229.627ZM231.807 22.1426L232.85 21.9785C232.908 22.3965 233.07 22.7168 233.336 22.9395C233.605 23.1621 233.98 23.2734 234.461 23.2734C234.945 23.2734 235.305 23.1758 235.539 22.9805C235.773 22.7812 235.891 22.5488 235.891 22.2832C235.891 22.0449 235.787 21.8574 235.58 21.7207C235.436 21.627 235.076 21.5078 234.502 21.3633C233.729 21.168 233.191 21 232.891 20.8594C232.594 20.7148 232.367 20.5176 232.211 20.2676C232.059 20.0137 231.982 19.7344 231.982 19.4297C231.982 19.1523 232.045 18.8965 232.17 18.6621C232.299 18.4238 232.473 18.2266 232.691 18.0703C232.855 17.9492 233.078 17.8477 233.359 17.7656C233.645 17.6797 233.949 17.6367 234.273 17.6367C234.762 17.6367 235.189 17.707 235.557 17.8477C235.928 17.9883 236.201 18.1797 236.377 18.4219C236.553 18.6602 236.674 18.9805 236.74 19.3828L235.709 19.5234C235.662 19.2031 235.525 18.9531 235.299 18.7734C235.076 18.5938 234.76 18.5039 234.35 18.5039C233.865 18.5039 233.52 18.584 233.312 18.7441C233.105 18.9043 233.002 19.0918 233.002 19.3066C233.002 19.4434 233.045 19.5664 233.131 19.6758C233.217 19.7891 233.352 19.8828 233.535 19.957C233.641 19.9961 233.951 20.0859 234.467 20.2266C235.213 20.4258 235.732 20.5898 236.025 20.7188C236.322 20.8438 236.555 21.0273 236.723 21.2695C236.891 21.5117 236.975 21.8125 236.975 22.1719C236.975 22.5234 236.871 22.8555 236.664 23.168C236.461 23.4766 236.166 23.7168 235.779 23.8887C235.393 24.0566 234.955 24.1406 234.467 24.1406C233.658 24.1406 233.041 23.9727 232.615 23.6367C232.193 23.3008 231.924 22.8027 231.807 22.1426Z" fill="black"/>
</svg>
