<svg width="207" height="101" viewBox="0 0 207 101" fill="none" xmlns="http://www.w3.org/2000/svg">
<path d="M189 6H13C6.37258 6 1 11.3726 1 18V88C1 94.6274 6.37258 100 13 100H189C195.627 100 201 94.6274 201 88V18C201 11.3726 195.627 6 189 6Z" fill="#F68B38" stroke="#1D1D1B" stroke-miterlimit="10"/>
<path d="M194 1H18C11.3726 1 6 6.37258 6 13V83C6 89.6274 11.3726 95 18 95H194C200.627 95 206 89.6274 206 83V13C206 6.37258 200.627 1 194 1Z" fill="white" stroke="#1D1D1B" stroke-miterlimit="10"/>
<path d="M26.6289 31.7803L27.8799 31.6709C27.9391 32.1722 28.0758 32.5846 28.29 32.9082C28.5088 33.2272 28.846 33.487 29.3018 33.6875C29.7575 33.8835 30.2702 33.9814 30.8398 33.9814C31.3457 33.9814 31.7923 33.9062 32.1797 33.7559C32.5671 33.6055 32.8542 33.4004 33.041 33.1406C33.2324 32.8763 33.3281 32.5892 33.3281 32.2793C33.3281 31.9648 33.237 31.6914 33.0547 31.459C32.8724 31.222 32.5716 31.0238 32.1523 30.8643C31.8835 30.7594 31.2887 30.5977 30.3682 30.3789C29.4476 30.1556 28.8027 29.946 28.4336 29.75C27.9551 29.4993 27.5973 29.1895 27.3604 28.8203C27.1279 28.4466 27.0117 28.0296 27.0117 27.5693C27.0117 27.0635 27.1553 26.5918 27.4424 26.1543C27.7295 25.7122 28.1488 25.3773 28.7002 25.1494C29.2516 24.9215 29.8646 24.8076 30.5391 24.8076C31.2819 24.8076 31.9359 24.9284 32.501 25.1699C33.0706 25.4069 33.5081 25.7578 33.8135 26.2227C34.1188 26.6875 34.2829 27.2139 34.3057 27.8018L33.0342 27.8975C32.9658 27.264 32.7334 26.7855 32.3369 26.4619C31.945 26.1383 31.3639 25.9766 30.5938 25.9766C29.7917 25.9766 29.2061 26.1247 28.8369 26.4209C28.4723 26.7126 28.29 27.0658 28.29 27.4805C28.29 27.8405 28.4199 28.1367 28.6797 28.3691C28.9349 28.6016 29.6003 28.8408 30.6758 29.0869C31.7559 29.3285 32.4964 29.5404 32.8975 29.7227C33.4808 29.9915 33.9115 30.3333 34.1895 30.748C34.4674 31.1582 34.6064 31.6322 34.6064 32.1699C34.6064 32.7031 34.4538 33.2067 34.1484 33.6807C33.8431 34.1501 33.4033 34.5169 32.8291 34.7812C32.2594 35.041 31.6169 35.1709 30.9014 35.1709C29.9945 35.1709 29.2334 35.0387 28.6182 34.7744C28.0075 34.5101 27.5267 34.1136 27.1758 33.585C26.8294 33.0518 26.6471 32.4502 26.6289 31.7803ZM38.9473 33.8994L39.125 34.9863C38.7786 35.0592 38.4688 35.0957 38.1953 35.0957C37.7487 35.0957 37.4023 35.0251 37.1562 34.8838C36.9102 34.7425 36.737 34.5579 36.6367 34.3301C36.5365 34.0977 36.4863 33.6123 36.4863 32.874V28.6973H35.584V27.7402H36.4863V25.9424L37.71 25.2041V27.7402H38.9473V28.6973H37.71V32.9424C37.71 33.2933 37.7305 33.5189 37.7715 33.6191C37.8171 33.7194 37.8877 33.7992 37.9834 33.8584C38.0837 33.9176 38.2249 33.9473 38.4072 33.9473C38.5439 33.9473 38.724 33.9313 38.9473 33.8994ZM44.8945 34.1045C44.4388 34.4919 43.999 34.7653 43.5752 34.9248C43.1559 35.0843 42.7048 35.1641 42.2217 35.1641C41.4242 35.1641 40.8112 34.9704 40.3828 34.583C39.9544 34.1911 39.7402 33.6921 39.7402 33.0859C39.7402 32.7305 39.82 32.4069 39.9795 32.1152C40.1436 31.819 40.3555 31.582 40.6152 31.4043C40.8796 31.2266 41.1758 31.0921 41.5039 31.001C41.7454 30.9372 42.11 30.8757 42.5977 30.8164C43.5911 30.6979 44.3226 30.5566 44.792 30.3926C44.7965 30.224 44.7988 30.1169 44.7988 30.0713C44.7988 29.57 44.6826 29.2168 44.4502 29.0117C44.1357 28.7337 43.6686 28.5947 43.0488 28.5947C42.4701 28.5947 42.0417 28.6973 41.7637 28.9023C41.4902 29.1029 41.2874 29.4606 41.1553 29.9756L39.9521 29.8115C40.0615 29.2965 40.2415 28.8818 40.4922 28.5674C40.7428 28.2484 41.1051 28.0046 41.5791 27.8359C42.0531 27.6628 42.6022 27.5762 43.2266 27.5762C43.8464 27.5762 44.3499 27.6491 44.7373 27.7949C45.1247 27.9408 45.4095 28.1253 45.5918 28.3486C45.7741 28.5674 45.9017 28.8454 45.9746 29.1826C46.0156 29.3923 46.0361 29.7705 46.0361 30.3174V31.958C46.0361 33.1019 46.0612 33.8265 46.1113 34.1318C46.166 34.4326 46.2708 34.722 46.4258 35H45.1406C45.013 34.7448 44.931 34.4463 44.8945 34.1045ZM44.792 31.3564C44.3454 31.5387 43.6755 31.6937 42.7822 31.8213C42.2764 31.8942 41.9186 31.9762 41.709 32.0674C41.4993 32.1585 41.3376 32.293 41.2236 32.4707C41.1097 32.6439 41.0527 32.8376 41.0527 33.0518C41.0527 33.3799 41.1758 33.6533 41.4219 33.8721C41.6725 34.0908 42.0371 34.2002 42.5156 34.2002C42.9896 34.2002 43.4111 34.0977 43.7803 33.8926C44.1494 33.6829 44.4206 33.3981 44.5938 33.0381C44.7259 32.7601 44.792 32.3499 44.792 31.8076V31.3564ZM47.957 35V24.9785H49.1875V30.6934L52.0996 27.7402H53.6924L50.917 30.4336L53.9727 35H52.4551L50.0557 31.2881L49.1875 32.1221V35H47.957ZM59.9199 32.6621L61.1914 32.8193C60.9909 33.5622 60.6195 34.1387 60.0771 34.5488C59.5348 34.959 58.8421 35.1641 57.999 35.1641C56.9372 35.1641 56.0941 34.8382 55.4697 34.1865C54.8499 33.5303 54.54 32.612 54.54 31.4316C54.54 30.2103 54.8545 29.2624 55.4834 28.5879C56.1123 27.9134 56.9281 27.5762 57.9307 27.5762C58.9014 27.5762 59.6943 27.9066 60.3096 28.5674C60.9248 29.2282 61.2324 30.1579 61.2324 31.3564C61.2324 31.4294 61.2301 31.5387 61.2256 31.6846H55.8115C55.8571 32.4821 56.0827 33.0928 56.4883 33.5166C56.8939 33.9404 57.3997 34.1523 58.0059 34.1523C58.457 34.1523 58.8421 34.0339 59.1611 33.7969C59.4801 33.5599 59.7331 33.1816 59.9199 32.6621ZM55.8799 30.6729H59.9336C59.8789 30.0622 59.724 29.6042 59.4688 29.2988C59.0768 28.8249 58.5687 28.5879 57.9443 28.5879C57.3792 28.5879 56.903 28.777 56.5156 29.1553C56.1328 29.5335 55.9209 30.0394 55.8799 30.6729ZM66.6396 35V27.7402H67.7471V28.7725C68.2803 27.9749 69.0505 27.5762 70.0576 27.5762C70.4951 27.5762 70.8962 27.6559 71.2607 27.8154C71.6299 27.9704 71.9056 28.1755 72.0879 28.4307C72.2702 28.6859 72.3978 28.9889 72.4707 29.3398C72.5163 29.5677 72.5391 29.9665 72.5391 30.5361V35H71.3086V30.584C71.3086 30.0827 71.2607 29.709 71.165 29.4629C71.0693 29.2122 70.8984 29.014 70.6523 28.8682C70.4108 28.7178 70.126 28.6426 69.7979 28.6426C69.2738 28.6426 68.8203 28.8089 68.4375 29.1416C68.0592 29.4743 67.8701 30.1055 67.8701 31.0352V35H66.6396ZM73.9746 31.3701C73.9746 30.0257 74.3483 29.0299 75.0957 28.3828C75.7201 27.8451 76.4811 27.5762 77.3789 27.5762C78.377 27.5762 79.1927 27.9043 79.8262 28.5605C80.4596 29.2122 80.7764 30.1146 80.7764 31.2676C80.7764 32.2018 80.6351 32.9378 80.3525 33.4756C80.0745 34.0088 79.6667 34.4235 79.1289 34.7197C78.5957 35.016 78.0124 35.1641 77.3789 35.1641C76.3626 35.1641 75.54 34.8382 74.9111 34.1865C74.2868 33.5348 73.9746 32.596 73.9746 31.3701ZM75.2393 31.3701C75.2393 32.2998 75.4421 32.9971 75.8477 33.4619C76.2533 33.9222 76.7637 34.1523 77.3789 34.1523C77.9896 34.1523 78.4977 33.9199 78.9033 33.4551C79.3089 32.9902 79.5117 32.2816 79.5117 31.3291C79.5117 30.4313 79.3066 29.7523 78.8965 29.292C78.4909 28.8271 77.985 28.5947 77.3789 28.5947C76.7637 28.5947 76.2533 28.8249 75.8477 29.2852C75.4421 29.7454 75.2393 30.4404 75.2393 31.3701ZM83.5654 35L81.3438 27.7402H82.6152L83.7705 31.9307L84.2012 33.4893C84.2194 33.4118 84.3447 32.9128 84.5771 31.9922L85.7324 27.7402H86.9971L88.084 31.9512L88.4463 33.3389L88.8633 31.9375L90.1074 27.7402H91.3037L89.0342 35H87.7559L86.6006 30.6523L86.3203 29.415L84.8506 35H83.5654ZM100.977 34.1045C100.521 34.4919 100.081 34.7653 99.6572 34.9248C99.238 35.0843 98.7868 35.1641 98.3037 35.1641C97.5062 35.1641 96.8932 34.9704 96.4648 34.583C96.0365 34.1911 95.8223 33.6921 95.8223 33.0859C95.8223 32.7305 95.902 32.4069 96.0615 32.1152C96.2256 31.819 96.4375 31.582 96.6973 31.4043C96.9616 31.2266 97.2578 31.0921 97.5859 31.001C97.8275 30.9372 98.1921 30.8757 98.6797 30.8164C99.6732 30.6979 100.405 30.5566 100.874 30.3926C100.879 30.224 100.881 30.1169 100.881 30.0713C100.881 29.57 100.765 29.2168 100.532 29.0117C100.218 28.7337 99.7507 28.5947 99.1309 28.5947C98.5521 28.5947 98.1237 28.6973 97.8457 28.9023C97.5723 29.1029 97.3695 29.4606 97.2373 29.9756L96.0342 29.8115C96.1436 29.2965 96.3236 28.8818 96.5742 28.5674C96.8249 28.2484 97.1872 28.0046 97.6611 27.8359C98.1351 27.6628 98.6842 27.5762 99.3086 27.5762C99.9284 27.5762 100.432 27.6491 100.819 27.7949C101.207 27.9408 101.492 28.1253 101.674 28.3486C101.856 28.5674 101.984 28.8454 102.057 29.1826C102.098 29.3923 102.118 29.7705 102.118 30.3174V31.958C102.118 33.1019 102.143 33.8265 102.193 34.1318C102.248 34.4326 102.353 34.722 102.508 35H101.223C101.095 34.7448 101.013 34.4463 100.977 34.1045ZM100.874 31.3564C100.427 31.5387 99.7575 31.6937 98.8643 31.8213C98.3584 31.8942 98.0007 31.9762 97.791 32.0674C97.5814 32.1585 97.4196 32.293 97.3057 32.4707C97.1917 32.6439 97.1348 32.8376 97.1348 33.0518C97.1348 33.3799 97.2578 33.6533 97.5039 33.8721C97.7546 34.0908 98.1191 34.2002 98.5977 34.2002C99.0716 34.2002 99.4932 34.0977 99.8623 33.8926C100.231 33.6829 100.503 33.3981 100.676 33.0381C100.808 32.7601 100.874 32.3499 100.874 31.8076V31.3564ZM104.032 35V27.7402H105.14V28.7725C105.673 27.9749 106.443 27.5762 107.45 27.5762C107.888 27.5762 108.289 27.6559 108.653 27.8154C109.022 27.9704 109.298 28.1755 109.48 28.4307C109.663 28.6859 109.79 28.9889 109.863 29.3398C109.909 29.5677 109.932 29.9665 109.932 30.5361V35H108.701V30.584C108.701 30.0827 108.653 29.709 108.558 29.4629C108.462 29.2122 108.291 29.014 108.045 28.8682C107.803 28.7178 107.519 28.6426 107.19 28.6426C106.666 28.6426 106.213 28.8089 105.83 29.1416C105.452 29.4743 105.263 30.1055 105.263 31.0352V35H104.032ZM116.535 35V34.084C116.075 34.804 115.398 35.1641 114.505 35.1641C113.926 35.1641 113.393 35.0046 112.905 34.6855C112.422 34.3665 112.046 33.9222 111.777 33.3525C111.513 32.7783 111.381 32.1198 111.381 31.377C111.381 30.6523 111.502 29.9961 111.743 29.4082C111.985 28.8158 112.347 28.3623 112.83 28.0479C113.313 27.7334 113.853 27.5762 114.45 27.5762C114.888 27.5762 115.277 27.6696 115.619 27.8564C115.961 28.0387 116.239 28.278 116.453 28.5742V24.9785H117.677V35H116.535ZM112.646 31.377C112.646 32.3066 112.841 33.0016 113.233 33.4619C113.625 33.9222 114.088 34.1523 114.621 34.1523C115.159 34.1523 115.615 33.9336 115.988 33.4961C116.367 33.054 116.556 32.3818 116.556 31.4795C116.556 30.486 116.364 29.7568 115.981 29.292C115.599 28.8271 115.127 28.5947 114.566 28.5947C114.02 28.5947 113.562 28.818 113.192 29.2646C112.828 29.7113 112.646 30.4154 112.646 31.377ZM126.201 33.8994L126.379 34.9863C126.033 35.0592 125.723 35.0957 125.449 35.0957C125.003 35.0957 124.656 35.0251 124.41 34.8838C124.164 34.7425 123.991 34.5579 123.891 34.3301C123.79 34.0977 123.74 33.6123 123.74 32.874V28.6973H122.838V27.7402H123.74V25.9424L124.964 25.2041V27.7402H126.201V28.6973H124.964V32.9424C124.964 33.2933 124.984 33.5189 125.025 33.6191C125.071 33.7194 125.142 33.7992 125.237 33.8584C125.338 33.9176 125.479 33.9473 125.661 33.9473C125.798 33.9473 125.978 33.9313 126.201 33.8994ZM127.397 35V27.7402H128.505V28.8408C128.787 28.3258 129.047 27.9863 129.284 27.8223C129.526 27.6582 129.79 27.5762 130.077 27.5762C130.492 27.5762 130.913 27.7083 131.342 27.9727L130.918 29.1143C130.617 28.9365 130.316 28.8477 130.016 28.8477C129.747 28.8477 129.505 28.9297 129.291 29.0938C129.077 29.2533 128.924 29.4766 128.833 29.7637C128.696 30.2012 128.628 30.6797 128.628 31.1992V35H127.397ZM137.043 32.6621L138.314 32.8193C138.114 33.5622 137.743 34.1387 137.2 34.5488C136.658 34.959 135.965 35.1641 135.122 35.1641C134.06 35.1641 133.217 34.8382 132.593 34.1865C131.973 33.5303 131.663 32.612 131.663 31.4316C131.663 30.2103 131.978 29.2624 132.606 28.5879C133.235 27.9134 134.051 27.5762 135.054 27.5762C136.024 27.5762 136.817 27.9066 137.433 28.5674C138.048 29.2282 138.355 30.1579 138.355 31.3564C138.355 31.4294 138.353 31.5387 138.349 31.6846H132.935C132.98 32.4821 133.206 33.0928 133.611 33.5166C134.017 33.9404 134.523 34.1523 135.129 34.1523C135.58 34.1523 135.965 34.0339 136.284 33.7969C136.603 33.5599 136.856 33.1816 137.043 32.6621ZM133.003 30.6729H137.057C137.002 30.0622 136.847 29.6042 136.592 29.2988C136.2 28.8249 135.692 28.5879 135.067 28.5879C134.502 28.5879 134.026 28.777 133.639 29.1553C133.256 29.5335 133.044 30.0394 133.003 30.6729ZM144.604 34.1045C144.148 34.4919 143.708 34.7653 143.284 34.9248C142.865 35.0843 142.414 35.1641 141.931 35.1641C141.133 35.1641 140.52 34.9704 140.092 34.583C139.663 34.1911 139.449 33.6921 139.449 33.0859C139.449 32.7305 139.529 32.4069 139.688 32.1152C139.853 31.819 140.064 31.582 140.324 31.4043C140.589 31.2266 140.885 31.0921 141.213 31.001C141.454 30.9372 141.819 30.8757 142.307 30.8164C143.3 30.6979 144.032 30.5566 144.501 30.3926C144.506 30.224 144.508 30.1169 144.508 30.0713C144.508 29.57 144.392 29.2168 144.159 29.0117C143.845 28.7337 143.378 28.5947 142.758 28.5947C142.179 28.5947 141.751 28.6973 141.473 28.9023C141.199 29.1029 140.996 29.4606 140.864 29.9756L139.661 29.8115C139.771 29.2965 139.951 28.8818 140.201 28.5674C140.452 28.2484 140.814 28.0046 141.288 27.8359C141.762 27.6628 142.311 27.5762 142.936 27.5762C143.555 27.5762 144.059 27.6491 144.446 27.7949C144.834 27.9408 145.118 28.1253 145.301 28.3486C145.483 28.5674 145.611 28.8454 145.684 29.1826C145.725 29.3923 145.745 29.7705 145.745 30.3174V31.958C145.745 33.1019 145.77 33.8265 145.82 34.1318C145.875 34.4326 145.98 34.722 146.135 35H144.85C144.722 34.7448 144.64 34.4463 144.604 34.1045ZM144.501 31.3564C144.054 31.5387 143.384 31.6937 142.491 31.8213C141.985 31.8942 141.628 31.9762 141.418 32.0674C141.208 32.1585 141.047 32.293 140.933 32.4707C140.819 32.6439 140.762 32.8376 140.762 33.0518C140.762 33.3799 140.885 33.6533 141.131 33.8721C141.382 34.0908 141.746 34.2002 142.225 34.2002C142.699 34.2002 143.12 34.0977 143.489 33.8926C143.858 33.6829 144.13 33.3981 144.303 33.0381C144.435 32.7601 144.501 32.3499 144.501 31.8076V31.3564ZM150.346 33.8994L150.523 34.9863C150.177 35.0592 149.867 35.0957 149.594 35.0957C149.147 35.0957 148.801 35.0251 148.555 34.8838C148.309 34.7425 148.135 34.5579 148.035 34.3301C147.935 34.0977 147.885 33.6123 147.885 32.874V28.6973H146.982V27.7402H147.885V25.9424L149.108 25.2041V27.7402H150.346V28.6973H149.108V32.9424C149.108 33.2933 149.129 33.5189 149.17 33.6191C149.215 33.7194 149.286 33.7992 149.382 33.8584C149.482 33.9176 149.623 33.9473 149.806 33.9473C149.942 33.9473 150.122 33.9313 150.346 33.8994ZM26.8682 55.7959L26.7314 54.6406C27.0003 54.7135 27.235 54.75 27.4355 54.75C27.709 54.75 27.9277 54.7044 28.0918 54.6133C28.2559 54.5221 28.3903 54.3945 28.4951 54.2305C28.5726 54.1074 28.6979 53.8021 28.8711 53.3145C28.8939 53.2461 28.9303 53.1458 28.9805 53.0137L26.2256 45.7402H27.5518L29.0625 49.9443C29.2585 50.4775 29.4339 51.0381 29.5889 51.626C29.7301 51.0609 29.8988 50.5094 30.0947 49.9717L31.6465 45.7402H32.877L30.1152 53.123C29.819 53.9206 29.5889 54.4697 29.4248 54.7705C29.2061 55.1761 28.9554 55.4723 28.6729 55.6592C28.3903 55.8506 28.0531 55.9463 27.6611 55.9463C27.4242 55.9463 27.1598 55.8962 26.8682 55.7959ZM33.4648 49.3701C33.4648 48.0257 33.8385 47.0299 34.5859 46.3828C35.2103 45.8451 35.9714 45.5762 36.8691 45.5762C37.8672 45.5762 38.6829 45.9043 39.3164 46.5605C39.9499 47.2122 40.2666 48.1146 40.2666 49.2676C40.2666 50.2018 40.1253 50.9378 39.8428 51.4756C39.5648 52.0088 39.1569 52.4235 38.6191 52.7197C38.0859 53.016 37.5026 53.1641 36.8691 53.1641C35.8529 53.1641 35.0303 52.8382 34.4014 52.1865C33.777 51.5348 33.4648 50.596 33.4648 49.3701ZM34.7295 49.3701C34.7295 50.2998 34.9323 50.9971 35.3379 51.4619C35.7435 51.9222 36.2539 52.1523 36.8691 52.1523C37.4798 52.1523 37.988 51.9199 38.3936 51.4551C38.7992 50.9902 39.002 50.2816 39.002 49.3291C39.002 48.4313 38.7969 47.7523 38.3867 47.292C37.9811 46.8271 37.4753 46.5947 36.8691 46.5947C36.2539 46.5947 35.7435 46.8249 35.3379 47.2852C34.9323 47.7454 34.7295 48.4404 34.7295 49.3701ZM46.4736 53V51.9336C45.9085 52.7539 45.1406 53.1641 44.1699 53.1641C43.7415 53.1641 43.3405 53.082 42.9668 52.918C42.5977 52.7539 42.3219 52.5488 42.1396 52.3027C41.9619 52.0521 41.8366 51.7467 41.7637 51.3867C41.7135 51.1452 41.6885 50.7624 41.6885 50.2383V45.7402H42.9189V49.7666C42.9189 50.4092 42.944 50.8421 42.9941 51.0654C43.0716 51.389 43.2357 51.6442 43.4863 51.8311C43.737 52.0133 44.0469 52.1045 44.416 52.1045C44.7852 52.1045 45.1315 52.0111 45.4551 51.8242C45.7786 51.6328 46.0065 51.3753 46.1387 51.0518C46.2754 50.7236 46.3438 50.2497 46.3438 49.6299V45.7402H47.5742V53H46.4736ZM49.4951 53V45.7402H50.6025V46.8408C50.8851 46.3258 51.1449 45.9863 51.3818 45.8223C51.6234 45.6582 51.8877 45.5762 52.1748 45.5762C52.5895 45.5762 53.0111 45.7083 53.4395 45.9727L53.0156 47.1143C52.7148 46.9365 52.4141 46.8477 52.1133 46.8477C51.8444 46.8477 51.6029 46.9297 51.3887 47.0938C51.1745 47.2533 51.0218 47.4766 50.9307 47.7637C50.7939 48.2012 50.7256 48.6797 50.7256 49.1992V53H49.4951ZM53.6787 50.833L54.8955 50.6416C54.9639 51.1292 55.153 51.5029 55.4629 51.7627C55.7773 52.0225 56.2148 52.1523 56.7754 52.1523C57.3405 52.1523 57.7598 52.0384 58.0332 51.8105C58.3066 51.5781 58.4434 51.307 58.4434 50.9971C58.4434 50.7191 58.3226 50.5003 58.0811 50.3408C57.9124 50.2314 57.4932 50.0924 56.8232 49.9238C55.9209 49.696 55.2943 49.5 54.9434 49.3359C54.597 49.1673 54.3327 48.9372 54.1504 48.6455C53.9727 48.3493 53.8838 48.0234 53.8838 47.668C53.8838 47.3444 53.9567 47.0459 54.1025 46.7725C54.2529 46.4945 54.4557 46.2643 54.7109 46.082C54.9023 45.9408 55.1621 45.8223 55.4902 45.7266C55.8229 45.6263 56.1784 45.5762 56.5566 45.5762C57.1263 45.5762 57.6253 45.6582 58.0537 45.8223C58.4867 45.9863 58.8057 46.2096 59.0107 46.4922C59.2158 46.7702 59.3571 47.1439 59.4346 47.6133L58.2314 47.7773C58.1768 47.4036 58.0173 47.112 57.7529 46.9023C57.4932 46.6927 57.124 46.5879 56.6455 46.5879C56.0804 46.5879 55.6771 46.6813 55.4355 46.8682C55.194 47.055 55.0732 47.2738 55.0732 47.5244C55.0732 47.6839 55.1234 47.8275 55.2236 47.9551C55.3239 48.0872 55.4811 48.1966 55.6953 48.2832C55.8184 48.3288 56.1807 48.4336 56.7822 48.5977C57.6527 48.8301 58.2588 49.0215 58.6006 49.1719C58.9469 49.3177 59.2181 49.5319 59.4141 49.8145C59.61 50.097 59.708 50.4479 59.708 50.8672C59.708 51.2773 59.5872 51.6647 59.3457 52.0293C59.1087 52.3893 58.7646 52.6696 58.3135 52.8701C57.8623 53.0661 57.3519 53.1641 56.7822 53.1641C55.8389 53.1641 55.1188 52.9681 54.6221 52.5762C54.1299 52.1842 53.8154 51.6032 53.6787 50.833ZM66.1406 50.6621L67.4121 50.8193C67.2116 51.5622 66.8402 52.1387 66.2979 52.5488C65.7555 52.959 65.0628 53.1641 64.2197 53.1641C63.1579 53.1641 62.3148 52.8382 61.6904 52.1865C61.0706 51.5303 60.7607 50.612 60.7607 49.4316C60.7607 48.2103 61.0752 47.2624 61.7041 46.5879C62.333 45.9134 63.1488 45.5762 64.1514 45.5762C65.1221 45.5762 65.915 45.9066 66.5303 46.5674C67.1455 47.2282 67.4531 48.1579 67.4531 49.3564C67.4531 49.4294 67.4508 49.5387 67.4463 49.6846H62.0322C62.0778 50.4821 62.3034 51.0928 62.709 51.5166C63.1146 51.9404 63.6204 52.1523 64.2266 52.1523C64.6777 52.1523 65.0628 52.0339 65.3818 51.7969C65.7008 51.5599 65.9538 51.1816 66.1406 50.6621ZM62.1006 48.6729H66.1543C66.0996 48.0622 65.9447 47.6042 65.6895 47.2988C65.2975 46.8249 64.7894 46.5879 64.165 46.5879C63.5999 46.5879 63.1237 46.777 62.7363 47.1553C62.3535 47.5335 62.1416 48.0394 62.1006 48.6729ZM68.9365 53V42.9785H70.167V53H68.9365ZM72.375 53V46.6973H71.2881V45.7402H72.375V44.9678C72.375 44.4801 72.4183 44.1178 72.5049 43.8809C72.6234 43.5618 72.8307 43.3044 73.127 43.1084C73.4277 42.9079 73.847 42.8076 74.3848 42.8076C74.7311 42.8076 75.1139 42.8486 75.5332 42.9307L75.3486 44.0039C75.0934 43.9583 74.8519 43.9355 74.624 43.9355C74.2503 43.9355 73.986 44.0153 73.8311 44.1748C73.6761 44.3343 73.5986 44.6328 73.5986 45.0703V45.7402H75.0137V46.6973H73.5986V53H72.375ZM82.5605 51.8994L82.7383 52.9863C82.3919 53.0592 82.082 53.0957 81.8086 53.0957C81.362 53.0957 81.0156 53.0251 80.7695 52.8838C80.5234 52.7425 80.3503 52.5579 80.25 52.3301C80.1497 52.0977 80.0996 51.6123 80.0996 50.874V46.6973H79.1973V45.7402H80.0996V43.9424L81.3232 43.2041V45.7402H82.5605V46.6973H81.3232V50.9424C81.3232 51.2933 81.3438 51.5189 81.3848 51.6191C81.4303 51.7194 81.501 51.7992 81.5967 51.8584C81.6969 51.9176 81.8382 51.9473 82.0205 51.9473C82.1572 51.9473 82.3372 51.9313 82.5605 51.8994ZM83.3125 49.3701C83.3125 48.0257 83.6862 47.0299 84.4336 46.3828C85.0579 45.8451 85.819 45.5762 86.7168 45.5762C87.7148 45.5762 88.5306 45.9043 89.1641 46.5605C89.7975 47.2122 90.1143 48.1146 90.1143 49.2676C90.1143 50.2018 89.973 50.9378 89.6904 51.4756C89.4124 52.0088 89.0046 52.4235 88.4668 52.7197C87.9336 53.016 87.3503 53.1641 86.7168 53.1641C85.7005 53.1641 84.8779 52.8382 84.249 52.1865C83.6247 51.5348 83.3125 50.596 83.3125 49.3701ZM84.5771 49.3701C84.5771 50.2998 84.7799 50.9971 85.1855 51.4619C85.5911 51.9222 86.1016 52.1523 86.7168 52.1523C87.3275 52.1523 87.8356 51.9199 88.2412 51.4551C88.6468 50.9902 88.8496 50.2816 88.8496 49.3291C88.8496 48.4313 88.6445 47.7523 88.2344 47.292C87.8288 46.8271 87.3229 46.5947 86.7168 46.5947C86.1016 46.5947 85.5911 46.8249 85.1855 47.2852C84.7799 47.7454 84.5771 48.4404 84.5771 49.3701ZM94.9678 50.833L96.1846 50.6416C96.2529 51.1292 96.4421 51.5029 96.752 51.7627C97.0664 52.0225 97.5039 52.1523 98.0645 52.1523C98.6296 52.1523 99.0488 52.0384 99.3223 51.8105C99.5957 51.5781 99.7324 51.307 99.7324 50.9971C99.7324 50.7191 99.6117 50.5003 99.3701 50.3408C99.2015 50.2314 98.7822 50.0924 98.1123 49.9238C97.21 49.696 96.5833 49.5 96.2324 49.3359C95.8861 49.1673 95.6217 48.9372 95.4395 48.6455C95.2617 48.3493 95.1729 48.0234 95.1729 47.668C95.1729 47.3444 95.2458 47.0459 95.3916 46.7725C95.542 46.4945 95.7448 46.2643 96 46.082C96.1914 45.9408 96.4512 45.8223 96.7793 45.7266C97.112 45.6263 97.4674 45.5762 97.8457 45.5762C98.4154 45.5762 98.9144 45.6582 99.3428 45.8223C99.7757 45.9863 100.095 46.2096 100.3 46.4922C100.505 46.7702 100.646 47.1439 100.724 47.6133L99.5205 47.7773C99.4658 47.4036 99.3063 47.112 99.042 46.9023C98.7822 46.6927 98.4131 46.5879 97.9346 46.5879C97.3695 46.5879 96.9661 46.6813 96.7246 46.8682C96.4831 47.055 96.3623 47.2738 96.3623 47.5244C96.3623 47.6839 96.4124 47.8275 96.5127 47.9551C96.613 48.0872 96.7702 48.1966 96.9844 48.2832C97.1074 48.3288 97.4697 48.4336 98.0713 48.5977C98.9417 48.8301 99.5479 49.0215 99.8896 49.1719C100.236 49.3177 100.507 49.5319 100.703 49.8145C100.899 50.097 100.997 50.4479 100.997 50.8672C100.997 51.2773 100.876 51.6647 100.635 52.0293C100.398 52.3893 100.054 52.6696 99.6025 52.8701C99.1514 53.0661 98.641 53.1641 98.0713 53.1641C97.1279 53.1641 96.4079 52.9681 95.9111 52.5762C95.4189 52.1842 95.1045 51.6032 94.9678 50.833ZM102.002 49.3701C102.002 48.0257 102.376 47.0299 103.123 46.3828C103.747 45.8451 104.508 45.5762 105.406 45.5762C106.404 45.5762 107.22 45.9043 107.854 46.5605C108.487 47.2122 108.804 48.1146 108.804 49.2676C108.804 50.2018 108.662 50.9378 108.38 51.4756C108.102 52.0088 107.694 52.4235 107.156 52.7197C106.623 53.016 106.04 53.1641 105.406 53.1641C104.39 53.1641 103.567 52.8382 102.938 52.1865C102.314 51.5348 102.002 50.596 102.002 49.3701ZM103.267 49.3701C103.267 50.2998 103.469 50.9971 103.875 51.4619C104.281 51.9222 104.791 52.1523 105.406 52.1523C106.017 52.1523 106.525 51.9199 106.931 51.4551C107.336 50.9902 107.539 50.2816 107.539 49.3291C107.539 48.4313 107.334 47.7523 106.924 47.292C106.518 46.8271 106.012 46.5947 105.406 46.5947C104.791 46.5947 104.281 46.8249 103.875 47.2852C103.469 47.7454 103.267 48.4404 103.267 49.3701ZM110.253 53V45.7402H111.354V46.7588C111.581 46.4033 111.884 46.1185 112.263 45.9043C112.641 45.6855 113.072 45.5762 113.555 45.5762C114.092 45.5762 114.532 45.6878 114.874 45.9111C115.22 46.1344 115.464 46.4466 115.605 46.8477C116.18 46 116.927 45.5762 117.848 45.5762C118.568 45.5762 119.121 45.7767 119.509 46.1777C119.896 46.5742 120.09 47.1872 120.09 48.0166V53H118.866V48.4268C118.866 47.9346 118.825 47.5814 118.743 47.3672C118.666 47.1484 118.522 46.973 118.312 46.8408C118.103 46.7087 117.857 46.6426 117.574 46.6426C117.064 46.6426 116.64 46.8135 116.303 47.1553C115.965 47.4925 115.797 48.0348 115.797 48.7822V53H114.566V48.2832C114.566 47.7363 114.466 47.3262 114.266 47.0527C114.065 46.7793 113.737 46.6426 113.281 46.6426C112.935 46.6426 112.614 46.7337 112.317 46.916C112.026 47.0983 111.814 47.3649 111.682 47.7158C111.549 48.0667 111.483 48.5726 111.483 49.2334V53H110.253ZM126.885 50.6621L128.156 50.8193C127.956 51.5622 127.584 52.1387 127.042 52.5488C126.5 52.959 125.807 53.1641 124.964 53.1641C123.902 53.1641 123.059 52.8382 122.435 52.1865C121.815 51.5303 121.505 50.612 121.505 49.4316C121.505 48.2103 121.819 47.2624 122.448 46.5879C123.077 45.9134 123.893 45.5762 124.896 45.5762C125.866 45.5762 126.659 45.9066 127.274 46.5674C127.89 47.2282 128.197 48.1579 128.197 49.3564C128.197 49.4294 128.195 49.5387 128.19 49.6846H122.776C122.822 50.4821 123.048 51.0928 123.453 51.5166C123.859 51.9404 124.365 52.1523 124.971 52.1523C125.422 52.1523 125.807 52.0339 126.126 51.7969C126.445 51.5599 126.698 51.1816 126.885 50.6621ZM122.845 48.6729H126.898C126.844 48.0622 126.689 47.6042 126.434 47.2988C126.042 46.8249 125.534 46.5879 124.909 46.5879C124.344 46.5879 123.868 46.777 123.48 47.1553C123.098 47.5335 122.886 48.0394 122.845 48.6729ZM133.112 50.833L134.329 50.6416C134.397 51.1292 134.587 51.5029 134.896 51.7627C135.211 52.0225 135.648 52.1523 136.209 52.1523C136.774 52.1523 137.193 52.0384 137.467 51.8105C137.74 51.5781 137.877 51.307 137.877 50.9971C137.877 50.7191 137.756 50.5003 137.515 50.3408C137.346 50.2314 136.927 50.0924 136.257 49.9238C135.354 49.696 134.728 49.5 134.377 49.3359C134.031 49.1673 133.766 48.9372 133.584 48.6455C133.406 48.3493 133.317 48.0234 133.317 47.668C133.317 47.3444 133.39 47.0459 133.536 46.7725C133.687 46.4945 133.889 46.2643 134.145 46.082C134.336 45.9408 134.596 45.8223 134.924 45.7266C135.257 45.6263 135.612 45.5762 135.99 45.5762C136.56 45.5762 137.059 45.6582 137.487 45.8223C137.92 45.9863 138.239 46.2096 138.444 46.4922C138.649 46.7702 138.791 47.1439 138.868 47.6133L137.665 47.7773C137.61 47.4036 137.451 47.112 137.187 46.9023C136.927 46.6927 136.558 46.5879 136.079 46.5879C135.514 46.5879 135.111 46.6813 134.869 46.8682C134.628 47.055 134.507 47.2738 134.507 47.5244C134.507 47.6839 134.557 47.8275 134.657 47.9551C134.757 48.0872 134.915 48.1966 135.129 48.2832C135.252 48.3288 135.614 48.4336 136.216 48.5977C137.086 48.8301 137.692 49.0215 138.034 49.1719C138.381 49.3177 138.652 49.5319 138.848 49.8145C139.044 50.097 139.142 50.4479 139.142 50.8672C139.142 51.2773 139.021 51.6647 138.779 52.0293C138.542 52.3893 138.198 52.6696 137.747 52.8701C137.296 53.0661 136.785 53.1641 136.216 53.1641C135.272 53.1641 134.552 52.9681 134.056 52.5762C133.563 52.1842 133.249 51.6032 133.112 50.833ZM143.291 51.8994L143.469 52.9863C143.122 53.0592 142.812 53.0957 142.539 53.0957C142.092 53.0957 141.746 53.0251 141.5 52.8838C141.254 52.7425 141.081 52.5579 140.98 52.3301C140.88 52.0977 140.83 51.6123 140.83 50.874V46.6973H139.928V45.7402H140.83V43.9424L142.054 43.2041V45.7402H143.291V46.6973H142.054V50.9424C142.054 51.2933 142.074 51.5189 142.115 51.6191C142.161 51.7194 142.231 51.7992 142.327 51.8584C142.427 51.9176 142.569 51.9473 142.751 51.9473C142.888 51.9473 143.068 51.9313 143.291 51.8994ZM149.238 52.1045C148.783 52.4919 148.343 52.7653 147.919 52.9248C147.5 53.0843 147.049 53.1641 146.565 53.1641C145.768 53.1641 145.155 52.9704 144.727 52.583C144.298 52.1911 144.084 51.6921 144.084 51.0859C144.084 50.7305 144.164 50.4069 144.323 50.1152C144.487 49.819 144.699 49.582 144.959 49.4043C145.223 49.2266 145.52 49.0921 145.848 49.001C146.089 48.9372 146.454 48.8757 146.941 48.8164C147.935 48.6979 148.666 48.5566 149.136 48.3926C149.14 48.224 149.143 48.1169 149.143 48.0713C149.143 47.57 149.026 47.2168 148.794 47.0117C148.479 46.7337 148.012 46.5947 147.393 46.5947C146.814 46.5947 146.385 46.6973 146.107 46.9023C145.834 47.1029 145.631 47.4606 145.499 47.9756L144.296 47.8115C144.405 47.2965 144.585 46.8818 144.836 46.5674C145.087 46.2484 145.449 46.0046 145.923 45.8359C146.397 45.6628 146.946 45.5762 147.57 45.5762C148.19 45.5762 148.694 45.6491 149.081 45.7949C149.468 45.9408 149.753 46.1253 149.936 46.3486C150.118 46.5674 150.245 46.8454 150.318 47.1826C150.359 47.3923 150.38 47.7705 150.38 48.3174V49.958C150.38 51.1019 150.405 51.8265 150.455 52.1318C150.51 52.4326 150.615 52.722 150.77 53H149.484C149.357 52.7448 149.275 52.4463 149.238 52.1045ZM149.136 49.3564C148.689 49.5387 148.019 49.6937 147.126 49.8213C146.62 49.8942 146.262 49.9762 146.053 50.0674C145.843 50.1585 145.681 50.293 145.567 50.4707C145.453 50.6439 145.396 50.8376 145.396 51.0518C145.396 51.3799 145.52 51.6533 145.766 51.8721C146.016 52.0908 146.381 52.2002 146.859 52.2002C147.333 52.2002 147.755 52.0977 148.124 51.8926C148.493 51.6829 148.764 51.3981 148.938 51.0381C149.07 50.7601 149.136 50.3499 149.136 49.8076V49.3564ZM152.301 53V42.9785H153.531V48.6934L156.443 45.7402H158.036L155.261 48.4336L158.316 53H156.799L154.399 49.2881L153.531 50.1221V53H152.301ZM159.301 44.3936V42.9785H160.531V44.3936H159.301ZM159.301 53V45.7402H160.531V53H159.301ZM162.411 53V45.7402H163.519V46.7725C164.052 45.9749 164.822 45.5762 165.829 45.5762C166.267 45.5762 166.668 45.6559 167.032 45.8154C167.401 45.9704 167.677 46.1755 167.859 46.4307C168.042 46.6859 168.169 46.9889 168.242 47.3398C168.288 47.5677 168.311 47.9665 168.311 48.5361V53H167.08V48.584C167.08 48.0827 167.032 47.709 166.937 47.4629C166.841 47.2122 166.67 47.014 166.424 46.8682C166.182 46.7178 165.897 46.6426 165.569 46.6426C165.045 46.6426 164.592 46.8089 164.209 47.1416C163.831 47.4743 163.642 48.1055 163.642 49.0352V53H162.411ZM169.979 53.6016L171.175 53.7793C171.225 54.1484 171.364 54.4173 171.592 54.5859C171.897 54.8138 172.314 54.9277 172.843 54.9277C173.412 54.9277 173.852 54.8138 174.162 54.5859C174.472 54.3581 174.682 54.0391 174.791 53.6289C174.855 53.3783 174.884 52.8519 174.88 52.0498C174.342 52.6833 173.672 53 172.87 53C171.872 53 171.1 52.64 170.553 51.9199C170.006 51.1999 169.732 50.3363 169.732 49.3291C169.732 48.6364 169.858 47.9984 170.108 47.415C170.359 46.8271 170.721 46.3737 171.195 46.0547C171.674 45.7357 172.234 45.5762 172.877 45.5762C173.734 45.5762 174.44 45.9225 174.996 46.6152V45.7402H176.131V52.0156C176.131 53.1458 176.015 53.9456 175.782 54.415C175.554 54.889 175.19 55.2627 174.688 55.5361C174.192 55.8096 173.579 55.9463 172.85 55.9463C171.984 55.9463 171.284 55.7503 170.751 55.3584C170.218 54.971 169.96 54.3854 169.979 53.6016ZM170.997 49.2402C170.997 50.1927 171.186 50.8877 171.564 51.3252C171.943 51.7627 172.417 51.9814 172.986 51.9814C173.551 51.9814 174.025 51.765 174.408 51.332C174.791 50.8945 174.982 50.2109 174.982 49.2812C174.982 48.3926 174.784 47.7227 174.388 47.2715C173.996 46.8203 173.522 46.5947 172.966 46.5947C172.419 46.5947 171.954 46.818 171.571 47.2646C171.188 47.7067 170.997 48.3652 170.997 49.2402ZM28.0576 71H26.916V60.9785H28.1465V64.5537C28.666 63.902 29.3291 63.5762 30.1357 63.5762C30.5824 63.5762 31.0039 63.6673 31.4004 63.8496C31.8014 64.0273 32.1296 64.2803 32.3848 64.6084C32.6445 64.932 32.8473 65.3239 32.9932 65.7842C33.139 66.2445 33.2119 66.7367 33.2119 67.2607C33.2119 68.5049 32.9043 69.4665 32.2891 70.1455C31.6738 70.8245 30.9355 71.1641 30.0742 71.1641C29.2174 71.1641 28.5452 70.8063 28.0576 70.0908V71ZM28.0439 67.3154C28.0439 68.1859 28.1624 68.8148 28.3994 69.2021C28.7868 69.8356 29.3109 70.1523 29.9717 70.1523C30.5094 70.1523 30.9743 69.9199 31.3662 69.4551C31.7581 68.9857 31.9541 68.2884 31.9541 67.3633C31.9541 66.4154 31.765 65.7158 31.3867 65.2646C31.013 64.8135 30.5596 64.5879 30.0264 64.5879C29.4886 64.5879 29.0238 64.8226 28.6318 65.292C28.2399 65.7568 28.0439 66.4313 28.0439 67.3154ZM34.2578 67.3701C34.2578 66.0257 34.6315 65.0299 35.3789 64.3828C36.0033 63.8451 36.7643 63.5762 37.6621 63.5762C38.6602 63.5762 39.4759 63.9043 40.1094 64.5605C40.7428 65.2122 41.0596 66.1146 41.0596 67.2676C41.0596 68.2018 40.9183 68.9378 40.6357 69.4756C40.3577 70.0088 39.9499 70.4235 39.4121 70.7197C38.8789 71.016 38.2956 71.1641 37.6621 71.1641C36.6458 71.1641 35.8232 70.8382 35.1943 70.1865C34.57 69.5348 34.2578 68.596 34.2578 67.3701ZM35.5225 67.3701C35.5225 68.2998 35.7253 68.9971 36.1309 69.4619C36.5365 69.9222 37.0469 70.1523 37.6621 70.1523C38.2728 70.1523 38.7809 69.9199 39.1865 69.4551C39.5921 68.9902 39.7949 68.2816 39.7949 67.3291C39.7949 66.4313 39.5898 65.7523 39.1797 65.292C38.7741 64.8271 38.2682 64.5947 37.6621 64.5947C37.0469 64.5947 36.5365 64.8249 36.1309 65.2852C35.7253 65.7454 35.5225 66.4404 35.5225 67.3701ZM42.5088 71V63.7402H43.6162V64.7725C44.1494 63.9749 44.9196 63.5762 45.9268 63.5762C46.3643 63.5762 46.7653 63.6559 47.1299 63.8154C47.499 63.9704 47.7747 64.1755 47.957 64.4307C48.1393 64.6859 48.2669 64.9889 48.3398 65.3398C48.3854 65.5677 48.4082 65.9665 48.4082 66.5361V71H47.1777V66.584C47.1777 66.0827 47.1299 65.709 47.0342 65.4629C46.9385 65.2122 46.7676 65.014 46.5215 64.8682C46.2799 64.7178 45.9951 64.6426 45.667 64.6426C45.1429 64.6426 44.6895 64.8089 44.3066 65.1416C43.9284 65.4743 43.7393 66.1055 43.7393 67.0352V71H42.5088ZM55.0596 71V69.9336C54.4945 70.7539 53.7266 71.1641 52.7559 71.1641C52.3275 71.1641 51.9264 71.082 51.5527 70.918C51.1836 70.7539 50.9079 70.5488 50.7256 70.3027C50.5479 70.0521 50.4225 69.7467 50.3496 69.3867C50.2995 69.1452 50.2744 68.7624 50.2744 68.2383V63.7402H51.5049V67.7666C51.5049 68.4092 51.5299 68.8421 51.5801 69.0654C51.6576 69.389 51.8216 69.6442 52.0723 69.8311C52.3229 70.0133 52.6328 70.1045 53.002 70.1045C53.3711 70.1045 53.7174 70.0111 54.041 69.8242C54.3646 69.6328 54.5924 69.3753 54.7246 69.0518C54.8613 68.7236 54.9297 68.2497 54.9297 67.6299V63.7402H56.1602V71H55.0596ZM57.6025 68.833L58.8193 68.6416C58.8877 69.1292 59.0768 69.5029 59.3867 69.7627C59.7012 70.0225 60.1387 70.1523 60.6992 70.1523C61.2643 70.1523 61.6836 70.0384 61.957 69.8105C62.2305 69.5781 62.3672 69.307 62.3672 68.9971C62.3672 68.7191 62.2464 68.5003 62.0049 68.3408C61.8363 68.2314 61.417 68.0924 60.7471 67.9238C59.8447 67.696 59.2181 67.5 58.8672 67.3359C58.5208 67.1673 58.2565 66.9372 58.0742 66.6455C57.8965 66.3493 57.8076 66.0234 57.8076 65.668C57.8076 65.3444 57.8805 65.0459 58.0264 64.7725C58.1768 64.4945 58.3796 64.2643 58.6348 64.082C58.8262 63.9408 59.0859 63.8223 59.4141 63.7266C59.7467 63.6263 60.1022 63.5762 60.4805 63.5762C61.0501 63.5762 61.5492 63.6582 61.9775 63.8223C62.4105 63.9863 62.7295 64.2096 62.9346 64.4922C63.1396 64.7702 63.2809 65.1439 63.3584 65.6133L62.1553 65.7773C62.1006 65.4036 61.9411 65.112 61.6768 64.9023C61.417 64.6927 61.0479 64.5879 60.5693 64.5879C60.0042 64.5879 59.6009 64.6813 59.3594 64.8682C59.1178 65.055 58.9971 65.2738 58.9971 65.5244C58.9971 65.6839 59.0472 65.8275 59.1475 65.9551C59.2477 66.0872 59.4049 66.1966 59.6191 66.2832C59.7422 66.3288 60.1045 66.4336 60.7061 66.5977C61.5765 66.8301 62.1826 67.0215 62.5244 67.1719C62.8708 67.3177 63.1419 67.5319 63.3379 67.8145C63.5339 68.097 63.6318 68.4479 63.6318 68.8672C63.6318 69.2773 63.5111 69.6647 63.2695 70.0293C63.0326 70.3893 62.6885 70.6696 62.2373 70.8701C61.7861 71.0661 61.2757 71.1641 60.7061 71.1641C59.7627 71.1641 59.0426 70.9681 58.5459 70.5762C58.0537 70.1842 57.7393 69.6032 57.6025 68.833ZM65.751 68.5117L65.375 63.2002V60.9785H66.8994V63.2002L66.5439 68.5117H65.751ZM65.4297 71V69.5986H66.8447V71H65.4297Z" fill="black"/>
</svg>
