<svg width="48" height="48" viewBox="0 0 48 48" fill="none" xmlns="http://www.w3.org/2000/svg">
<path d="M44.1207 24.6566L45.5726 23.2037C46.5331 22.2425 46.5331 20.6778 45.5726 19.7167C44.6122 18.7555 43.0486 18.7555 42.0882 19.7167L40.6364 21.1696L38.3432 18.8747L39.7951 17.4218C40.7555 16.4607 40.7555 14.896 39.7951 13.9349C38.8346 12.9737 37.2711 12.9737 36.3106 13.9349L34.8588 15.3878L32.5656 13.0929L34.0175 11.64C34.9779 10.6789 34.9779 9.11422 34.0175 8.15307C33.057 7.19192 31.4935 7.19192 30.5331 8.15307L29.0813 9.60597L26.788 7.31113L28.2399 5.85823C29.2004 4.89708 29.2004 3.33241 28.2399 2.37125C27.2795 1.4101 25.7159 1.4101 24.7555 2.37125L23.3037 3.82415L21.8518 2.37125C20.8914 1.4101 19.3279 1.4101 18.3675 2.37125C17.407 3.33241 17.407 4.89708 18.3675 5.85823L19.8193 7.31113L17.5261 9.60597L16.0743 8.15307C15.1138 7.19192 13.5503 7.19192 12.5899 8.15307C11.6295 9.11422 11.6295 10.6789 12.5899 11.64L14.0417 13.0929L11.7486 15.3878L10.2968 13.9349C9.33634 12.9737 7.77279 12.9737 6.81234 13.9349C5.8519 14.896 5.8519 16.4607 6.81234 17.4218L8.26414 18.8747L5.97102 21.1696L4.51923 19.7167C3.55878 18.7555 1.99523 18.7555 1.03479 19.7167C0.0743423 20.6778 0.0743423 22.2425 1.03479 23.2037L2.48658 24.6566L1.03479 26.1095C0.0743423 27.0706 0.0743423 28.6353 1.03479 29.5964C1.99523 30.5576 3.55878 30.5576 4.51923 29.5964L5.97102 28.1435L8.26414 30.4384L6.81234 31.8913C5.8519 32.8524 5.8519 34.4171 6.81234 35.3782C7.77279 36.3394 9.33634 36.3394 10.2968 35.3782L11.7486 33.9253L14.0417 36.2202L12.5899 37.6731C11.6295 38.6342 11.6295 40.1989 12.5899 41.16C13.5503 42.1212 15.1138 42.1212 16.0743 41.16L17.5261 39.7071L19.8193 42.002L18.3675 43.4549C17.407 44.416 17.407 45.9807 18.3675 46.9419C19.3279 47.903 20.8914 47.903 21.8518 46.9419L23.3037 45.4889L24.7555 46.9419C25.7159 47.903 27.2795 47.903 28.2399 46.9419C29.2004 45.9807 29.2004 44.416 28.2399 43.4549L26.788 42.002L29.0813 39.7071L30.5331 41.16C31.4935 42.1212 33.057 42.1212 34.0175 41.16C34.9779 40.1989 34.9779 38.6342 34.0175 37.6731L32.5656 36.2202L34.8588 33.9253L36.3106 35.3782C37.2711 36.3394 38.8346 36.3394 39.7951 35.3782C40.7555 34.4171 40.7555 32.8524 39.7951 31.8913L38.3432 30.4384L40.6364 28.1435L42.0882 29.5964C43.0486 30.5576 44.6122 30.5576 45.5726 29.5964C46.5331 28.6353 46.5331 27.0706 45.5726 26.1095L44.1207 24.6566ZM23.3186 10.813L25.6117 13.1078L23.3186 15.4027L21.0254 13.1078L23.3186 10.813ZM9.48518 24.6566L11.7784 22.3617L14.0715 24.6566L11.7784 26.9514L9.48518 24.6566ZM15.2553 30.4309L17.5485 28.1361L19.8416 30.4309L17.5485 32.7258L15.2553 30.4309ZM23.3186 38.5001L21.0254 36.2053L23.3186 33.9104L25.6117 36.2053L23.3186 38.5001ZM29.0887 32.7258L26.7955 30.4309L29.0887 28.1361L31.3818 30.4309L29.0887 32.7258ZM34.8663 26.9514L32.5731 24.6566L34.8663 22.3617L37.1594 24.6566L34.8663 26.9514Z" fill="#F68B38"/>
<path d="M26.5127 47.9998C25.7607 47.9998 25.0535 47.7093 24.5249 47.1728L23.3262 45.9732L22.1274 47.1728C21.5988 47.7018 20.8915 47.9998 20.1396 47.9998C19.3876 47.9998 18.6803 47.7093 18.1516 47.1728C17.623 46.6438 17.3252 45.936 17.3252 45.1834C17.3252 44.4309 17.6156 43.7231 18.1516 43.1941L19.3503 41.9945L17.5561 40.1989L16.3573 41.3984C15.8287 41.9274 15.1214 42.2255 14.3695 42.2255C13.6175 42.2255 12.9102 41.9349 12.3815 41.3984C11.8529 40.8694 11.5551 40.1616 11.5551 39.4091C11.5551 38.6566 11.8455 37.9487 12.3815 37.4197L13.5802 36.2201L11.786 34.4245L10.5872 35.6241C9.49273 36.7193 7.70588 36.7193 6.60398 35.6241C5.50952 34.5288 5.50952 32.7406 6.60398 31.6379L7.80266 30.4383L6.00841 28.6427L4.80972 29.8423C3.71527 30.9375 1.92832 30.9375 0.826417 29.8423C-0.268042 28.747 -0.268042 26.9588 0.826417 25.8561L2.0251 24.6565L0.826417 23.457C0.297801 22.9279 0 22.2201 0 21.4676C0 20.7151 0.290356 20.0072 0.826417 19.4782C1.92088 18.383 3.70782 18.383 4.80972 19.4782L6.00841 20.6778L7.80266 18.8822L6.60398 17.6826C6.07536 17.1536 5.77756 16.4458 5.77756 15.6932C5.77756 14.9407 6.06791 14.2329 6.60398 13.7039C7.69843 12.6086 9.48529 12.6086 10.5872 13.7039L11.786 14.9035L13.5802 13.1078L12.3815 11.9082C11.8529 11.3792 11.5551 10.6714 11.5551 9.91888C11.5551 9.16635 11.8455 8.45853 12.3815 7.92952C12.9102 7.40051 13.6175 7.10248 14.3695 7.10248C15.1214 7.10248 15.8287 7.39306 16.3573 7.92952L17.5561 9.1291L19.3503 7.33346L18.1516 6.13388C17.623 5.60487 17.3252 4.89705 17.3252 4.14452C17.3252 3.39199 17.6156 2.68417 18.1516 2.15516C18.6803 1.62616 19.3876 1.32812 20.1396 1.32812C20.8915 1.32812 21.5988 1.61871 22.1274 2.15516L23.3262 3.35474L24.5249 2.15516C25.0535 1.62616 25.7607 1.32812 26.5127 1.32812C27.2647 1.32812 27.972 1.61871 28.5006 2.15516C29.0292 2.68417 29.327 3.39199 29.327 4.14452C29.327 4.89705 29.0367 5.60487 28.5006 6.13388L27.3019 7.33346L29.0963 9.1291L30.295 7.92952C30.8236 7.40051 31.5308 7.10248 32.2828 7.10248C33.0348 7.10248 33.7421 7.39306 34.2707 7.92952C34.7993 8.45853 35.0971 9.16635 35.0971 9.91888C35.0971 10.6714 34.8068 11.3792 34.2707 11.9082L33.072 13.1078L34.8664 14.9035L36.0651 13.7039C36.5937 13.1749 37.3009 12.8768 38.0529 12.8768C38.8049 12.8768 39.5122 13.1674 40.0408 13.7039C40.5695 14.2329 40.8673 14.9407 40.8673 15.6932C40.8673 16.4458 40.5769 17.1536 40.0408 17.6826L38.8422 18.8822L40.6365 20.6778L41.8352 19.4782C42.9296 18.383 44.7165 18.383 45.8184 19.4782C46.347 20.0072 46.6448 20.7151 46.6448 21.4676C46.6448 22.2201 46.3545 22.9279 45.8184 23.457L44.6197 24.6565L45.8184 25.8561C46.9129 26.9514 46.9129 28.7396 45.8184 29.8423C44.7239 30.9375 42.9371 30.9375 41.8352 29.8423L40.6365 28.6427L38.8422 30.4383L40.0408 31.6379C41.1353 32.7332 41.1353 34.5214 40.0408 35.6241C38.9464 36.7268 37.1595 36.7193 36.0576 35.6241L34.8589 34.4245L33.0646 36.2201L34.2633 37.4197C34.7919 37.9487 35.0897 38.6566 35.0897 39.4091C35.0897 40.1616 34.7993 40.8694 34.2633 41.3984C33.7347 41.9274 33.0273 42.2255 32.2753 42.2255C31.5234 42.2255 30.8161 41.9349 30.2875 41.3984L29.0888 40.1989L27.2945 41.9945L28.4932 43.1941C29.0218 43.7231 29.3196 44.4309 29.3196 45.1834C29.3196 45.936 29.0292 46.6438 28.4932 47.1728C27.972 47.7093 27.2647 47.9998 26.5127 47.9998ZM23.3187 44.9748L25.0162 46.6736C25.4182 47.0759 25.9468 47.292 26.5052 47.292C27.0636 47.292 27.5997 47.0685 27.9943 46.6736C28.3889 46.2787 28.6123 45.7422 28.6123 45.1834C28.6123 44.6172 28.3889 44.0882 27.9943 43.6933L26.2968 41.9945L29.0888 39.2005L30.7863 40.8992C31.6127 41.7263 32.9454 41.7188 33.7719 40.8992C34.1739 40.4969 34.3899 39.9679 34.3899 39.4091C34.3899 38.8428 34.1665 38.3138 33.7719 37.9189L32.0744 36.2201L34.8664 33.4261L36.5639 35.1249C36.9659 35.5272 37.4945 35.7433 38.0529 35.7433C38.6113 35.7433 39.1474 35.5198 39.542 35.1249C40.361 34.3053 40.361 32.9641 39.542 32.1371L37.8445 30.4383L40.6365 27.6443L42.334 29.3431C43.1529 30.1627 44.4931 30.1627 45.3195 29.3431C46.1385 28.516 46.1385 27.1823 45.3195 26.3553L43.622 24.6565L45.3195 22.9578C45.7216 22.5554 45.9375 22.0264 45.9375 21.4676C45.9375 20.9013 45.7141 20.3723 45.3195 19.9774C44.9175 19.5751 44.3889 19.359 43.8305 19.359C43.2721 19.359 42.736 19.5751 42.3414 19.9774L40.6439 21.6762L37.8519 18.8822L39.5494 17.1834C39.9515 16.781 40.1674 16.252 40.1674 15.6932C40.1674 15.127 39.944 14.598 39.5494 14.2031C39.1474 13.8007 38.6188 13.5847 38.0604 13.5847C37.502 13.5847 36.9659 13.8007 36.5713 14.2031L34.8738 15.9019L32.0818 13.1078L33.7793 11.409C34.5983 10.582 34.5983 9.24831 33.7793 8.42127C32.9529 7.60169 31.6202 7.59424 30.7937 8.42127L29.0963 10.1201L26.3043 7.32601L28.0018 5.62723C28.4038 5.22489 28.6198 4.69588 28.6198 4.13707C28.6198 3.57081 28.3964 3.04181 28.0018 2.64692C27.5997 2.24457 27.0711 2.0285 26.5127 2.0285C25.9543 2.0285 25.4182 2.24457 25.0236 2.64692L23.3262 4.34569L21.6286 2.64692C21.2266 2.24457 20.698 2.0285 20.1396 2.0285C19.5812 2.0285 19.0451 2.24457 18.6505 2.64692C18.2485 3.04926 18.0325 3.57826 18.0325 4.13707C18.0325 4.70333 18.2559 5.23234 18.6505 5.62723L20.3481 7.32601L17.5561 10.1201L15.8585 8.42127C15.0395 7.60169 13.6994 7.60169 12.8729 8.42127C12.4709 8.82362 12.255 9.35262 12.255 9.91143C12.255 10.4702 12.4709 11.0067 12.8729 11.4016L14.5705 13.1004L11.7785 15.8944L10.081 14.1956C9.26198 13.376 7.92182 13.376 7.09539 14.1956C6.69335 14.598 6.47746 15.127 6.47746 15.6858C6.47746 16.252 6.69335 16.7811 7.09539 17.1759L8.79294 18.8747L6.00095 21.6688L4.3034 19.97C3.90136 19.5676 3.37274 19.3516 2.81434 19.3516C2.25595 19.3516 1.71989 19.5676 1.32528 19.97C0.923239 20.3723 0.707358 20.9013 0.707358 21.4601C0.707358 22.0264 0.923239 22.5554 1.32528 22.9503L3.02283 24.6491L1.32528 26.3479C0.506302 27.1674 0.506302 28.5086 1.32528 29.3356C2.15171 30.1552 3.48443 30.1552 4.31086 29.3356L6.00841 27.6368L8.80039 30.4309L7.10284 32.1297C6.28386 32.9492 6.28386 34.2904 7.10284 35.1174C7.92927 35.937 9.26199 35.9445 10.0884 35.1174L11.786 33.4186L14.578 36.2127L12.8804 37.9115C12.4784 38.3138 12.2624 38.8428 12.2624 39.4016C12.2624 39.9679 12.4784 40.4969 12.8804 40.8918C13.7068 41.7188 15.0395 41.7188 15.866 40.8918L17.5634 39.193L20.3554 41.987L18.658 43.6858C18.2559 44.0882 18.0399 44.6172 18.0399 45.176C18.0399 45.7422 18.2634 46.2712 18.658 46.6661C19.06 47.0685 19.5886 47.2846 20.147 47.2846C20.7054 47.2846 21.2415 47.061 21.6361 46.6661L23.3187 44.9748ZM23.3187 38.9993L20.5267 36.2052L23.3187 33.4112L26.1107 36.2052L23.3187 38.9993ZM21.5244 36.2127L23.3187 38.0083L25.113 36.2127L23.3187 34.4171L21.5244 36.2127ZM29.0888 33.2249L26.2968 30.4309L29.0888 27.6368L31.8808 30.4309L29.0888 33.2249ZM27.3019 30.4309L29.0963 32.2265L30.8905 30.4309L29.0963 28.6352L27.3019 30.4309ZM17.5412 33.2249L14.7492 30.4309L17.5412 27.6368L20.3332 30.4309L17.5412 33.2249ZM15.7543 30.4309L17.5486 32.2265L19.3429 30.4309L17.5486 28.6352L15.7543 30.4309ZM11.7711 27.4506L8.97907 24.6565L11.7711 21.8625L14.563 24.6565L11.7711 27.4506ZM9.97672 24.6565L11.7711 26.4522L13.5653 24.6565L11.7711 22.8609L9.97672 24.6565ZM34.8664 27.4506L32.0744 24.6565L34.8664 21.8625L37.6584 24.6565L34.8664 27.4506ZM33.072 24.6565L34.8664 26.4522L36.6606 24.6565L34.8664 22.8609L33.072 24.6565ZM23.3187 15.8944L20.5267 13.1004L23.3187 10.3063L26.1107 13.1004L23.3187 15.8944ZM21.5244 13.1004L23.3187 14.896L25.113 13.1004L23.3187 11.3047L21.5244 13.1004Z" fill="black"/>
<path d="M45.4664 23.3069L46.9182 21.854C47.8787 20.8929 47.8787 19.3282 46.9182 18.3671C45.9578 17.4059 44.3942 17.4059 43.4338 18.3671L41.982 19.82L39.6889 17.5251L41.1407 16.0722C42.1011 15.1111 42.1011 13.5464 41.1407 12.5853C40.1802 11.6241 38.6168 11.6241 37.6563 12.5853L36.2044 14.0382L33.9113 11.7433L35.3631 10.2904C36.3235 9.32927 36.3235 7.7646 35.3631 6.80345C34.4027 5.8423 32.8392 5.8423 31.8788 6.80345L30.4269 8.25636L28.1337 5.96152L29.5855 4.50862C30.546 3.54747 30.546 1.9828 29.5855 1.02164C28.6251 0.0604935 27.0616 0.0604935 26.1012 1.02164L24.6493 2.47455L23.1975 1.02164C22.2371 0.0604935 20.6735 0.0604935 19.7131 1.02164C18.7526 1.9828 18.7526 3.54747 19.7131 4.50862L21.165 5.96152L18.8718 8.25636L17.42 6.80345C16.4595 5.8423 14.896 5.8423 13.9355 6.80345C12.9751 7.7646 12.9751 9.32927 13.9355 10.2904L15.3874 11.7433L13.0942 14.0382L11.6424 12.5853C10.682 11.6241 9.11849 11.6241 8.15805 12.5853C7.1976 13.5464 7.1976 15.1111 8.15805 16.0722L9.60984 17.5251L7.31673 19.82L5.86484 18.3671C4.90439 17.4059 3.34093 17.4059 2.38049 18.3671C1.42005 19.3282 1.42005 20.8929 2.38049 21.854L3.83229 23.3069L2.38049 24.7598C1.42005 25.721 1.42005 27.2857 2.38049 28.2468C3.34093 29.208 4.90439 29.208 5.86484 28.2468L7.31673 26.7939L9.60984 29.0887L8.15805 30.5416C7.1976 31.5028 7.1976 33.0675 8.15805 34.0286C9.11849 34.9898 10.682 34.9898 11.6424 34.0286L13.0942 32.5757L15.3874 34.8706L13.9355 36.3235C12.9751 37.2846 12.9751 38.8493 13.9355 39.8104C14.896 40.7716 16.4595 40.7716 17.42 39.8104L18.8718 38.3575L21.165 40.6524L19.7131 42.1053C18.7526 43.0664 18.7526 44.6311 19.7131 45.5922C20.6735 46.5534 22.2371 46.5534 23.1975 45.5922L24.6493 44.1393L26.1012 45.5922C27.0616 46.5534 28.6251 46.5534 29.5855 45.5922C30.546 44.6311 30.546 43.0664 29.5855 42.1053L28.1337 40.6524L30.4269 38.3575L31.8788 39.8104C32.8392 40.7716 34.4027 40.7716 35.3631 39.8104C36.3235 38.8493 36.3235 37.2846 35.3631 36.3235L33.9113 34.8706L36.2044 32.5757L37.6563 34.0286C38.6168 34.9898 40.1802 34.9898 41.1407 34.0286C42.1011 33.0675 42.1011 31.5028 41.1407 30.5416L39.6889 29.0887L41.982 26.7939L43.4338 28.2468C44.3942 29.208 45.9578 29.208 46.9182 28.2468C47.8787 27.2857 47.8787 25.721 46.9182 24.7598L45.4664 23.3069ZM24.6642 9.46338L26.9574 11.7582L24.6642 14.0531L22.3711 11.7582L24.6642 9.46338ZM10.8309 23.3069L13.124 21.0121L15.4172 23.3069L13.124 25.6018L10.8309 23.3069ZM16.601 29.0813L18.8941 26.7865L21.1873 29.0813L18.8941 31.3761L16.601 29.0813ZM24.6642 37.1505L22.3711 34.8557L24.6642 32.5608L26.9574 34.8557L24.6642 37.1505ZM30.4343 31.3761L28.1412 29.0813L30.4343 26.7865L32.7275 29.0813L30.4343 31.3761ZM36.2119 25.6018L33.9188 23.3069L36.2119 21.0121L38.505 23.3069L36.2119 25.6018Z" fill="#FBB33B"/>
<path d="M27.8607 46.6512C27.1087 46.6512 26.4014 46.3607 25.8728 45.8242L24.6741 44.6246L23.4754 45.8242C22.9468 46.3532 22.2395 46.6512 21.4875 46.6512C20.7355 46.6512 20.0283 46.3607 19.4997 45.8242C18.971 45.2952 18.6732 44.5874 18.6732 43.8348C18.6732 43.0823 18.9636 42.3745 19.4997 41.8455L20.6983 40.6459L18.904 38.8503L17.7053 40.0498C17.1767 40.5788 16.4694 40.8769 15.7174 40.8769C14.9654 40.8769 14.2582 40.5863 13.7296 40.0498C13.2009 39.5208 12.9031 38.813 12.9031 38.0605C12.9031 37.3079 13.1935 36.6001 13.7296 36.0711L14.9282 34.8715L13.1339 33.0759L11.9352 34.2755C10.8407 35.3707 9.0539 35.3707 7.95199 34.2755C7.42338 33.7465 7.12558 33.0387 7.12558 32.2861C7.12558 31.5336 7.41593 30.8258 7.95199 30.2968L9.15067 29.0972L7.35633 27.3015L6.15765 28.5011C5.62903 29.0301 4.9217 29.3282 4.16972 29.3282C3.41775 29.3282 2.7105 29.0376 2.18189 28.5011C1.65327 27.9721 1.35547 27.2643 1.35547 26.5118C1.35547 25.7592 1.64582 25.0514 2.18189 24.5224L3.38057 23.3228L2.18189 22.1233C1.65327 21.5942 1.35547 20.8864 1.35547 20.1339C1.35547 19.3814 1.64582 18.6735 2.18189 18.1445C2.7105 17.6155 3.41775 17.3175 4.16972 17.3175C4.9217 17.3175 5.62903 17.6081 6.15765 18.1445L7.35633 19.3441L9.15067 17.5485L7.95199 16.3489C7.42338 15.8199 7.12558 15.1121 7.12558 14.3595C7.12558 13.607 7.41593 12.8992 7.95199 12.3702C8.48061 11.8412 9.18785 11.5431 9.93983 11.5431C10.6918 11.5431 11.3991 11.8337 11.9278 12.3702L13.1264 13.5697L14.9208 11.7741L13.7221 10.5745C13.1935 10.0455 12.8957 9.33771 12.8957 8.58518C12.8957 7.83265 13.186 7.12481 13.7221 6.59581C14.2507 6.0668 14.958 5.76877 15.7099 5.76877C16.4619 5.76877 17.1692 6.05935 17.6979 6.59581L18.8965 7.79538L20.6909 5.99975L19.4922 4.80018C18.9636 4.27117 18.6658 3.56335 18.6658 2.81082C18.6658 2.05829 18.9561 1.35045 19.4922 0.821449C20.5867 -0.273816 22.3735 -0.273816 23.4754 0.821449L24.6741 2.02103L25.8728 0.821449C26.9672 -0.273816 28.7541 -0.273816 29.856 0.821449C30.3846 1.35045 30.6825 2.05829 30.6825 2.81082C30.6825 3.56335 30.3921 4.27117 29.856 4.80018L28.6573 5.99975L30.4517 7.79538L31.6503 6.59581C32.7448 5.50054 34.5317 5.50054 35.6336 6.59581C36.1622 7.12481 36.46 7.83265 36.46 8.58518C36.46 9.33771 36.1696 10.0455 35.6336 10.5745L34.4349 11.7741L36.2292 13.5697L37.4279 12.3702C37.9565 11.8412 38.6639 11.5431 39.4158 11.5431C40.1678 11.5431 40.875 11.8337 41.4037 12.3702C41.9323 12.8992 42.2301 13.607 42.2301 14.3595C42.2301 15.1121 41.9397 15.8199 41.4037 16.3489L40.205 17.5485L41.9993 19.3441L43.198 18.1445C43.7266 17.6155 44.434 17.3175 45.1859 17.3175C45.9379 17.3175 46.6452 17.6081 47.1738 18.1445C47.7024 18.6735 48.0002 19.3814 48.0002 20.1339C48.0002 20.8864 47.7098 21.5942 47.1738 22.1233L45.9751 23.3228L47.1738 24.5224C47.7024 25.0514 48.0002 25.7592 48.0002 26.5118C48.0002 27.2643 47.7098 27.9721 47.1738 28.5011C46.6452 29.0301 45.9379 29.3282 45.1859 29.3282C44.434 29.3282 43.7266 29.0376 43.198 28.5011L41.9993 27.3015L40.205 29.0972L41.4037 30.2968C41.9323 30.8258 42.2301 31.5336 42.2301 32.2861C42.2301 33.0387 41.9397 33.7465 41.4037 34.2755C40.3092 35.3707 38.5224 35.3707 37.4205 34.2755L36.2218 33.0759L34.4274 34.8715L35.6261 36.0711C36.7206 37.1664 36.7206 38.9546 35.6261 40.0573C34.5317 41.16 32.7448 41.1525 31.6429 40.0573L30.4442 38.8577L28.6499 40.6533L29.8485 41.8529C30.3772 42.3819 30.6751 43.0898 30.6751 43.8423C30.6751 44.5948 30.3846 45.3026 29.8485 45.8316C29.3199 46.3606 28.6127 46.6512 27.8607 46.6512ZM24.6667 43.6262L26.3642 45.325C26.7662 45.7273 27.2949 45.9434 27.8533 45.9434C28.4191 45.9434 28.9477 45.7199 29.3423 45.325C29.7444 44.9226 29.9602 44.3936 29.9602 43.8348C29.9602 43.2686 29.7369 42.7396 29.3423 42.3447L27.6448 40.6459L30.4368 37.8519L32.1343 39.5506C32.9607 40.3777 34.2934 40.3777 35.1199 39.5506C35.5219 39.1483 35.7378 38.6193 35.7378 38.0605C35.7378 37.4942 35.5145 36.9652 35.1199 36.5703L33.4223 34.8715L36.2143 32.0775L37.9119 33.7763C38.7309 34.5959 40.071 34.5959 40.8974 33.7763C41.7164 32.9492 41.7164 31.6155 40.8974 30.7885L39.1999 29.0897L41.9919 26.2957L43.6894 27.9945C44.0915 28.3968 44.6201 28.6129 45.1785 28.6129C45.7369 28.6129 46.2729 28.3894 46.6675 27.9945C47.0621 27.5996 47.2855 27.0631 47.2855 26.5043C47.2855 25.938 47.0621 25.409 46.6675 25.0141L44.97 23.3154L46.6675 21.6166C47.0696 21.2142 47.2855 20.6852 47.2855 20.1264C47.2855 19.5602 47.0621 19.0312 46.6675 18.6363C46.2655 18.2339 45.7369 18.0179 45.1785 18.0179C44.6201 18.0179 44.084 18.2339 43.6894 18.6363L41.9919 20.3351L39.1999 17.541L40.8974 15.8422C41.7164 15.0152 41.7164 13.6815 40.8974 12.8545C40.071 12.0349 38.7383 12.0349 37.9119 12.8545L36.2143 14.5533L33.4223 11.7592L35.1199 10.0604C35.5219 9.65809 35.7378 9.12908 35.7378 8.57027C35.7378 8.00401 35.5145 7.47501 35.1199 7.08011C34.2934 6.26053 32.9607 6.26053 32.1343 7.08011L30.4368 8.77889L27.6448 5.98485L29.3423 4.28607C29.7444 3.88373 29.9602 3.35472 29.9602 2.79591C29.9602 2.22965 29.7369 1.70065 29.3423 1.30576C28.9403 0.903414 28.4117 0.68734 27.8533 0.68734C27.2874 0.68734 26.7588 0.903414 26.3642 1.30576L24.6667 3.00453L22.9691 1.30576C22.5671 0.903414 22.0384 0.68734 21.48 0.68734C20.9216 0.68734 20.3856 0.903414 19.991 1.30576C19.5889 1.7081 19.3731 2.2371 19.3731 2.79591C19.3731 3.36217 19.5964 3.89118 19.991 4.28607L21.6885 5.98485L18.8965 8.77889L17.199 7.08011C16.38 6.26053 15.0399 6.26053 14.2134 7.08011C13.8114 7.48246 13.5955 8.01146 13.5955 8.57027C13.5955 9.13653 13.8114 9.66554 14.2134 10.0604L15.911 11.7592L13.119 14.5533L11.4214 12.8545C11.0194 12.4521 10.4908 12.2361 9.93238 12.2361C9.36653 12.2361 8.83792 12.4521 8.44332 12.8545C7.62433 13.6815 7.62433 15.0152 8.44332 15.8422L10.1409 17.541L7.34888 20.3351L5.65133 18.6363C5.24928 18.2339 4.72067 18.0179 4.16227 18.0179C3.59643 18.0179 3.06781 18.2339 2.67321 18.6363C2.27116 19.0386 2.05528 19.5676 2.05528 20.1264C2.05528 20.6927 2.27116 21.2217 2.67321 21.6166L4.37076 23.3154L2.67321 25.0141C2.27116 25.4165 2.05528 25.9455 2.05528 26.5043C2.05528 27.0706 2.27116 27.5996 2.67321 27.9945C3.07526 28.3894 3.60387 28.6129 4.16227 28.6129C4.72811 28.6129 5.25673 28.3894 5.65133 27.9945L7.34888 26.2957L10.1409 29.0897L8.44332 30.7885C7.62433 31.6155 7.62433 32.9492 8.44332 33.7763C9.26974 34.5959 10.6025 34.5959 11.4289 33.7763L13.1264 32.0775L15.9184 34.8715L14.2209 36.5703C13.8188 36.9727 13.6029 37.5017 13.6029 38.0605C13.6029 38.6267 13.8188 39.1557 14.2209 39.5506C15.0473 40.3777 16.38 40.3777 17.2064 39.5506L18.904 37.8519L21.696 40.6459L19.9984 42.3447C19.5964 42.747 19.3805 43.276 19.3805 43.8348C19.3805 44.4011 19.6038 44.9301 19.9984 45.325C20.4005 45.7273 20.9291 45.9434 21.4875 45.9434C22.0459 45.9434 22.582 45.7199 22.9766 45.325L24.6667 43.6262ZM24.6667 37.6507L21.8747 34.8566L24.6667 32.0626L27.4586 34.8566L24.6667 37.6507ZM22.8723 34.8641L24.6667 36.6597L26.461 34.8641L24.6667 33.0684L22.8723 34.8641ZM18.8891 31.8763L16.0971 29.0823L18.8891 26.2882L21.6811 29.0823L18.8891 31.8763ZM17.1022 29.0823L18.8965 30.8779L20.6909 29.0823L18.8965 27.2866L17.1022 29.0823ZM30.4368 31.8763L27.6448 29.0823L30.4368 26.2882L33.2287 29.0823L30.4368 31.8763ZM28.6499 29.0823L30.4442 30.8779L32.2386 29.0823L30.4442 27.2866L28.6499 29.0823ZM36.2143 26.102L33.4223 23.3079L36.2143 20.5139L39.0063 23.3079L36.2143 26.102ZM34.42 23.3079L36.2143 25.1036L38.0087 23.3079L36.2143 21.5123L34.42 23.3079ZM13.119 26.102L10.327 23.3079L13.119 20.5139L15.911 23.3079L13.119 26.102ZM11.3247 23.3079L13.119 25.1036L14.9133 23.3079L13.119 21.5123L11.3247 23.3079ZM24.6667 14.5458L21.8747 11.7518L24.6667 8.95772L27.4586 11.7518L24.6667 14.5458ZM22.8723 11.7518L24.6667 13.5474L26.461 11.7518L24.6667 9.95612L22.8723 11.7518Z" fill="black"/>
<path d="M20.2136 17.8173C20.2732 17.713 20.3029 17.6012 20.3029 17.4745C20.2955 17.4149 20.288 17.3553 20.2806 17.2957C20.2508 17.1839 20.1913 17.0796 20.1094 16.9977L20.0424 16.9306V16.9232V16.9157C20.0424 16.9157 20.0424 16.9157 20.0424 16.9083C20.0498 16.8487 20.0573 16.7891 20.0647 16.7295C20.0647 16.7295 20.0647 16.7295 20.0647 16.722C20.0647 16.7146 20.0647 16.7071 20.0647 16.6997C20.0647 16.6922 20.0647 16.6922 20.0647 16.6848C20.0647 16.6848 20.0647 16.6847 20.0647 16.6773C20.0573 16.6251 20.0498 16.5506 20.0424 16.4985C20.0424 16.491 20.0424 16.4836 20.0349 16.4761C20.0126 16.3867 19.9753 16.3122 19.9158 16.2452C19.8711 16.1707 19.8041 16.111 19.7296 16.0738C19.6775 16.0514 19.6254 16.0291 19.5659 16.0067C19.4467 15.9769 19.3276 15.9769 19.2085 16.0067H19.201C19.1489 16.0291 19.0968 16.0514 19.0373 16.0738C19.0298 16.0738 19.0298 16.0812 19.0224 16.0812C18.9777 16.1185 18.933 16.1483 18.8883 16.1856C18.8883 16.1856 18.8883 16.1855 18.8809 16.193C18.8734 16.193 18.8734 16.2004 18.8734 16.2004C18.8362 16.2451 18.8065 16.2899 18.7693 16.3346C18.7693 16.3346 18.7692 16.342 18.7618 16.342V16.3495C18.7097 16.3867 18.665 16.4314 18.6277 16.4836C18.5682 16.5506 18.5309 16.6251 18.5086 16.7145C18.5011 16.7742 18.4938 16.8338 18.4863 16.8934C18.4863 17.0126 18.5161 17.1318 18.5757 17.2361C18.6129 17.2808 18.6426 17.3255 18.6798 17.3702C18.7245 17.4149 18.7692 17.4447 18.8213 17.4745C18.8511 17.5863 18.9107 17.6906 18.9926 17.7726C19.0372 17.8173 19.0894 17.8694 19.1341 17.9141C19.0298 17.9737 18.933 18.0557 18.8734 18.16C18.8138 18.2643 18.7915 18.3835 18.7841 18.4953C18.7766 18.5102 18.7692 18.5251 18.7618 18.5474C18.6725 18.7337 18.6426 18.8455 18.6203 19.0541C18.6128 19.1659 18.6352 19.2702 18.6352 19.3819V19.3894C18.6352 19.3968 18.6277 19.4043 18.6277 19.4117C18.6054 19.4713 18.6054 19.5384 18.6054 19.598C18.6054 19.6278 18.5905 19.6576 18.5905 19.6874C18.5979 19.747 18.6054 19.8066 18.6128 19.8662C18.6352 19.9556 18.6724 20.0302 18.732 20.0972C18.8213 20.2164 18.933 20.2909 19.0819 20.3356C19.3201 20.4176 19.5659 20.3654 19.7818 20.2537C19.8265 20.2164 19.8711 20.1866 19.9158 20.1494C19.9828 20.0898 20.0275 20.0153 20.0573 19.9333C20.1168 19.7992 20.1391 19.6353 20.0944 19.4937C20.0647 19.4117 20.0201 19.3372 19.9679 19.2627C19.9605 19.218 19.9605 19.1733 19.9605 19.1286C19.9977 19.0466 20.0424 18.9647 20.0722 18.8753C20.1392 18.6965 20.1391 18.5027 20.0944 18.3239C20.0721 18.2271 20.0126 18.1302 19.9381 18.0482C19.9977 18.0184 20.0498 17.9886 20.1019 17.9365C20.1391 17.9141 20.1764 17.862 20.2136 17.8173Z" fill="#F499AD"/>
<path d="M31.3754 18.7394C31.4275 18.3817 31.4871 18.0166 31.4722 17.6515C31.4648 17.5025 31.4127 17.361 31.3233 17.2492C31.3308 17.197 31.3233 17.1449 31.3233 17.0927C31.3159 17.0033 31.3159 16.9214 31.3233 16.832C31.3233 16.8171 31.3308 16.8096 31.3308 16.7947C31.3606 16.7053 31.3605 16.6159 31.3456 16.5265C31.3382 16.4371 31.3158 16.3551 31.2637 16.2731C31.219 16.1912 31.1669 16.1316 31.0925 16.0869C31.0255 16.0273 30.9511 15.99 30.8617 15.9677C30.8022 15.9602 30.7426 15.9528 30.683 15.9453C30.5639 15.9453 30.4447 15.9751 30.3405 16.0347C30.2958 16.072 30.2512 16.1018 30.2065 16.139C30.1246 16.221 30.065 16.3253 30.0352 16.4371C30.0129 16.5414 29.998 16.6457 29.9831 16.75C29.9757 16.7947 29.9757 16.8469 29.9682 16.8916C29.9608 17.048 29.9832 17.2045 30.013 17.3535C30.0353 17.4429 30.0725 17.5174 30.132 17.577C30.132 17.5994 30.1247 17.6217 30.1247 17.6441C30.1321 17.8825 30.1097 18.1209 30.0799 18.3519C30.0427 18.5903 30.0129 18.8288 29.9906 19.0746C29.9757 19.2535 29.9906 19.4248 30.013 19.6037C29.9534 19.8272 29.998 20.0879 30.1767 20.2519C30.3182 20.386 30.482 20.453 30.6756 20.4605C30.7054 20.4605 30.7426 20.453 30.7724 20.453C30.7798 20.453 30.7797 20.453 30.7797 20.453C31.1297 20.453 31.4722 20.1401 31.4498 19.7825C31.4424 19.6484 31.4052 19.5217 31.3308 19.4174C31.3233 19.1864 31.3456 18.9629 31.3754 18.7394Z" fill="#F499AD"/>
<path d="M26.0963 20.5892C26.007 20.4551 25.8655 20.3061 25.6942 20.2763C25.2475 20.2092 24.8082 20.172 24.3615 20.2018C24.1828 20.2092 24.0116 20.2688 23.8851 20.403C23.7659 20.5222 23.6766 20.7084 23.684 20.8798C23.6915 21.0512 23.751 21.2375 23.8851 21.3567C24.0191 21.4759 24.1828 21.5578 24.3615 21.5504H24.8157C24.8232 21.5504 24.8231 21.5504 24.8305 21.5504C25.0167 21.5578 25.2028 21.5653 25.3889 21.5951C25.4634 21.61 25.5304 21.6174 25.6049 21.5951C25.6942 21.5876 25.7761 21.5653 25.858 21.5131C25.9995 21.4312 26.1335 21.2673 26.1707 21.1108C26.2005 20.932 26.1931 20.7382 26.0963 20.5892Z" fill="#F499AD"/>
<path d="M28.2402 23.5539C28.1658 23.4496 28.0689 23.3602 27.9424 23.3006C27.6669 23.159 27.3542 23.159 27.0861 23.308C26.9372 23.39 26.8256 23.5166 26.7586 23.6657C26.632 23.7402 26.5128 23.8221 26.4086 23.919C26.2225 24.0978 26.081 24.3288 25.8875 24.5001C25.8651 24.515 25.8428 24.5225 25.8279 24.5374C25.8205 24.5374 25.813 24.5449 25.813 24.5449C25.478 24.5747 25.1653 24.8578 25.1802 25.2154C25.1951 25.5731 25.4779 25.8934 25.8502 25.886C26.2448 25.8785 26.6022 25.6923 26.8777 25.424C27.2127 25.5731 27.585 25.5656 27.9051 25.3868C28.2104 25.2154 28.3668 24.9248 28.4338 24.6045C28.6497 24.2543 28.5976 23.7849 28.2402 23.5539Z" fill="#F68B38"/>
<path d="M21.1954 19.187C21.2028 18.8815 21.1954 18.576 21.1954 18.2705C21.1954 17.6521 21.2028 17.0262 21.2847 16.4078C21.2996 16.2737 21.2401 16.1545 21.1433 16.0651C21.1731 15.8267 21.0465 15.5286 20.786 15.4839C20.7636 15.4839 20.7487 15.4765 20.7263 15.469C20.7263 15.469 20.719 15.469 20.7041 15.4616C20.6892 15.4541 20.6743 15.4541 20.6668 15.4541C20.6817 15.4541 20.6892 15.4616 20.6966 15.4616C20.6966 15.4616 20.6892 15.4616 20.6892 15.4541C20.6743 15.4467 20.6519 15.4318 20.637 15.4169C20.5626 15.3647 20.4882 15.3051 20.4137 15.253C20.235 15.1263 20.019 15.0369 19.7957 15.0071C19.3192 14.94 18.865 15.0443 18.4183 15.1933C18.2545 15.2455 18.1205 15.3796 18.0684 15.5435C17.9642 15.5584 17.8674 15.6031 17.7929 15.6851C17.7036 15.782 17.6441 15.9012 17.6441 16.0427C17.6441 16.0949 17.6366 16.147 17.6292 16.1992C17.6068 16.3408 17.5696 16.4823 17.51 16.6164C17.4877 16.6835 17.4877 16.7506 17.5026 16.8176C17.5026 16.8847 17.5249 16.9443 17.5621 17.0039C17.5844 17.0486 17.6217 17.0784 17.6589 17.1082C17.5919 17.1902 17.5473 17.3019 17.5473 17.4211C17.5473 17.518 17.5473 17.6148 17.5473 17.7043C17.5324 17.7862 17.5324 17.8756 17.5473 17.9576C17.5473 18.6133 17.5547 19.2689 17.5547 19.9246C17.5547 20.1854 17.7855 20.4461 18.061 20.4312C18.3364 20.4163 18.5673 20.2077 18.5673 19.9246C18.5673 19.4105 18.5598 18.9038 18.5598 18.3897C18.9321 18.129 18.9246 17.4807 18.5226 17.2498C18.4928 17.1753 18.4482 17.1156 18.3961 17.0635C18.4407 17.0113 18.4704 16.9517 18.4928 16.8847C18.5374 16.7729 18.5747 16.6537 18.597 16.527C18.6193 16.4153 18.6343 16.2961 18.6417 16.1768C18.6566 16.1768 18.664 16.1768 18.6789 16.1694C18.8576 16.1098 19.0438 16.0502 19.2299 16.0129C19.2523 16.0055 19.2746 16.0055 19.2969 15.998C19.3565 15.9906 19.3415 15.9906 19.2671 15.998C19.2969 15.9831 19.3714 15.9906 19.4086 15.9831C19.4533 15.9831 19.4979 15.9831 19.55 15.9831C19.5649 15.9831 19.5798 15.9831 19.5947 15.9831C19.6394 15.9906 19.6766 15.998 19.7212 16.0129C19.7287 16.0129 19.7362 16.0204 19.7436 16.0204C19.751 16.0204 19.7511 16.0204 19.7585 16.0278C19.833 16.0725 19.9074 16.1172 19.9745 16.1768C20.0712 16.2514 20.168 16.311 20.2796 16.3631C20.2796 16.3706 20.2722 16.3855 20.2722 16.3929C20.1903 17.056 20.1829 17.7266 20.1829 18.3972C20.1829 18.725 20.1828 19.0529 20.1754 19.3881C20.168 19.5595 20.168 19.7309 20.1531 19.9022C20.1382 20.1258 20.1606 20.2897 20.3169 20.4685C20.4658 20.6399 20.7412 20.6473 20.9274 20.5505C21.1061 20.4536 21.1805 20.2748 21.1954 20.0811C21.2028 20.0066 21.1806 19.9395 21.1508 19.8724C21.1657 19.6564 21.1954 19.4179 21.1954 19.187Z" fill="#F68B38"/>
<path d="M20.7331 15.4704C20.7331 15.4704 20.7181 15.4629 20.7031 15.4629C20.7031 15.4629 20.7106 15.4629 20.7106 15.4704C20.7106 15.4704 20.7256 15.4704 20.7331 15.4704Z" fill="#F68B38"/>
<path d="M32.5518 19.598C32.5518 19.5906 32.5518 19.5831 32.5518 19.5831C32.5369 19.4639 32.5295 19.3447 32.5295 19.218C32.5221 18.9871 32.5146 18.7486 32.5221 18.5176C32.5369 18.0408 32.5742 17.5639 32.6114 17.0871C32.6263 16.8859 32.4773 16.6922 32.2912 16.6177C32.321 16.3644 32.321 16.1111 32.2168 15.8726C32.1721 15.7534 32.12 15.6417 32.0455 15.5448C31.9413 15.4032 31.8371 15.2989 31.6956 15.1946C31.4797 15.0381 31.2265 14.9636 30.9659 14.9413C30.7426 14.9189 30.5267 14.9636 30.3182 15.0456C30.1246 14.9264 29.8715 14.9636 29.7003 15.1201C29.0972 15.6565 29.0525 16.4985 29.0451 17.2436C29.0451 17.713 29.0376 18.1749 29.0376 18.6443V19.3447C29.0376 19.531 29.0525 19.7023 28.9855 19.8737C28.8069 20.3356 29.5142 20.7454 29.8269 20.3655C29.8566 20.3282 29.8864 20.2984 29.9088 20.2611C30.0279 20.1196 30.0725 19.9408 30.0353 19.7694C30.065 19.4788 30.0427 19.1808 30.0427 18.9051C30.0427 18.7635 30.0427 18.6294 30.0427 18.4879C30.6086 18.4282 30.616 17.5491 30.0427 17.4894C30.0353 17.0051 29.9906 16.4016 30.2512 15.9993C30.2661 16.0067 30.281 16.0142 30.2959 16.0142C30.4076 16.0365 30.5118 16.0291 30.616 15.9918C30.6086 15.9918 30.6086 15.9918 30.6011 15.9993C30.6607 15.9769 30.7203 15.962 30.7724 15.9471C30.8171 15.9471 30.8617 15.9471 30.8989 15.9471C30.9436 15.9546 30.9809 15.9695 31.0255 15.9844C31.0553 15.9993 31.0777 16.0142 31.1074 16.0291C31.1372 16.0514 31.1595 16.0812 31.1819 16.1036C31.2042 16.1334 31.2192 16.1707 31.2415 16.2005C31.2564 16.2452 31.2638 16.2824 31.2787 16.3271C31.2787 16.3867 31.2861 16.4389 31.2787 16.4985L31.2936 16.3942C31.2712 16.5283 31.2712 16.6475 31.3456 16.7742C31.3978 16.871 31.5021 16.953 31.6063 16.9902C31.5989 17.0201 31.5839 17.0498 31.5839 17.0871C31.502 18.1079 31.4351 19.1137 31.5988 20.1345C31.651 20.4772 32.0828 20.5666 32.3434 20.44C32.6561 20.2835 32.7379 19.8663 32.5518 19.598Z" fill="#F68B38"/>
<path d="M24.9632 22.1222C24.0102 22.1222 23.2656 21.6156 23.2656 20.9674C23.2656 20.3192 24.0102 19.8125 24.9632 19.8125C25.9162 19.8125 26.6607 20.3192 26.6607 20.9674C26.6607 21.6156 25.9162 22.1222 24.9632 22.1222ZM24.9632 20.5129C24.3676 20.5129 23.9655 20.7811 23.9655 20.9599C23.9655 21.1387 24.3601 21.407 24.9632 21.407C25.5588 21.407 25.9608 21.1387 25.9608 20.9599C25.9608 20.7811 25.5662 20.5129 24.9632 20.5129Z" fill="black"/>
<path d="M17.5023 21.1682C17.3087 21.1682 17.1523 21.0118 17.1523 20.8181V16.6456C17.1523 15.4386 18.1351 14.4551 19.3412 14.4551C20.5474 14.4551 21.5302 15.4386 21.5302 16.6456V20.7435C21.5302 20.9373 21.3739 21.0937 21.1803 21.0937C20.9867 21.0937 20.8303 20.9373 20.8303 20.7435V16.6456C20.8303 15.826 20.1677 15.1629 19.3487 15.1629C18.5297 15.1629 17.8671 15.826 17.8671 16.6456V20.8181C17.8596 21.0118 17.6958 21.1682 17.5023 21.1682Z" fill="black"/>
<path d="M17.3009 14.2395C17.2339 14.2395 17.1744 14.2246 17.1148 14.1874C16.951 14.0831 16.8989 13.867 17.0031 13.7031C17.502 12.9058 18.3657 12.4066 19.3038 12.3619C20.1972 12.3247 21.0385 12.6972 21.6118 13.3901C21.7384 13.5392 21.716 13.7627 21.5671 13.8893C21.4182 14.016 21.1949 13.9936 21.0683 13.8446C20.6365 13.3231 20.0036 13.0474 19.3335 13.0697C18.6262 13.0995 17.9785 13.4721 17.5988 14.0756C17.5318 14.1799 17.4201 14.2395 17.3009 14.2395Z" fill="black"/>
<path d="M18.4691 20.8178C18.2756 20.8178 18.1191 20.6614 18.1191 20.4676V18.6198C18.1191 18.5006 18.1788 18.3963 18.2756 18.3293L18.7148 18.0312L18.2532 17.6587C18.1713 17.5916 18.1191 17.4873 18.1191 17.383V16.9285C18.1191 16.094 18.6776 15.416 19.3551 15.416C20.0401 15.416 20.591 16.094 20.591 16.9285V20.4155C20.591 20.6092 20.4347 20.7657 20.2411 20.7657C20.0475 20.7657 19.8911 20.6092 19.8911 20.4155V16.9285C19.8911 16.4889 19.6455 16.1164 19.3551 16.1164C19.0647 16.1164 18.819 16.4889 18.819 16.9285V17.2116L19.5189 17.7779C19.6082 17.845 19.6529 17.9567 19.6529 18.0685C19.6455 18.1803 19.5934 18.2846 19.4966 18.3442L18.819 18.8061V20.4676C18.8265 20.6539 18.6702 20.8178 18.4691 20.8178Z" fill="black"/>
<path d="M16.8693 21.8317C16.8023 21.8317 16.7427 21.8168 16.6832 21.7795C16.5194 21.6752 16.4672 21.4591 16.5715 21.2952C17.0554 20.5203 18.1424 20.0137 19.3337 20.0137C20.4653 20.0137 21.5003 20.4607 22.014 21.176C22.1257 21.3325 22.0959 21.556 21.9395 21.6677C21.7832 21.7795 21.5599 21.7497 21.4482 21.5932C21.061 21.0642 20.2345 20.7215 19.3337 20.7215C18.3881 20.7215 17.5171 21.1015 17.1671 21.6677C17.1076 21.7721 16.9884 21.8317 16.8693 21.8317Z" fill="black"/>
<path d="M18.5001 22.651C18.6522 22.651 18.7756 22.5275 18.7756 22.3753C18.7756 22.223 18.6522 22.0996 18.5001 22.0996C18.3479 22.0996 18.2246 22.223 18.2246 22.3753C18.2246 22.5275 18.3479 22.651 18.5001 22.651Z" fill="black"/>
<path d="M20.1388 22.651C20.2909 22.651 20.4142 22.5275 20.4142 22.3753C20.4142 22.223 20.2909 22.0996 20.1388 22.0996C19.9866 22.0996 19.8633 22.223 19.8633 22.3753C19.8633 22.5275 19.9866 22.651 20.1388 22.651Z" fill="black"/>
<path d="M19.3653 23.858C19.5175 23.858 19.6408 23.7346 19.6408 23.5823C19.6408 23.4301 19.5175 23.3066 19.3653 23.3066C19.2132 23.3066 19.0898 23.4301 19.0898 23.5823C19.0898 23.7346 19.2132 23.858 19.3653 23.858Z" fill="black"/>
<path d="M28.8265 21.1682C28.6329 21.1682 28.4766 21.0118 28.4766 20.8181V16.6456C28.4766 15.4386 29.4594 14.4551 30.6655 14.4551C31.8717 14.4551 32.8544 15.4386 32.8544 16.6456V20.7435C32.8544 20.9373 32.6981 21.0937 32.5045 21.0937C32.3109 21.0937 32.1546 20.9373 32.1546 20.7435V16.6456C32.1546 15.826 31.492 15.1629 30.673 15.1629C29.854 15.1629 29.1914 15.826 29.1914 16.6456V20.8181C29.1765 21.0118 29.02 21.1682 28.8265 21.1682Z" fill="black"/>
<path d="M32.6609 14.2395C32.5417 14.2395 32.43 14.1799 32.363 14.0756C31.9833 13.472 31.3356 13.0995 30.6283 13.0697C29.9582 13.0399 29.3254 13.323 28.8936 13.8446C28.767 13.9936 28.5436 14.016 28.3947 13.8893C28.2458 13.7626 28.2235 13.5391 28.3501 13.3901C28.9234 12.7046 29.7647 12.3246 30.6581 12.3619C31.5962 12.3991 32.4598 12.8983 32.9587 13.703C33.0629 13.8669 33.0108 14.083 32.847 14.1873C32.7949 14.2246 32.7279 14.2395 32.6609 14.2395Z" fill="black"/>
<path d="M29.7952 20.8178C29.6016 20.8178 29.4453 20.6614 29.4453 20.4676V18.6198C29.4453 18.5006 29.5048 18.3963 29.6016 18.3293L30.0409 18.0312L29.5793 17.6587C29.4974 17.5916 29.4453 17.4873 29.4453 17.383V16.9285C29.4453 16.094 30.0037 15.416 30.6813 15.416C31.3662 15.416 31.9171 16.094 31.9171 16.9285V20.4155C31.9171 20.6092 31.7608 20.7657 31.5672 20.7657C31.3736 20.7657 31.2173 20.6092 31.2173 20.4155V16.9285C31.2173 16.4889 30.9716 16.1164 30.6813 16.1164C30.3909 16.1164 30.1451 16.4889 30.1451 16.9285V17.2116L30.845 17.7779C30.9344 17.845 30.979 17.9567 30.979 18.0685C30.9716 18.1803 30.9195 18.2846 30.8227 18.3442L30.1451 18.8061V20.4676C30.1451 20.6539 29.9888 20.8178 29.7952 20.8178Z" fill="black"/>
<path d="M28.1935 21.8317C28.1265 21.8317 28.067 21.8168 28.0074 21.7795C27.8436 21.6752 27.7915 21.4591 27.8957 21.2952C28.3796 20.5203 29.4667 20.0137 30.658 20.0137C31.7896 20.0137 32.8245 20.4607 33.3383 21.176C33.4499 21.3325 33.4202 21.556 33.2638 21.6677C33.1075 21.7795 32.8841 21.7497 32.7724 21.5932C32.3852 21.0642 31.5588 20.7215 30.658 20.7215C29.7124 20.7215 28.8413 21.1015 28.4914 21.6677C28.4243 21.7721 28.3126 21.8317 28.1935 21.8317Z" fill="black"/>
<path d="M29.8165 22.651C29.9686 22.651 30.092 22.5275 30.092 22.3753C30.092 22.223 29.9686 22.0996 29.8165 22.0996C29.6643 22.0996 29.541 22.223 29.541 22.3753C29.541 22.5275 29.6643 22.651 29.8165 22.651Z" fill="black"/>
<path d="M31.4552 22.651C31.6073 22.651 31.7306 22.5275 31.7306 22.3753C31.7306 22.223 31.6073 22.0996 31.4552 22.0996C31.303 22.0996 31.1797 22.223 31.1797 22.3753C31.1797 22.5275 31.303 22.651 31.4552 22.651Z" fill="black"/>
<path d="M30.6818 23.858C30.834 23.858 30.9573 23.7346 30.9573 23.5823C30.9573 23.4301 30.834 23.3066 30.6818 23.3066C30.5297 23.3066 30.4062 23.4301 30.4062 23.5823C30.4062 23.7346 30.5297 23.858 30.6818 23.858Z" fill="black"/>
<path d="M21.1205 26.1897C20.9343 26.1897 20.778 26.0481 20.7706 25.8619C20.7557 25.6681 20.9045 25.4968 21.0981 25.4893C21.2991 25.4744 21.4555 25.3031 21.4407 25.1019C21.4332 25.0274 21.4109 24.9603 21.3662 24.9007C21.2471 24.7443 21.2768 24.5282 21.4332 24.409C21.5896 24.2898 21.8055 24.3196 21.9246 24.476C22.0586 24.6474 22.133 24.8486 22.1479 25.0646C22.1851 25.6532 21.731 26.1674 21.1428 26.2046C21.1354 26.1897 21.1279 26.1897 21.1205 26.1897Z" fill="black"/>
<path d="M28.8793 26.1902C28.8718 26.1902 28.8644 26.1902 28.8569 26.1902C28.4921 26.1678 28.1645 25.9667 27.9858 25.6463C27.889 25.4749 27.9486 25.2589 28.1199 25.1694C28.2911 25.0726 28.507 25.1322 28.5964 25.3035C28.6559 25.4153 28.7676 25.4824 28.8942 25.4898C29.0878 25.5047 29.2366 25.6686 29.2217 25.8624C29.2217 26.0412 29.0654 26.1902 28.8793 26.1902Z" fill="black"/>
<path d="M25.1863 26.2878C23.1835 26.2878 21.7093 25.7737 21.62 25.7439C21.4339 25.6769 21.337 25.4757 21.4041 25.2969C21.4711 25.1106 21.6721 25.0212 21.8508 25.0808C21.8805 25.0883 24.9629 26.1537 28.1718 25.1404C28.3579 25.0808 28.559 25.1851 28.6111 25.3714C28.6707 25.5577 28.5664 25.7588 28.3803 25.811C27.2635 26.1686 26.1617 26.2878 25.1863 26.2878Z" fill="black"/>
<path d="M24.3672 26.2573C24.2481 26.2573 24.129 26.1902 24.062 26.0785C23.9652 25.9071 24.0247 25.691 24.196 25.5942C24.2183 25.5793 25.3277 24.931 26.1988 23.5377C26.4445 23.1578 27.1517 22.5319 28.0898 22.8299C28.1568 22.8523 28.7153 23.0534 28.9461 23.6421C29.1173 24.0742 29.0503 24.5809 28.745 25.1471L28.4175 25.7059C28.3207 25.8773 28.1048 25.9294 27.9335 25.8326C27.7623 25.7357 27.7101 25.5197 27.8069 25.3483L28.1271 24.8044C28.3207 24.4467 28.3728 24.1413 28.2834 23.9103C28.1717 23.6197 27.8591 23.5079 27.8516 23.5079C27.2039 23.2993 26.7944 23.9028 26.7721 23.9252C25.7968 25.475 24.5757 26.1828 24.5236 26.2126C24.4864 26.2424 24.4268 26.2573 24.3672 26.2573Z" fill="black"/>
<path d="M26.1019 26.2567C25.953 26.2567 25.8114 26.1599 25.7668 26.0108C25.7072 25.8246 25.8115 25.6234 25.9976 25.5712C26.4741 25.4222 27.0399 24.5207 27.2782 23.9917C27.3601 23.8129 27.5686 23.7384 27.7472 23.8203C27.9259 23.9023 28.0004 24.1109 27.9185 24.2897C27.844 24.4611 27.1293 25.9587 26.2061 26.2493C26.1763 26.2493 26.1391 26.2567 26.1019 26.2567Z" fill="black"/>
</svg>
