<svg width="143" height="170" viewBox="0 0 143 170" fill="none" xmlns="http://www.w3.org/2000/svg">
<path fill-rule="evenodd" clip-rule="evenodd" d="M103 169C80.9075 169 63 151.092 63 129C63 106.908 80.9075 89 103 89C125.092 89 143 106.908 143 129C143 151.092 125.092 169 103 169ZM122.985 129.548L104.245 99L85.5 129.55L104.245 140.432L122.985 129.548ZM123 133.04L104.245 143.917L85.5 133.043L104.245 158.988L123 133.04Z" fill="#F499AD"/>
<path d="M104.245 99V121.175L122.988 129.55L104.245 99ZM104.245 143.92V158.988L123 133.04L104.245 143.92Z" fill="black" fill-opacity="0.298"/>
<path d="M104.245 140.432L122.988 129.55L104.245 121.18V140.432Z" fill="black" fill-opacity="0.801"/>
<path d="M85.5 129.55L104.245 140.432V121.18L85.5 129.55Z" fill="black" fill-opacity="0.298"/>
<path d="M41 169C63.0914 169 81 151.091 81 129C81 106.909 63.0914 89 41 89C18.9086 89 1 106.909 1 129C1 151.091 18.9086 169 41 169Z" fill="#F499AD" stroke="#1D1D1B" stroke-miterlimit="10"/>
<path d="M29.9753 137.569C30.5857 136.538 31.6539 135.375 33.199 134.078C33.6186 133.734 34.0574 133.372 34.5343 133.01C35.5262 132.266 36.4799 131.617 37.4145 131.102C38.5781 130.454 39.6844 129.977 40.7526 129.691C41.1151 129.595 41.4775 129.519 41.8208 129.462C41.9353 129.443 42.0498 129.424 42.1642 129.405C42.622 129.347 43.0607 129.309 43.4994 129.29C43.8809 129.271 44.2624 129.29 44.6439 129.309C45.0254 129.328 45.3879 129.385 45.7503 129.443C46.189 129.519 46.6086 129.614 47.0283 129.748C47.9439 130.034 48.8022 130.454 49.6415 130.988C50.6525 131.655 51.3773 132.399 51.8351 133.22C52.1975 133.887 52.3502 134.574 52.3311 135.299L52.8461 118.112C52.8652 117.387 52.6935 116.701 52.3502 116.033C51.9115 115.213 51.1866 114.45 50.1566 113.801C49.3173 113.267 48.4589 112.848 47.5433 112.561C47.1236 112.428 46.704 112.332 46.2653 112.256C45.9029 112.199 45.5213 112.142 45.1589 112.123C44.7774 112.104 44.415 112.085 44.0145 112.104C43.5758 112.123 43.137 112.161 42.6792 112.218C42.5648 112.237 42.4503 112.256 42.3359 112.275C41.9925 112.332 41.6301 112.409 41.2677 112.504C40.2186 112.79 39.0932 113.267 37.9296 113.916C37.014 114.431 36.0412 115.079 35.0493 115.823C34.5724 116.186 34.1336 116.548 33.714 116.891C32.1689 118.169 31.1008 119.333 30.4904 120.382" fill="#F68B38"/>
<path d="M30.4903 137.871L29.4412 137.261C30.0897 136.155 31.1961 134.953 32.7984 133.618C33.218 133.274 33.6758 132.912 34.1527 132.53C35.1636 131.767 36.1555 131.119 37.0902 130.585C38.2919 129.898 39.4746 129.402 40.5618 129.116C40.9433 129.021 41.3248 128.925 41.6873 128.868C41.8017 128.849 41.9352 128.83 42.0497 128.811C42.5266 128.753 42.9843 128.715 43.4421 128.696C43.8427 128.677 44.2433 128.696 44.6438 128.715C45.0444 128.734 45.445 128.792 45.8265 128.868C46.2843 128.944 46.7421 129.059 47.1808 129.192C48.1346 129.497 49.0692 129.936 49.9466 130.508C50.7096 131.004 51.32 131.557 51.7969 132.149L52.2166 118.129C52.2356 117.518 52.1021 116.927 51.7778 116.355C51.3772 115.611 50.7097 114.943 49.7941 114.333C49.012 113.818 48.1918 113.436 47.3334 113.169C46.9519 113.055 46.5322 112.94 46.1317 112.883C45.7883 112.826 45.4259 112.788 45.0826 112.75C44.7392 112.731 44.3768 112.711 43.9953 112.731C43.5756 112.75 43.156 112.788 42.7173 112.845C42.6028 112.864 42.4884 112.883 42.393 112.902C42.0687 112.96 41.7254 113.017 41.382 113.112C40.3711 113.379 39.3029 113.837 38.1775 114.466C37.281 114.962 36.3463 115.592 35.3735 116.336C34.8966 116.698 34.4579 117.041 34.0573 117.385C32.5695 118.625 31.5394 119.75 30.9672 120.723L29.918 120.113C30.5666 119.006 31.6729 117.805 33.2752 116.469C33.6949 116.126 34.1527 115.764 34.6295 115.382C35.6405 114.619 36.6324 113.97 37.5671 113.436C38.7688 112.75 39.9514 112.254 41.0387 111.968C41.4202 111.872 41.8017 111.777 42.1641 111.72C42.2786 111.701 42.393 111.681 42.5266 111.662C42.9843 111.605 43.4612 111.567 43.919 111.548C44.3196 111.529 44.7201 111.548 45.1207 111.567C45.5213 111.586 45.9028 111.643 46.3033 111.72C46.7611 111.796 47.219 111.91 47.6577 112.044C48.6114 112.349 49.5461 112.788 50.4235 113.36C51.5108 114.066 52.3119 114.905 52.8079 115.821C53.2084 116.584 53.3992 117.385 53.3802 118.205L52.8651 135.372C52.846 135.697 52.579 135.964 52.2357 135.964C51.9114 135.945 51.6443 135.678 51.6443 135.334C51.6634 134.724 51.5299 134.152 51.2056 133.56C50.805 132.816 50.1374 132.149 49.2218 131.538C48.4397 131.023 47.6195 130.642 46.7612 130.375C46.3797 130.26 45.9791 130.146 45.5594 130.089C45.2161 130.032 44.8536 129.993 44.5103 129.955C44.1479 129.936 43.7855 129.917 43.4231 129.936C43.0034 129.955 42.5838 129.993 42.1641 130.051C42.0497 130.07 41.9352 130.089 41.8398 130.108C41.5156 130.165 41.1722 130.222 40.8289 130.318C39.8179 130.585 38.7497 131.042 37.6243 131.672C36.7278 132.168 35.7931 132.797 34.8203 133.541C34.3434 133.904 33.9047 134.247 33.5041 134.59C32.0926 135.773 31.0626 136.898 30.4903 137.871Z" fill="black"/>
<path d="M30.0136 121.391L29.4985 138.577C29.4222 138.787 29.3841 139.016 29.365 139.206L29.88 122.02C29.9182 121.81 29.9564 121.6 30.0136 121.391Z" fill="#945322"/>
<path d="M29.3838 139.206C29.3838 139.225 29.3838 139.244 29.3838 139.263C29.3838 139.321 29.3838 139.378 29.3838 139.435L29.8988 122.249C29.8988 122.191 29.8988 122.134 29.8988 122.077C29.8988 122.058 29.8988 122.039 29.8988 122.02" fill="#8F5120"/>
<path d="M64.6527 119.27L64.1377 136.456C64.1377 136.647 64.1187 136.838 64.0996 137.028L64.6146 119.842C64.6337 119.651 64.6527 119.46 64.6527 119.27Z" fill="#8F5120"/>
<path d="M64.1953 121.865C63.9091 122.8 63.4704 123.754 62.8982 124.726C62.7837 124.917 62.6693 125.127 62.5358 125.318L62.0208 142.504C62.1543 142.313 62.2687 142.104 62.3831 141.913C62.9554 140.94 63.3941 139.986 63.6803 139.052C63.8901 138.365 64.0236 137.697 64.0999 137.049L64.6149 119.862C64.5577 120.511 64.4051 121.178 64.1953 121.865Z" fill="#F68B38"/>
<path d="M62.0206 143.095C61.9633 143.095 61.9061 143.095 61.8488 143.075C61.5818 142.999 61.4101 142.751 61.4292 142.484L61.9442 125.298C61.9442 125.183 61.9824 125.088 62.0396 124.992C62.154 124.802 62.2876 124.611 62.402 124.42C62.9552 123.486 63.3748 122.57 63.6419 121.692C63.8326 121.063 63.9662 120.415 64.0234 119.804C64.0615 119.48 64.3286 119.251 64.6528 119.251C64.9771 119.27 65.2251 119.537 65.2251 119.861L64.7101 137.048C64.6338 137.792 64.5003 138.497 64.2714 139.222C63.9662 140.195 63.5084 141.206 62.9171 142.217C62.8026 142.427 62.6691 142.618 62.5356 142.827C62.4211 142.999 62.2304 143.095 62.0206 143.095ZM63.1269 125.507L62.7072 139.966C62.8598 139.604 62.9933 139.222 63.1078 138.879C63.2985 138.25 63.4321 137.601 63.4893 136.991L63.8708 124.21C63.7373 124.497 63.5656 124.764 63.413 125.05C63.3367 125.183 63.2413 125.355 63.1269 125.507Z" fill="black"/>
<path d="M62.5358 125.317L62.0208 142.503L51.2434 138.001L51.7585 120.834L62.5358 125.317Z" fill="#F68B38"/>
<path d="M62.0207 143.095C61.9444 143.095 61.868 143.076 61.7917 143.057L51.0144 138.555C50.7855 138.46 50.6329 138.231 50.652 137.983L51.1671 120.796C51.1671 120.606 51.2815 120.415 51.4341 120.3C51.6057 120.186 51.8156 120.167 51.9873 120.243L62.7645 124.745C62.9934 124.84 63.1461 125.069 63.127 125.317L62.612 142.503C62.612 142.694 62.4975 142.885 62.3449 142.999C62.2495 143.076 62.1351 143.095 62.0207 143.095ZM51.8728 137.601L61.4484 141.588L61.9253 125.699L52.3497 121.712L51.8728 137.601Z" fill="black"/>
<path d="M46.7989 135.83C45.7307 136.117 44.6816 136.326 43.6325 136.479C43.4227 136.498 43.2319 136.536 43.0221 136.555C42.3735 136.632 41.725 136.67 41.0765 136.689C40.2944 136.708 39.5123 136.689 38.7302 136.651C37.9291 136.593 37.1089 136.498 36.3268 136.365C35.8118 136.269 35.3158 136.174 34.8008 136.04C34.4002 135.945 33.9806 135.83 33.5801 135.697C31.272 134.972 28.8686 133.789 26.3698 132.168C22.8028 129.841 20.3612 127.571 19.045 125.377C18.1485 123.89 17.7288 122.23 17.767 120.418L17.252 137.604C17.1947 139.417 17.6144 141.076 18.53 142.564C19.8461 144.757 22.2877 147.027 25.8547 149.355C28.3535 150.995 30.7569 152.178 33.065 152.883C33.4846 153.017 33.8852 153.131 34.2858 153.227C34.7818 153.36 35.2968 153.456 35.8118 153.551C36.6129 153.685 37.4141 153.799 38.2152 153.837C38.9973 153.894 39.7794 153.913 40.5615 153.875C41.21 153.856 41.8585 153.818 42.5071 153.742C42.7169 153.723 42.9077 153.704 43.1175 153.665C44.1666 153.513 45.2348 153.303 46.2839 153.017C47.8481 152.597 49.4313 152.006 51.0336 151.281L51.5485 134.095C49.9463 134.839 48.3631 135.411 46.7989 135.83Z" fill="#F68B38"/>
<path d="M39.8365 154.485C39.2834 154.485 38.7111 154.466 38.177 154.428C37.3568 154.371 36.5175 154.275 35.6973 154.123C35.1822 154.027 34.6481 153.913 34.1331 153.799C33.7135 153.703 33.2939 153.589 32.8742 153.455C30.528 152.711 28.0483 151.51 25.5113 149.85C21.868 147.466 19.3501 145.12 17.9958 142.85C17.042 141.266 16.5843 139.492 16.6415 137.566L17.1565 120.379C17.1756 120.055 17.4426 119.788 17.7669 119.788H17.786C18.1103 119.807 18.3773 120.074 18.3773 120.418C18.3201 122.096 18.7206 123.66 19.5599 125.034C20.8189 127.132 23.2223 129.364 26.713 131.634C29.1546 133.236 31.5389 134.399 33.7707 135.105C34.1713 135.239 34.5719 135.334 34.9534 135.43C35.4493 135.544 35.9453 135.658 36.4412 135.735C37.2233 135.868 38.0053 135.964 38.7874 136.021C39.5504 136.078 40.3134 136.097 41.0764 136.059C41.7059 136.04 42.3353 136.002 42.9839 135.925C43.1746 135.906 43.3654 135.887 43.5752 135.849C44.6052 135.716 45.6353 135.506 46.6653 135.22C48.1913 134.8 49.7554 134.228 51.3005 133.522C51.4912 133.427 51.7201 133.446 51.8918 133.56C52.0635 133.675 52.178 133.865 52.1589 134.075L51.6439 151.262C51.6439 151.491 51.5103 151.7 51.3005 151.796C49.6982 152.54 48.0578 153.131 46.4555 153.57C45.3682 153.856 44.281 154.085 43.2128 154.237C43.0029 154.256 42.7931 154.295 42.6024 154.314C41.9347 154.39 41.2671 154.428 40.5995 154.447C40.3325 154.485 40.0845 154.485 39.8365 154.485ZM18.2056 125.148L17.8432 137.585C17.786 139.264 18.1866 140.828 19.0258 142.22C20.2848 144.318 22.6882 146.55 26.1789 148.82C28.6205 150.422 31.0048 151.586 33.2366 152.292C33.6372 152.425 34.0378 152.521 34.4193 152.616C34.9152 152.73 35.4112 152.845 35.9071 152.921C36.6892 153.055 37.4712 153.15 38.2533 153.207C39.0163 153.265 39.7793 153.284 40.5423 153.245C41.1718 153.226 41.8012 153.188 42.4498 153.112C42.6405 153.093 42.8504 153.074 43.0411 153.036C44.0711 152.902 45.1012 152.692 46.1312 152.406C47.5618 152.025 49.0115 151.51 50.4422 150.861L50.919 135.029C49.6029 135.601 48.2676 136.059 46.9705 136.402C45.8833 136.688 44.796 136.917 43.7278 137.07C43.5179 137.089 43.3082 137.127 43.1174 137.146C42.4498 137.223 41.7821 137.261 41.1145 137.28C40.3134 137.299 39.4932 137.28 38.7111 137.242C37.8909 137.184 37.0516 137.089 36.2314 136.936C35.7163 136.841 35.1822 136.727 34.6672 136.612C34.2476 136.517 33.828 136.383 33.4083 136.269C31.0621 135.544 28.5823 134.323 26.0454 132.664C22.4021 130.279 19.8842 127.933 18.5299 125.663C18.3964 125.492 18.301 125.32 18.2056 125.148Z" fill="black"/>
<path d="M56.7937 108.435C60.933 111.143 63.4318 113.852 64.2711 116.561C65.1295 119.269 64.5381 122.188 62.5353 125.316L51.758 120.814C52.3493 119.918 52.6927 119.193 52.769 118.659C52.9025 117.762 52.7498 116.885 52.3111 116.065C51.8724 115.245 51.1476 114.482 50.1175 113.833C47.8095 112.326 45.2153 111.811 42.2968 112.288C40.1223 112.631 37.6998 113.814 35.0293 115.836C31.7103 118.354 29.9936 120.433 29.8791 122.073C29.7647 123.733 30.6993 125.202 32.7022 126.518C34.6478 127.796 36.6126 128.368 38.5963 128.273C40.5801 128.177 42.7356 127.548 45.0818 126.422L51.5291 134.091C48.6679 135.426 45.8257 136.246 43.0217 136.551C40.2177 136.856 37.4709 136.685 34.7814 136.036C32.1109 135.369 29.2878 134.09 26.3503 132.164C22.7833 129.837 20.3417 127.567 19.0255 125.373C17.7093 123.18 17.4042 120.643 18.1481 117.762C18.8729 114.882 21.1047 112.04 24.8052 109.236C29.7456 105.497 34.9912 103.552 40.542 103.437C46.0927 103.323 51.51 104.982 56.7937 108.435Z" fill="#FBB33B"/>
<path d="M40.3512 137.298C38.4056 137.298 36.4981 137.069 34.6478 136.611C31.9201 135.943 29.0207 134.608 26.0259 132.643C22.3826 130.259 19.8648 127.913 18.5104 125.643C17.118 123.316 16.7937 120.607 17.5567 117.574C18.3197 114.58 20.6278 111.604 24.4428 108.724C29.4785 104.928 34.8767 102.925 40.542 102.81C46.2072 102.715 51.777 104.413 57.1371 107.922C61.3717 110.688 63.9659 113.53 64.8624 116.373C65.7589 119.234 65.1485 122.362 63.0503 125.643C62.8977 125.891 62.5734 125.986 62.3064 125.872L51.5291 121.37C51.3574 121.294 51.2429 121.16 51.1857 120.989C51.1285 120.817 51.1666 120.626 51.262 120.474C51.8152 119.653 52.1204 119.005 52.1776 118.566C52.2921 117.784 52.1776 117.059 51.7961 116.334C51.3955 115.591 50.7279 114.923 49.8123 114.313C47.6568 112.901 45.1581 112.405 42.4303 112.863C40.3703 113.187 38.005 114.332 35.4299 116.296C31.5005 119.272 30.5849 121.103 30.5086 122.114C30.4132 123.545 31.2334 124.823 33.0646 126.005C34.8767 127.188 36.727 127.76 38.5963 127.665C40.4847 127.57 42.6021 126.959 44.8529 125.872C45.1009 125.757 45.406 125.815 45.5777 126.025L52.025 133.693C52.1395 133.845 52.1967 134.036 52.1585 134.208C52.1204 134.398 51.9869 134.551 51.8152 134.627C48.9158 135.982 45.9783 136.821 43.1171 137.145C42.1633 137.26 41.2477 137.298 40.3512 137.298ZM41.076 104.031C40.9044 104.031 40.7327 104.031 40.542 104.031C35.1438 104.146 29.9745 106.053 25.1485 109.696C21.5624 112.405 19.407 115.152 18.7012 117.88C18.0145 120.588 18.2816 122.992 19.5215 125.033C20.7804 127.131 23.1838 129.363 26.6745 131.633C29.5548 133.521 32.3207 134.799 34.9148 135.428C37.509 136.077 40.1986 136.249 42.9454 135.943C45.4442 135.657 48.0002 134.971 50.5563 133.864L44.9291 127.169C42.6974 128.199 40.5801 128.79 38.6345 128.886C36.5362 128.981 34.4189 128.371 32.3779 127.035C30.1843 125.605 29.1543 123.926 29.2878 122.038C29.4213 120.188 31.1953 117.994 34.686 115.362C37.4327 113.282 39.9697 112.062 42.2396 111.699C45.2916 111.203 48.0574 111.756 50.4799 113.34C51.5672 114.045 52.3684 114.885 52.8643 115.8C53.3602 116.735 53.551 117.746 53.3794 118.776C53.3031 119.272 53.0742 119.863 52.6545 120.569L62.3064 124.594C63.985 121.79 64.4618 119.158 63.7179 116.773C62.9168 114.217 60.4942 111.585 56.4885 108.972C51.4718 105.672 46.3026 104.031 41.076 104.031Z" fill="black"/>
<path d="M37.223 141.206C39.4985 141.206 41.3431 139.361 41.3431 137.086C41.3431 134.81 39.4985 132.966 37.223 132.966C34.9475 132.966 33.1028 134.81 33.1028 137.086C33.1028 139.361 34.9475 141.206 37.223 141.206Z" fill="#F68B38"/>
<path d="M37.2039 141.818C36.2311 141.818 35.2774 141.512 34.4763 140.94C33.4462 140.215 32.7595 139.109 32.5497 137.869C32.1109 135.294 33.8659 132.852 36.441 132.414C37.6808 132.204 38.9397 132.49 39.9698 133.234C40.9998 133.959 41.6865 135.065 41.8963 136.305C42.1062 137.545 41.8201 138.804 41.0761 139.834C40.3513 140.864 39.2449 141.551 38.0051 141.76C37.738 141.799 37.471 141.818 37.2039 141.818ZM37.223 133.558C37.0323 133.558 36.8224 133.577 36.6317 133.615C35.697 133.768 34.8959 134.283 34.3427 135.046C33.7895 135.809 33.5797 136.744 33.7323 137.678C33.8849 138.613 34.3999 139.414 35.1629 139.967C35.9259 140.52 36.8606 140.73 37.7953 140.578C38.7299 140.425 39.5311 139.91 40.0843 139.147C40.6374 138.384 40.8472 137.449 40.6946 136.515C40.542 135.58 40.027 134.779 39.264 134.226C38.6536 133.787 37.9479 133.558 37.223 133.558Z" fill="black"/>
<path d="M60.1759 118.423C60.4215 117.705 59.8933 116.875 58.9963 116.568C58.0993 116.261 57.173 116.593 56.9274 117.311C56.6818 118.029 57.2099 118.859 58.1069 119.166C59.0039 119.473 59.9303 119.14 60.1759 118.423Z" fill="#F68B38"/>
<path d="M58.8353 119.901C58.5492 119.901 58.244 119.844 57.9579 119.749C56.7562 119.329 56.0504 118.165 56.4129 117.135C56.7562 116.105 58.0342 115.609 59.2359 116.029C59.7891 116.22 60.266 116.582 60.5712 117.04C60.8954 117.536 60.9717 118.127 60.8001 118.642C60.6284 119.157 60.2088 119.558 59.6365 119.768C59.3695 119.863 59.1024 119.901 58.8353 119.901ZM58.3585 117.097C57.977 117.097 57.6336 117.269 57.5383 117.536C57.4047 117.917 57.7671 118.413 58.3394 118.623C58.6446 118.719 58.9498 118.738 59.2169 118.642C59.3313 118.604 59.5602 118.49 59.6365 118.261C59.7128 118.032 59.5983 117.822 59.5411 117.708C59.3885 117.479 59.1405 117.288 58.8353 117.193C58.6827 117.116 58.5111 117.097 58.3585 117.097Z" fill="black"/>
<path d="M30.2532 114.901C30.2833 113.564 28.9587 112.449 27.2947 112.412C25.6307 112.374 24.2575 113.428 24.2274 114.766C24.1973 116.103 25.5217 117.218 27.1857 117.255C28.8497 117.293 30.2231 116.239 30.2532 114.901Z" fill="#F68B38"/>
<path d="M27.362 117.9C27.3238 117.9 27.3048 117.9 27.2666 117.9C26.332 117.881 25.4354 117.557 24.7869 117.004C24.0811 116.412 23.7187 115.63 23.7378 114.791C23.7569 113.952 24.1765 113.189 24.9013 112.636C25.588 112.101 26.5036 111.834 27.4192 111.853C29.403 111.892 31.0053 113.303 30.9672 114.963C30.9099 116.584 29.3076 117.9 27.362 117.9ZM27.2857 113.036C26.6371 113.036 26.0458 113.227 25.588 113.57C25.1493 113.894 24.9204 114.333 24.9013 114.791C24.8822 115.249 25.1112 115.707 25.5308 116.05C25.9886 116.431 26.599 116.66 27.2666 116.66C28.5828 116.698 29.6891 115.897 29.7082 114.886C29.7273 113.875 28.6781 113.036 27.3429 113.017C27.3429 113.036 27.3238 113.036 27.2857 113.036Z" fill="black"/>
<path d="M39.0616 108.695C39.0808 107.842 38.234 107.131 37.1703 107.107C36.1066 107.083 35.2288 107.756 35.2096 108.609C35.1904 109.462 36.0371 110.173 37.1008 110.197C38.1645 110.221 39.0424 109.548 39.0616 108.695Z" fill="#F68B38"/>
<path d="M37.2423 110.821C37.2232 110.821 37.2042 110.821 37.166 110.821C36.5175 110.802 35.9071 110.593 35.4493 110.192C34.9533 109.772 34.6863 109.2 34.6863 108.609C34.7054 108.018 34.9915 107.464 35.5065 107.064C35.9834 106.701 36.6129 106.511 37.2614 106.53C37.9099 106.549 38.5203 106.759 38.9781 107.159C39.4741 107.579 39.7411 108.151 39.7411 108.742C39.722 109.334 39.4359 109.887 38.9209 110.287C38.4631 110.631 37.8718 110.821 37.2423 110.821ZM37.2042 107.75C36.8418 107.75 36.4984 107.865 36.2504 108.056C36.1169 108.151 35.9071 108.361 35.9071 108.666C35.9071 108.971 36.0978 109.181 36.2313 109.296C36.4793 109.505 36.8418 109.62 37.2042 109.639C37.5666 109.658 37.929 109.544 38.196 109.334C38.3296 109.238 38.5394 109.028 38.5394 108.723C38.5394 108.418 38.3487 108.208 38.2151 108.094C37.9672 107.884 37.6047 107.77 37.2423 107.75C37.2232 107.75 37.2233 107.75 37.2042 107.75Z" fill="black"/>
<path d="M43.5748 147.846C44.6388 147.846 45.5014 146.984 45.5014 145.92C45.5014 144.856 44.6388 143.993 43.5748 143.993C42.5108 143.993 41.6482 144.856 41.6482 145.92C41.6482 146.984 42.5108 147.846 43.5748 147.846Z" fill="#F68B38"/>
<path d="M43.575 148.456C43.5559 148.456 43.5369 148.456 43.5178 148.456C42.1253 148.418 41.019 147.273 41.0381 145.862C41.0762 144.488 42.2016 143.382 43.5559 143.382C43.575 143.382 43.5941 143.382 43.6131 143.382C44.2808 143.401 44.9103 143.668 45.3872 144.164C45.8449 144.66 46.112 145.289 46.0929 145.976C46.0738 146.644 45.8068 147.273 45.3108 147.75C44.853 148.208 44.2236 148.456 43.575 148.456ZM43.575 144.603C42.8502 144.603 42.2779 145.175 42.2588 145.9C42.2398 146.625 42.8311 147.235 43.5559 147.254C43.9374 147.273 44.2427 147.14 44.4906 146.892C44.7386 146.644 44.8912 146.319 44.8912 145.957C44.8912 145.614 44.7767 145.27 44.5288 145.022C44.2808 144.774 43.9565 144.622 43.5941 144.622C43.5941 144.603 43.575 144.603 43.575 144.603Z" fill="black"/>
<path d="M29.5756 55.4859C29.6882 55.4607 29.8233 55.4076 29.9698 55.3403C30.2627 55.2059 30.6256 55.2429 30.8785 55.4455L38.3109 61.3976C38.5638 61.6002 38.6785 61.9457 38.6104 62.2602C38.5764 62.4174 38.5536 62.5606 38.5534 62.6757C38.5302 63.0492 39.0673 63.2718 39.2929 62.9912L45.6668 55.0665C45.8699 54.814 45.8705 54.4686 45.6768 54.2212C45.3764 53.8192 44.9132 53.2176 44.4638 52.7424C44.1409 52.3685 43.7609 52.4101 43.5465 52.6766C43.3886 52.873 43.3318 53.1734 43.4465 53.5189C43.718 54.359 44.2372 55.1207 43.064 56.5794L41.9471 57.968C41.7441 58.2205 41.4401 58.2538 41.1872 58.0512L33.7829 52.1216L33.6424 52.0091C33.4036 51.8178 33.2775 51.4862 33.3175 51.1493C33.3318 51.0454 33.3433 50.9162 33.3548 50.7871C33.378 50.4136 32.8409 50.191 32.604 50.4856L29.1068 54.8337C28.8812 55.1142 29.2152 55.5893 29.5756 55.4859Z" fill="black"/>
<path d="M39.3274 43.859C39.4325 43.8552 39.5776 43.8468 39.7378 43.8286C40.068 43.8073 40.4016 43.9556 40.5791 44.2267L45.8028 52.2094C45.9303 52.47 45.937 52.809 45.7796 53.0615C45.7133 53.1904 45.632 53.329 45.5959 53.4383C45.4575 53.7857 45.899 54.1644 46.216 53.9585L50.8809 50.9296C51.1979 50.7237 51.0283 50.1686 50.6533 50.1545C50.5233 50.153 50.4084 50.1418 50.2883 50.1554C49.9482 50.1617 49.6297 50.0036 49.4621 49.7476L48.3188 48.0004L48.9378 47.5985C53.1347 44.8735 54.9185 41.9125 53.243 39.352C51.5674 36.7915 48.0778 37.2116 43.921 39.9321L39.0848 43.0937C38.7828 43.2898 38.9525 43.8449 39.3274 43.859ZM44.3763 41.9757L44.1989 41.7046C44.0215 41.4335 44.0745 41.1201 44.3463 40.9436C46.6207 39.4883 48.2432 39.7654 49.5541 41.7686C50.8551 43.7568 50.4146 45.3519 48.1803 46.8026C47.9086 46.9791 47.6091 46.916 47.4317 46.6449L44.3763 41.9757Z" fill="black"/>
<path d="M60.8535 32.4586C60.949 32.5023 61.0822 32.5598 61.2334 32.6154C61.5378 32.7443 61.7688 33.0264 61.8051 33.3484L62.8734 42.8284C62.8699 43.1186 62.7233 43.4247 62.469 43.58C62.3519 43.6655 62.2168 43.7531 62.1355 43.8346C61.8555 44.0832 62.079 44.6197 62.4547 44.5777L67.9822 43.9597C68.3579 43.9177 68.4564 43.3452 68.1281 43.1645C68.0127 43.105 67.9152 43.0434 67.8018 43.0018C67.4955 42.8549 67.2823 42.5708 67.248 42.2668L67.0142 40.1919L67.7476 40.1099C72.7207 39.5538 75.6461 37.7053 75.3034 34.6645C74.9607 31.6238 71.6569 30.4356 66.7217 31.0055L60.9815 31.6655C60.6237 31.7055 60.5252 32.278 60.8535 32.4586ZM66.2079 33.0372L66.1717 32.7152C66.1354 32.3933 66.3238 32.1367 66.6458 32.1007C69.3311 31.8186 70.6546 32.7935 70.9227 35.1725C71.1888 37.5335 70.0774 38.7626 67.4299 39.0587C67.1079 39.0947 66.8691 38.904 66.8328 38.5821L66.2079 33.0372Z" fill="black"/>
<path d="M78.2243 36.5719C77.2398 40.556 78.9995 43.7144 83.4564 44.8119C87.9132 45.9094 90.9774 43.9389 91.9445 39.9504C92.929 35.9663 91.1561 32.7861 86.6992 31.6886C82.2424 30.5911 79.2088 32.5877 78.2243 36.5719ZM85.7848 32.6128C87.6936 32.8418 88.0278 35.2413 87.6309 38.5731C87.2209 41.883 86.332 44.1297 84.4057 43.8963C82.4969 43.6673 82.1235 41.2766 82.5379 37.9492C82.9347 34.6174 83.8761 32.3837 85.7848 32.6128Z" fill="black"/>
<path d="M94.2448 40.8211C91.935 44.2134 92.4891 47.781 96.2924 50.3506C100.096 52.9202 103.658 52.1338 105.953 48.7314C108.263 45.3392 107.704 41.7465 103.901 39.1769C100.097 36.6074 96.5546 37.4288 94.2448 40.8211ZM102.721 39.7266C104.433 40.6013 103.913 42.9649 102.382 45.9492C100.846 48.9085 99.2298 50.706 97.5022 49.8212C95.7895 48.9464 96.2702 46.5775 97.8162 43.6033C99.3474 40.6191 101.008 38.8518 102.721 39.7266Z" fill="black"/>
<path d="M112.028 46.7736C112.026 46.8886 112.046 47.0321 112.077 47.1897C112.14 47.5051 112.019 47.8482 111.762 48.0459L104.218 53.8554C103.961 54.0531 103.597 54.0833 103.306 53.9437C103.161 53.8738 103.027 53.8182 102.914 53.7911C102.556 53.6811 102.213 54.1495 102.434 54.4339L108.669 62.4683C108.867 62.7243 109.204 62.8058 109.491 62.676C109.953 62.479 110.648 62.171 111.217 61.8467C111.657 61.6213 111.705 61.2433 111.496 60.9731C111.341 60.774 111.062 60.6485 110.698 60.6788C109.815 60.7451 108.951 61.0699 107.803 59.5911L106.71 58.1833C106.512 57.9273 106.55 57.6249 106.807 57.4272L114.323 51.6397L114.466 51.5299C114.708 51.3432 115.061 51.2987 115.38 51.4164C115.478 51.4545 115.601 51.4959 115.725 51.5373C116.083 51.6473 116.426 51.1789 116.194 50.8802L112.773 46.472C112.553 46.1876 112.011 46.4 112.028 46.7736Z" fill="black"/>
<path d="M16.0045 49.9183C19.4352 51.8304 23.1342 51.2107 25.539 47.3011C27.5289 44.0662 27.3295 41.2297 24.8033 39.2556C24.3332 38.8863 23.7995 38.6889 23.4858 39.1302C23.1343 39.6328 23.5668 40.0635 23.96 40.3862C25.5756 41.7448 25.9079 43.6094 24.9554 45.1579C23.4748 47.565 20.9484 47.2748 18.6333 46.2287C15.5785 44.8393 13.7201 43.2913 14.5197 41.5448C15.0696 40.3415 16.1265 39.551 17.9347 40.837C19.3308 41.8311 20.6587 41.1839 21.362 39.8C22.2197 38.1308 20.8315 36.9522 19.6911 36.7448C17.7475 36.366 15.6402 37.5931 13.9238 40.3835C11.519 44.2931 12.4294 47.8975 16.0045 49.9183Z" fill="black"/>
<path d="M28.6601 41.6935L32.6197 37.7618C32.888 37.4955 32.607 36.9882 32.2366 37.0516C32.1088 37.077 31.9811 37.1023 31.8789 37.1277C31.5468 37.2038 31.2019 37.115 30.9848 36.8994L27.8426 33.7795L30.9848 30.6595L34.127 33.7795C34.3441 34.0204 34.4335 34.3629 34.3313 34.6673C34.2802 34.8194 34.2419 34.959 34.2164 35.0858C34.1653 35.4409 34.6762 35.7199 34.9317 35.4663L38.8913 31.5346C39.1467 31.281 38.8785 30.761 38.5081 30.8244C38.3804 30.8498 38.2526 30.8751 38.1377 30.9132C37.8184 30.9766 37.4735 30.8878 37.2563 30.6722L30.6272 24.0899L30.4994 23.9631C30.2823 23.7475 30.1929 23.405 30.2567 23.088C30.2951 22.9738 30.3206 22.847 30.3461 22.7202C30.41 22.3524 29.8863 22.086 29.6309 22.3397L25.6712 26.2713C25.4158 26.525 25.6968 27.0323 26.0544 26.9815C26.1822 26.9562 26.3227 26.9181 26.4759 26.8674C26.7825 26.7659 27.1274 26.8547 27.37 27.0703L30.2184 29.8986L27.0763 33.0185L24.3556 30.3171L24.2279 30.1903C24.0107 29.9747 23.9213 29.6322 23.998 29.3025C24.0235 29.201 24.0491 29.0742 24.0746 28.9474C24.1385 28.5796 23.6276 28.3005 23.3593 28.5669L19.3997 32.4985C19.1442 32.7522 19.4252 33.2595 19.7957 33.1961C19.9106 33.1834 20.0511 33.1453 20.2044 33.0946C20.5109 32.9931 20.8686 33.0692 21.0985 33.2975L27.8554 40.0067C28.0853 40.235 28.162 40.5901 28.0598 40.8945C28.0087 41.0466 27.9704 41.1862 27.9576 41.3003C27.8937 41.6681 28.4047 41.9471 28.6601 41.6935Z" fill="black"/>
<path d="M32.7493 20.9998C32.864 21.0141 33.0095 21.0095 33.1703 20.9956C33.4919 20.9677 33.8221 21.1245 33.9928 21.3998L38.9926 29.4613C39.1634 29.7366 39.1557 30.0999 38.9859 30.3726C38.901 30.5089 38.8315 30.6358 38.7926 30.7439C38.6454 31.0871 39.0777 31.4768 39.3849 31.289L48.5221 25.7019C48.7985 25.5329 48.915 25.2085 48.8151 24.9109C48.6665 24.4321 48.4311 23.711 48.1663 23.1134C47.9869 22.6534 47.6143 22.5648 47.3225 22.7432C47.1075 22.8747 46.9531 23.1379 46.9454 23.5013C46.9198 24.382 47.1543 25.2724 45.5572 26.2489L43.5762 27.4603C43.2998 27.6293 43.0016 27.5584 42.8309 27.2831L40.4021 23.3671L41.5078 22.691C43.5042 21.4703 43.5875 23.1072 44.3165 22.7458C45.1625 22.334 42.9966 18.637 42.2017 19.1653C41.4836 19.6466 42.9444 20.5678 40.9481 21.7885L39.8424 22.4646L37.8501 19.2522L37.6793 18.9769C37.5085 18.7015 37.579 18.4053 37.8554 18.2363L39.5293 17.2128C41.1264 16.2362 41.8311 16.8602 42.6347 17.2338C42.9554 17.3753 43.2616 17.3568 43.4613 17.2347C43.7531 17.0563 43.8506 16.7013 43.5235 16.3106C43.0898 15.8162 42.5721 15.2888 42.2085 14.9416C41.9763 14.7038 41.6167 14.6705 41.3403 14.8395L32.5256 20.2294C32.2185 20.4172 32.3744 20.9759 32.7493 20.9998Z" fill="black"/>
<path d="M45.8252 13.2566C45.9342 13.295 46.0771 13.3216 46.2371 13.3423C46.557 13.3836 46.8457 13.6073 46.9533 13.9129L50.1046 22.8601C50.2122 23.1657 50.1268 23.5193 49.9026 23.7496C49.7905 23.8648 49.6954 23.974 49.6343 24.0714C49.417 24.3755 49.7554 24.8487 50.0954 24.7306L60.2128 21.2174C60.5189 21.1112 60.7022 20.8189 60.6686 20.5066C60.6262 20.0069 60.551 19.2517 60.4208 18.611C60.3444 18.1231 59.9996 17.957 59.6765 18.0692C59.4385 18.1519 59.2312 18.3762 59.1459 18.7298C58.9319 19.5853 58.9699 20.5058 57.2014 21.1199L55.0079 21.8816C54.7018 21.9878 54.426 21.855 54.3184 21.5494L52.7876 17.2031L54.0119 16.7779C56.2224 16.0103 55.9526 17.6284 56.7417 17.4306C57.6558 17.2084 56.3347 13.1323 55.4454 13.4792C54.6412 13.7966 55.8696 15.0087 53.6591 15.7762L52.4348 16.2014L51.1791 12.636L51.0715 12.3304C50.9638 12.0248 51.0961 11.7503 51.4022 11.644L53.2556 11.0004C55.024 10.3863 55.5781 11.1466 56.2824 11.6833C56.5651 11.89 56.868 11.9372 57.089 11.8605C57.4121 11.7483 57.5834 11.422 57.348 10.9703C57.0307 10.3945 56.6385 9.76855 56.358 9.35148C56.1824 9.0695 55.8385 8.96024 55.5325 9.06652L45.7722 12.4557C45.4321 12.5738 45.4644 13.1533 45.8252 13.2566Z" fill="black"/>
<path d="M62.1013 17.2748C62.4274 19.2673 65.2463 20.3761 69.0583 19.966C72.6019 19.5847 74.9512 17.8836 74.805 15.3829C74.5553 10.9381 65.099 11.3943 64.6782 9.03179C64.5149 8.19848 65.5024 7.45859 66.9556 7.50137C69.208 7.56679 69.3783 9.95629 71.3235 10.5255C71.6037 10.6039 71.878 10.6287 72.1285 10.6018C73.0055 10.5074 73.6728 9.82009 73.2634 8.72359C72.7789 7.43604 70.3996 6.20752 66.8918 6.58494C63.5969 6.92136 61.3331 8.57703 61.6046 11.0643C62.0928 15.5377 71.5432 15.0278 71.3969 17.6686C71.3474 18.5429 70.4637 19.0725 69.2132 19.0622C65.8274 19.0644 65.9539 15.4119 63.4904 15.5684C62.536 15.6167 61.95 16.3858 62.1013 17.2748Z" fill="black"/>
<path d="M77.3907 6.80781C77.4718 6.88968 77.5886 6.97568 77.7233 7.06376C77.9927 7.23992 78.154 7.56663 78.1165 7.88845L77.0186 17.3107C76.9811 17.6325 76.749 17.9137 76.4463 18.0236C76.2949 18.0786 76.1614 18.1356 76.0636 18.1968C75.7347 18.3761 75.831 18.949 76.1886 18.9904L86.8276 20.2221C87.1494 20.2594 87.4426 20.0759 87.5496 19.7802C87.731 19.312 87.9952 18.5997 88.1596 17.9664C88.3052 17.494 88.0683 17.1948 87.7286 17.1554C87.4782 17.1264 87.1934 17.2384 86.9612 17.5196C86.3931 18.1967 86.0228 19.0418 84.1632 18.8265L81.8566 18.5594C81.5347 18.5221 81.3452 18.2828 81.3827 17.9609L81.916 13.3839L83.2034 13.5329C85.5279 13.8021 84.5745 15.1413 85.3708 15.306C86.2901 15.503 86.8932 11.2602 85.9414 11.1863C85.079 11.1227 85.6508 12.7472 83.3263 12.4781L82.0389 12.329L82.4764 8.57443L82.5139 8.25261C82.5514 7.93079 82.791 7.74108 83.1128 7.77835L85.0618 8.00399C86.9214 8.21929 87.0854 9.14429 87.4828 9.93323C87.6461 10.2421 87.8977 10.4162 88.1301 10.4431C88.4699 10.4824 88.7672 10.2631 88.754 9.75425C88.7218 9.09818 88.6442 8.36439 88.5752 7.86716C88.5412 7.53706 88.2801 7.28939 87.9583 7.25213L77.6948 6.06385C77.3372 6.02245 77.1117 6.55807 77.3907 6.80781Z" fill="black"/>
<path d="M89.76 21.8713L99.1271 8.82511L98.2117 8.55648L88.8446 21.6026L89.76 21.8713Z" fill="black"/>
<path d="M101.457 11.4949C101.505 11.599 101.586 11.719 101.683 11.847C101.878 12.1029 101.919 12.4641 101.774 12.754L97.5416 21.2434C97.397 21.5333 97.0828 21.7198 96.76 21.7216C96.5987 21.7226 96.4535 21.7314 96.3406 21.7561C95.9696 21.8145 95.866 22.3853 96.1891 22.5441L105.801 27.2688C106.091 27.4117 106.43 27.3375 106.631 27.0954C106.961 26.7161 107.452 26.135 107.822 25.5948C108.12 25.1996 107.998 24.8388 107.691 24.688C107.465 24.5768 107.158 24.5866 106.844 24.7731C106.078 25.2191 105.442 25.8894 103.762 25.0635L101.679 24.0392C101.388 23.8962 101.29 23.6077 101.435 23.3177L103.491 19.1939L104.654 19.7656C106.754 20.7979 105.401 21.7372 106.096 22.1589C106.896 22.6524 108.904 18.8662 108.032 18.4775C107.24 18.1286 107.228 19.8474 105.128 18.8152L103.965 18.2434L105.652 14.8606L105.796 14.5706C105.941 14.2807 106.231 14.1827 106.522 14.3256L108.283 15.1911C109.963 16.017 109.803 16.9415 109.91 17.8164C109.959 18.1614 110.137 18.4094 110.347 18.5127C110.654 18.6635 111.009 18.5571 111.169 18.0743C111.361 17.4467 111.537 16.7309 111.641 16.2404C111.721 15.9187 111.559 15.5983 111.268 15.4554L101.996 10.8975C101.673 10.7387 101.279 11.1666 101.457 11.4949Z" fill="black"/>
<path d="M115.015 20.7298C115.861 20.4649 116.642 19.9389 118.097 21.1162L118.517 21.4558L112.044 29.3461C111.824 29.5853 111.49 29.7087 111.161 29.6276C111.017 29.604 110.874 29.5804 110.744 29.5682C110.383 29.554 110.155 30.0873 110.435 30.3137L114.76 33.8116C115.054 34.0493 115.547 33.7311 115.447 33.3717C115.408 33.2481 115.37 33.1245 115.32 33.0148C115.224 32.7059 115.279 32.3561 115.473 32.1195L121.946 24.2292L122.352 24.5574C123.807 25.7347 123.46 26.6116 123.356 27.4765C123.328 27.8237 123.446 28.1048 123.642 28.2633C123.908 28.4784 124.278 28.4533 124.527 28.0071C124.857 27.4634 125.185 26.7797 125.409 26.336C125.545 26.0289 125.461 25.7061 125.209 25.5023L116.588 18.5292C116.336 18.3255 116 18.3088 115.739 18.514C115.333 18.8105 114.725 19.2678 114.255 19.6983C113.865 20.0313 113.916 20.3959 114.181 20.611C114.377 20.7695 114.679 20.828 115.015 20.7298Z" fill="black"/>
<path d="M118.572 36.7984L121.952 41.2387C122.18 41.5395 122.725 41.3335 122.712 40.9603C122.705 40.8312 122.697 40.702 122.685 40.598C122.655 40.2608 122.791 39.9339 123.035 39.7502L126.577 37.0926L129.259 40.6162L125.717 43.2738C125.447 43.4539 125.093 43.4944 124.804 43.3516C124.659 43.2802 124.525 43.2232 124.402 43.1805C124.055 43.0809 123.707 43.5447 123.925 43.8312L127.304 48.2715C127.522 48.5579 128.077 48.3663 128.065 47.9931C128.057 47.864 128.049 47.7348 128.027 47.6165C128.008 47.2936 128.143 46.9667 128.388 46.783L135.86 41.1761L136.004 41.0681C136.249 40.8844 136.603 40.844 136.91 40.9508C137.019 41.0043 137.142 41.0471 137.265 41.0898C137.623 41.2036 137.96 40.7255 137.742 40.439L134.363 35.9988C134.145 35.7123 133.6 35.9183 133.602 36.2771C133.61 36.4063 133.629 36.5497 133.658 36.7075C133.717 37.0231 133.582 37.35 133.333 37.5588L130.123 39.968L127.441 36.4444L130.508 34.1433L130.652 34.0353C130.896 33.8516 131.25 33.8112 131.569 33.9323C131.666 33.9715 131.789 34.0143 131.912 34.057C132.27 34.1708 132.619 33.707 132.39 33.4062L129.01 28.966C128.792 28.6795 128.248 28.8855 128.26 29.2586C128.257 29.3735 128.276 29.517 128.306 29.6748C128.365 29.9904 128.24 30.3316 127.981 30.526L120.365 36.241C120.105 36.4355 119.741 36.4616 119.451 36.3188C119.306 36.2474 119.172 36.1904 119.06 36.162C118.702 36.0481 118.354 36.512 118.572 36.7984Z" fill="black"/>
</svg>
