<svg width="59" height="34" viewBox="0 0 59 34" fill="none" xmlns="http://www.w3.org/2000/svg">
<path fill-rule="evenodd" clip-rule="evenodd" d="M43 33C34.163 33 27 25.837 27 17C27 8.163 34.163 1 43 1C51.837 1 59 8.163 59 17C59 25.837 51.837 33 43 33ZM50.994 17.219L43.498 5L36 17.22L43.498 21.573L50.994 17.219ZM51 18.616L43.498 22.967L36 18.617L43.498 28.995L51 18.616Z" fill="#F499AD"/>
<path d="M43.498 5V13.87L50.995 17.22L43.498 5ZM43.498 22.968V28.995L51 18.616L43.498 22.968Z" fill="black" fill-opacity="0.298"/>
<path d="M43.498 21.574L50.995 17.221L43.498 13.873V21.574Z" fill="black" fill-opacity="0.801"/>
<path d="M36 17.221L43.498 21.574V13.873L36 17.221Z" fill="black" fill-opacity="0.298"/>
<path d="M17 33C25.8366 33 33 25.8366 33 17C33 8.16347 25.8366 1 17 1C8.16344 1 1 8.16347 1 17C1 25.8366 8.16344 33 17 33Z" fill="#F499AD" stroke="#1D1D1B" stroke-miterlimit="10"/>
<path d="M12.5898 20.4255C12.834 20.0134 13.2613 19.548 13.8793 19.0292C14.0472 18.8918 14.2227 18.7469 14.4134 18.6019C14.8102 18.3043 15.1917 18.0449 15.5655 17.8389C16.0309 17.5795 16.4735 17.3887 16.9008 17.2743C17.0457 17.2361 17.1907 17.2056 17.328 17.1827C17.3738 17.1751 17.4196 17.1675 17.4654 17.1599C17.6485 17.137 17.824 17.1217 17.9995 17.114C18.1521 17.1064 18.3047 17.114 18.4573 17.1217C18.6099 17.1293 18.7549 17.1522 18.8998 17.1751C19.0753 17.2056 19.2432 17.2438 19.411 17.2972C19.7773 17.4116 20.1206 17.5795 20.4563 17.7931C20.8607 18.0602 21.1506 18.3578 21.3338 18.6859C21.4787 18.9529 21.5398 19.2276 21.5321 19.5175L21.7381 12.6429C21.7458 12.353 21.6771 12.0783 21.5398 11.8113C21.3643 11.4832 21.0744 11.1779 20.6623 10.9185C20.3266 10.7049 19.9833 10.5371 19.617 10.4226C19.4492 10.3692 19.2813 10.331 19.1058 10.3005C18.9609 10.2776 18.8082 10.2547 18.6633 10.2471C18.5107 10.2395 18.3657 10.2319 18.2055 10.2395C18.03 10.2471 17.8545 10.2624 17.6714 10.2853C17.6256 10.2929 17.5798 10.3005 17.5341 10.3081C17.3967 10.331 17.2518 10.3615 17.1068 10.3997C16.6871 10.5141 16.237 10.7049 15.7715 10.9643C15.4053 11.1703 15.0162 11.4297 14.6194 11.7273C14.4287 11.8723 14.2532 12.0172 14.0853 12.1546C13.4673 12.6658 13.04 13.1312 12.7959 13.5509" fill="#F68B38"/>
<path d="M12.7966 20.5461L12.377 20.302C12.6364 19.8595 13.0789 19.3788 13.7198 18.8447C13.8877 18.7073 14.0708 18.5624 14.2616 18.4098C14.6659 18.1046 15.0627 17.8452 15.4366 17.6315C15.9173 17.3569 16.3903 17.1585 16.8252 17.044C16.9778 17.0059 17.1304 16.9677 17.2754 16.9448C17.3212 16.9372 17.3746 16.9296 17.4204 16.9219C17.6111 16.899 17.7942 16.8838 17.9773 16.8761C18.1376 16.8685 18.2978 16.8762 18.458 16.8838C18.6183 16.8914 18.7785 16.9143 18.9311 16.9448C19.1142 16.9754 19.2973 17.0211 19.4728 17.0745C19.8543 17.1966 20.2282 17.3721 20.5791 17.601C20.8843 17.7994 21.1285 18.0206 21.3193 18.2572L21.4871 12.6492C21.4947 12.405 21.4413 12.1685 21.3116 11.9396C21.1514 11.642 20.8844 11.375 20.5181 11.1308C20.2053 10.9248 19.8772 10.7722 19.5338 10.6654C19.3812 10.6196 19.2134 10.5738 19.0532 10.5509C18.9158 10.528 18.7709 10.5128 18.6335 10.4975C18.4962 10.4899 18.3512 10.4823 18.1986 10.4899C18.0307 10.4975 17.8629 10.5128 17.6874 10.5357C17.6416 10.5433 17.5958 10.5509 17.5577 10.5586C17.428 10.5815 17.2906 10.6043 17.1533 10.6425C16.7489 10.7493 16.3216 10.9324 15.8715 11.1842C15.5129 11.3826 15.139 11.6344 14.7499 11.932C14.5591 12.0769 14.3836 12.2143 14.2234 12.3516C13.6283 12.8475 13.2163 13.2977 12.9874 13.6868L12.5677 13.4427C12.8271 13.0001 13.2697 12.5195 13.9106 11.9854C14.0784 11.848 14.2616 11.7031 14.4523 11.5505C14.8567 11.2453 15.2535 10.9858 15.6273 10.7722C16.108 10.4975 16.5811 10.2992 17.016 10.1847C17.1686 10.1466 17.3212 10.1084 17.4661 10.0855C17.5119 10.0779 17.5577 10.0702 17.6111 10.0626C17.7942 10.0397 17.985 10.0245 18.1681 10.0168C18.3283 10.0092 18.4885 10.0168 18.6488 10.0245C18.809 10.0321 18.9616 10.055 19.1218 10.0855C19.3049 10.116 19.4881 10.1618 19.6636 10.2152C20.0451 10.3373 20.4189 10.5128 20.7699 10.7417C21.2048 11.024 21.5253 11.3597 21.7236 11.7259C21.8839 12.0311 21.9602 12.3516 21.9526 12.6797L21.7465 19.5466C21.7389 19.6763 21.6321 19.7832 21.4947 19.7832C21.365 19.7755 21.2582 19.6687 21.2582 19.5314C21.2659 19.2872 21.2124 19.0583 21.0827 18.8218C20.9225 18.5243 20.6554 18.2572 20.2892 18.013C19.9764 17.807 19.6483 17.6544 19.305 17.5476C19.1524 17.5018 18.9921 17.4561 18.8243 17.4332C18.6869 17.4103 18.5419 17.395 18.4046 17.3797C18.2596 17.3721 18.1147 17.3645 17.9697 17.3721C17.8019 17.3797 17.634 17.395 17.4661 17.4179C17.4204 17.4255 17.3746 17.4332 17.3364 17.4408C17.2067 17.4637 17.0694 17.4866 16.932 17.5247C16.5276 17.6315 16.1004 17.8146 15.6502 18.0664C15.2916 18.2648 14.9177 18.5166 14.5286 18.8142C14.3379 18.9592 14.1624 19.0965 14.0021 19.2338C13.4375 19.7069 13.0255 20.157 12.7966 20.5461Z" fill="black"/>
<path d="M12.6061 13.9531L12.4001 20.8277C12.3696 20.9116 12.3543 21.0032 12.3467 21.0795L12.5527 14.2049C12.568 14.121 12.5832 14.0371 12.6061 13.9531Z" fill="#945322"/>
<path d="M12.3545 21.0797C12.3545 21.0873 12.3545 21.095 12.3545 21.1026C12.3545 21.1255 12.3545 21.1483 12.3545 21.1712L12.5605 14.2967C12.5605 14.2738 12.5605 14.2509 12.5605 14.228C12.5605 14.2204 12.5605 14.2127 12.5605 14.2051" fill="#8F5120"/>
<path d="M26.4615 13.1074L26.2555 19.982C26.2555 20.0583 26.2479 20.1346 26.2402 20.2109L26.4462 13.3364C26.4539 13.2601 26.4615 13.1837 26.4615 13.1074Z" fill="#8F5120"/>
<path d="M26.278 14.1449C26.1636 14.5188 25.9881 14.9002 25.7592 15.2894C25.7134 15.3657 25.6676 15.4496 25.6142 15.5259L25.4082 22.4005C25.4616 22.3242 25.5074 22.2403 25.5532 22.164C25.782 21.7748 25.9576 21.3933 26.072 21.0195C26.1559 20.7448 26.2093 20.4777 26.2399 20.2183L26.4459 13.3438C26.423 13.6032 26.3619 13.8702 26.278 14.1449Z" fill="#F68B38"/>
<path d="M25.408 22.637C25.3851 22.637 25.3622 22.637 25.3393 22.6294C25.2325 22.5989 25.1638 22.4997 25.1715 22.3929L25.3775 15.5183C25.3775 15.4725 25.3927 15.4343 25.4156 15.3962C25.4614 15.3199 25.5148 15.2436 25.5606 15.1673C25.7819 14.7934 25.9497 14.4272 26.0566 14.0762C26.1329 13.8244 26.1863 13.565 26.2092 13.3209C26.2244 13.1912 26.3312 13.0996 26.4609 13.0996C26.5906 13.1072 26.6899 13.2141 26.6899 13.3438L26.4838 20.2183C26.4533 20.5159 26.3999 20.7982 26.3084 21.0881C26.1863 21.4773 26.0032 21.8817 25.7666 22.286C25.7209 22.37 25.6674 22.4463 25.614 22.5302C25.5682 22.5989 25.492 22.637 25.408 22.637ZM25.8506 15.6022L25.6827 21.3857C25.7437 21.2408 25.7971 21.0881 25.8429 20.9508C25.9192 20.699 25.9726 20.4396 25.9955 20.1955L26.1481 15.0834C26.0947 15.1978 26.026 15.3046 25.965 15.4191C25.9345 15.4725 25.8963 15.5412 25.8506 15.6022Z" fill="black"/>
<path d="M25.6146 15.5274L25.4086 22.402L21.0977 20.6013L21.3037 13.7344L25.6146 15.5274Z" fill="#F68B38"/>
<path d="M25.4085 22.6375C25.3779 22.6375 25.3474 22.6299 25.3169 22.6223L21.006 20.8216C20.9144 20.7834 20.8534 20.6919 20.861 20.5927L21.067 13.7181C21.067 13.6418 21.1128 13.5655 21.1738 13.5197C21.2425 13.474 21.3264 13.4663 21.3951 13.4968L25.706 15.2975C25.7976 15.3357 25.8586 15.4272 25.851 15.5264L25.645 22.401C25.645 22.4773 25.5992 22.5536 25.5382 22.5993C25.5 22.6299 25.4542 22.6375 25.4085 22.6375ZM21.3493 20.4401L25.1795 22.0347L25.3703 15.679L21.5401 14.0843L21.3493 20.4401Z" fill="black"/>
<path d="M19.3199 19.7314C18.8926 19.8459 18.4729 19.9298 18.0533 19.9908C17.9694 19.9984 17.8931 20.0137 17.8091 20.0214C17.5497 20.0519 17.2903 20.0671 17.0309 20.0747C16.7181 20.0824 16.4052 20.0748 16.0924 20.0595C15.7719 20.0366 15.4439 19.9984 15.131 19.945C14.925 19.9069 14.7266 19.8687 14.5206 19.8153C14.3604 19.7772 14.1925 19.7314 14.0323 19.678C13.1091 19.3881 12.1477 18.915 11.1482 18.2664C9.7214 17.3356 8.74477 16.4276 8.2183 15.5502C7.85969 14.955 7.69182 14.2913 7.70708 13.5664L7.50108 20.441C7.47819 21.1658 7.64604 21.8296 8.01228 22.4248C8.53874 23.3022 9.51537 24.2102 10.9422 25.141C11.9417 25.7972 12.9031 26.2703 13.8263 26.5526C13.9942 26.606 14.1544 26.6518 14.3146 26.6899C14.513 26.7433 14.719 26.7815 14.925 26.8196C15.2455 26.873 15.5659 26.9188 15.8864 26.9341C16.1992 26.957 16.5121 26.9646 16.8249 26.9493C17.0843 26.9417 17.3437 26.9264 17.6031 26.8959C17.6871 26.8883 17.7634 26.8807 17.8473 26.8654C18.2669 26.8044 18.6942 26.7204 19.1139 26.606C19.7395 26.4381 20.3728 26.2016 21.0137 25.9117L21.2197 19.0371C20.5788 19.3346 19.9455 19.5636 19.3199 19.7314Z" fill="#F68B38"/>
<path d="M16.5348 27.1933C16.3135 27.1933 16.0846 27.1857 15.871 27.1705C15.5429 27.1476 15.2072 27.1094 14.8791 27.0484C14.6731 27.0102 14.4594 26.9644 14.2534 26.9187C14.0856 26.8805 13.9177 26.8347 13.7499 26.7813C12.8114 26.4838 11.8195 26.0031 10.8047 25.3393C9.34739 24.3855 8.34024 23.447 7.79851 22.5391C7.41701 21.9058 7.2339 21.1962 7.25679 20.4256L7.46279 13.551C7.47042 13.4213 7.57725 13.3145 7.70696 13.3145H7.71459C7.8443 13.3221 7.95112 13.4289 7.95112 13.5663C7.92823 14.2377 8.08846 14.8633 8.42417 15.4127C8.92775 16.252 9.88912 17.1447 11.2854 18.0527C12.262 18.6936 13.2158 19.159 14.1085 19.4413C14.2687 19.4947 14.4289 19.5329 14.5815 19.571C14.7799 19.6168 14.9783 19.6626 15.1767 19.6931C15.4895 19.7465 15.8023 19.7847 16.1151 19.8075C16.4203 19.8304 16.7256 19.8381 17.0308 19.8228C17.2825 19.8152 17.5343 19.7999 17.7937 19.7694C17.87 19.7618 17.9463 19.7541 18.0303 19.7389C18.4423 19.6854 18.8543 19.6016 19.2663 19.4871C19.8767 19.3192 20.5024 19.0903 21.1204 18.808C21.1967 18.7699 21.2883 18.7775 21.3569 18.8233C21.4256 18.8691 21.4714 18.9453 21.4638 19.0293L21.2578 25.9039C21.2578 25.9954 21.2043 26.0794 21.1204 26.1175C20.4795 26.4151 19.8233 26.6516 19.1824 26.8271C18.7475 26.9416 18.3126 27.0331 17.8853 27.0941C17.8014 27.1018 17.7174 27.1171 17.6411 27.1247C17.3741 27.1552 17.1071 27.1704 16.84 27.1781C16.7332 27.1933 16.634 27.1933 16.5348 27.1933ZM7.88245 15.4585L7.73748 20.4332C7.71459 21.1046 7.87482 21.7303 8.21054 22.2873C8.71411 23.1266 9.67549 24.0193 11.0718 24.9273C12.0484 25.5682 13.0021 26.0336 13.8948 26.3159C14.0551 26.3693 14.2153 26.4075 14.3679 26.4456C14.5663 26.4914 14.7647 26.5371 14.963 26.5677C15.2759 26.6211 15.5887 26.6592 15.9015 26.6821C16.2067 26.705 16.5119 26.7127 16.8171 26.6974C17.0689 26.6898 17.3207 26.6745 17.5801 26.644C17.6564 26.6364 17.7403 26.6287 17.8166 26.6134C18.2287 26.56 18.6407 26.4761 19.0527 26.3617C19.6249 26.2091 20.2048 26.0031 20.7771 25.7437L20.9678 19.4108C20.4413 19.6397 19.9072 19.8228 19.3884 19.9602C18.9535 20.0746 18.5186 20.1661 18.0913 20.2272C18.0074 20.2348 17.9235 20.2501 17.8472 20.2577C17.5801 20.2883 17.3131 20.3035 17.046 20.3111C16.7255 20.3187 16.3975 20.3111 16.0846 20.2959C15.7566 20.273 15.4208 20.2348 15.0927 20.1738C14.8867 20.1356 14.6731 20.0899 14.4671 20.0441C14.2992 20.0059 14.1314 19.9525 13.9635 19.9067C13.025 19.6168 12.0331 19.1285 11.0184 18.4647C9.56103 17.5109 8.55388 16.5725 8.01215 15.6645C7.95874 15.5958 7.9206 15.5271 7.88245 15.4585Z" fill="black"/>
<path d="M23.3174 8.77274C24.9731 9.85619 25.9726 10.9397 26.3083 12.0231C26.6517 13.1066 26.4152 14.274 25.614 15.5253L21.3031 13.7246C21.5396 13.366 21.677 13.0761 21.7075 12.8624C21.7609 12.5038 21.6998 12.1528 21.5244 11.8247C21.3489 11.4966 21.0589 11.1914 20.6469 10.932C19.7237 10.3293 18.686 10.1233 17.5186 10.314C16.6488 10.4513 15.6798 10.9244 14.6116 11.7332C13.284 12.7403 12.5973 13.572 12.5515 14.2282C12.5058 14.892 12.8796 15.4795 13.6808 16.006C14.459 16.5172 15.2449 16.7461 16.0384 16.7079C16.832 16.6698 17.6941 16.4179 18.6326 15.9678L21.2115 19.035C20.0671 19.5691 18.9302 19.8972 17.8086 20.0193C16.687 20.1414 15.5883 20.0727 14.5125 19.8133C13.4443 19.5463 12.315 19.035 11.14 18.2644C9.7132 17.3335 8.73657 16.4256 8.21011 15.5481C7.68364 14.6707 7.56157 13.6559 7.85914 12.5038C8.14907 11.3517 9.04177 10.2148 10.522 9.09323C12.4981 7.59776 14.5964 6.81948 16.8167 6.7737C19.037 6.72792 21.2039 7.39172 23.3174 8.77274Z" fill="#FBB33B"/>
<path d="M16.7407 20.3179C15.9624 20.3179 15.1994 20.2264 14.4593 20.0433C13.3682 19.7762 12.2085 19.2421 11.0106 18.4562C9.55325 17.5025 8.5461 16.564 8.00437 15.656C7.44739 14.7252 7.31768 13.6417 7.62288 12.4286C7.92807 11.2307 8.85131 10.0404 10.3773 8.88827C12.3916 7.36991 14.5509 6.56879 16.817 6.52301C19.0831 6.48486 21.311 7.16392 23.455 8.56783C25.1489 9.67417 26.1866 10.811 26.5452 11.9479C26.9038 13.0924 26.6596 14.3437 25.8203 15.656C25.7593 15.7552 25.6296 15.7934 25.5227 15.7476L21.2118 13.9469C21.1432 13.9164 21.0974 13.863 21.0745 13.7943C21.0516 13.7257 21.0669 13.6493 21.105 13.5883C21.3263 13.2602 21.4484 13.0008 21.4712 12.8253C21.517 12.5125 21.4712 12.2226 21.3186 11.9326C21.1584 11.635 20.8914 11.368 20.5251 11.1238C19.6629 10.5592 18.6634 10.3608 17.5723 10.544C16.7483 10.6737 15.8022 11.1315 14.7722 11.9173C13.2004 13.1076 12.8341 13.8401 12.8036 14.2445C12.7655 14.8168 13.0936 15.3279 13.826 15.801C14.5509 16.2741 15.291 16.503 16.0387 16.4648C16.7941 16.4267 17.641 16.1825 18.5414 15.7476C18.6405 15.7018 18.7626 15.7247 18.8313 15.8086L21.4102 18.8759C21.456 18.9369 21.4789 19.0132 21.4636 19.0819C21.4484 19.1582 21.3949 19.2192 21.3263 19.2498C20.1665 19.7915 18.9915 20.1272 17.847 20.2569C17.4655 20.3027 17.0993 20.3179 16.7407 20.3179ZM17.0306 7.01129C16.9619 7.01129 16.8933 7.01129 16.817 7.01129C14.6577 7.05707 12.59 7.82009 10.6596 9.27741C9.22517 10.3609 8.36299 11.4596 8.08068 12.5506C7.806 13.6341 7.91284 14.5955 8.40878 15.4119C8.91236 16.2512 9.87373 17.1439 11.27 18.0518C12.4221 18.8072 13.5285 19.3184 14.5661 19.5702C15.6038 19.8296 16.6796 19.8983 17.7784 19.7762C18.7779 19.6618 19.8003 19.3871 20.8227 18.9445L18.5719 16.2664C17.6792 16.6784 16.8322 16.915 16.054 16.9531C15.2147 16.9913 14.3678 16.7471 13.5514 16.213C12.6739 15.6408 12.2619 14.9693 12.3153 14.214C12.3687 13.4739 13.0783 12.5964 14.4746 11.5435C15.5733 10.7118 16.5881 10.2235 17.496 10.0785C18.7168 9.88016 19.8232 10.1014 20.7922 10.7347C21.2271 11.017 21.5475 11.3528 21.7459 11.719C21.9443 12.0929 22.0206 12.4973 21.9519 12.9093C21.9214 13.1076 21.8299 13.3442 21.662 13.6265L25.5227 15.2364C26.1942 14.1148 26.3849 13.0618 26.0874 12.1081C25.7669 11.0857 24.7979 10.0328 23.1956 8.98746C21.1889 7.66748 19.1212 7.01129 17.0306 7.01129Z" fill="black"/>
<path d="M15.4889 21.8801C16.3991 21.8801 17.1369 21.1422 17.1369 20.232C17.1369 19.3218 16.3991 18.584 15.4889 18.584C14.5787 18.584 13.8408 19.3218 13.8408 20.232C13.8408 21.1422 14.5787 21.8801 15.4889 21.8801Z" fill="#F68B38"/>
<path d="M15.4814 22.1262C15.0923 22.1262 14.7108 22.0042 14.3903 21.7753C13.9783 21.4853 13.7036 21.0428 13.6197 20.5468C13.4442 19.5168 14.1461 18.5402 15.1762 18.3647C15.6721 18.2807 16.1757 18.3952 16.5877 18.6928C16.9997 18.9827 17.2744 19.4253 17.3583 19.9212C17.4423 20.4172 17.3278 20.9207 17.0303 21.3327C16.7403 21.7447 16.2978 22.0194 15.8018 22.1034C15.695 22.1186 15.5882 22.1262 15.4814 22.1262ZM15.489 18.8225C15.4127 18.8225 15.3288 18.8301 15.2525 18.8454C14.8786 18.9064 14.5582 19.1124 14.3369 19.4176C14.1156 19.7228 14.0317 20.0967 14.0927 20.4705C14.1538 20.8444 14.3598 21.1649 14.665 21.3861C14.9702 21.6074 15.344 21.6913 15.7179 21.6303C16.0918 21.5693 16.4122 21.3633 16.6335 21.0581C16.8548 20.7529 16.9387 20.379 16.8777 20.0051C16.8166 19.6313 16.6106 19.3108 16.3054 19.0895C16.0612 18.914 15.779 18.8225 15.489 18.8225Z" fill="black"/>
<path d="M24.6706 12.7668C24.7689 12.4797 24.5576 12.1475 24.1988 12.0247C23.84 11.9019 23.4695 12.035 23.3712 12.3221C23.273 12.6091 23.4842 12.9414 23.8431 13.0642C24.2019 13.187 24.5724 13.0538 24.6706 12.7668Z" fill="#F68B38"/>
<path d="M24.134 13.3585C24.0196 13.3585 23.8975 13.3356 23.7831 13.2975C23.3024 13.1296 23.0201 12.6642 23.165 12.2522C23.3024 11.8402 23.8136 11.6418 24.2943 11.8097C24.5155 11.886 24.7063 12.0309 24.8284 12.2141C24.9581 12.4124 24.9886 12.649 24.9199 12.855C24.8513 13.061 24.6834 13.2212 24.4545 13.3051C24.3477 13.3433 24.2409 13.3585 24.134 13.3585ZM23.9433 12.237C23.7907 12.237 23.6534 12.3056 23.6152 12.4124C23.5618 12.565 23.7068 12.7634 23.9357 12.8474C24.0577 12.8855 24.1798 12.8931 24.2866 12.855C24.3324 12.8397 24.424 12.7939 24.4545 12.7024C24.485 12.6108 24.4392 12.5269 24.4163 12.4811C24.3553 12.3896 24.2561 12.3133 24.134 12.2751C24.073 12.2446 24.0043 12.237 23.9433 12.237Z" fill="black"/>
<path d="M12.7017 11.357C12.7137 10.822 12.1839 10.3762 11.5183 10.3612C10.8527 10.3462 10.3034 10.7678 10.2913 11.3028C10.2793 11.8378 10.8091 12.2836 11.4747 12.2986C12.1403 12.3136 12.6896 11.892 12.7017 11.357Z" fill="#F68B38"/>
<path d="M11.5447 12.5577C11.5294 12.5577 11.5218 12.5577 11.5066 12.5577C11.1327 12.5501 10.7741 12.4204 10.5147 12.1991C10.2323 11.9626 10.0874 11.6498 10.095 11.314C10.1026 10.9783 10.2705 10.6731 10.5604 10.4519C10.8351 10.2382 11.2013 10.1314 11.5676 10.1391C12.3611 10.1543 13.002 10.7189 12.9868 11.3827C12.9639 12.0313 12.323 12.5577 11.5447 12.5577ZM11.5142 10.6121C11.2548 10.6121 11.0182 10.6884 10.8351 10.8257C10.6596 10.9554 10.5681 11.1309 10.5604 11.314C10.5528 11.4972 10.6444 11.6803 10.8122 11.8177C10.9953 11.9703 11.2395 12.0618 11.5066 12.0618C12.033 12.077 12.4756 11.7566 12.4832 11.3522C12.4908 10.9478 12.0712 10.6121 11.5371 10.6045C11.5371 10.6121 11.5294 10.6121 11.5142 10.6121Z" fill="black"/>
<path d="M16.2246 8.8758C16.2323 8.53458 15.8936 8.2502 15.4681 8.24062C15.0427 8.23105 14.6915 8.4999 14.6838 8.84112C14.6761 9.18235 15.0148 9.46675 15.4403 9.47632C15.8658 9.4859 16.217 9.21702 16.2246 8.8758Z" fill="#F68B38"/>
<path d="M15.497 9.72703C15.4894 9.72703 15.4818 9.72703 15.4665 9.72703C15.2071 9.7194 14.9629 9.6355 14.7798 9.47527C14.5814 9.30741 14.4746 9.0785 14.4746 8.84197C14.4822 8.60544 14.5967 8.38418 14.8027 8.22395C14.9934 8.07898 15.2452 8.00266 15.5047 8.01029C15.7641 8.01792 16.0082 8.10186 16.1913 8.26209C16.3897 8.42995 16.4965 8.65886 16.4965 8.89539C16.4889 9.13192 16.3745 9.35318 16.1685 9.51341C15.9853 9.65075 15.7488 9.72703 15.497 9.72703ZM15.4818 8.49861C15.3368 8.49861 15.1995 8.54442 15.1003 8.62072C15.0469 8.65887 14.9629 8.74276 14.9629 8.86484C14.9629 8.98692 15.0392 9.07086 15.0926 9.11664C15.1918 9.20057 15.3368 9.24634 15.4818 9.25397C15.6267 9.2616 15.7717 9.21584 15.8785 9.13191C15.9319 9.09376 16.0159 9.00983 16.0159 8.88775C16.0159 8.76567 15.9396 8.68173 15.8862 8.63595C15.787 8.55202 15.642 8.50624 15.497 8.49861C15.4894 8.49861 15.4894 8.49861 15.4818 8.49861Z" fill="black"/>
<path d="M18.0304 24.5374C18.456 24.5374 18.801 24.1923 18.801 23.7667C18.801 23.3411 18.456 22.9961 18.0304 22.9961C17.6048 22.9961 17.2598 23.3411 17.2598 23.7667C17.2598 24.1923 17.6048 24.5374 18.0304 24.5374Z" fill="#F68B38"/>
<path d="M18.0305 24.7815C18.0229 24.7815 18.0152 24.7815 18.0076 24.7815C17.4506 24.7663 17.0081 24.3085 17.0157 23.7438C17.031 23.1945 17.4811 22.752 18.0229 22.752C18.0305 22.752 18.0381 22.752 18.0457 22.752C18.3128 22.7596 18.5646 22.8664 18.7553 23.0648C18.9385 23.2632 19.0453 23.5149 19.0377 23.7896C19.03 24.0567 18.9232 24.3085 18.7248 24.4992C18.5417 24.6824 18.2899 24.7815 18.0305 24.7815ZM18.0305 23.2403C17.7406 23.2403 17.5117 23.4692 17.504 23.7591C17.4964 24.049 17.7329 24.2932 18.0229 24.3009C18.1755 24.3085 18.2976 24.2551 18.3967 24.1559C18.4959 24.0567 18.557 23.927 18.557 23.782C18.557 23.6447 18.5112 23.5073 18.412 23.4081C18.3128 23.3089 18.1831 23.2479 18.0381 23.2479C18.0381 23.2403 18.0305 23.2403 18.0305 23.2403Z" fill="black"/>
</svg>
