<svg width="34" height="34" viewBox="0 0 34 34" fill="none" xmlns="http://www.w3.org/2000/svg">
<path d="M17 33C25.8366 33 33 25.8365 33 17C33 8.16344 25.8366 1 17 1C8.16344 1 1 8.16344 1 17C1 25.8365 8.16344 33 17 33Z" fill="#F499AD" stroke="#1D1D1B" stroke-miterlimit="10"/>
<path d="M12.1533 20.3841C12.4063 19.9533 12.8521 19.4699 13.4908 18.9364C13.6611 18.7936 13.8465 18.6458 14.0469 18.4955C14.4576 18.1849 14.8559 17.9195 15.2391 17.704C15.7225 17.431 16.1859 17.2357 16.6242 17.1179C16.7745 17.0779 16.9223 17.0453 17.0675 17.0228C17.1151 17.0153 17.1627 17.0077 17.2103 17.0002C17.3982 16.9752 17.581 16.9602 17.7638 16.9526C17.9241 16.9476 18.0819 16.9501 18.2372 16.9602C18.3925 16.9702 18.5478 16.9902 18.7006 17.0178C18.8809 17.0503 19.0563 17.0929 19.2291 17.1455C19.6073 17.2632 19.968 17.436 20.3136 17.6615C20.7344 17.937 21.0375 18.2476 21.2203 18.5907C21.3681 18.8662 21.4382 19.1543 21.4282 19.4523L21.6411 12.3215C21.6511 12.0234 21.581 11.7379 21.4332 11.4598C21.2504 11.1167 20.9473 10.8061 20.5265 10.5306C20.1809 10.3052 19.8202 10.1323 19.442 10.0146C19.2692 9.95953 19.0938 9.91694 18.9135 9.88689C18.7607 9.85933 18.6079 9.84181 18.4501 9.82928C18.2948 9.81926 18.137 9.81676 17.9767 9.81926C17.7964 9.82427 17.6111 9.8393 17.4232 9.86685C17.3756 9.87437 17.328 9.87937 17.2804 9.88939C17.1352 9.91194 16.9874 9.9445 16.8371 9.98457C16.3988 10.1023 15.9354 10.2977 15.452 10.5707C15.0688 10.7861 14.6705 11.0491 14.2598 11.3622C14.0619 11.5124 13.8766 11.6602 13.7037 11.803C13.065 12.3365 12.6192 12.8199 12.3662 13.2507" fill="#F68B38"/>
<path d="M12.1533 20.3841C12.4063 19.9533 12.8521 19.4699 13.4908 18.9364C13.6611 18.7936 13.8465 18.6458 14.0469 18.4955C14.4576 18.1849 14.8559 17.9195 15.2391 17.704C15.7225 17.431 16.1859 17.2357 16.6242 17.1179C16.7745 17.0779 16.9223 17.0453 17.0675 17.0228C17.1151 17.0153 17.1627 17.0077 17.2103 17.0002C17.3982 16.9752 17.581 16.9602 17.7638 16.9526C17.9241 16.9476 18.0819 16.9501 18.2372 16.9602C18.3925 16.9702 18.5478 16.9902 18.7006 17.0178C18.8809 17.0503 19.0563 17.0929 19.2291 17.1455C19.6073 17.2632 19.968 17.436 20.3136 17.6615C20.7344 17.937 21.0375 18.2476 21.2203 18.5907C21.3681 18.8662 21.4382 19.1543 21.4282 19.4523L21.6411 12.3215C21.6511 12.0234 21.581 11.7379 21.4332 11.4598C21.2504 11.1167 20.9473 10.8061 20.5265 10.5306C20.1809 10.3052 19.8202 10.1323 19.442 10.0146C19.2692 9.95953 19.0938 9.91694 18.9135 9.88689C18.7607 9.85933 18.6079 9.84181 18.4501 9.82928C18.2948 9.81926 18.137 9.81676 17.9767 9.81926C17.7964 9.82427 17.6111 9.8393 17.4232 9.86685C17.3756 9.87437 17.328 9.87937 17.2804 9.88939C17.1352 9.91194 16.9874 9.9445 16.8371 9.98457C16.3988 10.1023 15.9354 10.2977 15.452 10.5707C15.0688 10.7861 14.6705 11.0491 14.2598 11.3622C14.0619 11.5124 13.8766 11.6602 13.7037 11.803C13.065 12.3365 12.6192 12.8199 12.3662 13.2507" stroke="black" stroke-miterlimit="10" stroke-linejoin="round"/>
<path d="M12.1738 13.668L11.9609 20.7988C11.9333 20.889 11.9133 20.9792 11.9058 21.0643L12.1187 13.9335C12.1287 13.8483 12.1462 13.7606 12.1738 13.668Z" fill="#945322"/>
<path d="M11.9078 21.0645C11.9078 21.072 11.9053 21.0795 11.9053 21.087C11.9028 21.1095 11.9028 21.1321 11.9028 21.1546L12.1157 14.0238C12.1157 14.0012 12.1182 13.9787 12.1182 13.9561C12.1182 13.9486 12.1182 13.9411 12.1207 13.9336" fill="#8F5120"/>
<path d="M26.5507 12.7949L26.3378 19.9258C26.3353 20.0059 26.3303 20.0861 26.3228 20.1662L26.5357 13.0354C26.5432 12.9552 26.5482 12.8751 26.5507 12.7949Z" fill="#8F5120"/>
<path d="M26.3627 13.8692C26.2425 14.2549 26.0621 14.6507 25.8242 15.0564C25.7766 15.1391 25.7265 15.2218 25.6714 15.3044L25.4585 22.4353C25.5111 22.3526 25.5612 22.27 25.6113 22.1873C25.8492 21.7816 26.0271 21.3858 26.1498 21.0001C26.2375 20.7171 26.2951 20.439 26.3226 20.166L26.5355 13.0352C26.508 13.3082 26.4504 13.5862 26.3627 13.8692Z" fill="#F68B38" stroke="black" stroke-miterlimit="10" stroke-linejoin="round"/>
<path d="M25.6711 15.3054L25.4607 22.4363L20.9873 20.5703L21.1977 13.4395L25.6711 15.3054Z" fill="#F68B38" stroke="black" stroke-miterlimit="10" stroke-linejoin="round"/>
<path d="M19.1367 19.6673C18.6959 19.785 18.2575 19.8752 17.8192 19.9353C17.7366 19.9478 17.6514 19.9579 17.5688 19.9654C17.2982 19.9954 17.0277 20.0155 16.7597 20.023C16.4316 20.033 16.106 20.028 15.7829 20.0055C15.4473 19.9829 15.1141 19.9403 14.781 19.8827C14.5706 19.8452 14.3577 19.8001 14.1498 19.75C13.982 19.7074 13.8117 19.6623 13.6414 19.6072C12.6846 19.3066 11.6852 18.8182 10.6483 18.1395C9.16549 17.1701 8.15109 16.2284 7.60507 15.3167C7.23187 14.6955 7.05654 14.0092 7.07908 13.2578L6.86618 20.3887C6.84364 21.1401 7.01897 21.8264 7.39217 22.4475C7.9382 23.3592 8.9551 24.301 10.4354 25.2703C11.4723 25.9491 12.4717 26.4375 13.4285 26.7381C13.5988 26.7907 13.7691 26.8383 13.9369 26.8808C14.1473 26.9334 14.3577 26.976 14.5681 27.0136C14.8987 27.0712 15.2319 27.1138 15.57 27.1363C15.8931 27.1589 16.2187 27.1639 16.5468 27.1539C16.8148 27.1463 17.0853 27.1263 17.3558 27.0963C17.4385 27.0862 17.5212 27.0762 17.6063 27.0662C18.0446 27.0061 18.483 26.9159 18.9238 26.7982C19.575 26.6229 20.2312 26.3824 20.8925 26.0743L21.1054 18.9435C20.4441 19.2515 19.7879 19.492 19.1367 19.6673Z" fill="#F68B38" stroke="black" stroke-miterlimit="10" stroke-linejoin="round"/>
<path d="M23.2918 8.29627C25.01 9.42088 26.0444 10.543 26.3951 11.6676C26.7483 12.7897 26.5078 14.002 25.6737 15.3044L21.2004 13.4384C21.4458 13.0652 21.5886 12.7697 21.6211 12.5417C21.6787 12.166 21.6161 11.8079 21.4333 11.4647C21.2504 11.1216 20.9474 10.811 20.5266 10.5355C19.5723 9.90929 18.4903 9.69639 17.2805 9.89427C16.3763 10.0345 15.3694 10.5255 14.2598 11.367C12.8848 12.409 12.1709 13.2706 12.1183 13.9594C12.0682 14.6457 12.4565 15.2593 13.288 15.8053C14.0945 16.3338 14.9086 16.5743 15.7351 16.5342C16.5592 16.4916 17.4583 16.2362 18.4277 15.7628L21.1052 18.9462C19.9154 19.4998 18.7357 19.8379 17.5711 19.9682C16.4064 20.0959 15.2667 20.0258 14.1546 19.7502C13.0426 19.4772 11.8754 18.9387 10.6531 18.1397C9.1703 17.1704 8.1559 16.2286 7.60988 15.3169C7.06135 14.4052 6.93862 13.3533 7.24419 12.1585C7.54726 10.9663 8.47149 9.78657 10.0094 8.62188C12.0632 7.06647 14.2398 6.26496 16.5441 6.21737C18.8459 6.16728 21.0952 6.86108 23.2918 8.29627Z" fill="#FBB33B" stroke="black" stroke-miterlimit="10" stroke-linejoin="round"/>
<path d="M15.1639 21.901C16.1101 21.901 16.8771 21.134 16.8771 20.1878C16.8771 19.2416 16.1101 18.4746 15.1639 18.4746C14.2177 18.4746 13.4507 19.2416 13.4507 20.1878C13.4507 21.134 14.2177 21.901 15.1639 21.901Z" fill="#F68B38" stroke="black" stroke-miterlimit="10"/>
<path d="M24.7055 12.4524C24.8068 12.1567 24.5875 11.8138 24.2158 11.6866C23.8442 11.5594 23.4608 11.696 23.3596 11.9918C23.2583 12.2876 23.4776 12.6305 23.8493 12.7577C24.2209 12.8849 24.6043 12.7482 24.7055 12.4524Z" fill="#F68B38" stroke="black" stroke-miterlimit="10"/>
<path d="M12.296 10.9891C12.3085 10.4332 11.7593 9.96993 11.0692 9.9544C10.3791 9.93887 9.80958 10.3769 9.79707 10.9329C9.78456 11.4888 10.3338 11.952 11.0239 11.9676C11.7139 11.9831 12.2835 11.545 12.296 10.9891Z" fill="#F68B38" stroke="black" stroke-miterlimit="10"/>
<path d="M15.9542 8.41112C15.9621 8.05849 15.6109 7.76456 15.1698 7.75464C14.7286 7.74471 14.3646 8.02253 14.3567 8.37517C14.3487 8.72781 14.6999 9.02172 15.141 9.03165C15.5822 9.04158 15.9462 8.76376 15.9542 8.41112Z" fill="#F68B38" stroke="black" stroke-miterlimit="10"/>
<path d="M17.799 24.6546C18.2403 24.6546 18.598 24.2969 18.598 23.8556C18.598 23.4144 18.2403 23.0566 17.799 23.0566C17.3577 23.0566 17 23.4144 17 23.8556C17 24.2969 17.3577 24.6546 17.799 24.6546Z" fill="#F68B38" stroke="black" stroke-miterlimit="10"/>
</svg>
