<svg width="97" height="159" viewBox="0 0 97 159" fill="none" xmlns="http://www.w3.org/2000/svg">
<path d="M48 158C70.0914 158 88 140.091 88 118C88 95.9087 70.0914 78 48 78C25.9086 78 8 95.9087 8 118C8 140.091 25.9086 158 48 158Z" fill="#F499AD" stroke="#1D1D1B" stroke-width="2" stroke-miterlimit="10"/>
<path d="M36.9751 126.569C37.5855 125.538 38.6537 124.375 40.1988 123.078C40.6184 122.734 41.0571 122.372 41.534 122.01C42.5259 121.266 43.4796 120.617 44.4143 120.102C45.5779 119.454 46.6842 118.977 47.7524 118.691C48.1148 118.595 48.4772 118.519 48.8206 118.462C48.935 118.443 49.0495 118.424 49.164 118.405C49.6218 118.347 50.0605 118.309 50.4992 118.29C50.8807 118.271 51.2622 118.29 51.6437 118.309C52.0252 118.328 52.3876 118.385 52.7501 118.443C53.1888 118.519 53.6084 118.614 54.028 118.748C54.9436 119.034 55.802 119.454 56.6413 119.988C57.6523 120.655 58.3771 121.399 58.8349 122.22C59.1973 122.887 59.3499 123.574 59.3308 124.299L59.8458 107.112C59.8649 106.387 59.6933 105.701 59.3499 105.033C58.9112 104.213 58.1864 103.45 57.1563 102.801C56.317 102.267 55.4586 101.848 54.543 101.561C54.1234 101.428 53.7038 101.332 53.2651 101.256C52.9026 101.199 52.5211 101.142 52.1587 101.123C51.7772 101.104 51.4148 101.085 51.0142 101.104C50.5755 101.123 50.1368 101.161 49.679 101.218C49.5645 101.237 49.4501 101.256 49.3356 101.275C48.9923 101.332 48.6299 101.409 48.2674 101.504C47.2183 101.79 46.0929 102.267 44.9293 102.916C44.0138 103.431 43.0409 104.079 42.049 104.823C41.5721 105.186 41.1334 105.548 40.7138 105.891C39.1687 107.169 38.1006 108.333 37.4902 109.382" fill="#F68B38"/>
<path d="M37.4901 126.871L36.4409 126.261C37.0895 125.155 38.1958 123.953 39.7981 122.618C40.2178 122.274 40.6755 121.912 41.1524 121.53C42.1634 120.767 43.1553 120.119 44.09 119.585C45.2917 118.898 46.4743 118.402 47.5616 118.116C47.9431 118.021 48.3246 117.925 48.687 117.868C48.8015 117.849 48.935 117.83 49.0494 117.811C49.5263 117.753 49.9841 117.715 50.4419 117.696C50.8424 117.677 51.243 117.696 51.6436 117.715C52.0442 117.734 52.4447 117.792 52.8262 117.868C53.284 117.944 53.7419 118.059 54.1806 118.192C55.1343 118.497 56.069 118.936 56.9464 119.508C57.7094 120.004 58.3198 120.557 58.7967 121.149L59.2163 107.129C59.2354 106.518 59.1018 105.927 58.7776 105.355C58.377 104.611 57.7094 103.943 56.7938 103.333C56.0118 102.818 55.1915 102.436 54.3332 102.169C53.9517 102.055 53.532 101.94 53.1314 101.883C52.7881 101.826 52.4257 101.788 52.0823 101.75C51.739 101.731 51.3765 101.711 50.9951 101.731C50.5754 101.75 50.1557 101.788 49.717 101.845C49.6026 101.864 49.4881 101.883 49.3928 101.902C49.0685 101.96 48.7252 102.017 48.3818 102.112C47.3708 102.379 46.3027 102.837 45.1772 103.466C44.2807 103.962 43.3461 104.592 42.3732 105.336C41.8964 105.698 41.4576 106.041 41.0571 106.385C39.5692 107.625 38.5392 108.75 37.9669 109.723L36.9178 109.113C37.5663 108.006 38.6727 106.805 40.275 105.469C40.6946 105.126 41.1524 104.764 41.6293 104.382C42.6403 103.619 43.6322 102.97 44.5668 102.436C45.7685 101.75 46.9512 101.254 48.0385 100.968C48.42 100.872 48.8015 100.777 49.1639 100.72C49.2783 100.701 49.3928 100.681 49.5263 100.662C49.9841 100.605 50.4609 100.567 50.9187 100.548C51.3193 100.529 51.7199 100.548 52.1205 100.567C52.521 100.586 52.9025 100.643 53.3031 100.72C53.7609 100.796 54.2187 100.91 54.6575 101.044C55.6112 101.349 56.5458 101.788 57.4233 102.36C58.5105 103.066 59.3117 103.905 59.8076 104.821C60.2082 105.584 60.399 106.385 60.3799 107.205L59.8649 124.372C59.8458 124.697 59.5788 124.964 59.2354 124.964C58.9111 124.945 58.6441 124.678 58.6441 124.334C58.6632 123.724 58.5296 123.152 58.2053 122.56C57.8048 121.816 57.1371 121.149 56.2215 120.538C55.4395 120.023 54.6193 119.642 53.7609 119.375C53.3794 119.26 52.9789 119.146 52.5592 119.089C52.2159 119.032 51.8534 118.993 51.5101 118.955C51.1476 118.936 50.7853 118.917 50.4228 118.936C50.0032 118.955 49.5835 118.993 49.1639 119.051C49.0494 119.07 48.935 119.089 48.8396 119.108C48.5153 119.165 48.172 119.222 47.8286 119.318C46.8176 119.585 45.7495 120.042 44.6241 120.672C43.7275 121.168 42.7929 121.797 41.82 122.541C41.3432 122.904 40.9044 123.247 40.5039 123.59C39.0923 124.773 38.0623 125.898 37.4901 126.871Z" fill="black"/>
<path d="M37.0133 110.391L36.4983 127.577C36.422 127.787 36.3838 128.016 36.3647 128.206L36.8798 111.02C36.918 110.81 36.9561 110.6 37.0133 110.391Z" fill="#945322"/>
<path d="M36.3838 128.206C36.3838 128.225 36.3838 128.244 36.3838 128.263C36.3838 128.321 36.3838 128.378 36.3838 128.435L36.8988 111.249C36.8988 111.191 36.8988 111.134 36.8988 111.077C36.8988 111.058 36.8988 111.039 36.8988 111.02" fill="#8F5120"/>
<path d="M71.6527 108.27L71.1377 125.456C71.1377 125.647 71.1187 125.838 71.0996 126.028L71.6146 108.842C71.6337 108.651 71.6527 108.46 71.6527 108.27Z" fill="#8F5120"/>
<path d="M71.1955 110.865C70.9094 111.8 70.4707 112.754 69.8984 113.726C69.784 113.917 69.6695 114.127 69.536 114.318L69.021 131.504C69.1545 131.313 69.2689 131.104 69.3834 130.913C69.9556 129.94 70.3944 128.986 70.6805 128.052C70.8903 127.365 71.0239 126.697 71.1001 126.049L71.6152 108.862C71.5579 109.511 71.4053 110.178 71.1955 110.865Z" fill="#F68B38"/>
<path d="M69.0206 132.095C68.9633 132.095 68.9061 132.095 68.8488 132.075C68.5818 131.999 68.4101 131.751 68.4292 131.484L68.9442 114.298C68.9442 114.183 68.9824 114.088 69.0396 113.992C69.154 113.802 69.2876 113.611 69.402 113.42C69.9552 112.486 70.3748 111.57 70.6419 110.692C70.8326 110.063 70.9662 109.415 71.0234 108.804C71.0615 108.48 71.3286 108.251 71.6528 108.251C71.9771 108.27 72.2251 108.537 72.2251 108.861L71.7101 126.048C71.6338 126.792 71.5003 127.497 71.2714 128.222C70.9662 129.195 70.5084 130.206 69.9171 131.217C69.8026 131.427 69.6691 131.618 69.5356 131.827C69.4211 131.999 69.2304 132.095 69.0206 132.095ZM70.1269 114.507L69.7072 128.966C69.8598 128.604 69.9933 128.222 70.1078 127.879C70.2985 127.25 70.4321 126.601 70.4893 125.991L70.8708 113.21C70.7373 113.497 70.5656 113.764 70.413 114.05C70.3367 114.183 70.2413 114.355 70.1269 114.507Z" fill="black"/>
<path d="M69.536 114.317L69.021 131.503L58.2437 127.001L58.7587 109.834L69.536 114.317Z" fill="#F68B38"/>
<path d="M69.0207 132.095C68.9444 132.095 68.868 132.076 68.7917 132.057L58.0144 127.555C57.7855 127.46 57.6329 127.231 57.652 126.983L58.1671 109.796C58.1671 109.606 58.2815 109.415 58.4341 109.3C58.6057 109.186 58.8156 109.167 58.9873 109.243L69.7645 113.745C69.9934 113.84 70.1461 114.069 70.127 114.317L69.612 131.503C69.612 131.694 69.4975 131.885 69.3449 131.999C69.2495 132.076 69.1351 132.095 69.0207 132.095ZM58.8728 126.601L68.4484 130.588L68.9253 114.699L59.3497 110.712L58.8728 126.601Z" fill="black"/>
<path d="M53.7987 124.83C52.7305 125.117 51.6814 125.326 50.6322 125.479C50.4224 125.498 50.2317 125.536 50.0218 125.555C49.3733 125.632 48.7248 125.67 48.0762 125.689C47.2942 125.708 46.5121 125.689 45.73 125.651C44.9288 125.593 44.1087 125.498 43.3266 125.365C42.8116 125.269 42.3156 125.174 41.8006 125.04C41.4 124.945 40.9804 124.83 40.5798 124.697C38.2718 123.972 35.8683 122.789 33.3695 121.168C29.8025 118.841 27.3609 116.571 26.0448 114.377C25.1483 112.89 24.7286 111.23 24.7667 109.418L24.2517 126.604C24.1945 128.417 24.6141 130.076 25.5297 131.564C26.8459 133.757 29.2875 136.027 32.8545 138.355C35.3533 139.995 37.7567 141.178 40.0648 141.883C40.4844 142.017 40.885 142.131 41.2856 142.227C41.7815 142.36 42.2965 142.456 42.8115 142.551C43.6127 142.685 44.4138 142.799 45.215 142.837C45.9971 142.894 46.7791 142.913 47.5612 142.875C48.2098 142.856 48.8583 142.818 49.5068 142.742C49.7167 142.723 49.9074 142.704 50.1172 142.665C51.1664 142.513 52.2346 142.303 53.2837 142.017C54.8478 141.597 56.431 141.006 58.0333 140.281L58.5483 123.095C56.946 123.839 55.3628 124.411 53.7987 124.83Z" fill="#F68B38"/>
<path d="M46.8365 143.485C46.2834 143.485 45.7111 143.466 45.177 143.428C44.3568 143.371 43.5175 143.275 42.6973 143.123C42.1822 143.027 41.6481 142.913 41.1331 142.799C40.7135 142.703 40.2939 142.589 39.8742 142.455C37.528 141.711 35.0483 140.51 32.5113 138.85C28.868 136.466 26.3501 134.12 24.9958 131.85C24.042 130.266 23.5843 128.492 23.6415 126.566L24.1565 109.379C24.1756 109.055 24.4426 108.788 24.7669 108.788H24.786C25.1103 108.807 25.3773 109.074 25.3773 109.418C25.3201 111.096 25.7206 112.66 26.5599 114.034C27.8189 116.132 30.2223 118.364 33.713 120.634C36.1546 122.236 38.5389 123.399 40.7707 124.105C41.1713 124.239 41.5719 124.334 41.9534 124.43C42.4493 124.544 42.9453 124.658 43.4412 124.735C44.2233 124.868 45.0053 124.964 45.7874 125.021C46.5504 125.078 47.3134 125.097 48.0764 125.059C48.7059 125.04 49.3353 125.002 49.9839 124.925C50.1746 124.906 50.3654 124.887 50.5752 124.849C51.6052 124.716 52.6353 124.506 53.6653 124.22C55.1913 123.8 56.7554 123.228 58.3005 122.522C58.4912 122.427 58.7201 122.446 58.8918 122.56C59.0635 122.675 59.178 122.865 59.1589 123.075L58.6439 140.262C58.6439 140.491 58.5103 140.7 58.3005 140.796C56.6982 141.54 55.0578 142.131 53.4555 142.57C52.3683 142.856 51.281 143.085 50.2128 143.237C50.0029 143.256 49.7931 143.295 49.6024 143.314C48.9347 143.39 48.2671 143.428 47.5995 143.447C47.3325 143.485 47.0845 143.485 46.8365 143.485ZM25.2056 114.148L24.8432 126.585C24.786 128.264 25.1866 129.828 26.0258 131.22C27.2848 133.318 29.6882 135.55 33.1789 137.82C35.6205 139.422 38.0048 140.586 40.2366 141.292C40.6372 141.425 41.0378 141.521 41.4193 141.616C41.9152 141.73 42.4112 141.845 42.9071 141.921C43.6892 142.055 44.4712 142.15 45.2533 142.207C46.0163 142.265 46.7793 142.284 47.5423 142.245C48.1718 142.226 48.8012 142.188 49.4498 142.112C49.6405 142.093 49.8504 142.074 50.0411 142.036C51.0711 141.902 52.1012 141.692 53.1312 141.406C54.5618 141.025 56.0115 140.51 57.4422 139.861L57.919 124.029C56.6029 124.601 55.2676 125.059 53.9705 125.402C52.8833 125.688 51.796 125.917 50.7278 126.07C50.5179 126.089 50.3082 126.127 50.1174 126.146C49.4498 126.223 48.7821 126.261 48.1145 126.28C47.3134 126.299 46.4932 126.28 45.7111 126.242C44.8909 126.184 44.0516 126.089 43.2314 125.936C42.7163 125.841 42.1822 125.727 41.6672 125.612C41.2476 125.517 40.828 125.383 40.4083 125.269C38.0621 124.544 35.5823 123.323 33.0454 121.664C29.4021 119.279 26.8842 116.933 25.5299 114.663C25.3964 114.492 25.301 114.32 25.2056 114.148Z" fill="black"/>
<path d="M63.7935 97.4348C67.9327 100.143 70.4316 102.852 71.2709 105.561C72.1292 108.269 71.5379 111.188 69.535 114.316L58.7577 109.814C59.3491 108.918 59.6924 108.193 59.7687 107.659C59.9022 106.762 59.7496 105.885 59.3109 105.065C58.8722 104.245 58.1473 103.482 57.1173 102.833C54.8092 101.326 52.215 100.811 49.2966 101.288C47.122 101.631 44.6995 102.814 42.0291 104.836C38.71 107.354 36.9933 109.433 36.8789 111.073C36.7644 112.733 37.6991 114.202 39.7019 115.518C41.6476 116.796 43.6123 117.368 45.5961 117.273C47.5799 117.177 49.7353 116.548 52.0815 115.422L58.5289 123.091C55.6676 124.426 52.8254 125.246 50.0214 125.551C47.2174 125.856 44.4707 125.685 41.7811 125.036C39.1106 124.369 36.2875 123.09 33.35 121.164C29.783 118.837 27.3414 116.567 26.0253 114.373C24.7091 112.18 24.4039 109.643 25.1478 106.762C25.8727 103.882 28.1044 101.04 31.805 98.236C36.7453 94.4973 41.9909 92.5516 47.5417 92.4372C53.0925 92.3227 58.5097 93.9822 63.7935 97.4348Z" fill="#FBB33B"/>
<path d="M47.3512 126.298C45.4056 126.298 43.4981 126.069 41.6478 125.611C38.9201 124.943 36.0207 123.608 33.0259 121.643C29.3826 119.259 26.8648 116.913 25.5104 114.643C24.118 112.316 23.7937 109.607 24.5567 106.574C25.3197 103.58 27.6278 100.604 31.4428 97.7236C36.4785 93.9277 41.8767 91.9249 47.542 91.8104C53.2072 91.7151 58.777 93.4127 64.1371 96.9225C68.3717 99.6884 70.9659 102.53 71.8624 105.373C72.7589 108.234 72.1485 111.362 70.0503 114.643C69.8977 114.891 69.5734 114.986 69.3064 114.872L58.5291 110.37C58.3574 110.294 58.2429 110.16 58.1857 109.989C58.1285 109.817 58.1666 109.626 58.262 109.474C58.8152 108.653 59.1204 108.005 59.1776 107.566C59.2921 106.784 59.1776 106.059 58.7961 105.334C58.3955 104.591 57.7279 103.923 56.8123 103.313C54.6568 101.901 52.1581 101.405 49.4303 101.863C47.3703 102.187 45.005 103.332 42.4299 105.296C38.5005 108.272 37.5849 110.103 37.5086 111.114C37.4132 112.545 38.2334 113.823 40.0646 115.005C41.8767 116.188 43.727 116.76 45.5963 116.665C47.4847 116.57 49.6021 115.959 51.8529 114.872C52.1009 114.757 52.406 114.815 52.5777 115.025L59.025 122.693C59.1395 122.845 59.1967 123.036 59.1585 123.208C59.1204 123.398 58.9869 123.551 58.8152 123.627C55.9158 124.982 52.9783 125.821 50.1171 126.145C49.1633 126.26 48.2477 126.298 47.3512 126.298ZM48.076 93.0311C47.9044 93.0311 47.7327 93.0311 47.542 93.0311C42.1438 93.1456 36.9745 95.0531 32.1485 98.6964C28.5624 101.405 26.407 104.152 25.7012 106.88C25.0145 109.588 25.2816 111.992 26.5215 114.033C27.7804 116.131 30.1838 118.363 33.6745 120.633C36.5548 122.521 39.3207 123.799 41.9148 124.428C44.509 125.077 47.1986 125.249 49.9454 124.943C52.4442 124.657 55.0002 123.971 57.5563 122.864L51.9291 116.169C49.6974 117.199 47.5801 117.79 45.6345 117.886C43.5362 117.981 41.4189 117.371 39.3779 116.035C37.1843 114.605 36.1543 112.926 36.2878 111.038C36.4213 109.188 38.1953 106.994 41.686 104.362C44.4327 102.282 46.9697 101.062 49.2396 100.699C52.2916 100.203 55.0574 100.756 57.4799 102.34C58.5672 103.045 59.3684 103.885 59.8643 104.8C60.3602 105.735 60.551 106.746 60.3794 107.776C60.3031 108.272 60.0742 108.863 59.6545 109.569L69.3064 113.594C70.985 110.79 71.4618 108.158 70.7179 105.773C69.9168 103.217 67.4942 100.585 63.4885 97.9716C58.4718 94.6716 53.3026 93.0311 48.076 93.0311Z" fill="black"/>
<path d="M44.2232 130.206C46.4987 130.206 48.3433 128.361 48.3433 126.086C48.3433 123.81 46.4987 121.966 44.2232 121.966C41.9477 121.966 40.103 123.81 40.103 126.086C40.103 128.361 41.9477 130.206 44.2232 130.206Z" fill="#F68B38"/>
<path d="M44.2039 130.818C43.2311 130.818 42.2774 130.512 41.4763 129.94C40.4462 129.215 39.7595 128.109 39.5497 126.869C39.1109 124.294 40.8659 121.852 43.441 121.414C44.6808 121.204 45.9397 121.49 46.9698 122.234C47.9998 122.959 48.6865 124.065 48.8963 125.305C49.1062 126.545 48.8201 127.804 48.0761 128.834C47.3513 129.864 46.2449 130.551 45.0051 130.76C44.738 130.799 44.471 130.818 44.2039 130.818ZM44.223 122.558C44.0323 122.558 43.8224 122.577 43.6317 122.615C42.697 122.768 41.8959 123.283 41.3427 124.046C40.7895 124.809 40.5797 125.744 40.7323 126.678C40.8849 127.613 41.3999 128.414 42.1629 128.967C42.9259 129.52 43.8606 129.73 44.7953 129.578C45.7299 129.425 46.5311 128.91 47.0843 128.147C47.6374 127.384 47.8472 126.449 47.6946 125.515C47.542 124.58 47.027 123.779 46.264 123.226C45.6536 122.787 44.9479 122.558 44.223 122.558Z" fill="black"/>
<path d="M67.1761 107.423C67.4217 106.705 66.8936 105.875 65.9966 105.568C65.0995 105.261 64.1732 105.593 63.9276 106.311C63.682 107.029 64.2101 107.859 65.1072 108.166C66.0042 108.473 66.9305 108.14 67.1761 107.423Z" fill="#F68B38"/>
<path d="M65.8356 108.901C65.5495 108.901 65.2443 108.844 64.9582 108.749C63.7564 108.329 63.0507 107.165 63.4131 106.135C63.7564 105.105 65.0344 104.609 66.2361 105.029C66.7893 105.22 67.2662 105.582 67.5714 106.04C67.8957 106.536 67.972 107.127 67.8003 107.642C67.6286 108.157 67.209 108.558 66.6368 108.768C66.3697 108.863 66.1026 108.901 65.8356 108.901ZM65.3587 106.097C64.9772 106.097 64.6339 106.269 64.5385 106.536C64.405 106.917 64.7674 107.413 65.3396 107.623C65.6448 107.719 65.9501 107.738 66.2171 107.642C66.3316 107.604 66.5605 107.49 66.6368 107.261C66.7131 107.032 66.5986 106.822 66.5413 106.708C66.3887 106.479 66.1408 106.288 65.8356 106.193C65.683 106.116 65.5113 106.097 65.3587 106.097Z" fill="black"/>
<path d="M37.2532 103.901C37.2833 102.564 35.9587 101.449 34.2947 101.412C32.6307 101.374 31.2575 102.428 31.2274 103.766C31.1973 105.103 32.5217 106.218 34.1857 106.255C35.8497 106.293 37.2231 105.239 37.2532 103.901Z" fill="#F68B38"/>
<path d="M34.3617 106.9C34.3236 106.9 34.3045 106.9 34.2664 106.9C33.3317 106.881 32.4352 106.557 31.7866 106.004C31.0809 105.412 30.7185 104.63 30.7375 103.791C30.7566 102.952 31.1762 102.189 31.9011 101.636C32.5878 101.101 33.5034 100.834 34.419 100.853C36.4028 100.892 38.0051 102.303 37.9669 103.963C37.9097 105.584 36.3074 106.9 34.3617 106.9ZM34.2854 102.036C33.6369 102.036 33.0456 102.227 32.5878 102.57C32.1491 102.894 31.9201 103.333 31.9011 103.791C31.882 104.249 32.1109 104.707 32.5306 105.05C32.9884 105.431 33.5988 105.66 34.2664 105.66C35.5826 105.698 36.6889 104.897 36.708 103.886C36.727 102.875 35.6779 102.036 34.3427 102.017C34.3427 102.036 34.3236 102.036 34.2854 102.036Z" fill="black"/>
<path d="M46.0616 97.6954C46.0808 96.8423 45.234 96.1314 44.1703 96.1074C43.1066 96.0835 42.2288 96.7556 42.2096 97.6087C42.1904 98.4617 43.0371 99.1727 44.1008 99.1967C45.1645 99.2206 46.0424 98.5484 46.0616 97.6954Z" fill="#F68B38"/>
<path d="M44.2421 99.8215C44.223 99.8215 44.204 99.8215 44.1658 99.8215C43.5173 99.8024 42.9068 99.5927 42.449 99.1921C41.9531 98.7724 41.686 98.2002 41.686 97.6088C41.7051 97.0175 41.9912 96.4643 42.5062 96.0638C42.9831 95.7014 43.6126 95.5105 44.2612 95.5296C44.9097 95.5487 45.5201 95.7586 45.9779 96.1591C46.4738 96.5788 46.7409 97.1511 46.7409 97.7424C46.7218 98.3337 46.4357 98.8869 45.9207 99.2874C45.4629 99.6308 44.8715 99.8215 44.2421 99.8215ZM44.2039 96.7504C43.8415 96.7504 43.4982 96.865 43.2502 97.0557C43.1167 97.1511 42.9069 97.3608 42.9069 97.666C42.9069 97.9712 43.0976 98.1811 43.2311 98.2955C43.4791 98.5053 43.8415 98.6198 44.2039 98.6388C44.5664 98.6579 44.9288 98.5435 45.1958 98.3337C45.3293 98.2383 45.5391 98.0285 45.5391 97.7233C45.5391 97.4181 45.3484 97.2082 45.2149 97.0938C44.9669 96.884 44.6045 96.7695 44.2421 96.7504C44.223 96.7504 44.223 96.7504 44.2039 96.7504Z" fill="black"/>
<path d="M50.5745 136.846C51.6385 136.846 52.5011 135.984 52.5011 134.92C52.5011 133.856 51.6385 132.993 50.5745 132.993C49.5105 132.993 48.6479 133.856 48.6479 134.92C48.6479 135.984 49.5105 136.846 50.5745 136.846Z" fill="#F68B38"/>
<path d="M50.5748 137.456C50.5557 137.456 50.5366 137.456 50.5176 137.456C49.1251 137.418 48.0188 136.273 48.0378 134.862C48.076 133.488 49.2014 132.382 50.5557 132.382C50.5748 132.382 50.5938 132.382 50.6129 132.382C51.2805 132.401 51.91 132.668 52.3869 133.164C52.8447 133.66 53.1117 134.289 53.0927 134.976C53.0736 135.644 52.8065 136.273 52.3106 136.75C51.8528 137.208 51.2233 137.456 50.5748 137.456ZM50.5748 133.603C49.8499 133.603 49.2777 134.175 49.2586 134.9C49.2395 135.625 49.8308 136.235 50.5557 136.254C50.9372 136.273 51.2424 136.14 51.4904 135.892C51.7384 135.644 51.8909 135.319 51.8909 134.957C51.8909 134.614 51.7765 134.27 51.5285 134.022C51.2805 133.774 50.9563 133.622 50.5939 133.622C50.5939 133.603 50.5748 133.603 50.5748 133.603Z" fill="black"/>
<path d="M16.5198 38.3162C16.6245 38.3239 16.7694 38.3315 16.9305 38.3309C17.2606 38.3459 17.5753 38.53 17.7213 38.8193L22.0193 47.3362C22.1169 47.6096 22.0859 47.9477 21.9016 48.1817C21.8215 48.3027 21.7253 48.4318 21.6774 48.5366C21.5014 48.8671 21.8975 49.2924 22.2351 49.1223L27.2018 46.6189C27.5394 46.4487 27.4327 45.8777 27.0621 45.8226C26.9332 45.8069 26.8204 45.7831 26.6996 45.7835C26.3614 45.7524 26.0628 45.5603 25.9249 45.2871L24.9842 43.423L25.6432 43.0908C30.1117 40.8386 32.2113 38.0872 30.8327 35.3553C29.4541 32.6234 25.9438 32.6592 21.5155 34.9113L16.364 37.528C16.0425 37.69 16.1492 38.2611 16.5198 38.3162ZM21.7404 36.9951L21.5945 36.7058C21.4485 36.4166 21.536 36.1105 21.8253 35.9646C24.2444 34.7655 25.8242 35.219 26.9027 37.3563C27.9732 39.4775 27.3588 41.0167 24.9799 42.2158C24.6905 42.3616 24.4003 42.266 24.2544 41.9767L21.7404 36.9951Z" fill="black"/>
<path d="M34.2383 36.1258C34.6964 40.2041 37.4424 42.5587 42.0037 42.047C46.5651 41.5352 48.7562 38.6268 48.2802 34.5505C47.8221 30.4721 45.0562 28.1017 40.4949 28.6134C35.9335 29.1252 33.7802 32.0474 34.2383 36.1258ZM39.9576 29.7967C41.8276 29.3515 42.9731 31.4871 43.7562 34.7501C44.5194 37.9973 44.4647 40.4124 42.5768 40.8597C40.7068 41.3049 39.5275 39.1912 38.7623 35.9262C37.9792 32.6631 38.0876 30.242 39.9576 29.7967Z" fill="black"/>
<path d="M50.9135 34.5738C49.93 38.5582 51.6903 41.7174 56.1469 42.816C60.6034 43.9147 63.6668 41.9447 64.6328 37.956C65.6162 33.9715 63.8428 30.7906 59.3863 29.6919C54.9297 28.5932 51.897 30.5894 50.9135 34.5738ZM58.4722 30.616C60.3808 30.8455 60.7155 33.2454 60.3194 36.5774C59.9102 39.8877 59.022 42.1344 57.0959 41.9006C55.1873 41.6711 54.8133 39.2801 55.2268 35.9523C55.6229 32.6202 56.5636 30.3865 58.4722 30.616Z" fill="black"/>
<path d="M69.8161 34.0985C69.8538 34.2074 69.9219 34.3355 70.0052 34.4732C70.1719 34.7486 70.176 35.1129 70.003 35.3869L64.9187 43.4379C64.7457 43.7118 64.4149 43.8649 64.0944 43.833C63.9342 43.8171 63.7891 43.8108 63.6746 43.8236C63.3004 43.843 63.1395 44.4012 63.444 44.5933L72.0459 50.0188C72.3199 50.1917 72.6636 50.1531 72.8879 49.9328C73.254 49.5891 73.8003 49.0611 74.2224 48.5612C74.558 48.1983 74.4738 47.826 74.1846 47.6435C73.9714 47.5091 73.6662 47.4868 73.3353 47.6399C72.5302 48.0046 71.8309 48.6063 70.2475 47.6076L68.7403 46.657C68.4662 46.4841 68.3989 46.1863 68.5719 45.9123L73.6369 37.8917L73.733 37.7396C73.8964 37.4808 74.2121 37.3181 74.5518 37.3196C74.6567 37.3219 74.7865 37.3187 74.9163 37.3154C75.2905 37.296 75.4514 36.7378 75.1317 36.5361L70.412 33.5593C70.1076 33.3672 69.6726 33.7526 69.8161 34.0985Z" fill="black"/>
<path d="M7.12919 26.5867C9.32434 29.8415 12.889 30.9364 16.7731 28.4906C19.987 26.4668 21.0769 23.8235 19.7134 20.9171C19.4605 20.3744 19.0743 19.9582 18.5983 20.2154C18.0614 20.511 18.2534 21.092 18.4587 21.5583C19.2878 23.5037 18.7502 25.3312 17.2118 26.2999C14.8205 27.8058 12.7044 26.4155 11.114 24.439C9.01948 21.8228 8.05921 19.5984 9.55013 18.3831C10.5765 17.5454 11.869 17.3058 12.9017 19.2718C13.6986 20.7908 15.168 20.8014 16.4114 19.8696C17.9194 18.7498 17.212 17.0681 16.2911 16.3717C14.7327 15.1621 12.3115 15.3255 9.53928 17.0711C5.6552 19.5169 4.85417 23.1695 7.12919 26.5867Z" fill="black"/>
<path d="M22.4174 24.597L27.7153 22.8452C28.0741 22.7266 28.0546 22.1453 27.697 22.0361C27.5721 22.0015 27.4472 21.967 27.345 21.9439C27.0156 21.8632 26.7497 21.6289 26.6546 21.338L25.2792 17.1291L29.4833 15.7389L30.8588 19.9479C30.9423 20.2615 30.8665 20.6089 30.6378 20.8362C30.5234 20.9498 30.4261 21.0578 30.346 21.1602C30.1396 21.4559 30.4667 21.9354 30.8085 21.8224L36.1064 20.0706C36.4482 19.9576 36.4458 19.3707 36.0882 19.2615C35.9633 19.2269 35.8384 19.1924 35.7191 19.175C35.4068 19.0886 35.1409 18.8543 35.0458 18.5634L32.144 9.68352L32.0881 9.51242C31.9931 9.22156 32.0689 8.87418 32.2693 8.61832C32.3551 8.53309 32.4353 8.43074 32.5155 8.3284C32.7389 8.02702 32.3947 7.55313 32.0529 7.66615L26.755 9.41794C26.4132 9.53096 26.4327 10.1122 26.7732 10.2271C26.8981 10.2616 27.0401 10.2905 27.1992 10.3138C27.5174 10.3602 27.7833 10.5946 27.9011 10.8969L29.1479 14.7123L24.9437 16.1025L23.7528 12.4581L23.6969 12.287C23.6019 11.9962 23.6777 11.6488 23.8953 11.3873C23.9639 11.3077 24.0441 11.2054 24.1243 11.103C24.3477 10.8016 24.0206 10.3221 23.6617 10.4408L18.3638 12.1925C18.022 12.3056 18.0415 12.8868 18.3991 12.9961C18.507 13.0363 18.649 13.0651 18.808 13.0884C19.1262 13.1348 19.4092 13.3635 19.5099 13.6715L22.4676 22.7225C22.5682 23.0305 22.4753 23.3835 22.2466 23.6108C22.1322 23.7244 22.035 23.8324 21.9719 23.9291C21.7484 24.2305 22.0756 24.71 22.4174 24.597Z" fill="black"/>
<path d="M35.2625 7.89068C35.3582 7.95476 35.4898 8.01576 35.6394 8.07523C35.9385 8.19417 36.1615 8.4822 36.1888 8.80505L36.9881 18.2573C37.0154 18.5802 36.8439 18.902 36.569 19.07C36.4316 19.154 36.3122 19.2365 36.2285 19.3159C35.9419 19.5572 36.1503 20.0994 36.509 20.0688L47.18 19.1558C47.5028 19.1282 47.7536 18.8899 47.7996 18.5789C47.8842 18.0838 48.0013 17.3331 48.0364 16.6798C48.0851 16.1878 47.7934 15.9418 47.4526 15.9709C47.2015 15.9924 46.9447 16.1589 46.7732 16.4807C46.3511 17.2575 46.1564 18.1594 44.2912 18.319L41.9777 18.5169C41.6548 18.5445 41.4214 18.3477 41.3941 18.0249L41.0059 13.4333L42.2972 13.3228C44.6287 13.1233 43.9609 14.6257 44.774 14.6284C45.7142 14.6383 45.4608 10.3603 44.5133 10.4775C43.6555 10.587 44.5392 12.0651 42.2077 12.2646L40.9164 12.375L40.5979 8.60848L40.5706 8.28563C40.5434 7.96278 40.7404 7.72913 41.0632 7.70152L43.018 7.53426C44.8832 7.37469 45.2281 8.24847 45.7745 8.94242C45.996 9.21251 46.2772 9.33299 46.5103 9.31304C46.8511 9.28388 47.0989 9.00976 46.9847 8.51369C46.8225 7.8772 46.6004 7.17357 46.4339 6.70004C46.3349 6.38333 46.0297 6.19265 45.7069 6.22027L35.4125 7.10102C35.0538 7.13171 34.9394 7.70154 35.2625 7.89068Z" fill="black"/>
<path d="M50.7099 6.80161C50.7897 6.88482 50.9053 6.97276 51.0387 7.06307C51.3055 7.24369 51.462 7.57312 51.42 7.89437L50.188 17.3C50.1459 17.6213 49.9099 17.8987 49.6057 18.0036C49.4536 18.0561 49.3194 18.1109 49.2208 18.1705C48.8894 18.3445 48.9775 18.919 49.3344 18.9663L59.9516 20.3734C60.2727 20.416 60.5685 20.2373 60.6796 19.9434C60.8676 19.478 61.1419 18.7699 61.3153 18.1392C61.4676 17.6692 61.235 17.366 60.896 17.3211C60.6461 17.288 60.3598 17.3953 60.1238 17.6727C59.5461 18.3406 59.1639 19.1796 57.3082 18.9337L55.0063 18.6286C54.6851 18.586 54.499 18.3435 54.5411 18.0222L55.1395 13.4532L56.4243 13.6235C58.744 13.931 57.7719 15.2547 58.5655 15.4325C59.4817 15.6447 60.1451 11.4112 59.1947 11.3216C58.3335 11.2437 58.8819 12.8779 56.5622 12.5705L55.2775 12.4002L55.7684 8.65225L55.8104 8.33099C55.8525 8.00974 56.0947 7.82394 56.4159 7.86651L58.3609 8.12429C60.2167 8.37024 60.3674 9.29809 60.7534 10.0937C60.9123 10.4053 61.1612 10.5835 61.3932 10.6143C61.7322 10.6592 62.0326 10.4448 62.0267 9.93561C62.0038 9.27891 61.9367 8.54373 61.8749 8.04529C61.8456 7.71457 61.5881 7.46256 61.267 7.41999L51.0245 6.06254C50.6676 6.01524 50.4346 6.54723 50.7099 6.80161Z" fill="black"/>
<path d="M63.4363 17.6845C62.8328 19.6115 64.8513 21.8741 68.4383 23.228C71.7727 24.4865 74.6336 24.0272 75.6259 21.7275C77.3987 17.6445 68.7525 13.7846 69.4377 11.4844C69.666 10.6663 70.8797 10.451 72.1578 11.1451C74.139 12.2199 73.2181 14.4312 74.699 15.8174C74.9139 16.014 75.1476 16.1599 75.3834 16.2489C76.2086 16.5603 77.1129 16.2475 77.2398 15.0834C77.3854 13.7146 75.813 11.5435 72.5123 10.2977C69.42 9.11125 66.6558 9.56861 65.7814 11.9128C64.2087 16.1291 72.8737 19.9383 71.5574 22.2312C71.1207 22.9898 70.094 23.0641 68.9823 22.4906C65.959 20.9646 67.7118 17.7591 65.4425 16.7871C64.5688 16.3997 63.7003 16.8222 63.4363 17.6845Z" fill="black"/>
<path d="M81.9874 15.3651C82.0227 15.4752 82.0879 15.6052 82.1682 15.7451C82.3287 16.0251 82.3252 16.3904 82.147 16.6611L76.9303 24.5838C76.7521 24.8544 76.4191 25.0002 76.1002 24.9608C75.9408 24.9411 75.7963 24.9314 75.6818 24.9416C75.3084 24.9524 75.1363 25.5082 75.4359 25.7078L84.3489 31.6461C84.6186 31.8257 84.962 31.795 85.1902 31.5794C85.5624 31.2433 86.118 30.7268 86.5493 30.2354C86.8914 29.8794 86.8152 29.5042 86.5306 29.3146C86.3209 29.1749 86.017 29.1454 85.6839 29.2912C84.8736 29.6381 84.1639 30.2251 82.606 29.1871L80.6736 27.8997C80.404 27.7201 80.343 27.4199 80.5212 27.1493L83.0553 23.3006L84.1338 24.0192C86.0812 25.3166 84.6302 26.0802 85.2647 26.5895C85.9941 27.1836 88.4399 23.6655 87.6262 23.1666C86.8874 22.7176 86.6652 24.4297 84.7178 23.1322L83.6393 22.4136L85.7181 19.2566L85.8962 18.9859C86.0744 18.7153 86.373 18.6547 86.6426 18.8343L88.2754 19.9222C89.8333 20.9601 89.563 21.8615 89.5616 22.7474C89.568 23.0977 89.7135 23.3677 89.9083 23.4974C90.1929 23.687 90.5562 23.6263 90.7734 23.1654C91.0399 22.5643 91.301 21.8731 91.4635 21.3974C91.5817 21.0868 91.4608 20.7468 91.1912 20.5671L82.5928 14.8384C82.2932 14.6388 81.8515 15.0151 81.9874 15.3651Z" fill="black"/>
</svg>
