<svg width="42" height="42" viewBox="0 0 42 42" fill="none" xmlns="http://www.w3.org/2000/svg">
<path d="M41.5 21C41.5 32.3218 32.3218 41.5 21 41.5C9.67816 41.5 0.5 32.3218 0.5 21C0.5 9.67816 9.67816 0.5 21 0.5C32.3218 0.5 41.5 9.67816 41.5 21Z" fill="#F4B731" stroke="#171717"/>
<path fill-rule="evenodd" clip-rule="evenodd" d="M12.1761 10.5H20.7756C26.0059 10.5 29.9709 13.2773 31.4462 17.3171H34.125V19.7597H32.0106C32.0513 20.1456 32.0723 20.5393 32.0723 20.9383V20.9987C32.0723 21.4476 32.046 21.8912 31.9935 22.3243H34.125V24.7656H31.395C29.8817 28.7503 25.9481 31.5 20.7769 31.5H12.1761V24.7656H9.1875V22.3243H12.1761V19.7597H9.1875V17.3184H12.1761V10.5ZM14.5792 24.7656V29.3094H20.7743C24.5989 29.3094 27.4391 27.489 28.7608 24.7656H14.5792ZM29.4971 22.3243H14.5792V19.7597H29.5024C29.5562 20.1626 29.5851 20.5761 29.5851 20.9987V21.0578C29.5851 21.4896 29.5549 21.9109 29.4971 22.323V22.3243ZM20.7769 12.6853C24.6173 12.6853 27.4667 14.5543 28.7805 17.3158H14.5792V12.6866H20.7743L20.7769 12.6853Z" fill="white"/>
</svg>
