<svg width="44" height="44" viewBox="0 0 44 44" fill="none" xmlns="http://www.w3.org/2000/svg">
<path d="M22 43C33.598 43 43 33.598 43 22C43 10.402 33.598 1 22 1C10.402 1 1 10.402 1 22C1 33.598 10.402 43 22 43Z" fill="#F499AD" stroke="#1D1D1B" stroke-width="1.5" stroke-miterlimit="10"/>
<path d="M25.5513 11.5966L22.7793 9.72061L25.5513 7.76758L28.3303 9.72061L25.5513 11.5966Z" fill="#FBB33B"/>
<path d="M25.5494 11.926C25.4864 11.926 25.4234 11.9051 25.3674 11.8701L22.5884 9.99413C22.4974 9.93113 22.4414 9.83312 22.4414 9.72812C22.4414 9.62312 22.4904 9.51811 22.5814 9.45511L25.3604 7.50209C25.4724 7.42509 25.6264 7.42509 25.7384 7.50209L28.5174 9.45511C28.6084 9.51811 28.6574 9.61612 28.6574 9.72812C28.6574 9.83312 28.6014 9.93813 28.5104 9.99413L25.7314 11.8701C25.6824 11.9121 25.6124 11.926 25.5494 11.926ZM23.3514 9.72112L25.5494 11.2051L27.7474 9.72112L25.5494 8.17406L23.3514 9.72112Z" fill="#1D1D1B"/>
<path d="M25.5513 25.1405L22.7793 23.2646L25.5513 21.3115L28.3303 23.2646L25.5513 25.1405Z" fill="#FBB33B"/>
<path d="M25.5494 25.4701C25.4864 25.4701 25.4234 25.449 25.3674 25.414L22.5884 23.5381C22.4974 23.4751 22.4414 23.3771 22.4414 23.2721C22.4414 23.1671 22.4904 23.0621 22.5814 22.9991L25.3604 21.046C25.4724 20.969 25.6264 20.969 25.7384 21.046L28.5174 22.9991C28.6084 23.0621 28.6574 23.1601 28.6574 23.2721C28.6574 23.3771 28.6014 23.4821 28.5104 23.5381L25.7314 25.414C25.6824 25.449 25.6124 25.4701 25.5494 25.4701ZM23.3514 23.2581L25.5494 24.7421L27.7474 23.2581L25.5494 21.7111L23.3514 23.2581Z" fill="#1D1D1B"/>
<path d="M25.5527 11.5976V25.1426L28.3317 23.2667V9.72168L25.5527 11.5976Z" fill="#FBB33B"/>
<path d="M25.5517 25.4708C25.4957 25.4708 25.4467 25.4568 25.3977 25.4358C25.2927 25.3798 25.2227 25.2678 25.2227 25.1488V11.6038C25.2227 11.4918 25.2787 11.3938 25.3697 11.3308L28.1487 9.45483C28.2467 9.38483 28.3797 9.37781 28.4847 9.43381C28.5897 9.48981 28.6597 9.60183 28.6597 9.72083V23.2658C28.6597 23.3778 28.6037 23.4758 28.5127 23.5388L25.7337 25.4148C25.6847 25.4498 25.6147 25.4708 25.5517 25.4708ZM25.8807 11.7718V24.5188L28.0017 23.0908V10.3438L25.8807 11.7718Z" fill="#1D1D1B"/>
<path d="M22.7793 9.72168V23.2667L25.5513 25.1426V11.5976L22.7793 9.72168Z" fill="#FBB33B"/>
<path d="M25.5494 25.4708C25.4864 25.4708 25.4234 25.4498 25.3674 25.4148L22.5884 23.5388C22.4974 23.4758 22.4414 23.3778 22.4414 23.2658V9.72083C22.4414 9.60183 22.5114 9.48981 22.6164 9.43381C22.7214 9.37781 22.8544 9.38483 22.9524 9.45483L25.7314 11.3308C25.8224 11.3938 25.8784 11.4918 25.8784 11.6038V25.1488C25.8784 25.2678 25.8084 25.3798 25.7034 25.4358C25.6544 25.4568 25.6054 25.4708 25.5494 25.4708ZM23.1064 23.0908L25.2274 24.5188V11.7718L23.1064 10.3438V23.0908Z" fill="#1D1D1B"/>
<path d="M22.779 13.5575L20 11.6815L22.779 9.72852L25.551 11.6815L22.779 13.5575Z" fill="#FBB33B"/>
<path d="M22.7779 13.887C22.7149 13.887 22.6519 13.866 22.5959 13.831L19.8169 11.955C19.7259 11.892 19.6699 11.794 19.6699 11.689C19.6699 11.584 19.7189 11.479 19.8099 11.416L22.589 9.46302C22.701 9.38602 22.8549 9.38602 22.9669 9.46302L25.7459 11.416C25.8369 11.479 25.8859 11.577 25.8859 11.689C25.8859 11.794 25.83 11.899 25.739 11.955L22.9599 13.831C22.9039 13.866 22.8409 13.887 22.7779 13.887ZM20.58 11.682L22.7779 13.166L24.9759 11.682L22.7779 10.135L20.58 11.682Z" fill="#1D1D1B"/>
<path d="M22.7809 27.1034L20.002 25.2274L22.7809 23.2744L25.5529 25.2274L22.7809 27.1034Z" fill="#FBB33B"/>
<path d="M22.7799 27.4309C22.7169 27.4309 22.6539 27.41 22.5979 27.375L19.8189 25.4989C19.7279 25.4359 19.6719 25.3379 19.6719 25.2329C19.6719 25.1279 19.7209 25.0229 19.8119 24.9599L22.5909 23.007C22.7029 22.93 22.8569 22.93 22.9689 23.007L25.7479 24.9599C25.8389 25.0229 25.8879 25.1209 25.8879 25.2329C25.8879 25.3379 25.8319 25.4429 25.7409 25.4989L22.9619 27.375C22.9059 27.41 22.8429 27.4309 22.7799 27.4309ZM20.5819 25.219L22.7799 26.703L24.9779 25.219L22.7799 23.6719L20.5819 25.219Z" fill="#1D1D1B"/>
<path d="M22.7793 13.5567V27.1017L25.5513 25.2256V11.6807L22.7793 13.5567Z" fill="#F68B38"/>
<path d="M22.7802 27.4307C22.7242 27.4307 22.6752 27.4168 22.6262 27.3958C22.5212 27.3398 22.4512 27.2278 22.4512 27.1088V13.5638C22.4512 13.4518 22.5071 13.3538 22.5981 13.2908L25.3772 11.4147C25.4752 11.3447 25.6082 11.3378 25.7132 11.3938C25.8182 11.4498 25.8882 11.5617 25.8882 11.6807V25.2257C25.8882 25.3377 25.8322 25.4357 25.7412 25.4987L22.9622 27.3748C22.9062 27.4098 22.8432 27.4307 22.7802 27.4307ZM23.1092 13.7318V26.4788L25.2302 25.0507V12.3038L23.1092 13.7318Z" fill="#1D1D1B"/>
<path d="M20.0039 11.6807V25.2256L22.7829 27.1017V13.5567L20.0039 11.6807Z" fill="#FBB33B"/>
<path d="M22.7799 27.4307C22.7169 27.4307 22.6539 27.4098 22.5979 27.3748L19.8189 25.4987C19.7279 25.4357 19.6719 25.3377 19.6719 25.2257V11.6807C19.6719 11.5617 19.7419 11.4498 19.8469 11.3938C19.9519 11.3378 20.0849 11.3447 20.1829 11.4147L22.9619 13.2908C23.0529 13.3538 23.1089 13.4518 23.1089 13.5638V27.1088C23.1089 27.2278 23.0389 27.3398 22.9339 27.3958C22.8849 27.4168 22.8289 27.4307 22.7799 27.4307ZM20.3299 25.0507L22.4509 26.4788V13.7318L20.3299 12.3038V25.0507Z" fill="#1D1D1B"/>
<path d="M28.3298 13.5575L25.5508 11.6815L28.3298 9.72852L31.1018 11.6815L28.3298 13.5575Z" fill="#FBB33B"/>
<path d="M28.3287 13.887C28.2657 13.887 28.2027 13.866 28.1467 13.831L25.3677 11.955C25.2767 11.892 25.2207 11.794 25.2207 11.689C25.2207 11.584 25.2697 11.479 25.3607 11.416L28.1397 9.46302C28.2517 9.38602 28.4057 9.38602 28.5177 9.46302L31.2967 11.416C31.3877 11.479 31.4367 11.577 31.4367 11.689C31.4367 11.794 31.3807 11.899 31.2897 11.955L28.5107 13.831C28.4547 13.866 28.3917 13.887 28.3287 13.887ZM26.1307 11.682L28.3287 13.166L30.5267 11.682L28.3287 10.135L26.1307 11.682Z" fill="#1D1D1B"/>
<path d="M28.3317 27.1034L25.5527 25.2274L28.3317 23.2744L31.1037 25.2274L28.3317 27.1034Z" fill="#FBB33B"/>
<path d="M28.3307 27.4309C28.2677 27.4309 28.2047 27.41 28.1487 27.375L25.3697 25.4989C25.2787 25.4359 25.2227 25.3379 25.2227 25.2329C25.2227 25.1279 25.2717 25.0229 25.3627 24.9599L28.1417 23.007C28.2537 22.93 28.4077 22.93 28.5197 23.007L31.2987 24.9599C31.3897 25.0229 31.4387 25.1209 31.4387 25.2329C31.4387 25.3379 31.3827 25.4429 31.2917 25.4989L28.5127 27.375C28.4567 27.41 28.3937 27.4309 28.3307 27.4309ZM26.1327 25.219L28.3307 26.703L30.5287 25.219L28.3307 23.6719L26.1327 25.219Z" fill="#1D1D1B"/>
<path d="M28.3301 13.5567V27.1017L31.1021 25.2256V11.6807L28.3301 13.5567Z" fill="#FBB33B"/>
<path d="M28.3309 27.4307C28.2749 27.4307 28.226 27.4168 28.177 27.3958C28.072 27.3398 28.002 27.2278 28.002 27.1088V13.5638C28.002 13.4518 28.058 13.3538 28.149 13.2908L30.9279 11.4147C31.0259 11.3447 31.1589 11.3378 31.2639 11.3938C31.3689 11.4498 31.4389 11.5617 31.4389 11.6807V25.2257C31.4389 25.3377 31.383 25.4357 31.292 25.4987L28.5129 27.3748C28.4569 27.4098 28.3939 27.4307 28.3309 27.4307ZM28.66 13.7318V26.4788L30.7809 25.0507V12.3038L28.66 13.7318Z" fill="#1D1D1B"/>
<path d="M25.5527 11.6807V25.2256L28.3317 27.1017V13.5567L25.5527 11.6807Z" fill="#F68B38"/>
<path d="M28.3307 27.4307C28.2677 27.4307 28.2047 27.4098 28.1487 27.3748L25.3697 25.4987C25.2787 25.4357 25.2227 25.3377 25.2227 25.2257V11.6807C25.2227 11.5617 25.2927 11.4498 25.3977 11.3938C25.5027 11.3378 25.6357 11.3447 25.7337 11.4147L28.5127 13.2908C28.6037 13.3538 28.6597 13.4518 28.6597 13.5638V27.1088C28.6597 27.2278 28.5897 27.3398 28.4847 27.3958C28.4357 27.4168 28.3797 27.4307 28.3307 27.4307ZM25.8807 25.0507L28.0017 26.4788V13.7318L25.8807 12.3038V25.0507Z" fill="#1D1D1B"/>
<path d="M31.1021 15.4755L28.3301 13.5994L31.1021 11.6465L33.8811 13.5994L31.1021 15.4755Z" fill="#FBB33B"/>
<path d="M31.1002 15.805C31.0372 15.805 30.9742 15.784 30.9182 15.749L28.1392 13.8729C28.0482 13.8099 27.9922 13.7119 27.9922 13.6069C27.9922 13.5019 28.0412 13.3969 28.1322 13.3339L30.9112 11.381C31.0232 11.304 31.1772 11.304 31.2892 11.381L34.0682 13.3339C34.1592 13.3969 34.2082 13.4949 34.2082 13.6069C34.2082 13.7119 34.1522 13.8169 34.0612 13.8729L31.2822 15.749C31.2332 15.784 31.1632 15.805 31.1002 15.805ZM28.9022 13.5929L31.1002 15.0769L33.2982 13.5929L31.1002 12.046L28.9022 13.5929Z" fill="#1D1D1B"/>
<path d="M31.1021 29.0135L28.3301 27.1446L31.1021 25.1846L33.8811 27.1446L31.1021 29.0135Z" fill="#FBB33B"/>
<path d="M31.1002 29.3421C31.0372 29.3421 30.9742 29.3211 30.9182 29.2861L28.1392 27.4101C28.0482 27.3471 27.9922 27.2491 27.9922 27.1441C27.9922 27.0391 28.0412 26.9341 28.1322 26.8711L30.9112 24.9181C31.0232 24.8411 31.1772 24.8411 31.2892 24.9181L34.0682 26.8711C34.1592 26.9341 34.2082 27.0321 34.2082 27.1441C34.2082 27.2491 34.1522 27.3541 34.0612 27.4101L31.2822 29.2861C31.2332 29.3281 31.1632 29.3421 31.1002 29.3421ZM28.9022 27.1371L31.1002 28.6211L33.2982 27.1371L31.1002 25.5901L28.9022 27.1371Z" fill="#1D1D1B"/>
<path d="M31.1035 15.4776V29.0156L33.8825 27.1466V13.6016L31.1035 15.4776Z" fill="#FBB33B"/>
<path d="M31.1024 29.343C31.0464 29.343 30.9974 29.329 30.9484 29.301C30.8434 29.245 30.7734 29.133 30.7734 29.014V15.469C30.7734 15.357 30.8294 15.259 30.9204 15.196L33.6994 13.3201C33.7974 13.2501 33.9304 13.243 34.0354 13.299C34.1404 13.355 34.2104 13.467 34.2104 13.586V27.1311C34.2104 27.2431 34.1544 27.3411 34.0634 27.4041L31.2844 29.28C31.2354 29.329 31.1724 29.343 31.1024 29.343ZM31.4314 15.651V28.398L33.5524 26.9701V14.223L31.4314 15.651Z" fill="#1D1D1B"/>
<path d="M28.3301 13.6006V27.1457L31.1021 29.0146V15.4766L28.3301 13.6006Z" fill="#F68B38"/>
<path d="M31.1002 29.3429C31.0372 29.3429 30.9742 29.3219 30.9182 29.2869L28.1392 27.4108C28.0482 27.3478 27.9922 27.2499 27.9922 27.1379V13.5929C27.9922 13.4739 28.0622 13.3619 28.1672 13.3059C28.2722 13.2499 28.4052 13.2569 28.5032 13.3269L31.2822 15.2029C31.3732 15.2659 31.4292 15.3639 31.4292 15.4759V29.0209C31.4292 29.1399 31.3592 29.2519 31.2542 29.3079C31.2052 29.3359 31.1562 29.3429 31.1002 29.3429ZM28.6572 26.9699L30.7782 28.3979V15.6509L28.6572 14.2229V26.9699Z" fill="#1D1D1B"/>
<path d="M20.0017 15.4755L17.2227 13.5994L20.0017 11.6465L22.7807 13.5994L20.0017 15.4755Z" fill="#FBB33B"/>
<path d="M19.9986 15.805C19.9356 15.805 19.8726 15.784 19.8166 15.749L17.0376 13.8729C16.9466 13.8099 16.8906 13.7119 16.8906 13.6069C16.8906 13.5019 16.9396 13.3969 17.0306 13.3339L19.8096 11.381C19.9216 11.304 20.0756 11.304 20.1876 11.381L22.9666 13.3339C23.0576 13.3969 23.1066 13.4949 23.1066 13.6069C23.1066 13.7119 23.0506 13.8169 22.9596 13.8729L20.1806 15.749C20.1246 15.784 20.0616 15.805 19.9986 15.805ZM17.8006 13.5929L19.9986 15.0769L22.1966 13.5929L19.9986 12.046L17.8006 13.5929Z" fill="#1D1D1B"/>
<path d="M20.0017 29.0135L17.2227 27.1446L20.0017 25.1846L22.7807 27.1446L20.0017 29.0135Z" fill="#FBB33B"/>
<path d="M19.9986 29.3421C19.9356 29.3421 19.8726 29.3211 19.8166 29.2861L17.0376 27.4101C16.9466 27.3471 16.8906 27.2491 16.8906 27.1441C16.8906 27.0391 16.9396 26.9341 17.0306 26.8711L19.8096 24.9181C19.9216 24.8411 20.0756 24.8411 20.1876 24.9181L22.9666 26.8711C23.0576 26.9341 23.1066 27.0321 23.1066 27.1441C23.1066 27.2491 23.0506 27.3541 22.9596 27.4101L20.1806 29.2861C20.1246 29.3281 20.0616 29.3421 19.9986 29.3421ZM17.8006 27.1371L19.9986 28.6211L22.1966 27.1371L19.9986 25.5901L17.8006 27.1371Z" fill="#1D1D1B"/>
<path d="M20.0039 15.4776V29.0156L22.7829 27.1466V13.6016L20.0039 15.4776Z" fill="#FBB33B"/>
<path d="M20.0009 29.343C19.9449 29.343 19.8959 29.329 19.8469 29.301C19.7419 29.245 19.6719 29.133 19.6719 29.014V15.469C19.6719 15.357 19.7279 15.259 19.8189 15.196L22.5979 13.3201C22.6959 13.2501 22.8289 13.243 22.9339 13.299C23.0389 13.355 23.1089 13.467 23.1089 13.586V27.1311C23.1089 27.2431 23.0529 27.3411 22.9619 27.4041L20.1829 29.28C20.1269 29.329 20.0639 29.343 20.0009 29.343ZM20.3299 15.651V28.398L22.4509 26.9701V14.223L20.3299 15.651Z" fill="#1D1D1B"/>
<path d="M17.2227 13.6006V27.1457L20.0017 29.0146V15.4766L17.2227 13.6006Z" fill="#FBB33B"/>
<path d="M19.9986 29.3429C19.9356 29.3429 19.8726 29.3219 19.8166 29.2869L17.0376 27.4108C16.9466 27.3478 16.8906 27.2499 16.8906 27.1379V13.5929C16.8906 13.4739 16.9606 13.3619 17.0656 13.3059C17.1706 13.2499 17.3036 13.2569 17.4016 13.3269L20.1806 15.2029C20.2716 15.2659 20.3276 15.3639 20.3276 15.4759V29.0209C20.3276 29.1399 20.2576 29.2519 20.1526 29.3079C20.1036 29.3359 20.0546 29.3429 19.9986 29.3429ZM17.5486 26.9699L19.6696 28.3979V15.6509L17.5486 14.2229V26.9699Z" fill="#1D1D1B"/>
<path d="M17.2212 17.4306L14.4492 15.5546L17.2212 13.6016L20.0002 15.5546L17.2212 17.4306Z" fill="#FBB33B"/>
<path d="M17.2213 17.7572C17.1583 17.7572 17.0953 17.7361 17.0393 17.7011L14.2603 15.8252C14.1693 15.7622 14.1133 15.6642 14.1133 15.5592C14.1133 15.4542 14.1623 15.3492 14.2533 15.2862L17.0323 13.3331C17.1443 13.2561 17.2983 13.2561 17.4103 13.3331L20.1893 15.2862C20.2803 15.3492 20.3293 15.4472 20.3293 15.5592C20.3293 15.6642 20.2733 15.7692 20.1823 15.8252L17.4033 17.7011C17.3543 17.7431 17.2913 17.7572 17.2213 17.7572ZM15.0303 15.5522L17.2283 17.0362L19.4263 15.5522L17.2283 14.0052L15.0303 15.5522Z" fill="#1D1D1B"/>
<path d="M17.2212 30.9735L14.4492 29.0975L17.2212 27.1445L20.0002 29.0975L17.2212 30.9735Z" fill="#FBB33B"/>
<path d="M17.2213 31.302C17.1583 31.302 17.0953 31.2811 17.0393 31.2461L14.2603 29.37C14.1693 29.307 14.1133 29.209 14.1133 29.104C14.1133 28.999 14.1623 28.894 14.2533 28.831L17.0323 26.8781C17.1443 26.8011 17.2983 26.8011 17.4103 26.8781L20.1893 28.831C20.2803 28.894 20.3293 28.992 20.3293 29.104C20.3293 29.209 20.2733 29.314 20.1823 29.37L17.4033 31.2461C17.3543 31.2811 17.2913 31.302 17.2213 31.302ZM15.0303 29.09L17.2283 30.574L19.4263 29.09L17.2283 27.543L15.0303 29.09Z" fill="#1D1D1B"/>
<path d="M17.2227 17.4297V30.9747L20.0017 29.0987V15.5537L17.2227 17.4297Z" fill="#F68B38"/>
<path d="M17.2216 31.303C17.1656 31.303 17.1166 31.289 17.0676 31.261C16.9626 31.205 16.8926 31.0931 16.8926 30.9741V17.4291C16.8926 17.3171 16.9486 17.2191 17.0396 17.1561L19.8186 15.28C19.9166 15.21 20.0496 15.203 20.1546 15.259C20.2596 15.315 20.3296 15.427 20.3296 15.546V29.091C20.3296 29.203 20.2736 29.301 20.1826 29.364L17.4036 31.2401C17.3546 31.2821 17.2916 31.303 17.2216 31.303ZM17.5506 17.6041V30.351L19.6716 28.923V16.176L17.5506 17.6041Z" fill="#1D1D1B"/>
<path d="M14.4492 15.5527V29.0977L17.2212 30.9738V17.4288L14.4492 15.5527Z" fill="#FBB33B"/>
<path d="M17.2213 31.3029C17.1583 31.3029 17.0953 31.2819 17.0393 31.2469L14.2603 29.3709C14.1693 29.3079 14.1133 29.2098 14.1133 29.0978V15.5529C14.1133 15.4339 14.1833 15.3218 14.2883 15.2658C14.3933 15.2098 14.5263 15.2169 14.6243 15.2869L17.4033 17.1629C17.4943 17.2259 17.5503 17.3238 17.5503 17.4358V30.9809C17.5503 31.0999 17.4803 31.2118 17.3753 31.2678C17.3333 31.2888 17.2773 31.3029 17.2213 31.3029ZM14.7783 28.9228L16.8993 30.3509V17.6039L14.7783 16.1759V28.9228Z" fill="#1D1D1B"/>
<path d="M14.4489 19.3036L11.6699 17.4276L14.4489 15.4746L17.2209 17.4276L14.4489 19.3036Z" fill="#FBB33B"/>
<path d="M14.4478 19.6331C14.3848 19.6331 14.3218 19.6121 14.2658 19.5771L11.4868 17.7011C11.3958 17.6381 11.3398 17.5401 11.3398 17.4351C11.3398 17.3301 11.3889 17.2251 11.4799 17.1621L14.2588 15.2091C14.3708 15.1321 14.5248 15.1321 14.6368 15.2091L17.4158 17.1621C17.5068 17.2251 17.5558 17.3231 17.5558 17.4351C17.5558 17.5401 17.4998 17.6451 17.4088 17.7011L14.6299 19.5771C14.5739 19.6121 14.5108 19.6331 14.4478 19.6331ZM12.2498 17.4211L14.4478 18.9051L16.6458 17.4211L14.4478 15.8741L12.2498 17.4211Z" fill="#1D1D1B"/>
<path d="M14.4489 32.8477L11.6699 30.9718L14.4489 29.0117L17.2209 30.9718L14.4489 32.8477Z" fill="#FBB33B"/>
<path d="M14.4478 33.1771C14.3848 33.1771 14.3218 33.1561 14.2658 33.1211L11.4868 31.2451C11.3958 31.1821 11.3398 31.0841 11.3398 30.9791C11.3398 30.8741 11.3889 30.7691 11.4799 30.7061L14.2588 28.7531C14.3708 28.6761 14.5248 28.6761 14.6368 28.7531L17.4158 30.7061C17.5068 30.7691 17.5558 30.8671 17.5558 30.9791C17.5558 31.0841 17.4998 31.1891 17.4088 31.2451L14.6299 33.1211C14.5739 33.1561 14.5108 33.1771 14.4478 33.1771ZM12.2498 30.9651L14.4478 32.4491L16.6458 30.9651L14.4478 29.4181L12.2498 30.9651Z" fill="#1D1D1B"/>
<path d="M14.4512 19.3027V32.8477L17.2231 30.9717V17.4268L14.4512 19.3027Z" fill="#F68B38"/>
<path d="M14.4501 33.178C14.3941 33.178 14.3451 33.164 14.2961 33.136C14.1911 33.08 14.1211 32.968 14.1211 32.849V19.304C14.1211 19.192 14.1771 19.094 14.2681 19.031L17.0471 17.155C17.1451 17.085 17.2781 17.078 17.3831 17.134C17.4881 17.19 17.5581 17.302 17.5581 17.421V30.966C17.5581 31.078 17.5021 31.176 17.4111 31.239L14.6321 33.115C14.5761 33.157 14.5131 33.178 14.4501 33.178ZM14.7791 19.479V32.226L16.9001 30.798V18.051L14.7791 19.479Z" fill="#1D1D1B"/>
<path d="M11.6699 17.4277V30.9727L14.4489 32.8487V19.3037L11.6699 17.4277Z" fill="#FBB33B"/>
<path d="M14.4478 33.1779C14.3848 33.1779 14.3218 33.1568 14.2658 33.1218L11.4868 31.2459C11.3958 31.1829 11.3398 31.0848 11.3398 30.9728V17.4279C11.3398 17.3089 11.4098 17.1968 11.5148 17.1408C11.6198 17.0848 11.7528 17.0919 11.8508 17.1619L14.6299 19.0378C14.7209 19.1008 14.7768 19.1988 14.7768 19.3108V32.8558C14.7768 32.9748 14.7068 33.0868 14.6018 33.1428C14.5528 33.1638 14.4968 33.1779 14.4478 33.1779ZM11.9978 30.7978L14.1188 32.2258V19.4788L11.9978 18.0508V30.7978Z" fill="#1D1D1B"/>
<path d="M22.779 17.4071L20 15.5381L22.779 13.5781L25.551 15.5381L22.779 17.4071Z" fill="#FBB33B"/>
<path d="M22.7779 17.7356C22.7149 17.7356 22.6519 17.7146 22.5959 17.6796L19.8169 15.8036C19.7259 15.7406 19.6699 15.6426 19.6699 15.5376C19.6699 15.4326 19.7189 15.3276 19.8099 15.2646L22.589 13.3117C22.701 13.2347 22.8549 13.2347 22.9669 13.3117L25.7459 15.2646C25.8369 15.3276 25.8859 15.4256 25.8859 15.5376C25.8859 15.6426 25.83 15.7476 25.739 15.8036L22.9599 17.6796C22.9039 17.7216 22.8409 17.7356 22.7779 17.7356ZM20.58 15.5306L22.7779 17.0146L24.9759 15.5306L22.7779 13.9836L20.58 15.5306Z" fill="#1D1D1B"/>
<path d="M22.7809 30.952L20.002 29.076L22.7809 27.123L25.5529 29.076L22.7809 30.952Z" fill="#FBB33B"/>
<path d="M22.7799 31.2805C22.7169 31.2805 22.6539 31.2596 22.5979 31.2246L19.8189 29.3485C19.7279 29.2855 19.6719 29.1875 19.6719 29.0825C19.6719 28.9775 19.7209 28.8725 19.8119 28.8095L22.5909 26.8566C22.7029 26.7796 22.8569 26.7796 22.9689 26.8566L25.7479 28.8095C25.8389 28.8725 25.8879 28.9705 25.8879 29.0825C25.8879 29.1875 25.8319 29.2925 25.7409 29.3485L22.9619 31.2246C22.9059 31.2596 22.8429 31.2805 22.7799 31.2805ZM20.5819 29.0686L22.7799 30.5526L24.9779 29.0686L22.7799 27.5215L20.5819 29.0686Z" fill="#1D1D1B"/>
<path d="M22.7793 17.4071V30.9521L25.5513 29.0761V15.5381L22.7793 17.4071Z" fill="#FBB33B"/>
<path d="M22.7802 31.2804C22.7242 31.2804 22.6752 31.2664 22.6262 31.2454C22.5212 31.1894 22.4512 31.0774 22.4512 30.9584V17.4134C22.4512 17.3014 22.5071 17.2034 22.5981 17.1404L25.3772 15.2644C25.4752 15.1944 25.6082 15.1874 25.7132 15.2434C25.8182 15.2994 25.8882 15.4114 25.8882 15.5304V29.0753C25.8882 29.1873 25.8322 29.2853 25.7412 29.3483L22.9622 31.2244C22.9062 31.2594 22.8432 31.2804 22.7802 31.2804ZM23.1092 17.5814V30.3284L25.2302 28.9003V16.1534L23.1092 17.5814Z" fill="#1D1D1B"/>
<path d="M20.0039 15.5381V29.0761L22.7829 30.9521V17.4071L20.0039 15.5381Z" fill="#F68B38"/>
<path d="M22.7799 31.2804C22.7169 31.2804 22.6539 31.2594 22.5979 31.2244L19.8189 29.3483C19.7279 29.2853 19.6719 29.1873 19.6719 29.0753V15.5304C19.6719 15.4114 19.7419 15.2994 19.8469 15.2434C19.9519 15.1874 20.0849 15.1944 20.1829 15.2644L22.9619 17.1404C23.0529 17.2034 23.1089 17.3014 23.1089 17.4134V30.9584C23.1089 31.0774 23.0389 31.1894 22.9339 31.2454C22.8849 31.2664 22.8289 31.2804 22.7799 31.2804ZM20.3299 28.9003L22.4509 30.3284V17.5814L20.3299 16.1534V28.9003Z" fill="#1D1D1B"/>
<path d="M25.5513 19.3339L22.7793 17.4578L25.5513 15.5049L28.3303 17.4578L25.5513 19.3339Z" fill="#FBB33B"/>
<path d="M25.5494 19.6614C25.4864 19.6614 25.4234 19.6404 25.3674 19.6054L22.5884 17.7294C22.4974 17.6664 22.4414 17.5684 22.4414 17.4634C22.4414 17.3584 22.4904 17.2534 22.5814 17.1904L25.3604 15.2374C25.4724 15.1604 25.6264 15.1604 25.7384 15.2374L28.5174 17.1904C28.6084 17.2534 28.6574 17.3514 28.6574 17.4634C28.6574 17.5684 28.6014 17.6734 28.5104 17.7294L25.7314 19.6054C25.6824 19.6404 25.6124 19.6614 25.5494 19.6614ZM23.3514 17.4494L25.5494 18.9334L27.7474 17.4494L25.5494 15.9024L23.3514 17.4494Z" fill="#1D1D1B"/>
<path d="M25.5513 32.878L22.7793 31.0019L25.5513 29.042L28.3303 31.0019L25.5513 32.878Z" fill="#FBB33B"/>
<path d="M25.5494 33.2005C25.4864 33.2005 25.4234 33.1795 25.3674 33.1445L22.5884 31.2685C22.4974 31.2055 22.4414 31.1075 22.4414 31.0025C22.4414 30.8975 22.4904 30.7925 22.5814 30.7295L25.3604 28.7765C25.4724 28.6995 25.6264 28.6995 25.7384 28.7765L28.5174 30.7295C28.6084 30.7925 28.6574 30.8905 28.6574 31.0025C28.6574 31.1075 28.6014 31.2125 28.5104 31.2685L25.7314 33.1445C25.6824 33.1865 25.6124 33.2005 25.5494 33.2005ZM23.3514 30.9955L25.5494 32.4795L27.7474 30.9955L25.5494 29.4485L23.3514 30.9955Z" fill="#1D1D1B"/>
<path d="M25.5527 19.3331V32.8781L28.3317 31.002V17.457L25.5527 19.3331Z" fill="#FBB33B"/>
<path d="M25.5517 33.2004C25.4957 33.2004 25.4467 33.1865 25.3977 33.1585C25.2927 33.1025 25.2227 32.9905 25.2227 32.8715V19.3265C25.2227 19.2145 25.2787 19.1165 25.3697 19.0535L28.1487 17.1774C28.2467 17.1074 28.3797 17.1005 28.4847 17.1565C28.5897 17.2125 28.6597 17.3244 28.6597 17.4434V30.9885C28.6597 31.1005 28.6037 31.1984 28.5127 31.2614L25.7337 33.1375C25.6847 33.1865 25.6147 33.2004 25.5517 33.2004ZM25.8807 19.5085V32.2555L28.0017 30.8274V18.0805L25.8807 19.5085Z" fill="#1D1D1B"/>
<path d="M22.7793 17.458V31.003L25.5513 32.879V19.334L22.7793 17.458Z" fill="#F68B38"/>
<path d="M25.5494 33.2003C25.4864 33.2003 25.4234 33.1793 25.3674 33.1443L22.5884 31.2683C22.4974 31.2053 22.4414 31.1073 22.4414 30.9953V17.4503C22.4414 17.3313 22.5114 17.2193 22.6164 17.1633C22.7214 17.1073 22.8544 17.1143 22.9524 17.1843L25.7314 19.0603C25.8224 19.1233 25.8784 19.2213 25.8784 19.3333V32.8783C25.8784 32.9973 25.8084 33.1093 25.7034 33.1653C25.6544 33.1933 25.6054 33.2003 25.5494 33.2003ZM23.1064 30.8273L25.2274 32.2553V19.5083L23.1064 18.0803V30.8273Z" fill="#1D1D1B"/>
</svg>
