<svg width="82" height="161" viewBox="0 0 82 161" fill="none" xmlns="http://www.w3.org/2000/svg">
<path d="M41 160C63.0914 160 81 142.091 81 120C81 97.9086 63.0914 80 41 80C18.9086 80 1 97.9086 1 120C1 142.091 18.9086 160 41 160Z" fill="#F499AD" stroke="#1D1D1B" stroke-width="2" stroke-miterlimit="10"/>
<path d="M47.7673 100.197L42.4746 96.6151L47.7673 92.8887L53.0417 96.6151L47.7673 100.197Z" fill="#FBB33B" stroke="black" stroke-miterlimit="10" stroke-linejoin="round"/>
<path d="M47.7673 125.994L42.4746 122.412L47.7673 118.686L53.0417 122.412L47.7673 125.994Z" fill="#FBB33B" stroke="black" stroke-miterlimit="10" stroke-linejoin="round"/>
<path d="M47.7715 100.198V125.994L53.0459 122.412V96.6152L47.7715 100.198Z" fill="#FBB33B" stroke="black" stroke-miterlimit="10" stroke-linejoin="round"/>
<path d="M42.4746 96.6152V122.412L47.7673 125.994V100.198L42.4746 96.6152Z" fill="#FBB33B" stroke="black" stroke-miterlimit="10" stroke-linejoin="round"/>
<path d="M42.476 103.925L37.1836 100.361L42.476 96.6348L47.7687 100.361L42.476 103.925Z" fill="#FBB33B" stroke="black" stroke-miterlimit="10" stroke-linejoin="round"/>
<path d="M42.476 129.721L37.1836 126.157L42.476 122.431L47.7687 126.157L42.476 129.721Z" fill="#FBB33B" stroke="black" stroke-miterlimit="10" stroke-linejoin="round"/>
<path d="M42.4727 103.924V129.72L47.7653 126.156V100.359L42.4727 103.924Z" fill="#F68B38" stroke="black" stroke-miterlimit="10" stroke-linejoin="round"/>
<path d="M37.1836 100.359V126.156L42.476 129.72V103.924L37.1836 100.359Z" fill="#FBB33B" stroke="black" stroke-miterlimit="10" stroke-linejoin="round"/>
<path d="M53.0459 103.925L47.7715 100.361L53.0459 96.6348L58.3385 100.361L53.0459 103.925Z" fill="#FBB33B" stroke="black" stroke-miterlimit="10" stroke-linejoin="round"/>
<path d="M53.0459 129.721L47.7715 126.157L53.0459 122.431L58.3385 126.157L53.0459 129.721Z" fill="#FBB33B" stroke="black" stroke-miterlimit="10" stroke-linejoin="round"/>
<path d="M53.0449 103.924V129.72L58.3376 126.156V100.359L53.0449 103.924Z" fill="#FBB33B" stroke="black" stroke-miterlimit="10" stroke-linejoin="round"/>
<path d="M47.7715 100.359V126.156L53.0459 129.72V103.924L47.7715 100.359Z" fill="#F68B38" stroke="black" stroke-miterlimit="10" stroke-linejoin="round"/>
<path d="M58.3376 107.578L53.0449 103.996L58.3376 100.27L63.63 103.996L58.3376 107.578Z" fill="#FBB33B" stroke="black" stroke-miterlimit="10" stroke-linejoin="round"/>
<path d="M58.3376 133.375L53.0449 129.793L58.3376 126.066L63.63 129.793L58.3376 133.375Z" fill="#FBB33B" stroke="black" stroke-miterlimit="10" stroke-linejoin="round"/>
<path d="M58.3379 107.578V133.375L63.6303 129.793V103.996L58.3379 107.578Z" fill="#FBB33B" stroke="black" stroke-miterlimit="10" stroke-linejoin="round"/>
<path d="M53.0449 103.996V129.793L58.3376 133.375V107.578L53.0449 103.996Z" fill="#F68B38" stroke="black" stroke-miterlimit="10" stroke-linejoin="round"/>
<path d="M37.1833 107.578L31.8906 103.996L37.1833 100.27L42.4757 103.996L37.1833 107.578Z" fill="#FBB33B" stroke="black" stroke-miterlimit="10" stroke-linejoin="round"/>
<path d="M37.1833 133.375L31.8906 129.793L37.1833 126.066L42.4757 129.793L37.1833 133.375Z" fill="#FBB33B" stroke="black" stroke-miterlimit="10" stroke-linejoin="round"/>
<path d="M37.1855 107.578V133.375L42.478 129.793V103.996L37.1855 107.578Z" fill="#FBB33B" stroke="black" stroke-miterlimit="10" stroke-linejoin="round"/>
<path d="M31.8906 103.996V129.793L37.1833 133.375V107.578L31.8906 103.996Z" fill="#FBB33B" stroke="black" stroke-miterlimit="10" stroke-linejoin="round"/>
<path d="M31.8936 111.305L26.6191 107.722L31.8936 103.996L37.1862 107.722L31.8936 111.305Z" fill="#FBB33B" stroke="black" stroke-miterlimit="10" stroke-linejoin="round"/>
<path d="M31.8936 137.103L26.6191 133.52L31.8936 129.794L37.1862 133.52L31.8936 137.103Z" fill="#FBB33B" stroke="black" stroke-miterlimit="10" stroke-linejoin="round"/>
<path d="M31.8906 111.307V137.103L37.1833 133.521V107.725L31.8906 111.307Z" fill="#F68B38" stroke="black" stroke-miterlimit="10" stroke-linejoin="round"/>
<path d="M26.6191 107.725V133.521L31.8936 137.103V111.307L26.6191 107.725Z" fill="#FBB33B" stroke="black" stroke-miterlimit="10" stroke-linejoin="round"/>
<path d="M26.6188 114.869L21.3262 111.305L26.6188 107.578L31.8932 111.305L26.6188 114.869Z" fill="#FBB33B" stroke="black" stroke-miterlimit="10" stroke-linejoin="round"/>
<path d="M26.6188 140.666L21.3262 137.101L26.6188 133.375L31.8932 137.101L26.6188 140.666Z" fill="#FBB33B" stroke="black" stroke-miterlimit="10" stroke-linejoin="round"/>
<path d="M26.6191 114.87V140.667L31.8936 137.102V111.306L26.6191 114.87Z" fill="#F68B38" stroke="black" stroke-miterlimit="10" stroke-linejoin="round"/>
<path d="M21.3262 111.306V137.102L26.6188 140.667V114.87L21.3262 111.306Z" fill="#FBB33B" stroke="black" stroke-miterlimit="10" stroke-linejoin="round"/>
<path d="M42.476 111.25L37.1836 107.685L42.476 103.959L47.7687 107.685L42.476 111.25Z" fill="#FBB33B" stroke="black" stroke-miterlimit="10" stroke-linejoin="round"/>
<path d="M42.476 137.048L37.1836 133.483L42.476 129.757L47.7687 133.483L42.476 137.048Z" fill="#FBB33B" stroke="black" stroke-miterlimit="10" stroke-linejoin="round"/>
<path d="M42.4727 111.252V137.048L47.7653 133.484V107.688L42.4727 111.252Z" fill="#FBB33B" stroke="black" stroke-miterlimit="10" stroke-linejoin="round"/>
<path d="M37.1836 107.688V133.484L42.476 137.048V111.252L37.1836 107.688Z" fill="#F68B38" stroke="black" stroke-miterlimit="10" stroke-linejoin="round"/>
<path d="M47.7673 114.924L42.4746 111.342L47.7673 107.615L53.0417 111.342L47.7673 114.924Z" fill="#FBB33B" stroke="black" stroke-miterlimit="10" stroke-linejoin="round"/>
<path d="M47.7673 140.721L42.4746 137.138L47.7673 133.412L53.0417 137.138L47.7673 140.721Z" fill="#FBB33B" stroke="black" stroke-miterlimit="10" stroke-linejoin="round"/>
<path d="M47.7715 114.925V140.722L53.0459 137.139V111.343L47.7715 114.925Z" fill="#FBB33B" stroke="black" stroke-miterlimit="10" stroke-linejoin="round"/>
<path d="M42.4746 111.343V137.139L47.7673 140.722V114.925L42.4746 111.343Z" fill="#F68B38" stroke="black" stroke-miterlimit="10" stroke-linejoin="round"/>
<path d="M9.75534 36.8689C9.85611 36.8982 9.99628 36.9358 10.1539 36.9689C10.4736 37.0523 10.7429 37.2979 10.8252 37.6113L13.2506 46.8378C13.289 47.1255 13.1881 47.4498 12.959 47.6403C12.8554 47.742 12.7345 47.8482 12.6657 47.9408C12.4247 48.2275 12.7232 48.7259 13.0888 48.6298L18.4681 47.2158C18.8337 47.1197 18.8485 46.5389 18.4976 46.4078C18.3749 46.3656 18.2695 46.3188 18.1513 46.2941C17.827 46.1932 17.5752 45.943 17.4974 45.6471L16.9665 43.6277L17.6803 43.4401C22.5199 42.1679 25.1472 39.9139 24.3692 36.9545C23.5913 33.995 20.1513 33.2987 15.3511 34.5791L9.76747 36.0654C9.4193 36.1569 9.40448 36.7378 9.75534 36.8689ZM15.1361 36.6642L15.0537 36.3509C14.9714 36.0375 15.1208 35.7563 15.4341 35.6739C18.05 35.0049 19.5001 35.7777 20.1087 38.093C20.7128 40.3909 19.7907 41.7686 17.2142 42.4459C16.9009 42.5282 16.6371 42.3743 16.5547 42.0609L15.1361 36.6642Z" fill="black"/>
<path d="M26.7715 38.3778C27.0405 42.473 29.6746 44.9517 34.2548 44.6508C38.8349 44.35 41.1581 41.5457 40.8712 37.4517C40.6022 33.3565 37.9489 30.8611 33.3688 31.1619C28.7887 31.4627 26.5026 34.2826 26.7715 38.3778ZM32.7774 32.3191C34.6659 31.9606 35.7115 34.1468 36.3428 37.4425C36.955 40.7214 36.7886 43.1315 34.8821 43.4912C32.9936 43.8498 31.9133 41.6839 31.2999 38.387C30.6685 35.0913 30.8888 32.6777 32.7774 32.3191Z" fill="black"/>
<path d="M43.6633 37.4408C43.1272 41.5096 45.2265 44.4551 49.7771 45.0546C54.3278 45.6542 57.154 43.3577 57.6723 39.2865C58.2083 35.2177 56.0936 32.252 51.5429 31.6524C46.9923 31.0529 44.1994 33.3719 43.6633 37.4408ZM50.7369 32.6719C52.6591 32.6891 53.2575 35.0374 53.2329 38.393C53.1929 41.7283 52.559 44.0595 50.6189 44.0399C48.6967 44.0227 48.0603 41.6875 48.1026 38.3343C48.1272 34.9788 48.8146 32.6547 50.7369 32.6719Z" fill="black"/>
<path d="M61.2658 34.2531C61.3299 34.3488 61.4283 34.4555 61.5439 34.5675C61.7751 34.7917 61.8716 35.1431 61.774 35.4521L58.9031 44.531C58.8054 44.8399 58.5243 45.0719 58.2063 45.1224C58.0473 45.1476 57.9055 45.1783 57.7979 45.2198C57.4411 45.3335 57.4273 45.9144 57.7705 46.0229L67.4673 49.0892C67.7762 49.1869 68.0987 49.0623 68.2597 48.7923C68.5263 48.3669 68.9205 47.7175 69.2016 47.1268C69.434 46.6906 69.258 46.3517 68.9319 46.2486C68.6916 46.1726 68.3907 46.2285 68.1097 46.4606C67.4238 47.0177 66.9004 47.7773 65.1156 47.2128L63.4165 46.6756C63.1076 46.5779 62.9667 46.3068 63.0644 45.9979L65.9245 36.9533L65.9787 36.7817C66.071 36.4899 66.3349 36.2524 66.6638 36.1676C66.7658 36.1433 66.8905 36.1072 67.0152 36.0711C67.3721 35.9574 67.3859 35.3765 67.0255 35.2626L61.7051 33.5802C61.3619 33.4717 61.0392 33.9548 61.2658 34.2531Z" fill="black"/>
<path d="M12.6176 15.0882L13.3392 14.9334L14.5364 20.5124C14.6043 20.8292 14.4749 21.1699 14.2236 21.3711C14.0979 21.4717 13.9898 21.5686 13.9169 21.6579C13.663 21.9333 13.9385 22.4448 14.2905 22.3693L19.3415 21.2854C19.7111 21.2061 19.7524 20.6265 19.4079 20.4796C19.2872 20.4318 19.1665 20.3841 19.0672 20.3502C18.7478 20.2346 18.5076 19.9732 18.4434 19.674L17.2462 14.095L19.1469 13.6871C19.4109 13.6305 19.5492 13.4167 19.4925 13.1527C19.4321 12.8711 19.2183 12.7329 18.9543 12.7895L17.0536 13.1974C15.7308 12.2662 15.2535 9.4415 16.7243 9.08907C17.9349 8.81088 17.1035 11.9717 19.5814 11.6793C21.1251 11.4953 21.7823 10.5258 21.4652 9.56291C21.0512 8.23419 19.0446 7.63384 16.5769 8.14497C12.5706 8.94947 11.5606 11.7067 13.1428 14.0182L13.1466 14.0358L12.425 14.1907C12.161 14.2473 12.0228 14.4611 12.0794 14.7251L12.0832 14.7427C12.1398 15.0067 12.3536 15.1449 12.6176 15.0882Z" fill="black"/>
<path d="M21.064 8.25572C21.1608 8.31835 21.2934 8.37738 21.4438 8.43461C21.7466 8.56697 21.9742 8.85162 22.0067 9.17399L22.6732 15.8006C22.9902 18.9527 25.4538 20.4235 29.7521 19.9911C33.5131 19.6128 35.0756 17.7009 34.7406 14.3697L34.0975 7.97594C34.0668 7.67148 34.2153 7.349 34.4839 7.14108C34.568 7.07835 34.6682 6.9959 34.7685 6.91345C35.0513 6.66791 34.8343 6.12893 34.4582 6.16676L32.1479 6.39914C31.7718 6.43697 31.6664 7.00838 31.9925 7.19267C32.0893 7.2553 32.2397 7.31253 32.3723 7.37156C32.6357 7.47171 32.84 7.70443 32.9207 7.96767L33.5494 14.2181C33.8286 16.9941 32.8803 18.5368 30.552 18.771C28.385 18.9889 27.3221 17.7752 27.0303 14.8738L26.4016 8.62339C26.4104 8.35114 26.5625 8.06448 26.7988 7.89598C26.8812 7.81534 26.9814 7.73289 27.0817 7.65044C27.3663 7.42281 27.1296 6.86772 26.7714 6.90375L21.2015 7.46399C20.8433 7.50002 20.7398 8.08934 21.064 8.25572Z" fill="black"/>
<path d="M38.4036 15.8468C38.4259 17.8655 41.0459 19.3821 44.8765 19.5448C48.4373 19.696 51.0161 18.3643 51.2482 15.8699C51.6707 11.4378 42.2528 10.4793 42.1926 8.08056C42.1566 7.23227 43.2443 6.64791 44.6746 6.90684C46.8916 7.30729 46.7001 9.69531 48.5376 10.5481C48.8028 10.6674 49.0702 10.7328 49.322 10.7435C50.2032 10.781 50.9665 10.2008 50.7269 9.05562C50.4417 7.71031 48.2744 6.14092 44.7496 5.9912C41.4413 5.83266 38.9539 7.13227 38.8477 9.63201C38.6568 14.128 48.0769 15.0325 47.5345 17.6219C47.354 18.479 46.4005 18.8709 45.1657 18.6743C41.818 18.1718 42.4931 14.5792 40.0339 14.3666C39.083 14.2722 38.3878 14.9453 38.4036 15.8468Z" fill="black"/>
<path d="M53.9161 7.47007C53.9952 7.53907 54.1065 7.63213 54.2356 7.72836C54.4906 7.93854 54.6316 8.27463 54.5746 8.59356L52.9075 17.9136C52.8504 18.2326 52.6016 18.4989 52.2928 18.59C52.1383 18.6355 52.0016 18.6842 51.9004 18.7392C51.5611 18.898 51.6223 19.4758 51.9767 19.5392L57.6644 20.5565C62.5903 21.4376 66.0328 19.8774 66.7997 15.5894C67.5667 11.3015 64.8495 8.60288 59.9559 7.74585L54.265 6.74619C53.9106 6.68281 53.6529 7.20356 53.9161 7.47007ZM57.2232 18.8319L58.941 9.22831C58.9981 8.90938 59.2519 8.71706 59.5708 8.77411C62.2255 9.26724 63.1052 11.1983 62.4555 14.8307C61.8058 18.463 60.2821 19.9276 57.6597 19.4585C57.3408 19.4015 57.1662 19.1508 57.2232 18.8319Z" fill="black"/>
</svg>
