<svg width="40" height="40" viewBox="0 0 40 40" fill="none" xmlns="http://www.w3.org/2000/svg">
<path d="M20 40C31.0457 40 40 31.0457 40 20C40 8.9543 31.0457 0 20 0C8.9543 0 0 8.9543 0 20C0 31.0457 8.9543 40 20 40Z" fill="black"/>
<path fill-rule="evenodd" clip-rule="evenodd" d="M28.125 23.9425C28.125 27.155 25.5175 29.2875 21.6675 29.6087V32.5H19.03V29.58C16.4259 29.2864 13.9516 28.2861 11.875 26.6875L13.815 24.03C15.5438 25.3738 17.18 26.25 19.1512 26.5425V20.8175C14.725 19.7075 12.6637 18.1012 12.6637 14.8012C12.6637 11.6475 15.24 9.48625 19.03 9.19375V7.5H21.6675V9.2525C23.7289 9.48147 25.6942 10.2469 27.3675 11.4725L25.6687 14.2175C24.335 13.2537 22.9712 12.64 21.5462 12.3487V17.8975C26.155 19.0075 28.125 20.7887 28.125 23.9425ZM19.15 17.2837V12.1438C17.2412 12.29 16.2413 13.3125 16.2413 14.5975C16.2413 15.8225 16.8162 16.6125 19.1512 17.285L19.15 17.2837ZM24.5475 24.1462C24.5475 22.8337 23.91 22.045 21.5462 21.3725V26.66C23.4562 26.5125 24.5475 25.5488 24.5475 24.1475V24.1462Z" fill="white"/>
</svg>
