<svg width="42" height="42" viewBox="0 0 42 42" fill="none" xmlns="http://www.w3.org/2000/svg">
<path d="M41.5 21C41.5 32.3218 32.3218 41.5 21 41.5C9.67816 41.5 0.5 32.3218 0.5 21C0.5 9.67816 9.67816 0.5 21 0.5C32.3218 0.5 41.5 9.67816 41.5 21Z" fill="#2775C9" stroke="black"/>
<path d="M20.6719 36.0938C12.1538 36.0938 5.25 29.19 5.25 20.6719C5.25 12.1538 12.1538 5.25 20.6719 5.25C29.19 5.25 36.0938 12.1538 36.0938 20.6719C36.0938 24.762 34.4689 28.6846 31.5768 31.5768C28.6846 34.4689 24.762 36.0938 20.6719 36.0938ZM19.7531 14.9494C18.9093 14.9912 18.1116 15.347 17.5167 15.9468C16.9217 16.5466 16.5725 17.3471 16.5375 18.1912C16.5375 19.7794 17.5087 20.8163 19.5694 21.2494L21.0131 21.5906C22.4175 21.9188 22.995 22.3913 22.995 23.1919C22.995 23.9925 21.9844 24.78 20.6719 24.78C20.2057 24.8227 19.7369 24.7334 19.3191 24.5222C18.9013 24.311 18.5514 23.9864 18.3094 23.5856C18.2377 23.4336 18.1245 23.3048 17.9829 23.2143C17.8412 23.1237 17.6769 23.075 17.5087 23.0737H16.7344C16.6748 23.0848 16.618 23.1075 16.5673 23.1405C16.5166 23.1736 16.4728 23.2164 16.4387 23.2664C16.4045 23.3164 16.3806 23.3727 16.3683 23.432C16.356 23.4912 16.3555 23.5524 16.3669 23.6119C16.5555 24.3817 16.9941 25.0673 17.6139 25.5613C18.2338 26.0553 19 26.3298 19.7925 26.3419V27.4444C19.7925 27.6898 19.89 27.9251 20.0635 28.0987C20.237 28.2722 20.4724 28.3697 20.7178 28.3697C20.9632 28.3697 21.1986 28.2722 21.3721 28.0987C21.5456 27.9251 21.6431 27.6898 21.6431 27.4444V26.3287C22.5393 26.3186 23.3961 25.959 24.031 25.3265C24.6659 24.694 25.0289 23.8386 25.0425 22.9425C25.0425 21.2756 24.0844 20.3175 21.8138 19.8319L20.5013 19.5431C19.1888 19.215 18.5719 18.7819 18.5719 18.0469C18.5719 17.3119 19.3594 16.4981 20.6719 16.4981C21.0852 16.455 21.5022 16.5324 21.8726 16.721C22.2429 16.9097 22.5507 17.2015 22.7588 17.5612C22.8431 17.7409 22.9766 17.893 23.1439 17.9998C23.3112 18.1067 23.5053 18.164 23.7037 18.165H24.3206C24.4609 18.1307 24.5821 18.0427 24.6582 17.92C24.7342 17.7973 24.7591 17.6496 24.7275 17.5087C24.5497 16.7979 24.1519 16.1615 23.591 15.6901C23.03 15.2187 22.3346 14.9365 21.6037 14.8837V13.9781C21.6037 13.7327 21.5063 13.4974 21.3327 13.3238C21.1592 13.1503 20.9238 13.0528 20.6784 13.0528C20.433 13.0528 20.1977 13.1503 20.0241 13.3238C19.8506 13.4974 19.7531 13.7327 19.7531 13.9781V14.9494ZM9.10875 20.6719C9.11025 23.0896 9.87128 25.4457 11.2843 27.4075C12.6974 29.3693 14.6911 30.8376 16.9837 31.605H17.1675C17.3241 31.605 17.4744 31.5428 17.5851 31.432C17.6959 31.3212 17.7581 31.171 17.7581 31.0144V30.7388C17.7586 30.4944 17.6864 30.2555 17.5509 30.0522C17.4154 29.8489 17.2226 29.6904 16.9969 29.5969C15.2114 28.8762 13.682 27.6383 12.605 26.0422C11.528 24.4461 10.9526 22.5645 10.9526 20.6391C10.9526 18.7136 11.528 16.832 12.605 15.2359C13.682 13.6398 15.2114 12.4019 16.9969 11.6812C17.2215 11.59 17.4139 11.4339 17.5495 11.2329C17.6851 11.0318 17.7577 10.795 17.7581 10.5525V10.2506C17.759 10.162 17.7384 10.0745 17.6983 9.99545C17.6581 9.91644 17.5994 9.84829 17.5273 9.79677C17.4552 9.74525 17.3717 9.71188 17.2839 9.6995C17.1962 9.68711 17.1067 9.69607 17.0231 9.72563C14.721 10.487 12.7172 11.9544 11.2965 13.9194C9.87573 15.8844 9.11025 18.2471 9.10875 20.6719ZM32.235 20.6719C32.2307 18.2564 31.4685 15.9032 30.0556 13.944C28.6427 11.9849 26.6506 10.5186 24.36 9.75187H24.1631C23.9995 9.75187 23.8426 9.81687 23.7269 9.93255C23.6112 10.0482 23.5463 10.2051 23.5463 10.3688V10.5656C23.5515 10.8188 23.6299 11.065 23.772 11.2746C23.9141 11.4842 24.1137 11.6482 24.3469 11.7469C26.1283 12.4697 27.6536 13.7076 28.7275 15.3022C29.8013 16.8968 30.375 18.7756 30.375 20.6981C30.375 22.6206 29.8013 24.4994 28.7275 26.094C27.6536 27.6886 26.1283 28.9266 24.3469 29.6494C24.1182 29.7491 23.9226 29.9119 23.7831 30.1188C23.6436 30.3257 23.566 30.5681 23.5594 30.8175V31.0406C23.5605 31.1379 23.5846 31.2336 23.6298 31.3198C23.6749 31.406 23.7398 31.4803 23.8192 31.5366C23.8986 31.5929 23.9901 31.6297 24.0864 31.6438C24.1826 31.658 24.2809 31.6492 24.3731 31.6181C26.6655 30.8478 28.6578 29.3765 30.0686 27.4123C31.4793 25.4481 32.2372 23.0902 32.235 20.6719Z" fill="white"/>
</svg>
