<svg width="42" height="42" viewBox="0 0 42 42" fill="none" xmlns="http://www.w3.org/2000/svg">
<path d="M41.5 21C41.5 32.3218 32.3218 41.5 21 41.5C9.67816 41.5 0.5 32.3218 0.5 21C0.5 9.67816 9.67816 0.5 21 0.5C32.3218 0.5 41.5 9.67816 41.5 21Z" fill="#26A17B" stroke="black"/>
<path fill-rule="evenodd" clip-rule="evenodd" d="M23.5224 22.8154V22.8128C23.3781 22.8233 22.6339 22.8679 20.9736 22.8679C19.6479 22.8679 18.7147 22.8286 18.3866 22.8128V22.8168C13.2836 22.5923 9.47474 21.7038 9.47474 20.6406C9.47474 19.5788 13.2836 18.6903 18.3866 18.4619V21.9321C18.72 21.9558 19.6755 22.0122 20.9959 22.0122C22.5801 22.0122 23.3741 21.9466 23.5224 21.9334V18.4645C28.6149 18.6916 32.4146 19.5801 32.4146 20.6406C32.4146 21.7038 28.6149 22.5897 23.5224 22.8154ZM23.5224 18.1036V14.9982H30.6283V10.2627H11.2807V14.9982H18.3866V18.1023C12.6116 18.3674 8.26855 19.5119 8.26855 20.8821C8.26855 22.2524 12.6116 23.3956 18.3866 23.662V33.6134H23.5224V23.6594C29.2882 23.3943 33.6208 22.2511 33.6208 20.8821C33.6208 19.5132 29.2882 18.37 23.5224 18.1036Z" fill="white"/>
</svg>
