<svg width="277" height="278" viewBox="0 0 277 278" fill="none" xmlns="http://www.w3.org/2000/svg">
<path d="M208.971 277H58.0294C26.5339 277 1 251.353 1 219.719V68.2812C1 36.6466 26.5339 11 58.0294 11L208.971 11C240.466 11 266 36.6466 266 68.2812L266 219.719C266 251.353 240.466 277 208.971 277Z" fill="#F68B38" stroke="black" stroke-width="2" stroke-miterlimit="10"/>
<path d="M218.971 267H68.0294C36.5339 267 11 241.353 11 209.719V58.2812C11 26.6466 36.5339 1 68.0294 1L218.971 1C250.466 1 276 26.6466 276 58.2812L276 209.719C276 241.353 250.466 267 218.971 267Z" fill="#F499AD" stroke="black" stroke-width="2" stroke-miterlimit="10"/>
</svg>
