<svg width="308" height="238" viewBox="0 0 308 238" fill="none"
    xmlns="http://www.w3.org/2000/svg">
    <path d="M239.96 237H58.0397C26.5385 237 1 211.353 1 179.719V68.2812C1 36.6466 26.5385 11 58.0397 11L239.96 11C271.461 11 297 36.6466 297 68.2812L297 179.719C297 211.353 271.461 237 239.96 237Z" fill="#F68B38" stroke="black" stroke-width="2" stroke-miterlimit="10"/>
    <path d="M249.96 227H68.0397C36.5385 227 11 201.353 11 169.719V58.2812C11 26.6466 36.5385 1 68.0397 1L249.96 1C281.461 1 307 26.6466 307 58.2812L307 169.719C307 201.353 281.461 227 249.96 227Z" fill="#F499AD" stroke="black" stroke-width="2" stroke-miterlimit="10"/>
</svg>
