<svg width="186" height="174" viewBox="0 0 186 174" fill="none" xmlns="http://www.w3.org/2000/svg">
<path d="M127.441 153.318C126.204 152.415 124.967 151.773 123.669 151.331C123.21 151.05 122.741 150.769 122.262 150.539C122.033 150.388 121.774 150.278 121.474 150.207C119.439 149.475 117.233 149.435 115.188 148.672C113.551 148.06 112.124 146.996 110.418 146.615C110.009 146.525 109.61 146.465 109.201 146.424C109.291 145.782 108.951 145.009 108.253 144.869C106.806 144.588 105.419 144.939 103.962 145.009C102.555 145.09 101.228 144.989 99.921 144.718C99.2325 144.578 98.4442 144.919 98.2745 145.662C98.2645 145.712 98.2646 145.772 98.2546 145.822C98.2047 145.872 98.1448 145.913 98.1049 145.973C97.8055 146.334 97.576 146.735 97.3565 147.147C96.9175 147.96 96.5383 148.803 96.1891 149.666C96.0993 149.886 96.1292 150.187 96.209 150.438C96.0893 150.86 95.9795 151.271 95.8598 151.682C95.281 153.699 94.6524 155.736 95.1114 157.854C95.2611 158.566 96.0893 158.978 96.7578 158.797C97.1669 158.687 97.4463 158.386 97.596 158.034C97.8056 158.175 98.055 158.265 98.3144 158.245C98.4541 158.235 98.5839 158.205 98.7036 158.175C101.458 159.309 104.511 159.208 107.475 159.279C111.975 159.389 116.465 159.228 120.955 158.887C121.774 158.827 122.422 158.496 122.911 158.034C123.59 158.416 124.278 158.767 125.016 159.048C128.609 160.392 130.085 155.265 127.441 153.318Z" fill="#F68B38"/>
<path d="M57.8042 135.938C58.1136 134.613 58.0537 133.118 57.8142 131.924C57.5248 130.429 55.8984 129.526 54.4814 129.666C53.1543 128.071 50.6298 127.91 48.245 127.89C44.1239 127.86 42.4875 129.425 41.789 133.509C41.0007 138.135 39.2146 142.992 39.5139 147.718C39.7834 151.863 40.3621 157.061 44.573 158.887C46.0797 159.539 47.9656 159.399 48.8537 157.763C50.5001 154.712 50.061 151.281 51.7075 148.24C52.0467 147.608 52.1565 146.986 52.0966 146.414C52.5656 146.002 52.9747 145.501 53.4038 144.879C53.8528 144.236 54.212 143.544 54.5214 142.822C55.8385 142.229 57.465 141.928 58.4329 140.875C59.7201 139.49 59.6901 136.871 57.8042 135.938Z" fill="#F68B38"/>
<path d="M184.886 24.1927C184.546 23.6207 183.948 23.4702 183.339 23.4602C182.521 23.4401 181.692 23.4602 180.874 23.4602C180.176 23.4602 179.497 24.0823 179.537 24.8048C179.537 24.8249 179.547 24.8449 179.547 24.865C178.769 25.2463 178.03 25.7079 177.372 26.2699C177.701 25.7079 178.01 25.146 178.24 24.5339C178.549 23.7211 178.549 22.8681 178.569 22.0052C178.579 21.3228 178.709 20.7208 179.018 20.1387C179.358 19.4965 179.178 18.6737 178.539 18.2924C178.18 18.0817 177.731 18.0716 177.342 18.2221C177.292 18.2121 177.242 18.2121 177.202 18.2021C177.142 18.192 177.062 18.182 176.993 18.172C176.973 18.172 176.953 18.172 176.933 18.172C176.923 18.172 176.913 18.172 176.903 18.172C176.773 18.182 176.643 18.2021 176.524 18.2221C176.484 18.2322 176.444 18.2422 176.404 18.2522C176.294 18.2924 176.174 18.3426 176.065 18.3927C176.055 18.3927 176.045 18.4028 176.035 18.4028C176.015 18.4128 175.995 18.4228 175.975 18.4329C175.955 18.4429 175.945 18.4529 175.925 18.463C175.815 18.5432 175.715 18.6235 175.616 18.7038C175.586 18.7339 175.556 18.764 175.526 18.7941C175.446 18.8945 175.356 18.9948 175.286 19.1052C175.276 19.1253 175.266 19.1453 175.256 19.1654C175.256 19.1754 175.246 19.1855 175.246 19.1955C175.197 19.3059 175.147 19.4263 175.107 19.5367C175.097 19.5567 175.087 19.5768 175.087 19.5969C175.077 19.6169 175.077 19.6471 175.077 19.6671C175.067 19.6972 175.067 19.7373 175.067 19.7775C173.859 20.9917 172.951 22.4367 172.403 24.0221C172.413 23.9218 172.423 23.8315 172.433 23.7311C172.562 21.9249 172.921 18.9948 170.577 18.4931C168.182 17.9813 168.012 20.8612 167.833 22.4467C167.713 23.5304 167.533 24.6041 167.264 25.6578C167.144 26.1394 167.004 26.611 166.835 27.0726C166.765 27.2633 166.695 27.464 166.605 27.6446C166.595 27.6345 166.585 27.6346 166.585 27.6346C167.054 26.3602 166.286 24.4436 165.807 23.41C165.737 23.2595 165.647 23.1391 165.547 23.0387C165.428 22.8079 165.258 22.5972 165.029 22.4768C164.709 22.3062 164.35 22.246 164.001 22.3363C163.223 22.547 162.634 23.2495 162.474 24.0322C162.414 24.3131 162.404 24.584 162.404 24.855C162.075 25.1359 161.875 25.5875 162.025 26.1795C163.013 30.1833 164.001 34.1871 164.989 38.1909C165.079 38.5221 165.248 38.7529 165.458 38.9034C165.627 39.4452 166.166 39.8466 166.735 39.8466C167.104 39.8466 167.393 39.7062 167.613 39.4954C167.843 39.6961 168.132 39.8266 168.481 39.8667C169.908 40.0072 171.385 39.8667 172.752 39.4553C173.48 39.2446 174.229 38.9837 174.797 38.4619C175.336 37.9702 175.606 37.2979 175.586 36.5954C175.815 36.3747 176.025 36.1238 176.174 35.8428C176.673 34.9096 176.943 33.7958 177.282 32.7923C177.332 32.6518 177.342 32.5114 177.332 32.3608C177.462 32.2204 177.591 32.0698 177.751 31.8993C177.981 31.6685 178.21 31.4377 178.459 31.2269C178.589 31.1166 178.719 31.0062 178.859 30.8958C178.899 30.8657 179.058 30.7453 179.068 30.7453C179.697 30.2937 180.365 29.9124 180.964 29.4308C181.463 29.0394 181.842 28.5578 182.241 28.0761C182.431 27.8453 182.63 27.6245 182.86 27.4138C182.98 27.3135 182.99 27.3034 182.89 27.3937C182.96 27.3536 183.02 27.3034 183.089 27.2733C183.189 27.2231 183.289 27.173 183.389 27.1228C184.017 26.8117 184.606 26.4304 184.915 25.7782C185.145 25.2965 185.195 24.7045 184.886 24.1927Z" fill="#F68B38"/>
<path d="M155.631 61.6126C154.314 61.6126 153.007 61.0306 152.129 59.9067C150.602 57.9701 150.921 55.1504 152.847 53.605C152.957 53.5147 159.273 48.3369 161.299 41.1621C161.977 38.7739 164.442 37.3892 166.817 38.0715C169.192 38.7539 170.569 41.2324 169.89 43.6206C167.046 53.6652 158.754 60.3683 158.395 60.6493C157.587 61.2915 156.609 61.6126 155.631 61.6126Z" fill="black"/>
<path d="M162.506 41.3328C162.346 41.3328 162.186 41.2927 162.047 41.2024C161.628 40.9515 161.488 40.3996 161.737 39.9681L163.154 37.5899C162.685 36.5865 161.797 34.128 162.067 30.5356C161.548 29.3114 159.342 23.6318 162.546 21.3841C162.585 21.364 162.615 21.3339 162.655 21.3138C162.785 21.2436 163.972 20.6917 165.26 21.4343C166.667 22.2471 167.525 24.2741 167.804 27.445C169.6 27.7962 174.021 29.0907 174.789 33.4958C174.869 33.9875 174.549 34.4491 174.061 34.5394C173.572 34.6197 173.113 34.2986 173.023 33.8069C172.324 29.7228 166.926 29.1207 166.876 29.1207C166.437 29.0806 166.098 28.7194 166.078 28.2778C165.838 24.2941 164.821 23.2606 164.392 22.9997C164.002 22.7589 163.633 22.8492 163.493 22.8993C161.687 24.2941 163.084 28.4785 163.783 29.9837C163.853 30.1242 163.873 30.2848 163.863 30.4453C163.493 34.6297 164.92 37.1183 164.94 37.1484C165.11 37.4294 165.11 37.7906 164.94 38.0716L163.264 40.8813C163.104 41.1823 162.805 41.3328 162.506 41.3328Z" fill="black"/>
<path d="M169.083 41.6861C168.614 41.6861 168.225 41.3148 168.195 40.8432C168.165 40.3515 168.544 39.92 169.033 39.8899C169.073 39.8899 173.494 39.5788 174.851 36.8393C174.881 36.7892 174.91 36.739 174.94 36.6989C174.95 36.6888 175.978 35.3041 176.168 33.6183C176.188 33.4075 176.287 33.2169 176.437 33.0764L183.971 25.7813C184.11 25.42 184.37 24.4567 183.622 23.9249C183.532 23.8647 182.294 22.9816 180.019 24.7477C177.804 27.2363 175.389 30.0259 175.15 30.4172C174.89 30.8387 174.332 30.9591 173.923 30.6982C173.503 30.4373 173.384 29.8854 173.643 29.464C174.072 28.7716 177.974 24.3664 178.752 23.4934C178.782 23.4532 178.822 23.4231 178.862 23.383C182.344 20.6235 184.609 22.4097 184.709 22.4899C186.376 23.6539 185.986 25.7512 185.547 26.6844C185.497 26.7847 185.438 26.865 185.358 26.9453L177.914 34.1501C177.615 35.9563 176.667 37.3712 176.427 37.7124C174.581 41.3248 169.372 41.676 169.153 41.6861C169.113 41.6861 169.093 41.6861 169.083 41.6861Z" fill="black"/>
<path d="M168.194 29.3717C167.765 29.3717 167.385 29.0606 167.316 28.609C167.186 27.7661 166.088 20.2904 168.303 17.7918C168.832 17.1997 169.511 16.8887 170.279 16.8887C170.289 16.8887 170.289 16.8887 170.289 16.8887C170.638 16.8285 171.467 16.7783 172.275 17.3804C173.362 18.1932 173.931 19.8087 173.981 22.207C173.991 22.6987 173.602 23.1101 173.103 23.1201C173.093 23.1201 173.093 23.1201 173.083 23.1201C172.594 23.1201 172.195 22.7288 172.185 22.2371C172.145 19.9091 171.566 19.1063 171.237 18.8354C170.928 18.5845 170.618 18.6447 170.588 18.6547C170.509 18.6748 170.399 18.6848 170.329 18.6848C170.05 18.6748 169.83 18.7651 169.631 18.9859C168.373 20.3907 168.623 25.4582 169.072 28.318C169.152 28.8097 168.812 29.2713 168.333 29.3416C168.283 29.3616 168.234 29.3717 168.194 29.3717Z" fill="black"/>
<path d="M176.296 28.5179C176.146 28.5179 175.987 28.4777 175.847 28.3974C175.418 28.1466 175.278 27.6047 175.518 27.1732C178.132 22.6376 178.042 20.5304 177.753 19.6774C177.593 19.1958 177.334 19.0252 177.324 19.0151C177.164 18.9549 176.935 18.8947 176.576 19.0653C174.73 19.9082 172.534 24.7549 171.576 27.6047C171.417 28.0763 170.918 28.3272 170.449 28.1667C169.98 28.0061 169.73 27.4943 169.89 27.0327C170.169 26.1999 172.684 18.8847 175.837 17.4297C176.566 17.0885 177.324 17.0684 178.012 17.3594C178.112 17.3995 179.01 17.811 179.449 19.1054C180.128 21.1324 179.33 24.1528 177.064 28.0763C176.905 28.3573 176.605 28.5179 176.296 28.5179Z" fill="black"/>
<path d="M62.4114 139.51C61.1741 139.51 59.9168 139.46 58.6196 139.36C56.165 139.159 54.329 136.992 54.5285 134.523C54.7281 132.055 56.8834 130.198 59.3381 130.409C78.7958 131.984 91.2488 117.615 91.3685 117.474C92.9651 115.588 95.779 115.367 97.6549 116.963C99.5308 118.568 99.7703 121.388 98.1837 123.274C97.605 123.967 84.3039 139.51 62.4114 139.51Z" fill="black"/>
<path d="M148.707 165.46H69.2403C67.9731 165.46 66.9453 164.426 66.9453 163.152V160.342C66.9453 159.068 67.9731 158.034 69.2403 158.034H148.707C149.974 158.034 151.002 159.068 151.002 160.342V163.152C151.002 164.426 149.974 165.46 148.707 165.46Z" fill="black"/>
<path d="M29.0769 140.123H14.7181C11.9541 140.123 9.70898 137.865 9.70898 135.085C9.70898 132.306 11.9541 130.048 14.7181 130.048C15.207 130.048 15.6162 130.449 15.6162 130.951C15.6162 131.443 15.217 131.854 14.7181 131.854C12.942 131.854 11.4951 133.309 11.4951 135.095C11.4951 136.881 12.942 138.336 14.7181 138.336H29.0769C29.5659 138.336 29.975 138.738 29.975 139.24C29.975 139.741 29.5659 140.123 29.0769 140.123Z" fill="black"/>
<path d="M9.30979 141.558H3.22301C1.44686 141.558 0 140.102 0 138.316C0 136.53 1.44686 135.075 3.22301 135.075C3.71195 135.075 4.12106 135.477 4.12106 135.978C4.12106 136.47 3.72192 136.881 3.22301 136.881C2.43472 136.881 1.78612 137.524 1.78612 138.326C1.78612 139.119 2.42474 139.771 3.22301 139.771H9.30979C9.79873 139.771 10.2078 140.173 10.2078 140.674C10.2078 141.156 9.80871 141.558 9.30979 141.558Z" fill="black"/>
<path d="M6.34605 149.646C4.5699 149.646 3.12305 148.191 3.12305 146.405C3.12305 144.619 4.5699 143.164 6.34605 143.164H7.96254C8.45148 143.164 8.86059 143.565 8.86059 144.067C8.86059 144.569 8.46146 144.97 7.96254 144.97H6.34605C5.55776 144.97 4.90917 145.612 4.90917 146.415C4.90917 147.208 5.54778 147.86 6.34605 147.86C6.83498 147.86 7.2441 148.262 7.2441 148.763C7.2441 149.265 6.83498 149.646 6.34605 149.646Z" fill="black"/>
<path d="M14.7181 152.697C11.9541 152.697 9.70898 150.439 9.70898 147.659C9.70898 144.88 11.9541 142.622 14.7181 142.622H29.0769C29.5659 142.622 29.975 143.023 29.975 143.525C29.975 144.017 29.5758 144.428 29.0769 144.428H14.7181C12.942 144.428 11.4951 145.883 11.4951 147.669C11.4951 149.456 12.942 150.911 14.7181 150.911C15.207 150.911 15.6162 151.312 15.6162 151.814C15.6162 152.315 15.207 152.697 14.7181 152.697Z" fill="black"/>
<path d="M55.9682 140.123C53.0046 140.123 50.5898 137.594 50.5898 134.494C50.5898 131.393 53.0046 128.864 55.9682 128.864C58.9317 128.864 61.3465 131.393 61.3465 134.494C61.3565 137.594 58.9417 140.123 55.9682 140.123ZM55.9682 130.65C53.9825 130.65 52.376 132.366 52.376 134.484C52.376 136.601 53.9925 138.317 55.9682 138.317C57.9539 138.317 59.5604 136.601 59.5604 134.484C59.5703 132.376 57.9539 130.65 55.9682 130.65Z" fill="black"/>
<path d="M46.2693 160.122C44.2636 160.122 42.4276 159.289 42.3178 159.239C42.238 159.209 42.1682 159.159 42.1083 159.109C34.2254 152.325 41.5196 129.256 41.8389 128.282C41.9187 128.042 42.0883 127.841 42.3278 127.741C50.4701 124.068 56.2975 128.864 56.5469 129.065C56.9261 129.386 56.976 129.948 56.6567 130.329C56.3374 130.711 55.7786 130.761 55.3994 130.44C55.1699 130.249 50.3105 126.316 43.4254 129.216C42.9964 130.62 41.5395 135.658 40.7512 141.217C39.5838 149.496 40.422 155.175 43.176 157.664C43.7148 157.884 46.0797 158.788 47.766 158.065C48.4445 157.774 48.9235 157.252 49.2328 156.46C49.2927 155.095 49.8814 145.672 54.8905 142.491C54.9504 142.451 55.0103 142.421 55.0801 142.401C56.048 142.07 58.842 140.765 58.9318 139.17C58.9617 138.678 59.3808 138.297 59.8697 138.317C60.3587 138.347 60.7378 138.769 60.7179 139.26C60.5582 142.19 56.5968 143.756 55.7686 144.057C51.3582 146.967 51.0189 156.56 51.0189 156.66C51.0189 156.75 50.999 156.851 50.9691 156.931C50.5001 158.266 49.6519 159.209 48.4645 159.711C47.756 160.012 47.0077 160.122 46.2693 160.122Z" fill="black"/>
<path d="M103.682 149.175C102.734 149.175 101.786 148.874 100.978 148.251C99.0122 146.746 98.633 143.927 100.13 141.96C101.656 139.832 104.7 127.37 106.576 117.064C107.015 114.626 109.34 113.01 111.774 113.452C114.199 113.893 115.806 116.241 115.367 118.68C114.07 125.804 110.687 142.853 107.244 147.399C106.356 148.573 105.019 149.175 103.682 149.175Z" fill="black"/>
<path d="M103.554 149.354C99.6428 149.354 96.6992 147.809 96.6992 145.772C96.6992 143.735 99.6428 142.189 103.554 142.189C107.466 142.189 110.409 143.735 110.409 145.772C110.409 147.809 107.466 149.354 103.554 149.354ZM103.554 143.986C100.271 143.986 98.4853 145.17 98.4853 145.772C98.4853 146.374 100.271 147.558 103.554 147.558C106.837 147.558 108.623 146.374 108.623 145.772C108.623 145.17 106.837 143.986 103.554 143.986Z" fill="black"/>
<path d="M128.73 159.229H95.1626C94.7335 159.229 94.3543 158.918 94.2845 158.487C94.2246 158.126 92.7977 149.656 96.9487 145.251C97.288 144.89 97.8467 144.87 98.206 145.211C98.5652 145.552 98.5851 146.124 98.2459 146.475C95.3621 149.546 95.7114 155.366 95.9509 157.423H128.101C129.109 153.821 125.078 152.055 124.898 151.974L109.242 146.706C108.773 146.546 108.524 146.044 108.683 145.572C108.843 145.101 109.352 144.85 109.811 145.01L125.527 150.299C127.762 151.232 131.394 154.152 129.568 158.667C129.418 159.009 129.099 159.229 128.73 159.229Z" fill="black"/>
<path d="M78.8889 174C81.727 174 84.0277 171.686 84.0277 168.832C84.0277 165.978 81.727 163.664 78.8889 163.664C76.0507 163.664 73.75 165.978 73.75 168.832C73.75 171.686 76.0507 174 78.8889 174Z" fill="black"/>
<path d="M137.801 174C140.639 174 142.94 171.686 142.94 168.832C142.94 165.978 140.639 163.664 137.801 163.664C134.963 163.664 132.662 165.978 132.662 168.832C132.662 171.686 134.963 174 137.801 174Z" fill="black"/>
<path d="M72.2637 164.036L69.9288 164.909C68.8711 165.3 67.6937 164.758 67.3045 163.695L64.9995 157.443C64.6103 156.379 65.1492 155.195 66.2069 154.804L68.5418 153.931C69.5995 153.54 70.777 154.081 71.1661 155.145L73.4711 161.397C73.8603 162.46 73.3214 163.634 72.2637 164.036Z" fill="black"/>
<path d="M137.269 36.1147C130.743 36.1147 125.445 30.7964 125.445 24.2237C125.445 22.4476 125.844 20.7718 126.532 19.2566C116.664 11.2891 104.141 6.5127 90.501 6.5127C58.6805 6.5127 32.877 32.452 32.877 64.4623C32.877 66.8405 33.0366 69.1786 33.316 71.4865C34.4735 71.1052 35.7108 70.8945 36.9979 70.8945C43.5237 70.8945 48.8221 76.2128 48.8221 82.7854C48.8221 87.9633 45.5193 92.3584 40.9194 93.9941C50.9574 111.013 69.3971 122.422 90.501 122.422C122.321 122.422 148.125 96.4726 148.125 64.4724C148.125 53.9862 145.341 44.1524 140.492 35.6631C139.464 35.9441 138.386 36.1147 137.269 36.1147ZM74.3064 107.009C70.1854 107.009 66.8527 103.657 66.8527 99.5131C66.8527 95.3688 70.1854 92.0173 74.3064 92.0173C78.4274 92.0173 81.7601 95.3688 81.7601 99.5131C81.7601 103.657 78.4274 107.009 74.3064 107.009Z" fill="#F68B38"/>
<path d="M90.5004 123.305C69.9453 123.305 50.6575 112.247 40.1504 94.4358L39.5917 93.4926L40.6194 93.1313C44.9899 91.586 47.9234 87.4216 47.9234 82.7756C47.9234 76.7147 43.0242 71.7878 36.9973 71.7878C35.8498 71.7878 34.7023 71.9684 33.5948 72.3397L32.557 72.6809L32.4273 71.5971C32.128 69.1186 31.9883 66.7906 31.9883 64.4726C31.9883 32.0208 58.2409 5.62988 90.5004 5.62988C103.951 5.62988 116.603 10.1053 127.1 18.5745L127.649 19.016L127.36 19.6482C126.691 21.1132 126.352 22.6485 126.352 24.234C126.352 30.2948 131.251 35.2218 137.278 35.2218C138.266 35.2218 139.264 35.0813 140.252 34.8004L140.92 34.6097L141.269 35.2218C146.338 44.1024 149.022 54.2173 149.022 64.4826C149.012 96.9144 122.77 123.305 90.5004 123.305ZM42.2259 94.4157C52.5234 111.153 70.9232 121.509 90.5004 121.509C121.782 121.509 147.226 95.9209 147.226 64.4625C147.226 54.7491 144.742 45.1561 140.042 36.6969C139.114 36.9076 138.186 37.018 137.268 37.018C130.253 37.018 124.556 31.2782 124.556 24.234C124.556 22.6284 124.855 21.053 125.454 19.5478C115.386 11.6105 103.322 7.42608 90.5103 7.42608C59.2287 7.42608 33.7844 33.0142 33.7844 64.4726C33.7844 66.3892 33.8841 68.3259 34.0937 70.3428C35.0516 70.112 36.0294 70.0016 37.0073 70.0016C44.022 70.0016 49.7195 75.7414 49.7195 82.7857C49.7095 87.813 46.746 92.3687 42.2259 94.4157ZM74.3058 107.912C69.7058 107.912 65.964 104.149 65.964 99.5233C65.964 94.8974 69.7058 91.1344 74.3058 91.1344C78.9057 91.1344 82.6475 94.8974 82.6475 99.5233C82.6475 104.149 78.9157 107.912 74.3058 107.912ZM74.3058 92.9206C70.6837 92.9206 67.7501 95.8808 67.7501 99.5133C67.7501 103.156 70.6937 106.106 74.3058 106.106C77.9179 106.106 80.8614 103.146 80.8614 99.5133C80.8714 95.8808 77.9279 92.9206 74.3058 92.9206Z" fill="black"/>
<path d="M147.101 36.1147C140.575 36.1147 135.277 30.7964 135.277 24.2237C135.277 22.4476 135.676 20.7718 136.364 19.2566C126.496 11.2891 113.973 6.5127 100.333 6.5127C68.5126 6.5127 42.709 32.452 42.709 64.4623C42.709 66.8405 42.8686 69.1786 43.148 71.4865C44.3055 71.1052 45.5428 70.8945 46.83 70.8945C53.3557 70.8945 58.6541 76.2128 58.6541 82.7854C58.6541 87.9633 55.3513 92.3584 50.7514 93.9941C60.7895 111.013 79.2291 122.422 100.333 122.422C132.153 122.422 157.957 96.4726 157.957 64.4724C157.957 53.9862 155.173 44.1524 150.324 35.6631C149.296 35.9441 148.218 36.1147 147.101 36.1147ZM84.1384 107.009C80.0174 107.009 76.6847 103.657 76.6847 99.5131C76.6847 95.3688 80.0174 92.0173 84.1384 92.0173C88.2594 92.0173 91.5921 95.3688 91.5921 99.5131C91.5921 103.657 88.2594 107.009 84.1384 107.009Z" fill="#FBB33B"/>
<path d="M100.332 123.305C79.7773 123.305 60.4895 112.247 49.9825 94.4358L49.4237 93.4926L50.4514 93.1313C54.8219 91.586 57.7555 87.4216 57.7555 82.7756C57.7555 76.7147 52.8562 71.7878 46.8294 71.7878C45.6819 71.7878 44.5344 71.9684 43.4268 72.3397L42.3891 72.6809L42.2593 71.5971C41.96 69.1186 41.8203 66.7906 41.8203 64.4726C41.8203 32.0208 68.0729 5.62988 100.332 5.62988C113.783 5.62988 126.435 10.1053 136.932 18.5745L137.481 19.016L137.192 19.6482C136.523 21.1132 136.184 22.6485 136.184 24.234C136.184 30.2948 141.083 35.2218 147.11 35.2218C148.098 35.2218 149.096 35.0813 150.084 34.8004L150.752 34.6097L151.101 35.2218C156.17 44.1024 158.854 54.2173 158.854 64.4826C158.844 96.9144 132.592 123.305 100.332 123.305ZM52.0579 94.4157C62.3554 111.153 80.7552 121.509 100.332 121.509C131.614 121.509 157.058 95.9209 157.058 64.4625C157.058 54.7491 154.574 45.1561 149.874 36.6969C148.946 36.9076 148.018 37.018 147.1 37.018C140.086 37.018 134.388 31.2782 134.388 24.234C134.388 22.6284 134.687 21.053 135.286 19.5478C125.218 11.6105 113.154 7.42608 100.342 7.42608C69.0608 7.42608 43.6164 33.0142 43.6164 64.4726C43.6164 66.3892 43.7162 68.3259 43.9257 70.3428C44.8836 70.112 45.8615 70.0016 46.8393 70.0016C53.854 70.0016 59.5515 75.7414 59.5515 82.7857C59.5416 87.813 56.5781 92.3687 52.0579 94.4157ZM84.1378 107.912C79.5379 107.912 75.796 104.149 75.796 99.5233C75.796 94.8974 79.5379 91.1344 84.1378 91.1344C88.7377 91.1344 92.4796 94.8974 92.4796 99.5233C92.4796 104.149 88.7377 107.912 84.1378 107.912ZM84.1378 92.9206C80.5157 92.9206 77.5821 95.8808 77.5821 99.5133C77.5821 103.156 80.5257 106.106 84.1378 106.106C87.7499 106.106 90.6935 103.146 90.6935 99.5133C90.6935 95.8808 87.7599 92.9206 84.1378 92.9206Z" fill="black"/>
<path d="M51.3329 92.8317L40.8887 93.0762L40.9307 94.8718L51.3749 94.6273L51.3329 92.8317Z" fill="black"/>
<path d="M31.6521 109.468C31.3927 108.174 30.5944 107.14 29.7562 106.167C29.3471 105.685 28.7783 105.414 28.1796 105.314C28.479 104.832 28.6586 104.26 28.6985 103.658C28.8182 101.601 27.6807 99.1926 25.4755 98.8916C25.2959 98.8715 24.9866 98.8314 24.6772 98.8214C24.5974 98.711 24.5076 98.6107 24.4378 98.5304C23.2902 97.2761 21.2646 96.8145 19.6282 97.266C18.2811 97.6373 17.6225 98.5003 17.3032 99.5639C16.1956 100.527 15.2976 101.741 14.2998 102.915C12.7531 104.752 11.875 106.377 12.1045 108.866C12.2243 110.231 13.2221 111.535 14.4694 111.947C14.2898 112.348 14.19 112.779 14.1301 113.271C13.9605 114.706 14.649 116.302 15.6867 117.265C17.0139 118.499 18.6603 118.81 20.3965 118.499C20.636 118.459 20.8555 118.369 21.0651 118.258C21.7137 119.091 22.6616 119.653 24.0586 119.713C26.1041 119.804 27.7306 118.389 28.1198 116.412C28.2295 115.86 28.2395 115.308 28.1996 114.756C28.9779 114.756 29.7662 114.465 30.3848 113.863C31.5723 112.719 31.9614 111.054 31.6521 109.468Z" fill="#F68B38"/>
<path d="M25.7545 102.424C24.7866 102.424 23.8187 102.072 23.0503 101.37C21.4039 99.8648 21.2842 97.316 22.7809 95.6603C23.3397 95.0482 36.5311 80.5783 49.5927 77.3372C51.748 76.8053 53.9233 78.1299 54.4621 80.2973C54.991 82.4648 53.6838 84.6524 51.5285 85.1942C42.6378 87.4018 32.0608 97.4264 28.738 101.109C27.9297 101.972 26.8421 102.424 25.7545 102.424Z" fill="black"/>
<path d="M19.3787 102.624C19.1492 102.624 18.9296 102.544 18.75 102.374C18.0316 101.671 15.8463 99.5238 16.7045 97.6775C17.6923 95.5301 22.0229 95.8311 22.881 95.9114C23.37 95.9616 23.7292 96.393 23.6893 96.8847C23.6394 97.3764 23.2103 97.7578 22.7114 97.6975C20.8754 97.527 18.6303 97.7778 18.3309 98.43C18.301 98.5003 18.0615 99.1826 20.0073 101.089C20.3565 101.44 20.3665 102.002 20.0272 102.364C19.8476 102.534 19.6082 102.624 19.3787 102.624Z" fill="black"/>
<path d="M26.9325 106.679C25.9247 106.679 24.6973 106.398 23.2505 105.846C22.7915 105.665 22.562 105.154 22.7316 104.692C22.9112 104.23 23.4201 104 23.8791 104.17C26.0344 104.993 27.5412 105.103 28.1399 104.501C28.9082 103.719 28.3993 101.511 28.0201 100.568C27.8405 100.106 28.06 99.5844 28.519 99.4037C28.978 99.2231 29.4969 99.4439 29.6765 99.9055C29.8362 100.317 31.1932 103.939 29.4071 105.766C28.8184 106.378 27.9902 106.679 26.9325 106.679Z" fill="black"/>
<path d="M29.436 116.262C29.1666 116.262 28.9071 116.142 28.7275 115.921C28.4182 115.529 28.488 114.967 28.8772 114.656C30.7531 113.181 31.6911 111.646 31.6512 110.101C31.5913 107.542 28.9371 105.615 28.9071 105.595C28.508 105.304 28.4082 104.752 28.6976 104.341C28.9869 103.94 29.5358 103.839 29.9449 104.13C30.0846 104.23 33.3575 106.589 33.4373 110.051C33.4872 112.198 32.3297 114.225 29.9748 116.071C29.8251 116.202 29.6355 116.262 29.436 116.262Z" fill="black"/>
<path d="M14.1103 113.924C13.9007 113.924 13.6812 113.843 13.5116 113.693C11.8053 112.138 10.9471 110.281 10.9571 108.184C10.9871 103.167 16.076 98.5809 16.2955 98.3902C16.6647 98.0591 17.2335 98.0992 17.5528 98.4705C17.8821 98.8418 17.8422 99.4138 17.473 99.7349C17.4231 99.775 12.7632 103.99 12.7432 108.204C12.7333 109.79 13.3819 111.154 14.709 112.368C15.0782 112.7 15.0981 113.271 14.7688 113.633C14.5892 113.823 14.3497 113.924 14.1103 113.924Z" fill="black"/>
<path d="M20.1387 120.006C17.6342 120.006 15.8281 119.243 14.7704 117.728C12.675 114.728 14.5409 109.981 14.6207 109.78C14.8003 109.319 15.3192 109.098 15.7782 109.279C16.2372 109.459 16.4567 109.981 16.2771 110.443C16.2572 110.483 14.7006 114.487 16.2372 116.694C16.9856 117.758 18.4225 118.26 20.5179 118.199C20.5279 118.199 20.5379 118.199 20.5479 118.199C21.0268 118.199 21.426 118.581 21.4359 119.072C21.4559 119.564 21.0667 119.986 20.5778 119.996C20.4281 120.006 20.2784 120.006 20.1387 120.006Z" fill="black"/>
<path d="M24.5459 121.188C24.486 121.188 24.4561 121.188 24.4461 121.188C22.3307 120.917 20.8739 120.044 20.0556 118.579C18.3194 115.439 20.3849 110.803 20.4747 110.612C20.6843 110.16 21.2131 109.96 21.6522 110.17C22.1012 110.371 22.3008 110.913 22.0912 111.365C22.0713 111.405 20.3151 115.378 21.6123 117.716C22.1411 118.67 23.119 119.222 24.6058 119.412C24.5758 119.412 25.5836 119.432 26.4917 118.449C27.4396 117.425 28.4574 115.128 27.9086 110C27.8587 109.508 28.2079 109.067 28.7069 109.016C29.2058 108.966 29.6348 109.318 29.6847 109.819C30.1836 114.525 29.5251 117.867 27.739 119.743C26.4418 121.098 24.935 121.188 24.5459 121.188Z" fill="black"/>
<path d="M93.306 39.918C93.286 39.948 93.286 39.938 93.306 39.918V39.918Z" fill="#F499AD"/>
<path d="M101.649 39.1144C101.459 38.8435 101.24 38.6227 100.98 38.4421C100.98 38.412 100.99 38.3819 100.98 38.3518C100.851 36.6559 99.6333 35.2109 97.8572 35.2109C96.8095 35.2109 95.7318 35.8431 95.163 36.7563C95.0034 36.8968 94.8836 37.0172 94.9335 36.967C94.5943 37.2881 94.2849 37.6594 94.0455 38.0608C93.806 38.4722 93.6463 38.9538 93.5066 39.4154C93.4068 39.7265 93.327 39.877 93.2971 39.9272C93.357 39.8369 93.5765 39.5459 94.0953 39.1646C93.1374 39.8569 92.6585 40.75 92.6186 41.6933C92.2893 41.9742 92.0199 42.3054 91.7804 42.7068C90.9123 44.1417 91.4411 46.1888 92.8979 47.0116C94.0355 47.6538 95.2029 48.0953 96.4103 48.4164C96.2008 48.6974 96.0411 49.0185 95.9713 49.3697C95.4424 49.4199 94.9235 49.46 94.3947 49.5102C94.3248 49.5102 94.255 49.5202 94.1852 49.5303C93.6364 48.9985 92.7183 48.7978 92.0199 48.9884C91.012 49.2694 90.4832 50.1625 90.3834 51.1559C90.1838 53.1427 90.3934 55.1998 91.022 57.0963C91.3513 58.0797 91.7005 59.1133 92.5587 59.7555C92.6485 59.8257 92.7583 59.8859 92.858 59.9461C93.0776 60.488 93.3969 60.9596 93.9257 61.2808C95.0832 61.9932 96.8294 62.224 98.1366 61.9129C100.032 61.4714 100.761 59.8257 101.38 58.16C102.537 55.0493 103.186 51.7379 103.375 48.4164C103.565 45.2856 103.485 41.7635 101.649 39.1144Z" fill="#F499AD"/>
<path d="M128.819 52.1801C129.218 48.9891 129.268 45.5873 128.051 42.5569C127.851 42.0652 127.532 41.6337 127.143 41.3427C127.063 41.1621 126.983 40.9714 126.903 40.7908L126.175 39.1351C125.945 38.6033 125.746 38.0614 125.396 37.5998C124.668 36.6566 123.461 36.2151 122.323 36.6967C121.385 37.0981 120.727 38.0213 120.737 39.0348C119.35 40.5399 118.312 42.3963 117.803 44.3932C117.494 44.7846 117.264 45.3264 117.284 45.8081C117.314 46.3901 117.504 46.9922 117.943 47.3936L118.392 47.7448C118.741 47.9455 119.12 48.0458 119.519 48.0559C119.549 48.0559 119.579 48.0659 119.609 48.0659C120.228 48.1562 120.836 48.2766 121.425 48.4773C121.585 48.5576 121.744 48.6479 121.894 48.7482C121.994 48.8386 122.094 48.9389 122.183 49.0392C122.213 49.0794 122.243 49.1195 122.263 49.1697C122.383 49.3804 122.533 49.561 122.702 49.7116C122.642 49.7517 122.583 49.7717 122.523 49.8219C122.213 49.9122 121.904 50.0025 121.585 50.0728C121.495 50.0929 121.056 50.2334 120.986 50.1832C121.325 50.143 121.375 50.133 121.126 50.1631C121.046 50.1731 120.976 50.1832 120.896 50.1832C120.158 50.2534 119.419 50.2334 118.681 50.1531C117.923 50.0628 117.114 50.6448 116.755 51.2669C116.336 51.9994 116.396 52.8022 116.755 53.5347C116.825 53.6652 117.015 53.9361 117.015 54.0866C116.895 53.7856 116.875 53.7455 116.965 53.9762C117.005 54.0666 117.035 54.1669 117.075 54.2572C117.214 54.6385 117.334 55.0299 117.434 55.4212C117.484 55.6219 117.524 55.8226 117.563 56.0133C117.583 56.1136 117.723 56.5351 117.663 56.6153C117.623 56.2742 117.613 56.224 117.643 56.4748C117.653 56.5752 117.663 56.6756 117.673 56.7759C117.683 56.9264 117.693 57.0769 117.703 57.2375C117.793 58.9534 117.973 60.7997 119.34 62.0139C119.36 62.0239 119.379 62.034 119.389 62.0541C119.399 62.1444 119.409 62.2447 119.419 62.2949C119.429 62.3652 119.449 62.5458 119.459 62.606C119.459 62.616 119.469 62.6361 119.469 62.6461C119.499 62.7364 119.619 62.9973 119.589 62.9271C119.559 62.8669 119.669 63.1378 119.709 63.2181C119.719 63.2281 119.729 63.2382 119.729 63.2582C119.769 63.3184 120.038 63.6596 120.078 63.7198C120.088 63.7298 120.088 63.7298 120.098 63.7399C120.248 63.9004 120.437 64.0309 120.617 64.1413C120.717 64.2115 120.856 64.2516 120.956 64.2918C121.066 64.342 121.186 64.4021 121.315 64.4322C121.395 64.4423 121.834 64.5025 121.914 64.5125C121.924 64.5125 121.934 64.5125 121.944 64.5125C121.964 64.5125 121.974 64.5125 121.994 64.5125C122.493 64.4824 122.752 64.4222 123.191 64.1914C123.201 64.1814 123.211 64.1814 123.231 64.1714C123.281 64.1413 123.65 63.8503 123.69 63.8101C123.7 63.8001 123.7 63.8001 123.71 63.7901C123.73 63.77 123.79 63.6897 123.86 63.6094C124.439 63.6395 125.027 63.4589 125.496 63.0174C125.616 62.907 125.736 62.7866 125.855 62.6762C126.354 62.2046 126.544 61.6627 126.524 61.1409C126.933 60.5489 127.232 59.8665 127.452 59.1942C127.671 58.5119 127.821 57.8094 128.061 57.1371C128.121 57.0067 128.19 56.8863 128.27 56.7659C128.31 56.7257 128.35 56.6755 128.39 56.6354C129.168 55.8928 129.248 54.5281 128.58 53.6852C128.659 53.1935 128.749 52.6918 128.819 52.1801Z" fill="#F499AD"/>
<path d="M121.345 76.314C121.275 76.023 121.145 75.7621 120.945 75.5514C120.786 75.3105 120.576 75.1098 120.317 74.9694C120.137 74.8891 119.958 74.8189 119.788 74.7386C119.389 74.6282 119 74.6282 118.6 74.7386C118.421 74.8189 118.241 74.8891 118.072 74.9694C117.732 75.17 117.473 75.441 117.273 75.7721C117.174 75.9227 117.074 76.0631 116.964 76.2137C116.804 76.4746 116.715 76.7455 116.695 77.0465C116.625 77.3476 116.645 77.6386 116.735 77.9396C116.784 78.1303 116.864 78.3008 116.974 78.4614C116.964 78.5116 116.954 78.5617 116.954 78.6119C114.34 78.6219 111.735 78.622 109.121 78.632C109.071 78.632 109.031 78.642 108.981 78.6521C108.951 78.4012 108.892 78.1503 108.792 77.9195C108.822 77.7489 108.832 77.5784 108.822 77.4078C108.802 77.2673 108.822 77.1268 108.822 76.9863C108.842 76.9161 108.852 76.8358 108.872 76.7656C108.961 76.4645 108.981 76.1635 108.912 75.8725C108.902 75.5715 108.812 75.2905 108.642 75.0396C108.502 74.7787 108.313 74.568 108.063 74.4074C107.844 74.2067 107.594 74.0763 107.305 74.006C107.105 73.9759 106.906 73.9559 106.716 73.9258C106.317 73.9258 105.938 74.0261 105.589 74.2369C105.439 74.3573 105.289 74.4677 105.14 74.5881C104.86 74.869 104.671 75.2002 104.561 75.5815C104.421 75.9829 104.371 76.4244 104.331 76.8458C104.292 77.2673 104.371 77.7088 104.441 78.1202C104.471 78.2406 104.511 78.351 104.561 78.4514C104.551 78.4915 104.551 78.5316 104.551 78.5718C104.521 78.6219 104.491 78.6821 104.451 78.7323C104.202 79.0434 103.942 79.3545 103.723 79.6856C103.403 80.1773 103.174 80.7192 102.984 81.2711C102.655 82.1942 102.525 83.2479 102.655 84.2212C102.645 84.5323 102.705 84.8233 102.845 85.0842C102.934 85.3652 103.084 85.606 103.304 85.8067C103.693 86.1981 104.321 86.4891 104.88 86.469C105.03 86.459 105.18 86.4389 105.329 86.4088C105.609 86.5493 105.918 86.6195 106.257 86.5794C106.976 86.489 107.694 86.4489 108.413 86.479C108.572 86.489 108.742 86.5091 108.902 86.5192C108.912 86.5192 108.912 86.5192 108.921 86.5192C108.941 86.5192 108.951 86.5292 108.981 86.5292C109.301 86.5894 109.61 86.6596 109.929 86.75C110.079 86.8001 110.229 86.8503 110.368 86.9005C110.408 86.9205 110.478 86.9506 110.548 86.9807C110.827 87.1212 111.097 87.2918 111.356 87.4825C111.396 87.5226 111.456 87.5728 111.506 87.623C111.626 87.7333 111.735 87.8538 111.845 87.9742C111.885 88.0143 111.905 88.0344 111.925 88.0544C111.935 88.0745 111.945 88.0946 111.975 88.1247C112.065 88.2551 112.154 88.3956 112.234 88.5361C112.314 88.6766 112.394 88.8171 112.474 88.9575C112.484 88.9776 112.544 89.098 112.584 89.1884C112.613 89.2787 112.693 89.4693 112.703 89.4994C112.773 89.6901 112.833 89.8707 112.883 90.0614C113.082 90.7236 113.222 91.406 113.322 92.0883C113.332 92.1485 113.332 92.1686 113.332 92.1787L113.352 92.3292C113.382 92.58 113.402 92.8209 113.422 93.0717C113.452 93.4831 113.482 93.8945 113.492 94.316C113.522 95.2291 113.492 96.1423 113.412 97.0454C113.322 98.2194 114.509 99.3433 115.647 99.2932C116.525 99.253 117.194 98.8015 117.563 98.1191C117.742 98.1191 117.922 98.099 118.082 98.0489C118.62 97.8682 119.139 97.5371 119.419 97.0153C119.708 96.4634 119.768 95.9015 119.648 95.2894C119.618 95.1589 119.598 95.0285 119.578 94.898C119.818 94.5468 119.958 94.1153 119.997 93.6437C120.157 91.2555 120.327 88.8572 120.486 86.469C120.506 86.1479 120.427 85.8368 120.297 85.5458C120.626 83.4586 120.965 81.3814 121.295 79.2943C121.374 78.7725 121.374 78.2908 121.185 77.8192C121.275 77.6185 121.345 77.4178 121.355 77.197C121.444 76.906 121.434 76.615 121.345 76.314Z" fill="#F499AD"/>
<path d="M108.322 44.7046C108.312 44.6143 108.292 44.524 108.272 44.4336C107.973 42.7579 107.544 41.1122 106.955 39.4967C106.776 39.005 106.456 38.6839 106.077 38.4932C105.099 36.9579 103.812 35.6032 102.295 34.5697C101.517 34.0479 100.28 34.389 99.8506 35.2119C99.3716 36.115 99.661 37.1084 100.489 37.6704C100.589 37.7406 100.699 37.8108 100.798 37.8811C100.808 37.8911 100.858 37.9313 100.898 37.9614C100.958 38.0115 101.058 38.0918 101.078 38.1119C101.158 38.1721 101.228 38.2423 101.307 38.3126C101.637 38.6136 101.956 38.9347 102.255 39.2659C102.335 39.3562 102.415 39.4565 102.495 39.5468C102.505 39.5569 102.555 39.617 102.585 39.6572C102.635 39.7174 102.704 39.8178 102.714 39.8378C102.774 39.9181 102.824 39.9984 102.884 40.0887C103.143 40.48 103.383 40.8914 103.602 41.3229C103.692 41.5035 103.782 41.6942 103.862 41.8849C103.872 41.8949 103.872 41.9049 103.882 41.925C103.922 42.0454 103.972 42.1558 104.012 42.2762C104.161 42.6977 104.281 43.1292 104.381 43.5707C104.431 43.7915 104.471 44.0122 104.51 44.233C104.51 44.243 104.51 44.243 104.51 44.2631C104.52 44.3634 104.53 44.4738 104.54 44.5741C104.58 45.0458 104.59 45.5174 104.57 45.999C104.56 46.29 104.64 46.561 104.78 46.8219C104.75 48.9592 104.61 51.0966 104.012 53.1637C103.253 55.7527 101.707 58.0104 100.22 60.228C99.9603 60.6194 99.9204 61.091 100.03 61.5326C98.8527 62.7869 100.489 65.1952 102.335 64.2519C106.097 62.3353 107.833 58.0807 108.422 54.0969C108.871 50.9662 108.841 47.8053 108.322 44.7046Z" fill="#F68B38"/>
<path d="M133.758 46.7412C133.708 46.4904 133.628 46.2395 133.569 45.9886C133.718 45.7277 133.808 45.4367 133.798 45.1156C133.648 41.2423 131.403 37.5195 127.941 35.7333C127.113 35.3018 125.965 35.4925 125.496 36.3755C125.067 37.1984 125.247 38.3724 126.135 38.834C126.474 39.0146 126.803 39.2053 127.123 39.426C127.192 39.4762 127.262 39.5264 127.332 39.5765C127.472 39.697 127.612 39.8073 127.751 39.9378C127.871 40.0482 127.971 40.1686 128.071 40.279C128.041 40.5098 128.051 40.7406 128.13 40.9714C128.859 43.0887 129.737 45.226 130.236 47.4135C130.046 47.7045 129.936 48.0457 129.917 48.407C129.767 50.6447 129.707 52.9125 129.248 55.1201C128.789 57.2675 128.061 59.3246 127.033 61.2512C126.584 62.1042 126.823 63.2079 127.671 63.7097C128.16 64.0007 128.779 64.0107 129.298 63.79C130.116 63.8 130.745 63.2882 131.064 62.4854C131.792 60.6291 132.561 58.7827 133.259 56.9163C133.519 56.2139 133.668 55.4813 133.758 54.7287C133.888 54.4779 133.978 54.207 133.998 53.9159C134.137 51.5177 134.237 49.1094 133.758 46.7412Z" fill="#F68B38"/>
<path d="M112.003 89.6095C110.117 87.0407 106.994 86.7196 104.05 86.8099C103.112 86.84 102.224 87.6127 102.264 88.6061C102.274 88.9372 102.384 89.2483 102.543 89.5293C101.705 92.0379 102.683 94.8075 104.389 96.694C106.146 98.6407 108.72 99.6341 111.165 100.367C112.222 100.688 113.5 99.7947 113.43 98.6306C113.24 95.5902 113.939 92.2587 112.003 89.6095Z" fill="#F68B38"/>
<path d="M101.408 65.9963L100.849 64.2904C104.83 62.9659 107.944 57.0154 108.243 50.1417C108.423 46.1178 107.644 42.2947 106.058 39.3947C104.551 36.6352 102.505 35.0698 100.29 34.9694C100.22 34.9694 100.15 34.9694 100.081 34.9694C96.3387 34.9694 92.8164 39.3043 91.5392 45.4555C92.098 45.6964 93.2654 46.0375 94.0836 46.2784C96.8377 47.0811 98.2247 47.4825 98.1249 48.6466C98.0451 49.5998 97.4763 49.6299 93.7743 49.8507C92.9162 49.9009 91.7188 49.9711 91.0303 50.0413C91.0303 50.2822 91.0203 50.523 91.0303 50.7638C91.0802 54.868 92.1578 58.7212 93.9839 61.3302L92.527 62.3638C90.4914 59.4638 89.294 55.2493 89.2441 50.7839C89.2342 50.2922 89.2442 49.8005 89.2641 49.2988C89.304 48.3054 89.8927 48.2753 93.6646 48.0545C93.6945 48.0545 93.7145 48.0545 93.7444 48.0545C93.6845 48.0344 93.6346 48.0244 93.5847 48.0043C90.8407 47.2016 89.4637 46.8002 89.6832 45.6061C91.0901 38.0701 95.4507 32.9525 100.37 33.1833C103.224 33.3037 105.808 35.2103 107.624 38.5417C109.36 41.7227 110.219 45.877 110.029 50.232C109.69 57.9386 106.147 64.4209 101.408 65.9963Z" fill="black"/>
<path d="M99.054 63.6684L97.8965 62.3037C100.81 59.805 102.756 54.8981 102.995 49.5096C103.275 43.0272 100.99 37.0868 97.4375 35.0498L98.3156 33.4844C102.497 35.8726 105.091 42.3449 104.782 49.5798C104.512 55.4601 102.327 60.8587 99.054 63.6684Z" fill="black"/>
<path d="M106.298 30.4944C106.049 30.4944 105.789 30.384 105.619 30.1733C104.382 28.7082 102.925 27.8954 101.429 27.8252C99.7722 27.765 98.1557 28.5577 96.6988 30.1532C96.3695 30.5144 95.8008 30.5445 95.4416 30.2134C95.0823 29.8823 95.0524 29.3103 95.3817 28.949C97.2077 26.9522 99.3032 25.9387 101.508 26.039C103.524 26.1293 105.42 27.1529 106.987 29.0193C107.306 29.4006 107.256 29.9625 106.887 30.2836C106.707 30.4241 106.508 30.4944 106.298 30.4944Z" fill="black"/>
<path d="M131.411 32.1592C131.162 32.1592 130.902 32.0488 130.733 31.8381C129.495 30.373 128.039 29.5602 126.542 29.49C124.885 29.4298 123.269 30.2225 121.812 31.818C121.483 32.1792 120.914 32.2093 120.555 31.8782C120.196 31.5471 120.166 30.9751 120.495 30.6139C122.321 28.617 124.426 27.6135 126.622 27.7038C128.637 27.7942 130.533 28.8177 132.1 30.6841C132.419 31.0654 132.369 31.6273 132 31.9484C131.82 32.0889 131.611 32.1592 131.411 32.1592Z" fill="black"/>
<path d="M120.647 65.9069C117.284 63.2578 115.228 57.7086 115.278 51.4471C115.278 51.1159 115.288 50.7948 115.308 50.4637C115.358 49.4101 116.336 49.3298 119.589 49.0589C119.669 49.0488 119.749 49.0488 119.838 49.0388C119.739 49.0087 119.639 48.9786 119.539 48.9485C116.785 48.1457 115.528 47.7744 115.747 46.6305C117.144 39.1748 121.395 34.0873 126.145 34.3181C131.812 34.569 135.933 42.0547 135.534 51.3468C135.295 56.7755 133.469 61.7927 130.655 64.7529L129.368 63.5086C131.892 60.8495 133.539 56.2737 133.758 51.2564C134.117 43.0983 130.665 36.3049 126.075 36.0942C122.423 35.9437 118.91 40.2485 117.613 46.4298C118.172 46.6606 119.27 46.9817 120.048 47.2125C122.812 48.0253 124.079 48.3866 123.959 49.5004C123.86 50.4938 122.902 50.5741 119.739 50.835C118.89 50.9052 117.713 51.0056 117.074 51.1059C117.074 51.2163 117.074 51.3367 117.064 51.4471C117.014 57.0865 118.85 62.2042 121.744 64.482L120.647 65.9069Z" fill="black"/>
<path d="M125.524 64.5407L124.237 63.2965C126.762 60.6373 128.398 56.0615 128.628 51.0442C128.917 44.4214 126.642 38.4408 123.1 36.5041L123.958 34.9287C128.149 37.2166 130.743 43.729 130.424 51.1245C130.174 56.5532 128.348 61.5705 125.524 64.5407Z" fill="black"/>
<path d="M94.4137 86.4965C93.9647 86.4965 93.5756 86.1553 93.5257 85.6937C93.4658 85.202 93.825 84.7605 94.3139 84.7003C99.7322 84.0882 103.843 79.6529 104.093 74.164C104.362 68.053 99.6324 62.8651 93.5556 62.5942C90.8914 62.4838 88.2771 63.3267 86.2016 65.0025C85.8124 65.3135 85.2536 65.2433 84.9443 64.862C84.635 64.4706 84.7048 63.9087 85.084 63.5976C87.4987 61.661 90.5521 60.6675 93.6354 60.808C100.7 61.1191 106.188 67.1499 105.879 74.2543C105.599 80.6363 100.82 85.7841 94.5135 86.4965C94.4836 86.4865 94.4537 86.4965 94.4137 86.4965Z" fill="black"/>
<path d="M127.573 87.8707C127.114 87.8707 126.714 87.5095 126.684 87.0378C126.645 86.5461 127.014 86.1147 127.503 86.0745C132.861 85.6631 137.082 81.268 137.321 75.8593C137.441 72.9995 136.453 70.2601 134.537 68.1528C132.612 66.0455 129.987 64.8113 127.143 64.6808C124.409 64.5604 121.765 65.4836 119.69 67.2898C119.32 67.6209 118.752 67.5808 118.432 67.1995C118.113 66.8282 118.153 66.2562 118.522 65.9351C120.937 63.8279 124.02 62.7542 127.223 62.8846C130.546 63.0352 133.609 64.4701 135.855 66.9386C138.1 69.4071 139.257 72.5981 139.107 75.9396C138.828 82.2513 133.899 87.379 127.642 87.8707C127.622 87.8707 127.602 87.8707 127.573 87.8707Z" fill="black"/>
<path d="M113.941 72.337C113.781 72.337 113.631 72.3371 113.472 72.327C111.775 72.2568 110.179 71.7751 108.981 70.9924C107.644 70.1094 106.936 68.9353 106.996 67.681C107.046 66.4267 107.854 65.3229 109.261 64.5602C110.518 63.8779 112.145 63.5468 113.851 63.627C115.557 63.7073 117.144 64.1789 118.341 64.9616C119.678 65.8447 120.387 67.0187 120.327 68.273C120.277 69.5274 119.469 70.6312 118.062 71.3938C116.924 72.0059 115.477 72.337 113.941 72.337ZM113.392 65.4031C112.164 65.4031 110.987 65.6641 110.109 66.1357C109.291 66.5772 108.802 67.1692 108.782 67.7512C108.752 68.3332 109.191 68.9654 109.969 69.4772C110.887 70.0793 112.194 70.4606 113.561 70.5208C114.928 70.581 116.266 70.3201 117.233 69.7983C118.052 69.3568 118.541 68.7647 118.561 68.1827C118.591 67.6007 118.151 66.9686 117.373 66.4568C116.455 65.8547 115.148 65.4734 113.781 65.4132C113.641 65.4132 113.522 65.4031 113.392 65.4031Z" fill="black"/>
<path d="M114.549 76.0618C108.972 76.0618 104.88 73.8843 104.611 73.7438C104.182 73.503 104.012 72.9612 104.252 72.5297C104.481 72.0982 105.02 71.9276 105.459 72.1684C105.549 72.2186 114.969 77.1757 124.348 71.5262C124.767 71.2753 125.316 71.4058 125.576 71.8373C125.825 72.2587 125.695 72.8106 125.266 73.0715C121.504 75.3394 117.782 76.0618 114.549 76.0618Z" fill="black"/>
<path d="M111.248 108.13C111.048 108.13 110.848 108.13 110.649 108.12C107.077 107.959 104.193 106.504 103.474 104.487C103.305 104.015 103.544 103.504 104.013 103.333C104.472 103.163 104.991 103.403 105.161 103.875C105.56 104.969 107.745 106.193 110.739 106.323C113.752 106.464 116.037 105.43 116.516 104.357C116.716 103.905 117.245 103.694 117.694 103.895C118.143 104.096 118.352 104.628 118.153 105.079C117.314 106.915 114.53 108.13 111.248 108.13Z" fill="black"/>
<path d="M111.397 101.397C111.247 101.397 111.098 101.397 110.948 101.387C105.32 101.136 100.95 96.3296 101.189 90.6801L101.608 80.9767C101.628 80.485 102.057 80.0937 102.536 80.1238C103.025 80.1438 103.414 80.5653 103.384 81.057L102.965 90.7604C102.766 95.4265 106.368 99.3901 111.018 99.6009C113.263 99.6912 115.418 98.9085 117.075 97.3832C118.731 95.858 119.699 93.7708 119.799 91.503L120.567 73.8321C120.587 73.3404 121.016 72.9491 121.495 72.9792C121.984 72.9992 122.373 73.4207 122.343 73.9124L121.575 91.5832C121.355 97.0822 116.825 101.397 111.397 101.397Z" fill="black"/>
<path d="M116.903 79.4626C116.893 79.4626 116.873 79.4626 116.863 79.4626L109.289 79.1315C108.8 79.1114 108.411 78.69 108.441 78.1983L108.601 74.5557C108.621 74.064 109.05 73.6727 109.529 73.7028C110.018 73.7229 110.407 74.1443 110.377 74.636L110.257 77.3755L116.045 77.6363L116.124 75.7398C116.144 75.2481 116.573 74.8467 117.052 74.8869C117.541 74.9069 117.93 75.3284 117.901 75.8201L117.781 78.6097C117.771 79.0913 117.382 79.4626 116.903 79.4626Z" fill="black"/>
<path d="M113.479 101.157C113.439 101.157 113.399 101.157 113.349 101.147C112.86 101.077 112.521 100.625 112.591 100.134C113.868 91.0925 110.565 88.5838 110.535 88.5537C107.173 86.2859 102.543 87.6306 102.503 87.6506C102.024 87.7911 101.535 87.5202 101.395 87.0486C101.255 86.5769 101.515 86.0752 101.994 85.9347C102.213 85.8645 107.462 84.3191 111.553 87.0787C111.733 87.1991 115.814 90.0991 114.367 100.385C114.297 100.836 113.918 101.157 113.479 101.157Z" fill="black"/>
<path d="M82.6605 109.176C87.7305 109.176 91.8406 105.042 91.8406 99.9437C91.8406 94.8451 87.7305 90.7119 82.6605 90.7119C77.5905 90.7119 73.4805 94.8451 73.4805 99.9437C73.4805 105.042 77.5905 109.176 82.6605 109.176Z" fill="#F499AD"/>
<path d="M82.6693 110.078C79.7457 110.078 76.832 108.804 74.8463 106.345C71.3439 102.01 71.9925 95.6185 76.3032 92.0963C80.6138 88.5742 86.97 89.2264 90.4724 93.5614C92.1687 95.6586 92.957 98.2977 92.6776 100.987C92.4082 103.676 91.101 106.105 89.0155 107.81C87.1496 109.336 84.9045 110.078 82.6693 110.078ZM82.6494 91.6147C80.8134 91.6147 78.9574 92.2268 77.4207 93.4811C73.8784 96.3811 73.3396 101.639 76.2233 105.201C79.1071 108.764 84.3357 109.306 87.888 106.406C91.4303 103.506 91.9691 98.2475 89.0854 94.6853C87.449 92.6683 85.0542 91.6147 82.6494 91.6147Z" fill="#1D1D1B"/>
<path d="M88.4602 107.109C88.3404 107.21 88.051 107.491 88.081 107.35C89.6276 101.64 83.0818 93.9037 76.4862 93.1912C76.3065 93.1712 76.7157 92.9103 76.8653 92.7899C80.7968 89.5688 86.5842 90.1708 89.7773 94.1244C92.9804 98.0781 92.3916 103.888 88.4602 107.109Z" fill="#F68B38"/>
<path d="M88.0776 108.292C87.9279 108.292 87.7683 108.252 87.6086 108.152L87.0498 107.8L87.2195 107.118C87.7683 105.091 87.1397 102.532 85.4932 100.104C83.2581 96.8126 79.6858 94.4444 76.383 94.0932L75.7743 94.023L75.5648 93.4108C75.3852 92.7686 75.8941 92.3873 76.1934 92.1666L76.2832 92.0963C80.5939 88.5742 86.9501 89.2264 90.4525 93.5614C93.9549 97.8963 93.3063 104.288 88.9956 107.81L88.9258 107.871C88.7761 108.021 88.4668 108.292 88.0776 108.292ZM78.5583 92.7084C81.7414 93.6617 84.8945 96.0198 86.98 99.0904C88.3371 101.097 89.0954 103.154 89.1952 105.081C91.5202 102.091 91.57 97.7558 89.0854 94.6953C86.4911 91.4842 82.0108 90.7216 78.5583 92.7084Z" fill="black"/>
<path d="M63.8592 52.0514C67.3972 52.0514 70.2653 49.1671 70.2653 45.6092C70.2653 42.0513 67.3972 39.167 63.8592 39.167C60.3212 39.167 57.4531 42.0513 57.4531 45.6092C57.4531 49.1671 60.3212 52.0514 63.8592 52.0514Z" fill="#F499AD"/>
<path d="M63.8504 52.9532C62.3736 52.9532 60.9267 52.5017 59.6794 51.6287C58.0829 50.5048 57.0152 48.819 56.666 46.8924C56.3267 44.9657 56.7558 43.009 57.8733 41.4035C60.1783 38.082 64.7384 37.2692 68.0413 39.5872C71.3441 41.9052 72.1523 46.491 69.8474 49.8124C68.7298 51.418 67.0534 52.4916 65.1376 52.8429C64.7085 52.9131 64.2794 52.9532 63.8504 52.9532ZM63.8703 40.0588C62.1241 40.0588 60.4078 40.8816 59.3402 42.427C58.492 43.6411 58.1727 45.1162 58.4321 46.5712C58.6916 48.0263 59.4998 49.3007 60.7072 50.1536C61.9146 51.0065 63.3814 51.3276 64.8283 51.0667C66.2751 50.8058 67.5424 49.993 68.3905 48.7789C69.2387 47.5647 69.558 46.0896 69.2985 44.6346C69.0391 43.1796 68.2309 41.9052 67.0235 41.0522C66.0556 40.39 64.958 40.0588 63.8703 40.0588Z" fill="#1D1D1B"/>
<path d="M60.1865 50.8968C60.0967 50.8366 59.8472 50.6961 59.947 50.6861C64.0581 50.6359 67.9696 44.7356 67.1813 40.1397C67.1613 40.0093 67.4108 40.2401 67.5205 40.3203C70.4242 42.3574 71.1327 46.3812 69.1071 49.3013C67.0915 52.2213 63.0902 52.9338 60.1865 50.8968Z" fill="#F68B38"/>
<path d="M63.849 52.9541C62.3722 52.9541 60.9254 52.5026 59.6781 51.6296L59.9575 51.2182V51.178L59.6382 51.5995C59.4486 51.4791 58.8798 51.1078 59.0694 50.4455L59.249 49.8033L59.9375 49.7932C61.3145 49.7732 62.8312 48.9002 64.0885 47.385C65.8148 45.3078 66.6829 42.5282 66.2937 40.3006L66.1939 39.6985L66.7228 39.3473C67.2816 39.0061 67.7705 39.3874 67.9801 39.558C71.3328 41.9161 72.141 46.5019 69.836 49.8233C68.7185 51.4289 67.0421 52.5026 65.1263 52.8538C64.7072 52.914 64.2781 52.9541 63.849 52.9541ZM62.462 50.9773C63.2304 51.178 64.0286 51.2182 64.8269 51.0677C66.2738 50.8068 67.541 49.994 68.3892 48.7798C69.8261 46.7127 69.6564 43.9832 68.1497 42.1068C67.9701 44.3144 67.0122 46.6625 65.4755 48.5189C64.5575 49.6327 63.5297 50.4656 62.462 50.9773Z" fill="black"/>
<path d="M91.5499 68.9271C92.1836 68.9271 92.6974 68.4104 92.6974 67.7731C92.6974 67.1358 92.1836 66.6191 91.5499 66.6191C90.9161 66.6191 90.4023 67.1358 90.4023 67.7731C90.4023 68.4104 90.9161 68.9271 91.5499 68.9271Z" fill="black"/>
<path d="M98.2256 70.181C98.8594 70.181 99.3731 69.6643 99.3731 69.027C99.3731 68.3897 98.8594 67.873 98.2256 67.873C97.5919 67.873 97.0781 68.3897 97.0781 69.027C97.0781 69.6643 97.5919 70.181 98.2256 70.181Z" fill="black"/>
<path d="M94.1436 74.5472C94.7773 74.5472 95.2911 74.0306 95.2911 73.3933C95.2911 72.7559 94.7773 72.2393 94.1436 72.2393C93.5098 72.2393 92.9961 72.7559 92.9961 73.3933C92.9961 74.0306 93.5098 74.5472 94.1436 74.5472Z" fill="black"/>
<path d="M125.745 70.4818C126.379 70.4818 126.893 69.9651 126.893 69.3278C126.893 68.6905 126.379 68.1738 125.745 68.1738C125.111 68.1738 124.598 68.6905 124.598 69.3278C124.598 69.9651 125.111 70.4818 125.745 70.4818Z" fill="black"/>
<path d="M132.489 71.306C133.123 71.306 133.637 70.7893 133.637 70.152C133.637 69.5147 133.123 68.998 132.489 68.998C131.856 68.998 131.342 69.5147 131.342 70.152C131.342 70.7893 131.856 71.306 132.489 71.306Z" fill="black"/>
<path d="M128.698 75.932C129.332 75.932 129.846 75.4153 129.846 74.778C129.846 74.1407 129.332 73.624 128.698 73.624C128.065 73.624 127.551 74.1407 127.551 74.778C127.551 75.4153 128.065 75.932 128.698 75.932Z" fill="black"/>
<path d="M61.7859 28.5992C64.1831 28.5992 66.1265 26.6449 66.1265 24.2342C66.1265 21.8234 64.1831 19.8691 61.7859 19.8691C59.3887 19.8691 57.4453 21.8234 57.4453 24.2342C57.4453 26.6449 59.3887 28.5992 61.7859 28.5992Z" fill="#F68B38"/>
<path d="M61.7853 29.4908C58.9016 29.4908 56.5566 27.1327 56.5566 24.2327C56.5566 21.3327 58.9016 18.9746 61.7853 18.9746C64.669 18.9746 67.0139 21.3327 67.0139 24.2327C67.0139 27.1327 64.669 29.4908 61.7853 29.4908ZM61.7853 20.7708C59.8894 20.7708 58.3428 22.3261 58.3428 24.2327C58.3428 26.1393 59.8894 27.6947 61.7853 27.6947C63.6812 27.6947 65.2278 26.1393 65.2278 24.2327C65.2278 22.3261 63.6812 20.7708 61.7853 20.7708Z" fill="black"/>
<path d="M167.665 19.4473H164.053V6.32212C164.053 6.24185 164.133 6.18164 164.242 6.18164H167.475C167.575 6.18164 167.665 6.24185 167.665 6.32212V19.4473Z" fill="#FBB33B"/>
<path d="M168.553 20.349H163.154V6.32067C163.154 5.73866 163.633 5.28711 164.242 5.28711H167.475C168.074 5.28711 168.553 5.7487 168.553 6.32067V20.349ZM164.94 18.5528H166.766V7.08329H164.94V18.5528Z" fill="#1D1D1B"/>
<path d="M171.276 21.3722H167.664V3.04906C167.664 2.94871 167.744 2.8584 167.854 2.8584H171.087C171.186 2.8584 171.276 2.94871 171.276 3.04906V21.3722Z" fill="#FBB33B"/>
<path d="M172.174 22.2761H166.775V3.04983C166.775 2.44776 167.264 1.95605 167.853 1.95605H171.086C171.685 1.95605 172.164 2.44776 172.164 3.04983V22.2761H172.174ZM168.552 20.4799H170.378V3.75225H168.552V20.4799Z" fill="#1D1D1B"/>
<path d="M175.235 0.90332H171.982C171.883 0.90332 171.803 0.98359 171.803 1.08394V25.0064H175.415V1.08394C175.415 0.98359 175.335 0.90332 175.235 0.90332Z" fill="#FBB33B"/>
<path d="M176.314 25.8992H170.916V1.07371C170.916 0.481667 171.395 0 171.994 0H175.247C175.835 0 176.324 0.481667 176.324 1.07371V25.8992H176.314ZM172.692 24.103H174.518V1.7962H172.692V24.103Z" fill="#1D1D1B"/>
<path d="M179.03 27.6752H175.418V3.03024C175.418 2.92989 175.498 2.84961 175.608 2.84961H178.841C178.94 2.84961 179.03 2.92989 179.03 3.03024V27.6752Z" fill="#FBB33B"/>
<path d="M179.926 28.5677H174.527V3.02976C174.527 2.43772 175.016 1.95605 175.605 1.95605H178.838C179.437 1.95605 179.916 2.43772 179.916 3.02976V28.5677H179.926ZM176.313 26.7715H178.14V3.75225H176.313V26.7715Z" fill="#1D1D1B"/>
<path d="M182.651 22.9692H179.039V6.36199C179.039 6.27168 179.129 6.19141 179.229 6.19141H182.462C182.561 6.19141 182.651 6.27168 182.651 6.36199V22.9692Z" fill="#FBB33B"/>
<path d="M183.539 23.8611H178.141V6.3608C178.141 5.76876 178.63 5.28711 179.218 5.28711H182.451C183.05 5.28711 183.529 5.76876 183.529 6.3608V23.8611H183.539ZM179.927 22.0649H181.753V7.08329H179.927V22.0649Z" fill="#1D1D1B"/>
<path d="M185.064 14.4083L181.462 28.4165L181.153 29.6206C181.023 30.1424 180.564 30.5037 180.035 30.5037H166.854C166.325 30.5037 165.866 30.1424 165.736 29.6206L161.835 14.4083C161.645 13.6557 162.194 12.9131 162.952 12.9131H168.181C168.271 12.9131 168.34 12.9934 168.34 13.0837C168.34 15.9736 170.626 18.3117 173.439 18.3117C176.253 18.3117 178.538 15.9736 178.538 13.0837C178.538 12.9934 178.608 12.9131 178.698 12.9131H183.927C184.705 12.9231 185.254 13.6557 185.064 14.4083Z" fill="#F499AD"/>
<path d="M180.035 31.4075H166.854C165.916 31.4075 165.108 30.7653 164.868 29.8522L160.967 14.6398C160.807 14.0076 160.937 13.3453 161.336 12.8235C161.725 12.3118 162.314 12.0208 162.953 12.0208H168.181C168.76 12.0208 169.239 12.5024 169.239 13.0844C169.239 15.4727 171.125 17.4194 173.45 17.4194C175.765 17.4194 177.661 15.4727 177.661 13.0844C177.661 12.4924 178.14 12.0107 178.718 12.0107H183.947C184.586 12.0107 185.174 12.3017 185.563 12.8135C185.963 13.3253 186.092 13.9876 185.933 14.6298L182.031 29.8422C181.782 30.7653 180.973 31.4075 180.035 31.4075ZM162.953 13.817C162.853 13.817 162.783 13.8772 162.753 13.9173C162.723 13.9574 162.663 14.0578 162.703 14.1782L166.605 29.3906C166.635 29.511 166.744 29.6013 166.864 29.6013H180.045C180.165 29.6013 180.265 29.511 180.295 29.3906L184.196 14.1782C184.226 14.0478 184.176 13.9574 184.147 13.9173C184.107 13.8671 184.047 13.817 183.947 13.817H179.407C179.058 16.8574 176.523 19.2256 173.46 19.2256C170.396 19.2256 167.862 16.8574 167.513 13.817H162.953Z" fill="#1D1D1B"/>
<path d="M113.171 79.3031C112.683 79.3031 112.273 78.9017 112.273 78.4V75.9315C112.273 75.4398 112.673 75.0283 113.171 75.0283C113.66 75.0283 114.07 75.4297 114.07 75.9315V78.4C114.07 78.9017 113.67 79.3031 113.171 79.3031Z" fill="black"/>
</svg>
