<svg width="32" height="32" viewBox="0 0 32 32" fill="none" xmlns="http://www.w3.org/2000/svg">
<path d="M31.5 16C31.5 24.5604 24.5604 31.5 16 31.5C7.43959 31.5 0.5 24.5604 0.5 16C0.5 7.43959 7.43959 0.5 16 0.5C24.5604 0.5 31.5 7.43959 31.5 16Z" fill="#26A17B" stroke="#171717"/>
<path fill-rule="evenodd" clip-rule="evenodd" d="M17.9228 17.3824V17.3804C17.8128 17.3884 17.2458 17.4224 15.9808 17.4224C14.9708 17.4224 14.2598 17.3924 14.0098 17.3804V17.3834C10.1218 17.2124 7.21978 16.5354 7.21978 15.7254C7.21978 14.9164 10.1218 14.2394 14.0098 14.0654V16.7094C14.2638 16.7274 14.9918 16.7704 15.9978 16.7704C17.2048 16.7704 17.8098 16.7204 17.9228 16.7104V14.0674C21.8028 14.2404 24.6978 14.9174 24.6978 15.7254C24.6978 16.5354 21.8028 17.2104 17.9228 17.3824ZM17.9228 13.7924V11.4264H23.3368V7.81836H8.59578V11.4264H14.0098V13.7914C9.60978 13.9934 6.30078 14.8654 6.30078 15.9094C6.30078 16.9534 9.60978 17.8244 14.0098 18.0274V25.6094H17.9228V18.0254C22.3158 17.8234 25.6168 16.9524 25.6168 15.9094C25.6168 14.8664 22.3158 13.9954 17.9228 13.7924Z" fill="white"/>
</svg>
