<svg width="322" height="298" viewBox="0 0 322 298" fill="none" xmlns="http://www.w3.org/2000/svg">
<path d="M17.2594 281H321L306.773 297.25H1V16.0122L17.2594 1V281Z" fill="#FBB33B"/>
<rect x="17" y="1" width="304" height="280" fill="white"/>
<path d="M17.2717 1H321V64.7812M17.2717 1L1 16.0312V79.8125M17.2717 1V64.7812M321 281L306.762 297.25H1M321 281H17.2717M321 281V64.7812M1 297.25L17.2717 281M1 297.25V235.5V79.8125M17.2717 281V64.7812M17.2717 64.7812H321M17.2717 64.7812L1 79.8125" stroke="#171717"/>
<path d="M55.2012 212.082H305.355" stroke="black" stroke-opacity="0.2" stroke-width="0.5" stroke-miterlimit="10"/>
<path d="M124.043 238.896L124.043 98.8105" stroke="black" stroke-opacity="0.2" stroke-width="0.5" stroke-miterlimit="10"/>
<path d="M195.285 238.896L195.285 98.8105" stroke="black" stroke-opacity="0.2" stroke-width="0.5" stroke-miterlimit="10"/>
<path d="M266.531 238.896L266.531 98.8105" stroke="black" stroke-opacity="0.2" stroke-width="0.5" stroke-miterlimit="10"/>
<path d="M55.2012 183.664L305.355 183.664" stroke="black" stroke-opacity="0.2" stroke-width="0.5" stroke-miterlimit="10"/>
<path d="M55.2012 155.246L305.355 155.246" stroke="black" stroke-opacity="0.2" stroke-width="0.5" stroke-miterlimit="10"/>
<path d="M55.2012 126.826L305.355 126.826" stroke="black" stroke-opacity="0.2" stroke-width="0.5" stroke-miterlimit="10"/>
<path d="M53.5996 98.8105H304.153" stroke="black" stroke-opacity="0.2" stroke-width="0.5" stroke-miterlimit="10"/>
<path fill-rule="evenodd" clip-rule="evenodd" d="M48 104.724L53.801 98.8105L59.6071 104.724L57.775 106.591L55.0996 103.865V238.903H305.488L302.752 236.227L304.626 234.395L310.562 240.196L304.626 246.002L302.752 244.17L305.488 241.495H55.0996V241.498H52.5075V103.865L49.8322 106.591L48 104.724Z" fill="#F68B38"/>
<path d="M53.801 98.8105L53.9794 98.6354L53.8009 98.4536L53.6225 98.6355L53.801 98.8105ZM48 104.724L47.8215 104.549L47.6498 104.724L47.8216 104.9L48 104.724ZM59.6071 104.724L59.7856 104.9L59.9574 104.724L59.7855 104.549L59.6071 104.724ZM57.775 106.591L57.5965 106.766L57.775 106.948L57.9534 106.767L57.775 106.591ZM55.0996 103.865L55.278 103.69L54.8496 103.253V103.865H55.0996ZM55.0996 238.903H54.8496V239.153H55.0996V238.903ZM305.488 238.903V239.153H306.102L305.663 238.724L305.488 238.903ZM302.752 236.227L302.577 236.048L302.394 236.227L302.577 236.406L302.752 236.227ZM304.626 234.395L304.8 234.216L304.626 234.046L304.451 234.216L304.626 234.395ZM310.562 240.196L310.736 240.375L310.919 240.196L310.736 240.017L310.562 240.196ZM304.626 246.002L304.451 246.181L304.626 246.352L304.801 246.181L304.626 246.002ZM302.752 244.17L302.577 243.991L302.394 244.17L302.577 244.349L302.752 244.17ZM305.488 241.495L305.663 241.673L306.102 241.245H305.488V241.495ZM55.0996 241.495V241.245H54.8496V241.495H55.0996ZM55.0996 241.498V241.748H55.3496V241.498H55.0996ZM52.5075 241.498H52.2575V241.748H52.5075V241.498ZM52.5075 103.865H52.7575V103.253L52.3291 103.69L52.5075 103.865ZM49.8322 106.591L49.6537 106.767L49.8322 106.948L50.0106 106.766L49.8322 106.591ZM53.6225 98.6355L47.8215 104.549L48.1785 104.9L53.9794 98.9856L53.6225 98.6355ZM59.7855 104.549L53.9794 98.6354L53.6226 98.9857L59.4287 104.9L59.7855 104.549ZM57.9534 106.767L59.7856 104.9L59.4287 104.549L57.5965 106.416L57.9534 106.767ZM54.9212 104.04L57.5965 106.766L57.9534 106.416L55.278 103.69L54.9212 104.04ZM55.3496 238.903V103.865H54.8496V238.903H55.3496ZM305.488 238.653H55.0996V239.153H305.488V238.653ZM302.577 236.406L305.313 239.081L305.663 238.724L302.927 236.048L302.577 236.406ZM304.451 234.216L302.577 236.048L302.927 236.406L304.8 234.574L304.451 234.216ZM310.736 240.017L304.8 234.216L304.451 234.574L310.387 240.375L310.736 240.017ZM304.801 246.181L310.736 240.375L310.387 240.017L304.451 245.823L304.801 246.181ZM302.577 244.349L304.451 246.181L304.8 245.823L302.927 243.991L302.577 244.349ZM305.313 241.316L302.577 243.991L302.927 244.349L305.663 241.673L305.313 241.316ZM55.0996 241.745H305.488V241.245H55.0996V241.745ZM55.3496 241.498V241.495H54.8496V241.498H55.3496ZM52.5075 241.748H55.0996V241.248H52.5075V241.748ZM52.2575 103.865V241.498H52.7575V103.865H52.2575ZM50.0106 106.766L52.686 104.04L52.3291 103.69L49.6537 106.416L50.0106 106.766ZM47.8216 104.9L49.6537 106.767L50.0106 106.416L48.1784 104.549L47.8216 104.9Z" fill="black"/>
<path d="M124.181 248.493V249H121.342C121.338 248.873 121.358 248.751 121.403 248.634C121.476 248.44 121.591 248.25 121.749 248.062C121.909 247.875 122.14 247.658 122.44 247.412C122.907 247.029 123.223 246.727 123.387 246.504C123.551 246.279 123.633 246.067 123.633 245.868C123.633 245.659 123.558 245.483 123.407 245.341C123.259 245.196 123.064 245.124 122.824 245.124C122.57 245.124 122.367 245.2 122.215 245.353C122.062 245.505 121.985 245.716 121.983 245.985L121.441 245.93C121.479 245.525 121.618 245.218 121.86 245.007C122.103 244.794 122.428 244.688 122.836 244.688C123.248 244.688 123.574 244.802 123.814 245.03C124.055 245.259 124.175 245.542 124.175 245.88C124.175 246.052 124.14 246.221 124.069 246.387C123.999 246.553 123.882 246.728 123.718 246.911C123.556 247.095 123.285 247.347 122.906 247.667C122.59 247.933 122.387 248.113 122.297 248.209C122.207 248.303 122.133 248.397 122.074 248.493H124.181ZM124.749 246.882C124.749 246.374 124.801 245.966 124.904 245.657C125.01 245.347 125.165 245.107 125.37 244.939C125.577 244.771 125.837 244.688 126.149 244.688C126.38 244.688 126.582 244.734 126.756 244.828C126.93 244.92 127.073 245.054 127.187 245.229C127.3 245.403 127.389 245.616 127.453 245.868C127.518 246.118 127.55 246.456 127.55 246.882C127.55 247.386 127.498 247.793 127.395 248.104C127.291 248.412 127.136 248.651 126.929 248.821C126.724 248.989 126.464 249.073 126.149 249.073C125.735 249.073 125.41 248.925 125.174 248.628C124.891 248.271 124.749 247.688 124.749 246.882ZM125.291 246.882C125.291 247.587 125.373 248.057 125.537 248.291C125.703 248.523 125.907 248.64 126.149 248.64C126.392 248.64 126.595 248.522 126.759 248.288C126.925 248.054 127.008 247.585 127.008 246.882C127.008 246.175 126.925 245.705 126.759 245.473C126.595 245.24 126.39 245.124 126.144 245.124C125.901 245.124 125.708 245.227 125.563 245.432C125.382 245.693 125.291 246.177 125.291 246.882Z" fill="#171717"/>
<path d="M46.5791 246.882C46.5791 246.374 46.6309 245.966 46.7344 245.657C46.8398 245.347 46.9951 245.107 47.2002 244.939C47.4072 244.771 47.667 244.688 47.9795 244.688C48.21 244.688 48.4121 244.734 48.5859 244.828C48.7598 244.92 48.9033 245.054 49.0166 245.229C49.1299 245.403 49.2188 245.616 49.2832 245.868C49.3477 246.118 49.3799 246.456 49.3799 246.882C49.3799 247.386 49.3281 247.793 49.2246 248.104C49.1211 248.412 48.9658 248.651 48.7588 248.821C48.5537 248.989 48.2939 249.073 47.9795 249.073C47.5654 249.073 47.2402 248.925 47.0039 248.628C46.7207 248.271 46.5791 247.688 46.5791 246.882ZM47.1211 246.882C47.1211 247.587 47.2031 248.057 47.3672 248.291C47.5332 248.523 47.7373 248.64 47.9795 248.64C48.2217 248.64 48.4248 248.522 48.5889 248.288C48.7549 248.054 48.8379 247.585 48.8379 246.882C48.8379 246.175 48.7549 245.705 48.5889 245.473C48.4248 245.24 48.2197 245.124 47.9736 245.124C47.7314 245.124 47.5381 245.227 47.3936 245.432C47.2119 245.693 47.1211 246.177 47.1211 246.882Z" fill="#171717"/>
<path d="M24.7246 211.882C24.7246 211.374 24.7764 210.966 24.8799 210.657C24.9854 210.347 25.1406 210.107 25.3457 209.939C25.5527 209.771 25.8125 209.688 26.125 209.688C26.3555 209.688 26.5576 209.734 26.7314 209.828C26.9053 209.92 27.0488 210.054 27.1621 210.229C27.2754 210.403 27.3643 210.616 27.4287 210.868C27.4932 211.118 27.5254 211.456 27.5254 211.882C27.5254 212.386 27.4736 212.793 27.3701 213.104C27.2666 213.412 27.1113 213.651 26.9043 213.821C26.6992 213.989 26.4395 214.073 26.125 214.073C25.7109 214.073 25.3857 213.925 25.1494 213.628C24.8662 213.271 24.7246 212.688 24.7246 211.882ZM25.2666 211.882C25.2666 212.587 25.3486 213.057 25.5127 213.291C25.6787 213.523 25.8828 213.64 26.125 213.64C26.3672 213.64 26.5703 213.522 26.7344 213.288C26.9004 213.054 26.9834 212.585 26.9834 211.882C26.9834 211.175 26.9004 210.705 26.7344 210.473C26.5703 210.24 26.3652 210.124 26.1191 210.124C25.877 210.124 25.6836 210.227 25.5391 210.432C25.3574 210.693 25.2666 211.177 25.2666 211.882ZM28.3604 214V213.399H28.9609V214H28.3604ZM29.7344 211.882C29.7344 211.374 29.7861 210.966 29.8896 210.657C29.9951 210.347 30.1504 210.107 30.3555 209.939C30.5625 209.771 30.8223 209.688 31.1348 209.688C31.3652 209.688 31.5674 209.734 31.7412 209.828C31.915 209.92 32.0586 210.054 32.1719 210.229C32.2852 210.403 32.374 210.616 32.4385 210.868C32.5029 211.118 32.5352 211.456 32.5352 211.882C32.5352 212.386 32.4834 212.793 32.3799 213.104C32.2764 213.412 32.1211 213.651 31.9141 213.821C31.709 213.989 31.4492 214.073 31.1348 214.073C30.7207 214.073 30.3955 213.925 30.1592 213.628C29.876 213.271 29.7344 212.688 29.7344 211.882ZM30.2764 211.882C30.2764 212.587 30.3584 213.057 30.5225 213.291C30.6885 213.523 30.8926 213.64 31.1348 213.64C31.377 213.64 31.5801 213.522 31.7441 213.288C31.9102 213.054 31.9932 212.585 31.9932 211.882C31.9932 211.175 31.9102 210.705 31.7441 210.473C31.5801 210.24 31.375 210.124 31.1289 210.124C30.8867 210.124 30.6934 210.227 30.5488 210.432C30.3672 210.693 30.2764 211.177 30.2764 211.882ZM33.0742 211.882C33.0742 211.374 33.126 210.966 33.2295 210.657C33.335 210.347 33.4902 210.107 33.6953 209.939C33.9023 209.771 34.1621 209.688 34.4746 209.688C34.7051 209.688 34.9072 209.734 35.0811 209.828C35.2549 209.92 35.3984 210.054 35.5117 210.229C35.625 210.403 35.7139 210.616 35.7783 210.868C35.8428 211.118 35.875 211.456 35.875 211.882C35.875 212.386 35.8232 212.793 35.7197 213.104C35.6162 213.412 35.4609 213.651 35.2539 213.821C35.0488 213.989 34.7891 214.073 34.4746 214.073C34.0605 214.073 33.7354 213.925 33.499 213.628C33.2158 213.271 33.0742 212.688 33.0742 211.882ZM33.6162 211.882C33.6162 212.587 33.6982 213.057 33.8623 213.291C34.0283 213.523 34.2324 213.64 34.4746 213.64C34.7168 213.64 34.9199 213.522 35.084 213.288C35.25 213.054 35.333 212.585 35.333 211.882C35.333 211.175 35.25 210.705 35.084 210.473C34.9199 210.24 34.7148 210.124 34.4688 210.124C34.2266 210.124 34.0332 210.227 33.8887 210.432C33.707 210.693 33.6162 211.177 33.6162 211.882ZM36.4141 211.882C36.4141 211.374 36.4658 210.966 36.5693 210.657C36.6748 210.347 36.8301 210.107 37.0352 209.939C37.2422 209.771 37.502 209.688 37.8145 209.688C38.0449 209.688 38.2471 209.734 38.4209 209.828C38.5947 209.92 38.7383 210.054 38.8516 210.229C38.9648 210.403 39.0537 210.616 39.1182 210.868C39.1826 211.118 39.2148 211.456 39.2148 211.882C39.2148 212.386 39.1631 212.793 39.0596 213.104C38.9561 213.412 38.8008 213.651 38.5938 213.821C38.3887 213.989 38.1289 214.073 37.8145 214.073C37.4004 214.073 37.0752 213.925 36.8389 213.628C36.5557 213.271 36.4141 212.688 36.4141 211.882ZM36.9561 211.882C36.9561 212.587 37.0381 213.057 37.2021 213.291C37.3682 213.523 37.5723 213.64 37.8145 213.64C38.0566 213.64 38.2598 213.522 38.4238 213.288C38.5898 213.054 38.6729 212.585 38.6729 211.882C38.6729 211.175 38.5898 210.705 38.4238 210.473C38.2598 210.24 38.0547 210.124 37.8086 210.124C37.5664 210.124 37.373 210.227 37.2285 210.432C37.0469 210.693 36.9561 211.177 36.9561 211.882ZM39.7539 212.875L40.3076 212.828C40.3486 213.098 40.4434 213.301 40.5918 213.438C40.7422 213.572 40.9229 213.64 41.1338 213.64C41.3877 213.64 41.6025 213.544 41.7783 213.353C41.9541 213.161 42.042 212.907 42.042 212.591C42.042 212.29 41.957 212.053 41.7871 211.879C41.6191 211.705 41.3984 211.618 41.125 211.618C40.9551 211.618 40.8018 211.657 40.665 211.735C40.5283 211.812 40.4209 211.911 40.3428 212.034L39.8477 211.97L40.2637 209.764H42.3994V210.268H40.6855L40.4541 211.422C40.7119 211.242 40.9824 211.152 41.2656 211.152C41.6406 211.152 41.957 211.282 42.2148 211.542C42.4727 211.802 42.6016 212.136 42.6016 212.544C42.6016 212.933 42.4883 213.269 42.2617 213.552C41.9863 213.899 41.6104 214.073 41.1338 214.073C40.7432 214.073 40.4238 213.964 40.1758 213.745C39.9297 213.526 39.7891 213.236 39.7539 212.875ZM43.0938 211.882C43.0938 211.374 43.1455 210.966 43.249 210.657C43.3545 210.347 43.5098 210.107 43.7148 209.939C43.9219 209.771 44.1816 209.688 44.4941 209.688C44.7246 209.688 44.9268 209.734 45.1006 209.828C45.2744 209.92 45.418 210.054 45.5312 210.229C45.6445 210.403 45.7334 210.616 45.7979 210.868C45.8623 211.118 45.8945 211.456 45.8945 211.882C45.8945 212.386 45.8428 212.793 45.7393 213.104C45.6357 213.412 45.4805 213.651 45.2734 213.821C45.0684 213.989 44.8086 214.073 44.4941 214.073C44.0801 214.073 43.7549 213.925 43.5186 213.628C43.2354 213.271 43.0938 212.688 43.0938 211.882ZM43.6357 211.882C43.6357 212.587 43.7178 213.057 43.8818 213.291C44.0479 213.523 44.252 213.64 44.4941 213.64C44.7363 213.64 44.9395 213.522 45.1035 213.288C45.2695 213.054 45.3525 212.585 45.3525 211.882C45.3525 211.175 45.2695 210.705 45.1035 210.473C44.9395 210.24 44.7344 210.124 44.4883 210.124C44.2461 210.124 44.0527 210.227 43.9082 210.432C43.7266 210.693 43.6357 211.177 43.6357 211.882ZM46.4336 211.882C46.4336 211.374 46.4854 210.966 46.5889 210.657C46.6943 210.347 46.8496 210.107 47.0547 209.939C47.2617 209.771 47.5215 209.688 47.834 209.688C48.0645 209.688 48.2666 209.734 48.4404 209.828C48.6143 209.92 48.7578 210.054 48.8711 210.229C48.9844 210.403 49.0732 210.616 49.1377 210.868C49.2021 211.118 49.2344 211.456 49.2344 211.882C49.2344 212.386 49.1826 212.793 49.0791 213.104C48.9756 213.412 48.8203 213.651 48.6133 213.821C48.4082 213.989 48.1484 214.073 47.834 214.073C47.4199 214.073 47.0947 213.925 46.8584 213.628C46.5752 213.271 46.4336 212.688 46.4336 211.882ZM46.9756 211.882C46.9756 212.587 47.0576 213.057 47.2217 213.291C47.3877 213.523 47.5918 213.64 47.834 213.64C48.0762 213.64 48.2793 213.522 48.4434 213.288C48.6094 213.054 48.6924 212.585 48.6924 211.882C48.6924 211.175 48.6094 210.705 48.4434 210.473C48.2793 210.24 48.0742 210.124 47.8281 210.124C47.5859 210.124 47.3926 210.227 47.248 210.432C47.0664 210.693 46.9756 211.177 46.9756 211.882Z" fill="#171717"/>
<path d="M24.7246 183.882C24.7246 183.374 24.7764 182.966 24.8799 182.657C24.9854 182.347 25.1406 182.107 25.3457 181.939C25.5527 181.771 25.8125 181.688 26.125 181.688C26.3555 181.688 26.5576 181.734 26.7314 181.828C26.9053 181.92 27.0488 182.054 27.1621 182.229C27.2754 182.403 27.3643 182.616 27.4287 182.868C27.4932 183.118 27.5254 183.456 27.5254 183.882C27.5254 184.386 27.4736 184.793 27.3701 185.104C27.2666 185.412 27.1113 185.651 26.9043 185.821C26.6992 185.989 26.4395 186.073 26.125 186.073C25.7109 186.073 25.3857 185.925 25.1494 185.628C24.8662 185.271 24.7246 184.688 24.7246 183.882ZM25.2666 183.882C25.2666 184.587 25.3486 185.057 25.5127 185.291C25.6787 185.523 25.8828 185.64 26.125 185.64C26.3672 185.64 26.5703 185.522 26.7344 185.288C26.9004 185.054 26.9834 184.585 26.9834 183.882C26.9834 183.175 26.9004 182.705 26.7344 182.473C26.5703 182.24 26.3652 182.124 26.1191 182.124C25.877 182.124 25.6836 182.227 25.5391 182.432C25.3574 182.693 25.2666 183.177 25.2666 183.882ZM28.3604 186V185.399H28.9609V186H28.3604ZM29.7344 183.882C29.7344 183.374 29.7861 182.966 29.8896 182.657C29.9951 182.347 30.1504 182.107 30.3555 181.939C30.5625 181.771 30.8223 181.688 31.1348 181.688C31.3652 181.688 31.5674 181.734 31.7412 181.828C31.915 181.92 32.0586 182.054 32.1719 182.229C32.2852 182.403 32.374 182.616 32.4385 182.868C32.5029 183.118 32.5352 183.456 32.5352 183.882C32.5352 184.386 32.4834 184.793 32.3799 185.104C32.2764 185.412 32.1211 185.651 31.9141 185.821C31.709 185.989 31.4492 186.073 31.1348 186.073C30.7207 186.073 30.3955 185.925 30.1592 185.628C29.876 185.271 29.7344 184.688 29.7344 183.882ZM30.2764 183.882C30.2764 184.587 30.3584 185.057 30.5225 185.291C30.6885 185.523 30.8926 185.64 31.1348 185.64C31.377 185.64 31.5801 185.522 31.7441 185.288C31.9102 185.054 31.9932 184.585 31.9932 183.882C31.9932 183.175 31.9102 182.705 31.7441 182.473C31.5801 182.24 31.375 182.124 31.1289 182.124C30.8867 182.124 30.6934 182.227 30.5488 182.432C30.3672 182.693 30.2764 183.177 30.2764 183.882ZM33.0742 183.882C33.0742 183.374 33.126 182.966 33.2295 182.657C33.335 182.347 33.4902 182.107 33.6953 181.939C33.9023 181.771 34.1621 181.688 34.4746 181.688C34.7051 181.688 34.9072 181.734 35.0811 181.828C35.2549 181.92 35.3984 182.054 35.5117 182.229C35.625 182.403 35.7139 182.616 35.7783 182.868C35.8428 183.118 35.875 183.456 35.875 183.882C35.875 184.386 35.8232 184.793 35.7197 185.104C35.6162 185.412 35.4609 185.651 35.2539 185.821C35.0488 185.989 34.7891 186.073 34.4746 186.073C34.0605 186.073 33.7354 185.925 33.499 185.628C33.2158 185.271 33.0742 184.688 33.0742 183.882ZM33.6162 183.882C33.6162 184.587 33.6982 185.057 33.8623 185.291C34.0283 185.523 34.2324 185.64 34.4746 185.64C34.7168 185.64 34.9199 185.522 35.084 185.288C35.25 185.054 35.333 184.585 35.333 183.882C35.333 183.175 35.25 182.705 35.084 182.473C34.9199 182.24 34.7148 182.124 34.4688 182.124C34.2266 182.124 34.0332 182.227 33.8887 182.432C33.707 182.693 33.6162 183.177 33.6162 183.882ZM38.4004 186H37.873V182.64C37.7461 182.761 37.5791 182.882 37.3721 183.003C37.167 183.124 36.9824 183.215 36.8184 183.275V182.766C37.1133 182.627 37.3711 182.459 37.5918 182.262C37.8125 182.064 37.9688 181.873 38.0605 181.688H38.4004V186ZM39.7539 183.882C39.7539 183.374 39.8057 182.966 39.9092 182.657C40.0146 182.347 40.1699 182.107 40.375 181.939C40.582 181.771 40.8418 181.688 41.1543 181.688C41.3848 181.688 41.5869 181.734 41.7607 181.828C41.9346 181.92 42.0781 182.054 42.1914 182.229C42.3047 182.403 42.3936 182.616 42.458 182.868C42.5225 183.118 42.5547 183.456 42.5547 183.882C42.5547 184.386 42.5029 184.793 42.3994 185.104C42.2959 185.412 42.1406 185.651 41.9336 185.821C41.7285 185.989 41.4688 186.073 41.1543 186.073C40.7402 186.073 40.415 185.925 40.1787 185.628C39.8955 185.271 39.7539 184.688 39.7539 183.882ZM40.2959 183.882C40.2959 184.587 40.3779 185.057 40.542 185.291C40.708 185.523 40.9121 185.64 41.1543 185.64C41.3965 185.64 41.5996 185.522 41.7637 185.288C41.9297 185.054 42.0127 184.585 42.0127 183.882C42.0127 183.175 41.9297 182.705 41.7637 182.473C41.5996 182.24 41.3945 182.124 41.1484 182.124C40.9062 182.124 40.7129 182.227 40.5684 182.432C40.3867 182.693 40.2959 183.177 40.2959 183.882ZM43.0938 183.882C43.0938 183.374 43.1455 182.966 43.249 182.657C43.3545 182.347 43.5098 182.107 43.7148 181.939C43.9219 181.771 44.1816 181.688 44.4941 181.688C44.7246 181.688 44.9268 181.734 45.1006 181.828C45.2744 181.92 45.418 182.054 45.5312 182.229C45.6445 182.403 45.7334 182.616 45.7979 182.868C45.8623 183.118 45.8945 183.456 45.8945 183.882C45.8945 184.386 45.8428 184.793 45.7393 185.104C45.6357 185.412 45.4805 185.651 45.2734 185.821C45.0684 185.989 44.8086 186.073 44.4941 186.073C44.0801 186.073 43.7549 185.925 43.5186 185.628C43.2354 185.271 43.0938 184.688 43.0938 183.882ZM43.6357 183.882C43.6357 184.587 43.7178 185.057 43.8818 185.291C44.0479 185.523 44.252 185.64 44.4941 185.64C44.7363 185.64 44.9395 185.522 45.1035 185.288C45.2695 185.054 45.3525 184.585 45.3525 183.882C45.3525 183.175 45.2695 182.705 45.1035 182.473C44.9395 182.24 44.7344 182.124 44.4883 182.124C44.2461 182.124 44.0527 182.227 43.9082 182.432C43.7266 182.693 43.6357 183.177 43.6357 183.882ZM46.4336 183.882C46.4336 183.374 46.4854 182.966 46.5889 182.657C46.6943 182.347 46.8496 182.107 47.0547 181.939C47.2617 181.771 47.5215 181.688 47.834 181.688C48.0645 181.688 48.2666 181.734 48.4404 181.828C48.6143 181.92 48.7578 182.054 48.8711 182.229C48.9844 182.403 49.0732 182.616 49.1377 182.868C49.2021 183.118 49.2344 183.456 49.2344 183.882C49.2344 184.386 49.1826 184.793 49.0791 185.104C48.9756 185.412 48.8203 185.651 48.6133 185.821C48.4082 185.989 48.1484 186.073 47.834 186.073C47.4199 186.073 47.0947 185.925 46.8584 185.628C46.5752 185.271 46.4336 184.688 46.4336 183.882ZM46.9756 183.882C46.9756 184.587 47.0576 185.057 47.2217 185.291C47.3877 185.523 47.5918 185.64 47.834 185.64C48.0762 185.64 48.2793 185.522 48.4434 185.288C48.6094 185.054 48.6924 184.585 48.6924 183.882C48.6924 183.175 48.6094 182.705 48.4434 182.473C48.2793 182.24 48.0742 182.124 47.8281 182.124C47.5859 182.124 47.3926 182.227 47.248 182.432C47.0664 182.693 46.9756 183.177 46.9756 183.882Z" fill="#171717"/>
<path d="M24.7246 154.882C24.7246 154.374 24.7764 153.966 24.8799 153.657C24.9854 153.347 25.1406 153.107 25.3457 152.939C25.5527 152.771 25.8125 152.688 26.125 152.688C26.3555 152.688 26.5576 152.734 26.7314 152.828C26.9053 152.92 27.0488 153.054 27.1621 153.229C27.2754 153.403 27.3643 153.616 27.4287 153.868C27.4932 154.118 27.5254 154.456 27.5254 154.882C27.5254 155.386 27.4736 155.793 27.3701 156.104C27.2666 156.412 27.1113 156.651 26.9043 156.821C26.6992 156.989 26.4395 157.073 26.125 157.073C25.7109 157.073 25.3857 156.925 25.1494 156.628C24.8662 156.271 24.7246 155.688 24.7246 154.882ZM25.2666 154.882C25.2666 155.587 25.3486 156.057 25.5127 156.291C25.6787 156.523 25.8828 156.64 26.125 156.64C26.3672 156.64 26.5703 156.522 26.7344 156.288C26.9004 156.054 26.9834 155.585 26.9834 154.882C26.9834 154.175 26.9004 153.705 26.7344 153.473C26.5703 153.24 26.3652 153.124 26.1191 153.124C25.877 153.124 25.6836 153.227 25.5391 153.432C25.3574 153.693 25.2666 154.177 25.2666 154.882ZM28.3604 157V156.399H28.9609V157H28.3604ZM29.7344 154.882C29.7344 154.374 29.7861 153.966 29.8896 153.657C29.9951 153.347 30.1504 153.107 30.3555 152.939C30.5625 152.771 30.8223 152.688 31.1348 152.688C31.3652 152.688 31.5674 152.734 31.7412 152.828C31.915 152.92 32.0586 153.054 32.1719 153.229C32.2852 153.403 32.374 153.616 32.4385 153.868C32.5029 154.118 32.5352 154.456 32.5352 154.882C32.5352 155.386 32.4834 155.793 32.3799 156.104C32.2764 156.412 32.1211 156.651 31.9141 156.821C31.709 156.989 31.4492 157.073 31.1348 157.073C30.7207 157.073 30.3955 156.925 30.1592 156.628C29.876 156.271 29.7344 155.688 29.7344 154.882ZM30.2764 154.882C30.2764 155.587 30.3584 156.057 30.5225 156.291C30.6885 156.523 30.8926 156.64 31.1348 156.64C31.377 156.64 31.5801 156.522 31.7441 156.288C31.9102 156.054 31.9932 155.585 31.9932 154.882C31.9932 154.175 31.9102 153.705 31.7441 153.473C31.5801 153.24 31.375 153.124 31.1289 153.124C30.8867 153.124 30.6934 153.227 30.5488 153.432C30.3672 153.693 30.2764 154.177 30.2764 154.882ZM33.0742 154.882C33.0742 154.374 33.126 153.966 33.2295 153.657C33.335 153.347 33.4902 153.107 33.6953 152.939C33.9023 152.771 34.1621 152.688 34.4746 152.688C34.7051 152.688 34.9072 152.734 35.0811 152.828C35.2549 152.92 35.3984 153.054 35.5117 153.229C35.625 153.403 35.7139 153.616 35.7783 153.868C35.8428 154.118 35.875 154.456 35.875 154.882C35.875 155.386 35.8232 155.793 35.7197 156.104C35.6162 156.412 35.4609 156.651 35.2539 156.821C35.0488 156.989 34.7891 157.073 34.4746 157.073C34.0605 157.073 33.7354 156.925 33.499 156.628C33.2158 156.271 33.0742 155.688 33.0742 154.882ZM33.6162 154.882C33.6162 155.587 33.6982 156.057 33.8623 156.291C34.0283 156.523 34.2324 156.64 34.4746 156.64C34.7168 156.64 34.9199 156.522 35.084 156.288C35.25 156.054 35.333 155.585 35.333 154.882C35.333 154.175 35.25 153.705 35.084 153.473C34.9199 153.24 34.7148 153.124 34.4688 153.124C34.2266 153.124 34.0332 153.227 33.8887 153.432C33.707 153.693 33.6162 154.177 33.6162 154.882ZM38.4004 157H37.873V153.64C37.7461 153.761 37.5791 153.882 37.3721 154.003C37.167 154.124 36.9824 154.215 36.8184 154.275V153.766C37.1133 153.627 37.3711 153.459 37.5918 153.262C37.8125 153.064 37.9688 152.873 38.0605 152.688H38.4004V157ZM39.7539 155.875L40.3076 155.828C40.3486 156.098 40.4434 156.301 40.5918 156.438C40.7422 156.572 40.9229 156.64 41.1338 156.64C41.3877 156.64 41.6025 156.544 41.7783 156.353C41.9541 156.161 42.042 155.907 42.042 155.591C42.042 155.29 41.957 155.053 41.7871 154.879C41.6191 154.705 41.3984 154.618 41.125 154.618C40.9551 154.618 40.8018 154.657 40.665 154.735C40.5283 154.812 40.4209 154.911 40.3428 155.034L39.8477 154.97L40.2637 152.764H42.3994V153.268H40.6855L40.4541 154.422C40.7119 154.242 40.9824 154.152 41.2656 154.152C41.6406 154.152 41.957 154.282 42.2148 154.542C42.4727 154.802 42.6016 155.136 42.6016 155.544C42.6016 155.933 42.4883 156.269 42.2617 156.552C41.9863 156.899 41.6104 157.073 41.1338 157.073C40.7432 157.073 40.4238 156.964 40.1758 156.745C39.9297 156.526 39.7891 156.236 39.7539 155.875ZM43.0938 154.882C43.0938 154.374 43.1455 153.966 43.249 153.657C43.3545 153.347 43.5098 153.107 43.7148 152.939C43.9219 152.771 44.1816 152.688 44.4941 152.688C44.7246 152.688 44.9268 152.734 45.1006 152.828C45.2744 152.92 45.418 153.054 45.5312 153.229C45.6445 153.403 45.7334 153.616 45.7979 153.868C45.8623 154.118 45.8945 154.456 45.8945 154.882C45.8945 155.386 45.8428 155.793 45.7393 156.104C45.6357 156.412 45.4805 156.651 45.2734 156.821C45.0684 156.989 44.8086 157.073 44.4941 157.073C44.0801 157.073 43.7549 156.925 43.5186 156.628C43.2354 156.271 43.0938 155.688 43.0938 154.882ZM43.6357 154.882C43.6357 155.587 43.7178 156.057 43.8818 156.291C44.0479 156.523 44.252 156.64 44.4941 156.64C44.7363 156.64 44.9395 156.522 45.1035 156.288C45.2695 156.054 45.3525 155.585 45.3525 154.882C45.3525 154.175 45.2695 153.705 45.1035 153.473C44.9395 153.24 44.7344 153.124 44.4883 153.124C44.2461 153.124 44.0527 153.227 43.9082 153.432C43.7266 153.693 43.6357 154.177 43.6357 154.882ZM46.4336 154.882C46.4336 154.374 46.4854 153.966 46.5889 153.657C46.6943 153.347 46.8496 153.107 47.0547 152.939C47.2617 152.771 47.5215 152.688 47.834 152.688C48.0645 152.688 48.2666 152.734 48.4404 152.828C48.6143 152.92 48.7578 153.054 48.8711 153.229C48.9844 153.403 49.0732 153.616 49.1377 153.868C49.2021 154.118 49.2344 154.456 49.2344 154.882C49.2344 155.386 49.1826 155.793 49.0791 156.104C48.9756 156.412 48.8203 156.651 48.6133 156.821C48.4082 156.989 48.1484 157.073 47.834 157.073C47.4199 157.073 47.0947 156.925 46.8584 156.628C46.5752 156.271 46.4336 155.688 46.4336 154.882ZM46.9756 154.882C46.9756 155.587 47.0576 156.057 47.2217 156.291C47.3877 156.523 47.5918 156.64 47.834 156.64C48.0762 156.64 48.2793 156.522 48.4434 156.288C48.6094 156.054 48.6924 155.585 48.6924 154.882C48.6924 154.175 48.6094 153.705 48.4434 153.473C48.2793 153.24 48.0742 153.124 47.8281 153.124C47.5859 153.124 47.3926 153.227 47.248 153.432C47.0664 153.693 46.9756 154.177 46.9756 154.882Z" fill="#171717"/>
<path d="M24.7246 126.882C24.7246 126.374 24.7764 125.966 24.8799 125.657C24.9854 125.347 25.1406 125.107 25.3457 124.939C25.5527 124.771 25.8125 124.688 26.125 124.688C26.3555 124.688 26.5576 124.734 26.7314 124.828C26.9053 124.92 27.0488 125.054 27.1621 125.229C27.2754 125.403 27.3643 125.616 27.4287 125.868C27.4932 126.118 27.5254 126.456 27.5254 126.882C27.5254 127.386 27.4736 127.793 27.3701 128.104C27.2666 128.412 27.1113 128.651 26.9043 128.821C26.6992 128.989 26.4395 129.073 26.125 129.073C25.7109 129.073 25.3857 128.925 25.1494 128.628C24.8662 128.271 24.7246 127.688 24.7246 126.882ZM25.2666 126.882C25.2666 127.587 25.3486 128.057 25.5127 128.291C25.6787 128.523 25.8828 128.64 26.125 128.64C26.3672 128.64 26.5703 128.522 26.7344 128.288C26.9004 128.054 26.9834 127.585 26.9834 126.882C26.9834 126.175 26.9004 125.705 26.7344 125.473C26.5703 125.24 26.3652 125.124 26.1191 125.124C25.877 125.124 25.6836 125.227 25.5391 125.432C25.3574 125.693 25.2666 126.177 25.2666 126.882ZM28.3604 129V128.399H28.9609V129H28.3604ZM29.7344 126.882C29.7344 126.374 29.7861 125.966 29.8896 125.657C29.9951 125.347 30.1504 125.107 30.3555 124.939C30.5625 124.771 30.8223 124.688 31.1348 124.688C31.3652 124.688 31.5674 124.734 31.7412 124.828C31.915 124.92 32.0586 125.054 32.1719 125.229C32.2852 125.403 32.374 125.616 32.4385 125.868C32.5029 126.118 32.5352 126.456 32.5352 126.882C32.5352 127.386 32.4834 127.793 32.3799 128.104C32.2764 128.412 32.1211 128.651 31.9141 128.821C31.709 128.989 31.4492 129.073 31.1348 129.073C30.7207 129.073 30.3955 128.925 30.1592 128.628C29.876 128.271 29.7344 127.688 29.7344 126.882ZM30.2764 126.882C30.2764 127.587 30.3584 128.057 30.5225 128.291C30.6885 128.523 30.8926 128.64 31.1348 128.64C31.377 128.64 31.5801 128.522 31.7441 128.288C31.9102 128.054 31.9932 127.585 31.9932 126.882C31.9932 126.175 31.9102 125.705 31.7441 125.473C31.5801 125.24 31.375 125.124 31.1289 125.124C30.8867 125.124 30.6934 125.227 30.5488 125.432C30.3672 125.693 30.2764 126.177 30.2764 126.882ZM33.0742 126.882C33.0742 126.374 33.126 125.966 33.2295 125.657C33.335 125.347 33.4902 125.107 33.6953 124.939C33.9023 124.771 34.1621 124.688 34.4746 124.688C34.7051 124.688 34.9072 124.734 35.0811 124.828C35.2549 124.92 35.3984 125.054 35.5117 125.229C35.625 125.403 35.7139 125.616 35.7783 125.868C35.8428 126.118 35.875 126.456 35.875 126.882C35.875 127.386 35.8232 127.793 35.7197 128.104C35.6162 128.412 35.4609 128.651 35.2539 128.821C35.0488 128.989 34.7891 129.073 34.4746 129.073C34.0605 129.073 33.7354 128.925 33.499 128.628C33.2158 128.271 33.0742 127.688 33.0742 126.882ZM33.6162 126.882C33.6162 127.587 33.6982 128.057 33.8623 128.291C34.0283 128.523 34.2324 128.64 34.4746 128.64C34.7168 128.64 34.9199 128.522 35.084 128.288C35.25 128.054 35.333 127.585 35.333 126.882C35.333 126.175 35.25 125.705 35.084 125.473C34.9199 125.24 34.7148 125.124 34.4688 125.124C34.2266 125.124 34.0332 125.227 33.8887 125.432C33.707 125.693 33.6162 126.177 33.6162 126.882ZM39.1855 128.493V129H36.3467C36.3428 128.873 36.3633 128.751 36.4082 128.634C36.4805 128.44 36.5957 128.25 36.7539 128.062C36.9141 127.875 37.1445 127.658 37.4453 127.412C37.9121 127.029 38.2275 126.727 38.3916 126.504C38.5557 126.279 38.6377 126.067 38.6377 125.868C38.6377 125.659 38.5625 125.483 38.4121 125.341C38.2637 125.196 38.0693 125.124 37.8291 125.124C37.5752 125.124 37.3721 125.2 37.2197 125.353C37.0674 125.505 36.9902 125.716 36.9883 125.985L36.4463 125.93C36.4834 125.525 36.623 125.218 36.8652 125.007C37.1074 124.794 37.4326 124.688 37.8408 124.688C38.2529 124.688 38.5791 124.802 38.8193 125.03C39.0596 125.259 39.1797 125.542 39.1797 125.88C39.1797 126.052 39.1445 126.221 39.0742 126.387C39.0039 126.553 38.8867 126.728 38.7227 126.911C38.5605 127.095 38.29 127.347 37.9111 127.667C37.5947 127.933 37.3916 128.113 37.3018 128.209C37.2119 128.303 37.1377 128.397 37.0791 128.493H39.1855ZM39.7539 126.882C39.7539 126.374 39.8057 125.966 39.9092 125.657C40.0146 125.347 40.1699 125.107 40.375 124.939C40.582 124.771 40.8418 124.688 41.1543 124.688C41.3848 124.688 41.5869 124.734 41.7607 124.828C41.9346 124.92 42.0781 125.054 42.1914 125.229C42.3047 125.403 42.3936 125.616 42.458 125.868C42.5225 126.118 42.5547 126.456 42.5547 126.882C42.5547 127.386 42.5029 127.793 42.3994 128.104C42.2959 128.412 42.1406 128.651 41.9336 128.821C41.7285 128.989 41.4688 129.073 41.1543 129.073C40.7402 129.073 40.415 128.925 40.1787 128.628C39.8955 128.271 39.7539 127.688 39.7539 126.882ZM40.2959 126.882C40.2959 127.587 40.3779 128.057 40.542 128.291C40.708 128.523 40.9121 128.64 41.1543 128.64C41.3965 128.64 41.5996 128.522 41.7637 128.288C41.9297 128.054 42.0127 127.585 42.0127 126.882C42.0127 126.175 41.9297 125.705 41.7637 125.473C41.5996 125.24 41.3945 125.124 41.1484 125.124C40.9062 125.124 40.7129 125.227 40.5684 125.432C40.3867 125.693 40.2959 126.177 40.2959 126.882ZM43.0938 126.882C43.0938 126.374 43.1455 125.966 43.249 125.657C43.3545 125.347 43.5098 125.107 43.7148 124.939C43.9219 124.771 44.1816 124.688 44.4941 124.688C44.7246 124.688 44.9268 124.734 45.1006 124.828C45.2744 124.92 45.418 125.054 45.5312 125.229C45.6445 125.403 45.7334 125.616 45.7979 125.868C45.8623 126.118 45.8945 126.456 45.8945 126.882C45.8945 127.386 45.8428 127.793 45.7393 128.104C45.6357 128.412 45.4805 128.651 45.2734 128.821C45.0684 128.989 44.8086 129.073 44.4941 129.073C44.0801 129.073 43.7549 128.925 43.5186 128.628C43.2354 128.271 43.0938 127.688 43.0938 126.882ZM43.6357 126.882C43.6357 127.587 43.7178 128.057 43.8818 128.291C44.0479 128.523 44.252 128.64 44.4941 128.64C44.7363 128.64 44.9395 128.522 45.1035 128.288C45.2695 128.054 45.3525 127.585 45.3525 126.882C45.3525 126.175 45.2695 125.705 45.1035 125.473C44.9395 125.24 44.7344 125.124 44.4883 125.124C44.2461 125.124 44.0527 125.227 43.9082 125.432C43.7266 125.693 43.6357 126.177 43.6357 126.882ZM46.4336 126.882C46.4336 126.374 46.4854 125.966 46.5889 125.657C46.6943 125.347 46.8496 125.107 47.0547 124.939C47.2617 124.771 47.5215 124.688 47.834 124.688C48.0645 124.688 48.2666 124.734 48.4404 124.828C48.6143 124.92 48.7578 125.054 48.8711 125.229C48.9844 125.403 49.0732 125.616 49.1377 125.868C49.2021 126.118 49.2344 126.456 49.2344 126.882C49.2344 127.386 49.1826 127.793 49.0791 128.104C48.9756 128.412 48.8203 128.651 48.6133 128.821C48.4082 128.989 48.1484 129.073 47.834 129.073C47.4199 129.073 47.0947 128.925 46.8584 128.628C46.5752 128.271 46.4336 127.688 46.4336 126.882ZM46.9756 126.882C46.9756 127.587 47.0576 128.057 47.2217 128.291C47.3877 128.523 47.5918 128.64 47.834 128.64C48.0762 128.64 48.2793 128.522 48.4434 128.288C48.6094 128.054 48.6924 127.585 48.6924 126.882C48.6924 126.175 48.6094 125.705 48.4434 125.473C48.2793 125.24 48.0742 125.124 47.8281 125.124C47.5859 125.124 47.3926 125.227 47.248 125.432C47.0664 125.693 46.9756 126.177 46.9756 126.882Z" fill="#171717"/>
<path d="M194.1 249V247.972H192.236V247.488L194.196 244.705H194.627V247.488H195.207V247.972H194.627V249H194.1ZM194.1 247.488V245.552L192.755 247.488H194.1ZM195.749 246.882C195.749 246.374 195.801 245.966 195.904 245.657C196.01 245.347 196.165 245.107 196.37 244.939C196.577 244.771 196.837 244.688 197.149 244.688C197.38 244.688 197.582 244.734 197.756 244.828C197.93 244.92 198.073 245.054 198.187 245.229C198.3 245.403 198.389 245.616 198.453 245.868C198.518 246.118 198.55 246.456 198.55 246.882C198.55 247.386 198.498 247.793 198.395 248.104C198.291 248.412 198.136 248.651 197.929 248.821C197.724 248.989 197.464 249.073 197.149 249.073C196.735 249.073 196.41 248.925 196.174 248.628C195.891 248.271 195.749 247.688 195.749 246.882ZM196.291 246.882C196.291 247.587 196.373 248.057 196.537 248.291C196.703 248.523 196.907 248.64 197.149 248.64C197.392 248.64 197.595 248.522 197.759 248.288C197.925 248.054 198.008 247.585 198.008 246.882C198.008 246.175 197.925 245.705 197.759 245.473C197.595 245.24 197.39 245.124 197.144 245.124C196.901 245.124 196.708 245.227 196.563 245.432C196.382 245.693 196.291 246.177 196.291 246.882Z" fill="#171717"/>
<path d="M266.146 245.757L265.621 245.798C265.574 245.591 265.508 245.44 265.422 245.347C265.279 245.196 265.104 245.121 264.895 245.121C264.727 245.121 264.579 245.168 264.452 245.262C264.286 245.383 264.155 245.56 264.06 245.792C263.964 246.024 263.914 246.355 263.91 246.785C264.037 246.592 264.192 246.448 264.376 246.354C264.56 246.261 264.752 246.214 264.953 246.214C265.305 246.214 265.604 246.344 265.85 246.604C266.098 246.861 266.222 247.195 266.222 247.605C266.222 247.875 266.163 248.126 266.046 248.358C265.931 248.589 265.771 248.766 265.568 248.889C265.365 249.012 265.135 249.073 264.877 249.073C264.438 249.073 264.079 248.912 263.802 248.59C263.524 248.266 263.386 247.732 263.386 246.99C263.386 246.16 263.539 245.557 263.846 245.18C264.113 244.852 264.474 244.688 264.927 244.688C265.265 244.688 265.541 244.782 265.756 244.972C265.973 245.161 266.103 245.423 266.146 245.757ZM263.992 247.608C263.992 247.79 264.03 247.964 264.106 248.13C264.185 248.296 264.293 248.423 264.432 248.511C264.57 248.597 264.716 248.64 264.868 248.64C265.091 248.64 265.282 248.55 265.442 248.37C265.603 248.19 265.683 247.946 265.683 247.638C265.683 247.341 265.604 247.107 265.445 246.938C265.287 246.766 265.088 246.68 264.848 246.68C264.609 246.68 264.407 246.766 264.241 246.938C264.075 247.107 263.992 247.331 263.992 247.608ZM266.749 246.882C266.749 246.374 266.801 245.966 266.904 245.657C267.01 245.347 267.165 245.107 267.37 244.939C267.577 244.771 267.837 244.688 268.149 244.688C268.38 244.688 268.582 244.734 268.756 244.828C268.93 244.92 269.073 245.054 269.187 245.229C269.3 245.403 269.389 245.616 269.453 245.868C269.518 246.118 269.55 246.456 269.55 246.882C269.55 247.386 269.498 247.793 269.395 248.104C269.291 248.412 269.136 248.651 268.929 248.821C268.724 248.989 268.464 249.073 268.149 249.073C267.735 249.073 267.41 248.925 267.174 248.628C266.891 248.271 266.749 247.688 266.749 246.882ZM267.291 246.882C267.291 247.587 267.373 248.057 267.537 248.291C267.703 248.523 267.907 248.64 268.149 248.64C268.392 248.64 268.595 248.522 268.759 248.288C268.925 248.054 269.008 247.585 269.008 246.882C269.008 246.175 268.925 245.705 268.759 245.473C268.595 245.24 268.39 245.124 268.144 245.124C267.901 245.124 267.708 245.227 267.563 245.432C267.382 245.693 267.291 246.177 267.291 246.882Z" fill="#171717"/>
<path d="M56 155C56 221.267 93.0235 233.424 292 237" stroke="black" stroke-linecap="round" stroke-linejoin="round"/>
<path d="M29.498 87.0752L31.4365 87.6611C31.3063 88.2048 31.1012 88.6589 30.8213 89.0234C30.5413 89.388 30.193 89.6631 29.7764 89.8486C29.363 90.0342 28.8356 90.127 28.1943 90.127C27.4163 90.127 26.7799 90.0146 26.2852 89.79C25.7936 89.5622 25.3688 89.1634 25.0107 88.5938C24.6527 88.0241 24.4736 87.2949 24.4736 86.4062C24.4736 85.2214 24.7878 84.3115 25.416 83.6768C26.0475 83.0387 26.9395 82.7197 28.0918 82.7197C28.9935 82.7197 29.7015 82.902 30.2158 83.2666C30.7334 83.6312 31.1175 84.1911 31.3682 84.9463L29.415 85.3809C29.3467 85.1628 29.2751 85.0033 29.2002 84.9023C29.0765 84.7331 28.9251 84.6029 28.7461 84.5117C28.5671 84.4206 28.3669 84.375 28.1455 84.375C27.6442 84.375 27.2601 84.5768 26.9932 84.9805C26.7913 85.2799 26.6904 85.7503 26.6904 86.3916C26.6904 87.1859 26.8109 87.7311 27.0518 88.0273C27.2926 88.3203 27.6312 88.4668 28.0674 88.4668C28.4906 88.4668 28.8096 88.348 29.0244 88.1104C29.2425 87.8727 29.4004 87.5277 29.498 87.0752ZM32.5254 82.8418H34.7373V85.3467H37.1543V82.8418H39.376V90H37.1543V87.1045H34.7373V90H32.5254V82.8418ZM40.8408 82.8418H46.7686V84.3701H43.0576V85.5078H46.5V86.9678H43.0576V88.3789H46.876V90H40.8408V82.8418ZM48.0674 82.8418H53.9951V84.3701H50.2842V85.5078H53.7266V86.9678H50.2842V88.3789H54.1025V90H48.0674V82.8418ZM54.9131 87.6318L57.0176 87.5C57.0632 87.8418 57.1559 88.1022 57.2959 88.2812C57.5238 88.571 57.8493 88.7158 58.2725 88.7158C58.5882 88.7158 58.8307 88.6426 59 88.4961C59.1725 88.3464 59.2588 88.1738 59.2588 87.9785C59.2588 87.793 59.1774 87.627 59.0146 87.4805C58.8519 87.334 58.4743 87.1956 57.8818 87.0654C56.9118 86.8473 56.2201 86.5576 55.8066 86.1963C55.39 85.835 55.1816 85.3743 55.1816 84.8145C55.1816 84.4466 55.2874 84.0999 55.499 83.7744C55.7139 83.4456 56.0345 83.1885 56.4609 83.0029C56.8906 82.8141 57.4782 82.7197 58.2236 82.7197C59.1383 82.7197 59.835 82.8906 60.3135 83.2324C60.7952 83.571 61.0817 84.1113 61.1729 84.8535L59.0879 84.9756C59.0326 84.6533 58.9154 84.4189 58.7363 84.2725C58.5605 84.126 58.3164 84.0527 58.0039 84.0527C57.7467 84.0527 57.5531 84.1081 57.4229 84.2188C57.2926 84.3262 57.2275 84.458 57.2275 84.6143C57.2275 84.7282 57.2812 84.8307 57.3887 84.9219C57.4928 85.0163 57.7402 85.1042 58.1309 85.1855C59.0977 85.3939 59.7894 85.6055 60.2061 85.8203C60.626 86.0319 60.9303 86.2956 61.1191 86.6113C61.3112 86.9271 61.4072 87.2803 61.4072 87.6709C61.4072 88.1299 61.2803 88.5531 61.0264 88.9404C60.7725 89.3278 60.4176 89.6224 59.9619 89.8242C59.5062 90.0228 58.9316 90.1221 58.2383 90.1221C57.0208 90.1221 56.1777 89.8877 55.709 89.4189C55.2402 88.9502 54.9749 88.3545 54.9131 87.6318ZM62.5205 82.8418H68.4482V84.3701H64.7373V85.5078H68.1797V86.9678H64.7373V88.3789H68.5557V90H62.5205V82.8418ZM73.082 82.8418H76.7588C77.5596 82.8418 78.1585 83.0322 78.5557 83.4131C78.9561 83.7939 79.1562 84.3359 79.1562 85.0391C79.1562 85.7617 78.9382 86.3265 78.502 86.7334C78.069 87.1403 77.4066 87.3438 76.5146 87.3438H75.3037V90H73.082V82.8418ZM75.3037 85.8936H75.8457C76.2721 85.8936 76.5716 85.8203 76.7441 85.6738C76.9167 85.5241 77.0029 85.3337 77.0029 85.1025C77.0029 84.8779 76.9281 84.6875 76.7783 84.5312C76.6286 84.375 76.347 84.2969 75.9336 84.2969H75.3037V85.8936ZM80.3477 90V82.8418H84.0342C84.7178 82.8418 85.2402 82.9004 85.6016 83.0176C85.9629 83.1348 86.2542 83.3529 86.4756 83.6719C86.6969 83.9876 86.8076 84.3734 86.8076 84.8291C86.8076 85.2262 86.723 85.5697 86.5537 85.8594C86.3844 86.1458 86.1517 86.3786 85.8555 86.5576C85.6667 86.6715 85.4079 86.766 85.0791 86.8408C85.3428 86.9287 85.5348 87.0166 85.6553 87.1045C85.7367 87.1631 85.8538 87.2884 86.0068 87.4805C86.1631 87.6725 86.2673 87.8206 86.3193 87.9248L87.3887 90H84.8887L83.707 87.8125C83.5573 87.5293 83.4238 87.3454 83.3066 87.2607C83.1471 87.1501 82.9665 87.0947 82.7646 87.0947H82.5693V90H80.3477ZM82.5693 85.7422H83.502C83.6029 85.7422 83.7982 85.7096 84.0879 85.6445C84.2344 85.6152 84.3532 85.5404 84.4443 85.4199C84.5387 85.2995 84.5859 85.1611 84.5859 85.0049C84.5859 84.7738 84.5127 84.5964 84.3662 84.4727C84.2197 84.349 83.9447 84.2871 83.541 84.2871H82.5693V85.7422ZM88.1895 82.8418H90.4062V90H88.1895V82.8418ZM96.7637 87.0752L98.7021 87.6611C98.5719 88.2048 98.3669 88.6589 98.0869 89.0234C97.807 89.388 97.4587 89.6631 97.042 89.8486C96.6286 90.0342 96.1012 90.127 95.46 90.127C94.682 90.127 94.0456 90.0146 93.5508 89.79C93.0592 89.5622 92.6344 89.1634 92.2764 88.5938C91.9183 88.0241 91.7393 87.2949 91.7393 86.4062C91.7393 85.2214 92.0534 84.3115 92.6816 83.6768C93.3132 83.0387 94.2051 82.7197 95.3574 82.7197C96.2591 82.7197 96.9671 82.902 97.4814 83.2666C97.999 83.6312 98.3831 84.1911 98.6338 84.9463L96.6807 85.3809C96.6123 85.1628 96.5407 85.0033 96.4658 84.9023C96.3421 84.7331 96.1908 84.6029 96.0117 84.5117C95.8327 84.4206 95.6325 84.375 95.4111 84.375C94.9098 84.375 94.5257 84.5768 94.2588 84.9805C94.057 85.2799 93.9561 85.7503 93.9561 86.3916C93.9561 87.1859 94.0765 87.7311 94.3174 88.0273C94.5583 88.3203 94.8968 88.4668 95.333 88.4668C95.7562 88.4668 96.0752 88.348 96.29 88.1104C96.5081 87.8727 96.666 87.5277 96.7637 87.0752ZM99.7764 82.8418H105.704V84.3701H101.993V85.5078H105.436V86.9678H101.993V88.3789H105.812V90H99.7764V82.8418Z" fill="#171717"/>
<path d="M240.229 255.842H246.953V257.609H244.697V263H242.485V257.609H240.229V255.842ZM248.047 255.842H250.264V263H248.047V255.842ZM251.831 255.842H254.741L255.864 260.197L256.982 255.842H259.883V263H258.076V257.541L256.675 263H255.039L253.643 257.541V263H251.831V255.842ZM261.294 255.842H267.222V257.37H263.511V258.508H266.953V259.968H263.511V261.379H267.329V263H261.294V255.842ZM271.353 259.621H274.243V261.159H271.353V259.621ZM278.545 255.842H280.757V258.347H283.174V255.842H285.396V263H283.174V260.104H280.757V263H278.545V255.842ZM286.587 259.426C286.587 258.257 286.912 257.347 287.563 256.696C288.215 256.045 289.121 255.72 290.283 255.72C291.475 255.72 292.393 256.04 293.037 256.682C293.682 257.32 294.004 258.215 294.004 259.367C294.004 260.204 293.862 260.891 293.579 261.428C293.299 261.962 292.892 262.378 292.358 262.678C291.828 262.974 291.165 263.122 290.371 263.122C289.564 263.122 288.895 262.993 288.364 262.736C287.837 262.479 287.409 262.072 287.08 261.516C286.751 260.959 286.587 260.262 286.587 259.426ZM288.799 259.436C288.799 260.158 288.932 260.677 289.199 260.993C289.469 261.309 289.836 261.467 290.298 261.467C290.773 261.467 291.141 261.312 291.401 261.003C291.662 260.694 291.792 260.139 291.792 259.338C291.792 258.664 291.655 258.173 291.382 257.863C291.112 257.551 290.744 257.395 290.278 257.395C289.832 257.395 289.474 257.552 289.204 257.868C288.934 258.184 288.799 258.706 288.799 259.436ZM299.854 255.842H302.061V260.109C302.061 260.533 301.994 260.933 301.86 261.311C301.73 261.685 301.523 262.014 301.24 262.297C300.96 262.577 300.666 262.774 300.356 262.888C299.927 263.047 299.411 263.127 298.809 263.127C298.46 263.127 298.079 263.103 297.666 263.054C297.256 263.005 296.912 262.909 296.636 262.766C296.359 262.619 296.105 262.412 295.874 262.146C295.646 261.879 295.49 261.604 295.405 261.32C295.269 260.865 295.2 260.461 295.2 260.109V255.842H297.407V260.212C297.407 260.603 297.515 260.909 297.729 261.13C297.948 261.348 298.249 261.457 298.633 261.457C299.014 261.457 299.312 261.35 299.526 261.135C299.744 260.917 299.854 260.609 299.854 260.212V255.842ZM303.555 263V255.842H307.241C307.925 255.842 308.447 255.9 308.809 256.018C309.17 256.135 309.461 256.353 309.683 256.672C309.904 256.988 310.015 257.373 310.015 257.829C310.015 258.226 309.93 258.57 309.761 258.859C309.591 259.146 309.359 259.379 309.062 259.558C308.874 259.672 308.615 259.766 308.286 259.841C308.55 259.929 308.742 260.017 308.862 260.104C308.944 260.163 309.061 260.288 309.214 260.48C309.37 260.673 309.474 260.821 309.526 260.925L310.596 263H308.096L306.914 260.812C306.764 260.529 306.631 260.345 306.514 260.261C306.354 260.15 306.174 260.095 305.972 260.095H305.776V263H303.555ZM305.776 258.742H306.709C306.81 258.742 307.005 258.71 307.295 258.645C307.441 258.615 307.56 258.54 307.651 258.42C307.746 258.299 307.793 258.161 307.793 258.005C307.793 257.774 307.72 257.596 307.573 257.473C307.427 257.349 307.152 257.287 306.748 257.287H305.776V258.742Z" fill="#171717"/>
<path d="M38.9932 26.9785H41.9326L42.9922 32.5771L44.5371 26.9785H47.4697L49.0215 32.5771L50.0811 26.9785H53.0068L50.7988 37H47.7637L46.0068 30.6904L44.2568 37H41.2217L38.9932 26.9785ZM54.0186 26.9785H62.3174V29.1182H57.1221V30.7109H61.9414V32.7549H57.1221V34.7305H62.4678V37H54.0186V26.9785ZM63.4385 26.9785H72.8516V29.4531H69.6934V37H66.5967V29.4531H63.4385V26.9785ZM74.2734 26.9785H77.3701V30.4854H80.7539V26.9785H83.8643V37H80.7539V32.9463H77.3701V37H74.2734V26.9785ZM90.584 26.9785H95.7314C96.8525 26.9785 97.6911 27.2451 98.2471 27.7783C98.8076 28.3115 99.0879 29.0703 99.0879 30.0547C99.0879 31.0664 98.7826 31.8571 98.1719 32.4268C97.5658 32.9964 96.6383 33.2812 95.3896 33.2812H93.6943V37H90.584V26.9785ZM93.6943 31.251H94.4531C95.0501 31.251 95.4694 31.1484 95.7109 30.9434C95.9525 30.7337 96.0732 30.4671 96.0732 30.1436C96.0732 29.8291 95.9684 29.5625 95.7588 29.3438C95.5492 29.125 95.1549 29.0156 94.5762 29.0156H93.6943V31.251ZM100.756 37V26.9785H105.917C106.874 26.9785 107.605 27.0605 108.111 27.2246C108.617 27.3887 109.025 27.694 109.335 28.1406C109.645 28.5827 109.8 29.1227 109.8 29.7607C109.8 30.3167 109.681 30.7975 109.444 31.2031C109.207 31.6042 108.882 31.93 108.467 32.1807C108.202 32.3402 107.84 32.4723 107.38 32.5771C107.749 32.7002 108.018 32.8232 108.187 32.9463C108.3 33.0283 108.465 33.2038 108.679 33.4727C108.897 33.7415 109.043 33.9489 109.116 34.0947L110.613 37H107.113L105.459 33.9375C105.249 33.541 105.062 33.2835 104.898 33.165C104.675 33.0101 104.422 32.9326 104.14 32.9326H103.866V37H100.756ZM103.866 31.0391H105.172C105.313 31.0391 105.587 30.9935 105.992 30.9023C106.197 30.8613 106.364 30.7565 106.491 30.5879C106.623 30.4193 106.689 30.2256 106.689 30.0068C106.689 29.6833 106.587 29.4349 106.382 29.2617C106.177 29.0885 105.792 29.002 105.227 29.002H103.866V31.0391ZM111.734 26.9785H114.838V37H111.734V26.9785ZM123.738 32.9053L126.452 33.7256C126.27 34.4867 125.983 35.1224 125.591 35.6328C125.199 36.1432 124.711 36.5283 124.128 36.7881C123.549 37.0479 122.811 37.1777 121.913 37.1777C120.824 37.1777 119.933 37.0205 119.24 36.7061C118.552 36.387 117.957 35.8288 117.456 35.0312C116.955 34.2337 116.704 33.2129 116.704 31.9688C116.704 30.3099 117.144 29.0361 118.023 28.1475C118.908 27.2542 120.156 26.8076 121.77 26.8076C123.032 26.8076 124.023 27.0628 124.743 27.5732C125.468 28.0837 126.006 28.8675 126.356 29.9248L123.622 30.5332C123.526 30.2279 123.426 30.0046 123.321 29.8633C123.148 29.6263 122.936 29.444 122.686 29.3164C122.435 29.1888 122.155 29.125 121.845 29.125C121.143 29.125 120.605 29.4076 120.231 29.9727C119.949 30.3919 119.808 31.0505 119.808 31.9482C119.808 33.0602 119.976 33.8236 120.313 34.2383C120.651 34.6484 121.125 34.8535 121.735 34.8535C122.328 34.8535 122.774 34.6872 123.075 34.3545C123.381 34.0218 123.602 33.5387 123.738 32.9053ZM127.956 26.9785H136.255V29.1182H131.06V30.7109H135.879V32.7549H131.06V34.7305H136.405V37H127.956V26.9785ZM141.724 26.9785H144.663L145.723 32.5771L147.268 26.9785H150.2L151.752 32.5771L152.812 26.9785H155.737L153.529 37H150.494L148.737 30.6904L146.987 37H143.952L141.724 26.9785ZM156.879 26.9785H159.982V37H156.879V26.9785ZM161.507 26.9785H170.92V29.4531H167.762V37H164.665V29.4531H161.507V26.9785ZM172.342 26.9785H175.438V30.4854H178.822V26.9785H181.933V37H178.822V32.9463H175.438V37H172.342V26.9785ZM183.601 31.9961C183.601 30.36 184.056 29.0863 184.968 28.1748C185.879 27.2633 187.148 26.8076 188.775 26.8076C190.443 26.8076 191.729 27.2565 192.631 28.1543C193.533 29.0475 193.984 30.3008 193.984 31.9141C193.984 33.0853 193.786 34.0469 193.39 34.7988C192.998 35.5462 192.428 36.1296 191.681 36.5488C190.938 36.9635 190.01 37.1709 188.898 37.1709C187.768 37.1709 186.832 36.9909 186.089 36.6309C185.351 36.2708 184.751 35.7012 184.291 34.9219C183.831 34.1426 183.601 33.1673 183.601 31.9961ZM186.697 32.0098C186.697 33.0215 186.884 33.7484 187.258 34.1904C187.636 34.6325 188.149 34.8535 188.796 34.8535C189.461 34.8535 189.976 34.637 190.341 34.2041C190.705 33.7712 190.888 32.9941 190.888 31.873C190.888 30.9297 190.696 30.2415 190.313 29.8086C189.935 29.3711 189.42 29.1523 188.769 29.1523C188.144 29.1523 187.643 29.3734 187.265 29.8154C186.886 30.2575 186.697 30.9889 186.697 32.0098ZM202.174 26.9785H205.264V32.9531C205.264 33.5456 205.17 34.1061 204.983 34.6348C204.801 35.1589 204.512 35.6191 204.115 36.0156C203.723 36.4076 203.311 36.6833 202.878 36.8428C202.276 37.0661 201.554 37.1777 200.711 37.1777C200.223 37.1777 199.69 37.1436 199.111 37.0752C198.537 37.0068 198.056 36.8724 197.669 36.6719C197.282 36.4668 196.926 36.1774 196.603 35.8037C196.284 35.43 196.065 35.0449 195.946 34.6484C195.755 34.0104 195.659 33.4453 195.659 32.9531V26.9785H198.749V33.0967C198.749 33.6436 198.899 34.0719 199.2 34.3818C199.506 34.6872 199.927 34.8398 200.465 34.8398C200.998 34.8398 201.415 34.6895 201.716 34.3887C202.021 34.0833 202.174 33.6527 202.174 33.0967V26.9785ZM206.61 26.9785H216.023V29.4531H212.865V37H209.769V29.4531H206.61V26.9785ZM222.114 26.9785H227.911C228.877 26.9785 229.618 27.2178 230.133 27.6963C230.652 28.1748 230.912 28.7673 230.912 29.4736C230.912 30.0661 230.728 30.5742 230.358 30.998C230.112 31.2806 229.752 31.5039 229.278 31.668C229.998 31.8411 230.527 32.1396 230.864 32.5635C231.206 32.9827 231.377 33.5114 231.377 34.1494C231.377 34.6689 231.256 35.1361 231.015 35.5508C230.773 35.9655 230.443 36.2936 230.023 36.5352C229.764 36.6855 229.372 36.7949 228.848 36.8633C228.15 36.9544 227.688 37 227.46 37H222.114V26.9785ZM225.238 30.9092H226.585C227.068 30.9092 227.403 30.8271 227.59 30.6631C227.781 30.4945 227.877 30.2529 227.877 29.9385C227.877 29.6468 227.781 29.4189 227.59 29.2549C227.403 29.0908 227.075 29.0088 226.605 29.0088H225.238V30.9092ZM225.238 34.8467H226.817C227.351 34.8467 227.727 34.7533 227.945 34.5664C228.164 34.375 228.273 34.1198 228.273 33.8008C228.273 33.5046 228.164 33.2676 227.945 33.0898C227.731 32.9076 227.353 32.8164 226.811 32.8164H225.238V34.8467ZM239.525 26.9785H242.615V32.9531C242.615 33.5456 242.522 34.1061 242.335 34.6348C242.153 35.1589 241.863 35.6191 241.467 36.0156C241.075 36.4076 240.662 36.6833 240.229 36.8428C239.628 37.0661 238.906 37.1777 238.062 37.1777C237.575 37.1777 237.042 37.1436 236.463 37.0752C235.889 37.0068 235.408 36.8724 235.021 36.6719C234.633 36.4668 234.278 36.1774 233.954 35.8037C233.635 35.43 233.416 35.0449 233.298 34.6484C233.106 34.0104 233.011 33.4453 233.011 32.9531V26.9785H236.101V33.0967C236.101 33.6436 236.251 34.0719 236.552 34.3818C236.857 34.6872 237.279 34.8398 237.816 34.8398C238.35 34.8398 238.767 34.6895 239.067 34.3887C239.373 34.0833 239.525 33.6527 239.525 33.0967V26.9785ZM243.654 26.9785H247.093L249.116 30.3623L251.14 26.9785H254.558L250.661 32.8027V37H247.558V32.8027L243.654 26.9785ZM257.046 26.8076H258.468L255.952 37.1641H254.544L257.046 26.8076ZM258.919 33.6846L261.865 33.5C261.929 33.9785 262.059 34.3431 262.255 34.5938C262.574 34.9993 263.03 35.2021 263.622 35.2021C264.064 35.2021 264.404 35.0996 264.641 34.8945C264.882 34.6849 265.003 34.4434 265.003 34.1699C265.003 33.9102 264.889 33.6777 264.661 33.4727C264.433 33.2676 263.905 33.0739 263.075 32.8916C261.717 32.5863 260.749 32.1807 260.17 31.6748C259.587 31.1689 259.295 30.5241 259.295 29.7402C259.295 29.2253 259.443 28.7399 259.739 28.2842C260.04 27.8239 260.489 27.4639 261.086 27.2041C261.688 26.9398 262.51 26.8076 263.554 26.8076C264.834 26.8076 265.81 27.0469 266.479 27.5254C267.154 27.9993 267.555 28.7559 267.683 29.7949L264.764 29.9658C264.686 29.5146 264.522 29.1865 264.271 28.9814C264.025 28.7764 263.684 28.6738 263.246 28.6738C262.886 28.6738 262.615 28.7513 262.433 28.9062C262.25 29.0566 262.159 29.2412 262.159 29.46C262.159 29.6195 262.234 29.763 262.385 29.8906C262.531 30.0228 262.877 30.1458 263.424 30.2598C264.777 30.5514 265.746 30.8477 266.329 31.1484C266.917 31.4447 267.343 31.8138 267.607 32.2559C267.876 32.6979 268.011 33.1924 268.011 33.7393C268.011 34.3818 267.833 34.9743 267.478 35.5166C267.122 36.0589 266.625 36.4714 265.987 36.7539C265.349 37.0319 264.545 37.1709 263.574 37.1709C261.87 37.1709 260.689 36.8428 260.033 36.1865C259.377 35.5303 259.006 34.6963 258.919 33.6846ZM269.569 26.9785H277.868V29.1182H272.673V30.7109H277.492V32.7549H272.673V34.7305H278.019V37H269.569V26.9785ZM279.693 26.9785H282.79V34.5322H287.623V37H279.693V26.9785ZM289.031 26.9785H292.128V34.5322H296.961V37H289.031V26.9785Z" fill="#171717"/>
</svg>
