<svg width="868" height="522" viewBox="0 0 868 522" fill="none" xmlns="http://www.w3.org/2000/svg">
<path d="M17.2594 504.75H866.5L852.273 521H1V16.0122L17.2594 1V504.75Z" fill="#FBB33B"/>
<rect x="17" y="1" width="850" height="504" fill="white"/>
<path d="M17.2717 1L866.738 1V64.7812M17.2717 1L1 16.0312V79.8125M17.2717 1V64.7812M866.738 504.75L852.5 521H1M866.738 504.75H17.2717M866.738 504.75V64.7812M1 521L17.2717 504.75M1 521V459.25V79.8125M17.2717 504.75V64.7812M17.2717 64.7812H866.738M17.2717 64.7812L1 79.8125" stroke="#171717"/>
<path d="M274.991 27.1152H278.771L280.133 34.3135L282.119 27.1152H285.89L287.885 34.3135L289.247 27.1152H293.009L290.17 40H286.268L284.009 31.8877L281.759 40H277.856L274.991 27.1152ZM294.31 27.1152H304.979V29.8662H298.3V31.9141H304.496V34.542H298.3V37.082H305.173V40H294.31V27.1152ZM306.421 27.1152H318.523V30.2969H314.463V40H310.481V30.2969H306.421V27.1152ZM320.352 27.1152H324.333V31.624H328.684V27.1152H332.683V40H328.684V34.7881H324.333V40H320.352V27.1152ZM341.322 27.1152H347.94C349.382 27.1152 350.46 27.458 351.175 28.1436C351.896 28.8291 352.256 29.8047 352.256 31.0703C352.256 32.3711 351.863 33.3877 351.078 34.1201C350.299 34.8525 349.106 35.2188 347.501 35.2188H345.321V40H341.322V27.1152ZM345.321 32.6084H346.297C347.064 32.6084 347.604 32.4766 347.914 32.2129C348.225 31.9434 348.38 31.6006 348.38 31.1846C348.38 30.7803 348.245 30.4375 347.976 30.1562C347.706 29.875 347.199 29.7344 346.455 29.7344H345.321V32.6084ZM354.4 40V27.1152H361.036C362.267 27.1152 363.207 27.2207 363.857 27.4316C364.508 27.6426 365.032 28.0352 365.431 28.6094C365.829 29.1777 366.028 29.8721 366.028 30.6924C366.028 31.4072 365.876 32.0254 365.571 32.5469C365.267 33.0625 364.848 33.4814 364.314 33.8037C363.975 34.0088 363.509 34.1787 362.917 34.3135C363.392 34.4717 363.737 34.6299 363.954 34.7881C364.101 34.8936 364.312 35.1191 364.587 35.4648C364.868 35.8105 365.056 36.0771 365.149 36.2646L367.074 40H362.574L360.447 36.0625C360.178 35.5527 359.938 35.2217 359.727 35.0693C359.439 34.8701 359.114 34.7705 358.751 34.7705H358.399V40H354.4ZM358.399 32.3359H360.078C360.26 32.3359 360.611 32.2773 361.133 32.1602C361.396 32.1074 361.61 31.9727 361.774 31.7559C361.944 31.5391 362.029 31.29 362.029 31.0088C362.029 30.5928 361.897 30.2734 361.634 30.0508C361.37 29.8281 360.875 29.7168 360.148 29.7168H358.399V32.3359ZM368.516 27.1152H372.506V40H368.516V27.1152ZM383.949 34.7354L387.438 35.79C387.204 36.7686 386.835 37.5859 386.331 38.2422C385.827 38.8984 385.2 39.3936 384.45 39.7275C383.706 40.0615 382.757 40.2285 381.603 40.2285C380.202 40.2285 379.057 40.0264 378.166 39.6221C377.281 39.2119 376.517 38.4941 375.872 37.4688C375.228 36.4434 374.905 35.1309 374.905 33.5312C374.905 31.3984 375.471 29.7607 376.602 28.6182C377.738 27.4697 379.344 26.8955 381.418 26.8955C383.041 26.8955 384.315 27.2236 385.241 27.8799C386.173 28.5361 386.864 29.5439 387.315 30.9033L383.8 31.6855C383.677 31.293 383.548 31.0059 383.413 30.8242C383.19 30.5195 382.918 30.2852 382.596 30.1211C382.273 29.957 381.913 29.875 381.515 29.875C380.612 29.875 379.921 30.2383 379.44 30.9648C379.077 31.5039 378.896 32.3506 378.896 33.5049C378.896 34.9346 379.112 35.916 379.546 36.4492C379.979 36.9766 380.589 37.2402 381.374 37.2402C382.136 37.2402 382.71 37.0264 383.097 36.5986C383.489 36.1709 383.773 35.5498 383.949 34.7354ZM389.372 27.1152H400.042V29.8662H393.362V31.9141H399.559V34.542H393.362V37.082H400.235V40H389.372V27.1152ZM407.073 27.1152H410.853L412.215 34.3135L414.201 27.1152H417.972L419.967 34.3135L421.329 27.1152H425.091L422.252 40H418.35L416.091 31.8877L413.841 40H409.938L407.073 27.1152ZM426.559 27.1152H430.549V40H426.559V27.1152ZM432.509 27.1152H444.611V30.2969H440.551V40H436.569V30.2969H432.509V27.1152ZM446.439 27.1152H450.421V31.624H454.771V27.1152H458.771V40H454.771V34.7881H450.421V40H446.439V27.1152ZM460.915 33.5664C460.915 31.4629 461.501 29.8252 462.673 28.6533C463.845 27.4814 465.477 26.8955 467.568 26.8955C469.713 26.8955 471.365 27.4727 472.525 28.627C473.686 29.7754 474.266 31.3867 474.266 33.4609C474.266 34.9668 474.011 36.2031 473.501 37.1699C472.997 38.1309 472.265 38.8809 471.304 39.4199C470.349 39.9531 469.156 40.2197 467.727 40.2197C466.273 40.2197 465.069 39.9883 464.114 39.5254C463.165 39.0625 462.395 38.3301 461.803 37.3281C461.211 36.3262 460.915 35.0723 460.915 33.5664ZM464.896 33.584C464.896 34.8848 465.137 35.8193 465.617 36.3877C466.104 36.9561 466.763 37.2402 467.595 37.2402C468.45 37.2402 469.112 36.9619 469.581 36.4053C470.05 35.8486 470.284 34.8496 470.284 33.4082C470.284 32.1953 470.038 31.3105 469.546 30.7539C469.06 30.1914 468.397 29.9102 467.56 29.9102C466.757 29.9102 466.112 30.1943 465.626 30.7627C465.14 31.3311 464.896 32.2715 464.896 33.584ZM484.795 27.1152H488.768V34.7969C488.768 35.5586 488.647 36.2793 488.407 36.959C488.173 37.6328 487.801 38.2246 487.291 38.7344C486.787 39.2383 486.257 39.5928 485.7 39.7979C484.927 40.085 483.998 40.2285 482.914 40.2285C482.287 40.2285 481.602 40.1846 480.857 40.0967C480.119 40.0088 479.501 39.8359 479.003 39.5781C478.505 39.3145 478.048 38.9424 477.632 38.4619C477.222 37.9814 476.94 37.4863 476.788 36.9766C476.542 36.1562 476.419 35.4297 476.419 34.7969V27.1152H480.392V34.9814C480.392 35.6846 480.585 36.2354 480.972 36.6338C481.364 37.0264 481.906 37.2227 482.598 37.2227C483.283 37.2227 483.819 37.0293 484.206 36.6426C484.599 36.25 484.795 35.6963 484.795 34.9814V27.1152ZM490.499 27.1152H502.602V30.2969H498.541V40H494.56V30.2969H490.499V27.1152ZM510.433 27.1152H517.886C519.128 27.1152 520.08 27.4229 520.742 28.0381C521.41 28.6533 521.744 29.415 521.744 30.3232C521.744 31.085 521.507 31.7383 521.032 32.2832C520.716 32.6465 520.253 32.9336 519.644 33.1445C520.569 33.3672 521.249 33.751 521.683 34.2959C522.122 34.835 522.342 35.5146 522.342 36.335C522.342 37.0029 522.187 37.6035 521.876 38.1367C521.565 38.6699 521.141 39.0918 520.602 39.4023C520.268 39.5957 519.764 39.7363 519.09 39.8242C518.193 39.9414 517.599 40 517.306 40H510.433V27.1152ZM514.449 32.1689H516.181C516.802 32.1689 517.232 32.0635 517.473 31.8525C517.719 31.6357 517.842 31.3252 517.842 30.9209C517.842 30.5459 517.719 30.2529 517.473 30.042C517.232 29.8311 516.811 29.7256 516.207 29.7256H514.449V32.1689ZM514.449 37.2314H516.479C517.165 37.2314 517.648 37.1113 517.93 36.8711C518.211 36.625 518.352 36.2969 518.352 35.8867C518.352 35.5059 518.211 35.2012 517.93 34.9727C517.654 34.7383 517.168 34.6211 516.471 34.6211H514.449V37.2314ZM532.818 27.1152H536.791V34.7969C536.791 35.5586 536.671 36.2793 536.431 36.959C536.196 37.6328 535.824 38.2246 535.314 38.7344C534.811 39.2383 534.28 39.5928 533.724 39.7979C532.95 40.085 532.021 40.2285 530.938 40.2285C530.311 40.2285 529.625 40.1846 528.881 40.0967C528.143 40.0088 527.524 39.8359 527.026 39.5781C526.528 39.3145 526.071 38.9424 525.655 38.4619C525.245 37.9814 524.964 37.4863 524.812 36.9766C524.565 36.1562 524.442 35.4297 524.442 34.7969V27.1152H528.415V34.9814C528.415 35.6846 528.608 36.2354 528.995 36.6338C529.388 37.0264 529.93 37.2227 530.621 37.2227C531.307 37.2227 531.843 37.0293 532.229 36.6426C532.622 36.25 532.818 35.6963 532.818 34.9814V27.1152ZM538.127 27.1152H542.548L545.149 31.4658L547.751 27.1152H552.146L547.136 34.6035V40H543.146V34.6035L538.127 27.1152ZM555.345 26.8955H557.173L553.938 40.2109H552.128L555.345 26.8955ZM557.753 35.7373L561.541 35.5C561.623 36.1152 561.79 36.584 562.042 36.9062C562.452 37.4277 563.038 37.6885 563.8 37.6885C564.368 37.6885 564.805 37.5566 565.109 37.293C565.42 37.0234 565.575 36.7129 565.575 36.3613C565.575 36.0273 565.429 35.7285 565.136 35.4648C564.843 35.2012 564.163 34.9521 563.097 34.7178C561.351 34.3252 560.105 33.8037 559.361 33.1533C558.611 32.5029 558.236 31.6738 558.236 30.666C558.236 30.0039 558.427 29.3799 558.808 28.7939C559.194 28.2021 559.771 27.7393 560.539 27.4053C561.312 27.0654 562.37 26.8955 563.712 26.8955C565.358 26.8955 566.612 27.2031 567.474 27.8184C568.341 28.4277 568.856 29.4004 569.021 30.7363L565.268 30.9561C565.168 30.376 564.957 29.9541 564.635 29.6904C564.318 29.4268 563.879 29.2949 563.316 29.2949C562.854 29.2949 562.505 29.3945 562.271 29.5938C562.036 29.7871 561.919 30.0244 561.919 30.3057C561.919 30.5107 562.016 30.6953 562.209 30.8594C562.396 31.0293 562.842 31.1875 563.545 31.334C565.285 31.709 566.53 32.0898 567.28 32.4766C568.036 32.8574 568.584 33.332 568.924 33.9004C569.27 34.4688 569.442 35.1045 569.442 35.8076C569.442 36.6338 569.214 37.3955 568.757 38.0928C568.3 38.79 567.661 39.3203 566.841 39.6836C566.021 40.041 564.986 40.2197 563.738 40.2197C561.547 40.2197 560.029 39.7979 559.186 38.9541C558.342 38.1104 557.864 37.0381 557.753 35.7373ZM571.446 27.1152H582.116V29.8662H575.437V31.9141H581.633V34.542H575.437V37.082H582.31V40H571.446V27.1152ZM584.463 27.1152H588.444V36.8271H594.658V40H584.463V27.1152ZM596.469 27.1152H600.45V36.8271H606.664V40H596.469V27.1152Z" fill="#171717"/>
<path fill-rule="evenodd" clip-rule="evenodd" d="M130 107.776L144.493 93L159 107.776L154.422 112.44L147.738 105.629V443.012H773.324L766.487 436.328L771.169 431.75L786 446.243L771.169 460.75L766.487 456.172L773.324 449.488H147.738V449.5H141.262V105.629L134.578 112.44L130 107.776Z" fill="#F68B38"/>
<path d="M144.493 93L144.85 92.6497L144.493 92.2861L144.137 92.6499L144.493 93ZM130 107.776L129.643 107.426L129.3 107.776L129.643 108.126L130 107.776ZM159 107.776L159.357 108.126L159.701 107.776L159.357 107.425L159 107.776ZM154.422 112.44L154.066 112.79L154.422 113.154L154.779 112.79L154.422 112.44ZM147.738 105.629L148.095 105.279L147.238 104.405V105.629H147.738ZM147.738 443.012H147.238V443.512H147.738V443.012ZM773.324 443.012V443.512H774.551L773.674 442.654L773.324 443.012ZM766.487 436.328L766.138 435.97L765.772 436.328L766.138 436.685L766.487 436.328ZM771.169 431.75L771.519 431.392L771.169 431.051L770.82 431.392L771.169 431.75ZM786 446.243L786.35 446.601L786.715 446.243L786.349 445.886L786 446.243ZM771.169 460.75L770.82 461.108L771.169 461.449L771.519 461.107L771.169 460.75ZM766.487 456.172L766.138 455.815L765.772 456.172L766.138 456.53L766.487 456.172ZM773.324 449.488L773.674 449.846L774.551 448.988H773.324V449.488ZM147.738 449.488V448.988H147.238V449.488H147.738ZM147.738 449.5V450H148.238V449.5H147.738ZM141.262 449.5H140.762V450H141.262V449.5ZM141.262 105.629H141.762V104.405L140.905 105.279L141.262 105.629ZM134.578 112.44L134.221 112.79L134.578 113.154L134.934 112.79L134.578 112.44ZM144.137 92.6499L129.643 107.426L130.357 108.126L144.85 93.3501L144.137 92.6499ZM159.357 107.425L144.85 92.6497L144.137 93.3503L158.643 108.126L159.357 107.425ZM154.779 112.79L159.357 108.126L158.643 107.425L154.066 112.09L154.779 112.79ZM147.381 105.979L154.066 112.79L154.779 112.09L148.095 105.279L147.381 105.979ZM148.238 443.012V105.629H147.238V443.012H148.238ZM773.324 442.512H147.738V443.512H773.324V442.512ZM766.138 436.685L772.975 443.369L773.674 442.654L766.837 435.97L766.138 436.685ZM770.82 431.392L766.138 435.97L766.837 436.685L771.519 432.108L770.82 431.392ZM786.349 445.886L771.519 431.392L770.82 432.108L785.651 446.601L786.349 445.886ZM771.519 461.107L786.35 446.601L785.65 445.886L770.82 460.393L771.519 461.107ZM766.138 456.53L770.82 461.108L771.519 460.392L766.837 455.815L766.138 456.53ZM772.975 449.131L766.138 455.815L766.837 456.53L773.674 449.846L772.975 449.131ZM147.738 449.988H773.324V448.988H147.738V449.988ZM148.238 449.5V449.488H147.238V449.5H148.238ZM141.262 450H147.738V449H141.262V450ZM140.762 105.629V449.5H141.762V105.629H140.762ZM134.934 112.79L141.619 105.979L140.905 105.279L134.221 112.09L134.934 112.79ZM129.643 108.126L134.221 112.79L134.934 112.09L130.357 107.425L129.643 108.126Z" fill="black"/>
<path d="M148 376H773" stroke="black" stroke-opacity="0.2" stroke-miterlimit="10"/>
<path d="M320 443L320 93" stroke="black" stroke-opacity="0.2" stroke-miterlimit="10"/>
<path d="M498 443L498 93" stroke="black" stroke-opacity="0.2" stroke-miterlimit="10"/>
<path d="M676 443L676 93" stroke="black" stroke-opacity="0.2" stroke-miterlimit="10"/>
<path d="M148 305L773 305" stroke="black" stroke-opacity="0.2" stroke-miterlimit="10"/>
<path d="M148 234L773 234" stroke="black" stroke-opacity="0.2" stroke-miterlimit="10"/>
<path d="M148 163L773 163" stroke="black" stroke-opacity="0.2" stroke-miterlimit="10"/>
<path d="M144 93H770" stroke="black" stroke-opacity="0.2" stroke-miterlimit="10"/>
<path d="M129.658 456.764C129.658 455.748 129.762 454.932 129.969 454.314C130.18 453.693 130.49 453.215 130.9 452.879C131.314 452.543 131.834 452.375 132.459 452.375C132.92 452.375 133.324 452.469 133.672 452.656C134.02 452.84 134.307 453.107 134.533 453.459C134.76 453.807 134.938 454.232 135.066 454.736C135.195 455.236 135.26 455.912 135.26 456.764C135.26 457.771 135.156 458.586 134.949 459.207C134.742 459.824 134.432 460.303 134.018 460.643C133.607 460.979 133.088 461.146 132.459 461.146C131.631 461.146 130.98 460.85 130.508 460.256C129.941 459.541 129.658 458.377 129.658 456.764ZM130.742 456.764C130.742 458.174 130.906 459.113 131.234 459.582C131.566 460.047 131.975 460.279 132.459 460.279C132.943 460.279 133.35 460.045 133.678 459.576C134.01 459.107 134.176 458.17 134.176 456.764C134.176 455.35 134.01 454.41 133.678 453.945C133.35 453.48 132.939 453.248 132.447 453.248C131.963 453.248 131.576 453.453 131.287 453.863C130.924 454.387 130.742 455.354 130.742 456.764Z" fill="#171717"/>
<path d="M85.498 375.764C85.498 374.748 85.6016 373.932 85.8086 373.314C86.0195 372.693 86.3301 372.215 86.7402 371.879C87.1543 371.543 87.6738 371.375 88.2988 371.375C88.7598 371.375 89.1641 371.469 89.5117 371.656C89.8594 371.84 90.1465 372.107 90.373 372.459C90.5996 372.807 90.7773 373.232 90.9062 373.736C91.0352 374.236 91.0996 374.912 91.0996 375.764C91.0996 376.771 90.9961 377.586 90.7891 378.207C90.582 378.824 90.2715 379.303 89.8574 379.643C89.4473 379.979 88.9277 380.146 88.2988 380.146C87.4707 380.146 86.8203 379.85 86.3477 379.256C85.7812 378.541 85.498 377.377 85.498 375.764ZM86.582 375.764C86.582 377.174 86.7461 378.113 87.0742 378.582C87.4062 379.047 87.8145 379.279 88.2988 379.279C88.7832 379.279 89.1895 379.045 89.5176 378.576C89.8496 378.107 90.0156 377.17 90.0156 375.764C90.0156 374.35 89.8496 373.41 89.5176 372.945C89.1895 372.48 88.7793 372.248 88.2871 372.248C87.8027 372.248 87.416 372.453 87.127 372.863C86.7637 373.387 86.582 374.354 86.582 375.764ZM92.7695 380V378.799H93.9707V380H92.7695ZM95.5176 375.764C95.5176 374.748 95.6211 373.932 95.8281 373.314C96.0391 372.693 96.3496 372.215 96.7598 371.879C97.1738 371.543 97.6934 371.375 98.3184 371.375C98.7793 371.375 99.1836 371.469 99.5312 371.656C99.8789 371.84 100.166 372.107 100.393 372.459C100.619 372.807 100.797 373.232 100.926 373.736C101.055 374.236 101.119 374.912 101.119 375.764C101.119 376.771 101.016 377.586 100.809 378.207C100.602 378.824 100.291 379.303 99.877 379.643C99.4668 379.979 98.9473 380.146 98.3184 380.146C97.4902 380.146 96.8398 379.85 96.3672 379.256C95.8008 378.541 95.5176 377.377 95.5176 375.764ZM96.6016 375.764C96.6016 377.174 96.7656 378.113 97.0938 378.582C97.4258 379.047 97.834 379.279 98.3184 379.279C98.8027 379.279 99.209 379.045 99.5371 378.576C99.8691 378.107 100.035 377.17 100.035 375.764C100.035 374.35 99.8691 373.41 99.5371 372.945C99.209 372.48 98.7988 372.248 98.3066 372.248C97.8223 372.248 97.4355 372.453 97.1465 372.863C96.7832 373.387 96.6016 374.354 96.6016 375.764ZM102.197 375.764C102.197 374.748 102.301 373.932 102.508 373.314C102.719 372.693 103.029 372.215 103.439 371.879C103.854 371.543 104.373 371.375 104.998 371.375C105.459 371.375 105.863 371.469 106.211 371.656C106.559 371.84 106.846 372.107 107.072 372.459C107.299 372.807 107.477 373.232 107.605 373.736C107.734 374.236 107.799 374.912 107.799 375.764C107.799 376.771 107.695 377.586 107.488 378.207C107.281 378.824 106.971 379.303 106.557 379.643C106.146 379.979 105.627 380.146 104.998 380.146C104.17 380.146 103.52 379.85 103.047 379.256C102.48 378.541 102.197 377.377 102.197 375.764ZM103.281 375.764C103.281 377.174 103.445 378.113 103.773 378.582C104.105 379.047 104.514 379.279 104.998 379.279C105.482 379.279 105.889 379.045 106.217 378.576C106.549 378.107 106.715 377.17 106.715 375.764C106.715 374.35 106.549 373.41 106.217 372.945C105.889 372.48 105.479 372.248 104.986 372.248C104.502 372.248 104.115 372.453 103.826 372.863C103.463 373.387 103.281 374.354 103.281 375.764ZM108.877 375.764C108.877 374.748 108.98 373.932 109.188 373.314C109.398 372.693 109.709 372.215 110.119 371.879C110.533 371.543 111.053 371.375 111.678 371.375C112.139 371.375 112.543 371.469 112.891 371.656C113.238 371.84 113.525 372.107 113.752 372.459C113.979 372.807 114.156 373.232 114.285 373.736C114.414 374.236 114.479 374.912 114.479 375.764C114.479 376.771 114.375 377.586 114.168 378.207C113.961 378.824 113.65 379.303 113.236 379.643C112.826 379.979 112.307 380.146 111.678 380.146C110.85 380.146 110.199 379.85 109.727 379.256C109.16 378.541 108.877 377.377 108.877 375.764ZM109.961 375.764C109.961 377.174 110.125 378.113 110.453 378.582C110.785 379.047 111.193 379.279 111.678 379.279C112.162 379.279 112.568 379.045 112.896 378.576C113.229 378.107 113.395 377.17 113.395 375.764C113.395 374.35 113.229 373.41 112.896 372.945C112.568 372.48 112.158 372.248 111.666 372.248C111.182 372.248 110.795 372.453 110.506 372.863C110.143 373.387 109.961 374.354 109.961 375.764ZM115.557 377.75L116.664 377.656C116.746 378.195 116.936 378.602 117.232 378.875C117.533 379.145 117.895 379.279 118.316 379.279C118.824 379.279 119.254 379.088 119.605 378.705C119.957 378.322 120.133 377.814 120.133 377.182C120.133 376.58 119.963 376.105 119.623 375.758C119.287 375.41 118.846 375.236 118.299 375.236C117.959 375.236 117.652 375.314 117.379 375.471C117.105 375.623 116.891 375.822 116.734 376.068L115.744 375.939L116.576 371.527H120.848V372.535H117.42L116.957 374.844C117.473 374.484 118.014 374.305 118.58 374.305C119.33 374.305 119.963 374.564 120.479 375.084C120.994 375.604 121.252 376.271 121.252 377.088C121.252 377.865 121.025 378.537 120.572 379.104C120.021 379.799 119.27 380.146 118.316 380.146C117.535 380.146 116.896 379.928 116.4 379.49C115.908 379.053 115.627 378.473 115.557 377.75ZM122.236 375.764C122.236 374.748 122.34 373.932 122.547 373.314C122.758 372.693 123.068 372.215 123.479 371.879C123.893 371.543 124.412 371.375 125.037 371.375C125.498 371.375 125.902 371.469 126.25 371.656C126.598 371.84 126.885 372.107 127.111 372.459C127.338 372.807 127.516 373.232 127.645 373.736C127.773 374.236 127.838 374.912 127.838 375.764C127.838 376.771 127.734 377.586 127.527 378.207C127.32 378.824 127.01 379.303 126.596 379.643C126.186 379.979 125.666 380.146 125.037 380.146C124.209 380.146 123.559 379.85 123.086 379.256C122.52 378.541 122.236 377.377 122.236 375.764ZM123.32 375.764C123.32 377.174 123.484 378.113 123.812 378.582C124.145 379.047 124.553 379.279 125.037 379.279C125.521 379.279 125.928 379.045 126.256 378.576C126.588 378.107 126.754 377.17 126.754 375.764C126.754 374.35 126.588 373.41 126.256 372.945C125.928 372.48 125.518 372.248 125.025 372.248C124.541 372.248 124.154 372.453 123.865 372.863C123.502 373.387 123.32 374.354 123.32 375.764ZM128.916 375.764C128.916 374.748 129.02 373.932 129.227 373.314C129.438 372.693 129.748 372.215 130.158 371.879C130.572 371.543 131.092 371.375 131.717 371.375C132.178 371.375 132.582 371.469 132.93 371.656C133.277 371.84 133.564 372.107 133.791 372.459C134.018 372.807 134.195 373.232 134.324 373.736C134.453 374.236 134.518 374.912 134.518 375.764C134.518 376.771 134.414 377.586 134.207 378.207C134 378.824 133.689 379.303 133.275 379.643C132.865 379.979 132.346 380.146 131.717 380.146C130.889 380.146 130.238 379.85 129.766 379.256C129.199 378.541 128.916 377.377 128.916 375.764ZM130 375.764C130 377.174 130.164 378.113 130.492 378.582C130.824 379.047 131.232 379.279 131.717 379.279C132.201 379.279 132.607 379.045 132.936 378.576C133.268 378.107 133.434 377.17 133.434 375.764C133.434 374.35 133.268 373.41 132.936 372.945C132.607 372.48 132.197 372.248 131.705 372.248C131.221 372.248 130.834 372.453 130.545 372.863C130.182 373.387 130 374.354 130 375.764Z" fill="#171717"/>
<path d="M85.498 304.764C85.498 303.748 85.6016 302.932 85.8086 302.314C86.0195 301.693 86.3301 301.215 86.7402 300.879C87.1543 300.543 87.6738 300.375 88.2988 300.375C88.7598 300.375 89.1641 300.469 89.5117 300.656C89.8594 300.84 90.1465 301.107 90.373 301.459C90.5996 301.807 90.7773 302.232 90.9062 302.736C91.0352 303.236 91.0996 303.912 91.0996 304.764C91.0996 305.771 90.9961 306.586 90.7891 307.207C90.582 307.824 90.2715 308.303 89.8574 308.643C89.4473 308.979 88.9277 309.146 88.2988 309.146C87.4707 309.146 86.8203 308.85 86.3477 308.256C85.7812 307.541 85.498 306.377 85.498 304.764ZM86.582 304.764C86.582 306.174 86.7461 307.113 87.0742 307.582C87.4062 308.047 87.8145 308.279 88.2988 308.279C88.7832 308.279 89.1895 308.045 89.5176 307.576C89.8496 307.107 90.0156 306.17 90.0156 304.764C90.0156 303.35 89.8496 302.41 89.5176 301.945C89.1895 301.48 88.7793 301.248 88.2871 301.248C87.8027 301.248 87.416 301.453 87.127 301.863C86.7637 302.387 86.582 303.354 86.582 304.764ZM92.7695 309V307.799H93.9707V309H92.7695ZM95.5176 304.764C95.5176 303.748 95.6211 302.932 95.8281 302.314C96.0391 301.693 96.3496 301.215 96.7598 300.879C97.1738 300.543 97.6934 300.375 98.3184 300.375C98.7793 300.375 99.1836 300.469 99.5312 300.656C99.8789 300.84 100.166 301.107 100.393 301.459C100.619 301.807 100.797 302.232 100.926 302.736C101.055 303.236 101.119 303.912 101.119 304.764C101.119 305.771 101.016 306.586 100.809 307.207C100.602 307.824 100.291 308.303 99.877 308.643C99.4668 308.979 98.9473 309.146 98.3184 309.146C97.4902 309.146 96.8398 308.85 96.3672 308.256C95.8008 307.541 95.5176 306.377 95.5176 304.764ZM96.6016 304.764C96.6016 306.174 96.7656 307.113 97.0938 307.582C97.4258 308.047 97.834 308.279 98.3184 308.279C98.8027 308.279 99.209 308.045 99.5371 307.576C99.8691 307.107 100.035 306.17 100.035 304.764C100.035 303.35 99.8691 302.41 99.5371 301.945C99.209 301.48 98.7988 301.248 98.3066 301.248C97.8223 301.248 97.4355 301.453 97.1465 301.863C96.7832 302.387 96.6016 303.354 96.6016 304.764ZM102.197 304.764C102.197 303.748 102.301 302.932 102.508 302.314C102.719 301.693 103.029 301.215 103.439 300.879C103.854 300.543 104.373 300.375 104.998 300.375C105.459 300.375 105.863 300.469 106.211 300.656C106.559 300.84 106.846 301.107 107.072 301.459C107.299 301.807 107.477 302.232 107.605 302.736C107.734 303.236 107.799 303.912 107.799 304.764C107.799 305.771 107.695 306.586 107.488 307.207C107.281 307.824 106.971 308.303 106.557 308.643C106.146 308.979 105.627 309.146 104.998 309.146C104.17 309.146 103.52 308.85 103.047 308.256C102.48 307.541 102.197 306.377 102.197 304.764ZM103.281 304.764C103.281 306.174 103.445 307.113 103.773 307.582C104.105 308.047 104.514 308.279 104.998 308.279C105.482 308.279 105.889 308.045 106.217 307.576C106.549 307.107 106.715 306.17 106.715 304.764C106.715 303.35 106.549 302.41 106.217 301.945C105.889 301.48 105.479 301.248 104.986 301.248C104.502 301.248 104.115 301.453 103.826 301.863C103.463 302.387 103.281 303.354 103.281 304.764ZM112.85 309H111.795V302.279C111.541 302.521 111.207 302.764 110.793 303.006C110.383 303.248 110.014 303.43 109.686 303.551V302.531C110.275 302.254 110.791 301.918 111.232 301.523C111.674 301.129 111.986 300.746 112.17 300.375H112.85V309ZM115.557 304.764C115.557 303.748 115.66 302.932 115.867 302.314C116.078 301.693 116.389 301.215 116.799 300.879C117.213 300.543 117.732 300.375 118.357 300.375C118.818 300.375 119.223 300.469 119.57 300.656C119.918 300.84 120.205 301.107 120.432 301.459C120.658 301.807 120.836 302.232 120.965 302.736C121.094 303.236 121.158 303.912 121.158 304.764C121.158 305.771 121.055 306.586 120.848 307.207C120.641 307.824 120.33 308.303 119.916 308.643C119.506 308.979 118.986 309.146 118.357 309.146C117.529 309.146 116.879 308.85 116.406 308.256C115.84 307.541 115.557 306.377 115.557 304.764ZM116.641 304.764C116.641 306.174 116.805 307.113 117.133 307.582C117.465 308.047 117.873 308.279 118.357 308.279C118.842 308.279 119.248 308.045 119.576 307.576C119.908 307.107 120.074 306.17 120.074 304.764C120.074 303.35 119.908 302.41 119.576 301.945C119.248 301.48 118.838 301.248 118.346 301.248C117.861 301.248 117.475 301.453 117.186 301.863C116.822 302.387 116.641 303.354 116.641 304.764ZM122.236 304.764C122.236 303.748 122.34 302.932 122.547 302.314C122.758 301.693 123.068 301.215 123.479 300.879C123.893 300.543 124.412 300.375 125.037 300.375C125.498 300.375 125.902 300.469 126.25 300.656C126.598 300.84 126.885 301.107 127.111 301.459C127.338 301.807 127.516 302.232 127.645 302.736C127.773 303.236 127.838 303.912 127.838 304.764C127.838 305.771 127.734 306.586 127.527 307.207C127.32 307.824 127.01 308.303 126.596 308.643C126.186 308.979 125.666 309.146 125.037 309.146C124.209 309.146 123.559 308.85 123.086 308.256C122.52 307.541 122.236 306.377 122.236 304.764ZM123.32 304.764C123.32 306.174 123.484 307.113 123.812 307.582C124.145 308.047 124.553 308.279 125.037 308.279C125.521 308.279 125.928 308.045 126.256 307.576C126.588 307.107 126.754 306.17 126.754 304.764C126.754 303.35 126.588 302.41 126.256 301.945C125.928 301.48 125.518 301.248 125.025 301.248C124.541 301.248 124.154 301.453 123.865 301.863C123.502 302.387 123.32 303.354 123.32 304.764ZM128.916 304.764C128.916 303.748 129.02 302.932 129.227 302.314C129.438 301.693 129.748 301.215 130.158 300.879C130.572 300.543 131.092 300.375 131.717 300.375C132.178 300.375 132.582 300.469 132.93 300.656C133.277 300.84 133.564 301.107 133.791 301.459C134.018 301.807 134.195 302.232 134.324 302.736C134.453 303.236 134.518 303.912 134.518 304.764C134.518 305.771 134.414 306.586 134.207 307.207C134 307.824 133.689 308.303 133.275 308.643C132.865 308.979 132.346 309.146 131.717 309.146C130.889 309.146 130.238 308.85 129.766 308.256C129.199 307.541 128.916 306.377 128.916 304.764ZM130 304.764C130 306.174 130.164 307.113 130.492 307.582C130.824 308.047 131.232 308.279 131.717 308.279C132.201 308.279 132.607 308.045 132.936 307.576C133.268 307.107 133.434 306.17 133.434 304.764C133.434 303.35 133.268 302.41 132.936 301.945C132.607 301.48 132.197 301.248 131.705 301.248C131.221 301.248 130.834 301.453 130.545 301.863C130.182 302.387 130 303.354 130 304.764Z" fill="#171717"/>
<path d="M85.498 233.764C85.498 232.748 85.6016 231.932 85.8086 231.314C86.0195 230.693 86.3301 230.215 86.7402 229.879C87.1543 229.543 87.6738 229.375 88.2988 229.375C88.7598 229.375 89.1641 229.469 89.5117 229.656C89.8594 229.84 90.1465 230.107 90.373 230.459C90.5996 230.807 90.7773 231.232 90.9062 231.736C91.0352 232.236 91.0996 232.912 91.0996 233.764C91.0996 234.771 90.9961 235.586 90.7891 236.207C90.582 236.824 90.2715 237.303 89.8574 237.643C89.4473 237.979 88.9277 238.146 88.2988 238.146C87.4707 238.146 86.8203 237.85 86.3477 237.256C85.7812 236.541 85.498 235.377 85.498 233.764ZM86.582 233.764C86.582 235.174 86.7461 236.113 87.0742 236.582C87.4062 237.047 87.8145 237.279 88.2988 237.279C88.7832 237.279 89.1895 237.045 89.5176 236.576C89.8496 236.107 90.0156 235.17 90.0156 233.764C90.0156 232.35 89.8496 231.41 89.5176 230.945C89.1895 230.48 88.7793 230.248 88.2871 230.248C87.8027 230.248 87.416 230.453 87.127 230.863C86.7637 231.387 86.582 232.354 86.582 233.764ZM92.7695 238V236.799H93.9707V238H92.7695ZM95.5176 233.764C95.5176 232.748 95.6211 231.932 95.8281 231.314C96.0391 230.693 96.3496 230.215 96.7598 229.879C97.1738 229.543 97.6934 229.375 98.3184 229.375C98.7793 229.375 99.1836 229.469 99.5312 229.656C99.8789 229.84 100.166 230.107 100.393 230.459C100.619 230.807 100.797 231.232 100.926 231.736C101.055 232.236 101.119 232.912 101.119 233.764C101.119 234.771 101.016 235.586 100.809 236.207C100.602 236.824 100.291 237.303 99.877 237.643C99.4668 237.979 98.9473 238.146 98.3184 238.146C97.4902 238.146 96.8398 237.85 96.3672 237.256C95.8008 236.541 95.5176 235.377 95.5176 233.764ZM96.6016 233.764C96.6016 235.174 96.7656 236.113 97.0938 236.582C97.4258 237.047 97.834 237.279 98.3184 237.279C98.8027 237.279 99.209 237.045 99.5371 236.576C99.8691 236.107 100.035 235.17 100.035 233.764C100.035 232.35 99.8691 231.41 99.5371 230.945C99.209 230.48 98.7988 230.248 98.3066 230.248C97.8223 230.248 97.4355 230.453 97.1465 230.863C96.7832 231.387 96.6016 232.354 96.6016 233.764ZM102.197 233.764C102.197 232.748 102.301 231.932 102.508 231.314C102.719 230.693 103.029 230.215 103.439 229.879C103.854 229.543 104.373 229.375 104.998 229.375C105.459 229.375 105.863 229.469 106.211 229.656C106.559 229.84 106.846 230.107 107.072 230.459C107.299 230.807 107.477 231.232 107.605 231.736C107.734 232.236 107.799 232.912 107.799 233.764C107.799 234.771 107.695 235.586 107.488 236.207C107.281 236.824 106.971 237.303 106.557 237.643C106.146 237.979 105.627 238.146 104.998 238.146C104.17 238.146 103.52 237.85 103.047 237.256C102.48 236.541 102.197 235.377 102.197 233.764ZM103.281 233.764C103.281 235.174 103.445 236.113 103.773 236.582C104.105 237.047 104.514 237.279 104.998 237.279C105.482 237.279 105.889 237.045 106.217 236.576C106.549 236.107 106.715 235.17 106.715 233.764C106.715 232.35 106.549 231.41 106.217 230.945C105.889 230.48 105.479 230.248 104.986 230.248C104.502 230.248 104.115 230.453 103.826 230.863C103.463 231.387 103.281 232.354 103.281 233.764ZM112.85 238H111.795V231.279C111.541 231.521 111.207 231.764 110.793 232.006C110.383 232.248 110.014 232.43 109.686 232.551V231.531C110.275 231.254 110.791 230.918 111.232 230.523C111.674 230.129 111.986 229.746 112.17 229.375H112.85V238ZM115.557 235.75L116.664 235.656C116.746 236.195 116.936 236.602 117.232 236.875C117.533 237.145 117.895 237.279 118.316 237.279C118.824 237.279 119.254 237.088 119.605 236.705C119.957 236.322 120.133 235.814 120.133 235.182C120.133 234.58 119.963 234.105 119.623 233.758C119.287 233.41 118.846 233.236 118.299 233.236C117.959 233.236 117.652 233.314 117.379 233.471C117.105 233.623 116.891 233.822 116.734 234.068L115.744 233.939L116.576 229.527H120.848V230.535H117.42L116.957 232.844C117.473 232.484 118.014 232.305 118.58 232.305C119.33 232.305 119.963 232.564 120.479 233.084C120.994 233.604 121.252 234.271 121.252 235.088C121.252 235.865 121.025 236.537 120.572 237.104C120.021 237.799 119.27 238.146 118.316 238.146C117.535 238.146 116.896 237.928 116.4 237.49C115.908 237.053 115.627 236.473 115.557 235.75ZM122.236 233.764C122.236 232.748 122.34 231.932 122.547 231.314C122.758 230.693 123.068 230.215 123.479 229.879C123.893 229.543 124.412 229.375 125.037 229.375C125.498 229.375 125.902 229.469 126.25 229.656C126.598 229.84 126.885 230.107 127.111 230.459C127.338 230.807 127.516 231.232 127.645 231.736C127.773 232.236 127.838 232.912 127.838 233.764C127.838 234.771 127.734 235.586 127.527 236.207C127.32 236.824 127.01 237.303 126.596 237.643C126.186 237.979 125.666 238.146 125.037 238.146C124.209 238.146 123.559 237.85 123.086 237.256C122.52 236.541 122.236 235.377 122.236 233.764ZM123.32 233.764C123.32 235.174 123.484 236.113 123.812 236.582C124.145 237.047 124.553 237.279 125.037 237.279C125.521 237.279 125.928 237.045 126.256 236.576C126.588 236.107 126.754 235.17 126.754 233.764C126.754 232.35 126.588 231.41 126.256 230.945C125.928 230.48 125.518 230.248 125.025 230.248C124.541 230.248 124.154 230.453 123.865 230.863C123.502 231.387 123.32 232.354 123.32 233.764ZM128.916 233.764C128.916 232.748 129.02 231.932 129.227 231.314C129.438 230.693 129.748 230.215 130.158 229.879C130.572 229.543 131.092 229.375 131.717 229.375C132.178 229.375 132.582 229.469 132.93 229.656C133.277 229.84 133.564 230.107 133.791 230.459C134.018 230.807 134.195 231.232 134.324 231.736C134.453 232.236 134.518 232.912 134.518 233.764C134.518 234.771 134.414 235.586 134.207 236.207C134 236.824 133.689 237.303 133.275 237.643C132.865 237.979 132.346 238.146 131.717 238.146C130.889 238.146 130.238 237.85 129.766 237.256C129.199 236.541 128.916 235.377 128.916 233.764ZM130 233.764C130 235.174 130.164 236.113 130.492 236.582C130.824 237.047 131.232 237.279 131.717 237.279C132.201 237.279 132.607 237.045 132.936 236.576C133.268 236.107 133.434 235.17 133.434 233.764C133.434 232.35 133.268 231.41 132.936 230.945C132.607 230.48 132.197 230.248 131.705 230.248C131.221 230.248 130.834 230.453 130.545 230.863C130.182 231.387 130 232.354 130 233.764Z" fill="#171717"/>
<path d="M85.498 162.764C85.498 161.748 85.6016 160.932 85.8086 160.314C86.0195 159.693 86.3301 159.215 86.7402 158.879C87.1543 158.543 87.6738 158.375 88.2988 158.375C88.7598 158.375 89.1641 158.469 89.5117 158.656C89.8594 158.84 90.1465 159.107 90.373 159.459C90.5996 159.807 90.7773 160.232 90.9062 160.736C91.0352 161.236 91.0996 161.912 91.0996 162.764C91.0996 163.771 90.9961 164.586 90.7891 165.207C90.582 165.824 90.2715 166.303 89.8574 166.643C89.4473 166.979 88.9277 167.146 88.2988 167.146C87.4707 167.146 86.8203 166.85 86.3477 166.256C85.7812 165.541 85.498 164.377 85.498 162.764ZM86.582 162.764C86.582 164.174 86.7461 165.113 87.0742 165.582C87.4062 166.047 87.8145 166.279 88.2988 166.279C88.7832 166.279 89.1895 166.045 89.5176 165.576C89.8496 165.107 90.0156 164.17 90.0156 162.764C90.0156 161.35 89.8496 160.41 89.5176 159.945C89.1895 159.48 88.7793 159.248 88.2871 159.248C87.8027 159.248 87.416 159.453 87.127 159.863C86.7637 160.387 86.582 161.354 86.582 162.764ZM92.7695 167V165.799H93.9707V167H92.7695ZM95.5176 162.764C95.5176 161.748 95.6211 160.932 95.8281 160.314C96.0391 159.693 96.3496 159.215 96.7598 158.879C97.1738 158.543 97.6934 158.375 98.3184 158.375C98.7793 158.375 99.1836 158.469 99.5312 158.656C99.8789 158.84 100.166 159.107 100.393 159.459C100.619 159.807 100.797 160.232 100.926 160.736C101.055 161.236 101.119 161.912 101.119 162.764C101.119 163.771 101.016 164.586 100.809 165.207C100.602 165.824 100.291 166.303 99.877 166.643C99.4668 166.979 98.9473 167.146 98.3184 167.146C97.4902 167.146 96.8398 166.85 96.3672 166.256C95.8008 165.541 95.5176 164.377 95.5176 162.764ZM96.6016 162.764C96.6016 164.174 96.7656 165.113 97.0938 165.582C97.4258 166.047 97.834 166.279 98.3184 166.279C98.8027 166.279 99.209 166.045 99.5371 165.576C99.8691 165.107 100.035 164.17 100.035 162.764C100.035 161.35 99.8691 160.41 99.5371 159.945C99.209 159.48 98.7988 159.248 98.3066 159.248C97.8223 159.248 97.4355 159.453 97.1465 159.863C96.7832 160.387 96.6016 161.354 96.6016 162.764ZM102.197 162.764C102.197 161.748 102.301 160.932 102.508 160.314C102.719 159.693 103.029 159.215 103.439 158.879C103.854 158.543 104.373 158.375 104.998 158.375C105.459 158.375 105.863 158.469 106.211 158.656C106.559 158.84 106.846 159.107 107.072 159.459C107.299 159.807 107.477 160.232 107.605 160.736C107.734 161.236 107.799 161.912 107.799 162.764C107.799 163.771 107.695 164.586 107.488 165.207C107.281 165.824 106.971 166.303 106.557 166.643C106.146 166.979 105.627 167.146 104.998 167.146C104.17 167.146 103.52 166.85 103.047 166.256C102.48 165.541 102.197 164.377 102.197 162.764ZM103.281 162.764C103.281 164.174 103.445 165.113 103.773 165.582C104.105 166.047 104.514 166.279 104.998 166.279C105.482 166.279 105.889 166.045 106.217 165.576C106.549 165.107 106.715 164.17 106.715 162.764C106.715 161.35 106.549 160.41 106.217 159.945C105.889 159.48 105.479 159.248 104.986 159.248C104.502 159.248 104.115 159.453 103.826 159.863C103.463 160.387 103.281 161.354 103.281 162.764ZM114.42 165.986V167H108.742C108.734 166.746 108.775 166.502 108.865 166.268C109.01 165.881 109.24 165.5 109.557 165.125C109.877 164.75 110.338 164.316 110.939 163.824C111.873 163.059 112.504 162.453 112.832 162.008C113.16 161.559 113.324 161.135 113.324 160.736C113.324 160.318 113.174 159.967 112.873 159.682C112.576 159.393 112.188 159.248 111.707 159.248C111.199 159.248 110.793 159.4 110.488 159.705C110.184 160.01 110.029 160.432 110.025 160.971L108.941 160.859C109.016 160.051 109.295 159.436 109.779 159.014C110.264 158.588 110.914 158.375 111.73 158.375C112.555 158.375 113.207 158.604 113.688 159.061C114.168 159.518 114.408 160.084 114.408 160.76C114.408 161.104 114.338 161.441 114.197 161.773C114.057 162.105 113.822 162.455 113.494 162.822C113.17 163.189 112.629 163.693 111.871 164.334C111.238 164.865 110.832 165.227 110.652 165.418C110.473 165.605 110.324 165.795 110.207 165.986H114.42ZM115.557 162.764C115.557 161.748 115.66 160.932 115.867 160.314C116.078 159.693 116.389 159.215 116.799 158.879C117.213 158.543 117.732 158.375 118.357 158.375C118.818 158.375 119.223 158.469 119.57 158.656C119.918 158.84 120.205 159.107 120.432 159.459C120.658 159.807 120.836 160.232 120.965 160.736C121.094 161.236 121.158 161.912 121.158 162.764C121.158 163.771 121.055 164.586 120.848 165.207C120.641 165.824 120.33 166.303 119.916 166.643C119.506 166.979 118.986 167.146 118.357 167.146C117.529 167.146 116.879 166.85 116.406 166.256C115.84 165.541 115.557 164.377 115.557 162.764ZM116.641 162.764C116.641 164.174 116.805 165.113 117.133 165.582C117.465 166.047 117.873 166.279 118.357 166.279C118.842 166.279 119.248 166.045 119.576 165.576C119.908 165.107 120.074 164.17 120.074 162.764C120.074 161.35 119.908 160.41 119.576 159.945C119.248 159.48 118.838 159.248 118.346 159.248C117.861 159.248 117.475 159.453 117.186 159.863C116.822 160.387 116.641 161.354 116.641 162.764ZM122.236 162.764C122.236 161.748 122.34 160.932 122.547 160.314C122.758 159.693 123.068 159.215 123.479 158.879C123.893 158.543 124.412 158.375 125.037 158.375C125.498 158.375 125.902 158.469 126.25 158.656C126.598 158.84 126.885 159.107 127.111 159.459C127.338 159.807 127.516 160.232 127.645 160.736C127.773 161.236 127.838 161.912 127.838 162.764C127.838 163.771 127.734 164.586 127.527 165.207C127.32 165.824 127.01 166.303 126.596 166.643C126.186 166.979 125.666 167.146 125.037 167.146C124.209 167.146 123.559 166.85 123.086 166.256C122.52 165.541 122.236 164.377 122.236 162.764ZM123.32 162.764C123.32 164.174 123.484 165.113 123.812 165.582C124.145 166.047 124.553 166.279 125.037 166.279C125.521 166.279 125.928 166.045 126.256 165.576C126.588 165.107 126.754 164.17 126.754 162.764C126.754 161.35 126.588 160.41 126.256 159.945C125.928 159.48 125.518 159.248 125.025 159.248C124.541 159.248 124.154 159.453 123.865 159.863C123.502 160.387 123.32 161.354 123.32 162.764ZM128.916 162.764C128.916 161.748 129.02 160.932 129.227 160.314C129.438 159.693 129.748 159.215 130.158 158.879C130.572 158.543 131.092 158.375 131.717 158.375C132.178 158.375 132.582 158.469 132.93 158.656C133.277 158.84 133.564 159.107 133.791 159.459C134.018 159.807 134.195 160.232 134.324 160.736C134.453 161.236 134.518 161.912 134.518 162.764C134.518 163.771 134.414 164.586 134.207 165.207C134 165.824 133.689 166.303 133.275 166.643C132.865 166.979 132.346 167.146 131.717 167.146C130.889 167.146 130.238 166.85 129.766 166.256C129.199 165.541 128.916 164.377 128.916 162.764ZM130 162.764C130 164.174 130.164 165.113 130.492 165.582C130.824 166.047 131.232 166.279 131.717 166.279C132.201 166.279 132.607 166.045 132.936 165.576C133.268 165.107 133.434 164.17 133.434 162.764C133.434 161.35 133.268 160.41 132.936 159.945C132.607 159.48 132.197 159.248 131.705 159.248C131.221 159.248 130.834 159.453 130.545 159.863C130.182 160.387 130 161.354 130 162.764Z" fill="#171717"/>
<path d="M319.361 462.986V464H313.684C313.676 463.746 313.717 463.502 313.807 463.268C313.951 462.881 314.182 462.5 314.498 462.125C314.818 461.75 315.279 461.316 315.881 460.824C316.814 460.059 317.445 459.453 317.773 459.008C318.102 458.559 318.266 458.135 318.266 457.736C318.266 457.318 318.115 456.967 317.814 456.682C317.518 456.393 317.129 456.248 316.648 456.248C316.141 456.248 315.734 456.4 315.43 456.705C315.125 457.01 314.971 457.432 314.967 457.971L313.883 457.859C313.957 457.051 314.236 456.436 314.721 456.014C315.205 455.588 315.855 455.375 316.672 455.375C317.496 455.375 318.148 455.604 318.629 456.061C319.109 456.518 319.35 457.084 319.35 457.76C319.35 458.104 319.279 458.441 319.139 458.773C318.998 459.105 318.764 459.455 318.436 459.822C318.111 460.189 317.57 460.693 316.812 461.334C316.18 461.865 315.773 462.227 315.594 462.418C315.414 462.605 315.266 462.795 315.148 462.986H319.361ZM320.498 459.764C320.498 458.748 320.602 457.932 320.809 457.314C321.02 456.693 321.33 456.215 321.74 455.879C322.154 455.543 322.674 455.375 323.299 455.375C323.76 455.375 324.164 455.469 324.512 455.656C324.859 455.84 325.146 456.107 325.373 456.459C325.6 456.807 325.777 457.232 325.906 457.736C326.035 458.236 326.1 458.912 326.1 459.764C326.1 460.771 325.996 461.586 325.789 462.207C325.582 462.824 325.271 463.303 324.857 463.643C324.447 463.979 323.928 464.146 323.299 464.146C322.471 464.146 321.82 463.85 321.348 463.256C320.781 462.541 320.498 461.377 320.498 459.764ZM321.582 459.764C321.582 461.174 321.746 462.113 322.074 462.582C322.406 463.047 322.814 463.279 323.299 463.279C323.783 463.279 324.189 463.045 324.518 462.576C324.85 462.107 325.016 461.17 325.016 459.764C325.016 458.35 324.85 457.41 324.518 456.945C324.189 456.48 323.779 456.248 323.287 456.248C322.803 456.248 322.416 456.453 322.127 456.863C321.764 457.387 321.582 458.354 321.582 459.764Z" fill="#171717"/>
<path d="M495.199 464V461.943H491.473V460.977L495.393 455.41H496.254V460.977H497.414V461.943H496.254V464H495.199ZM495.199 460.977V457.104L492.51 460.977H495.199ZM498.498 459.764C498.498 458.748 498.602 457.932 498.809 457.314C499.02 456.693 499.33 456.215 499.74 455.879C500.154 455.543 500.674 455.375 501.299 455.375C501.76 455.375 502.164 455.469 502.512 455.656C502.859 455.84 503.146 456.107 503.373 456.459C503.6 456.807 503.777 457.232 503.906 457.736C504.035 458.236 504.1 458.912 504.1 459.764C504.1 460.771 503.996 461.586 503.789 462.207C503.582 462.824 503.271 463.303 502.857 463.643C502.447 463.979 501.928 464.146 501.299 464.146C500.471 464.146 499.82 463.85 499.348 463.256C498.781 462.541 498.498 461.377 498.498 459.764ZM499.582 459.764C499.582 461.174 499.746 462.113 500.074 462.582C500.406 463.047 500.814 463.279 501.299 463.279C501.783 463.279 502.189 463.045 502.518 462.576C502.85 462.107 503.016 461.17 503.016 459.764C503.016 458.35 502.85 457.41 502.518 456.945C502.189 456.48 501.779 456.248 501.287 456.248C500.803 456.248 500.416 456.453 500.127 456.863C499.764 457.387 499.582 458.354 499.582 459.764Z" fill="#171717"/>
<path d="M675.291 457.514L674.242 457.596C674.148 457.182 674.016 456.881 673.844 456.693C673.559 456.393 673.207 456.242 672.789 456.242C672.453 456.242 672.158 456.336 671.904 456.523C671.572 456.766 671.311 457.119 671.119 457.584C670.928 458.049 670.828 458.711 670.82 459.57C671.074 459.184 671.385 458.896 671.752 458.709C672.119 458.521 672.504 458.428 672.906 458.428C673.609 458.428 674.207 458.688 674.699 459.207C675.195 459.723 675.443 460.391 675.443 461.211C675.443 461.75 675.326 462.252 675.092 462.717C674.861 463.178 674.543 463.531 674.137 463.777C673.73 464.023 673.27 464.146 672.754 464.146C671.875 464.146 671.158 463.824 670.604 463.18C670.049 462.531 669.771 461.465 669.771 459.98C669.771 458.32 670.078 457.113 670.691 456.359C671.227 455.703 671.947 455.375 672.854 455.375C673.529 455.375 674.082 455.564 674.512 455.943C674.945 456.322 675.205 456.846 675.291 457.514ZM670.984 461.217C670.984 461.58 671.061 461.928 671.213 462.26C671.369 462.592 671.586 462.846 671.863 463.021C672.141 463.193 672.432 463.279 672.736 463.279C673.182 463.279 673.564 463.1 673.885 462.74C674.205 462.381 674.365 461.893 674.365 461.275C674.365 460.682 674.207 460.215 673.891 459.875C673.574 459.531 673.176 459.359 672.695 459.359C672.219 459.359 671.814 459.531 671.482 459.875C671.15 460.215 670.984 460.662 670.984 461.217ZM676.498 459.764C676.498 458.748 676.602 457.932 676.809 457.314C677.02 456.693 677.33 456.215 677.74 455.879C678.154 455.543 678.674 455.375 679.299 455.375C679.76 455.375 680.164 455.469 680.512 455.656C680.859 455.84 681.146 456.107 681.373 456.459C681.6 456.807 681.777 457.232 681.906 457.736C682.035 458.236 682.1 458.912 682.1 459.764C682.1 460.771 681.996 461.586 681.789 462.207C681.582 462.824 681.271 463.303 680.857 463.643C680.447 463.979 679.928 464.146 679.299 464.146C678.471 464.146 677.82 463.85 677.348 463.256C676.781 462.541 676.498 461.377 676.498 459.764ZM677.582 459.764C677.582 461.174 677.746 462.113 678.074 462.582C678.406 463.047 678.814 463.279 679.299 463.279C679.783 463.279 680.189 463.045 680.518 462.576C680.85 462.107 681.016 461.17 681.016 459.764C681.016 458.35 680.85 457.41 680.518 456.945C680.189 456.48 679.779 456.248 679.287 456.248C678.803 456.248 678.416 456.453 678.127 456.863C677.764 457.387 677.582 458.354 677.582 459.764Z" fill="#171717"/>
<path d="M149 233.5C149 395.5 242.5 428 745 437" stroke="black" stroke-width="3" stroke-linecap="round" stroke-linejoin="round"/>
<path d="M408.321 476.979H417.734V479.453H414.576V487H411.479V479.453H408.321V476.979ZM419.266 476.979H422.369V487H419.266V476.979ZM424.563 476.979H428.638L430.21 483.076L431.775 476.979H435.836V487H433.307V479.357L431.345 487H429.055L427.1 479.357V487H424.563V476.979ZM437.812 476.979H446.11V479.118H440.915V480.711H445.734V482.755H440.915V484.73H446.261V487H437.812V476.979ZM451.894 482.27H455.94V484.423H451.894V482.27ZM461.963 476.979H465.06V480.485H468.443V476.979H471.554V487H468.443V482.946H465.06V487H461.963V476.979ZM473.222 481.996C473.222 480.36 473.677 479.086 474.589 478.175C475.5 477.263 476.77 476.808 478.396 476.808C480.064 476.808 481.35 477.257 482.252 478.154C483.154 479.048 483.605 480.301 483.605 481.914C483.605 483.085 483.407 484.047 483.011 484.799C482.619 485.546 482.049 486.13 481.302 486.549C480.559 486.964 479.632 487.171 478.52 487.171C477.389 487.171 476.453 486.991 475.71 486.631C474.972 486.271 474.372 485.701 473.912 484.922C473.452 484.143 473.222 483.167 473.222 481.996ZM476.318 482.01C476.318 483.021 476.505 483.748 476.879 484.19C477.257 484.632 477.77 484.854 478.417 484.854C479.082 484.854 479.597 484.637 479.962 484.204C480.326 483.771 480.509 482.994 480.509 481.873C480.509 480.93 480.317 480.242 479.935 479.809C479.556 479.371 479.041 479.152 478.39 479.152C477.765 479.152 477.264 479.373 476.886 479.815C476.507 480.257 476.318 480.989 476.318 482.01ZM491.795 476.979H494.885V482.953C494.885 483.546 494.791 484.106 494.604 484.635C494.422 485.159 494.133 485.619 493.736 486.016C493.344 486.408 492.932 486.683 492.499 486.843C491.897 487.066 491.175 487.178 490.332 487.178C489.844 487.178 489.311 487.144 488.732 487.075C488.158 487.007 487.677 486.872 487.29 486.672C486.903 486.467 486.547 486.177 486.224 485.804C485.905 485.43 485.686 485.045 485.567 484.648C485.376 484.01 485.28 483.445 485.28 482.953V476.979H488.37V483.097C488.37 483.644 488.521 484.072 488.821 484.382C489.127 484.687 489.548 484.84 490.086 484.84C490.619 484.84 491.036 484.689 491.337 484.389C491.642 484.083 491.795 483.653 491.795 483.097V476.979ZM496.977 487V476.979H502.138C503.095 476.979 503.826 477.061 504.332 477.225C504.838 477.389 505.246 477.694 505.556 478.141C505.866 478.583 506.021 479.123 506.021 479.761C506.021 480.317 505.902 480.798 505.665 481.203C505.428 481.604 505.102 481.93 504.688 482.181C504.423 482.34 504.061 482.472 503.601 482.577C503.97 482.7 504.239 482.823 504.407 482.946C504.521 483.028 504.685 483.204 504.899 483.473C505.118 483.742 505.264 483.949 505.337 484.095L506.834 487H503.334L501.68 483.938C501.47 483.541 501.283 483.284 501.119 483.165C500.896 483.01 500.643 482.933 500.36 482.933H500.087V487H496.977ZM500.087 481.039H501.393C501.534 481.039 501.807 480.993 502.213 480.902C502.418 480.861 502.584 480.757 502.712 480.588C502.844 480.419 502.91 480.226 502.91 480.007C502.91 479.683 502.808 479.435 502.603 479.262C502.397 479.089 502.012 479.002 501.447 479.002H500.087V481.039Z" fill="#171717"/>
<path d="M44.9053 321.303L45.7256 318.589C46.4867 318.771 47.1224 319.058 47.6328 319.45C48.1432 319.842 48.5283 320.33 48.7881 320.913C49.0479 321.492 49.1777 322.23 49.1777 323.128C49.1777 324.217 49.0205 325.108 48.7061 325.801C48.387 326.489 47.8288 327.084 47.0312 327.585C46.2337 328.086 45.2129 328.337 43.9688 328.337C42.3099 328.337 41.0361 327.897 40.1475 327.018C39.2542 326.133 38.8076 324.885 38.8076 323.271C38.8076 322.009 39.0628 321.018 39.5732 320.298C40.0837 319.573 40.8675 319.035 41.9248 318.685L42.5332 321.419C42.2279 321.515 42.0046 321.615 41.8633 321.72C41.6263 321.893 41.444 322.105 41.3164 322.355C41.1888 322.606 41.125 322.886 41.125 323.196C41.125 323.898 41.4076 324.436 41.9727 324.81C42.3919 325.092 43.0505 325.233 43.9482 325.233C45.0602 325.233 45.8236 325.065 46.2383 324.728C46.6484 324.39 46.8535 323.916 46.8535 323.306C46.8535 322.713 46.6872 322.267 46.3545 321.966C46.0218 321.66 45.5387 321.439 44.9053 321.303ZM38.9785 317.064V313.968H42.4854V310.584H38.9785V307.474H49V310.584H44.9463V313.968H49V317.064H38.9785ZM38.9785 305.423V297.124H41.1182V302.319H42.7109V297.5H44.7549V302.319H46.7305V296.974H49V305.423H38.9785ZM38.9785 295.306V287.007H41.1182V292.202H42.7109V287.383H44.7549V292.202H46.7305V286.856H49V295.306H38.9785ZM45.6846 285.722L45.5 282.775C45.9785 282.712 46.3431 282.582 46.5938 282.386C46.9993 282.067 47.2021 281.611 47.2021 281.019C47.2021 280.576 47.0996 280.237 46.8945 280C46.6849 279.758 46.4434 279.638 46.1699 279.638C45.9102 279.638 45.6777 279.752 45.4727 279.979C45.2676 280.207 45.0739 280.736 44.8916 281.565C44.5863 282.924 44.1807 283.892 43.6748 284.471C43.1689 285.054 42.5241 285.346 41.7402 285.346C41.2253 285.346 40.7399 285.198 40.2842 284.901C39.8239 284.601 39.4639 284.152 39.2041 283.555C38.9398 282.953 38.8076 282.131 38.8076 281.087C38.8076 279.806 39.0469 278.831 39.5254 278.161C39.9993 277.487 40.7559 277.086 41.7949 276.958L41.9658 279.877C41.5146 279.954 41.1865 280.118 40.9814 280.369C40.7764 280.615 40.6738 280.957 40.6738 281.395C40.6738 281.755 40.7513 282.026 40.9062 282.208C41.0566 282.39 41.2412 282.481 41.46 282.481C41.6195 282.481 41.763 282.406 41.8906 282.256C42.0228 282.11 42.1458 281.764 42.2598 281.217C42.5514 279.863 42.8477 278.895 43.1484 278.312C43.4447 277.724 43.8138 277.298 44.2559 277.033C44.6979 276.764 45.1924 276.63 45.7393 276.63C46.3818 276.63 46.9743 276.808 47.5166 277.163C48.0589 277.519 48.4714 278.015 48.7539 278.653C49.0319 279.291 49.1709 280.096 49.1709 281.066C49.1709 282.771 48.8428 283.951 48.1865 284.607C47.5303 285.264 46.6963 285.635 45.6846 285.722ZM38.9785 275.071V266.772H41.1182V271.968H42.7109V267.148H44.7549V271.968H46.7305V266.622H49V275.071H38.9785ZM38.9785 260.285V255.138C38.9785 254.017 39.2451 253.178 39.7783 252.622C40.3115 252.062 41.0703 251.781 42.0547 251.781C43.0664 251.781 43.8571 252.087 44.4268 252.697C44.9964 253.303 45.2813 254.231 45.2813 255.479L45.2812 257.175H49V260.285H38.9785ZM43.251 257.175L43.251 256.416C43.251 255.819 43.1484 255.4 42.9434 255.158C42.7337 254.917 42.4671 254.796 42.1436 254.796C41.8291 254.796 41.5625 254.901 41.3438 255.11C41.125 255.32 41.0156 255.714 41.0156 256.293L41.0156 257.175H43.251ZM49 250.113H38.9785V244.952C38.9785 243.995 39.0605 243.264 39.2246 242.758C39.3887 242.252 39.694 241.844 40.1406 241.534C40.5827 241.224 41.1227 241.069 41.7607 241.069C42.3167 241.069 42.7975 241.188 43.2031 241.425C43.6042 241.662 43.93 241.988 44.1807 242.402C44.3402 242.667 44.4723 243.029 44.5771 243.489C44.7002 243.12 44.8232 242.851 44.9463 242.683C45.0283 242.569 45.2038 242.405 45.4727 242.19C45.7415 241.972 45.9489 241.826 46.0947 241.753L49 240.256L49 243.756L45.9375 245.41C45.541 245.62 45.2835 245.807 45.165 245.971C45.0101 246.194 44.9326 246.447 44.9326 246.729V247.003H49V250.113ZM43.0391 247.003V245.697C43.0391 245.556 42.9935 245.283 42.9023 244.877C42.8613 244.672 42.7565 244.506 42.5879 244.378C42.4193 244.246 42.2256 244.18 42.0068 244.18C41.6833 244.18 41.4349 244.282 41.2617 244.487C41.0885 244.692 41.002 245.077 41.002 245.643V247.003H43.0391ZM38.9785 239.135V236.031H49V239.135H38.9785ZM44.9053 227.131L45.7256 224.417C46.4867 224.599 47.1224 224.886 47.6328 225.278C48.1432 225.67 48.5283 226.158 48.7881 226.741C49.0479 227.32 49.1777 228.058 49.1777 228.956C49.1777 230.045 49.0205 230.936 48.7061 231.629C48.387 232.317 47.8288 232.912 47.0313 233.413C46.2337 233.914 45.2129 234.165 43.9688 234.165C42.3099 234.165 41.0361 233.725 40.1475 232.846C39.2542 231.962 38.8076 230.713 38.8076 229.1C38.8076 227.837 39.0628 226.846 39.5732 226.126C40.0837 225.401 40.8675 224.864 41.9248 224.513L42.5332 227.247C42.2279 227.343 42.0046 227.443 41.8633 227.548C41.6263 227.721 41.444 227.933 41.3164 228.184C41.1888 228.434 41.125 228.715 41.125 229.024C41.125 229.726 41.4076 230.264 41.9727 230.638C42.3919 230.92 43.0505 231.062 43.9482 231.062C45.0602 231.062 45.8236 230.893 46.2383 230.556C46.6484 230.218 46.8535 229.744 46.8535 229.134C46.8535 228.541 46.6872 228.095 46.3545 227.794C46.0218 227.489 45.5387 227.268 44.9053 227.131ZM38.9785 222.913V214.614H41.1182V219.81H42.7109V214.99H44.7549V219.81H46.7305V214.464H49V222.913H38.9785Z" fill="#171717"/>
</svg>
