<svg width="42" height="42" viewBox="0 0 42 42" fill="none" xmlns="http://www.w3.org/2000/svg">
<path d="M21 41C32.0457 41 41 32.0457 41 21C41 9.95429 32.0457 1 21 1C9.9543 1 1 9.95429 1 21C1 32.0457 9.9543 41 21 41Z" fill="#FBB33B" stroke="black" stroke-width="0.75" stroke-miterlimit="10"/>
<path d="M22.7915 21.4398C22.7915 24.9962 19.928 27.8793 16.3959 27.8793C12.8637 27.8793 10 24.9962 10 21.4398C10 17.8833 12.8635 15 16.3959 15C19.9282 15 22.7915 17.8833 22.7915 21.4398Z" fill="black"/>
<path d="M29.7806 21.4297C29.7806 24.7774 28.3489 27.4922 26.5827 27.4922C24.8165 27.4922 23.3848 24.7774 23.3848 21.4297C23.3848 18.0821 24.8163 15.3672 26.5825 15.3672C28.3487 15.3672 29.7804 18.0812 29.7804 21.4297" fill="black"/>
<path d="M32.6691 21.4311C32.6691 24.4297 32.1657 26.8621 31.5444 26.8621C30.9232 26.8621 30.4199 24.4304 30.4199 21.4311C30.4199 18.4317 30.9234 16 31.5444 16C32.1655 16 32.6691 18.4315 32.6691 21.4311Z" fill="black"/>
</svg>
