<svg width="345" height="907" viewBox="0 0 345 907" fill="none"
    xmlns="http://www.w3.org/2000/svg">
    <path d="M332.834 906H12.1625C5.99932 906 1 900.629 1 894C1 887.374 5.99592 882 12.1625 882H332.837C339.001 882 344 887.371 344 894C343.997 900.629 339.001 906 332.834 906Z" fill="#FBB33B" stroke="black" stroke-miterlimit="10"/>
    <path d="M327 895.5V2L318.413 11.549L309.826 2L301.242 11.549L292.658 2L284.071 11.549L275.487 2L266.903 11.549L258.319 2L249.738 11.549L241.154 2L232.571 11.549L223.987 2L215.403 11.549L206.819 2L198.235 11.549L189.651 2L181.071 11.549L172.487 2L163.903 11.549L155.322 2L146.738 11.549L138.154 2L129.571 11.549L120.99 2L112.406 11.549L103.826 2L95.245 11.549L86.6611 2L78.0806 11.549L69.4967 2L60.9161 11.549L52.3322 2L43.7517 11.549L35.1678 2L26.5839 11.549L18 2V895.5H327Z" fill="#F499AD" stroke="#1D1D1B" stroke-miterlimit="10"/>
</svg>
