<svg width="1182" height="1937" viewBox="0 0 1182 1937" fill="none"
    xmlns="http://www.w3.org/2000/svg">
    <path d="M1142.59 1936.37H39.4018C18.1988 1936.37 1 1917.52 1 1894.26C1 1871.01 18.1871 1852.15 39.4018 1852.15H1142.6C1163.8 1852.15 1181 1871 1181 1894.26C1180.99 1917.52 1163.8 1936.37 1142.59 1936.37Z" fill="#FBB33B" stroke="black" stroke-miterlimit="10"/>
    <path d="M1126.56 1881.88V2L1096.51 35.3972L1066.47 2L1036.44 35.3972L1006.4 2L976.358 35.3972L946.325 2L916.292 35.3972L886.26 2L856.238 35.3972L826.205 2L796.173 35.3972L766.14 2L736.107 35.3972L706.074 2L676.041 35.3972L646.008 2L615.987 35.3972L585.954 2L555.921 35.3972L525.9 2L495.867 35.3972L465.834 2L435.801 35.3972L405.78 2L375.747 35.3972L345.726 2L315.704 35.3972L285.672 2L255.65 35.3972L225.617 2L195.596 35.3972L165.563 2L135.542 35.3972L105.509 2L75.4763 35.3972L45.4434 2L45.4434 1881.88H1126.56Z" fill="#F499AD" stroke="#1D1D1B" stroke-miterlimit="10"/>
</svg>
