<svg width="300" height="355" viewBox="0 0 300 355" fill="none" xmlns="http://www.w3.org/2000/svg">
<path d="M125.386 86H28.6137C13.3637 86 1 73.6483 1 58.4133V52.5867C1 37.3516 13.3637 25 28.6137 25H125.386C140.636 25 153 37.3516 153 52.5867V58.4133C153 73.6583 140.636 86 125.386 86Z" fill="#F68B38" stroke="black" stroke-miterlimit="10"/>
<path d="M131.386 81H34.6137C19.3638 81 7 68.6483 7 53.4133V47.5867C7 32.3516 19.3638 20 34.6137 20H131.386C146.636 20 159 32.3516 159 47.5867V53.4133C159 68.6483 146.636 81 131.386 81Z" fill="#F499AD" stroke="black" stroke-miterlimit="10"/>
<path d="M20.33 46.964C20.708 46.39 20.918 45.69 22.374 45.69H22.794V53.628C22.78 53.88 22.64 54.118 22.402 54.23C22.304 54.286 22.206 54.342 22.122 54.398C21.898 54.566 22.024 55 22.304 55H26.63C26.924 55 27.064 54.566 26.826 54.398C26.742 54.342 26.658 54.286 26.574 54.244C26.364 54.104 26.224 53.866 26.224 53.628V45.69H26.63C28.086 45.69 28.31 46.39 28.674 46.964C28.828 47.188 29.038 47.3 29.234 47.3C29.5 47.3 29.71 47.104 29.64 46.712C29.57 46.222 29.43 45.648 29.346 45.27C29.276 45.018 29.066 44.864 28.814 44.864H20.19C19.938 44.864 19.728 45.018 19.672 45.27C19.574 45.648 19.434 46.222 19.364 46.712C19.294 47.104 19.504 47.3 19.77 47.3C19.966 47.3 20.176 47.188 20.33 46.964ZM29.1928 53.488C29.3048 54.538 30.2708 55.196 31.5448 55.196C32.5528 55.196 33.5328 54.762 33.9668 53.936C34.1208 54.762 34.9748 55.168 36.0108 55.182C38.1388 55.21 38.3488 54.132 38.0128 54.048C37.8308 54.006 37.6768 54.258 37.4528 54.23C37.2148 54.202 37.1308 53.95 37.1308 53.516C37.1308 52.956 37.1308 52.018 37.1448 51.052C37.1448 49.036 35.4508 48.266 33.2948 48.266C31.3068 48.252 29.9908 48.84 29.9348 49.694C29.8928 50.226 30.4948 50.492 31.0828 50.492C31.5728 50.492 32.0628 50.296 32.1608 49.932C32.3148 49.386 32.4128 48.952 33.1268 48.966C33.7428 48.98 33.9528 49.484 33.9528 50.548V51.024C33.7008 50.94 33.2668 50.884 32.7628 50.884C31.2228 50.884 28.9968 51.43 29.1928 53.488ZM32.2868 52.676C32.3708 51.808 32.8748 51.612 33.3088 51.612C33.5888 51.612 33.8548 51.696 33.9528 51.738L33.9388 52.508C33.9248 53.236 33.7988 53.852 33.1548 53.866C32.5388 53.894 32.2308 53.362 32.2868 52.676ZM38.4359 45.788C38.8139 45.816 39.3599 45.592 39.3599 46.04V53.628C39.3599 53.88 39.2199 54.118 38.9819 54.23C38.8839 54.286 38.7859 54.342 38.7019 54.398C38.4639 54.566 38.6039 55 38.8839 55H42.8879C43.1819 55 43.3219 54.566 43.0699 54.398C42.9859 54.342 42.9159 54.286 42.8319 54.244C42.6219 54.104 42.4679 53.866 42.4679 53.628V51.682C43.0279 51.626 43.4619 51.766 43.8259 52.844C44.0639 53.53 44.2319 53.978 44.3439 54.328C44.4979 54.734 44.8479 55 45.2679 55H48.0119C48.3059 55 48.4319 54.566 48.1939 54.398C48.1099 54.342 47.9979 54.328 47.8719 54.314C47.6479 54.3 47.4239 54.104 47.3399 53.838L46.9619 52.746C46.4859 51.332 45.7579 50.786 44.4979 50.786C44.2879 50.786 44.0639 50.8 43.8119 50.828C44.5399 50.31 44.9039 49.638 45.4919 49.638C46.1219 49.652 46.0519 50.492 47.1159 50.59C47.6759 50.646 48.1519 50.198 48.1659 49.568C48.2079 48.588 47.2419 48.056 46.3319 48.098C44.2599 48.168 44.2599 49.932 42.4679 50.604V45.97C42.4679 44.71 42.0339 44.556 40.9139 44.556C40.0179 44.556 38.9539 44.78 38.3379 45.13C38.0439 45.298 38.1279 45.774 38.4359 45.788ZM48.5899 51.724C48.6459 53.978 50.1159 55.196 52.4399 55.196C54.4419 55.196 55.8279 54.496 56.1919 52.774C56.2479 52.452 56.1639 52.27 55.8839 52.228C55.6179 52.2 55.4499 52.34 55.3799 52.648C55.1839 53.53 54.5119 54.006 53.6299 54.006C52.8179 53.992 52.1879 53.586 51.7959 52.564C51.9779 52.592 52.2019 52.606 52.4399 52.606C53.9799 52.606 56.3039 51.92 56.0379 50.324C55.8419 49.19 54.5959 48.252 52.6359 48.252C50.3119 48.252 48.5339 49.456 48.5899 51.724ZM52.2439 49.064C53.0419 48.896 53.7279 50.058 53.4199 51.108C53.2239 51.822 52.2299 51.92 51.5999 51.864C51.2779 50.408 51.6139 49.19 52.2439 49.064ZM61.8982 45.48C61.9682 45.536 62.0662 45.592 62.1782 45.648C62.4022 45.76 62.5562 45.998 62.5562 46.25V53.628C62.5562 53.88 62.4022 54.118 62.1782 54.23C62.0662 54.286 61.9682 54.342 61.8982 54.398C61.6602 54.566 61.7862 55 62.0662 55H66.4062C66.7002 55 66.8262 54.566 66.5882 54.398C66.5042 54.342 66.4202 54.286 66.3502 54.244C66.1262 54.104 65.9862 53.866 65.9862 53.628V50.436H66.9942C68.8142 50.436 68.1982 51.556 68.8282 51.612C69.5562 51.682 69.6402 48.35 68.8982 48.378C68.2262 48.406 68.8142 49.61 66.9942 49.61H65.9862V46.39V46.138C65.9862 45.886 66.1542 45.718 66.4062 45.718H67.9322C69.3882 45.718 69.5982 46.418 69.9762 46.992C70.1302 47.216 70.3402 47.328 70.5222 47.328C70.7882 47.328 70.9982 47.132 70.9422 46.74C70.8582 46.236 70.7322 45.676 70.6342 45.298C70.5782 45.046 70.3542 44.878 70.1022 44.878H62.0662C61.7862 44.878 61.6602 45.312 61.8982 45.48ZM71.6859 45.774C71.8679 45.774 72.1059 45.732 72.2879 45.732C72.4839 45.732 72.6239 45.788 72.6239 46.012V53.628C72.6239 53.88 72.4699 54.118 72.2459 54.23C72.1339 54.286 72.0359 54.342 71.9659 54.398C71.7279 54.566 71.8539 55 72.1339 55H76.1939C76.4739 55 76.6139 54.566 76.3759 54.398C76.2919 54.342 76.2079 54.286 76.1379 54.244C75.9139 54.104 75.7739 53.866 75.7739 53.628V45.942C75.7739 44.696 75.3119 44.528 74.2059 44.528C73.2959 44.528 72.2039 44.752 71.5879 45.116C71.3079 45.27 71.3779 45.746 71.6859 45.774ZM77.0307 53.488C77.1427 54.538 78.1087 55.196 79.3827 55.196C80.3907 55.196 81.3707 54.762 81.8047 53.936C81.9587 54.762 82.8127 55.168 83.8487 55.182C85.9767 55.21 86.1867 54.132 85.8507 54.048C85.6687 54.006 85.5147 54.258 85.2907 54.23C85.0527 54.202 84.9687 53.95 84.9687 53.516C84.9687 52.956 84.9687 52.018 84.9827 51.052C84.9827 49.036 83.2887 48.266 81.1327 48.266C79.1447 48.252 77.8287 48.84 77.7727 49.694C77.7307 50.226 78.3327 50.492 78.9207 50.492C79.4107 50.492 79.9007 50.296 79.9987 49.932C80.1527 49.386 80.2507 48.952 80.9647 48.966C81.5807 48.98 81.7907 49.484 81.7907 50.548V51.024C81.5387 50.94 81.1047 50.884 80.6007 50.884C79.0607 50.884 76.8347 51.43 77.0307 53.488ZM80.1247 52.676C80.2087 51.808 80.7127 51.612 81.1467 51.612C81.4267 51.612 81.6927 51.696 81.7907 51.738L81.7767 52.508C81.7627 53.236 81.6367 53.852 80.9927 53.866C80.3767 53.894 80.0687 53.362 80.1247 52.676ZM86.4633 53.74C86.9813 54.958 89.2073 55.224 90.0893 55.224C92.5813 55.224 93.8693 54.342 93.7853 52.788C93.6733 50.436 89.0813 50.73 89.1513 49.456C89.1653 49.092 89.5853 48.896 90.1033 48.938C91.4473 49.05 91.3493 50.324 92.4553 50.478C92.9873 50.548 93.4353 50.198 93.3373 49.666C93.2113 48.868 92.0493 48.308 90.0753 48.224C87.8913 48.126 86.4913 48.994 86.5053 50.254C86.5193 52.494 91.0693 52.9 91.0693 53.95C91.0693 54.356 90.7473 54.608 90.0193 54.496C88.1853 54.216 88.6193 52.634 87.3873 52.466C86.5753 52.354 86.1553 53.04 86.4633 53.74ZM94.5863 45.774C94.7683 45.774 94.9923 45.732 95.1743 45.732C95.3703 45.732 95.5103 45.788 95.5103 46.012V53.628C95.5103 53.88 95.3703 54.118 95.1323 54.23C95.0343 54.286 94.9363 54.342 94.8523 54.398C94.6143 54.566 94.7543 55 95.0343 55H99.0803C99.3743 55 99.5143 54.566 99.2623 54.398C99.1783 54.342 99.1083 54.286 99.0243 54.244C98.8143 54.104 98.6603 53.866 98.6603 53.628V51.402C98.6883 50.66 99.1923 49.722 99.8503 49.708C100.508 49.694 100.438 50.59 100.438 51.346L100.424 53.614C100.452 54.328 100.662 55 101.698 55H104.008C104.288 55 104.428 54.566 104.19 54.398C104.106 54.342 104.022 54.286 103.952 54.244C103.728 54.104 103.588 53.866 103.588 53.628V53.488H103.574V50.408C103.574 48.868 102.86 48.224 101.082 48.252C100.074 48.28 99.1783 48.812 98.6603 49.61V45.942C98.6603 44.682 98.2263 44.528 97.1063 44.528C96.1963 44.528 95.1043 44.752 94.4883 45.116C94.1943 45.27 94.2783 45.746 94.5863 45.774ZM109.804 45.452C109.874 45.508 109.972 45.564 110.084 45.62C110.308 45.732 110.462 45.97 110.462 46.222V53.628C110.462 53.88 110.308 54.118 110.084 54.23C109.972 54.286 109.874 54.342 109.804 54.398C109.566 54.566 109.692 55 109.972 55H117.882C118.134 55 118.344 54.832 118.4 54.594C118.498 54.216 118.638 53.642 118.708 53.138C118.778 52.76 118.568 52.55 118.302 52.55C118.106 52.55 117.896 52.662 117.742 52.9C117.364 53.474 117.154 54.16 115.698 54.16H114.312C114.06 54.16 113.892 53.992 113.892 53.74V46.362V46.222C113.892 45.984 114.032 45.746 114.256 45.606C114.326 45.564 114.41 45.508 114.494 45.452C114.732 45.284 114.606 44.85 114.312 44.85H109.972C109.692 44.85 109.566 45.284 109.804 45.452ZM119.314 51.724C119.314 53.978 120.84 55.196 123.164 55.196C125.502 55.196 127.028 54.09 127.028 51.724C127.028 49.358 125.502 48.252 123.164 48.252C120.84 48.252 119.314 49.47 119.314 51.724ZM122.716 49.064C123.36 48.952 123.556 49.554 123.906 51.598C124.242 53.642 124.242 54.286 123.612 54.398C122.982 54.51 122.772 53.894 122.436 51.85C122.086 49.806 122.086 49.176 122.716 49.064ZM127.576 53.488C127.688 54.538 128.654 55.196 129.928 55.196C130.936 55.196 131.916 54.762 132.35 53.936C132.504 54.762 133.358 55.168 134.394 55.182C136.522 55.21 136.732 54.132 136.396 54.048C136.214 54.006 136.06 54.258 135.836 54.23C135.598 54.202 135.514 53.95 135.514 53.516C135.514 52.956 135.514 52.018 135.528 51.052C135.528 49.036 133.834 48.266 131.678 48.266C129.69 48.252 128.374 48.84 128.318 49.694C128.276 50.226 128.878 50.492 129.466 50.492C129.956 50.492 130.446 50.296 130.544 49.932C130.698 49.386 130.796 48.952 131.51 48.966C132.126 48.98 132.336 49.484 132.336 50.548V51.024C132.084 50.94 131.65 50.884 131.146 50.884C129.606 50.884 127.38 51.43 127.576 53.488ZM130.67 52.676C130.754 51.808 131.258 51.612 131.692 51.612C131.972 51.612 132.238 51.696 132.336 51.738L132.322 52.508C132.308 53.236 132.182 53.852 131.538 53.866C130.922 53.894 130.614 53.362 130.67 52.676ZM137.092 49.512C137.274 49.512 137.498 49.47 137.68 49.47C137.876 49.47 138.016 49.526 138.016 49.75V53.628C138.016 53.88 137.876 54.118 137.638 54.23C137.54 54.286 137.442 54.342 137.358 54.398C137.12 54.566 137.26 55 137.54 55H141.544C141.838 55 141.978 54.566 141.726 54.398C141.642 54.342 141.572 54.286 141.488 54.244C141.278 54.104 141.124 53.866 141.124 53.628V51.262C141.194 50.548 141.684 49.722 142.3 49.708C142.972 49.694 142.902 50.59 142.902 51.346L142.888 53.614C142.902 54.328 143.126 55 144.148 55H146.458C146.752 55 146.878 54.566 146.64 54.398C146.556 54.342 146.486 54.286 146.402 54.244C146.178 54.104 146.038 53.866 146.038 53.628V53.488V50.408C146.038 48.868 145.31 48.224 143.532 48.252C142.538 48.28 141.642 48.812 141.124 49.596C141.124 48.406 140.634 48.266 139.598 48.266C138.702 48.266 137.624 48.49 136.994 48.854C136.7 49.008 136.784 49.484 137.092 49.512Z" fill="black"/>
<path d="M83 31C91.2843 31 98 24.2843 98 16C98 7.71572 91.2843 1 83 1C74.7157 1 68 7.71572 68 16C68 24.2843 74.7157 31 83 31Z" fill="#FBB33B" stroke="black" stroke-miterlimit="10"/>
<path d="M74.4922 15.6699C74.4922 14.0371 74.7852 12.8945 75.3711 12.2422C75.9609 11.5898 76.8574 11.2637 78.0605 11.2637C78.6387 11.2637 79.1133 11.3359 79.4844 11.4805C79.8555 11.6211 80.1582 11.8066 80.3926 12.0371C80.627 12.2637 80.8105 12.5039 80.9434 12.7578C81.0801 13.0078 81.1895 13.3008 81.2715 13.6367C81.4316 14.2773 81.5117 14.9453 81.5117 15.6406C81.5117 17.1992 81.248 18.3398 80.7207 19.0625C80.1934 19.7852 79.2852 20.1465 77.9961 20.1465C77.2734 20.1465 76.6895 20.0312 76.2441 19.8008C75.7988 19.5703 75.4336 19.2324 75.1484 18.7871C74.9414 18.4707 74.7793 18.0391 74.6621 17.4922C74.5488 16.9414 74.4922 16.334 74.4922 15.6699ZM76.8594 15.6758C76.8594 16.7695 76.9551 17.5176 77.1465 17.9199C77.3418 18.3184 77.623 18.5176 77.9902 18.5176C78.2324 18.5176 78.4414 18.4336 78.6172 18.2656C78.7969 18.0938 78.9277 17.8242 79.0098 17.457C79.0957 17.0898 79.1387 16.5176 79.1387 15.7402C79.1387 14.5996 79.041 13.834 78.8457 13.4434C78.6543 13.0488 78.3652 12.8516 77.9785 12.8516C77.584 12.8516 77.2988 13.0527 77.123 13.4551C76.9473 13.8535 76.8594 14.5938 76.8594 15.6758ZM87.9043 11.2637V20H85.4902V14.2754C85.0996 14.5723 84.7207 14.8125 84.3535 14.9961C83.9902 15.1797 83.5332 15.3555 82.9824 15.5234V13.5664C83.7949 13.3047 84.4258 12.9902 84.875 12.623C85.3242 12.2559 85.6758 11.8027 85.9297 11.2637H87.9043Z" fill="black"/>
<path d="M125.386 354H28.6137C13.3637 354 1 341.648 1 326.413V320.587C1 305.352 13.3637 293 28.6137 293H125.386C140.636 293 153 305.352 153 320.587V326.413C153 341.658 140.636 354 125.386 354Z" fill="#F68B38" stroke="black" stroke-miterlimit="10"/>
<path d="M131.386 349H34.6137C19.3638 349 7 336.648 7 321.413V315.587C7 300.352 19.3638 288 34.6137 288H131.386C146.636 288 159 300.352 159 315.587V321.413C159 336.648 146.636 349 131.386 349Z" fill="#F499AD" stroke="black" stroke-miterlimit="10"/>
<path d="M16.49 317.932C16.602 320.984 18.506 323.182 22.076 323.182C25.03 323.182 26.836 321.894 27.13 319.416C27.186 318.954 27.102 318.52 26.682 318.492C26.206 318.464 26.094 318.926 26.038 319.318C25.786 320.942 24.68 321.922 23.266 321.922C21.068 321.922 20.242 320.13 20.004 318.17C19.696 315.58 19.976 313.718 21.46 313.536C22.482 313.41 23.434 313.788 23.308 315.51C23.21 316.84 24.176 317.456 25.38 317.358C26.836 317.246 27.06 315.846 26.738 315.006C26.206 313.564 24.54 312.668 21.992 312.668C18.422 312.668 16.392 314.74 16.49 317.932ZM27.8207 313.774C28.0027 313.774 28.2407 313.732 28.4227 313.732C28.6187 313.732 28.7587 313.788 28.7587 314.012V321.628C28.7587 321.88 28.6047 322.118 28.3807 322.23C28.2687 322.286 28.1707 322.342 28.1007 322.398C27.8627 322.566 27.9887 323 28.2687 323H32.3287C32.6087 323 32.7487 322.566 32.5107 322.398C32.4267 322.342 32.3427 322.286 32.2727 322.244C32.0487 322.104 31.9087 321.866 31.9087 321.628V313.942C31.9087 312.696 31.4467 312.528 30.3407 312.528C29.4307 312.528 28.3387 312.752 27.7227 313.116C27.4427 313.27 27.5127 313.746 27.8207 313.774ZM33.0254 319.724C33.0254 321.978 34.5514 323.196 36.8754 323.196C39.2134 323.196 40.7394 322.09 40.7394 319.724C40.7394 317.358 39.2134 316.252 36.8754 316.252C34.5514 316.252 33.0254 317.47 33.0254 319.724ZM36.4274 317.064C37.0714 316.952 37.2674 317.554 37.6174 319.598C37.9534 321.642 37.9534 322.286 37.3234 322.398C36.6934 322.51 36.4834 321.894 36.1474 319.85C35.7974 317.806 35.7974 317.176 36.4274 317.064ZM41.723 321.74C42.241 322.958 44.467 323.224 45.349 323.224C47.841 323.224 49.129 322.342 49.045 320.788C48.933 318.436 44.341 318.73 44.411 317.456C44.425 317.092 44.845 316.896 45.363 316.938C46.707 317.05 46.609 318.324 47.715 318.478C48.247 318.548 48.695 318.198 48.597 317.666C48.471 316.868 47.309 316.308 45.335 316.224C43.151 316.126 41.751 316.994 41.765 318.254C41.779 320.494 46.329 320.9 46.329 321.95C46.329 322.356 46.007 322.608 45.279 322.496C43.445 322.216 43.879 320.634 42.647 320.466C41.835 320.354 41.415 321.04 41.723 321.74ZM49.8008 319.724C49.8568 321.978 51.3268 323.196 53.6508 323.196C55.6528 323.196 57.0388 322.496 57.4028 320.774C57.4588 320.452 57.3748 320.27 57.0948 320.228C56.8288 320.2 56.6608 320.34 56.5908 320.648C56.3948 321.53 55.7228 322.006 54.8408 322.006C54.0288 321.992 53.3988 321.586 53.0068 320.564C53.1888 320.592 53.4128 320.606 53.6508 320.606C55.1908 320.606 57.5148 319.92 57.2488 318.324C57.0528 317.19 55.8068 316.252 53.8468 316.252C51.5228 316.252 49.7448 317.456 49.8008 319.724ZM53.4548 317.064C54.2528 316.896 54.9388 318.058 54.6308 319.108C54.4348 319.822 53.4408 319.92 52.8108 319.864C52.4888 318.408 52.8248 317.19 53.4548 317.064ZM63.1091 313.48C63.1791 313.536 63.2771 313.592 63.3891 313.648C63.6131 313.76 63.7671 313.998 63.7671 314.25V321.628C63.7671 321.88 63.6131 322.118 63.3891 322.23C63.2771 322.286 63.1791 322.342 63.1091 322.398C62.8711 322.566 62.9971 323 63.2771 323H67.6171C67.9111 323 68.0371 322.566 67.7991 322.398C67.7151 322.342 67.6311 322.286 67.5611 322.244C67.3371 322.104 67.1971 321.866 67.1971 321.628V318.436H68.2051C70.0251 318.436 69.4091 319.556 70.0391 319.612C70.7671 319.682 70.8511 316.35 70.1091 316.378C69.4371 316.406 70.0251 317.61 68.2051 317.61H67.1971V314.39V314.138C67.1971 313.886 67.3651 313.718 67.6171 313.718H69.1431C70.5991 313.718 70.8091 314.418 71.1871 314.992C71.3411 315.216 71.5511 315.328 71.7331 315.328C71.9991 315.328 72.2091 315.132 72.1531 314.74C72.0691 314.236 71.9431 313.676 71.8451 313.298C71.7891 313.046 71.5651 312.878 71.3131 312.878H63.2771C62.9971 312.878 62.8711 313.312 63.1091 313.48ZM72.8969 313.774C73.0789 313.774 73.3169 313.732 73.4989 313.732C73.6949 313.732 73.8349 313.788 73.8349 314.012V321.628C73.8349 321.88 73.6809 322.118 73.4569 322.23C73.3449 322.286 73.2469 322.342 73.1769 322.398C72.9389 322.566 73.0649 323 73.3449 323H77.4049C77.6849 323 77.8249 322.566 77.5869 322.398C77.5029 322.342 77.4189 322.286 77.3489 322.244C77.1249 322.104 76.9849 321.866 76.9849 321.628V313.942C76.9849 312.696 76.5229 312.528 75.4169 312.528C74.5069 312.528 73.4149 312.752 72.7989 313.116C72.5189 313.27 72.5889 313.746 72.8969 313.774ZM78.2416 321.488C78.3536 322.538 79.3196 323.196 80.5936 323.196C81.6016 323.196 82.5816 322.762 83.0156 321.936C83.1696 322.762 84.0236 323.168 85.0596 323.182C87.1876 323.21 87.3976 322.132 87.0616 322.048C86.8796 322.006 86.7256 322.258 86.5016 322.23C86.2636 322.202 86.1796 321.95 86.1796 321.516C86.1796 320.956 86.1796 320.018 86.1936 319.052C86.1936 317.036 84.4996 316.266 82.3436 316.266C80.3556 316.252 79.0396 316.84 78.9836 317.694C78.9416 318.226 79.5436 318.492 80.1316 318.492C80.6216 318.492 81.1116 318.296 81.2096 317.932C81.3636 317.386 81.4616 316.952 82.1756 316.966C82.7916 316.98 83.0016 317.484 83.0016 318.548V319.024C82.7496 318.94 82.3156 318.884 81.8116 318.884C80.2716 318.884 78.0456 319.43 78.2416 321.488ZM81.3356 320.676C81.4196 319.808 81.9236 319.612 82.3576 319.612C82.6376 319.612 82.9036 319.696 83.0016 319.738L82.9876 320.508C82.9736 321.236 82.8476 321.852 82.2036 321.866C81.5876 321.894 81.2796 321.362 81.3356 320.676ZM87.6742 321.74C88.1922 322.958 90.4182 323.224 91.3002 323.224C93.7922 323.224 95.0802 322.342 94.9962 320.788C94.8842 318.436 90.2922 318.73 90.3622 317.456C90.3762 317.092 90.7962 316.896 91.3142 316.938C92.6582 317.05 92.5602 318.324 93.6662 318.478C94.1982 318.548 94.6462 318.198 94.5482 317.666C94.4222 316.868 93.2602 316.308 91.2862 316.224C89.1022 316.126 87.7022 316.994 87.7162 318.254C87.7302 320.494 92.2802 320.9 92.2802 321.95C92.2802 322.356 91.9582 322.608 91.2302 322.496C89.3962 322.216 89.8302 320.634 88.5982 320.466C87.7862 320.354 87.3662 321.04 87.6742 321.74ZM95.7973 313.774C95.9793 313.774 96.2033 313.732 96.3853 313.732C96.5813 313.732 96.7213 313.788 96.7213 314.012V321.628C96.7213 321.88 96.5813 322.118 96.3433 322.23C96.2453 322.286 96.1473 322.342 96.0633 322.398C95.8253 322.566 95.9653 323 96.2453 323H100.291C100.585 323 100.725 322.566 100.473 322.398C100.389 322.342 100.319 322.286 100.235 322.244C100.025 322.104 99.8713 321.866 99.8713 321.628V319.402C99.8993 318.66 100.403 317.722 101.061 317.708C101.719 317.694 101.649 318.59 101.649 319.346L101.635 321.614C101.663 322.328 101.873 323 102.909 323H105.219C105.499 323 105.639 322.566 105.401 322.398C105.317 322.342 105.233 322.286 105.163 322.244C104.939 322.104 104.799 321.866 104.799 321.628V321.488H104.785V318.408C104.785 316.868 104.071 316.224 102.293 316.252C101.285 316.28 100.389 316.812 99.8713 317.61V313.942C99.8713 312.682 99.4373 312.528 98.3173 312.528C97.4073 312.528 96.3153 312.752 95.6993 313.116C95.4053 313.27 95.4893 313.746 95.7973 313.774ZM111.015 313.452C111.085 313.508 111.183 313.564 111.295 313.62C111.519 313.732 111.673 313.97 111.673 314.222V321.628C111.673 321.88 111.519 322.118 111.295 322.23C111.183 322.286 111.085 322.342 111.015 322.398C110.777 322.566 110.903 323 111.183 323H119.093C119.345 323 119.555 322.832 119.611 322.594C119.709 322.216 119.849 321.642 119.919 321.138C119.989 320.76 119.779 320.55 119.513 320.55C119.317 320.55 119.107 320.662 118.953 320.9C118.575 321.474 118.365 322.16 116.909 322.16H115.523C115.271 322.16 115.103 321.992 115.103 321.74V314.362V314.222C115.103 313.984 115.243 313.746 115.467 313.606C115.537 313.564 115.621 313.508 115.705 313.452C115.943 313.284 115.817 312.85 115.523 312.85H111.183C110.903 312.85 110.777 313.284 111.015 313.452ZM120.525 319.724C120.525 321.978 122.051 323.196 124.375 323.196C126.713 323.196 128.239 322.09 128.239 319.724C128.239 317.358 126.713 316.252 124.375 316.252C122.051 316.252 120.525 317.47 120.525 319.724ZM123.927 317.064C124.571 316.952 124.767 317.554 125.117 319.598C125.453 321.642 125.453 322.286 124.823 322.398C124.193 322.51 123.983 321.894 123.647 319.85C123.297 317.806 123.297 317.176 123.927 317.064ZM128.787 321.488C128.899 322.538 129.865 323.196 131.139 323.196C132.147 323.196 133.127 322.762 133.561 321.936C133.715 322.762 134.569 323.168 135.605 323.182C137.733 323.21 137.943 322.132 137.607 322.048C137.425 322.006 137.271 322.258 137.047 322.23C136.809 322.202 136.725 321.95 136.725 321.516C136.725 320.956 136.725 320.018 136.739 319.052C136.739 317.036 135.045 316.266 132.889 316.266C130.901 316.252 129.585 316.84 129.529 317.694C129.487 318.226 130.089 318.492 130.677 318.492C131.167 318.492 131.657 318.296 131.755 317.932C131.909 317.386 132.007 316.952 132.721 316.966C133.337 316.98 133.547 317.484 133.547 318.548V319.024C133.295 318.94 132.861 318.884 132.357 318.884C130.817 318.884 128.591 319.43 128.787 321.488ZM131.881 320.676C131.965 319.808 132.469 319.612 132.903 319.612C133.183 319.612 133.449 319.696 133.547 319.738L133.533 320.508C133.519 321.236 133.393 321.852 132.749 321.866C132.133 321.894 131.825 321.362 131.881 320.676ZM138.303 317.512C138.485 317.512 138.709 317.47 138.891 317.47C139.087 317.47 139.227 317.526 139.227 317.75V321.628C139.227 321.88 139.087 322.118 138.849 322.23C138.751 322.286 138.653 322.342 138.569 322.398C138.331 322.566 138.471 323 138.751 323H142.755C143.049 323 143.189 322.566 142.937 322.398C142.853 322.342 142.783 322.286 142.699 322.244C142.489 322.104 142.335 321.866 142.335 321.628V319.262C142.405 318.548 142.895 317.722 143.511 317.708C144.183 317.694 144.113 318.59 144.113 319.346L144.099 321.614C144.113 322.328 144.337 323 145.359 323H147.669C147.963 323 148.089 322.566 147.851 322.398C147.767 322.342 147.697 322.286 147.613 322.244C147.389 322.104 147.249 321.866 147.249 321.628V321.488V318.408C147.249 316.868 146.521 316.224 144.743 316.252C143.749 316.28 142.853 316.812 142.335 317.596C142.335 316.406 141.845 316.266 140.809 316.266C139.913 316.266 138.835 316.49 138.205 316.854C137.911 317.008 137.995 317.484 138.303 317.512Z" fill="black"/>
<path d="M83 299C91.2843 299 98 292.284 98 284C98 275.716 91.2843 269 83 269C74.7157 269 68 275.716 68 284C68 292.284 74.7157 299 83 299Z" fill="#FBB33B" stroke="black" stroke-miterlimit="10"/>
<path d="M74.4922 283.67C74.4922 282.037 74.7852 280.895 75.3711 280.242C75.9609 279.59 76.8574 279.264 78.0605 279.264C78.6387 279.264 79.1133 279.336 79.4844 279.48C79.8555 279.621 80.1582 279.807 80.3926 280.037C80.627 280.264 80.8105 280.504 80.9434 280.758C81.0801 281.008 81.1895 281.301 81.2715 281.637C81.4316 282.277 81.5117 282.945 81.5117 283.641C81.5117 285.199 81.248 286.34 80.7207 287.062C80.1934 287.785 79.2852 288.146 77.9961 288.146C77.2734 288.146 76.6895 288.031 76.2441 287.801C75.7988 287.57 75.4336 287.232 75.1484 286.787C74.9414 286.471 74.7793 286.039 74.6621 285.492C74.5488 284.941 74.4922 284.334 74.4922 283.67ZM76.8594 283.676C76.8594 284.77 76.9551 285.518 77.1465 285.92C77.3418 286.318 77.623 286.518 77.9902 286.518C78.2324 286.518 78.4414 286.434 78.6172 286.266C78.7969 286.094 78.9277 285.824 79.0098 285.457C79.0957 285.09 79.1387 284.518 79.1387 283.74C79.1387 282.6 79.041 281.834 78.8457 281.443C78.6543 281.049 78.3652 280.852 77.9785 280.852C77.584 280.852 77.2988 281.053 77.123 281.455C76.9473 281.854 76.8594 282.594 76.8594 283.676ZM84.8105 281.895L82.5547 281.49C82.7422 280.771 83.1016 280.221 83.6328 279.838C84.168 279.455 84.9238 279.264 85.9004 279.264C87.0215 279.264 87.832 279.473 88.332 279.891C88.832 280.309 89.082 280.834 89.082 281.467C89.082 281.838 88.9805 282.174 88.7773 282.475C88.5742 282.775 88.2676 283.039 87.8574 283.266C88.1895 283.348 88.4434 283.443 88.6191 283.553C88.9043 283.729 89.125 283.961 89.2812 284.25C89.4414 284.535 89.5215 284.877 89.5215 285.275C89.5215 285.775 89.3906 286.256 89.1289 286.717C88.8672 287.174 88.4902 287.527 87.998 287.777C87.5059 288.023 86.8594 288.146 86.0586 288.146C85.2773 288.146 84.6602 288.055 84.207 287.871C83.7578 287.688 83.3867 287.42 83.0938 287.068C82.8047 286.713 82.582 286.268 82.4258 285.732L84.8105 285.416C84.9043 285.896 85.0488 286.23 85.2441 286.418C85.4434 286.602 85.6953 286.693 86 286.693C86.3203 286.693 86.5859 286.576 86.7969 286.342C87.0117 286.107 87.1191 285.795 87.1191 285.404C87.1191 285.006 87.0156 284.697 86.8086 284.479C86.6055 284.26 86.3281 284.15 85.9766 284.15C85.7891 284.15 85.5312 284.197 85.2031 284.291L85.3262 282.586C85.459 282.605 85.5625 282.615 85.6367 282.615C85.9492 282.615 86.209 282.516 86.416 282.316C86.627 282.117 86.7324 281.881 86.7324 281.607C86.7324 281.346 86.6543 281.137 86.498 280.98C86.3418 280.824 86.127 280.746 85.8535 280.746C85.5723 280.746 85.3438 280.832 85.168 281.004C84.9922 281.172 84.873 281.469 84.8105 281.895Z" fill="black"/>
<path d="M237.5 239C269.256 239 295 213.256 295 181.5C295 149.744 269.256 124 237.5 124C205.744 124 180 149.744 180 181.5C180 213.256 205.744 239 237.5 239Z" fill="#F68B38" stroke="black" stroke-miterlimit="10"/>
<path d="M241.5 236C273.256 236 299 210.256 299 178.5C299 146.744 273.256 121 241.5 121C209.744 121 184 146.744 184 178.5C184 210.256 209.744 236 241.5 236Z" fill="#F499AD" stroke="black" stroke-miterlimit="10"/>
<path d="M221.677 172.589H208.806L213.024 155L195.612 181.937H208.484L204.265 199.526L221.677 172.589Z" fill="#F8B33C" stroke="black" stroke-miterlimit="10" stroke-linecap="round" stroke-linejoin="round"/>
<path d="M242 134C250.284 134 257 127.284 257 119C257 110.716 250.284 104 242 104C233.716 104 227 110.716 227 119C227 127.284 233.716 134 242 134Z" fill="#FBB33B" stroke="black" stroke-miterlimit="10"/>
<path d="M233.492 118.67C233.492 117.037 233.785 115.895 234.371 115.242C234.961 114.59 235.857 114.264 237.061 114.264C237.639 114.264 238.113 114.336 238.484 114.48C238.855 114.621 239.158 114.807 239.393 115.037C239.627 115.264 239.811 115.504 239.943 115.758C240.08 116.008 240.189 116.301 240.271 116.637C240.432 117.277 240.512 117.945 240.512 118.641C240.512 120.199 240.248 121.34 239.721 122.062C239.193 122.785 238.285 123.146 236.996 123.146C236.273 123.146 235.689 123.031 235.244 122.801C234.799 122.57 234.434 122.232 234.148 121.787C233.941 121.471 233.779 121.039 233.662 120.492C233.549 119.941 233.492 119.334 233.492 118.67ZM235.859 118.676C235.859 119.77 235.955 120.518 236.146 120.92C236.342 121.318 236.623 121.518 236.99 121.518C237.232 121.518 237.441 121.434 237.617 121.266C237.797 121.094 237.928 120.824 238.01 120.457C238.096 120.09 238.139 119.518 238.139 118.74C238.139 117.6 238.041 116.834 237.846 116.443C237.654 116.049 237.365 115.852 236.979 115.852C236.584 115.852 236.299 116.053 236.123 116.455C235.947 116.854 235.859 117.594 235.859 118.676ZM248.48 123H241.32C241.402 122.293 241.65 121.629 242.064 121.008C242.482 120.383 243.264 119.646 244.408 118.799C245.107 118.279 245.555 117.885 245.75 117.615C245.945 117.346 246.043 117.09 246.043 116.848C246.043 116.586 245.945 116.363 245.75 116.18C245.559 115.992 245.316 115.898 245.023 115.898C244.719 115.898 244.469 115.994 244.273 116.186C244.082 116.377 243.953 116.715 243.887 117.199L241.496 117.006C241.59 116.334 241.762 115.811 242.012 115.436C242.262 115.057 242.613 114.768 243.066 114.568C243.523 114.365 244.154 114.264 244.959 114.264C245.799 114.264 246.451 114.359 246.916 114.551C247.385 114.742 247.752 115.037 248.018 115.436C248.287 115.83 248.422 116.273 248.422 116.766C248.422 117.289 248.268 117.789 247.959 118.266C247.654 118.742 247.098 119.266 246.289 119.836C245.809 120.168 245.486 120.4 245.322 120.533C245.162 120.666 244.973 120.84 244.754 121.055H248.48V123Z" fill="black"/>
<path d="M227.197 152.208C227.325 155.696 229.501 158.208 233.581 158.208C234.461 158.208 235.373 158.112 236.205 157.76C236.493 157.664 236.765 157.616 237.005 157.616C237.501 157.616 237.901 157.776 238.301 157.888C238.573 157.968 238.765 157.808 238.765 157.52V154.672V154.512C238.765 154.24 238.925 153.952 239.181 153.808C239.261 153.744 239.357 153.68 239.453 153.616C239.725 153.44 239.581 152.944 239.245 152.944H234.285C233.965 152.944 233.821 153.44 234.093 153.616C234.173 153.68 234.589 153.744 234.717 153.808C234.973 153.952 235.133 154.112 235.165 154.496C235.165 155.616 235.149 156.976 234.413 156.88C232.285 156.832 231.421 154.24 231.213 152.48C230.861 149.52 231.181 147.392 232.877 147.184C234.045 147.04 235.037 147.456 234.989 149.44C234.957 150.704 235.885 151.424 237.357 151.312C238.717 151.2 239.421 150.048 238.909 148.736C238.285 147.12 236.349 146.192 233.485 146.192C229.405 146.192 227.085 148.56 227.197 152.208ZM240.712 152.208C240.712 155.856 242.904 158.208 246.984 158.208C251.064 158.208 253.288 155.856 253.272 152.208C253.272 148.56 251.064 146.192 246.984 146.192C242.904 146.192 240.712 148.56 240.712 152.208ZM246.392 147.184C248.088 146.976 248.888 148.976 249.256 151.936C249.608 154.88 249.32 157.008 247.608 157.216C245.912 157.424 245.08 155.44 244.728 152.48C244.36 149.52 244.696 147.392 246.392 147.184ZM227.181 171.088C227.293 171.152 227.405 171.216 227.517 171.28C227.757 171.408 227.981 171.632 228.109 171.872L231.933 181.552C232.045 181.824 232.317 182 232.605 182H234.589C234.877 182 235.133 181.824 235.245 181.552L237.517 175.824L239.629 181.536C239.725 181.824 239.997 182 240.285 182H242.269C242.557 182 242.813 181.824 242.925 181.552L246.749 171.952C246.845 171.696 247.069 171.472 247.357 171.328C247.517 171.248 247.645 171.168 247.773 171.088C248.045 170.896 247.901 170.4 247.565 170.4H245.405C245.085 170.4 244.941 170.896 245.213 171.088C245.261 171.12 245.309 171.152 245.357 171.184C245.597 171.328 245.677 171.648 245.581 171.936L242.829 179.008L240.493 171.936C240.445 171.696 240.541 171.456 240.765 171.28C240.861 171.216 240.941 171.136 241.021 171.088C241.293 170.896 241.149 170.4 240.829 170.4H235.389C235.053 170.4 234.909 170.896 235.181 171.088C235.293 171.152 235.405 171.216 235.517 171.28C235.773 171.424 235.997 171.68 236.093 171.936L236.973 174.32L235.133 179.056L232.557 172C232.477 171.744 232.557 171.472 232.797 171.264C232.877 171.2 232.941 171.136 233.021 171.088C233.293 170.896 233.149 170.4 232.813 170.4H227.389C227.053 170.4 226.909 170.896 227.181 171.088ZM249.464 182H254.424C254.76 182 254.904 181.504 254.632 181.312C254.536 181.248 254.44 181.184 254.36 181.136C254.104 180.976 253.944 180.704 253.944 180.432V172.128V171.968C253.944 171.696 254.104 171.424 254.36 171.264C254.44 171.216 254.536 171.152 254.632 171.088C254.904 170.896 254.76 170.4 254.424 170.4H249.464C249.144 170.4 249 170.896 249.272 171.088C249.352 171.152 249.464 171.216 249.592 171.28C249.848 171.408 250.024 171.68 250.024 171.968V180.432C250.024 180.72 249.848 180.992 249.592 181.12C249.464 181.184 249.352 181.248 249.272 181.312C249 181.504 249.144 182 249.464 182ZM256.194 171.088C256.274 171.152 256.386 171.216 256.514 171.28C256.77 171.408 256.946 171.68 256.946 171.968V180.432C256.946 180.72 256.77 180.992 256.514 181.12C256.386 181.184 256.274 181.248 256.194 181.312C255.922 181.504 256.066 182 256.386 182H265.426C265.714 182 265.954 181.808 266.018 181.536C266.13 181.104 266.29 180.448 266.37 179.872C266.45 179.44 266.21 179.2 265.906 179.2C265.682 179.2 265.442 179.328 265.266 179.6C264.834 180.256 264.594 181.04 262.93 181.04H261.346C261.058 181.04 260.866 180.848 260.866 180.56V172.128V171.968C260.866 171.696 261.026 171.424 261.282 171.264C261.362 171.216 261.458 171.152 261.554 171.088C261.826 170.896 261.682 170.4 261.346 170.4H256.386C256.066 170.4 255.922 170.896 256.194 171.088ZM267.569 171.136C267.649 171.184 267.761 171.248 267.889 171.312C268.145 171.456 268.321 171.728 268.321 172.016V180.432C268.321 180.72 268.145 180.992 267.889 181.12C267.761 181.184 267.649 181.248 267.569 181.312C267.297 181.504 267.441 182 267.761 182H272.897C277.345 182 280.113 180.096 280.113 176.224C280.113 172.352 277.313 170.416 272.897 170.432L267.761 170.448C267.441 170.448 267.297 170.944 267.569 171.136ZM272.241 180.56V171.888C272.241 171.6 272.433 171.392 272.721 171.392C275.121 171.408 276.193 172.96 276.193 176.24C276.193 179.52 275.089 181.04 272.721 181.04C272.433 181.04 272.241 180.848 272.241 180.56ZM231.325 206.704C231.629 206.848 232.109 206.944 232.525 206.944C232.909 206.944 232.973 206.784 232.717 206.496C230.477 203.824 230.477 196.576 232.717 193.92C232.973 193.632 232.909 193.488 232.541 193.488C232.109 193.488 231.645 193.584 231.341 193.744C226.141 196.288 226.141 204.24 231.325 206.704ZM234.204 195.072C234.284 195.136 234.396 195.2 234.524 195.264C234.78 195.408 234.956 195.68 234.956 195.968V201.888C234.956 204.704 237.004 206.224 240.844 206.224C244.204 206.224 245.756 204.672 245.756 201.696V195.984C245.756 195.712 245.916 195.44 246.172 195.28C246.252 195.232 246.348 195.168 246.444 195.104C246.716 194.912 246.572 194.416 246.236 194.416H244.172C243.836 194.416 243.692 194.912 243.964 195.104C244.044 195.168 244.172 195.232 244.284 195.296C244.508 195.408 244.668 195.632 244.716 195.872V201.456C244.716 203.936 243.74 205.216 241.66 205.216C239.724 205.216 238.892 204.048 238.892 201.456V195.872C238.924 195.632 239.084 195.392 239.308 195.264C239.388 195.2 239.484 195.136 239.58 195.072C239.852 194.896 239.692 194.384 239.372 194.384H234.396C234.076 194.384 233.932 194.896 234.204 195.072ZM247.588 203.184C247.684 204.976 250.068 206.224 253.476 206.224C256.644 206.224 258.884 204.944 258.996 202.72C259.204 198.768 250.804 198.272 250.66 196.144C250.596 195.392 251.54 194.832 252.82 195.008C254.804 195.28 254.724 197.408 256.388 198.096C256.628 198.192 256.868 198.24 257.092 198.24C257.876 198.24 258.532 197.696 258.276 196.688C257.972 195.504 255.988 194.192 252.852 194.192C249.908 194.176 247.748 195.424 247.748 197.648C247.748 201.648 256.148 202.096 255.764 204.416C255.636 205.184 254.804 205.568 253.7 205.44C250.708 205.12 251.172 201.904 248.98 201.808C248.132 201.76 247.54 202.384 247.588 203.184ZM260.069 195.12C260.149 195.184 260.261 195.248 260.389 195.312C260.645 195.44 260.821 195.712 260.821 196V204.432C260.821 204.72 260.645 204.992 260.389 205.12C260.261 205.184 260.149 205.248 260.069 205.312C259.797 205.504 259.941 206 260.261 206H269.781C270.069 206 270.309 205.808 270.373 205.536C270.485 205.104 270.645 204.448 270.725 203.872C270.805 203.44 270.565 203.2 270.261 203.2C270.037 203.2 269.797 203.328 269.621 203.6C269.189 204.256 268.949 205.04 267.285 205.04H265.221C264.933 205.04 264.741 204.848 264.741 204.56V200.464H265.893C267.973 200.464 267.269 201.744 267.989 201.808C268.821 201.888 268.917 198.08 268.069 198.112C267.301 198.144 267.973 199.52 265.893 199.52H264.741V196.16V195.872C264.741 195.584 264.933 195.392 265.221 195.392H266.965C268.629 195.392 268.869 196.192 269.301 196.848C269.477 197.104 269.717 197.232 269.925 197.232C270.229 197.232 270.469 197.008 270.405 196.56C270.309 195.984 270.165 195.344 270.053 194.912C269.989 194.624 269.733 194.432 269.445 194.432H260.261C259.941 194.432 259.797 194.928 260.069 195.12ZM272.042 193.92C274.282 196.592 274.282 203.84 272.042 206.496C271.802 206.784 271.866 206.944 272.234 206.944C272.65 206.944 273.13 206.832 273.434 206.688C278.634 204.128 278.634 196.176 273.434 193.728C273.13 193.584 272.65 193.488 272.234 193.488C271.866 193.488 271.802 193.632 272.042 193.92Z" fill="black"/>
<path d="M187.813 126.969L161.599 126.925L161.585 118.649L173.666 118.669L145.999 91.0014L151.838 85.1615L179.506 112.829L179.486 100.748L187.762 100.762L187.813 126.969Z" fill="#F68B38" stroke="black" stroke-miterlimit="10"/>
<path d="M149.187 281.969L175.401 281.925L175.415 273.649L163.334 273.669L191.001 246.001L185.162 240.162L157.494 267.829L157.514 255.748L149.238 255.762L149.187 281.969Z" fill="#F68B38" stroke="black" stroke-miterlimit="10"/>
<path d="M95.2394 201.492C94.674 201.076 94.1085 200.781 93.5157 200.578C93.3059 200.449 93.0916 200.32 92.8727 200.214C92.7679 200.144 92.6493 200.094 92.5125 200.061C91.5823 199.725 90.5745 199.706 89.6397 199.355C88.8918 199.074 88.2398 198.585 87.46 198.41C87.273 198.368 87.0906 198.34 86.9037 198.322C86.9447 198.027 86.7897 197.671 86.4705 197.607C85.8093 197.478 85.1754 197.639 84.5096 197.671C83.8667 197.708 83.2602 197.662 82.6628 197.538C82.3482 197.473 81.988 197.63 81.9104 197.971C81.9059 197.994 81.9059 198.022 81.9013 198.045C81.8785 198.068 81.8512 198.087 81.8329 198.114C81.6961 198.28 81.5912 198.465 81.4909 198.654C81.2903 199.028 81.117 199.415 80.9574 199.812C80.9163 199.914 80.93 200.052 80.9665 200.167C80.9118 200.361 80.8616 200.55 80.8069 200.74C80.5424 201.667 80.2551 202.603 80.4649 203.577C80.5333 203.904 80.9118 204.094 81.2173 204.011C81.4043 203.96 81.532 203.821 81.6004 203.66C81.6961 203.725 81.8101 203.766 81.9287 203.757C81.9925 203.752 82.0518 203.738 82.1065 203.725C83.3651 204.246 84.7605 204.2 86.1148 204.232C88.1714 204.283 90.2234 204.209 92.2754 204.052C92.6493 204.024 92.9457 203.872 93.1691 203.66C93.4792 203.835 93.7939 203.997 94.1313 204.126C95.7729 204.744 96.4478 202.387 95.2394 201.492Z" fill="#F68B38"/>
<path d="M63.4168 193.499C63.5582 192.89 63.5308 192.203 63.4214 191.654C63.2891 190.966 62.5458 190.551 61.8983 190.616C61.2918 189.882 60.1381 189.808 59.0483 189.799C57.165 189.785 56.4172 190.505 56.098 192.383C55.7377 194.51 54.9215 196.742 55.0583 198.915C55.1814 200.821 55.4459 203.211 57.3702 204.05C58.0588 204.35 58.9206 204.286 59.3265 203.534C60.0789 202.131 59.8782 200.553 60.6306 199.155C60.7857 198.865 60.8358 198.579 60.8085 198.316C61.0228 198.127 61.2097 197.896 61.4058 197.61C61.611 197.315 61.7752 196.996 61.9165 196.664C62.5185 196.392 63.2618 196.253 63.7041 195.769C64.2923 195.132 64.2786 193.928 63.4168 193.499Z" fill="#F68B38"/>
<path d="M121.492 142.122C121.337 141.859 121.063 141.79 120.785 141.785C120.411 141.776 120.032 141.785 119.658 141.785C119.339 141.785 119.029 142.071 119.047 142.404C119.047 142.413 119.052 142.422 119.052 142.431C118.696 142.607 118.359 142.819 118.058 143.077C118.208 142.819 118.35 142.56 118.455 142.279C118.596 141.905 118.596 141.513 118.605 141.116C118.61 140.803 118.669 140.526 118.81 140.258C118.965 139.963 118.883 139.585 118.591 139.409C118.427 139.312 118.222 139.308 118.044 139.377C118.021 139.372 117.999 139.372 117.98 139.368C117.953 139.363 117.917 139.359 117.885 139.354C117.875 139.354 117.866 139.354 117.857 139.354C117.853 139.354 117.848 139.354 117.844 139.354C117.784 139.359 117.725 139.368 117.67 139.377C117.652 139.382 117.634 139.386 117.616 139.391C117.565 139.409 117.511 139.432 117.461 139.455C117.456 139.455 117.451 139.46 117.447 139.46C117.438 139.465 117.429 139.469 117.419 139.474C117.41 139.478 117.406 139.483 117.397 139.488C117.347 139.525 117.301 139.562 117.255 139.598C117.242 139.612 117.228 139.626 117.214 139.64C117.178 139.686 117.137 139.732 117.105 139.783C117.1 139.792 117.096 139.801 117.091 139.811C117.091 139.815 117.087 139.82 117.087 139.825C117.064 139.875 117.041 139.931 117.023 139.981C117.018 139.991 117.014 140 117.014 140.009C117.009 140.018 117.009 140.032 117.009 140.041C117.005 140.055 117.005 140.074 117.005 140.092C116.453 140.65 116.038 141.315 115.787 142.044C115.792 141.998 115.796 141.956 115.801 141.91C115.86 141.079 116.024 139.732 114.953 139.502C113.858 139.266 113.781 140.59 113.699 141.319C113.644 141.818 113.562 142.311 113.439 142.796C113.384 143.017 113.32 143.234 113.243 143.446C113.211 143.534 113.179 143.626 113.138 143.709C113.133 143.705 113.129 143.705 113.129 143.705C113.343 143.119 112.992 142.237 112.773 141.762C112.741 141.693 112.7 141.638 112.654 141.592C112.6 141.485 112.522 141.389 112.417 141.333C112.271 141.255 112.107 141.227 111.947 141.269C111.592 141.365 111.323 141.688 111.25 142.048C111.222 142.177 111.218 142.302 111.218 142.427C111.067 142.556 110.976 142.763 111.045 143.036C111.496 144.876 111.947 146.717 112.399 148.558C112.44 148.71 112.517 148.816 112.613 148.886C112.691 149.135 112.937 149.319 113.197 149.319C113.366 149.319 113.498 149.255 113.598 149.158C113.703 149.25 113.835 149.31 113.995 149.329C114.647 149.393 115.322 149.329 115.947 149.139C116.279 149.042 116.621 148.923 116.881 148.683C117.128 148.457 117.251 148.147 117.242 147.824C117.347 147.723 117.442 147.608 117.511 147.478C117.739 147.049 117.862 146.537 118.017 146.076C118.04 146.011 118.044 145.947 118.04 145.878C118.099 145.813 118.158 145.744 118.231 145.665C118.336 145.559 118.441 145.453 118.555 145.356C118.614 145.305 118.674 145.255 118.737 145.204C118.756 145.19 118.829 145.135 118.833 145.135C119.12 144.927 119.426 144.752 119.7 144.53C119.928 144.35 120.101 144.129 120.283 143.908C120.37 143.801 120.461 143.7 120.566 143.603C120.621 143.557 120.625 143.552 120.58 143.594C120.612 143.575 120.639 143.552 120.671 143.538C120.716 143.515 120.762 143.492 120.808 143.469C121.095 143.326 121.364 143.151 121.505 142.851C121.61 142.63 121.633 142.357 121.492 142.122Z" fill="#F68B38"/>
<path d="M108.122 159.327C107.521 159.327 106.923 159.06 106.522 158.543C105.824 157.653 105.97 156.356 106.85 155.646C106.9 155.604 109.787 153.224 110.713 149.925C111.023 148.827 112.149 148.19 113.234 148.504C114.32 148.818 114.949 149.957 114.639 151.055C113.339 155.673 109.55 158.755 109.386 158.884C109.016 159.18 108.569 159.327 108.122 159.327Z" fill="black"/>
<path d="M111.262 150.001C111.189 150.001 111.116 149.982 111.053 149.941C110.861 149.826 110.797 149.572 110.911 149.373L111.559 148.28C111.344 147.819 110.939 146.688 111.062 145.037C110.825 144.474 109.817 141.862 111.281 140.829C111.299 140.82 111.313 140.806 111.331 140.797C111.39 140.764 111.933 140.511 112.521 140.852C113.164 141.226 113.556 142.158 113.684 143.616C114.505 143.777 116.525 144.372 116.876 146.398C116.912 146.624 116.766 146.836 116.543 146.877C116.319 146.914 116.11 146.767 116.069 146.541C115.749 144.663 113.282 144.386 113.26 144.386C113.059 144.368 112.904 144.202 112.895 143.999C112.785 142.167 112.32 141.692 112.124 141.572C111.946 141.461 111.778 141.503 111.714 141.526C110.888 142.167 111.527 144.091 111.846 144.783C111.878 144.847 111.887 144.921 111.883 144.995C111.714 146.919 112.366 148.063 112.375 148.077C112.453 148.206 112.453 148.372 112.375 148.501L111.609 149.793C111.536 149.932 111.399 150.001 111.262 150.001Z" fill="black"/>
<path d="M114.268 150.164C114.054 150.164 113.876 149.993 113.862 149.777C113.848 149.55 114.022 149.352 114.245 149.338C114.263 149.338 116.283 149.195 116.904 147.936C116.917 147.913 116.931 147.89 116.945 147.871C116.949 147.867 117.419 147.23 117.506 146.455C117.515 146.358 117.56 146.27 117.629 146.206L121.071 142.852C121.135 142.685 121.254 142.243 120.912 141.998C120.871 141.97 120.305 141.564 119.266 142.376C118.253 143.521 117.15 144.803 117.04 144.983C116.922 145.177 116.666 145.232 116.48 145.112C116.288 144.992 116.233 144.739 116.352 144.545C116.548 144.226 118.331 142.201 118.687 141.8C118.7 141.781 118.719 141.767 118.737 141.749C120.328 140.48 121.363 141.301 121.409 141.338C122.17 141.873 121.993 142.838 121.792 143.267C121.769 143.313 121.742 143.35 121.705 143.387L118.304 146.699C118.167 147.53 117.734 148.18 117.624 148.337C116.781 149.998 114.4 150.159 114.3 150.164C114.282 150.164 114.272 150.164 114.268 150.164Z" fill="black"/>
<path d="M113.862 144.501C113.666 144.501 113.492 144.358 113.461 144.151C113.401 143.763 112.9 140.326 113.912 139.177C114.154 138.905 114.464 138.762 114.815 138.762C114.819 138.762 114.819 138.762 114.819 138.762C114.979 138.734 115.357 138.711 115.727 138.988C116.224 139.362 116.484 140.104 116.507 141.207C116.511 141.433 116.333 141.622 116.105 141.627C116.101 141.627 116.101 141.627 116.096 141.627C115.873 141.627 115.69 141.447 115.686 141.221C115.668 140.151 115.403 139.781 115.253 139.657C115.111 139.541 114.97 139.569 114.956 139.574C114.92 139.583 114.87 139.588 114.838 139.588C114.71 139.583 114.61 139.625 114.518 139.726C113.944 140.372 114.058 142.702 114.263 144.017C114.3 144.243 114.145 144.455 113.926 144.487C113.903 144.497 113.88 144.501 113.862 144.501Z" fill="black"/>
<path d="M117.566 144.11C117.497 144.11 117.424 144.092 117.361 144.055C117.165 143.94 117.101 143.691 117.21 143.492C118.405 141.407 118.364 140.438 118.232 140.046C118.159 139.824 118.04 139.746 118.035 139.741C117.963 139.714 117.858 139.686 117.693 139.764C116.85 140.152 115.847 142.38 115.409 143.691C115.336 143.907 115.108 144.023 114.894 143.949C114.679 143.875 114.565 143.64 114.638 143.428C114.766 143.045 115.915 139.681 117.356 139.012C117.689 138.856 118.035 138.846 118.35 138.98C118.396 138.999 118.806 139.188 119.007 139.783C119.317 140.715 118.952 142.104 117.917 143.907C117.844 144.037 117.707 144.11 117.566 144.11Z" fill="black"/>
<path d="M65.5223 195.145C64.9568 195.145 64.3823 195.122 63.7895 195.076C62.6677 194.984 61.8287 193.987 61.9199 192.852C62.0111 191.717 62.996 190.864 64.1178 190.961C73.0099 191.685 78.7008 185.078 78.7555 185.014C79.4851 184.146 80.771 184.045 81.6283 184.778C82.4856 185.517 82.595 186.813 81.87 187.68C81.6055 187.999 75.527 195.145 65.5223 195.145Z" fill="black"/>
<path d="M104.958 207.072H68.6425C68.0634 207.072 67.5938 206.597 67.5938 206.011V204.719C67.5938 204.133 68.0634 203.658 68.6425 203.658H104.958C105.537 203.658 106.007 204.133 106.007 204.719V206.011C106.007 206.597 105.537 207.072 104.958 207.072Z" fill="black"/>
<path d="M50.2875 195.427H43.7257C42.4625 195.427 41.4365 194.389 41.4365 193.111C41.4365 191.833 42.4625 190.795 43.7257 190.795C43.9491 190.795 44.1361 190.979 44.1361 191.21C44.1361 191.436 43.9537 191.625 43.7257 191.625C42.914 191.625 42.2528 192.294 42.2528 193.116C42.2528 193.937 42.914 194.606 43.7257 194.606H50.2875C50.511 194.606 50.6979 194.79 50.6979 195.021C50.6979 195.252 50.511 195.427 50.2875 195.427Z" fill="black"/>
<path d="M41.2545 196.082H38.4729C37.6612 196.082 37 195.413 37 194.592C37 193.771 37.6612 193.102 38.4729 193.102C38.6963 193.102 38.8833 193.286 38.8833 193.517C38.8833 193.743 38.7009 193.932 38.4729 193.932C38.1126 193.932 37.8162 194.227 37.8162 194.596C37.8162 194.961 38.1081 195.261 38.4729 195.261H41.2545C41.4779 195.261 41.6649 195.445 41.6649 195.676C41.6649 195.897 41.4825 196.082 41.2545 196.082Z" fill="black"/>
<path d="M39.8996 199.803C39.088 199.803 38.4268 199.134 38.4268 198.312C38.4268 197.491 39.088 196.822 39.8996 196.822H40.6384C40.8618 196.822 41.0488 197.007 41.0488 197.237C41.0488 197.468 40.8664 197.653 40.6384 197.653H39.8996C39.5394 197.653 39.243 197.948 39.243 198.317C39.243 198.682 39.5348 198.981 39.8996 198.981C40.1231 198.981 40.31 199.166 40.31 199.397C40.31 199.627 40.1231 199.803 39.8996 199.803Z" fill="black"/>
<path d="M43.7257 201.204C42.4625 201.204 41.4365 200.166 41.4365 198.888C41.4365 197.61 42.4625 196.572 43.7257 196.572H50.2875C50.511 196.572 50.6979 196.757 50.6979 196.987C50.6979 197.214 50.5155 197.403 50.2875 197.403H43.7257C42.914 197.403 42.2528 198.072 42.2528 198.893C42.2528 199.714 42.914 200.383 43.7257 200.383C43.9491 200.383 44.1361 200.568 44.1361 200.798C44.1361 201.029 43.9491 201.204 43.7257 201.204Z" fill="black"/>
<path d="M62.578 195.425C61.2236 195.425 60.1201 194.262 60.1201 192.836C60.1201 191.411 61.2236 190.248 62.578 190.248C63.9323 190.248 65.0358 191.411 65.0358 192.836C65.0404 194.262 63.9369 195.425 62.578 195.425ZM62.578 191.069C61.6705 191.069 60.9364 191.858 60.9364 192.832C60.9364 193.805 61.6751 194.594 62.578 194.594C63.4854 194.594 64.2196 193.805 64.2196 192.832C64.2241 191.863 63.4854 191.069 62.578 191.069Z" fill="black"/>
<path d="M58.1454 204.618C57.2288 204.618 56.3898 204.235 56.3396 204.212C56.3032 204.199 56.2712 204.175 56.2439 204.152C52.6415 201.034 55.9748 190.427 56.1208 189.979C56.1572 189.869 56.2348 189.776 56.3442 189.73C60.0652 188.042 62.7282 190.247 62.8422 190.339C63.0155 190.487 63.0383 190.745 62.8924 190.921C62.7465 191.096 62.4911 191.119 62.3178 190.971C62.213 190.884 59.9922 189.075 56.8458 190.408C56.6497 191.054 55.984 193.37 55.6237 195.926C55.0902 199.733 55.4732 202.344 56.7318 203.488C56.978 203.59 58.0588 204.005 58.8294 203.673C59.1395 203.539 59.3584 203.299 59.4997 202.934C59.5271 202.307 59.7961 197.975 62.0853 196.512C62.1126 196.494 62.14 196.48 62.1719 196.471C62.6142 196.319 63.891 195.719 63.9321 194.985C63.9458 194.759 64.1373 194.584 64.3607 194.593C64.5842 194.607 64.7574 194.801 64.7483 195.027C64.6754 196.374 62.865 197.094 62.4866 197.232C60.471 198.57 60.316 202.981 60.316 203.027C60.316 203.068 60.3069 203.114 60.2932 203.151C60.0789 203.765 59.6913 204.199 59.1486 204.429C58.8249 204.568 58.4829 204.618 58.1454 204.618Z" fill="black"/>
<path d="M84.3823 199.585C83.9491 199.585 83.5159 199.446 83.1465 199.16C82.2482 198.468 82.0749 197.172 82.7589 196.268C83.4566 195.29 84.8474 189.559 85.7047 184.821C85.9054 183.7 86.9678 182.957 88.0805 183.16C89.1886 183.363 89.9227 184.443 89.7221 185.564C89.1293 188.84 87.5835 196.678 86.0102 198.768C85.6044 199.308 84.9934 199.585 84.3823 199.585Z" fill="black"/>
<path d="M84.3232 199.669C82.5356 199.669 81.1904 198.959 81.1904 198.022C81.1904 197.085 82.5356 196.375 84.3232 196.375C86.1107 196.375 87.4559 197.085 87.4559 198.022C87.4559 198.959 86.1107 199.669 84.3232 199.669ZM84.3232 197.201C82.8229 197.201 82.0067 197.745 82.0067 198.022C82.0067 198.299 82.8229 198.843 84.3232 198.843C85.8234 198.843 86.6397 198.299 86.6397 198.022C86.6397 197.745 85.8234 197.201 84.3232 197.201Z" fill="black"/>
<path d="M95.8292 204.208H80.4893C80.2932 204.208 80.1199 204.065 80.088 203.867C80.0607 203.701 79.4086 199.807 81.3055 197.781C81.4606 197.615 81.7159 197.606 81.8801 197.763C82.0443 197.92 82.0534 198.183 81.8983 198.344C80.5805 199.756 80.7401 202.432 80.8495 203.378H95.5419C96.0025 201.721 94.1603 200.909 94.0782 200.873L86.9235 198.45C86.7092 198.377 86.5952 198.146 86.6681 197.929C86.7411 197.712 86.9737 197.597 87.1834 197.671L94.3655 200.102C95.3869 200.531 97.0468 201.874 96.2123 203.95C96.1439 204.107 95.998 204.208 95.8292 204.208Z" fill="black"/>
<path d="M73.0525 211C74.3495 211 75.4009 209.936 75.4009 208.624C75.4009 207.312 74.3495 206.248 73.0525 206.248C71.7555 206.248 70.7041 207.312 70.7041 208.624C70.7041 209.936 71.7555 211 73.0525 211Z" fill="black"/>
<path d="M99.9734 211C101.27 211 102.322 209.936 102.322 208.624C102.322 207.312 101.27 206.248 99.9734 206.248C98.6764 206.248 97.625 207.312 97.625 208.624C97.625 209.936 98.6764 211 99.9734 211Z" fill="black"/>
<path d="M70.024 206.417L68.9569 206.819C68.4736 206.999 67.9355 206.749 67.7576 206.26L66.7043 203.386C66.5264 202.897 66.7727 202.353 67.256 202.173L68.3231 201.771C68.8064 201.591 69.3445 201.841 69.5224 202.33L70.5757 205.204C70.7536 205.693 70.5073 206.233 70.024 206.417Z" fill="black"/>
<path d="M99.7307 147.604C96.7485 147.604 94.3272 145.159 94.3272 142.137C94.3272 141.321 94.5096 140.55 94.8242 139.853C90.3144 136.19 84.5916 133.994 78.3582 133.994C63.8165 133.994 52.0244 145.92 52.0244 160.638C52.0244 161.731 52.0974 162.806 52.225 163.867C52.754 163.692 53.3194 163.595 53.9077 163.595C56.8899 163.595 59.3112 166.04 59.3112 169.062C59.3112 171.443 57.8019 173.464 55.6997 174.216C60.2871 182.04 68.7139 187.286 78.3582 187.286C92.8999 187.286 104.692 175.355 104.692 160.642C104.692 155.821 103.42 151.3 101.204 147.397C100.734 147.526 100.241 147.604 99.7307 147.604ZM70.9574 180.199C69.0741 180.199 67.5511 178.658 67.5511 176.753C67.5511 174.848 69.0741 173.307 70.9574 173.307C72.8406 173.307 74.3637 174.848 74.3637 176.753C74.3637 178.658 72.8406 180.199 70.9574 180.199Z" fill="#F68B38"/>
<path d="M78.3587 187.692C68.9652 187.692 60.1508 182.607 55.3492 174.418L55.0938 173.985L55.5635 173.819C57.5608 173.108 58.9014 171.193 58.9014 169.057C58.9014 166.271 56.6625 164.005 53.9082 164.005C53.3838 164.005 52.8594 164.088 52.3533 164.259L51.8791 164.416L51.8198 163.918C51.683 162.778 51.6191 161.708 51.6191 160.642C51.6191 145.722 63.6164 133.588 78.3587 133.588C84.5056 133.588 90.2876 135.646 95.0847 139.539L95.3355 139.742L95.2032 140.033C94.8977 140.707 94.7427 141.413 94.7427 142.142C94.7427 144.928 96.9816 147.193 99.7358 147.193C100.187 147.193 100.643 147.129 101.095 147L101.4 146.912L101.56 147.193C103.876 151.276 105.103 155.927 105.103 160.647C105.098 175.558 93.1057 187.692 78.3587 187.692ZM56.2977 174.409C61.0035 182.105 69.4121 186.866 78.3587 186.866C92.6542 186.866 104.282 175.101 104.282 160.637C104.282 156.171 103.147 151.761 100.999 147.872C100.575 147.969 100.151 148.019 99.7313 148.019C96.5256 148.019 93.9219 145.38 93.9219 142.142C93.9219 141.403 94.0587 140.679 94.3323 139.987C89.7313 136.338 84.2183 134.414 78.3633 134.414C64.0678 134.414 52.4399 146.178 52.4399 160.642C52.4399 161.523 52.4855 162.414 52.5813 163.341C53.019 163.235 53.4659 163.184 53.9128 163.184C57.1185 163.184 59.7222 165.823 59.7222 169.062C59.7176 171.373 58.3633 173.468 56.2977 174.409ZM70.9579 180.614C68.8558 180.614 67.1458 178.884 67.1458 176.757C67.1458 174.631 68.8558 172.9 70.9579 172.9C73.0601 172.9 74.7701 174.631 74.7701 176.757C74.7701 178.884 73.0646 180.614 70.9579 180.614ZM70.9579 173.722C69.3027 173.722 67.962 175.083 67.962 176.753C67.962 178.428 69.3072 179.784 70.9579 179.784C72.6086 179.784 73.9538 178.423 73.9538 176.753C73.9584 175.083 72.6132 173.722 70.9579 173.722Z" fill="black"/>
<path d="M104.224 147.604C101.242 147.604 98.8203 145.159 98.8203 142.137C98.8203 141.321 99.0027 140.55 99.3174 139.853C94.8076 136.19 89.0848 133.994 82.8513 133.994C68.3096 133.994 56.5176 145.92 56.5176 160.638C56.5176 161.731 56.5905 162.806 56.7182 163.867C57.2472 163.692 57.8126 163.595 58.4008 163.595C61.3831 163.595 63.8044 166.04 63.8044 169.062C63.8044 171.443 62.295 173.464 60.1929 174.216C64.7802 182.04 73.207 187.286 82.8513 187.286C97.3931 187.286 109.185 175.355 109.185 160.642C109.185 155.821 107.913 151.3 105.697 147.397C105.227 147.526 104.735 147.604 104.224 147.604ZM75.4505 180.199C73.5673 180.199 72.0442 178.658 72.0442 176.753C72.0442 174.848 73.5673 173.307 75.4505 173.307C77.3338 173.307 78.8568 174.848 78.8568 176.753C78.8568 178.658 77.3338 180.199 75.4505 180.199Z" fill="#FBB33B"/>
<path d="M82.8509 187.692C73.4574 187.692 64.643 182.607 59.8414 174.418L59.586 173.985L60.0557 173.819C62.053 173.108 63.3936 171.193 63.3936 169.057C63.3936 166.271 61.1546 164.005 58.4004 164.005C57.876 164.005 57.3516 164.088 56.8455 164.259L56.3712 164.416L56.312 163.918C56.1752 162.778 56.1113 161.708 56.1113 160.642C56.1113 145.722 68.1086 133.588 82.8509 133.588C88.9978 133.588 94.7798 135.646 99.5769 139.539L99.8277 139.742L99.6954 140.033C99.3899 140.707 99.2349 141.413 99.2349 142.142C99.2349 144.928 101.474 147.193 104.228 147.193C104.679 147.193 105.135 147.129 105.587 147L105.892 146.912L106.052 147.193C108.368 151.276 109.595 155.927 109.595 160.647C109.591 175.558 97.5933 187.692 82.8509 187.692ZM60.7898 174.409C65.4957 182.105 73.9043 186.866 82.8509 186.866C97.1464 186.866 108.774 175.101 108.774 160.637C108.774 156.171 107.639 151.761 105.491 147.872C105.067 147.969 104.643 148.019 104.223 148.019C101.018 148.019 98.4141 145.38 98.4141 142.142C98.4141 141.403 98.5509 140.679 98.8245 139.987C94.2235 136.338 88.7105 134.414 82.8555 134.414C68.56 134.414 56.9321 146.178 56.9321 160.642C56.9321 161.523 56.9777 162.414 57.0735 163.341C57.5112 163.235 57.9581 163.184 58.405 163.184C61.6106 163.184 64.2144 165.823 64.2144 169.062C64.2098 171.373 62.8555 173.468 60.7898 174.409ZM75.4501 180.614C73.348 180.614 71.638 178.884 71.638 176.757C71.638 174.631 73.348 172.9 75.4501 172.9C77.5523 172.9 79.2622 174.631 79.2622 176.757C79.2622 178.884 77.5523 180.614 75.4501 180.614ZM75.4501 173.722C73.7949 173.722 72.4542 175.083 72.4542 176.753C72.4542 178.428 73.7994 179.784 75.4501 179.784C77.1008 179.784 78.446 178.423 78.446 176.753C78.446 175.083 77.1054 173.722 75.4501 173.722Z" fill="black"/>
<path d="M60.4595 173.683L55.6865 173.795L55.7059 174.622L60.4788 174.51L60.4595 173.683Z" fill="black"/>
<path d="M51.4652 181.333C51.3467 180.737 50.9819 180.262 50.5988 179.815C50.4119 179.593 50.152 179.469 49.8784 179.423C50.0152 179.201 50.0972 178.938 50.1155 178.661C50.1702 177.715 49.6504 176.608 48.6426 176.47C48.5605 176.461 48.4192 176.442 48.2778 176.438C48.2413 176.387 48.2003 176.341 48.1683 176.304C47.6439 175.727 46.7183 175.515 45.9704 175.722C45.3548 175.893 45.0538 176.29 44.9079 176.779C44.4018 177.222 43.9914 177.78 43.5354 178.32C42.8286 179.164 42.4273 179.912 42.5322 181.056C42.5869 181.683 43.0429 182.283 43.6129 182.472C43.5308 182.657 43.4852 182.855 43.4578 183.081C43.3803 183.741 43.695 184.474 44.1692 184.917C44.7757 185.485 45.5281 185.628 46.3215 185.485C46.431 185.466 46.5313 185.425 46.6271 185.374C46.9235 185.757 47.3567 186.015 47.9951 186.043C48.9299 186.085 49.6732 185.434 49.851 184.525C49.9012 184.271 49.9057 184.018 49.8875 183.764C50.2432 183.764 50.6034 183.63 50.8861 183.353C51.4288 182.827 51.6066 182.061 51.4652 181.333Z" fill="#F68B38"/>
<path d="M48.7687 178.092C48.3264 178.092 47.8841 177.93 47.5329 177.607C46.7805 176.915 46.7258 175.744 47.4098 174.982C47.6652 174.701 53.6935 168.048 59.6626 166.558C60.6476 166.313 61.6417 166.922 61.8879 167.919C62.1296 168.915 61.5322 169.921 60.5473 170.17C56.4843 171.185 51.6506 175.794 50.1322 177.488C49.7628 177.884 49.2658 178.092 48.7687 178.092Z" fill="black"/>
<path d="M45.8549 178.183C45.75 178.183 45.6497 178.146 45.5676 178.067C45.2393 177.745 44.2407 176.757 44.6328 175.908C45.0843 174.921 47.0633 175.059 47.4555 175.096C47.6789 175.119 47.8431 175.318 47.8249 175.544C47.8021 175.77 47.606 175.945 47.378 175.918C46.5389 175.839 45.5129 175.954 45.3761 176.254C45.3624 176.287 45.253 176.6 46.1422 177.477C46.3018 177.638 46.3064 177.897 46.1513 178.063C46.0692 178.141 45.9598 178.183 45.8549 178.183Z" fill="black"/>
<path d="M49.3076 180.048C48.847 180.048 48.2861 179.918 47.6249 179.665C47.4152 179.582 47.3103 179.346 47.3878 179.134C47.4699 178.922 47.7025 178.816 47.9122 178.894C48.8972 179.273 49.5857 179.323 49.8594 179.046C50.2105 178.687 49.9779 177.672 49.8046 177.238C49.7225 177.026 49.8229 176.786 50.0326 176.703C50.2424 176.62 50.4795 176.721 50.5616 176.933C50.6346 177.123 51.2547 178.788 50.4385 179.628C50.1694 179.909 49.791 180.048 49.3076 180.048Z" fill="black"/>
<path d="M50.4515 184.454C50.3284 184.454 50.2099 184.398 50.1278 184.297C49.9864 184.117 50.0183 183.858 50.1962 183.715C51.0535 183.037 51.4821 182.331 51.4639 181.621C51.4365 180.444 50.2235 179.559 50.2099 179.549C50.0275 179.416 49.9819 179.162 50.1141 178.973C50.2463 178.788 50.4971 178.742 50.6841 178.876C50.7479 178.922 52.2436 180.006 52.2801 181.598C52.3029 182.585 51.7739 183.517 50.6978 184.366C50.6294 184.426 50.5427 184.454 50.4515 184.454Z" fill="black"/>
<path d="M43.4469 183.382C43.3511 183.382 43.2508 183.345 43.1733 183.276C42.3935 182.561 42.0013 181.707 42.0059 180.743C42.0196 178.436 44.3452 176.328 44.4455 176.24C44.6142 176.088 44.8742 176.106 45.0201 176.277C45.1706 176.448 45.1523 176.711 44.9836 176.858C44.9608 176.877 42.8313 178.815 42.8221 180.752C42.8176 181.481 43.114 182.109 43.7205 182.667C43.8892 182.819 43.8983 183.082 43.7478 183.248C43.6657 183.336 43.5563 183.382 43.4469 183.382Z" fill="black"/>
<path d="M46.2011 186.176C45.0566 186.176 44.2312 185.825 43.7479 185.128C42.7902 183.749 43.643 181.567 43.6794 181.474C43.7615 181.262 43.9987 181.161 44.2084 181.244C44.4182 181.327 44.5185 181.567 44.4364 181.779C44.4273 181.797 43.7159 183.638 44.4182 184.653C44.7602 185.142 45.4168 185.373 46.3744 185.345C46.379 185.345 46.3835 185.345 46.3881 185.345C46.607 185.345 46.7894 185.521 46.7939 185.747C46.8031 185.973 46.6252 186.167 46.4018 186.171C46.3334 186.176 46.265 186.176 46.2011 186.176Z" fill="black"/>
<path d="M48.218 186.72C48.1907 186.72 48.177 186.72 48.1724 186.72C47.2057 186.595 46.5399 186.194 46.166 185.52C45.3726 184.076 46.3165 181.945 46.3575 181.857C46.4533 181.649 46.695 181.557 46.8956 181.654C47.1008 181.746 47.192 181.995 47.0963 182.203C47.0871 182.221 46.2846 184.048 46.8774 185.123C47.1191 185.562 47.5659 185.815 48.2454 185.903C48.2317 185.903 48.6923 185.912 49.1072 185.46C49.5404 184.989 50.0056 183.933 49.7548 181.575C49.732 181.349 49.8916 181.146 50.1196 181.123C50.3476 181.1 50.5436 181.262 50.5664 181.492C50.7944 183.656 50.4935 185.192 49.6772 186.055C49.0844 186.678 48.3959 186.72 48.218 186.72Z" fill="black"/>
<path d="M79.6402 149.352C79.6304 149.366 79.6304 149.361 79.6402 149.352V149.352Z" fill="#F499AD"/>
<path d="M83.4521 148.982C83.3654 148.858 83.2651 148.756 83.1466 148.673C83.1466 148.659 83.1511 148.645 83.1466 148.632C83.0873 147.852 82.531 147.188 81.7193 147.188C81.2405 147.188 80.748 147.478 80.4881 147.898C80.4151 147.963 80.3604 148.018 80.3832 147.995C80.2281 148.143 80.0868 148.313 79.9773 148.498C79.8679 148.687 79.7949 148.908 79.7311 149.121C79.6855 149.264 79.649 149.333 79.6353 149.356C79.6627 149.314 79.763 149.181 80.0001 149.005C79.5624 149.324 79.3435 149.734 79.3253 150.168C79.1748 150.297 79.0516 150.449 78.9422 150.634C78.5455 151.294 78.7872 152.235 79.4529 152.613C79.9728 152.908 80.5063 153.111 81.0581 153.259C80.9623 153.388 80.8893 153.536 80.8574 153.697C80.6157 153.72 80.3786 153.739 80.1369 153.762C80.105 153.762 80.0731 153.767 80.0412 153.771C79.7904 153.527 79.3709 153.434 79.0517 153.522C78.5911 153.651 78.3494 154.062 78.3038 154.519C78.2126 155.432 78.3084 156.378 78.5956 157.25C78.7461 157.702 78.9057 158.177 79.2979 158.472C79.3389 158.505 79.3891 158.532 79.4347 158.56C79.535 158.809 79.6809 159.026 79.9226 159.174C80.4516 159.501 81.2496 159.607 81.8469 159.464C82.7134 159.261 83.0462 158.505 83.329 157.739C83.8579 156.309 84.1543 154.786 84.241 153.259C84.3276 151.82 84.2911 150.2 83.4521 148.982Z" fill="#F499AD"/>
<path d="M95.8693 154.99C96.0517 153.523 96.0745 151.959 95.5182 150.566C95.427 150.34 95.2811 150.142 95.1032 150.008C95.0667 149.925 95.0303 149.837 94.9938 149.754L94.6609 148.993C94.556 148.748 94.4648 148.499 94.3052 148.287C93.9723 147.853 93.4206 147.65 92.9007 147.872C92.4721 148.056 92.1711 148.481 92.1757 148.947C91.5418 149.639 91.0676 150.492 90.835 151.41C90.6937 151.59 90.5888 151.839 90.5979 152.061C90.6116 152.328 90.6982 152.605 90.8989 152.79L91.1041 152.951C91.2637 153.044 91.437 153.09 91.6194 153.094C91.633 153.094 91.6467 153.099 91.6604 153.099C91.9431 153.14 92.2213 153.196 92.4903 153.288C92.5633 153.325 92.6362 153.367 92.7046 153.413C92.7502 153.454 92.7959 153.5 92.8369 153.546C92.8506 153.565 92.8643 153.583 92.8734 153.606C92.9281 153.703 92.9965 153.786 93.074 153.856C93.0467 153.874 93.0193 153.883 92.9919 153.906C92.8506 153.948 92.7092 153.989 92.5633 154.022C92.5222 154.031 92.3216 154.095 92.2897 154.072C92.4447 154.054 92.4675 154.049 92.3535 154.063C92.317 154.068 92.2851 154.072 92.2486 154.072C91.9112 154.105 91.5738 154.095 91.2363 154.059C90.8898 154.017 90.5204 154.285 90.3562 154.571C90.1647 154.907 90.1921 155.277 90.3562 155.613C90.3882 155.673 90.4748 155.798 90.4748 155.867C90.4201 155.729 90.411 155.71 90.452 155.816C90.4702 155.858 90.4839 155.904 90.5022 155.946C90.566 156.121 90.6207 156.301 90.6663 156.481C90.6891 156.573 90.7074 156.665 90.7256 156.753C90.7347 156.799 90.7986 156.993 90.7712 157.03C90.753 156.873 90.7484 156.85 90.7621 156.965C90.7666 157.011 90.7712 157.057 90.7758 157.104C90.7803 157.173 90.7849 157.242 90.7894 157.316C90.8305 158.105 90.9126 158.954 91.5373 159.512C91.5464 159.516 91.5555 159.521 91.5601 159.53C91.5646 159.572 91.5692 159.618 91.5738 159.641C91.5783 159.673 91.5874 159.756 91.592 159.784C91.592 159.789 91.5966 159.798 91.5966 159.802C91.6102 159.844 91.665 159.964 91.6513 159.932C91.6376 159.904 91.6878 160.029 91.706 160.065C91.7106 160.07 91.7151 160.075 91.7151 160.084C91.7334 160.112 91.8565 160.268 91.8747 160.296C91.8793 160.301 91.8793 160.301 91.8838 160.305C91.9522 160.379 92.0389 160.439 92.121 160.49C92.1666 160.522 92.2304 160.541 92.276 160.559C92.3262 160.582 92.3809 160.61 92.4402 160.624C92.4767 160.628 92.6773 160.656 92.7138 160.661C92.7183 160.661 92.7229 160.661 92.7274 160.661C92.7366 160.661 92.7411 160.661 92.7502 160.661C92.9783 160.647 93.0968 160.619 93.2975 160.513C93.302 160.508 93.3066 160.508 93.3157 160.504C93.3385 160.49 93.5072 160.356 93.5255 160.338C93.53 160.333 93.53 160.333 93.5346 160.328C93.5437 160.319 93.5711 160.282 93.603 160.245C93.8675 160.259 94.1365 160.176 94.3508 159.973C94.4055 159.922 94.4603 159.867 94.515 159.816C94.743 159.599 94.8296 159.35 94.8205 159.11C95.0075 158.838 95.1443 158.525 95.2446 158.215C95.3449 157.902 95.4133 157.579 95.5227 157.27C95.5501 157.21 95.582 157.154 95.6185 157.099C95.6367 157.08 95.655 157.057 95.6732 157.039C96.0289 156.698 96.0654 156.07 95.7599 155.683C95.7964 155.456 95.8374 155.226 95.8693 154.99Z" fill="#F499AD"/>
<path d="M92.4542 166.088C92.4223 165.954 92.363 165.835 92.2718 165.738C92.1989 165.627 92.1031 165.535 91.9846 165.47C91.9025 165.433 91.8204 165.401 91.7429 165.364C91.5605 165.313 91.3826 165.313 91.2002 165.364C91.1182 165.401 91.0361 165.433 90.9586 165.47C90.8035 165.562 90.6849 165.687 90.5937 165.839C90.5481 165.908 90.5025 165.973 90.4524 166.042C90.3794 166.162 90.3384 166.287 90.3293 166.425C90.2973 166.563 90.3065 166.697 90.3475 166.836C90.3703 166.923 90.4068 167.002 90.4569 167.076C90.4524 167.099 90.4478 167.122 90.4478 167.145C89.2531 167.149 88.0629 167.149 86.8682 167.154C86.8454 167.154 86.8272 167.159 86.8044 167.163C86.7907 167.048 86.7633 166.933 86.7177 166.826C86.7314 166.748 86.736 166.67 86.7314 166.591C86.7223 166.527 86.7314 166.462 86.7314 166.397C86.7405 166.365 86.7451 166.328 86.7542 166.296C86.7952 166.157 86.8044 166.019 86.7724 165.885C86.7679 165.747 86.7268 165.618 86.6493 165.502C86.5855 165.382 86.4988 165.285 86.3848 165.212C86.2845 165.119 86.1705 165.059 86.0383 165.027C85.9471 165.013 85.8559 165.004 85.7692 164.99C85.5868 164.99 85.4136 165.036 85.254 165.133C85.1856 165.189 85.1172 165.239 85.0488 165.295C84.9211 165.424 84.8344 165.576 84.7843 165.751C84.7204 165.936 84.6976 166.139 84.6794 166.333C84.6612 166.527 84.6976 166.73 84.7296 166.919C84.7432 166.974 84.7615 167.025 84.7843 167.071C84.7797 167.089 84.7797 167.108 84.7797 167.126C84.766 167.149 84.7523 167.177 84.7341 167.2C84.6201 167.343 84.5015 167.486 84.4012 167.638C84.2553 167.865 84.1504 168.114 84.0638 168.367C83.9133 168.792 83.854 169.276 83.9133 169.724C83.9087 169.867 83.9361 170.001 83.9999 170.121C84.041 170.25 84.1094 170.36 84.2097 170.453C84.3875 170.633 84.6748 170.766 84.9302 170.757C84.9986 170.753 85.067 170.743 85.1354 170.73C85.2631 170.794 85.4044 170.826 85.5595 170.808C85.8878 170.766 86.2161 170.748 86.5444 170.762C86.6174 170.766 86.6949 170.776 86.7679 170.78C86.7724 170.78 86.7724 170.78 86.777 170.78C86.7861 170.78 86.7907 170.785 86.8044 170.785C86.9503 170.813 87.0916 170.845 87.2376 170.886C87.306 170.909 87.3744 170.933 87.4382 170.956C87.4564 170.965 87.4884 170.979 87.5203 170.993C87.648 171.057 87.7711 171.136 87.8896 171.223C87.9079 171.242 87.9353 171.265 87.9581 171.288C88.0128 171.339 88.0629 171.394 88.1131 171.449C88.1313 171.468 88.1405 171.477 88.1496 171.486C88.1541 171.495 88.1587 171.505 88.1724 171.518C88.2134 171.578 88.2545 171.643 88.2909 171.708C88.3274 171.772 88.3639 171.837 88.4004 171.901C88.4049 171.911 88.4323 171.966 88.4505 172.008C88.4642 172.049 88.5007 172.137 88.5053 172.151C88.5372 172.238 88.5645 172.321 88.5873 172.409C88.6785 172.713 88.7424 173.027 88.788 173.341C88.7925 173.369 88.7925 173.378 88.7925 173.382L88.8017 173.452C88.8153 173.567 88.8245 173.678 88.8336 173.793C88.8473 173.982 88.8609 174.171 88.8655 174.365C88.8792 174.785 88.8655 175.205 88.829 175.62C88.788 176.16 89.3306 176.676 89.8505 176.653C90.2517 176.635 90.5573 176.427 90.726 176.114C90.8081 176.114 90.8901 176.104 90.9631 176.081C91.2094 175.998 91.4465 175.846 91.5742 175.606C91.7064 175.352 91.7338 175.094 91.679 174.813C91.6654 174.753 91.6562 174.693 91.6471 174.633C91.7566 174.471 91.8204 174.273 91.8386 174.056C91.9116 172.958 91.9891 171.855 92.0621 170.757C92.0712 170.61 92.0347 170.467 91.9754 170.333C92.1259 169.373 92.281 168.418 92.4314 167.459C92.4679 167.219 92.4679 166.997 92.3813 166.78C92.4223 166.688 92.4542 166.596 92.4588 166.494C92.4998 166.36 92.4953 166.227 92.4542 166.088Z" fill="#F499AD"/>
<path d="M86.5016 151.553C86.4971 151.512 86.488 151.47 86.4788 151.429C86.342 150.658 86.1459 149.902 85.8769 149.159C85.7948 148.933 85.6489 148.785 85.4756 148.697C85.0287 147.992 84.4405 147.369 83.7474 146.894C83.3917 146.654 82.8263 146.81 82.6302 147.189C82.4113 147.604 82.5435 148.061 82.922 148.319C82.9676 148.351 83.0178 148.384 83.0634 148.416C83.0679 148.421 83.0907 148.439 83.109 148.453C83.1363 148.476 83.1819 148.513 83.1911 148.522C83.2275 148.55 83.2595 148.582 83.2959 148.614C83.4464 148.753 83.5923 148.9 83.7291 149.053C83.7656 149.094 83.8021 149.14 83.8386 149.182C83.8431 149.186 83.8659 149.214 83.8796 149.233C83.9024 149.26 83.9343 149.306 83.9389 149.316C83.9663 149.353 83.9891 149.389 84.0164 149.431C84.135 149.611 84.2444 149.8 84.3447 149.998C84.3858 150.081 84.4268 150.169 84.4633 150.257C84.4679 150.261 84.4679 150.266 84.4724 150.275C84.4907 150.331 84.5135 150.381 84.5317 150.437C84.6001 150.631 84.6548 150.829 84.7004 151.032C84.7232 151.133 84.7415 151.235 84.7597 151.336C84.7597 151.341 84.7597 151.341 84.7597 151.35C84.7643 151.396 84.7688 151.447 84.7734 151.493C84.7916 151.71 84.7962 151.927 84.7871 152.148C84.7825 152.282 84.819 152.407 84.8828 152.527C84.8691 153.509 84.8053 154.492 84.5317 155.443C84.1851 156.633 83.4783 157.671 82.7989 158.69C82.6803 158.87 82.6621 159.087 82.7123 159.29C82.1742 159.867 82.922 160.974 83.7656 160.541C85.4847 159.659 86.2782 157.703 86.5472 155.872C86.7524 154.432 86.7388 152.979 86.5016 151.553Z" fill="#F68B38"/>
<path d="M98.1255 152.491C98.1027 152.376 98.0662 152.26 98.0389 152.145C98.1073 152.025 98.1483 151.891 98.1437 151.744C98.0753 149.963 97.0493 148.251 95.467 147.43C95.0885 147.232 94.5641 147.319 94.3498 147.725C94.1537 148.104 94.2358 148.643 94.6416 148.856C94.7967 148.939 94.9472 149.026 95.0931 149.128C95.125 149.151 95.1569 149.174 95.1888 149.197C95.2527 149.252 95.3165 149.303 95.3804 149.363C95.4351 149.414 95.4807 149.469 95.5263 149.52C95.5126 149.626 95.5172 149.732 95.5536 149.838C95.8865 150.812 96.2878 151.794 96.5158 152.8C96.4292 152.934 96.379 153.091 96.3699 153.257C96.3015 154.286 96.2741 155.328 96.0644 156.343C95.8546 157.331 95.5217 158.277 95.052 159.162C94.8468 159.555 94.9563 160.062 95.3439 160.293C95.5673 160.427 95.8501 160.431 96.0872 160.33C96.4611 160.334 96.7484 160.099 96.8943 159.73C97.2272 158.876 97.5783 158.027 97.8975 157.169C98.0161 156.846 98.0845 156.51 98.1255 156.164C98.1848 156.048 98.2258 155.924 98.2349 155.79C98.2988 154.687 98.3444 153.58 98.1255 152.491Z" fill="#F68B38"/>
<path d="M88.186 172.199C87.3241 171.018 85.8968 170.871 84.5516 170.912C84.123 170.926 83.7171 171.281 83.7354 171.738C83.74 171.89 83.7901 172.033 83.8631 172.163C83.48 173.316 83.9269 174.589 84.7067 175.457C85.5092 176.352 86.6857 176.808 87.8029 177.145C88.2863 177.293 88.87 176.882 88.8381 176.347C88.7514 174.949 89.0706 173.417 88.186 172.199Z" fill="#F68B38"/>
<path d="M83.3446 161.346L83.0893 160.561C84.9087 159.952 86.3315 157.217 86.4683 154.056C86.5503 152.206 86.1947 150.448 85.4696 149.115C84.7811 147.846 83.8462 147.127 82.8339 147.081C82.802 147.081 82.7701 147.081 82.7382 147.081C81.0281 147.081 79.4185 149.074 78.8348 151.902C79.0901 152.012 79.6237 152.169 79.9976 152.28C81.2562 152.649 81.89 152.834 81.8444 153.369C81.8079 153.807 81.548 153.821 79.8562 153.922C79.4641 153.946 78.9169 153.978 78.6022 154.01C78.6022 154.121 78.5977 154.232 78.6022 154.342C78.625 156.229 79.1175 158.001 79.952 159.2L79.2862 159.676C78.356 158.342 77.8088 156.405 77.786 154.352C77.7814 154.126 77.786 153.899 77.7951 153.669C77.8133 153.212 78.0824 153.198 79.8061 153.097C79.8197 153.097 79.8289 153.097 79.8425 153.097C79.8152 153.087 79.7924 153.083 79.7696 153.074C78.5156 152.705 77.8863 152.52 77.9866 151.971C78.6296 148.506 80.6223 146.153 82.8704 146.259C84.1746 146.315 85.3556 147.191 86.1855 148.723C86.979 150.185 87.3711 152.096 87.2845 154.098C87.1295 157.641 85.5107 160.621 83.3446 161.346Z" fill="black"/>
<path d="M82.267 160.274L81.7381 159.647C83.0696 158.498 83.9588 156.242 84.0683 153.764C84.1959 150.784 83.1517 148.053 81.5283 147.116L81.9296 146.396C83.8403 147.495 85.0259 150.47 84.8845 153.797C84.7614 156.5 83.7627 158.982 82.267 160.274Z" fill="black"/>
<path d="M85.5788 145.02C85.4648 145.02 85.3463 144.97 85.2688 144.873C84.7033 144.199 84.0375 143.825 83.3535 143.793C82.5966 143.765 81.8578 144.13 81.1921 144.863C81.0416 145.03 80.7817 145.043 80.6175 144.891C80.4534 144.739 80.4397 144.476 80.5902 144.31C81.4246 143.392 82.3823 142.926 83.39 142.972C84.3111 143.013 85.1776 143.484 85.8935 144.342C86.0394 144.517 86.0166 144.776 85.8479 144.923C85.7658 144.988 85.6746 145.02 85.5788 145.02Z" fill="black"/>
<path d="M97.0554 145.785C96.9414 145.785 96.8228 145.735 96.7453 145.638C96.1799 144.964 95.5141 144.59 94.8301 144.558C94.0731 144.53 93.3344 144.895 92.6687 145.629C92.5182 145.795 92.2582 145.808 92.0941 145.656C91.9299 145.504 91.9162 145.241 92.0667 145.075C92.9012 144.157 93.8634 143.695 94.8666 143.737C95.7877 143.778 96.6541 144.249 97.37 145.107C97.516 145.283 97.4932 145.541 97.3244 145.688C97.2424 145.753 97.1466 145.785 97.0554 145.785Z" fill="black"/>
<path d="M92.1353 161.302C90.5986 160.084 89.6592 157.533 89.682 154.654C89.682 154.502 89.6866 154.354 89.6957 154.202C89.7185 153.718 90.1654 153.681 91.652 153.556C91.6885 153.552 91.7249 153.552 91.766 153.547C91.7204 153.533 91.6748 153.519 91.6292 153.505C90.3706 153.136 89.796 152.966 89.8964 152.44C90.5348 149.012 92.4773 146.673 94.6479 146.779C97.238 146.894 99.1213 150.336 98.9389 154.608C98.8295 157.104 97.995 159.411 96.709 160.772L96.1208 160.2C97.2745 158.977 98.0269 156.873 98.1272 154.567C98.2914 150.816 96.7136 147.692 94.616 147.595C92.947 147.526 91.3419 149.505 90.7491 152.347C91.0045 152.454 91.5061 152.601 91.8617 152.707C93.1249 153.081 93.704 153.247 93.6493 153.759C93.6037 154.216 93.1659 154.253 91.7204 154.373C91.3328 154.405 90.7947 154.451 90.5029 154.497C90.5029 154.548 90.5028 154.604 90.4983 154.654C90.4755 157.247 91.3145 159.6 92.6369 160.647L92.1353 161.302Z" fill="black"/>
<path d="M94.3639 160.671L93.7757 160.099C94.9294 158.877 95.6772 156.773 95.7821 154.466C95.9144 151.421 94.8747 148.671 93.2559 147.781L93.648 147.057C95.5632 148.109 96.7488 151.103 96.6029 154.503C96.4889 156.999 95.6544 159.306 94.3639 160.671Z" fill="black"/>
<path d="M80.1477 170.77C79.9425 170.77 79.7647 170.613 79.7419 170.401C79.7145 170.175 79.8787 169.972 80.1021 169.944C82.5782 169.663 84.4569 167.623 84.5709 165.1C84.6941 162.29 82.5326 159.905 79.7555 159.78C78.538 159.73 77.3433 160.117 76.3948 160.888C76.217 161.031 75.9616 160.998 75.8202 160.823C75.6789 160.643 75.7108 160.385 75.8841 160.242C76.9876 159.351 78.383 158.895 79.792 158.959C83.0205 159.102 85.5285 161.875 85.3872 165.141C85.2595 168.076 83.0752 170.442 80.1933 170.77C80.1796 170.765 80.1659 170.77 80.1477 170.77Z" fill="black"/>
<path d="M95.2989 171.399C95.0892 171.399 94.9068 171.233 94.8931 171.016C94.8749 170.79 95.0436 170.592 95.267 170.573C97.7158 170.384 99.6446 168.363 99.7541 165.877C99.8088 164.562 99.3574 163.302 98.4818 162.333C97.6018 161.364 96.4025 160.797 95.1029 160.737C93.8534 160.682 92.645 161.106 91.6965 161.937C91.5278 162.089 91.2679 162.07 91.122 161.895C90.976 161.724 90.9943 161.461 91.163 161.314C92.2665 160.345 93.6756 159.851 95.1393 159.911C96.6578 159.98 98.0578 160.64 99.0838 161.775C100.11 162.91 100.639 164.377 100.57 165.913C100.443 168.815 98.19 171.173 95.3309 171.399C95.3217 171.399 95.3126 171.399 95.2989 171.399Z" fill="black"/>
<path d="M89.0709 164.26C88.9979 164.26 88.9295 164.26 88.8566 164.255C88.0814 164.223 87.3518 164.002 86.8046 163.642C86.1935 163.236 85.8698 162.696 85.8971 162.119C85.9199 161.543 86.2893 161.035 86.9322 160.684C87.5068 160.371 88.2501 160.219 89.0298 160.255C89.8096 160.292 90.5347 160.509 91.0819 160.869C91.6929 161.275 92.0167 161.815 91.9893 162.392C91.9665 162.968 91.5971 163.476 90.9542 163.826C90.4343 164.108 89.7731 164.26 89.0709 164.26ZM88.8201 161.072C88.2592 161.072 87.7211 161.192 87.3198 161.409C86.9459 161.612 86.7225 161.884 86.7134 162.152C86.6997 162.419 86.9003 162.71 87.256 162.945C87.6755 163.222 88.2729 163.397 88.8976 163.425C89.5223 163.453 90.1334 163.333 90.5757 163.093C90.9496 162.89 91.1731 162.618 91.1822 162.35C91.1959 162.082 90.9952 161.792 90.6395 161.556C90.22 161.28 89.6227 161.104 88.9979 161.077C88.9341 161.077 88.8794 161.072 88.8201 161.072Z" fill="black"/>
<path d="M89.3496 165.97C86.8006 165.97 84.9309 164.969 84.8078 164.904C84.6117 164.793 84.5342 164.544 84.6437 164.346C84.7485 164.147 84.9948 164.069 85.1954 164.18C85.2365 164.203 89.5411 166.482 93.8276 163.884C94.0191 163.769 94.2699 163.829 94.3884 164.027C94.5024 164.221 94.4432 164.475 94.2471 164.595C92.528 165.638 90.8271 165.97 89.3496 165.97Z" fill="black"/>
<path d="M87.8398 180.715C87.7486 180.715 87.6575 180.715 87.5663 180.71C85.9338 180.636 84.6159 179.967 84.2876 179.04C84.2101 178.823 84.3195 178.588 84.5338 178.51C84.7436 178.431 84.9807 178.542 85.0582 178.759C85.2406 179.262 86.2393 179.824 87.6073 179.884C88.9844 179.949 90.0287 179.474 90.2475 178.98C90.3387 178.773 90.5804 178.676 90.7856 178.768C90.9908 178.86 91.0866 179.105 90.9954 179.312C90.6123 180.157 89.3401 180.715 87.8398 180.715Z" fill="black"/>
<path d="M87.9075 177.619C87.8391 177.619 87.7707 177.619 87.7023 177.615C85.1304 177.499 83.1331 175.289 83.2426 172.692L83.4341 168.231C83.4432 168.004 83.6393 167.825 83.8582 167.838C84.0816 167.848 84.2595 168.041 84.2458 168.267L84.0543 172.729C83.9631 174.874 85.6092 176.696 87.7342 176.793C88.7602 176.835 89.7452 176.475 90.5021 175.774C91.2591 175.072 91.7014 174.113 91.747 173.07L92.0982 164.946C92.1073 164.72 92.3034 164.54 92.5222 164.553C92.7457 164.563 92.9235 164.756 92.9098 164.983L92.5587 173.107C92.4584 175.635 90.3881 177.619 87.9075 177.619Z" fill="black"/>
<path d="M90.4243 167.534C90.4197 167.534 90.4106 167.534 90.406 167.534L86.945 167.381C86.7215 167.372 86.5437 167.178 86.5574 166.952L86.6303 165.278C86.6395 165.052 86.8355 164.872 87.0544 164.886C87.2779 164.895 87.4557 165.089 87.442 165.315L87.3873 166.574L90.0321 166.694L90.0686 165.822C90.0777 165.596 90.2738 165.411 90.4927 165.43C90.7161 165.439 90.894 165.633 90.8803 165.859L90.8256 167.142C90.821 167.363 90.6432 167.534 90.4243 167.534Z" fill="black"/>
<path d="M88.8607 177.509C88.8425 177.509 88.8242 177.509 88.8014 177.505C88.578 177.472 88.4229 177.265 88.4549 177.039C89.0386 172.882 87.5292 171.728 87.5155 171.715C85.9788 170.672 83.8629 171.29 83.8447 171.299C83.6258 171.364 83.4024 171.239 83.3385 171.023C83.2747 170.806 83.3932 170.575 83.6121 170.51C83.7124 170.478 86.111 169.768 87.9806 171.036C88.0627 171.092 89.9278 172.425 89.2666 177.154C89.2346 177.362 89.0614 177.509 88.8607 177.509Z" fill="black"/>
<path d="M74.7743 181.194C77.0913 181.194 78.9696 179.294 78.9696 176.95C78.9696 174.605 77.0913 172.705 74.7743 172.705C72.4574 172.705 70.5791 174.605 70.5791 176.95C70.5791 179.294 72.4574 181.194 74.7743 181.194Z" fill="#F499AD"/>
<path d="M74.7792 181.609C73.4431 181.609 72.1116 181.023 71.2041 179.893C69.6036 177.899 69.9 174.961 71.8699 173.341C73.8398 171.722 76.7446 172.022 78.3451 174.015C79.1203 174.979 79.4806 176.192 79.3529 177.429C79.2298 178.665 78.6324 179.782 77.6794 180.566C76.8266 181.267 75.8006 181.609 74.7792 181.609ZM74.7701 173.12C73.931 173.12 73.0829 173.401 72.3806 173.978C70.7618 175.311 70.5156 177.729 71.8334 179.367C73.1513 181.004 75.5407 181.254 77.1641 179.92C78.7829 178.587 79.0291 176.169 77.7113 174.532C76.9634 173.604 75.869 173.12 74.7701 173.12Z" fill="#1D1D1B"/>
<path d="M77.4251 180.245C77.3704 180.291 77.2381 180.421 77.2518 180.356C77.9586 177.731 74.9672 174.174 71.9531 173.846C71.871 173.837 72.058 173.717 72.1264 173.662C73.923 172.181 76.5678 172.458 78.027 174.275C79.4908 176.093 79.2218 178.764 77.4251 180.245Z" fill="#F68B38"/>
<path d="M77.25 180.788C77.1816 180.788 77.1087 180.769 77.0357 180.723L76.7803 180.562L76.8579 180.248C77.1087 179.316 76.8214 178.139 76.069 177.023C75.0475 175.51 73.415 174.421 71.9057 174.259L71.6275 174.227L71.5318 173.946C71.4497 173.65 71.6822 173.475 71.819 173.374L71.8601 173.341C73.83 171.722 76.7348 172.022 78.3353 174.015C79.9359 176.008 79.6395 178.947 77.6696 180.566L77.6376 180.594C77.5692 180.663 77.4279 180.788 77.25 180.788ZM72.8998 173.623C74.3544 174.061 75.7954 175.145 76.7484 176.557C77.3686 177.48 77.7152 178.425 77.7608 179.311C78.8232 177.936 78.846 175.943 77.7106 174.536C76.525 173.06 74.4775 172.709 72.8998 173.623Z" fill="black"/>
<path d="M66.1844 154.93C67.8012 154.93 69.1119 153.604 69.1119 151.968C69.1119 150.332 67.8012 149.006 66.1844 149.006C64.5675 149.006 63.2568 150.332 63.2568 151.968C63.2568 153.604 64.5675 154.93 66.1844 154.93Z" fill="#F499AD"/>
<path d="M66.1797 155.346C65.5048 155.346 64.8436 155.139 64.2736 154.737C63.544 154.221 63.0561 153.445 62.8965 152.56C62.7414 151.674 62.9375 150.774 63.4482 150.036C64.5016 148.509 66.5855 148.135 68.0949 149.201C69.6043 150.267 69.9736 152.375 68.9203 153.902C68.4095 154.64 67.6435 155.134 66.7679 155.295C66.5719 155.328 66.3758 155.346 66.1797 155.346ZM66.1888 149.418C65.3908 149.418 64.6065 149.796 64.1186 150.507C63.731 151.065 63.585 151.743 63.7036 152.412C63.8222 153.081 64.1915 153.667 64.7433 154.059C65.295 154.451 65.9654 154.599 66.6266 154.479C67.2878 154.359 67.8669 153.985 68.2545 153.427C68.6421 152.869 68.788 152.191 68.6695 151.522C68.5509 150.853 68.1815 150.267 67.6298 149.875C67.1875 149.57 66.6859 149.418 66.1888 149.418Z" fill="#1D1D1B"/>
<path d="M64.5058 154.399C64.4647 154.372 64.3507 154.307 64.3963 154.302C66.2751 154.279 68.0626 151.567 67.7023 149.454C67.6932 149.394 67.8072 149.5 67.8574 149.537C69.1844 150.473 69.5081 152.323 68.5824 153.666C67.6613 155.008 65.8327 155.336 64.5058 154.399Z" fill="#F68B38"/>
<path d="M66.1812 155.345C65.5063 155.345 64.8451 155.137 64.2751 154.736L64.4028 154.546V154.528L64.2568 154.722C64.1702 154.666 63.9103 154.496 63.9969 154.191L64.079 153.896L64.3937 153.891C65.0229 153.882 65.7161 153.481 66.2906 152.784C67.0795 151.829 67.4762 150.551 67.2984 149.527L67.2528 149.25L67.4945 149.089C67.7498 148.932 67.9733 149.107 68.069 149.185C69.6012 150.27 69.9706 152.378 68.9172 153.905C68.4065 154.643 67.6404 155.137 66.7649 155.298C66.5733 155.326 66.3773 155.345 66.1812 155.345ZM65.5473 154.436C65.8985 154.528 66.2633 154.546 66.6281 154.477C67.2893 154.357 67.8684 153.984 68.256 153.425C68.9126 152.475 68.8351 151.22 68.1466 150.357C68.0645 151.372 67.6267 152.452 66.9245 153.305C66.5049 153.817 66.0353 154.2 65.5473 154.436Z" fill="black"/>
<path d="M78.8379 162.689C79.1275 162.689 79.3623 162.452 79.3623 162.158C79.3623 161.865 79.1275 161.627 78.8379 161.627C78.5483 161.627 78.3135 161.865 78.3135 162.158C78.3135 162.452 78.5483 162.689 78.8379 162.689Z" fill="black"/>
<path d="M81.8887 163.268C82.1783 163.268 82.4131 163.03 82.4131 162.736C82.4131 162.443 82.1783 162.205 81.8887 162.205C81.599 162.205 81.3643 162.443 81.3643 162.736C81.3643 163.03 81.599 163.268 81.8887 163.268Z" fill="black"/>
<path d="M80.0234 165.275C80.313 165.275 80.5478 165.038 80.5478 164.744C80.5478 164.451 80.313 164.213 80.0234 164.213C79.7338 164.213 79.499 164.451 79.499 164.744C79.499 165.038 79.7338 165.275 80.0234 165.275Z" fill="black"/>
<path d="M94.4658 163.406C94.7554 163.406 94.9902 163.168 94.9902 162.875C94.9902 162.582 94.7554 162.344 94.4658 162.344C94.1762 162.344 93.9414 162.582 93.9414 162.875C93.9414 163.168 94.1762 163.406 94.4658 163.406Z" fill="black"/>
<path d="M97.5469 163.787C97.8365 163.787 98.0713 163.549 98.0713 163.256C98.0713 162.962 97.8365 162.725 97.5469 162.725C97.2572 162.725 97.0225 162.962 97.0225 163.256C97.0225 163.549 97.2572 163.787 97.5469 163.787Z" fill="black"/>
<path d="M95.8144 165.914C96.1041 165.914 96.3388 165.676 96.3388 165.383C96.3388 165.089 96.1041 164.852 95.8144 164.852C95.5248 164.852 95.29 165.089 95.29 165.383C95.29 165.676 95.5248 165.914 95.8144 165.914Z" fill="black"/>
<path d="M65.2365 144.149C66.3321 144.149 67.2202 143.25 67.2202 142.142C67.2202 141.033 66.3321 140.135 65.2365 140.135C64.141 140.135 63.2529 141.033 63.2529 142.142C63.2529 143.25 64.141 144.149 65.2365 144.149Z" fill="#F68B38"/>
<path d="M65.2342 144.56C63.9163 144.56 62.8447 143.475 62.8447 142.142C62.8447 140.809 63.9163 139.725 65.2342 139.725C66.552 139.725 67.6236 140.809 67.6236 142.142C67.6236 143.475 66.552 144.56 65.2342 144.56ZM65.2342 140.55C64.3678 140.55 63.661 141.266 63.661 142.142C63.661 143.019 64.3678 143.734 65.2342 143.734C66.1006 143.734 66.8074 143.019 66.8074 142.142C66.8074 141.266 66.1006 140.55 65.2342 140.55Z" fill="black"/>
<path d="M113.62 139.943H111.97V133.908C111.97 133.871 112.006 133.844 112.056 133.844H113.534C113.579 133.844 113.62 133.871 113.62 133.908V139.943Z" fill="#FBB33B"/>
<path d="M114.028 140.357H111.561V133.907C111.561 133.639 111.779 133.432 112.058 133.432H113.535C113.809 133.432 114.028 133.644 114.028 133.907V140.357ZM112.377 139.531H113.211V134.257H112.377V139.531Z" fill="#1D1D1B"/>
<path d="M115.271 140.827H113.62V132.402C113.62 132.356 113.657 132.314 113.707 132.314H115.184C115.23 132.314 115.271 132.356 115.271 132.402V140.827Z" fill="#FBB33B"/>
<path d="M115.682 141.243H113.215V132.403C113.215 132.126 113.438 131.9 113.707 131.9H115.185C115.458 131.9 115.677 132.126 115.677 132.403V141.243H115.682ZM114.027 140.417H114.861V132.726H114.027V140.417Z" fill="#1D1D1B"/>
<path d="M117.081 131.416H115.595C115.549 131.416 115.513 131.453 115.513 131.499V142.498H117.163V131.499C117.163 131.453 117.127 131.416 117.081 131.416Z" fill="#FBB33B"/>
<path d="M117.574 142.908H115.107V131.494C115.107 131.221 115.326 131 115.6 131H117.086C117.356 131 117.579 131.221 117.579 131.494V142.908H117.574ZM115.919 142.082H116.754V131.826H115.919V142.082Z" fill="#1D1D1B"/>
<path d="M118.815 143.725H117.164V132.394C117.164 132.347 117.201 132.311 117.251 132.311H118.728C118.774 132.311 118.815 132.347 118.815 132.394V143.725Z" fill="#FBB33B"/>
<path d="M119.226 144.136H116.759V132.394C116.759 132.122 116.982 131.9 117.251 131.9H118.729C119.002 131.9 119.221 132.122 119.221 132.394V144.136H119.226ZM117.575 143.31H118.41V132.726H117.575V143.31Z" fill="#1D1D1B"/>
<path d="M120.469 141.56H118.818V133.924C118.818 133.883 118.859 133.846 118.905 133.846H120.382C120.428 133.846 120.469 133.883 120.469 133.924V141.56Z" fill="#FBB33B"/>
<path d="M120.875 141.971H118.408V133.925C118.408 133.653 118.632 133.432 118.901 133.432H120.378C120.652 133.432 120.871 133.653 120.871 133.925V141.971H120.875ZM119.224 141.146H120.059V134.257H119.224V141.146Z" fill="#1D1D1B"/>
<path d="M121.573 137.625L119.927 144.066L119.786 144.619C119.727 144.859 119.517 145.025 119.275 145.025H113.251C113.01 145.025 112.8 144.859 112.741 144.619L110.958 137.625C110.871 137.279 111.122 136.938 111.468 136.938H113.858C113.899 136.938 113.931 136.974 113.931 137.016C113.931 138.345 114.975 139.42 116.261 139.42C117.547 139.42 118.591 138.345 118.591 137.016C118.591 136.974 118.623 136.938 118.664 136.938H121.054C121.409 136.942 121.66 137.279 121.573 137.625Z" fill="#F499AD"/>
<path d="M119.275 145.44H113.251C112.822 145.44 112.453 145.144 112.344 144.724L110.561 137.73C110.488 137.44 110.547 137.135 110.729 136.895C110.907 136.66 111.176 136.526 111.468 136.526H113.858C114.122 136.526 114.341 136.748 114.341 137.015C114.341 138.113 115.203 139.008 116.265 139.008C117.323 139.008 118.19 138.113 118.19 137.015C118.19 136.743 118.408 136.521 118.673 136.521H121.062C121.354 136.521 121.623 136.655 121.801 136.891C121.984 137.126 122.043 137.43 121.97 137.726L120.187 144.72C120.073 145.144 119.704 145.44 119.275 145.44ZM111.468 137.352C111.423 137.352 111.391 137.38 111.377 137.398C111.363 137.417 111.336 137.463 111.354 137.518L113.137 144.512C113.151 144.568 113.201 144.609 113.256 144.609H119.279C119.334 144.609 119.38 144.568 119.393 144.512L121.176 137.518C121.19 137.458 121.167 137.417 121.154 137.398C121.135 137.375 121.108 137.352 121.062 137.352H118.988C118.828 138.75 117.67 139.839 116.27 139.839C114.87 139.839 113.712 138.75 113.552 137.352H111.468Z" fill="#1D1D1B"/>
<path d="M88.72 167.463C88.4965 167.463 88.3096 167.279 88.3096 167.048V165.913C88.3096 165.687 88.492 165.498 88.72 165.498C88.9434 165.498 89.1304 165.683 89.1304 165.913V167.048C89.1304 167.279 88.948 167.463 88.72 167.463Z" fill="black"/>
</svg>
