<svg width="663" height="229" viewBox="0 0 663 229" fill="none" xmlns="http://www.w3.org/2000/svg">
<path d="M127.719 194.006C126.479 193.104 125.239 192.463 123.939 192.022C123.479 191.742 123.009 191.461 122.529 191.231C122.299 191.08 122.039 190.97 121.739 190.9C119.699 190.169 117.489 190.129 115.439 189.367C113.799 188.756 112.369 187.694 110.659 187.313C110.249 187.223 109.849 187.163 109.439 187.123C109.529 186.482 109.189 185.71 108.489 185.57C107.039 185.289 105.649 185.64 104.189 185.71C102.779 185.79 101.449 185.69 100.139 185.42C99.4488 185.279 98.6588 185.62 98.4888 186.361C98.4788 186.411 98.4788 186.472 98.4688 186.522C98.4188 186.572 98.3588 186.612 98.3188 186.672C98.0188 187.033 97.7888 187.433 97.5688 187.844C97.1288 188.656 96.7488 189.497 96.3988 190.359C96.3088 190.579 96.3388 190.88 96.4188 191.13C96.2988 191.551 96.1888 191.962 96.0688 192.373C95.4888 194.387 94.8588 196.42 95.3188 198.534C95.4688 199.246 96.2988 199.657 96.9688 199.476C97.3788 199.366 97.6588 199.065 97.8088 198.715C98.0188 198.855 98.2688 198.945 98.5288 198.925C98.6688 198.915 98.7988 198.885 98.9188 198.855C101.679 199.987 104.739 199.887 107.709 199.957C112.219 200.067 116.719 199.907 121.219 199.566C122.039 199.506 122.689 199.176 123.179 198.715C123.859 199.096 124.549 199.446 125.289 199.727C128.889 201.069 130.369 195.95 127.719 194.006Z" fill="#F68B38"/>
<path d="M57.9299 176.653C58.2399 175.33 58.18 173.837 57.94 172.645C57.65 171.152 56.0199 170.251 54.5999 170.391C53.2699 168.798 50.7399 168.638 48.3499 168.618C44.2199 168.588 42.58 170.15 41.88 174.228C41.09 178.847 39.2999 183.696 39.5999 188.415C39.8699 192.553 40.45 197.743 44.67 199.566C46.18 200.217 48.0699 200.077 48.9599 198.444C50.6099 195.398 50.1699 191.972 51.8199 188.936C52.1599 188.305 52.2699 187.684 52.2099 187.113C52.6799 186.702 53.09 186.201 53.52 185.58C53.97 184.939 54.3299 184.247 54.6399 183.526C55.9599 182.935 57.59 182.634 58.56 181.582C59.85 180.2 59.8199 177.585 57.9299 176.653Z" fill="#F68B38"/>
<path d="M185.287 65.0817C184.947 64.5106 184.347 64.3603 183.737 64.3503C182.917 64.3303 182.087 64.3503 181.267 64.3503C180.567 64.3503 179.887 64.9715 179.927 65.6929C179.927 65.7129 179.937 65.7329 179.937 65.753C179.157 66.1337 178.417 66.5946 177.757 67.1556C178.087 66.5946 178.397 66.0335 178.627 65.4224C178.937 64.6108 178.937 63.7592 178.957 62.8976C178.967 62.2163 179.097 61.6151 179.407 61.034C179.747 60.3928 179.567 59.5713 178.927 59.1906C178.567 58.9802 178.117 58.9701 177.727 59.1204C177.677 59.1104 177.627 59.1104 177.587 59.1004C177.527 59.0904 177.447 59.0804 177.377 59.0703C177.357 59.0703 177.337 59.0703 177.317 59.0703C177.307 59.0703 177.297 59.0703 177.287 59.0703C177.157 59.0804 177.027 59.1004 176.907 59.1204C176.867 59.1304 176.827 59.1405 176.787 59.1505C176.677 59.1905 176.557 59.2407 176.447 59.2908C176.437 59.2908 176.427 59.3008 176.417 59.3008C176.397 59.3108 176.377 59.3208 176.357 59.3308C176.337 59.3408 176.327 59.3508 176.307 59.3609C176.197 59.441 176.097 59.5212 175.997 59.6013C175.967 59.6314 175.937 59.6615 175.907 59.6915C175.827 59.7917 175.737 59.8919 175.667 60.0021C175.657 60.0221 175.647 60.0422 175.637 60.0622C175.637 60.0722 175.627 60.0822 175.627 60.0923C175.577 60.2025 175.527 60.3227 175.487 60.4329C175.477 60.4529 175.467 60.473 175.467 60.493C175.457 60.5131 175.457 60.5431 175.457 60.5632C175.447 60.5932 175.447 60.6333 175.447 60.6733C174.237 61.8856 173.327 63.3284 172.777 64.9114C172.787 64.8112 172.797 64.721 172.807 64.6208C172.937 62.8174 173.297 59.8919 170.947 59.3909C168.547 58.88 168.377 61.7554 168.197 63.3384C168.077 64.4204 167.897 65.4925 167.627 66.5445C167.507 67.0254 167.367 67.4963 167.197 67.9572C167.127 68.1475 167.057 68.3479 166.967 68.5282C166.957 68.5182 166.947 68.5182 166.947 68.5182C167.417 67.2458 166.647 65.3322 166.167 64.3002C166.097 64.15 166.007 64.0297 165.907 63.9295C165.787 63.6991 165.617 63.4887 165.387 63.3685C165.067 63.1981 164.707 63.138 164.357 63.2282C163.577 63.4386 162.987 64.1399 162.827 64.9214C162.767 65.2019 162.757 65.4724 162.757 65.7429C162.427 66.0235 162.227 66.4743 162.377 67.0655C163.367 71.063 164.357 75.0606 165.347 79.0582C165.437 79.3888 165.607 79.6192 165.817 79.7695C165.987 80.3105 166.527 80.7113 167.097 80.7113C167.467 80.7113 167.757 80.5711 167.977 80.3607C168.207 80.561 168.497 80.6913 168.847 80.7314C170.277 80.8716 171.757 80.7314 173.127 80.3206C173.857 80.1102 174.607 79.8497 175.177 79.3287C175.717 78.8378 175.987 78.1665 175.967 77.4652C176.197 77.2447 176.407 76.9943 176.557 76.7137C177.057 75.782 177.327 74.6699 177.667 73.668C177.717 73.5277 177.727 73.3874 177.717 73.2372C177.847 73.0969 177.977 72.9466 178.137 72.7763C178.367 72.5459 178.597 72.3154 178.847 72.105C178.977 71.9948 179.107 71.8846 179.247 71.7744C179.287 71.7443 179.447 71.6241 179.457 71.6241C180.087 71.1733 180.757 70.7925 181.357 70.3116C181.857 69.9209 182.237 69.44 182.637 68.9591C182.827 68.7286 183.027 68.5082 183.257 68.2978C183.377 68.1976 183.387 68.1876 183.287 68.2777C183.357 68.2377 183.417 68.1876 183.487 68.1575C183.587 68.1074 183.687 68.0573 183.787 68.0072C184.417 67.6967 185.007 67.3159 185.317 66.6647C185.547 66.1838 185.597 65.5927 185.287 65.0817Z" fill="#F68B38"/>
<path d="M155.968 102.443C154.648 102.443 153.338 101.862 152.458 100.74C150.928 98.8061 151.248 95.9907 153.178 94.4478C153.288 94.3576 159.618 89.1878 161.648 82.0243C162.328 79.6397 164.798 78.2571 167.178 78.9384C169.558 79.6197 170.938 82.0944 170.258 84.4789C167.408 94.5079 159.098 101.201 158.738 101.481C157.928 102.122 156.948 102.443 155.968 102.443Z" fill="black"/>
<path d="M162.858 82.1939C162.698 82.1939 162.538 82.1538 162.398 82.0636C161.978 81.8132 161.838 81.2621 162.088 80.8313L163.508 78.4568C163.038 77.4549 162.148 75.0003 162.418 71.4135C161.898 70.1911 159.688 64.5204 162.898 62.2762C162.938 62.2561 162.968 62.2261 163.008 62.206C163.138 62.1359 164.328 61.5849 165.618 62.3263C167.028 63.1378 167.888 65.1616 168.168 68.3276C169.968 68.6783 174.398 69.9707 175.168 74.3691C175.248 74.86 174.928 75.3209 174.438 75.4111C173.948 75.4912 173.488 75.1706 173.398 74.6797C172.698 70.6019 167.288 70.0008 167.238 70.0008C166.798 69.9607 166.458 69.6 166.438 69.1592C166.198 65.1817 165.178 64.1497 164.748 63.8892C164.358 63.6488 163.988 63.7389 163.848 63.789C162.038 65.1817 163.438 69.3596 164.138 70.8624C164.208 71.0027 164.228 71.163 164.218 71.3233C163.848 75.5012 165.278 77.9859 165.298 78.016C165.468 78.2965 165.468 78.6572 165.298 78.9377L163.618 81.743C163.458 82.0436 163.158 82.1939 162.858 82.1939Z" fill="black"/>
<path d="M169.448 82.5449C168.978 82.5449 168.588 82.1742 168.558 81.7033C168.528 81.2124 168.908 80.7815 169.398 80.7515C169.438 80.7515 173.868 80.4409 175.228 77.7057C175.258 77.6556 175.288 77.6055 175.318 77.5655C175.328 77.5554 176.358 76.1728 176.548 74.4896C176.568 74.2792 176.668 74.0889 176.818 73.9486L184.368 66.6648C184.508 66.3041 184.768 65.3423 184.018 64.8113C183.928 64.7512 182.688 63.8695 180.408 65.6329C178.188 68.1176 175.768 70.9028 175.528 71.2936C175.268 71.7144 174.708 71.8346 174.298 71.5741C173.878 71.3136 173.758 70.7626 174.018 70.3418C174.448 69.6505 178.358 65.2521 179.138 64.3805C179.168 64.3404 179.208 64.3103 179.248 64.2703C182.738 61.515 185.008 63.2984 185.108 63.3786C186.778 64.5408 186.388 66.6347 185.948 67.5665C185.898 67.6667 185.838 67.7469 185.758 67.827L178.298 75.0206C177.998 76.824 177.048 78.2367 176.808 78.5774C174.958 82.1842 169.738 82.5349 169.518 82.5449C169.478 82.5449 169.458 82.5449 169.448 82.5449Z" fill="black"/>
<path d="M168.558 70.2516C168.128 70.2516 167.748 69.9411 167.678 69.4902C167.548 68.6486 166.448 61.1845 168.668 58.6897C169.198 58.0986 169.878 57.788 170.648 57.788C170.658 57.788 170.658 57.788 170.658 57.788C171.008 57.7279 171.838 57.6778 172.648 58.279C173.738 59.0905 174.308 60.7036 174.358 63.0981C174.368 63.589 173.978 63.9998 173.478 64.0098C173.468 64.0098 173.468 64.0098 173.458 64.0098C172.968 64.0098 172.568 63.6191 172.558 63.1281C172.518 60.8037 171.938 60.0022 171.608 59.7317C171.298 59.4812 170.988 59.5413 170.958 59.5514C170.878 59.5714 170.768 59.5814 170.698 59.5814C170.418 59.5714 170.198 59.6616 169.998 59.882C168.738 61.2847 168.988 66.3442 169.438 69.1996C169.518 69.6906 169.178 70.1514 168.698 70.2216C168.648 70.2416 168.598 70.2516 168.558 70.2516Z" fill="black"/>
<path d="M176.678 69.3996C176.528 69.3996 176.368 69.3595 176.228 69.2794C175.798 69.0289 175.658 68.4879 175.898 68.0571C178.518 63.5285 178.428 61.4245 178.138 60.5729C177.978 60.092 177.718 59.9217 177.708 59.9117C177.548 59.8515 177.318 59.7914 176.958 59.9617C175.108 60.8033 172.908 65.6425 171.948 68.4879C171.788 68.9588 171.288 69.2093 170.818 69.049C170.348 68.8887 170.098 68.3777 170.258 67.9168C170.538 67.0852 173.058 59.7814 176.218 58.3286C176.948 57.988 177.708 57.968 178.398 58.2585C178.498 58.2986 179.398 58.7094 179.838 60.0018C180.518 62.0257 179.718 65.0414 177.448 68.9588C177.288 69.2393 176.988 69.3996 176.678 69.3996Z" fill="black"/>
<path d="M62.5487 180.22C61.3087 180.22 60.0487 180.17 58.7487 180.07C56.2887 179.869 54.4487 177.705 54.6487 175.24C54.8487 172.776 57.0087 170.922 59.4687 171.133C78.9687 172.706 91.4487 158.358 91.5687 158.218C93.1687 156.335 95.9887 156.114 97.8687 157.707C99.7487 159.31 99.9887 162.126 98.3987 164.009C97.8187 164.7 84.4887 180.22 62.5487 180.22Z" fill="black"/>
<path d="M149.028 206.129H69.3888C68.1189 206.129 67.0889 205.097 67.0889 203.825V201.019C67.0889 199.747 68.1189 198.715 69.3888 198.715H149.028C150.298 198.715 151.328 199.747 151.328 201.019V203.825C151.328 205.097 150.298 206.129 149.028 206.129Z" fill="black"/>
<path d="M29.1405 180.831H14.7505C11.9805 180.831 9.73047 178.576 9.73047 175.801C9.73047 173.026 11.9805 170.771 14.7505 170.771C15.2405 170.771 15.6505 171.172 15.6505 171.673C15.6505 172.164 15.2505 172.575 14.7505 172.575C12.9705 172.575 11.5205 174.028 11.5205 175.811C11.5205 177.594 12.9705 179.047 14.7505 179.047H29.1405C29.6305 179.047 30.0405 179.448 30.0405 179.949C30.0405 180.45 29.6305 180.831 29.1405 180.831Z" fill="black"/>
<path d="M9.33 182.263H3.23C1.45 182.263 0 180.811 0 179.027C0 177.244 1.45 175.791 3.23 175.791C3.72 175.791 4.13 176.192 4.13 176.693C4.13 177.184 3.73 177.594 3.23 177.594C2.44 177.594 1.79 178.236 1.79 179.037C1.79 179.829 2.43 180.48 3.23 180.48H9.33C9.82 180.48 10.23 180.881 10.23 181.382C10.23 181.863 9.83 182.263 9.33 182.263Z" fill="black"/>
<path d="M6.35988 190.338C4.57988 190.338 3.12988 188.886 3.12988 187.102C3.12988 185.319 4.57988 183.866 6.35988 183.866H7.97988C8.46988 183.866 8.87988 184.267 8.87988 184.768C8.87988 185.269 8.47988 185.67 7.97988 185.67H6.35988C5.56988 185.67 4.91988 186.311 4.91988 187.112C4.91988 187.904 5.55988 188.555 6.35988 188.555C6.84988 188.555 7.25988 188.956 7.25988 189.457C7.25988 189.958 6.84988 190.338 6.35988 190.338Z" fill="black"/>
<path d="M14.7505 193.384C11.9805 193.384 9.73047 191.13 9.73047 188.355C9.73047 185.579 11.9805 183.325 14.7505 183.325H29.1405C29.6305 183.325 30.0405 183.726 30.0405 184.227C30.0405 184.718 29.6405 185.129 29.1405 185.129H14.7505C12.9705 185.129 11.5205 186.581 11.5205 188.365C11.5205 190.148 12.9705 191.601 14.7505 191.601C15.2405 191.601 15.6505 192.002 15.6505 192.503C15.6505 193.004 15.2405 193.384 14.7505 193.384Z" fill="black"/>
<path d="M56.0902 180.831C53.1202 180.831 50.7002 178.306 50.7002 175.21C50.7002 172.115 53.1202 169.59 56.0902 169.59C59.0602 169.59 61.4802 172.115 61.4802 175.21C61.4902 178.306 59.0702 180.831 56.0902 180.831ZM56.0902 171.373C54.1002 171.373 52.4902 173.086 52.4902 175.2C52.4902 177.314 54.1102 179.028 56.0902 179.028C58.0802 179.028 59.6902 177.314 59.6902 175.2C59.7002 173.096 58.0802 171.373 56.0902 171.373Z" fill="black"/>
<path d="M46.3702 200.798C44.3602 200.798 42.5202 199.967 42.4102 199.917C42.3302 199.886 42.2602 199.836 42.2002 199.786C34.3002 193.013 41.6102 169.98 41.9302 169.008C42.0102 168.768 42.1802 168.567 42.4202 168.467C50.5802 164.8 56.4202 169.589 56.6702 169.789C57.0502 170.11 57.1002 170.671 56.7802 171.052C56.4602 171.433 55.9002 171.483 55.5202 171.162C55.2902 170.972 50.4202 167.044 43.5202 169.94C43.0902 171.342 41.6302 176.372 40.8402 181.922C39.6702 190.188 40.5102 195.859 43.2702 198.344C43.8102 198.564 46.1802 199.466 47.8702 198.744C48.5502 198.454 49.0302 197.933 49.3402 197.141C49.4002 195.779 49.9902 186.371 55.0102 183.195C55.0702 183.155 55.1302 183.125 55.2002 183.105C56.1702 182.774 58.9702 181.472 59.0602 179.879C59.0902 179.388 59.5102 179.007 60.0002 179.027C60.4902 179.057 60.8702 179.478 60.8502 179.969C60.6902 182.894 56.7202 184.457 55.8902 184.758C51.4702 187.663 51.1302 197.241 51.1302 197.342C51.1302 197.432 51.1102 197.532 51.0802 197.612C50.6102 198.945 49.7602 199.886 48.5702 200.387C47.8602 200.688 47.1102 200.798 46.3702 200.798Z" fill="black"/>
<path d="M103.908 189.868C102.958 189.868 102.008 189.567 101.198 188.946C99.2276 187.443 98.8476 184.628 100.348 182.664C101.878 180.54 104.928 168.097 106.808 157.807C107.248 155.373 109.578 153.76 112.018 154.2C114.448 154.641 116.058 156.986 115.618 159.42C114.318 166.534 110.928 183.556 107.478 188.095C106.588 189.267 105.248 189.868 103.908 189.868Z" fill="black"/>
<path d="M103.778 190.048C99.8582 190.048 96.9082 188.505 96.9082 186.471C96.9082 184.437 99.8582 182.895 103.778 182.895C107.698 182.895 110.648 184.437 110.648 186.471C110.648 188.505 107.698 190.048 103.778 190.048ZM103.778 184.688C100.488 184.688 98.6982 185.87 98.6982 186.471C98.6982 187.072 100.488 188.255 103.778 188.255C107.068 188.255 108.858 187.072 108.858 186.471C108.858 185.87 107.068 184.688 103.778 184.688Z" fill="black"/>
<path d="M129.009 199.906H95.3692C94.9392 199.906 94.5592 199.596 94.4892 199.165C94.4292 198.804 92.9992 190.348 97.1592 185.95C97.4992 185.589 98.0592 185.569 98.4192 185.91C98.7792 186.251 98.7992 186.822 98.4592 187.172C95.5692 190.238 95.9192 196.049 96.1592 198.103H128.379C129.389 194.506 125.349 192.743 125.169 192.663L109.479 187.403C109.009 187.242 108.759 186.742 108.919 186.271C109.079 185.8 109.589 185.549 110.049 185.71L125.799 190.99C128.039 191.921 131.679 194.837 129.849 199.345C129.699 199.686 129.379 199.906 129.009 199.906Z" fill="black"/>
<path d="M79.0592 214.654C81.9035 214.654 84.2092 212.344 84.2092 209.495C84.2092 206.645 81.9035 204.335 79.0592 204.335C76.2149 204.335 73.9092 206.645 73.9092 209.495C73.9092 212.344 76.2149 214.654 79.0592 214.654Z" fill="black"/>
<path d="M138.098 214.654C140.943 214.654 143.248 212.344 143.248 209.495C143.248 206.645 140.943 204.335 138.098 204.335C135.254 204.335 132.948 206.645 132.948 209.495C132.948 212.344 135.254 214.654 138.098 214.654Z" fill="black"/>
<path d="M72.4204 204.706L70.0804 205.578C69.0204 205.969 67.8404 205.428 67.4504 204.366L65.1404 198.124C64.7504 197.062 65.2904 195.88 66.3504 195.489L68.6904 194.617C69.7504 194.226 70.9304 194.768 71.3204 195.83L73.6304 202.071C74.0204 203.133 73.4804 204.306 72.4204 204.706Z" fill="black"/>
<path d="M137.568 76.9837C131.028 76.9837 125.718 71.6737 125.718 65.1112C125.718 63.3379 126.118 61.6647 126.808 60.1518C116.918 52.1968 104.368 47.4277 90.6983 47.4277C58.8088 47.4277 32.9492 73.3268 32.9492 105.287C32.9492 107.662 33.1092 109.996 33.3892 112.301C34.5492 111.92 35.7892 111.709 37.0792 111.709C43.6191 111.709 48.929 117.02 48.929 123.582C48.929 128.752 45.619 133.14 41.0091 134.773C51.0689 151.765 69.5487 163.157 90.6983 163.157C122.588 163.157 148.447 137.248 148.447 105.297C148.447 94.8275 145.658 85.0089 140.798 76.5329C139.768 76.8134 138.688 76.9837 137.568 76.9837ZM74.4686 147.768C70.3387 147.768 66.9987 144.421 66.9987 140.284C66.9987 136.146 70.3387 132.799 74.4686 132.799C78.5985 132.799 81.9385 136.146 81.9385 140.284C81.9385 144.421 78.5985 147.768 74.4686 147.768Z" fill="#F68B38"/>
<path d="M90.6987 164.038C70.099 164.038 50.7693 152.998 40.2394 135.214L39.6795 134.272L40.7094 133.911C45.0894 132.368 48.0293 128.211 48.0293 123.572C48.0293 117.52 43.1194 112.601 37.0795 112.601C35.9295 112.601 34.7795 112.781 33.6695 113.152L32.6296 113.493L32.4996 112.411C32.1996 109.936 32.0596 107.612 32.0596 105.297C32.0596 72.8958 58.3692 46.5459 90.6987 46.5459C104.178 46.5459 116.858 51.0144 127.378 59.4704L127.928 59.9112L127.638 60.5424C126.968 62.0052 126.628 63.5381 126.628 65.1211C126.628 71.1725 131.538 76.0919 137.578 76.0919C138.568 76.0919 139.568 75.9516 140.558 75.6711L141.228 75.4807L141.578 76.0919C146.658 84.9587 149.348 95.0578 149.348 105.307C149.338 137.689 123.038 164.038 90.6987 164.038ZM42.3194 135.194C52.6393 151.905 71.079 162.245 90.6987 162.245C122.048 162.245 147.548 136.697 147.548 105.287C147.548 95.5888 145.058 86.0107 140.348 77.5647C139.418 77.7751 138.488 77.8853 137.568 77.8853C130.538 77.8853 124.828 72.1544 124.828 65.1211C124.828 63.518 125.128 61.9451 125.728 60.4422C115.638 52.5172 103.548 48.3393 90.7087 48.3393C59.3592 48.3393 33.8595 73.8877 33.8595 105.297C33.8595 107.211 33.9595 109.144 34.1695 111.158C35.1295 110.928 36.1095 110.818 37.0895 110.818C44.1194 110.818 49.8293 116.549 49.8293 123.582C49.8193 128.601 46.8493 133.15 42.3194 135.194ZM74.4689 148.669C69.859 148.669 66.1091 144.912 66.1091 140.293C66.1091 135.675 69.859 131.918 74.4689 131.918C79.0789 131.918 82.8288 135.675 82.8288 140.293C82.8288 144.912 79.0889 148.669 74.4689 148.669ZM74.4689 133.701C70.839 133.701 67.899 136.657 67.899 140.283C67.899 143.92 70.849 146.866 74.4689 146.866C78.0889 146.866 81.0388 143.91 81.0388 140.283C81.0488 136.657 78.0989 133.701 74.4689 133.701Z" fill="black"/>
<path d="M147.418 76.9837C140.878 76.9837 135.568 71.6737 135.568 65.1112C135.568 63.3379 135.968 61.6647 136.658 60.1518C126.769 52.1968 114.219 47.4277 100.549 47.4277C68.6594 47.4277 42.7998 73.3268 42.7998 105.287C42.7998 107.662 42.9598 109.996 43.2398 112.301C44.3998 111.92 45.6398 111.709 46.9297 111.709C53.4696 111.709 58.7796 117.02 58.7796 123.582C58.7796 128.752 55.4696 133.14 50.8597 134.773C60.9195 151.765 79.3992 163.157 100.549 163.157C132.438 163.157 158.298 137.248 158.298 105.297C158.298 94.8275 155.508 85.0089 150.648 76.5329C149.618 76.8134 148.538 76.9837 147.418 76.9837ZM84.3192 147.768C80.1892 147.768 76.8493 144.421 76.8493 140.284C76.8493 136.146 80.1892 132.799 84.3192 132.799C88.4491 132.799 91.7891 136.146 91.7891 140.284C91.7891 144.421 88.4491 147.768 84.3192 147.768Z" fill="#FBB33B"/>
<path d="M100.549 164.038C79.9496 164.038 60.6199 152.998 50.09 135.214L49.53 134.272L50.56 133.911C54.94 132.368 57.8799 128.211 57.8799 123.572C57.8799 117.52 52.97 112.601 46.9301 112.601C45.7801 112.601 44.6301 112.781 43.5201 113.152L42.4801 113.493L42.3501 112.411C42.0501 109.936 41.9102 107.612 41.9102 105.297C41.9102 72.8958 68.2197 46.5459 100.549 46.5459C114.029 46.5459 126.709 51.0144 137.229 59.4704L137.779 59.9112L137.489 60.5424C136.819 62.0052 136.479 63.5381 136.479 65.1211C136.479 71.1725 141.389 76.0919 147.429 76.0919C148.419 76.0919 149.419 75.9516 150.409 75.6711L151.079 75.4807L151.429 76.0919C156.508 84.9587 159.198 95.0578 159.198 105.307C159.188 137.689 132.879 164.038 100.549 164.038ZM52.17 135.194C62.4898 151.905 80.9296 162.245 100.549 162.245C131.899 162.245 157.398 136.697 157.398 105.287C157.398 95.5888 154.908 86.0107 150.199 77.5647C149.269 77.7751 148.339 77.8853 147.419 77.8853C140.389 77.8853 134.679 72.1544 134.679 65.1211C134.679 63.518 134.979 61.9451 135.579 60.4422C125.489 52.5172 113.399 48.3393 100.559 48.3393C69.2097 48.3393 43.7101 73.8877 43.7101 105.297C43.7101 107.211 43.8101 109.144 44.0201 111.158C44.9801 110.928 45.9601 110.818 46.9401 110.818C53.97 110.818 59.6799 116.549 59.6799 123.582C59.6699 128.601 56.6999 133.15 52.17 135.194ZM84.3195 148.669C79.7096 148.669 75.9596 144.912 75.9596 140.293C75.9596 135.675 79.7096 131.918 84.3195 131.918C88.9294 131.918 92.6794 135.675 92.6794 140.293C92.6794 144.912 88.9294 148.669 84.3195 148.669ZM84.3195 133.701C80.6896 133.701 77.7496 136.657 77.7496 140.283C77.7496 143.92 80.6996 146.866 84.3195 146.866C87.9395 146.866 90.8894 143.91 90.8894 140.283C90.8894 136.657 87.9495 133.701 84.3195 133.701Z" fill="black"/>
<path d="M51.4444 133.614L40.9775 133.859L41.0195 135.652L51.4864 135.407L51.4444 133.614Z" fill="black"/>
<path d="M31.72 150.223C31.46 148.931 30.66 147.899 29.82 146.927C29.41 146.446 28.84 146.176 28.24 146.075C28.54 145.594 28.72 145.023 28.76 144.422C28.88 142.368 27.74 139.964 25.53 139.663C25.35 139.643 25.04 139.603 24.73 139.593C24.65 139.483 24.56 139.383 24.49 139.303C23.34 138.05 21.31 137.589 19.67 138.04C18.32 138.411 17.66 139.273 17.34 140.335C16.23 141.296 15.33 142.509 14.33 143.681C12.78 145.514 11.9 147.137 12.13 149.622C12.25 150.985 13.25 152.287 14.5 152.698C14.32 153.099 14.22 153.53 14.16 154.02C13.99 155.453 14.68 157.046 15.72 158.008C17.05 159.24 18.7 159.551 20.44 159.24C20.68 159.2 20.9 159.11 21.11 159C21.76 159.831 22.71 160.393 24.11 160.453C26.16 160.543 27.79 159.13 28.18 157.156C28.29 156.605 28.3 156.054 28.26 155.503C29.04 155.503 29.83 155.213 30.45 154.612C31.64 153.469 32.03 151.806 31.72 150.223Z" fill="#F68B38"/>
<path d="M25.8096 143.19C24.8396 143.19 23.8696 142.839 23.0996 142.138C21.4496 140.635 21.3296 138.09 22.8296 136.437C23.3896 135.826 36.6096 121.379 49.6996 118.143C51.8596 117.612 54.0396 118.934 54.5796 121.098C55.1096 123.262 53.7996 125.446 51.6396 125.987C42.7296 128.192 32.1296 138.201 28.7996 141.878C27.9896 142.739 26.8996 143.19 25.8096 143.19Z" fill="black"/>
<path d="M19.42 143.39C19.19 143.39 18.97 143.31 18.79 143.14C18.07 142.439 15.88 140.294 16.74 138.451C17.73 136.307 22.07 136.608 22.93 136.688C23.42 136.738 23.78 137.169 23.74 137.659C23.69 138.15 23.26 138.531 22.76 138.471C20.92 138.301 18.67 138.551 18.37 139.202C18.34 139.273 18.1 139.954 20.05 141.857C20.4 142.208 20.41 142.769 20.07 143.13C19.89 143.3 19.65 143.39 19.42 143.39Z" fill="black"/>
<path d="M26.9896 147.438C25.9796 147.438 24.7496 147.157 23.2996 146.606C22.8396 146.426 22.6096 145.915 22.7796 145.454C22.9596 144.993 23.4696 144.763 23.9296 144.933C26.0896 145.755 27.5996 145.865 28.1996 145.264C28.9696 144.482 28.4596 142.278 28.0796 141.336C27.8996 140.875 28.1196 140.354 28.5796 140.174C29.0396 139.994 29.5596 140.214 29.7396 140.675C29.8996 141.086 31.2596 144.703 29.4696 146.526C28.8796 147.137 28.0496 147.438 26.9896 147.438Z" fill="black"/>
<path d="M29.4995 157.007C29.2295 157.007 28.9695 156.886 28.7895 156.666C28.4795 156.275 28.5495 155.714 28.9395 155.403C30.8195 153.931 31.7595 152.398 31.7195 150.855C31.6595 148.3 28.9995 146.376 28.9695 146.356C28.5695 146.066 28.4695 145.515 28.7595 145.104C29.0495 144.703 29.5995 144.603 30.0095 144.894C30.1495 144.994 33.4295 147.348 33.5095 150.805C33.5595 152.949 32.3995 154.973 30.0395 156.816C29.8895 156.946 29.6995 157.007 29.4995 157.007Z" fill="black"/>
<path d="M14.1396 154.672C13.9296 154.672 13.7096 154.592 13.5396 154.441C11.8296 152.888 10.9696 151.035 10.9796 148.941C11.0096 143.931 16.1096 139.353 16.3296 139.162C16.6996 138.832 17.2696 138.872 17.5896 139.243C17.9196 139.613 17.8796 140.184 17.5096 140.505C17.4596 140.545 12.7896 144.753 12.7696 148.961C12.7596 150.544 13.4096 151.907 14.7396 153.119C15.1096 153.449 15.1296 154.02 14.7996 154.381C14.6196 154.572 14.3796 154.672 14.1396 154.672Z" fill="black"/>
<path d="M20.1799 160.743C17.6699 160.743 15.8599 159.981 14.7999 158.469C12.6999 155.473 14.5699 150.734 14.6499 150.534C14.8299 150.073 15.3499 149.852 15.8099 150.033C16.2699 150.213 16.4899 150.734 16.3099 151.195C16.2899 151.235 14.7299 155.232 16.2699 157.437C17.0199 158.499 18.4599 159 20.5599 158.939C20.5699 158.939 20.5799 158.939 20.5899 158.939C21.0699 158.939 21.4699 159.32 21.4799 159.811C21.4999 160.302 21.1099 160.723 20.6199 160.733C20.4699 160.743 20.3199 160.743 20.1799 160.743Z" fill="black"/>
<path d="M24.5991 161.925C24.5391 161.925 24.5091 161.925 24.4991 161.925C22.3791 161.655 20.9191 160.783 20.0991 159.32C18.3591 156.184 20.4291 151.556 20.5191 151.365C20.7291 150.914 21.2591 150.714 21.6991 150.925C22.1491 151.125 22.3491 151.666 22.1391 152.117C22.1191 152.157 20.3591 156.124 21.6591 158.459C22.1891 159.411 23.1691 159.962 24.6591 160.152C24.6291 160.152 25.6391 160.172 26.5491 159.19C27.4991 158.168 28.5191 155.874 27.9691 150.754C27.9191 150.263 28.2691 149.822 28.7691 149.772C29.2691 149.722 29.6991 150.073 29.7491 150.574C30.2491 155.273 29.5891 158.609 27.7991 160.483C26.4991 161.835 24.9891 161.925 24.5991 161.925Z" fill="black"/>
<path d="M93.5091 80.7812C93.4891 80.8112 93.4891 80.8012 93.5091 80.7812V80.7812Z" fill="#F499AD"/>
<path d="M101.869 79.9794C101.679 79.7089 101.459 79.4885 101.199 79.3081C101.199 79.2781 101.209 79.248 101.199 79.218C101.069 77.5248 99.8489 76.082 98.0689 76.082C97.0189 76.082 95.9389 76.7132 95.3689 77.625C95.2089 77.7652 95.0889 77.8854 95.1389 77.8354C94.7989 78.156 94.4889 78.5267 94.2489 78.9274C94.0089 79.3382 93.8489 79.8191 93.7089 80.28C93.6089 80.5906 93.5289 80.7409 93.4989 80.791C93.5589 80.7008 93.7789 80.4102 94.2989 80.0295C93.3389 80.7208 92.8589 81.6125 92.8189 82.5543C92.4889 82.8348 92.2189 83.1655 91.9789 83.5662C91.1089 84.9989 91.6389 87.0428 93.0989 87.8644C94.2389 88.5056 95.4089 88.9464 96.6189 89.267C96.4089 89.5475 96.2489 89.8682 96.1789 90.2188C95.6489 90.2689 95.1289 90.309 94.5989 90.3591C94.5289 90.3591 94.4589 90.3691 94.3889 90.3791C93.8389 89.8481 92.9189 89.6477 92.2189 89.8381C91.2089 90.1186 90.6789 91.0103 90.5789 92.0022C90.3789 93.986 90.5889 96.0398 91.2189 97.9334C91.5489 98.9153 91.8989 99.9472 92.7589 100.588C92.8489 100.659 92.9589 100.719 93.0589 100.779C93.2789 101.32 93.5989 101.791 94.1289 102.111C95.2889 102.823 97.0389 103.053 98.3489 102.743C100.249 102.302 100.979 100.659 101.599 98.9954C102.759 95.8895 103.409 92.5833 103.599 89.267C103.789 86.1411 103.709 82.6244 101.869 79.9794Z" fill="#F499AD"/>
<path d="M129.098 93.0248C129.498 89.8388 129.548 86.4424 128.328 83.4166C128.128 82.9257 127.808 82.4949 127.418 82.2043C127.338 82.024 127.258 81.8336 127.178 81.6533L126.448 80.0002C126.218 79.4692 126.018 78.9281 125.668 78.4673C124.938 77.5255 123.728 77.0846 122.588 77.5656C121.648 77.9663 120.988 78.888 120.998 79.9C119.608 81.4028 118.568 83.2563 118.058 85.2501C117.748 85.6408 117.518 86.1819 117.538 86.6628C117.568 87.2439 117.758 87.845 118.198 88.2458L118.648 88.5965C118.998 88.7968 119.378 88.897 119.778 88.907C119.808 88.907 119.838 88.917 119.868 88.917C120.488 89.0072 121.098 89.1274 121.688 89.3278C121.848 89.408 122.008 89.4982 122.158 89.5984C122.258 89.6885 122.358 89.7887 122.448 89.8889C122.478 89.929 122.508 89.969 122.528 90.0191C122.648 90.2295 122.798 90.4099 122.968 90.5602C122.908 90.6002 122.848 90.6203 122.788 90.6704C122.478 90.7605 122.168 90.8507 121.848 90.9208C121.758 90.9409 121.318 91.0812 121.248 91.0311C121.588 90.991 121.638 90.981 121.388 91.011C121.308 91.021 121.238 91.0311 121.158 91.0311C120.418 91.1012 119.678 91.0812 118.938 91.001C118.178 90.9108 117.368 91.4919 117.008 92.1131C116.588 92.8445 116.648 93.646 117.008 94.3774C117.078 94.5076 117.268 94.7781 117.268 94.9284C117.148 94.6279 117.128 94.5878 117.218 94.8182C117.258 94.9084 117.288 95.0086 117.328 95.0988C117.468 95.4795 117.588 95.8702 117.688 96.261C117.738 96.4614 117.778 96.6617 117.818 96.8521C117.838 96.9523 117.978 97.3731 117.918 97.4532C117.878 97.1126 117.868 97.0625 117.898 97.313C117.908 97.4131 117.918 97.5134 117.928 97.6135C117.938 97.7638 117.948 97.9141 117.958 98.0744C118.048 99.7877 118.228 101.631 119.598 102.843C119.618 102.853 119.638 102.863 119.648 102.884C119.658 102.974 119.668 103.074 119.678 103.124C119.688 103.194 119.708 103.374 119.718 103.435C119.718 103.445 119.728 103.465 119.728 103.475C119.758 103.565 119.878 103.825 119.848 103.755C119.818 103.695 119.928 103.966 119.968 104.046C119.978 104.056 119.988 104.066 119.988 104.086C120.028 104.146 120.298 104.487 120.338 104.547C120.348 104.557 120.348 104.557 120.358 104.567C120.508 104.727 120.698 104.857 120.878 104.967C120.978 105.038 121.118 105.078 121.218 105.118C121.328 105.168 121.448 105.228 121.578 105.258C121.658 105.268 122.098 105.328 122.178 105.338C122.188 105.338 122.198 105.338 122.208 105.338C122.228 105.338 122.238 105.338 122.258 105.338C122.758 105.308 123.018 105.248 123.458 105.018C123.468 105.008 123.478 105.008 123.498 104.998C123.548 104.967 123.918 104.677 123.958 104.637C123.968 104.627 123.968 104.627 123.978 104.617C123.998 104.597 124.058 104.517 124.128 104.436C124.708 104.467 125.298 104.286 125.768 103.845C125.888 103.735 126.008 103.615 126.128 103.505C126.628 103.034 126.818 102.493 126.798 101.972C127.208 101.381 127.508 100.699 127.728 100.028C127.948 99.3468 128.098 98.6455 128.338 97.9742C128.398 97.844 128.468 97.7237 128.548 97.6035C128.588 97.5634 128.628 97.5133 128.668 97.4733C129.448 96.7319 129.528 95.3693 128.858 94.5277C128.938 94.0367 129.028 93.5358 129.098 93.0248Z" fill="#F499AD"/>
<path d="M121.608 117.12C121.538 116.829 121.408 116.569 121.208 116.358C121.048 116.118 120.838 115.918 120.578 115.777C120.398 115.697 120.218 115.627 120.048 115.547C119.648 115.437 119.258 115.437 118.858 115.547C118.678 115.627 118.498 115.697 118.328 115.777C117.988 115.978 117.728 116.248 117.528 116.579C117.428 116.729 117.328 116.869 117.218 117.02C117.058 117.28 116.968 117.551 116.948 117.851C116.878 118.152 116.898 118.442 116.988 118.743C117.038 118.933 117.118 119.104 117.228 119.264C117.218 119.314 117.208 119.364 117.208 119.414C114.588 119.424 111.978 119.424 109.358 119.434C109.308 119.434 109.268 119.444 109.218 119.454C109.188 119.204 109.128 118.953 109.028 118.723C109.058 118.553 109.068 118.382 109.058 118.212C109.038 118.072 109.058 117.931 109.058 117.791C109.078 117.721 109.088 117.641 109.108 117.571C109.198 117.27 109.218 116.97 109.148 116.679C109.138 116.378 109.048 116.098 108.878 115.847C108.738 115.587 108.548 115.377 108.298 115.216C108.078 115.016 107.828 114.886 107.538 114.815C107.338 114.785 107.138 114.765 106.948 114.735C106.548 114.735 106.168 114.836 105.818 115.046C105.668 115.166 105.518 115.276 105.368 115.397C105.088 115.677 104.898 116.008 104.788 116.388C104.648 116.789 104.598 117.23 104.558 117.651C104.518 118.072 104.598 118.512 104.668 118.923C104.698 119.044 104.738 119.154 104.788 119.254C104.778 119.294 104.778 119.334 104.778 119.374C104.748 119.424 104.718 119.484 104.678 119.534C104.428 119.845 104.168 120.156 103.948 120.486C103.628 120.977 103.398 121.518 103.208 122.069C102.878 122.991 102.748 124.043 102.878 125.015C102.868 125.325 102.928 125.616 103.068 125.876C103.158 126.157 103.308 126.397 103.528 126.598C103.918 126.989 104.548 127.279 105.108 127.259C105.258 127.249 105.408 127.229 105.558 127.199C105.838 127.339 106.148 127.409 106.488 127.369C107.208 127.279 107.928 127.239 108.648 127.269C108.808 127.279 108.978 127.299 109.138 127.309C109.148 127.309 109.148 127.309 109.158 127.309C109.178 127.309 109.188 127.319 109.218 127.319C109.538 127.379 109.848 127.449 110.168 127.54C110.318 127.59 110.468 127.64 110.608 127.69C110.648 127.71 110.718 127.74 110.788 127.77C111.068 127.91 111.338 128.081 111.598 128.271C111.638 128.311 111.698 128.361 111.748 128.411C111.868 128.521 111.978 128.642 112.088 128.762C112.128 128.802 112.148 128.822 112.168 128.842C112.178 128.862 112.188 128.882 112.218 128.912C112.308 129.042 112.398 129.183 112.478 129.323C112.558 129.463 112.638 129.603 112.718 129.744C112.728 129.764 112.788 129.884 112.828 129.974C112.858 130.064 112.938 130.255 112.948 130.285C113.018 130.475 113.078 130.655 113.128 130.846C113.328 131.507 113.468 132.188 113.568 132.87C113.578 132.93 113.578 132.95 113.578 132.96L113.598 133.11C113.628 133.361 113.648 133.601 113.668 133.852C113.698 134.262 113.728 134.673 113.738 135.094C113.768 136.006 113.738 136.917 113.658 137.819C113.568 138.991 114.758 140.113 115.898 140.063C116.778 140.023 117.448 139.572 117.818 138.891C117.998 138.891 118.178 138.871 118.338 138.821C118.878 138.641 119.398 138.31 119.678 137.789C119.968 137.238 120.028 136.677 119.908 136.066C119.878 135.935 119.858 135.805 119.838 135.675C120.078 135.324 120.218 134.894 120.258 134.423C120.418 132.038 120.588 129.644 120.748 127.259C120.768 126.938 120.688 126.628 120.558 126.337C120.888 124.253 121.228 122.179 121.558 120.095C121.638 119.574 121.638 119.094 121.448 118.623C121.538 118.422 121.608 118.222 121.618 118.002C121.708 117.711 121.698 117.42 121.608 117.12Z" fill="#F499AD"/>
<path d="M108.558 85.5605C108.548 85.4703 108.528 85.3802 108.508 85.29C108.208 83.6168 107.778 81.9737 107.188 80.3607C107.008 79.8698 106.688 79.5492 106.308 79.3588C105.328 77.8259 104.038 76.4733 102.518 75.4414C101.738 74.9204 100.498 75.261 100.068 76.0826C99.5879 76.9843 99.8779 77.9762 100.708 78.5372C100.808 78.6074 100.918 78.6775 101.018 78.7476C101.028 78.7576 101.078 78.7977 101.118 78.8278C101.178 78.8779 101.278 78.958 101.298 78.9781C101.378 79.0382 101.448 79.1083 101.528 79.1784C101.858 79.479 102.178 79.7996 102.478 80.1302C102.558 80.2204 102.638 80.3206 102.718 80.4108C102.728 80.4208 102.778 80.4809 102.808 80.521C102.858 80.5811 102.928 80.6813 102.938 80.7013C102.998 80.7815 103.048 80.8616 103.108 80.9518C103.368 81.3425 103.608 81.7533 103.828 82.1841C103.918 82.3645 104.008 82.5548 104.088 82.7452C104.098 82.7552 104.098 82.7652 104.108 82.7853C104.148 82.9055 104.198 83.0157 104.238 83.1359C104.388 83.5567 104.508 83.9876 104.608 84.4284C104.658 84.6488 104.698 84.8692 104.738 85.0896C104.738 85.0997 104.738 85.0997 104.738 85.1197C104.748 85.2199 104.758 85.3301 104.768 85.4303C104.808 85.9012 104.818 86.3721 104.798 86.853C104.788 87.1435 104.868 87.414 105.008 87.6745C104.978 89.8086 104.838 91.9426 104.238 94.0065C103.478 96.5914 101.928 98.8457 100.438 101.06C100.178 101.451 100.138 101.922 100.248 102.362C99.0679 103.615 100.708 106.019 102.558 105.077C106.328 103.164 108.068 98.9158 108.658 94.9383C109.108 91.8124 109.078 88.6564 108.558 85.5605Z" fill="#F68B38"/>
<path d="M134.048 87.5939C133.998 87.3434 133.918 87.093 133.858 86.8425C134.008 86.582 134.098 86.2914 134.088 85.9708C133.938 82.1035 131.688 78.3865 128.218 76.6031C127.388 76.1723 126.238 76.3626 125.768 77.2443C125.338 78.0658 125.518 79.2381 126.408 79.699C126.748 79.8793 127.078 80.0697 127.398 80.2901C127.468 80.3402 127.538 80.3903 127.608 80.4403C127.748 80.5606 127.888 80.6708 128.028 80.801C128.148 80.9112 128.248 81.0315 128.348 81.1417C128.318 81.3721 128.328 81.6026 128.408 81.833C129.138 83.947 130.018 86.081 130.518 88.2652C130.328 88.5557 130.218 88.8964 130.198 89.257C130.048 91.4913 129.988 93.7556 129.528 95.9597C129.068 98.1038 128.338 100.158 127.308 102.081C126.858 102.933 127.098 104.035 127.948 104.536C128.438 104.827 129.058 104.837 129.578 104.616C130.398 104.626 131.028 104.115 131.348 103.314C132.078 101.46 132.848 99.6167 133.548 97.7531C133.808 97.0518 133.958 96.3204 134.048 95.569C134.178 95.3185 134.268 95.048 134.288 94.7575C134.428 92.3629 134.528 89.9584 134.048 87.5939Z" fill="#F68B38"/>
<path d="M112.248 130.395C110.358 127.83 107.228 127.51 104.278 127.6C103.338 127.63 102.448 128.401 102.488 129.393C102.498 129.724 102.608 130.035 102.768 130.315C101.928 132.82 102.908 135.585 104.618 137.469C106.378 139.412 108.958 140.404 111.408 141.136C112.468 141.456 113.748 140.565 113.678 139.402C113.488 136.367 114.188 133.04 112.248 130.395Z" fill="#F68B38"/>
<path d="M101.629 106.82L101.069 105.117C105.059 103.795 108.179 97.8533 108.479 90.9903C108.659 86.9727 107.879 83.1555 106.289 80.26C104.779 77.5048 102.729 75.9418 100.509 75.8416C100.439 75.8416 100.369 75.8416 100.299 75.8416C96.5495 75.8416 93.0195 80.1698 91.7395 86.3115C92.2995 86.5519 93.4695 86.8926 94.2895 87.133C97.0495 87.9345 98.4395 88.3353 98.3395 89.4975C98.2595 90.4493 97.6895 90.4794 93.9795 90.6998C93.1195 90.7499 91.9195 90.82 91.2295 90.8901C91.2295 91.1306 91.2195 91.3711 91.2295 91.6115C91.2795 95.7093 92.3595 99.5566 94.1895 102.161L92.7295 103.193C90.6895 100.298 89.4895 96.09 89.4395 91.6316C89.4295 91.1406 89.4395 90.6497 89.4595 90.1487C89.4995 89.1569 90.0895 89.1268 93.8695 88.9064C93.8995 88.9064 93.9195 88.9064 93.9495 88.9064C93.8895 88.8864 93.8395 88.8763 93.7895 88.8563C91.0395 88.0548 89.6595 87.654 89.8795 86.4618C91.2895 78.9375 95.6595 73.8278 100.589 74.0583C103.449 74.1785 106.039 76.0821 107.859 79.4084C109.599 82.5844 110.459 86.7323 110.269 91.0805C109.929 98.7751 106.379 105.247 101.629 106.82Z" fill="black"/>
<path d="M99.2694 104.496L98.1094 103.133C101.029 100.638 102.979 95.7389 103.219 90.3587C103.499 83.8864 101.209 77.9552 97.6494 75.9214L98.5294 74.3584C102.719 76.7429 105.319 83.2052 105.009 90.4289C104.739 96.3 102.549 101.69 99.2694 104.496Z" fill="black"/>
<path d="M106.529 71.3732C106.279 71.3732 106.019 71.263 105.849 71.0526C104.609 69.5898 103.149 68.7783 101.649 68.7081C99.9892 68.648 98.3692 69.4395 96.9092 71.0325C96.5792 71.3932 96.0092 71.4233 95.6492 71.0926C95.2892 70.762 95.2592 70.1909 95.5892 69.8302C97.4192 67.8365 99.5192 66.8246 101.729 66.9248C103.749 67.0149 105.649 68.0369 107.219 69.9004C107.539 70.2811 107.489 70.8422 107.119 71.1628C106.939 71.303 106.739 71.3732 106.529 71.3732Z" fill="black"/>
<path d="M131.699 73.036C131.449 73.036 131.189 72.9258 131.019 72.7154C129.779 71.2527 128.319 70.4411 126.819 70.371C125.159 70.3109 123.539 71.1024 122.079 72.6954C121.749 73.0561 121.179 73.0861 120.819 72.7555C120.459 72.4249 120.429 71.8538 120.759 71.4931C122.589 69.4993 124.699 68.4975 126.899 68.5876C128.919 68.6778 130.819 69.6997 132.389 71.5633C132.709 71.944 132.659 72.505 132.289 72.8256C132.109 72.9659 131.899 73.036 131.699 73.036Z" fill="black"/>
<path d="M120.909 106.73C117.539 104.085 115.479 98.5444 115.529 92.2925C115.529 91.9619 115.539 91.6413 115.559 91.3107C115.609 90.2587 116.589 90.1785 119.849 89.908C119.929 89.898 120.009 89.898 120.099 89.888C119.999 89.8579 119.899 89.8279 119.799 89.7978C117.039 88.9963 115.779 88.6256 115.999 87.4834C117.399 80.0393 121.659 74.9597 126.419 75.1901C132.099 75.4406 136.229 82.9148 135.829 92.1924C135.589 97.6126 133.759 102.622 130.939 105.578L129.649 104.335C132.179 101.68 133.829 97.1117 134.049 92.1022C134.409 83.9568 130.949 77.1739 126.349 76.9635C122.689 76.8132 119.169 81.1113 117.869 87.283C118.429 87.5135 119.529 87.8341 120.309 88.0645C123.079 88.876 124.349 89.2368 124.229 90.3489C124.129 91.3407 123.169 91.4209 119.999 91.6814C119.149 91.7515 117.969 91.8517 117.329 91.9519C117.329 92.0621 117.329 92.1823 117.319 92.2925C117.269 97.9232 119.109 103.033 122.009 105.307L120.909 106.73Z" fill="black"/>
<path d="M125.798 105.368L124.508 104.125C127.038 101.47 128.678 96.9017 128.908 91.8922C129.198 85.2797 126.918 79.3084 123.368 77.3747L124.228 75.8018C128.428 78.0861 131.028 84.5884 130.708 91.9724C130.458 97.3927 128.628 102.402 125.798 105.368Z" fill="black"/>
<path d="M94.6193 127.289C94.1693 127.289 93.7793 126.948 93.7293 126.487C93.6693 125.996 94.0293 125.555 94.5193 125.495C99.9493 124.884 104.069 120.456 104.319 114.975C104.589 108.874 99.8493 103.694 93.7593 103.423C91.0893 103.313 88.4693 104.155 86.3893 105.828C85.9993 106.139 85.4393 106.068 85.1293 105.688C84.8193 105.297 84.8893 104.736 85.2693 104.425C87.6893 102.492 90.7493 101.5 93.8393 101.64C100.919 101.951 106.419 107.972 106.109 115.065C105.829 121.438 101.039 126.577 94.7193 127.289C94.6893 127.279 94.6593 127.289 94.6193 127.289Z" fill="black"/>
<path d="M127.85 128.662C127.39 128.662 126.99 128.301 126.96 127.83C126.92 127.339 127.29 126.909 127.78 126.869C133.15 126.458 137.38 122.069 137.62 116.669C137.74 113.814 136.75 111.079 134.83 108.975C132.9 106.871 130.27 105.638 127.42 105.508C124.68 105.388 122.03 106.31 119.95 108.113C119.58 108.444 119.01 108.404 118.69 108.023C118.37 107.652 118.41 107.081 118.78 106.76C121.2 104.656 124.29 103.584 127.5 103.715C130.83 103.865 133.9 105.298 136.15 107.762C138.4 110.227 139.56 113.413 139.41 116.749C139.13 123.051 134.19 128.171 127.92 128.662C127.9 128.662 127.88 128.662 127.85 128.662Z" fill="black"/>
<path d="M114.189 113.153C114.029 113.153 113.879 113.153 113.719 113.143C112.019 113.072 110.419 112.592 109.219 111.81C107.879 110.928 107.169 109.756 107.229 108.504C107.279 107.251 108.089 106.149 109.499 105.388C110.759 104.707 112.389 104.376 114.099 104.456C115.809 104.536 117.399 105.007 118.599 105.789C119.939 106.67 120.649 107.843 120.589 109.095C120.539 110.347 119.729 111.449 118.319 112.211C117.179 112.822 115.729 113.153 114.189 113.153ZM113.639 106.229C112.409 106.229 111.229 106.49 110.349 106.961C109.529 107.402 109.039 107.993 109.019 108.574C108.989 109.155 109.429 109.786 110.209 110.297C111.129 110.898 112.439 111.279 113.809 111.339C115.179 111.399 116.519 111.139 117.489 110.618C118.309 110.177 118.799 109.586 118.819 109.005C118.849 108.424 118.409 107.792 117.629 107.281C116.709 106.68 115.399 106.3 114.029 106.239C113.889 106.239 113.769 106.229 113.639 106.229Z" fill="black"/>
<path d="M114.8 116.869C109.21 116.869 105.11 114.695 104.84 114.555C104.41 114.314 104.24 113.773 104.48 113.342C104.71 112.912 105.25 112.741 105.69 112.982C105.78 113.032 115.22 117.981 124.62 112.34C125.04 112.09 125.59 112.22 125.85 112.651C126.1 113.072 125.97 113.623 125.54 113.883C121.77 116.148 118.04 116.869 114.8 116.869Z" fill="black"/>
<path d="M111.489 148.89C111.289 148.89 111.089 148.89 110.889 148.88C107.309 148.719 104.419 147.267 103.699 145.253C103.529 144.782 103.769 144.271 104.239 144.101C104.699 143.93 105.219 144.171 105.389 144.642C105.789 145.734 107.979 146.956 110.979 147.086C113.999 147.226 116.289 146.195 116.769 145.123C116.969 144.672 117.499 144.461 117.949 144.662C118.399 144.862 118.609 145.393 118.409 145.844C117.569 147.677 114.779 148.89 111.489 148.89Z" fill="black"/>
<path d="M111.638 142.167C111.488 142.167 111.338 142.167 111.188 142.157C105.548 141.907 101.168 137.108 101.408 131.467L101.828 121.779C101.848 121.288 102.278 120.897 102.758 120.927C103.248 120.947 103.638 121.368 103.608 121.859L103.188 131.547C102.988 136.206 106.598 140.164 111.258 140.374C113.508 140.464 115.668 139.683 117.328 138.16C118.988 136.637 119.958 134.553 120.058 132.289L120.828 114.645C120.848 114.154 121.278 113.764 121.758 113.794C122.248 113.814 122.638 114.234 122.608 114.725L121.838 132.369C121.618 137.859 117.078 142.167 111.638 142.167Z" fill="black"/>
<path d="M117.159 120.266C117.149 120.266 117.129 120.266 117.119 120.266L109.529 119.936C109.039 119.916 108.649 119.495 108.679 119.004L108.839 115.367C108.859 114.876 109.289 114.485 109.769 114.515C110.259 114.535 110.649 114.956 110.619 115.447L110.499 118.182L116.299 118.443L116.379 116.549C116.399 116.058 116.829 115.657 117.309 115.698C117.799 115.718 118.189 116.138 118.159 116.629L118.039 119.415C118.029 119.895 117.639 120.266 117.159 120.266Z" fill="black"/>
<path d="M113.728 141.927C113.688 141.927 113.648 141.927 113.598 141.917C113.108 141.847 112.768 141.396 112.838 140.905C114.118 131.878 110.808 129.373 110.778 129.343C107.408 127.079 102.768 128.421 102.728 128.441C102.248 128.581 101.758 128.311 101.618 127.84C101.478 127.369 101.738 126.868 102.218 126.728C102.438 126.658 107.698 125.115 111.798 127.87C111.978 127.99 116.068 130.886 114.618 141.155C114.548 141.606 114.168 141.927 113.728 141.927Z" fill="black"/>
<path d="M82.8387 149.932C87.9197 149.932 92.0387 145.805 92.0387 140.715C92.0387 135.624 87.9197 131.497 82.8387 131.497C77.7576 131.497 73.6387 135.624 73.6387 140.715C73.6387 145.805 77.7576 149.932 82.8387 149.932Z" fill="#F499AD"/>
<path d="M82.8484 150.834C79.9184 150.834 76.9984 149.562 75.0084 147.107C71.4984 142.779 72.1484 136.397 76.4684 132.88C80.7884 129.363 87.1584 130.014 90.6684 134.343C92.3684 136.437 93.1584 139.072 92.8784 141.757C92.6084 144.442 91.2984 146.866 89.2084 148.57C87.3384 150.093 85.0884 150.834 82.8484 150.834ZM82.8284 132.399C80.9884 132.399 79.1284 133.01 77.5884 134.263C74.0384 137.158 73.4984 142.408 76.3884 145.965C79.2784 149.521 84.5184 150.062 88.0784 147.167C91.6284 144.271 92.1684 139.022 89.2784 135.465C87.6384 133.451 85.2384 132.399 82.8284 132.399Z" fill="#1D1D1B"/>
<path d="M88.6484 147.868C88.5284 147.968 88.2384 148.249 88.2684 148.108C89.8184 142.408 83.2584 134.683 76.6484 133.972C76.4684 133.952 76.8784 133.691 77.0284 133.571C80.9684 130.355 86.7684 130.956 89.9684 134.903C93.1784 138.851 92.5884 144.652 88.6484 147.868Z" fill="#F68B38"/>
<path d="M88.2679 149.051C88.1179 149.051 87.9579 149.01 87.7979 148.91L87.2379 148.56L87.4079 147.878C87.9579 145.854 87.3279 143.3 85.6779 140.875C83.438 137.589 79.8579 135.224 76.5479 134.874L75.9379 134.804L75.728 134.192C75.548 133.551 76.058 133.17 76.358 132.95L76.448 132.88C80.768 129.363 87.138 130.014 90.648 134.343C94.158 138.671 93.5079 145.053 89.1879 148.57L89.118 148.63C88.968 148.78 88.6579 149.051 88.2679 149.051ZM78.728 133.491C81.918 134.443 85.078 136.797 87.168 139.863C88.528 141.867 89.288 143.921 89.388 145.844C91.718 142.859 91.768 138.531 89.278 135.475C86.678 132.269 82.188 131.507 78.728 133.491Z" fill="black"/>
<path d="M63.9991 92.8937C67.5448 92.8937 70.4191 90.0139 70.4191 86.4615C70.4191 82.9091 67.5448 80.0293 63.9991 80.0293C60.4534 80.0293 57.5791 82.9091 57.5791 86.4615C57.5791 90.0139 60.4534 92.8937 63.9991 92.8937Z" fill="#F499AD"/>
<path d="M63.9902 93.7956C62.5102 93.7956 61.0602 93.3448 59.8102 92.4732C58.2102 91.351 57.1402 89.6678 56.7902 87.7442C56.4502 85.8206 56.8802 83.8668 58.0002 82.2638C60.3102 78.9475 64.8802 78.136 68.1902 80.4504C71.5002 82.7648 72.3102 87.3434 70.0002 90.6597C68.8802 92.2628 67.2002 93.3348 65.2802 93.6854C64.8502 93.7556 64.4202 93.7956 63.9902 93.7956ZM64.0102 80.9213C62.2602 80.9213 60.5402 81.7428 59.4702 83.2857C58.6202 84.498 58.3002 85.9708 58.5602 87.4236C58.8202 88.8763 59.6302 90.1488 60.8402 91.0004C62.0502 91.852 63.5202 92.1726 64.9702 91.9121C66.4202 91.6516 67.6902 90.8401 68.5402 89.6278C69.3902 88.4155 69.7102 86.9427 69.4502 85.4899C69.1902 84.0372 68.3802 82.7648 67.1702 81.9131C66.2002 81.2519 65.1002 80.9213 64.0102 80.9213Z" fill="#1D1D1B"/>
<path d="M60.3208 91.7413C60.2308 91.6812 59.9808 91.541 60.0808 91.5309C64.2008 91.4809 68.1208 85.5897 67.3308 81.001C67.3108 80.8707 67.5608 81.1012 67.6708 81.1813C70.5808 83.2152 71.2908 87.2328 69.2608 90.1483C67.2408 93.0638 63.2308 93.7752 60.3208 91.7413Z" fill="#F68B38"/>
<path d="M63.9903 93.7951C62.5103 93.7951 61.0604 93.3442 59.8104 92.4726L60.0903 92.0618V92.0217L59.7703 92.4425C59.5803 92.3223 59.0104 91.9516 59.2004 91.2903L59.3803 90.6491L60.0703 90.6391C61.4503 90.6191 62.9703 89.7474 64.2303 88.2346C65.9603 86.1606 66.8303 83.3854 66.4403 81.1612L66.3403 80.56L66.8703 80.2093C67.4303 79.8687 67.9203 80.2494 68.1303 80.4198C71.4903 82.7742 72.3003 87.3529 69.9903 90.6692C68.8703 92.2722 67.1903 93.3443 65.2703 93.6949C64.8503 93.755 64.4203 93.7951 63.9903 93.7951ZM62.6003 91.8213C63.3703 92.0217 64.1704 92.0618 64.9704 91.9115C66.4204 91.651 67.6903 90.8395 68.5403 89.6272C69.9803 87.5633 69.8103 84.8381 68.3003 82.9646C68.1203 85.1687 67.1603 87.5132 65.6203 89.3667C64.7003 90.4788 63.6703 91.3104 62.6003 91.8213Z" fill="black"/>
<path d="M91.7486 109.746C92.3838 109.746 92.8986 109.23 92.8986 108.594C92.8986 107.957 92.3838 107.441 91.7486 107.441C91.1135 107.441 90.5986 107.957 90.5986 108.594C90.5986 109.23 91.1135 109.746 91.7486 109.746Z" fill="black"/>
<path d="M98.4391 110.998C99.0742 110.998 99.5891 110.482 99.5891 109.846C99.5891 109.209 99.0742 108.693 98.4391 108.693C97.8039 108.693 97.2891 109.209 97.2891 109.846C97.2891 110.482 97.8039 110.998 98.4391 110.998Z" fill="black"/>
<path d="M94.3482 115.356C94.9834 115.356 95.4982 114.84 95.4982 114.204C95.4982 113.568 94.9834 113.052 94.3482 113.052C93.7131 113.052 93.1982 113.568 93.1982 114.204C93.1982 114.84 93.7131 115.356 94.3482 115.356Z" fill="black"/>
<path d="M126.018 111.298C126.653 111.298 127.168 110.783 127.168 110.146C127.168 109.51 126.653 108.994 126.018 108.994C125.383 108.994 124.868 109.51 124.868 110.146C124.868 110.783 125.383 111.298 126.018 111.298Z" fill="black"/>
<path d="M132.778 112.12C133.413 112.12 133.928 111.604 133.928 110.968C133.928 110.331 133.413 109.815 132.778 109.815C132.143 109.815 131.628 110.331 131.628 110.968C131.628 111.604 132.143 112.12 132.778 112.12Z" fill="black"/>
<path d="M128.978 116.739C129.613 116.739 130.128 116.223 130.128 115.587C130.128 114.95 129.613 114.435 128.978 114.435C128.343 114.435 127.828 114.95 127.828 115.587C127.828 116.223 128.343 116.739 128.978 116.739Z" fill="black"/>
<path d="M61.9184 69.4802C64.3208 69.4802 66.2684 67.5289 66.2684 65.1219C66.2684 62.7149 64.3208 60.7637 61.9184 60.7637C59.5159 60.7637 57.5684 62.7149 57.5684 65.1219C57.5684 67.5289 59.5159 69.4802 61.9184 69.4802Z" fill="#F68B38"/>
<path d="M61.9187 70.372C59.0287 70.372 56.6787 68.0175 56.6787 65.122C56.6787 62.2265 59.0287 59.8721 61.9187 59.8721C64.8087 59.8721 67.1587 62.2265 67.1587 65.122C67.1587 68.0175 64.8087 70.372 61.9187 70.372ZM61.9187 61.6655C60.0187 61.6655 58.4687 63.2184 58.4687 65.122C58.4687 67.0256 60.0187 68.5786 61.9187 68.5786C63.8187 68.5786 65.3687 67.0256 65.3687 65.122C65.3687 63.2184 63.8187 61.6655 61.9187 61.6655Z" fill="black"/>
<path d="M168.028 60.3427H164.408V47.2379C164.408 47.1578 164.488 47.0977 164.598 47.0977H167.838C167.938 47.0977 168.028 47.1578 168.028 47.2379V60.3427Z" fill="#FBB33B"/>
<path d="M168.917 61.2445H163.507V47.238C163.507 46.6569 163.987 46.2061 164.597 46.2061H167.837C168.437 46.2061 168.917 46.6669 168.917 47.238V61.2445ZM165.297 59.4511H167.127V47.9994H165.297V59.4511Z" fill="#1D1D1B"/>
<path d="M171.647 62.2662H168.027V43.9716C168.027 43.8714 168.107 43.7812 168.217 43.7812H171.457C171.557 43.7812 171.647 43.8714 171.647 43.9716V62.2662Z" fill="#FBB33B"/>
<path d="M172.547 63.1683H167.137V43.972C167.137 43.3708 167.627 42.8799 168.217 42.8799H171.457C172.057 42.8799 172.537 43.3708 172.537 43.972V63.1683H172.547ZM168.917 61.3749H170.747V44.6733H168.917V61.3749Z" fill="#1D1D1B"/>
<path d="M175.617 41.8271H172.357C172.257 41.8271 172.177 41.9073 172.177 42.0075V65.8927H175.797V42.0075C175.797 41.9073 175.717 41.8271 175.617 41.8271Z" fill="#FBB33B"/>
<path d="M176.697 66.7848H171.287V41.9978C171.287 41.4067 171.767 40.9258 172.367 40.9258H175.627C176.217 40.9258 176.707 41.4067 176.707 41.9978V66.7848H176.697ZM173.067 64.9914H174.897V42.7192H173.067V64.9914Z" fill="#1D1D1B"/>
<path d="M179.416 68.5585H175.796V43.9518C175.796 43.8516 175.876 43.7715 175.986 43.7715H179.226C179.326 43.7715 179.416 43.8516 179.416 43.9518V68.5585Z" fill="#FBB33B"/>
<path d="M180.317 69.4502H174.907V43.9519C174.907 43.3608 175.397 42.8799 175.987 42.8799H179.227C179.827 42.8799 180.307 43.3608 180.307 43.9519V69.4502H180.317ZM176.697 67.6568H178.527V44.6733H176.697V67.6568Z" fill="#1D1D1B"/>
<path d="M183.047 63.8592H179.427V47.2777C179.427 47.1876 179.517 47.1074 179.617 47.1074H182.857C182.957 47.1074 183.047 47.1876 183.047 47.2777V63.8592Z" fill="#FBB33B"/>
<path d="M183.937 64.7512H178.527V47.2781C178.527 46.687 179.017 46.2061 179.607 46.2061H182.847C183.447 46.2061 183.927 46.687 183.927 47.2781V64.7512H183.937ZM180.317 62.9578H182.147V47.9994H180.317V62.9578Z" fill="#1D1D1B"/>
<path d="M185.467 55.3132L181.857 69.2996L181.547 70.5019C181.417 71.0229 180.957 71.3836 180.427 71.3836H167.217C166.687 71.3836 166.227 71.0229 166.097 70.5019L162.187 55.3132C161.997 54.5617 162.547 53.8203 163.307 53.8203H168.547C168.637 53.8203 168.707 53.9005 168.707 53.9906C168.707 56.8761 170.997 59.2105 173.817 59.2105C176.637 59.2105 178.927 56.8761 178.927 53.9906C178.927 53.9005 178.997 53.8203 179.087 53.8203H184.327C185.107 53.8303 185.657 54.5617 185.467 55.3132Z" fill="#F499AD"/>
<path d="M180.427 72.2856H167.217C166.277 72.2856 165.467 71.6444 165.227 70.7327L161.317 55.5439C161.157 54.9127 161.287 54.2515 161.687 53.7305C162.077 53.2195 162.667 52.929 163.307 52.929H168.547C169.127 52.929 169.607 53.4099 169.607 53.991C169.607 56.3755 171.497 58.3192 173.827 58.3192C176.147 58.3192 178.047 56.3755 178.047 53.991C178.047 53.3999 178.527 52.9189 179.107 52.9189H184.347C184.987 52.9189 185.577 53.2095 185.967 53.7205C186.367 54.2314 186.497 54.8927 186.337 55.5339L182.427 70.7227C182.177 71.6444 181.367 72.2856 180.427 72.2856ZM163.307 54.7223C163.207 54.7223 163.137 54.7825 163.107 54.8225C163.077 54.8626 163.017 54.9628 163.057 55.083L166.967 70.2718C166.997 70.3921 167.107 70.4822 167.227 70.4822H180.437C180.557 70.4822 180.657 70.3921 180.687 70.2718L184.597 55.083C184.627 54.9528 184.577 54.8626 184.547 54.8225C184.507 54.7725 184.447 54.7223 184.347 54.7223H179.797C179.447 57.7581 176.907 60.1226 173.837 60.1226C170.767 60.1226 168.227 57.7581 167.877 54.7223H163.307Z" fill="#1D1D1B"/>
<path d="M113.418 120.106C112.928 120.106 112.518 119.705 112.518 119.204V116.74C112.518 116.249 112.918 115.838 113.418 115.838C113.908 115.838 114.318 116.239 114.318 116.74V119.204C114.318 119.705 113.918 120.106 113.418 120.106Z" fill="black"/>
<path d="M345.386 96H248.614C233.364 96 221 83.6484 221 68.4133V62.5867C221 47.3516 233.364 35 248.614 35H345.386C360.636 35 373 47.3516 373 62.5867V68.4133C373 83.6583 360.636 96 345.386 96Z" fill="#F68B38" stroke="black" stroke-miterlimit="10"/>
<path d="M350.386 91H253.614C238.364 91 226 78.6484 226 63.4133V57.5867C226 42.3516 238.364 30 253.614 30H350.386C365.636 30 378 42.3516 378 57.5867V63.4133C378 78.6484 365.636 91 350.386 91Z" fill="#F499AD" stroke="black" stroke-miterlimit="10"/>
<path d="M240.33 56.0548C240.708 55.4808 240.918 54.7808 242.374 54.7808H242.794V62.7188C242.78 62.9708 242.64 63.2088 242.402 63.3208C242.304 63.3768 242.206 63.4328 242.122 63.4888C241.898 63.6568 242.024 64.0908 242.304 64.0908H246.63C246.924 64.0908 247.064 63.6568 246.826 63.4888C246.742 63.4328 246.658 63.3768 246.574 63.3348C246.364 63.1948 246.224 62.9568 246.224 62.7188V54.7808H246.63C248.086 54.7808 248.31 55.4808 248.674 56.0548C248.828 56.2788 249.038 56.3908 249.234 56.3908C249.5 56.3908 249.71 56.1948 249.64 55.8028C249.57 55.3128 249.43 54.7388 249.346 54.3608C249.276 54.1088 249.066 53.9548 248.814 53.9548H240.19C239.938 53.9548 239.728 54.1088 239.672 54.3608C239.574 54.7388 239.434 55.3128 239.364 55.8028C239.294 56.1948 239.504 56.3908 239.77 56.3908C239.966 56.3908 240.176 56.2788 240.33 56.0548ZM249.193 62.5788C249.305 63.6288 250.271 64.2868 251.545 64.2868C252.553 64.2868 253.533 63.8528 253.967 63.0268C254.121 63.8528 254.975 64.2588 256.011 64.2728C258.139 64.3008 258.349 63.2228 258.013 63.1388C257.831 63.0968 257.677 63.3488 257.453 63.3208C257.215 63.2928 257.131 63.0408 257.131 62.6068C257.131 62.0468 257.131 61.1088 257.145 60.1428C257.145 58.1268 255.451 57.3568 253.295 57.3568C251.307 57.3428 249.991 57.9308 249.935 58.7848C249.893 59.3168 250.495 59.5828 251.083 59.5828C251.573 59.5828 252.063 59.3868 252.161 59.0228C252.315 58.4768 252.413 58.0428 253.127 58.0568C253.743 58.0708 253.953 58.5748 253.953 59.6388V60.1148C253.701 60.0308 253.267 59.9748 252.763 59.9748C251.223 59.9748 248.997 60.5208 249.193 62.5788ZM252.287 61.7668C252.371 60.8988 252.875 60.7028 253.309 60.7028C253.589 60.7028 253.855 60.7868 253.953 60.8288L253.939 61.5988C253.925 62.3268 253.799 62.9428 253.155 62.9568C252.539 62.9848 252.231 62.4528 252.287 61.7668ZM258.436 54.8788C258.814 54.9068 259.36 54.6828 259.36 55.1308V62.7188C259.36 62.9708 259.22 63.2088 258.982 63.3208C258.884 63.3768 258.786 63.4328 258.702 63.4888C258.464 63.6568 258.604 64.0908 258.884 64.0908H262.888C263.182 64.0908 263.322 63.6568 263.07 63.4888C262.986 63.4328 262.916 63.3768 262.832 63.3348C262.622 63.1948 262.468 62.9568 262.468 62.7188V60.7728C263.028 60.7168 263.462 60.8568 263.826 61.9348C264.064 62.6208 264.232 63.0688 264.344 63.4188C264.498 63.8248 264.848 64.0908 265.268 64.0908H268.012C268.306 64.0908 268.432 63.6568 268.194 63.4888C268.11 63.4328 267.998 63.4188 267.872 63.4048C267.648 63.3908 267.424 63.1948 267.34 62.9288L266.962 61.8368C266.486 60.4228 265.758 59.8768 264.498 59.8768C264.288 59.8768 264.064 59.8908 263.812 59.9188C264.54 59.4008 264.904 58.7288 265.492 58.7288C266.122 58.7428 266.052 59.5828 267.116 59.6808C267.676 59.7368 268.152 59.2888 268.166 58.6588C268.208 57.6788 267.242 57.1468 266.332 57.1888C264.26 57.2588 264.26 59.0228 262.468 59.6948V55.0608C262.468 53.8008 262.034 53.6468 260.914 53.6468C260.018 53.6468 258.954 53.8708 258.338 54.2208C258.044 54.3888 258.128 54.8648 258.436 54.8788ZM268.59 60.8148C268.646 63.0688 270.116 64.2868 272.44 64.2868C274.442 64.2868 275.828 63.5868 276.192 61.8648C276.248 61.5428 276.164 61.3608 275.884 61.3188C275.618 61.2908 275.45 61.4308 275.38 61.7388C275.184 62.6208 274.512 63.0968 273.63 63.0968C272.818 63.0828 272.188 62.6768 271.796 61.6548C271.978 61.6828 272.202 61.6968 272.44 61.6968C273.98 61.6968 276.304 61.0108 276.038 59.4148C275.842 58.2808 274.596 57.3428 272.636 57.3428C270.312 57.3428 268.534 58.5468 268.59 60.8148ZM272.244 58.1548C273.042 57.9868 273.728 59.1488 273.42 60.1988C273.224 60.9128 272.23 61.0108 271.6 60.9548C271.278 59.4988 271.614 58.2808 272.244 58.1548ZM281.898 54.5708C281.968 54.6268 282.066 54.6828 282.178 54.7388C282.402 54.8508 282.556 55.0888 282.556 55.3408V62.7188C282.556 62.9708 282.402 63.2088 282.178 63.3208C282.066 63.3768 281.968 63.4328 281.898 63.4888C281.66 63.6568 281.786 64.0908 282.066 64.0908H286.406C286.7 64.0908 286.826 63.6568 286.588 63.4888C286.504 63.4328 286.42 63.3768 286.35 63.3348C286.126 63.1948 285.986 62.9568 285.986 62.7188V59.5268H286.994C288.814 59.5268 288.198 60.6468 288.828 60.7028C289.556 60.7728 289.64 57.4408 288.898 57.4688C288.226 57.4968 288.814 58.7008 286.994 58.7008H285.986V55.4808V55.2288C285.986 54.9768 286.154 54.8088 286.406 54.8088H287.932C289.388 54.8088 289.598 55.5088 289.976 56.0828C290.13 56.3068 290.34 56.4188 290.522 56.4188C290.788 56.4188 290.998 56.2228 290.942 55.8308C290.858 55.3268 290.732 54.7668 290.634 54.3888C290.578 54.1368 290.354 53.9688 290.102 53.9688H282.066C281.786 53.9688 281.66 54.4028 281.898 54.5708ZM291.686 54.8648C291.868 54.8648 292.106 54.8228 292.288 54.8228C292.484 54.8228 292.624 54.8788 292.624 55.1028V62.7188C292.624 62.9708 292.47 63.2088 292.246 63.3208C292.134 63.3768 292.036 63.4328 291.966 63.4888C291.728 63.6568 291.854 64.0908 292.134 64.0908H296.194C296.474 64.0908 296.614 63.6568 296.376 63.4888C296.292 63.4328 296.208 63.3768 296.138 63.3348C295.914 63.1948 295.774 62.9568 295.774 62.7188V55.0328C295.774 53.7868 295.312 53.6188 294.206 53.6188C293.296 53.6188 292.204 53.8428 291.588 54.2068C291.308 54.3608 291.378 54.8368 291.686 54.8648ZM297.031 62.5788C297.143 63.6288 298.109 64.2868 299.383 64.2868C300.391 64.2868 301.371 63.8528 301.805 63.0268C301.959 63.8528 302.813 64.2588 303.849 64.2728C305.977 64.3008 306.187 63.2228 305.851 63.1388C305.669 63.0968 305.515 63.3488 305.291 63.3208C305.053 63.2928 304.969 63.0408 304.969 62.6068C304.969 62.0468 304.969 61.1088 304.983 60.1428C304.983 58.1268 303.289 57.3568 301.133 57.3568C299.145 57.3428 297.829 57.9308 297.773 58.7848C297.731 59.3168 298.333 59.5828 298.921 59.5828C299.411 59.5828 299.901 59.3868 299.999 59.0228C300.153 58.4768 300.251 58.0428 300.965 58.0568C301.581 58.0708 301.791 58.5748 301.791 59.6388V60.1148C301.539 60.0308 301.105 59.9748 300.601 59.9748C299.061 59.9748 296.835 60.5208 297.031 62.5788ZM300.125 61.7668C300.209 60.8988 300.713 60.7028 301.147 60.7028C301.427 60.7028 301.693 60.7868 301.791 60.8288L301.777 61.5988C301.763 62.3268 301.637 62.9428 300.993 62.9568C300.377 62.9848 300.069 62.4528 300.125 61.7668ZM306.463 62.8308C306.981 64.0488 309.207 64.3148 310.089 64.3148C312.581 64.3148 313.869 63.4328 313.785 61.8788C313.673 59.5268 309.081 59.8208 309.151 58.5468C309.165 58.1828 309.585 57.9868 310.103 58.0288C311.447 58.1408 311.349 59.4148 312.455 59.5688C312.987 59.6388 313.435 59.2888 313.337 58.7568C313.211 57.9588 312.049 57.3988 310.075 57.3148C307.891 57.2168 306.491 58.0848 306.505 59.3448C306.519 61.5848 311.069 61.9908 311.069 63.0408C311.069 63.4468 310.747 63.6988 310.019 63.5868C308.185 63.3068 308.619 61.7248 307.387 61.5568C306.575 61.4448 306.155 62.1308 306.463 62.8308ZM314.586 54.8648C314.768 54.8648 314.992 54.8228 315.174 54.8228C315.37 54.8228 315.51 54.8788 315.51 55.1028V62.7188C315.51 62.9708 315.37 63.2088 315.132 63.3208C315.034 63.3768 314.936 63.4328 314.852 63.4888C314.614 63.6568 314.754 64.0908 315.034 64.0908H319.08C319.374 64.0908 319.514 63.6568 319.262 63.4888C319.178 63.4328 319.108 63.3768 319.024 63.3348C318.814 63.1948 318.66 62.9568 318.66 62.7188V60.4928C318.688 59.7508 319.192 58.8128 319.85 58.7988C320.508 58.7848 320.438 59.6808 320.438 60.4368L320.424 62.7048C320.452 63.4188 320.662 64.0908 321.698 64.0908H324.008C324.288 64.0908 324.428 63.6568 324.19 63.4888C324.106 63.4328 324.022 63.3768 323.952 63.3348C323.728 63.1948 323.588 62.9568 323.588 62.7188V62.5788H323.574V59.4988C323.574 57.9588 322.86 57.3148 321.082 57.3428C320.074 57.3708 319.178 57.9028 318.66 58.7008V55.0328C318.66 53.7728 318.226 53.6188 317.106 53.6188C316.196 53.6188 315.104 53.8428 314.488 54.2068C314.194 54.3608 314.278 54.8368 314.586 54.8648ZM329.804 54.5428C329.874 54.5988 329.972 54.6548 330.084 54.7108C330.308 54.8228 330.462 55.0608 330.462 55.3128V62.7188C330.462 62.9708 330.308 63.2088 330.084 63.3208C329.972 63.3768 329.874 63.4328 329.804 63.4888C329.566 63.6568 329.692 64.0908 329.972 64.0908H337.882C338.134 64.0908 338.344 63.9228 338.4 63.6848C338.498 63.3068 338.638 62.7328 338.708 62.2288C338.778 61.8508 338.568 61.6408 338.302 61.6408C338.106 61.6408 337.896 61.7528 337.742 61.9908C337.364 62.5648 337.154 63.2508 335.698 63.2508H334.312C334.06 63.2508 333.892 63.0828 333.892 62.8308V55.4528V55.3128C333.892 55.0748 334.032 54.8368 334.256 54.6968C334.326 54.6548 334.41 54.5988 334.494 54.5428C334.732 54.3748 334.606 53.9408 334.312 53.9408H329.972C329.692 53.9408 329.566 54.3748 329.804 54.5428ZM339.314 60.8148C339.314 63.0688 340.84 64.2868 343.164 64.2868C345.502 64.2868 347.028 63.1808 347.028 60.8148C347.028 58.4488 345.502 57.3428 343.164 57.3428C340.84 57.3428 339.314 58.5608 339.314 60.8148ZM342.716 58.1548C343.36 58.0428 343.556 58.6448 343.906 60.6888C344.242 62.7328 344.242 63.3768 343.612 63.4888C342.982 63.6008 342.772 62.9848 342.436 60.9408C342.086 58.8968 342.086 58.2668 342.716 58.1548ZM347.576 62.5788C347.688 63.6288 348.654 64.2868 349.928 64.2868C350.936 64.2868 351.916 63.8528 352.35 63.0268C352.504 63.8528 353.358 64.2588 354.394 64.2728C356.522 64.3008 356.732 63.2228 356.396 63.1388C356.214 63.0968 356.06 63.3488 355.836 63.3208C355.598 63.2928 355.514 63.0408 355.514 62.6068C355.514 62.0468 355.514 61.1088 355.528 60.1428C355.528 58.1268 353.834 57.3568 351.678 57.3568C349.69 57.3428 348.374 57.9308 348.318 58.7848C348.276 59.3168 348.878 59.5828 349.466 59.5828C349.956 59.5828 350.446 59.3868 350.544 59.0228C350.698 58.4768 350.796 58.0428 351.51 58.0568C352.126 58.0708 352.336 58.5748 352.336 59.6388V60.1148C352.084 60.0308 351.65 59.9748 351.146 59.9748C349.606 59.9748 347.38 60.5208 347.576 62.5788ZM350.67 61.7668C350.754 60.8988 351.258 60.7028 351.692 60.7028C351.972 60.7028 352.238 60.7868 352.336 60.8288L352.322 61.5988C352.308 62.3268 352.182 62.9428 351.538 62.9568C350.922 62.9848 350.614 62.4528 350.67 61.7668ZM357.092 58.6028C357.274 58.6028 357.498 58.5608 357.68 58.5608C357.876 58.5608 358.016 58.6168 358.016 58.8408V62.7188C358.016 62.9708 357.876 63.2088 357.638 63.3208C357.54 63.3768 357.442 63.4328 357.358 63.4888C357.12 63.6568 357.26 64.0908 357.54 64.0908H361.544C361.838 64.0908 361.978 63.6568 361.726 63.4888C361.642 63.4328 361.572 63.3768 361.488 63.3348C361.278 63.1948 361.124 62.9568 361.124 62.7188V60.3528C361.194 59.6388 361.684 58.8128 362.3 58.7988C362.972 58.7848 362.902 59.6808 362.902 60.4368L362.888 62.7048C362.902 63.4188 363.126 64.0908 364.148 64.0908H366.458C366.752 64.0908 366.878 63.6568 366.64 63.4888C366.556 63.4328 366.486 63.3768 366.402 63.3348C366.178 63.1948 366.038 62.9568 366.038 62.7188V62.5788V59.4988C366.038 57.9588 365.31 57.3148 363.532 57.3428C362.538 57.3708 361.642 57.9028 361.124 58.6868C361.124 57.4968 360.634 57.3568 359.598 57.3568C358.702 57.3568 357.624 57.5808 356.994 57.9448C356.7 58.0988 356.784 58.5748 357.092 58.6028Z" fill="black"/>
<path d="M303.906 46.0253C316.315 46.0253 326.376 35.946 326.376 23.5126C326.376 11.0792 316.315 1 303.906 1C291.496 1 281.436 11.0792 281.436 23.5126C281.436 35.946 291.496 46.0253 303.906 46.0253Z" fill="#FBB33B" stroke="black" stroke-miterlimit="10"/>
<path d="M293.342 25.3599C293.342 23.0485 293.757 21.4312 294.586 20.5078C295.421 19.5843 296.69 19.1226 298.393 19.1226C299.212 19.1226 299.884 19.2249 300.409 19.4295C300.934 19.6286 301.363 19.8912 301.694 20.2175C302.026 20.5382 302.286 20.8782 302.474 21.2376C302.668 21.5915 302.822 22.0062 302.939 22.4818C303.165 23.3886 303.279 24.3341 303.279 25.3184C303.279 27.5246 302.905 29.1392 302.159 30.1622C301.412 31.1851 300.127 31.6966 298.302 31.6966C297.279 31.6966 296.453 31.5335 295.822 31.2073C295.192 30.881 294.675 30.4027 294.271 29.7724C293.978 29.3245 293.749 28.7135 293.583 27.9393C293.422 27.1597 293.342 26.2999 293.342 25.3599ZM296.693 25.3681C296.693 26.9164 296.829 27.9753 297.099 28.5448C297.376 29.1088 297.774 29.3908 298.294 29.3908C298.637 29.3908 298.933 29.2719 299.181 29.0342C299.436 28.7909 299.621 28.4093 299.737 27.8896C299.859 27.3698 299.92 26.5597 299.92 25.4594C299.92 23.8448 299.781 22.761 299.505 22.2081C299.234 21.6496 298.825 21.3703 298.277 21.3703C297.719 21.3703 297.315 21.6551 297.066 22.2246C296.817 22.7887 296.693 23.8365 296.693 25.3681ZM312.328 19.1226V31.4893H308.91V23.3858C308.357 23.8061 307.821 24.1461 307.301 24.406C306.787 24.6659 306.14 24.9147 305.361 25.1525V22.3822C306.511 22.0118 307.404 21.5666 308.04 21.0469C308.675 20.5271 309.173 19.8857 309.532 19.1226H312.328Z" fill="black"/>
<path d="M456.214 64.9809L437.684 83.5461L431.834 77.685L440.374 69.1288H401.324V60.8431H440.374L431.834 52.2869L437.684 46.4258L456.214 64.9809Z" fill="#F68B38" stroke="black" stroke-miterlimit="10"/>
<path d="M345.386 228H248.614C233.364 228 221 215.648 221 200.413V194.587C221 179.352 233.364 167 248.614 167H345.386C360.636 167 373 179.352 373 194.587V200.413C373 215.648 360.636 228 345.386 228Z" fill="#F68B38" stroke="black" stroke-miterlimit="10"/>
<path d="M350.386 223H253.614C238.364 223 226 210.648 226 195.413V189.587C226 174.352 238.364 162 253.614 162H350.386C365.636 162 378 174.352 378 189.587V195.413C378 210.648 365.636 223 350.386 223Z" fill="#F499AD" stroke="black" stroke-miterlimit="10"/>
<path d="M231.49 190.932C231.602 193.984 233.506 196.182 237.076 196.182C240.03 196.182 241.836 194.894 242.13 192.416C242.186 191.954 242.102 191.52 241.682 191.492C241.206 191.464 241.094 191.926 241.038 192.318C240.786 193.942 239.68 194.922 238.266 194.922C236.068 194.922 235.242 193.13 235.004 191.17C234.696 188.58 234.976 186.718 236.46 186.536C237.482 186.41 238.434 186.788 238.308 188.51C238.21 189.84 239.176 190.456 240.38 190.358C241.836 190.246 242.06 188.846 241.738 188.006C241.206 186.564 239.54 185.668 236.992 185.668C233.422 185.668 231.392 187.74 231.49 190.932ZM242.821 186.774C243.003 186.774 243.241 186.732 243.423 186.732C243.619 186.732 243.759 186.788 243.759 187.012V194.628C243.759 194.88 243.605 195.118 243.381 195.23C243.269 195.286 243.171 195.342 243.101 195.398C242.863 195.566 242.989 196 243.269 196H247.329C247.609 196 247.749 195.566 247.511 195.398C247.427 195.342 247.343 195.286 247.273 195.244C247.049 195.104 246.909 194.866 246.909 194.628V186.942C246.909 185.696 246.447 185.528 245.341 185.528C244.431 185.528 243.339 185.752 242.723 186.116C242.443 186.27 242.513 186.746 242.821 186.774ZM248.025 192.724C248.025 194.978 249.551 196.196 251.875 196.196C254.213 196.196 255.739 195.09 255.739 192.724C255.739 190.358 254.213 189.252 251.875 189.252C249.551 189.252 248.025 190.47 248.025 192.724ZM251.427 190.064C252.071 189.952 252.267 190.554 252.617 192.598C252.953 194.642 252.953 195.286 252.323 195.398C251.693 195.51 251.483 194.894 251.147 192.85C250.797 190.806 250.797 190.176 251.427 190.064ZM256.723 194.74C257.241 195.958 259.467 196.224 260.349 196.224C262.841 196.224 264.129 195.342 264.045 193.788C263.933 191.436 259.341 191.73 259.411 190.456C259.425 190.092 259.845 189.896 260.363 189.938C261.707 190.05 261.609 191.324 262.715 191.478C263.247 191.548 263.695 191.198 263.597 190.666C263.471 189.868 262.309 189.308 260.335 189.224C258.151 189.126 256.751 189.994 256.765 191.254C256.779 193.494 261.329 193.9 261.329 194.95C261.329 195.356 261.007 195.608 260.279 195.496C258.445 195.216 258.879 193.634 257.647 193.466C256.835 193.354 256.415 194.04 256.723 194.74ZM264.801 192.724C264.857 194.978 266.327 196.196 268.651 196.196C270.653 196.196 272.039 195.496 272.403 193.774C272.459 193.452 272.375 193.27 272.095 193.228C271.829 193.2 271.661 193.34 271.591 193.648C271.395 194.53 270.723 195.006 269.841 195.006C269.029 194.992 268.399 194.586 268.007 193.564C268.189 193.592 268.413 193.606 268.651 193.606C270.191 193.606 272.515 192.92 272.249 191.324C272.053 190.19 270.807 189.252 268.847 189.252C266.523 189.252 264.745 190.456 264.801 192.724ZM268.455 190.064C269.253 189.896 269.939 191.058 269.631 192.108C269.435 192.822 268.441 192.92 267.811 192.864C267.489 191.408 267.825 190.19 268.455 190.064ZM278.109 186.48C278.179 186.536 278.277 186.592 278.389 186.648C278.613 186.76 278.767 186.998 278.767 187.25V194.628C278.767 194.88 278.613 195.118 278.389 195.23C278.277 195.286 278.179 195.342 278.109 195.398C277.871 195.566 277.997 196 278.277 196H282.617C282.911 196 283.037 195.566 282.799 195.398C282.715 195.342 282.631 195.286 282.561 195.244C282.337 195.104 282.197 194.866 282.197 194.628V191.436H283.205C285.025 191.436 284.409 192.556 285.039 192.612C285.767 192.682 285.851 189.35 285.109 189.378C284.437 189.406 285.025 190.61 283.205 190.61H282.197V187.39V187.138C282.197 186.886 282.365 186.718 282.617 186.718H284.143C285.599 186.718 285.809 187.418 286.187 187.992C286.341 188.216 286.551 188.328 286.733 188.328C286.999 188.328 287.209 188.132 287.153 187.74C287.069 187.236 286.943 186.676 286.845 186.298C286.789 186.046 286.565 185.878 286.313 185.878H278.277C277.997 185.878 277.871 186.312 278.109 186.48ZM287.897 186.774C288.079 186.774 288.317 186.732 288.499 186.732C288.695 186.732 288.835 186.788 288.835 187.012V194.628C288.835 194.88 288.681 195.118 288.457 195.23C288.345 195.286 288.247 195.342 288.177 195.398C287.939 195.566 288.065 196 288.345 196H292.405C292.685 196 292.825 195.566 292.587 195.398C292.503 195.342 292.419 195.286 292.349 195.244C292.125 195.104 291.985 194.866 291.985 194.628V186.942C291.985 185.696 291.523 185.528 290.417 185.528C289.507 185.528 288.415 185.752 287.799 186.116C287.519 186.27 287.589 186.746 287.897 186.774ZM293.242 194.488C293.354 195.538 294.32 196.196 295.594 196.196C296.602 196.196 297.582 195.762 298.016 194.936C298.17 195.762 299.024 196.168 300.06 196.182C302.188 196.21 302.398 195.132 302.062 195.048C301.88 195.006 301.726 195.258 301.502 195.23C301.264 195.202 301.18 194.95 301.18 194.516C301.18 193.956 301.18 193.018 301.194 192.052C301.194 190.036 299.5 189.266 297.344 189.266C295.356 189.252 294.04 189.84 293.984 190.694C293.942 191.226 294.544 191.492 295.132 191.492C295.622 191.492 296.112 191.296 296.21 190.932C296.364 190.386 296.462 189.952 297.176 189.966C297.792 189.98 298.002 190.484 298.002 191.548V192.024C297.75 191.94 297.316 191.884 296.812 191.884C295.272 191.884 293.046 192.43 293.242 194.488ZM296.336 193.676C296.42 192.808 296.924 192.612 297.358 192.612C297.638 192.612 297.904 192.696 298.002 192.738L297.988 193.508C297.974 194.236 297.848 194.852 297.204 194.866C296.588 194.894 296.28 194.362 296.336 193.676ZM302.674 194.74C303.192 195.958 305.418 196.224 306.3 196.224C308.792 196.224 310.08 195.342 309.996 193.788C309.884 191.436 305.292 191.73 305.362 190.456C305.376 190.092 305.796 189.896 306.314 189.938C307.658 190.05 307.56 191.324 308.666 191.478C309.198 191.548 309.646 191.198 309.548 190.666C309.422 189.868 308.26 189.308 306.286 189.224C304.102 189.126 302.702 189.994 302.716 191.254C302.73 193.494 307.28 193.9 307.28 194.95C307.28 195.356 306.958 195.608 306.23 195.496C304.396 195.216 304.83 193.634 303.598 193.466C302.786 193.354 302.366 194.04 302.674 194.74ZM310.797 186.774C310.979 186.774 311.203 186.732 311.385 186.732C311.581 186.732 311.721 186.788 311.721 187.012V194.628C311.721 194.88 311.581 195.118 311.343 195.23C311.245 195.286 311.147 195.342 311.063 195.398C310.825 195.566 310.965 196 311.245 196H315.291C315.585 196 315.725 195.566 315.473 195.398C315.389 195.342 315.319 195.286 315.235 195.244C315.025 195.104 314.871 194.866 314.871 194.628V192.402C314.899 191.66 315.403 190.722 316.061 190.708C316.719 190.694 316.649 191.59 316.649 192.346L316.635 194.614C316.663 195.328 316.873 196 317.909 196H320.219C320.499 196 320.639 195.566 320.401 195.398C320.317 195.342 320.233 195.286 320.163 195.244C319.939 195.104 319.799 194.866 319.799 194.628V194.488H319.785V191.408C319.785 189.868 319.071 189.224 317.293 189.252C316.285 189.28 315.389 189.812 314.871 190.61V186.942C314.871 185.682 314.437 185.528 313.317 185.528C312.407 185.528 311.315 185.752 310.699 186.116C310.405 186.27 310.489 186.746 310.797 186.774ZM326.015 186.452C326.085 186.508 326.183 186.564 326.295 186.62C326.519 186.732 326.673 186.97 326.673 187.222V194.628C326.673 194.88 326.519 195.118 326.295 195.23C326.183 195.286 326.085 195.342 326.015 195.398C325.777 195.566 325.903 196 326.183 196H334.093C334.345 196 334.555 195.832 334.611 195.594C334.709 195.216 334.849 194.642 334.919 194.138C334.989 193.76 334.779 193.55 334.513 193.55C334.317 193.55 334.107 193.662 333.953 193.9C333.575 194.474 333.365 195.16 331.909 195.16H330.523C330.271 195.16 330.103 194.992 330.103 194.74V187.362V187.222C330.103 186.984 330.243 186.746 330.467 186.606C330.537 186.564 330.621 186.508 330.705 186.452C330.943 186.284 330.817 185.85 330.523 185.85H326.183C325.903 185.85 325.777 186.284 326.015 186.452ZM335.525 192.724C335.525 194.978 337.051 196.196 339.375 196.196C341.713 196.196 343.239 195.09 343.239 192.724C343.239 190.358 341.713 189.252 339.375 189.252C337.051 189.252 335.525 190.47 335.525 192.724ZM338.927 190.064C339.571 189.952 339.767 190.554 340.117 192.598C340.453 194.642 340.453 195.286 339.823 195.398C339.193 195.51 338.983 194.894 338.647 192.85C338.297 190.806 338.297 190.176 338.927 190.064ZM343.787 194.488C343.899 195.538 344.865 196.196 346.139 196.196C347.147 196.196 348.127 195.762 348.561 194.936C348.715 195.762 349.569 196.168 350.605 196.182C352.733 196.21 352.943 195.132 352.607 195.048C352.425 195.006 352.271 195.258 352.047 195.23C351.809 195.202 351.725 194.95 351.725 194.516C351.725 193.956 351.725 193.018 351.739 192.052C351.739 190.036 350.045 189.266 347.889 189.266C345.901 189.252 344.585 189.84 344.529 190.694C344.487 191.226 345.089 191.492 345.677 191.492C346.167 191.492 346.657 191.296 346.755 190.932C346.909 190.386 347.007 189.952 347.721 189.966C348.337 189.98 348.547 190.484 348.547 191.548V192.024C348.295 191.94 347.861 191.884 347.357 191.884C345.817 191.884 343.591 192.43 343.787 194.488ZM346.881 193.676C346.965 192.808 347.469 192.612 347.903 192.612C348.183 192.612 348.449 192.696 348.547 192.738L348.533 193.508C348.519 194.236 348.393 194.852 347.749 194.866C347.133 194.894 346.825 194.362 346.881 193.676ZM353.303 190.512C353.485 190.512 353.709 190.47 353.891 190.47C354.087 190.47 354.227 190.526 354.227 190.75V194.628C354.227 194.88 354.087 195.118 353.849 195.23C353.751 195.286 353.653 195.342 353.569 195.398C353.331 195.566 353.471 196 353.751 196H357.755C358.049 196 358.189 195.566 357.937 195.398C357.853 195.342 357.783 195.286 357.699 195.244C357.489 195.104 357.335 194.866 357.335 194.628V192.262C357.405 191.548 357.895 190.722 358.511 190.708C359.183 190.694 359.113 191.59 359.113 192.346L359.099 194.614C359.113 195.328 359.337 196 360.359 196H362.669C362.963 196 363.089 195.566 362.851 195.398C362.767 195.342 362.697 195.286 362.613 195.244C362.389 195.104 362.249 194.866 362.249 194.628V194.488V191.408C362.249 189.868 361.521 189.224 359.743 189.252C358.749 189.28 357.853 189.812 357.335 190.596C357.335 189.406 356.845 189.266 355.809 189.266C354.913 189.266 353.835 189.49 353.205 189.854C352.911 190.008 352.995 190.484 353.303 190.512Z" fill="black"/>
<path d="M303.906 177.845C316.315 177.845 326.376 167.765 326.376 155.332C326.376 142.899 316.315 132.819 303.906 132.819C291.496 132.819 281.436 142.899 281.436 155.332C281.436 167.765 291.496 177.845 303.906 177.845Z" fill="#FBB33B" stroke="black" stroke-miterlimit="10"/>
<path d="M293.342 157.173C293.342 154.862 293.757 153.245 294.586 152.321C295.421 151.398 296.69 150.936 298.393 150.936C299.212 150.936 299.884 151.038 300.409 151.243C300.934 151.442 301.363 151.705 301.694 152.031C302.026 152.352 302.286 152.692 302.474 153.051C302.668 153.405 302.822 153.82 302.939 154.295C303.165 155.202 303.279 156.148 303.279 157.132C303.279 159.338 302.905 160.953 302.159 161.976C301.412 162.999 300.127 163.51 298.302 163.51C297.279 163.51 296.453 163.347 295.822 163.021C295.192 162.694 294.675 162.216 294.271 161.586C293.978 161.138 293.749 160.527 293.583 159.753C293.422 158.973 293.342 158.113 293.342 157.173ZM296.693 157.182C296.693 158.73 296.829 159.789 297.099 160.358C297.376 160.922 297.774 161.204 298.294 161.204C298.637 161.204 298.933 161.085 299.181 160.848C299.436 160.604 299.621 160.223 299.737 159.703C299.859 159.183 299.92 158.373 299.92 157.273C299.92 155.658 299.781 154.574 299.505 154.022C299.234 153.463 298.825 153.184 298.277 153.184C297.719 153.184 297.315 153.469 297.066 154.038C296.817 154.602 296.693 155.65 296.693 157.182ZM307.948 154.66L304.755 154.088C305.02 153.07 305.529 152.291 306.281 151.749C307.039 151.207 308.109 150.936 309.491 150.936C311.078 150.936 312.225 151.232 312.933 151.824C313.641 152.415 313.995 153.159 313.995 154.055C313.995 154.58 313.851 155.056 313.563 155.481C313.276 155.907 312.842 156.28 312.261 156.601C312.731 156.717 313.091 156.853 313.34 157.007C313.743 157.256 314.056 157.585 314.277 157.994C314.503 158.398 314.617 158.882 314.617 159.446C314.617 160.154 314.432 160.834 314.061 161.486C313.691 162.133 313.157 162.634 312.46 162.988C311.764 163.336 310.848 163.51 309.715 163.51C308.609 163.51 307.735 163.38 307.094 163.12C306.458 162.86 305.933 162.482 305.518 161.984C305.109 161.481 304.794 160.85 304.573 160.093L307.948 159.645C308.081 160.325 308.286 160.798 308.562 161.063C308.844 161.323 309.201 161.453 309.632 161.453C310.085 161.453 310.461 161.287 310.76 160.955C311.064 160.624 311.216 160.181 311.216 159.628C311.216 159.064 311.07 158.628 310.777 158.318C310.489 158.008 310.096 157.853 309.599 157.853C309.333 157.853 308.968 157.92 308.504 158.053L308.678 155.639C308.866 155.667 309.013 155.68 309.118 155.68C309.56 155.68 309.928 155.539 310.221 155.257C310.519 154.975 310.669 154.641 310.669 154.254C310.669 153.883 310.558 153.587 310.337 153.366C310.116 153.145 309.812 153.035 309.425 153.035C309.027 153.035 308.703 153.156 308.454 153.399C308.205 153.637 308.037 154.057 307.948 154.66Z" fill="black"/>
<path d="M401.324 197.913L419.854 216.478L425.704 210.617L417.164 202.06H456.214V193.775H417.164L425.704 185.219L419.854 179.357L401.324 197.913Z" fill="#F68B38" stroke="black" stroke-miterlimit="10"/>
<path d="M568.272 217.24C616.646 217.24 655.861 177.95 655.861 129.484C655.861 81.0174 616.646 41.7275 568.272 41.7275C519.898 41.7275 480.684 81.0174 480.684 129.484C480.684 177.95 519.898 217.24 568.272 217.24Z" fill="#F68B38" stroke="black" stroke-miterlimit="10"/>
<path d="M574.412 212.581C622.786 212.581 662.001 173.291 662.001 124.825C662.001 76.3581 622.786 37.0684 574.412 37.0684C526.038 37.0684 486.824 76.3581 486.824 124.825C486.824 173.291 526.038 212.581 574.412 212.581Z" fill="#F499AD" stroke="black" stroke-miterlimit="10"/>
<path d="M551.442 117.03H531.852L538.272 90.2588L511.772 131.256H531.362L524.942 158.027L551.442 117.03Z" fill="#F8B33C" stroke="black" stroke-width="2" stroke-miterlimit="10" stroke-linecap="round" stroke-linejoin="round"/>
<path d="M574.662 56.7958C587.072 56.7958 597.132 46.7165 597.132 34.2831C597.132 21.8497 587.072 11.7705 574.662 11.7705C562.252 11.7705 552.192 21.8497 552.192 34.2831C552.192 46.7165 562.252 56.7958 574.662 56.7958Z" fill="#FBB33B" stroke="black" stroke-miterlimit="10"/>
<path d="M564.095 36.1274C564.095 33.8161 564.509 32.1987 565.339 31.2753C566.174 30.3519 567.443 29.8902 569.146 29.8902C569.964 29.8902 570.636 29.9925 571.161 30.1971C571.687 30.3961 572.115 30.6588 572.447 30.985C572.779 31.3057 573.039 31.6458 573.227 32.0052C573.42 32.3591 573.575 32.7738 573.691 33.2493C573.918 34.1562 574.031 35.1017 574.031 36.086C574.031 38.2922 573.658 39.9068 572.911 40.9298C572.165 41.9527 570.879 42.4642 569.055 42.4642C568.032 42.4642 567.205 42.3011 566.575 41.9748C565.944 41.6486 565.427 41.1703 565.024 40.5399C564.731 40.0921 564.501 39.481 564.335 38.7069C564.175 37.9273 564.095 37.0674 564.095 36.1274ZM567.446 36.1357C567.446 37.684 567.581 38.7429 567.852 39.3124C568.128 39.8764 568.527 40.1584 569.046 40.1584C569.389 40.1584 569.685 40.0395 569.934 39.8018C570.188 39.5585 570.373 39.1769 570.489 38.6572C570.611 38.1374 570.672 37.3273 570.672 36.227C570.672 34.6124 570.534 33.5286 570.257 32.9756C569.986 32.4172 569.577 32.1379 569.03 32.1379C568.471 32.1379 568.068 32.4227 567.819 32.9922C567.57 33.5562 567.446 34.6041 567.446 36.1357ZM585.311 42.2568H575.176C575.292 41.256 575.643 40.316 576.229 39.4368C576.821 38.5521 577.927 37.5098 579.547 36.3099C580.537 35.5745 581.17 35.016 581.446 34.6345C581.723 34.2529 581.861 33.8908 581.861 33.5479C581.861 33.1775 581.723 32.8623 581.446 32.6024C581.175 32.337 580.832 32.2043 580.418 32.2043C579.986 32.2043 579.632 32.3398 579.356 32.6107C579.085 32.8816 578.903 33.3599 578.809 34.0456L575.425 33.7719C575.557 32.8208 575.801 32.0799 576.154 31.549C576.508 31.0127 577.006 30.6035 577.647 30.3215C578.294 30.034 579.187 29.8902 580.326 29.8902C581.515 29.8902 582.439 30.0257 583.097 30.2966C583.76 30.5676 584.28 30.985 584.656 31.549C585.037 32.1075 585.228 32.7351 585.228 33.4318C585.228 34.1728 585.01 34.8805 584.573 35.5551C584.142 36.2297 583.354 36.9707 582.209 37.778C581.529 38.248 581.073 38.577 580.841 38.765C580.614 38.953 580.346 39.199 580.036 39.5032H585.311V42.2568Z" fill="black"/>
<path d="M559.78 89.98C559.96 94.8932 563.025 98.4317 568.773 98.4317C570.012 98.4317 571.297 98.2964 572.469 97.8006C572.874 97.6654 573.258 97.5978 573.596 97.5978C574.294 97.5978 574.858 97.8231 575.421 97.9809C575.804 98.0936 576.075 97.8682 576.075 97.4625V93.4508V93.2254C576.075 92.8423 576.3 92.4366 576.661 92.2338C576.774 92.1436 576.909 92.0535 577.044 91.9633C577.427 91.7154 577.224 91.0167 576.751 91.0167H569.764C569.314 91.0167 569.111 91.7154 569.494 91.9633C569.607 92.0535 570.192 92.1436 570.373 92.2338C570.733 92.4366 570.959 92.662 571.004 93.2029C571.004 94.7805 570.981 96.6963 569.945 96.561C566.947 96.4934 565.73 92.8423 565.437 90.3631C564.941 86.1936 565.392 83.1961 567.781 82.9031C569.426 82.7003 570.824 83.2863 570.756 86.0809C570.711 87.8614 572.018 88.8756 574.092 88.7179C576.007 88.5601 576.999 86.9374 576.278 85.0893C575.399 82.813 572.672 81.5058 568.637 81.5058C562.89 81.5058 559.622 84.8414 559.78 89.98ZM578.818 89.98C578.818 95.1186 581.906 98.4317 587.653 98.4317C593.4 98.4317 596.533 95.1186 596.51 89.98C596.51 84.8414 593.4 81.5058 587.653 81.5058C581.906 81.5058 578.818 84.8414 578.818 89.98ZM586.819 82.9031C589.208 82.6101 590.335 85.4274 590.853 89.5968C591.349 93.7438 590.944 96.7413 588.532 97.0343C586.143 97.3273 584.971 94.5326 584.475 90.3631C583.957 86.1936 584.43 83.1961 586.819 82.9031ZM559.757 116.768C559.915 116.858 560.073 116.948 560.231 117.038C560.569 117.219 560.884 117.534 561.065 117.872L566.451 131.508C566.609 131.891 566.992 132.139 567.398 132.139H570.192C570.598 132.139 570.959 131.891 571.117 131.508L574.317 123.439L577.292 131.485C577.427 131.891 577.81 132.139 578.216 132.139H581.011C581.416 132.139 581.777 131.891 581.935 131.508L587.321 117.985C587.456 117.624 587.772 117.309 588.178 117.106C588.403 116.993 588.583 116.881 588.764 116.768C589.147 116.497 588.944 115.799 588.471 115.799H585.428C584.977 115.799 584.774 116.497 585.158 116.768C585.225 116.813 585.293 116.858 585.36 116.903C585.699 117.106 585.811 117.557 585.676 117.962L581.799 127.924L578.509 117.962C578.441 117.624 578.577 117.286 578.892 117.038C579.027 116.948 579.14 116.836 579.253 116.768C579.636 116.497 579.433 115.799 578.982 115.799H571.319C570.846 115.799 570.643 116.497 571.026 116.768C571.184 116.858 571.342 116.948 571.5 117.038C571.86 117.241 572.176 117.602 572.311 117.962L573.551 121.321L570.959 127.992L567.33 118.053C567.218 117.692 567.33 117.309 567.668 117.016C567.781 116.926 567.871 116.836 567.984 116.768C568.367 116.497 568.164 115.799 567.691 115.799H560.05C559.577 115.799 559.374 116.497 559.757 116.768ZM591.146 132.139H598.133C598.606 132.139 598.809 131.44 598.426 131.17C598.29 131.079 598.155 130.989 598.043 130.922C597.682 130.696 597.457 130.313 597.457 129.93V118.233V118.007C597.457 117.624 597.682 117.241 598.043 117.016C598.155 116.948 598.29 116.858 598.426 116.768C598.809 116.497 598.606 115.799 598.133 115.799H591.146C590.695 115.799 590.492 116.497 590.876 116.768C590.988 116.858 591.146 116.948 591.326 117.038C591.687 117.219 591.935 117.602 591.935 118.007V129.93C591.935 130.336 591.687 130.719 591.326 130.899C591.146 130.989 590.988 131.079 590.876 131.17C590.492 131.44 590.695 132.139 591.146 132.139ZM600.627 116.768C600.739 116.858 600.897 116.948 601.077 117.038C601.438 117.219 601.686 117.602 601.686 118.007V129.93C601.686 130.336 601.438 130.719 601.077 130.899C600.897 130.989 600.739 131.079 600.627 131.17C600.243 131.44 600.446 132.139 600.897 132.139H613.631C614.037 132.139 614.375 131.868 614.465 131.485C614.623 130.877 614.848 129.953 614.961 129.141C615.073 128.533 614.735 128.195 614.307 128.195C613.992 128.195 613.653 128.375 613.406 128.758C612.797 129.682 612.459 130.786 610.115 130.786H607.884C607.478 130.786 607.208 130.516 607.208 130.11V118.233V118.007C607.208 117.624 607.433 117.241 607.794 117.016C607.906 116.948 608.042 116.858 608.177 116.768C608.56 116.497 608.357 115.799 607.884 115.799H600.897C600.446 115.799 600.243 116.497 600.627 116.768ZM616.65 116.836C616.762 116.903 616.92 116.993 617.1 117.083C617.461 117.286 617.709 117.669 617.709 118.075V129.93C617.709 130.336 617.461 130.719 617.1 130.899C616.92 130.989 616.762 131.079 616.65 131.17C616.266 131.44 616.469 132.139 616.92 132.139H624.155C630.42 132.139 634.319 129.457 634.319 124.003C634.319 118.548 630.375 115.821 624.155 115.844L616.92 115.866C616.469 115.866 616.266 116.565 616.65 116.836ZM623.231 130.11V117.895C623.231 117.489 623.501 117.196 623.907 117.196C627.287 117.219 628.797 119.405 628.797 124.025C628.797 128.645 627.242 130.786 623.907 130.786C623.501 130.786 623.231 130.516 623.231 130.11ZM565.595 167.13C566.023 167.333 566.699 167.468 567.285 167.468C567.826 167.468 567.916 167.243 567.556 166.837C564.4 163.074 564.4 152.864 567.556 149.123C567.916 148.717 567.826 148.514 567.308 148.514C566.699 148.514 566.046 148.649 565.617 148.875C558.293 152.458 558.293 163.66 565.595 167.13ZM569.65 150.745C569.763 150.836 569.921 150.926 570.101 151.016C570.462 151.219 570.71 151.602 570.71 152.007V160.346C570.71 164.313 573.594 166.454 579.004 166.454C583.736 166.454 585.923 164.268 585.923 160.076V152.03C585.923 151.647 586.148 151.264 586.509 151.038C586.621 150.971 586.757 150.881 586.892 150.79C587.275 150.52 587.072 149.821 586.599 149.821H583.691C583.218 149.821 583.015 150.52 583.398 150.79C583.511 150.881 583.691 150.971 583.849 151.061C584.165 151.219 584.39 151.534 584.458 151.872V159.738C584.458 163.231 583.083 165.034 580.153 165.034C577.426 165.034 576.254 163.389 576.254 159.738V151.872C576.299 151.534 576.524 151.196 576.84 151.016C576.953 150.926 577.088 150.836 577.223 150.745C577.606 150.497 577.381 149.776 576.93 149.776H569.921C569.47 149.776 569.267 150.497 569.65 150.745ZM588.504 162.172C588.639 164.696 591.997 166.454 596.798 166.454C601.261 166.454 604.416 164.651 604.574 161.518C604.867 155.952 593.034 155.253 592.831 152.255C592.741 151.196 594.071 150.407 595.874 150.655C598.669 151.038 598.556 154.036 600.9 155.005C601.238 155.14 601.576 155.208 601.892 155.208C602.996 155.208 603.92 154.442 603.559 153.022C603.131 151.354 600.336 149.506 595.919 149.506C591.772 149.483 588.729 151.241 588.729 154.374C588.729 160.008 600.562 160.639 600.021 163.907C599.841 164.989 598.669 165.53 597.114 165.35C592.899 164.899 593.553 160.369 590.465 160.234C589.27 160.166 588.436 161.045 588.504 162.172ZM606.085 150.813C606.198 150.903 606.355 150.993 606.536 151.083C606.896 151.264 607.144 151.647 607.144 152.053V163.93C607.144 164.336 606.896 164.719 606.536 164.899C606.355 164.989 606.198 165.079 606.085 165.17C605.702 165.44 605.905 166.139 606.355 166.139H619.765C620.171 166.139 620.509 165.868 620.599 165.485C620.757 164.877 620.982 163.953 621.095 163.141C621.208 162.533 620.87 162.195 620.442 162.195C620.126 162.195 619.788 162.375 619.54 162.758C618.932 163.682 618.593 164.786 616.25 164.786H613.342C612.936 164.786 612.666 164.516 612.666 164.11V158.341H614.289C617.219 158.341 616.227 160.144 617.241 160.234C618.413 160.346 618.548 154.982 617.354 155.028C616.272 155.073 617.219 157.011 614.289 157.011H612.666V152.278V151.872C612.666 151.467 612.936 151.196 613.342 151.196H615.799C618.143 151.196 618.481 152.323 619.089 153.247C619.337 153.608 619.675 153.788 619.968 153.788C620.397 153.788 620.735 153.472 620.644 152.841C620.509 152.03 620.306 151.128 620.149 150.52C620.058 150.114 619.698 149.844 619.292 149.844H606.355C605.905 149.844 605.702 150.543 606.085 150.813ZM622.95 149.123C626.105 152.886 626.105 163.096 622.95 166.837C622.612 167.243 622.702 167.468 623.22 167.468C623.806 167.468 624.482 167.311 624.91 167.108C632.235 163.502 632.235 152.3 624.91 148.852C624.482 148.649 623.806 148.514 623.22 148.514C622.702 148.514 622.612 148.717 622.95 149.123Z" fill="black"/>
</svg>
