<svg width="296" height="250" viewBox="0 0 296 250" fill="none" xmlns="http://www.w3.org/2000/svg">
<path d="M227.96 248.281H58.0397C26.5385 248.281 1 222.635 1 191V68.2812C1 36.6466 26.5385 11 58.0397 11H227.96C259.462 11 285 36.6466 285 68.2812L285 191C285 222.635 259.461 248.281 227.96 248.281Z" fill="#F68B38" stroke="black" stroke-width="2" stroke-miterlimit="10"/>
<path d="M237.96 238.281H68.0397C36.5385 238.281 11 212.635 11 181V58.2812C11 26.6466 36.5385 1 68.0397 1H237.96C269.462 1 295 26.6466 295 58.2812L295 181C295 212.635 269.461 238.281 237.96 238.281Z" fill="#F499AD" stroke="black" stroke-width="2" stroke-miterlimit="10"/>
</svg>
