<svg width="296" height="193" viewBox="0 0 296 193" fill="none" xmlns="http://www.w3.org/2000/svg">
<path d="M227.96 192H58.0397C26.5385 192 1 166.353 1 134.719V68.2812C1 36.6466 26.5385 11 58.0397 11H227.96C259.462 11 285 36.6466 285 68.2812L285 134.719C285 166.353 259.461 192 227.96 192Z" fill="#F68B38" stroke="black" stroke-width="2" stroke-miterlimit="10"/>
<path d="M237.96 182H68.0397C36.5385 182 11 156.353 11 124.719V58.2812C11 26.6466 36.5385 1 68.0397 1H237.96C269.462 1 295 26.6466 295 58.2812L295 124.719C295 156.353 269.461 182 237.96 182Z" fill="#F499AD" stroke="black" stroke-width="2" stroke-miterlimit="10"/>
</svg>
