<svg width="42" height="42" viewBox="0 0 42 42" fill="none" xmlns="http://www.w3.org/2000/svg">
<path d="M21 41C32.0457 41 41 32.0457 41 21C41 9.9543 32.0457 1 21 1C9.95431 1 1 9.9543 1 21C1 32.0457 9.95431 41 21 41Z" fill="#F499AD" stroke="#1D1D1B" stroke-miterlimit="10"/>
<path d="M14.9395 25.2306C15.2557 24.6921 15.813 24.0878 16.6113 23.4209C16.8242 23.2425 17.0559 23.0578 17.3064 22.8699C17.8199 22.4817 18.3177 22.1498 18.7967 21.8806C19.4009 21.5393 19.9802 21.2951 20.5281 21.1479C20.7159 21.0978 20.9006 21.0571 21.0822 21.029C21.1417 21.0196 21.2012 21.0102 21.2607 21.0008C21.4955 20.9695 21.724 20.9507 21.9526 20.9413C22.153 20.935 22.3502 20.9382 22.5443 20.9507C22.7385 20.9632 22.9326 20.9882 23.1236 21.0227C23.349 21.0634 23.5681 21.1166 23.7842 21.1824C24.2569 21.3295 24.7078 21.5455 25.1398 21.8273C25.6658 22.1717 26.0447 22.5599 26.2732 22.9889C26.4579 23.3333 26.5456 23.6933 26.5331 24.0659L26.7992 15.1523C26.8117 14.7797 26.724 14.4228 26.5393 14.0753C26.3108 13.6464 25.9319 13.2581 25.406 12.9137C24.9739 12.632 24.5231 12.4159 24.0503 12.2688C23.8343 12.1999 23.6151 12.1467 23.3897 12.1091C23.1987 12.0747 23.0077 12.0527 22.8105 12.0371C22.6164 12.0246 22.4191 12.0214 22.2187 12.0246C21.9933 12.0308 21.7616 12.0496 21.5268 12.0841C21.4673 12.0934 21.4078 12.0997 21.3483 12.1122C21.1668 12.1404 20.982 12.1811 20.7942 12.2312C20.2463 12.3784 19.6671 12.6226 19.0628 12.9638C18.5838 13.2331 18.086 13.5618 17.5725 13.9532C17.3252 14.141 17.0935 14.3258 16.8775 14.5042C16.0791 15.1711 15.5218 15.7754 15.2056 16.3139" fill="#F68B38"/>
<path d="M14.9395 25.2306C15.2557 24.6921 15.813 24.0878 16.6113 23.4209C16.8242 23.2425 17.0559 23.0578 17.3064 22.8699C17.8199 22.4817 18.3177 22.1498 18.7967 21.8806C19.4009 21.5393 19.9802 21.2951 20.5281 21.1479C20.7159 21.0978 20.9006 21.0571 21.0822 21.029C21.1417 21.0196 21.2012 21.0102 21.2607 21.0008C21.4955 20.9695 21.724 20.9507 21.9526 20.9413C22.153 20.935 22.3502 20.9382 22.5443 20.9507C22.7385 20.9632 22.9326 20.9882 23.1236 21.0227C23.349 21.0634 23.5681 21.1166 23.7842 21.1824C24.2569 21.3295 24.7078 21.5455 25.1398 21.8273C25.6658 22.1717 26.0447 22.5599 26.2732 22.9889C26.4579 23.3333 26.5456 23.6933 26.5331 24.0659L26.7992 15.1523C26.8117 14.7797 26.724 14.4228 26.5393 14.0753C26.3108 13.6464 25.9319 13.2581 25.406 12.9137C24.9739 12.632 24.5231 12.4159 24.0503 12.2688C23.8343 12.1999 23.6151 12.1467 23.3897 12.1091C23.1987 12.0747 23.0077 12.0527 22.8105 12.0371C22.6164 12.0246 22.4191 12.0214 22.2187 12.0246C21.9933 12.0308 21.7616 12.0496 21.5268 12.0841C21.4673 12.0934 21.4078 12.0997 21.3483 12.1122C21.1668 12.1404 20.982 12.1811 20.7942 12.2312C20.2463 12.3784 19.6671 12.6226 19.0628 12.9638C18.5838 13.2331 18.086 13.5618 17.5725 13.9532C17.3252 14.141 17.0935 14.3258 16.8775 14.5042C16.0791 15.1711 15.5218 15.7754 15.2056 16.3139" stroke="black" stroke-miterlimit="10" stroke-linejoin="round"/>
<path d="M14.9639 16.8379L14.6978 25.7515C14.6633 25.8642 14.6383 25.9769 14.6289 26.0834L14.895 17.1698C14.9075 17.0633 14.9295 16.9537 14.9639 16.8379Z" fill="#945322"/>
<path d="M14.6332 26.0816C14.6332 26.091 14.6301 26.1003 14.6301 26.1097C14.627 26.1379 14.627 26.1661 14.627 26.1943L14.8931 17.2807C14.8931 17.2525 14.8962 17.2243 14.8962 17.1961C14.8962 17.1868 14.8962 17.1774 14.8993 17.168" fill="#8F5120"/>
<path d="M32.9392 15.7441L32.6731 24.6577C32.67 24.7579 32.6637 24.8581 32.6543 24.9583L32.9204 16.0447C32.9298 15.9445 32.9361 15.8443 32.9392 15.7441Z" fill="#8F5120"/>
<path d="M32.7045 17.0875C32.5542 17.5697 32.3288 18.0643 32.0313 18.5715C31.9718 18.6749 31.9092 18.7782 31.8403 18.8815L31.5742 27.7951C31.64 27.6918 31.7026 27.5884 31.7652 27.4851C32.0626 26.9779 32.2849 26.4832 32.4383 26.0011C32.5479 25.6473 32.6199 25.2998 32.6544 24.9585L32.9205 16.0449C32.8861 16.3862 32.814 16.7337 32.7045 17.0875Z" fill="#F68B38" stroke="black" stroke-miterlimit="10" stroke-linejoin="round"/>
<path d="M31.8411 18.8813L31.5781 27.7949L25.9863 25.4624L26.2493 16.5488L31.8411 18.8813Z" fill="#F68B38" stroke="black" stroke-miterlimit="10" stroke-linejoin="round"/>
<path d="M23.6706 24.3342C23.1196 24.4813 22.5717 24.594 22.0238 24.6692C21.9205 24.6848 21.814 24.6973 21.7107 24.7067C21.3726 24.7443 21.0344 24.7693 20.6994 24.7787C20.2893 24.7913 19.8823 24.785 19.4784 24.7568C19.0588 24.7286 18.6424 24.6754 18.226 24.6034C17.963 24.5564 17.6969 24.5001 17.4371 24.4375C17.2273 24.3843 17.0144 24.3279 16.8015 24.259C15.6055 23.8833 14.3563 23.2728 13.0601 22.4243C11.2066 21.2127 9.93862 20.0355 9.25609 18.8958C8.78959 18.1194 8.57043 17.2615 8.59861 16.3223L8.33249 25.2359C8.30431 26.1751 8.52347 27.033 8.98997 27.8094C9.6725 28.9491 10.9436 30.1263 12.794 31.3379C14.0902 32.1864 15.3394 32.7969 16.5354 33.1726C16.7483 33.2384 16.9612 33.2978 17.1709 33.3511C17.4339 33.4168 17.6969 33.47 17.9599 33.517C18.3732 33.589 18.7896 33.6422 19.2123 33.6704C19.6161 33.6986 20.0232 33.7049 20.4333 33.6923C20.7683 33.6829 21.1064 33.6579 21.4446 33.6203C21.5479 33.6078 21.6512 33.5953 21.7577 33.5827C22.3056 33.5076 22.8535 33.3949 23.4045 33.2478C24.2185 33.0286 25.0388 32.728 25.8654 32.3429L26.1315 23.4293C25.3049 23.8144 24.4847 24.115 23.6706 24.3342Z" fill="#F68B38" stroke="black" stroke-miterlimit="10" stroke-linejoin="round"/>
<path d="M28.8636 10.1213C31.0114 11.5271 32.3045 12.9297 32.7428 14.3355C33.1842 15.7381 32.8837 17.2534 31.8411 18.8815L26.2493 16.549C26.5562 16.0825 26.7346 15.7131 26.7753 15.4281C26.8473 14.9585 26.7691 14.5108 26.5405 14.0819C26.312 13.6529 25.9331 13.2647 25.4071 12.9203C24.2143 12.1376 22.8617 11.8715 21.3495 12.1188C20.2193 12.2941 18.9607 12.9078 17.5737 13.9598C15.8549 15.2622 14.9626 16.3392 14.8968 17.2002C14.8342 18.0581 15.3195 18.8251 16.3589 19.5077C17.3671 20.1683 18.3846 20.4688 19.4178 20.4188C20.4478 20.3655 21.5718 20.0462 22.7835 19.4544L26.1304 23.4338C24.6432 24.1257 23.1686 24.5484 21.7127 24.7112C20.2569 24.8708 18.8323 24.7832 17.4422 24.4388C16.0521 24.0975 14.5931 23.4244 13.0653 22.4256C11.2118 21.214 9.94378 20.0368 9.26125 18.8972C8.57559 17.7575 8.42217 16.4425 8.80414 14.9491C9.18297 13.4588 10.3383 11.9842 12.2606 10.5283C14.8279 8.58406 17.5487 7.58218 20.4291 7.52269C23.3063 7.46008 26.1179 8.32732 28.8636 10.1213Z" fill="#FBB33B" stroke="black" stroke-miterlimit="10" stroke-linejoin="round"/>
<path d="M18.706 27.1268C19.8887 27.1268 20.8475 26.168 20.8475 24.9853C20.8475 23.8025 19.8887 22.8438 18.706 22.8438C17.5232 22.8438 16.5645 23.8025 16.5645 24.9853C16.5645 26.168 17.5232 27.1268 18.706 27.1268Z" fill="#F68B38" stroke="black" stroke-miterlimit="10"/>
<path d="M30.6323 15.3126C30.7588 14.9429 30.4848 14.5143 30.0202 14.3553C29.5556 14.1963 29.0764 14.3671 28.9498 14.7368C28.8233 15.1065 29.0973 15.5352 29.5619 15.6942C30.0265 15.8532 30.5058 15.6824 30.6323 15.3126Z" fill="#F68B38" stroke="black" stroke-miterlimit="10"/>
<path d="M15.1207 13.4859C15.1364 12.791 14.4498 12.2119 13.5872 12.1925C12.7246 12.1731 12.0127 12.7207 11.9971 13.4156C11.9814 14.1105 12.668 14.6896 13.5306 14.709C14.3932 14.7284 15.1051 14.1808 15.1207 13.4859Z" fill="#F68B38" stroke="black" stroke-miterlimit="10"/>
<path d="M19.6926 10.2663C19.7025 9.82555 19.2635 9.45815 18.7121 9.44574C18.1607 9.43333 17.7056 9.78061 17.6957 10.2214C17.6858 10.6622 18.1248 11.0296 18.6762 11.042C19.2276 11.0544 19.6827 10.7071 19.6926 10.2663Z" fill="#F68B38" stroke="black" stroke-miterlimit="10"/>
<path d="M21.9987 30.5678C22.5503 30.5678 22.9975 30.1207 22.9975 29.5691C22.9975 29.0175 22.5503 28.5703 21.9987 28.5703C21.4472 28.5703 21 29.0175 21 29.5691C21 30.1207 21.4472 30.5678 21.9987 30.5678Z" fill="#F68B38" stroke="black" stroke-miterlimit="10"/>
</svg>
