<svg width="42" height="42" viewBox="0 0 42 42" fill="none" xmlns="http://www.w3.org/2000/svg">
<path d="M21 41C32.0457 41 41 32.0457 41 21C41 9.95428 32.0457 1 21 1C9.95429 1 1 9.95428 1 21C1 32.0457 9.95429 41 21 41Z" fill="#F499AD" stroke="#1D1D1B" stroke-miterlimit="10"/>
<path d="M24.3846 11.0997L21.7383 9.30851L24.3846 7.44531L27.0218 9.30851L24.3846 11.0997Z" fill="#FBB33B" stroke="black" stroke-width="0.75" stroke-miterlimit="10" stroke-linejoin="round"/>
<path d="M24.3846 23.9981L21.7383 22.2069L24.3846 20.3438L27.0218 22.2069L24.3846 23.9981Z" fill="#FBB33B" stroke="black" stroke-width="0.75" stroke-miterlimit="10" stroke-linejoin="round"/>
<path d="M24.3867 11.0998V23.9981L27.0239 22.2069V9.30859L24.3867 11.0998Z" fill="#FBB33B" stroke="black" stroke-width="0.75" stroke-miterlimit="10" stroke-linejoin="round"/>
<path d="M21.7383 9.30859V22.2069L24.3846 23.9981V11.0998L21.7383 9.30859Z" fill="#FBB33B" stroke="black" stroke-width="0.75" stroke-miterlimit="10" stroke-linejoin="round"/>
<path d="M21.74 12.9637L19.0938 11.1816L21.74 9.31836L24.3863 11.1816L21.74 12.9637Z" fill="#FBB33B" stroke="black" stroke-width="0.75" stroke-miterlimit="10" stroke-linejoin="round"/>
<path d="M21.74 25.8622L19.0938 24.08L21.74 22.2168L24.3863 24.08L21.74 25.8622Z" fill="#FBB33B" stroke="black" stroke-width="0.75" stroke-miterlimit="10" stroke-linejoin="round"/>
<path d="M21.7383 12.9638V25.8621L24.3846 24.0799V11.1816L21.7383 12.9638Z" fill="#F68B38" stroke="black" stroke-width="0.75" stroke-miterlimit="10" stroke-linejoin="round"/>
<path d="M19.0938 11.1816V24.0799L21.74 25.8621V12.9638L19.0938 11.1816Z" fill="#FBB33B" stroke="black" stroke-width="0.75" stroke-miterlimit="10" stroke-linejoin="round"/>
<path d="M27.0239 12.9637L24.3867 11.1816L27.0239 9.31836L29.6702 11.1816L27.0239 12.9637Z" fill="#FBB33B" stroke="black" stroke-width="0.75" stroke-miterlimit="10" stroke-linejoin="round"/>
<path d="M27.0239 25.8622L24.3867 24.08L27.0239 22.2168L29.6702 24.08L27.0239 25.8622Z" fill="#FBB33B" stroke="black" stroke-width="0.75" stroke-miterlimit="10" stroke-linejoin="round"/>
<path d="M27.0234 12.9638V25.8621L29.6698 24.0799V11.1816L27.0234 12.9638Z" fill="#FBB33B" stroke="black" stroke-width="0.75" stroke-miterlimit="10" stroke-linejoin="round"/>
<path d="M24.3867 11.1816V24.0799L27.0239 25.8621V12.9638L24.3867 11.1816Z" fill="#F68B38" stroke="black" stroke-width="0.75" stroke-miterlimit="10" stroke-linejoin="round"/>
<path d="M29.6698 14.7911L27.0234 12.9999L29.6698 11.1367L32.316 12.9999L29.6698 14.7911Z" fill="#FBB33B" stroke="black" stroke-width="0.75" stroke-miterlimit="10" stroke-linejoin="round"/>
<path d="M29.6698 27.6895L27.0234 25.8983L29.6698 24.0352L32.316 25.8983L29.6698 27.6895Z" fill="#FBB33B" stroke="black" stroke-width="0.75" stroke-miterlimit="10" stroke-linejoin="round"/>
<path d="M29.6699 14.7912V27.6895L32.3161 25.8982V13L29.6699 14.7912Z" fill="#FBB33B" stroke="black" stroke-width="0.75" stroke-miterlimit="10" stroke-linejoin="round"/>
<path d="M27.0234 13V25.8982L29.6698 27.6895V14.7912L27.0234 13Z" fill="#F68B38" stroke="black" stroke-width="0.75" stroke-miterlimit="10" stroke-linejoin="round"/>
<path d="M19.0916 14.7911L16.4453 12.9999L19.0916 11.1367L21.7379 12.9999L19.0916 14.7911Z" fill="#FBB33B" stroke="black" stroke-width="0.75" stroke-miterlimit="10" stroke-linejoin="round"/>
<path d="M19.0916 27.6895L16.4453 25.8983L19.0916 24.0352L21.7379 25.8983L19.0916 27.6895Z" fill="#FBB33B" stroke="black" stroke-width="0.75" stroke-miterlimit="10" stroke-linejoin="round"/>
<path d="M19.0938 14.7912V27.6895L21.74 25.8982V13L19.0938 14.7912Z" fill="#FBB33B" stroke="black" stroke-width="0.75" stroke-miterlimit="10" stroke-linejoin="round"/>
<path d="M16.4453 13V25.8982L19.0916 27.6895V14.7912L16.4453 13Z" fill="#FBB33B" stroke="black" stroke-width="0.75" stroke-miterlimit="10" stroke-linejoin="round"/>
<path d="M16.4478 16.6524L13.8105 14.8612L16.4478 12.998L19.0941 14.8612L16.4478 16.6524Z" fill="#FBB33B" stroke="black" stroke-width="0.75" stroke-miterlimit="10" stroke-linejoin="round"/>
<path d="M16.4478 29.5508L13.8105 27.7597L16.4478 25.8965L19.0941 27.7597L16.4478 29.5508Z" fill="#FBB33B" stroke="black" stroke-width="0.75" stroke-miterlimit="10" stroke-linejoin="round"/>
<path d="M16.4453 16.6525V29.5507L19.0916 27.7596V14.8613L16.4453 16.6525Z" fill="#F68B38" stroke="black" stroke-width="0.75" stroke-miterlimit="10" stroke-linejoin="round"/>
<path d="M13.8105 14.8613V27.7596L16.4478 29.5507V16.6525L13.8105 14.8613Z" fill="#FBB33B" stroke="black" stroke-width="0.75" stroke-miterlimit="10" stroke-linejoin="round"/>
<path d="M13.8104 18.4364L11.1641 16.6542L13.8104 14.791L16.4476 16.6542L13.8104 18.4364Z" fill="#FBB33B" stroke="black" stroke-width="0.75" stroke-miterlimit="10" stroke-linejoin="round"/>
<path d="M13.8104 31.3348L11.1641 29.5526L13.8104 27.6895L16.4476 29.5526L13.8104 31.3348Z" fill="#FBB33B" stroke="black" stroke-width="0.75" stroke-miterlimit="10" stroke-linejoin="round"/>
<path d="M13.8105 18.4365V31.3348L16.4478 29.5525V16.6543L13.8105 18.4365Z" fill="#F68B38" stroke="black" stroke-width="0.75" stroke-miterlimit="10" stroke-linejoin="round"/>
<path d="M11.1641 16.6543V29.5525L13.8104 31.3348V18.4365L11.1641 16.6543Z" fill="#FBB33B" stroke="black" stroke-width="0.75" stroke-miterlimit="10" stroke-linejoin="round"/>
<path d="M21.74 16.6258L19.0938 14.8437L21.74 12.9805L24.3863 14.8437L21.74 16.6258Z" fill="#FBB33B" stroke="black" stroke-width="0.75" stroke-miterlimit="10" stroke-linejoin="round"/>
<path d="M21.74 29.5243L19.0938 27.7421L21.74 25.8789L24.3863 27.7421L21.74 29.5243Z" fill="#FBB33B" stroke="black" stroke-width="0.75" stroke-miterlimit="10" stroke-linejoin="round"/>
<path d="M21.7383 16.6259V29.5242L24.3846 27.7421V14.8438L21.7383 16.6259Z" fill="#FBB33B" stroke="black" stroke-width="0.75" stroke-miterlimit="10" stroke-linejoin="round"/>
<path d="M19.0938 14.8438V27.7421L21.74 29.5242V16.6259L19.0938 14.8438Z" fill="#F68B38" stroke="black" stroke-width="0.75" stroke-miterlimit="10" stroke-linejoin="round"/>
<path d="M24.3846 18.463L21.7383 16.6717L24.3846 14.8086L27.0218 16.6717L24.3846 18.463Z" fill="#FBB33B" stroke="black" stroke-width="0.75" stroke-miterlimit="10" stroke-linejoin="round"/>
<path d="M24.3846 31.3614L21.7383 29.5702L24.3846 27.707L27.0218 29.5702L24.3846 31.3614Z" fill="#FBB33B" stroke="black" stroke-width="0.75" stroke-miterlimit="10" stroke-linejoin="round"/>
<path d="M24.3867 18.4631V31.3613L27.0239 29.5702V16.6719L24.3867 18.4631Z" fill="#FBB33B" stroke="black" stroke-width="0.75" stroke-miterlimit="10" stroke-linejoin="round"/>
<path d="M21.7383 16.6719V29.5702L24.3846 31.3613V18.4631L21.7383 16.6719Z" fill="#F68B38" stroke="black" stroke-width="0.75" stroke-miterlimit="10" stroke-linejoin="round"/>
</svg>
