<svg width="289" height="240" viewBox="0 0 289 240" fill="none" xmlns="http://www.w3.org/2000/svg">
<path d="M168.489 100.716C158.043 100.716 149.571 92.2117 149.571 81.7265C149.571 78.8916 150.202 76.2175 151.313 73.7947C135.52 61.0677 115.47 53.4375 93.648 53.4375C42.7225 53.4375 1.44141 94.8757 1.44141 145.995C1.44141 149.795 1.69176 153.535 2.14243 157.214C3.99517 156.601 5.97811 156.259 8.03116 156.259C18.4766 156.259 26.9492 164.764 26.9492 175.249C26.9492 183.522 21.6613 190.549 14.3104 193.143C30.3743 220.326 59.888 238.552 93.658 238.552C144.583 238.552 185.865 197.114 185.865 145.995C185.865 129.237 181.408 113.534 173.647 99.9725C172.004 100.455 170.282 100.716 168.489 100.716ZM67.7396 213.973C61.1499 213.973 55.8119 208.615 55.8119 202C55.8119 195.385 61.1499 190.027 67.7396 190.027C74.3294 190.027 79.6673 195.385 79.6673 202C79.6673 208.615 74.3194 213.973 67.7396 213.973Z" fill="#F68B38"/>
<path d="M93.6487 240C60.76 240 29.8843 222.327 13.0694 193.887L12.178 192.379L13.8205 191.796C20.8108 189.323 25.5078 182.678 25.5078 175.249C25.5078 165.568 17.6662 157.697 8.02186 157.697C6.18915 157.697 4.35643 157.988 2.57379 158.581L0.921348 159.124L0.711045 157.385C0.240348 153.484 0 149.654 0 145.995C0 94.162 42.0022 52 93.6387 52C115.171 52 135.421 59.1477 152.206 72.6689L153.077 73.3726L152.606 74.3879C151.534 76.7202 150.994 79.1832 150.994 81.7165C150.994 91.3975 158.835 99.2689 168.48 99.2689C170.062 99.2689 171.664 99.0377 173.247 98.5953L174.318 98.2938L174.869 99.2689C182.981 113.454 187.277 129.619 187.277 146.005C187.287 197.838 145.285 240 93.6487 240ZM16.3943 193.857C32.8687 220.588 62.3223 237.135 93.6487 237.135C143.703 237.135 184.433 196.26 184.433 146.005C184.433 130.483 180.457 115.173 172.936 101.651C171.454 101.993 169.962 102.154 168.49 102.154C157.273 102.154 148.139 92.9859 148.139 81.7266C148.139 79.1531 148.62 76.6397 149.572 74.2371C133.468 61.5603 114.159 54.8751 93.6487 54.8751C43.5946 54.8751 2.86423 95.7504 2.86423 146.005C2.86423 149.071 3.02447 152.157 3.36497 155.384C4.89724 155.022 6.45955 154.832 8.02186 154.832C19.2385 154.832 28.372 164 28.372 175.259C28.372 183.311 23.625 190.58 16.3943 193.857ZM67.7403 215.4C60.3794 215.4 54.3806 209.389 54.3806 201.99C54.3806 194.601 60.3694 188.579 67.7403 188.579C75.1013 188.579 81.1001 194.591 81.1001 201.99C81.0901 209.389 75.1013 215.4 67.7403 215.4ZM67.7403 191.464C61.9518 191.464 57.2448 196.189 57.2448 202C57.2448 207.811 61.9518 212.535 67.7403 212.535C73.5289 212.535 78.2359 207.811 78.2359 202C78.2359 196.189 73.5289 191.464 67.7403 191.464Z" fill="#1D1D1B"/>
<path d="M184.212 100.716C173.766 100.716 165.294 92.2117 165.294 81.7265C165.294 78.8916 165.924 76.2175 167.036 73.7947C151.243 61.0677 131.193 53.4375 109.371 53.4375C58.4452 53.4375 17.1641 94.8757 17.1641 145.995C17.1641 149.795 17.4144 153.535 17.8651 157.214C19.7179 156.601 21.7008 156.259 23.7538 156.259C34.1993 156.259 42.6719 164.764 42.6719 175.249C42.6719 183.522 37.384 190.549 30.0331 193.143C46.0969 220.326 75.6107 238.552 109.381 238.552C160.306 238.552 201.587 197.114 201.587 145.995C201.587 129.237 197.131 113.534 189.369 99.9725C187.727 100.455 186.004 100.716 184.212 100.716ZM83.4623 213.973C76.8725 213.973 71.5346 208.615 71.5346 202C71.5346 195.385 76.8725 190.027 83.4623 190.027C90.0521 190.027 95.39 195.385 95.39 202C95.39 208.615 90.0421 213.973 83.4623 213.973Z" fill="#FBB33B"/>
<path d="M109.371 240C76.4827 240 45.607 222.327 28.792 193.887L27.9007 192.379L29.5432 191.796C36.5335 189.323 41.2304 182.678 41.2304 175.249C41.2304 165.568 33.3888 157.697 23.7446 157.697C21.9118 157.697 20.0791 157.988 18.2965 158.581L16.644 159.124L16.4337 157.385C15.963 153.484 15.7227 149.654 15.7227 145.995C15.7227 94.162 57.7249 52 109.361 52C130.893 52 151.143 59.1477 167.928 72.6689L168.799 73.3726L168.329 74.3879C167.257 76.7202 166.716 79.1832 166.716 81.7165C166.716 91.3975 174.558 99.2689 184.202 99.2689C185.785 99.2689 187.387 99.0377 188.969 98.5953L190.041 98.2938L190.592 99.2689C198.704 113.454 203 129.619 203 146.005C203.01 197.838 161.008 240 109.371 240ZM32.1169 193.857C48.5914 220.588 78.045 237.135 109.371 237.135C159.426 237.135 200.156 196.26 200.156 146.005C200.156 130.483 196.18 115.173 188.659 101.651C187.177 101.993 185.684 102.154 184.212 102.154C172.996 102.154 163.862 92.9859 163.862 81.7266C163.862 79.1531 164.343 76.6397 165.294 74.2371C149.19 61.5603 129.882 54.8751 109.371 54.8751C59.3173 54.8751 18.5869 95.7504 18.5869 146.005C18.5869 149.071 18.7472 152.157 19.0877 155.384C20.6199 155.022 22.1822 154.832 23.7446 154.832C34.9612 154.832 44.0947 164 44.0947 175.259C44.0947 183.311 39.3477 190.58 32.1169 193.857ZM83.463 215.4C76.1021 215.4 70.1032 209.389 70.1032 201.99C70.1032 194.601 76.0921 188.579 83.463 188.579C90.834 188.579 96.8228 194.591 96.8228 201.99C96.8128 209.389 90.8239 215.4 83.463 215.4ZM83.463 191.464C77.6745 191.464 72.9675 196.189 72.9675 202C72.9675 207.811 77.6745 212.535 83.463 212.535C89.2516 212.535 93.9586 207.811 93.9586 202C93.9586 196.189 89.2516 191.464 83.463 191.464Z" fill="#1D1D1B"/>
<path d="M30.9226 191.304L14.2129 191.697L14.2799 194.572L30.9896 194.179L30.9226 191.304Z" fill="#1D1D1B"/>
<path d="M98.1358 106.801C98.0958 106.851 98.1058 106.841 98.1358 106.801V106.801Z" fill="#F499AD"/>
<path d="M111.486 105.522C111.186 105.09 110.825 104.738 110.425 104.447C110.425 104.397 110.435 104.346 110.435 104.296C110.234 101.592 108.281 99.2695 105.427 99.2695C103.745 99.2695 102.032 100.285 101.111 101.743C100.86 101.974 100.67 102.155 100.75 102.084C100.209 102.587 99.7187 103.19 99.3382 103.834C98.9476 104.497 98.6972 105.261 98.4668 105.995C98.3066 106.488 98.1864 106.729 98.1364 106.809C98.2265 106.668 98.587 106.206 99.4183 105.593C97.886 106.709 97.1249 108.136 97.0447 109.634C96.524 110.087 96.0933 110.609 95.7028 111.263C94.3207 113.545 95.172 116.822 97.4954 118.129C99.3181 119.154 101.181 119.858 103.114 120.371C102.773 120.823 102.523 121.336 102.413 121.899C101.571 121.969 100.73 122.039 99.889 122.12C99.7688 122.12 99.6686 122.14 99.5585 122.15C98.6772 121.296 97.205 120.974 96.0933 121.275C94.4709 121.718 93.6297 123.145 93.4694 124.734C93.149 127.9 93.4795 131.198 94.491 134.224C95.0117 135.792 95.5826 137.441 96.9546 138.466C97.1048 138.577 97.2651 138.667 97.4253 138.768C97.7758 139.632 98.2866 140.386 99.1378 140.899C101.001 142.035 103.785 142.407 105.878 141.914C108.912 141.2 110.074 138.587 111.066 135.923C112.918 130.946 113.96 125.658 114.27 120.361C114.541 115.374 114.42 109.755 111.486 105.522Z" fill="#F499AD"/>
<path d="M154.961 126.391C155.602 121.295 155.672 115.856 153.729 111.021C153.409 110.226 152.898 109.553 152.267 109.08C152.137 108.789 152.007 108.487 151.876 108.196L150.715 105.552C150.344 104.707 150.034 103.833 149.473 103.099C148.311 101.591 146.368 100.887 144.556 101.661C143.053 102.295 141.992 103.772 142.012 105.391C139.799 107.793 138.126 110.769 137.325 113.946C136.824 114.569 136.464 115.434 136.494 116.208C136.534 117.133 136.834 118.098 137.545 118.741L138.266 119.304C138.827 119.626 139.428 119.787 140.069 119.797C140.119 119.807 140.159 119.807 140.209 119.817C141.191 119.958 142.172 120.149 143.113 120.48C143.374 120.611 143.624 120.752 143.865 120.913C144.025 121.053 144.185 121.214 144.325 121.375C144.365 121.445 144.415 121.506 144.455 121.576C144.646 121.918 144.886 122.199 145.156 122.441C145.066 122.501 144.966 122.541 144.876 122.611C144.375 122.762 143.885 122.903 143.374 123.014C143.224 123.044 142.523 123.275 142.412 123.195C142.953 123.124 143.033 123.114 142.633 123.164C142.513 123.174 142.392 123.195 142.262 123.205C141.08 123.305 139.889 123.285 138.707 123.144C137.495 123.004 136.203 123.928 135.622 124.924C134.941 126.09 135.042 127.377 135.622 128.543C135.723 128.754 136.043 129.196 136.043 129.427C135.843 128.945 135.823 128.884 135.963 129.246C136.023 129.397 136.083 129.548 136.133 129.699C136.353 130.312 136.544 130.935 136.704 131.569C136.784 131.88 136.854 132.202 136.914 132.524C136.944 132.684 137.165 133.358 137.074 133.489C137.004 132.936 136.994 132.866 137.034 133.258C137.054 133.418 137.064 133.579 137.074 133.74C137.095 133.981 137.105 134.223 137.125 134.474C137.275 137.208 137.555 140.154 139.738 142.104C139.769 142.124 139.799 142.144 139.819 142.165C139.829 142.305 139.859 142.476 139.869 142.547C139.879 142.657 139.919 142.949 139.939 143.049C139.949 143.069 139.949 143.099 139.959 143.119C139.999 143.26 140.189 143.672 140.149 143.572C140.109 143.471 140.269 143.914 140.349 144.034C140.359 144.054 140.379 144.074 140.389 144.095C140.449 144.185 140.88 144.748 140.95 144.828C140.96 144.838 140.97 144.849 140.98 144.859C141.221 145.11 141.521 145.321 141.802 145.512C141.962 145.623 142.182 145.683 142.342 145.753C142.523 145.834 142.713 145.934 142.913 145.974C143.033 145.995 143.744 146.095 143.875 146.105C143.895 146.105 143.905 146.105 143.925 146.105C143.955 146.105 143.975 146.105 144.005 146.105C144.806 146.055 145.217 145.964 145.918 145.582C145.938 145.572 145.958 145.562 145.978 145.542C146.058 145.492 146.659 145.03 146.719 144.969C146.729 144.959 146.739 144.949 146.739 144.939C146.769 144.909 146.869 144.788 146.969 144.648C147.891 144.688 148.832 144.416 149.593 143.703C149.783 143.522 149.984 143.341 150.174 143.15C150.975 142.396 151.276 141.531 151.246 140.697C151.896 139.752 152.377 138.656 152.728 137.59C153.078 136.505 153.319 135.379 153.709 134.303C153.809 134.102 153.919 133.901 154.04 133.72C154.1 133.65 154.16 133.579 154.23 133.509C155.472 132.323 155.592 130.141 154.54 128.794C154.711 128 154.861 127.196 154.961 126.391Z" fill="#F499AD"/>
<path d="M142.993 164.935C142.882 164.473 142.672 164.061 142.352 163.719C142.101 163.327 141.761 163.025 141.35 162.794C141.07 162.673 140.779 162.553 140.499 162.432C139.868 162.261 139.237 162.261 138.596 162.432C138.316 162.553 138.025 162.673 137.745 162.794C137.204 163.116 136.783 163.538 136.463 164.081C136.303 164.312 136.132 164.553 135.972 164.785C135.712 165.197 135.572 165.639 135.552 166.122C135.441 166.594 135.471 167.077 135.612 167.549C135.682 167.851 135.822 168.122 135.992 168.373C135.982 168.454 135.962 168.534 135.952 168.615C131.776 168.625 127.6 168.635 123.424 168.645C123.353 168.645 123.273 168.665 123.203 168.665C123.153 168.263 123.063 167.861 122.903 167.499C122.943 167.227 122.963 166.956 122.953 166.685C122.923 166.463 122.943 166.232 122.953 166.011C122.983 165.89 123.003 165.77 123.043 165.659C123.193 165.187 123.213 164.704 123.103 164.232C123.083 163.759 122.943 163.307 122.682 162.895C122.462 162.472 122.152 162.141 121.761 161.889C121.421 161.568 121.01 161.357 120.549 161.246C120.229 161.206 119.918 161.165 119.598 161.115C118.957 161.115 118.356 161.276 117.795 161.608C117.555 161.799 117.315 161.98 117.074 162.171C116.634 162.623 116.323 163.146 116.153 163.749C115.922 164.392 115.852 165.096 115.792 165.77C115.732 166.453 115.852 167.147 115.963 167.811C116.003 168.002 116.083 168.172 116.163 168.343C116.153 168.404 116.153 168.474 116.143 168.534C116.093 168.615 116.043 168.715 115.983 168.796C115.582 169.288 115.171 169.791 114.821 170.324C114.31 171.098 113.94 171.983 113.629 172.847C113.108 174.315 112.898 176.004 113.098 177.552C113.078 178.044 113.178 178.507 113.409 178.929C113.549 179.371 113.799 179.763 114.15 180.085C114.771 180.708 115.782 181.181 116.674 181.141C116.914 181.131 117.154 181.1 117.385 181.05C117.835 181.271 118.336 181.392 118.877 181.322C120.019 181.171 121.17 181.11 122.322 181.171C122.582 181.181 122.843 181.221 123.103 181.231C123.123 181.231 123.123 181.231 123.143 181.231C123.183 181.241 123.193 181.241 123.243 181.251C123.754 181.352 124.255 181.462 124.756 181.613C124.996 181.684 125.226 181.774 125.467 181.854C125.537 181.885 125.647 181.935 125.757 181.985C126.208 182.216 126.638 182.488 127.049 182.779C127.109 182.84 127.209 182.92 127.299 183.011C127.49 183.192 127.66 183.382 127.84 183.563C127.9 183.624 127.94 183.664 127.97 183.694C127.99 183.734 128.01 183.754 128.04 183.815C128.181 184.026 128.321 184.247 128.461 184.468C128.591 184.689 128.721 184.921 128.842 185.142C128.862 185.182 128.952 185.373 129.022 185.514C129.082 185.654 129.202 185.956 129.222 186.006C129.332 186.308 129.422 186.599 129.513 186.911C129.833 187.977 130.053 189.062 130.224 190.158C130.234 190.249 130.244 190.289 130.244 190.299L130.274 190.54C130.314 190.932 130.354 191.334 130.394 191.726C130.444 192.39 130.484 193.053 130.504 193.707C130.544 195.165 130.504 196.622 130.384 198.07C130.234 199.95 132.136 201.739 133.959 201.659C135.371 201.598 136.433 200.875 137.024 199.789C137.314 199.789 137.605 199.759 137.855 199.668C138.716 199.387 139.557 198.854 139.988 198.02C140.459 197.135 140.549 196.24 140.349 195.255C140.309 195.044 140.279 194.843 140.238 194.632C140.619 194.069 140.849 193.385 140.899 192.621C141.16 188.801 141.43 184.981 141.691 181.161C141.731 180.648 141.601 180.145 141.38 179.683C141.911 176.355 142.452 173.028 142.983 169.7C143.113 168.866 143.113 168.102 142.802 167.338C142.953 167.026 143.053 166.695 143.063 166.343C143.163 165.89 143.143 165.418 142.993 164.935Z" fill="#F499AD"/>
<path d="M122.17 114.458C122.15 114.307 122.13 114.167 122.09 114.036C121.62 111.362 120.929 108.728 119.987 106.154C119.697 105.37 119.186 104.858 118.585 104.546C117.023 102.083 114.97 99.9316 112.526 98.2829C111.284 97.4385 109.301 98.0015 108.61 99.3084C107.849 100.756 108.31 102.334 109.632 103.239C109.792 103.35 109.962 103.46 110.123 103.581C110.143 103.591 110.223 103.651 110.293 103.701C110.393 103.782 110.553 103.913 110.583 103.933C110.703 104.033 110.824 104.144 110.944 104.244C111.475 104.717 111.985 105.229 112.456 105.772C112.586 105.923 112.716 106.074 112.847 106.225C112.867 106.245 112.937 106.335 112.987 106.406C113.057 106.506 113.167 106.657 113.187 106.687C113.277 106.818 113.367 106.949 113.458 107.079C113.878 107.713 114.259 108.366 114.599 109.04C114.749 109.331 114.88 109.633 115.02 109.934C115.03 109.954 115.03 109.964 115.04 110.005C115.11 110.196 115.18 110.377 115.25 110.568C115.491 111.241 115.691 111.935 115.841 112.639C115.921 112.99 115.981 113.342 116.041 113.694C116.041 113.714 116.041 113.714 116.051 113.734C116.071 113.905 116.091 114.066 116.101 114.237C116.161 114.991 116.172 115.755 116.141 116.509C116.121 116.971 116.252 117.414 116.472 117.816C116.422 121.234 116.202 124.652 115.24 127.939C114.028 132.081 111.555 135.68 109.171 139.218C108.761 139.832 108.69 140.596 108.871 141.3C106.988 143.31 109.602 147.15 112.556 145.652C118.575 142.586 121.349 135.8 122.291 129.437C123.032 124.451 122.992 119.394 122.17 114.458Z" fill="#F68B38"/>
<path d="M162.861 117.696C162.781 117.293 162.661 116.891 162.561 116.489C162.801 116.077 162.951 115.615 162.931 115.092C162.681 108.899 159.095 102.958 153.557 100.113C152.225 99.4293 150.393 99.7209 149.641 101.138C148.95 102.455 149.251 104.335 150.663 105.069C151.214 105.351 151.745 105.662 152.245 106.014C152.355 106.094 152.476 106.175 152.586 106.255C152.806 106.446 153.036 106.627 153.247 106.828C153.427 106.999 153.587 107.19 153.768 107.371C153.717 107.733 153.748 108.115 153.868 108.477C155.029 111.865 156.441 115.263 157.243 118.761C156.942 119.224 156.762 119.766 156.722 120.35C156.482 123.928 156.391 127.547 155.64 131.066C154.909 134.494 153.737 137.771 152.095 140.868C151.364 142.235 151.755 143.994 153.117 144.798C153.898 145.261 154.889 145.281 155.72 144.929C157.032 144.949 158.034 144.125 158.545 142.848C159.716 139.882 160.948 136.937 162.05 133.951C162.47 132.825 162.701 131.649 162.841 130.463C163.051 130.071 163.202 129.638 163.232 129.166C163.482 125.326 163.642 121.485 162.861 117.696Z" fill="#F68B38"/>
<path d="M128.059 186.166C125.045 182.054 120.048 181.552 115.331 181.702C113.838 181.753 112.396 182.989 112.476 184.567C112.496 185.09 112.667 185.593 112.927 186.035C111.585 190.036 113.157 194.46 115.881 197.485C118.686 200.592 122.812 202.18 126.728 203.346C128.43 203.849 130.463 202.432 130.343 200.582C130.042 195.726 131.164 190.408 128.059 186.166Z" fill="#F68B38"/>
<path d="M111.103 148.468L110.202 145.743C116.581 143.622 121.559 134.122 122.04 123.144C122.61 110.116 116.902 99.2484 109.321 98.9066C103.202 98.6151 97.393 105.632 95.3099 115.655C96.2112 116.047 98.074 116.59 99.3859 116.972C103.802 118.258 106.016 118.902 105.856 120.762C105.725 122.28 104.814 122.34 98.8852 122.682C97.5032 122.762 95.6003 122.873 94.4987 122.993C94.4887 123.375 94.4887 123.768 94.4987 124.15C94.5688 130.714 96.2914 136.856 99.2257 141.028L96.8923 142.687C93.6274 138.063 91.7146 131.317 91.6345 124.19C91.6245 123.406 91.6345 122.611 91.6745 121.817C91.7446 120.229 92.676 120.179 98.7149 119.827C98.755 119.827 98.8051 119.817 98.8451 119.817C98.755 119.787 98.6749 119.766 98.5848 119.746C94.1883 118.47 91.985 117.826 92.3355 115.906C94.5788 103.873 101.619 95.74 109.431 96.0516C118.594 96.4537 125.525 108.668 124.884 123.275C124.353 135.59 118.685 145.944 111.103 148.468Z" fill="#1D1D1B"/>
<path d="M107.318 144.739L105.466 142.558C110.123 138.567 113.247 130.735 113.628 122.11C114.078 111.756 110.423 102.266 104.725 99.0185L106.137 96.5254C112.827 100.346 116.983 110.68 116.482 122.241C116.071 131.63 112.556 140.256 107.318 144.739Z" fill="#1D1D1B"/>
<path d="M118.925 91.7495C118.525 91.7495 118.114 91.5786 117.834 91.2468C115.851 88.9045 113.527 87.6077 111.124 87.4971C108.49 87.3664 105.886 88.6632 103.563 91.2166C103.032 91.7997 102.12 91.8399 101.54 91.3071C100.959 90.7743 100.919 89.8595 101.449 89.2765C104.364 86.0897 107.719 84.4712 111.244 84.632C114.469 84.7728 117.493 86.4214 120.007 89.387C120.518 89.9902 120.448 90.895 119.847 91.4077C119.586 91.6389 119.256 91.7495 118.925 91.7495Z" fill="#1D1D1B"/>
<path d="M159.117 94.4027C158.716 94.4027 158.306 94.2318 158.025 93.9001C156.042 91.5577 153.719 90.2609 151.315 90.1503C148.681 90.0498 146.077 91.3164 143.754 93.8699C143.223 94.4529 142.322 94.4931 141.731 93.9603C141.15 93.4275 141.11 92.5127 141.641 91.9296C144.555 88.7328 147.91 87.1344 151.435 87.2852C154.66 87.4259 157.685 89.0747 160.198 92.0403C160.709 92.6435 160.639 93.5481 160.038 94.0608C159.768 94.292 159.437 94.4027 159.117 94.4027Z" fill="#1D1D1B"/>
<path d="M141.891 148.327C136.513 144.095 133.218 135.238 133.308 125.225C133.308 124.703 133.328 124.18 133.348 123.647C133.419 121.958 134.991 121.827 140.199 121.405C140.329 121.395 140.459 121.385 140.589 121.375C140.429 121.325 140.269 121.285 140.108 121.234C135.702 119.948 133.689 119.365 134.04 117.525C136.273 105.612 143.103 97.4993 150.684 97.8612C155.151 98.0623 159.167 101.098 161.991 106.416C164.685 111.493 166.007 118.118 165.706 125.065C165.326 133.74 162.412 141.752 157.895 146.487L155.832 144.507C159.878 140.255 162.502 132.946 162.852 124.944C163.133 118.5 161.931 112.408 159.477 107.773C157.144 103.38 153.979 100.887 150.564 100.736C144.715 100.535 139.107 107.371 137.024 117.233C137.925 117.605 139.678 118.118 140.92 118.48C145.346 119.767 147.359 120.36 147.179 122.139C147.019 123.727 145.486 123.858 140.439 124.27C139.087 124.381 137.204 124.532 136.183 124.703C136.183 124.884 136.173 125.075 136.173 125.256C136.093 134.263 139.037 142.436 143.664 146.075L141.891 148.327Z" fill="#1D1D1B"/>
<path d="M149.702 146.135L147.639 144.154C151.685 139.902 154.309 132.594 154.66 124.591C155.12 114.016 151.485 104.465 145.807 101.369L147.169 98.8457C153.869 102.505 158.025 112.9 157.514 124.712C157.133 133.388 154.209 141.39 149.702 146.135Z" fill="#1D1D1B"/>
<path d="M99.9069 181.2C99.1859 181.2 98.575 180.657 98.4848 179.924C98.3947 179.139 98.9656 178.426 99.7467 178.335C108.43 177.36 115.009 170.273 115.39 161.507C115.821 151.745 108.249 143.452 98.5249 143.019C94.2686 142.828 90.0824 144.195 86.7575 146.859C86.1365 147.352 85.2452 147.252 84.7445 146.628C84.2537 146.005 84.3539 145.11 84.9748 144.608C88.8405 141.511 93.6877 139.943 98.6551 140.144C109.952 140.647 118.745 150.277 118.254 161.617C117.803 171.811 110.162 180.034 100.077 181.18C100.017 181.2 99.967 181.2 99.9069 181.2Z" fill="#1D1D1B"/>
<path d="M152.976 183.401C152.235 183.401 151.614 182.828 151.554 182.074C151.494 181.29 152.085 180.597 152.866 180.536C161.439 179.873 168.189 172.856 168.569 164.22C168.769 159.656 167.187 155.283 164.113 151.906C161.038 148.538 156.832 146.567 152.285 146.366C147.899 146.165 143.672 147.653 140.367 150.538C139.777 151.061 138.865 150.991 138.354 150.398C137.834 149.794 137.904 148.89 138.495 148.377C142.36 145.009 147.308 143.28 152.415 143.501C157.733 143.733 162.63 146.035 166.226 149.965C169.821 153.906 171.664 159.013 171.433 164.341C170.993 174.434 163.111 182.617 153.086 183.391C153.046 183.401 153.006 183.401 152.976 183.401Z" fill="#1D1D1B"/>
<path d="M131.163 158.591C130.913 158.591 130.662 158.581 130.402 158.571C124.413 158.309 119.856 155.042 120.036 151.142C120.127 149.141 121.408 147.372 123.672 146.155C125.685 145.07 128.299 144.537 131.023 144.657C137.012 144.919 141.558 148.186 141.388 152.087C141.218 155.826 136.791 158.591 131.163 158.591ZM130.272 147.522C128.309 147.522 126.416 147.945 125.014 148.699C123.702 149.402 122.931 150.347 122.891 151.282C122.811 153.212 125.925 155.515 130.532 155.716C135.119 155.927 138.444 153.906 138.534 151.976C138.614 150.046 135.499 147.744 130.892 147.543C130.682 147.522 130.482 147.522 130.272 147.522Z" fill="#1D1D1B"/>
<path d="M132.135 164.543C123.212 164.543 116.653 161.075 116.232 160.844C115.541 160.472 115.281 159.597 115.651 158.904C116.022 158.21 116.893 157.949 117.584 158.321C117.734 158.401 132.797 166.323 147.809 157.305C148.48 156.893 149.361 157.114 149.772 157.798C150.172 158.481 149.962 159.356 149.281 159.768C143.262 163.377 137.303 164.543 132.135 164.543Z" fill="#1D1D1B"/>
<path d="M126.835 215.763C126.515 215.763 126.194 215.753 125.874 215.743C120.165 215.492 115.548 213.159 114.387 209.943C114.116 209.199 114.507 208.374 115.248 208.103C115.989 207.831 116.81 208.213 117.081 208.967C117.712 210.727 121.217 212.667 125.994 212.878C130.801 213.089 134.476 211.451 135.227 209.742C135.548 209.018 136.389 208.696 137.11 209.008C137.831 209.329 138.162 210.174 137.841 210.898C136.559 213.823 132.103 215.763 126.835 215.763Z" fill="#1D1D1B"/>
<path d="M127.086 205.006C126.846 205.006 126.606 205.006 126.355 204.986C117.352 204.594 110.352 196.913 110.742 187.876L111.423 172.374C111.453 171.58 112.154 170.947 112.915 171.007C113.707 171.037 114.317 171.711 114.277 172.505L113.596 188.006C113.266 195.466 119.044 201.789 126.475 202.121C130.071 202.262 133.516 201.025 136.17 198.582C138.824 196.139 140.376 192.802 140.536 189.193L141.768 160.964C141.798 160.17 142.479 159.567 143.26 159.597C144.052 159.627 144.662 160.3 144.622 161.095L143.39 189.323C143.01 198.12 135.769 205.006 127.086 205.006Z" fill="#1D1D1B"/>
<path d="M135.891 169.981C135.871 169.981 135.851 169.981 135.831 169.981L123.713 169.448C122.922 169.418 122.311 168.744 122.351 167.95L122.602 162.14C122.632 161.346 123.323 160.742 124.094 160.773C124.885 160.803 125.496 161.476 125.456 162.27L125.266 166.654L134.529 167.066L134.66 164.04C134.69 163.246 135.381 162.622 136.152 162.672C136.943 162.703 137.554 163.376 137.514 164.17L137.314 168.624C137.284 169.378 136.653 169.981 135.891 169.981Z" fill="#1D1D1B"/>
<path d="M130.424 204.633C130.354 204.633 130.294 204.633 130.224 204.623C129.443 204.513 128.902 203.789 129.012 203.005C131.045 188.559 125.778 184.558 125.717 184.517C120.34 180.888 112.939 183.04 112.858 183.07C112.107 183.291 111.306 182.869 111.076 182.105C110.845 181.341 111.276 180.546 112.027 180.315C112.378 180.205 120.79 177.732 127.32 182.145C127.6 182.336 134.14 186.97 131.827 203.407C131.736 204.11 131.126 204.633 130.424 204.633Z" fill="#1D1D1B"/>
<path d="M81.0902 217.441C89.2043 217.441 95.782 210.838 95.782 202.693C95.782 194.548 89.2043 187.945 81.0902 187.945C72.9762 187.945 66.3984 194.548 66.3984 202.693C66.3984 210.838 72.9762 217.441 81.0902 217.441Z" fill="#F499AD"/>
<path d="M81.1091 218.869C76.4221 218.869 71.7752 216.838 68.5905 212.907C65.8665 209.56 64.6146 205.337 65.0553 201.045C65.4959 196.742 67.579 192.872 70.914 190.147C77.8042 184.508 87.9792 185.563 93.5976 192.48C99.2059 199.396 98.1643 209.61 91.2741 215.239C88.2897 217.682 84.6844 218.869 81.1091 218.869ZM81.079 189.383C78.1347 189.383 75.1703 190.358 72.7166 192.369C69.9726 194.611 68.26 197.798 67.8995 201.336C67.539 204.875 68.5705 208.343 70.8038 211.098C75.4206 216.788 83.793 217.652 89.4614 213.018C95.1298 208.383 95.9911 199.979 91.3743 194.289C88.7604 191.062 84.9347 189.383 81.079 189.383Z" fill="#1D1D1B"/>
<path d="M90.3634 214.131C90.1731 214.282 89.7025 214.744 89.7626 214.523C92.2462 205.405 81.7607 193.05 71.215 191.904C70.9246 191.874 71.5856 191.451 71.8159 191.26C78.1053 186.123 87.359 187.068 92.4866 193.392C97.6042 199.695 96.6627 208.984 90.3634 214.131Z" fill="#F68B38"/>
<path d="M89.7624 216.023C89.5221 216.023 89.2717 215.962 89.0113 215.791L88.11 215.228L88.3804 214.143C89.2617 210.896 88.2602 206.814 85.6263 202.934C82.051 197.676 76.3325 193.906 71.0547 193.333L70.0833 193.232L69.7528 192.247C69.4724 191.212 70.2836 190.609 70.7743 190.247L70.9145 190.146C77.8047 184.517 87.9798 185.562 93.5881 192.489C99.1964 199.405 98.1549 209.619 91.2647 215.248L91.1545 215.349C90.8741 215.59 90.3834 216.023 89.7624 216.023ZM74.5298 191.121C79.6174 192.639 84.6649 196.399 87.9998 201.305C90.173 204.502 91.3848 207.789 91.5551 210.875C95.2806 206.09 95.3607 199.184 91.3848 194.278C87.2287 189.171 80.058 187.955 74.5298 191.121Z" fill="#1D1D1B"/>
<path d="M51.015 126.192C56.6788 126.192 61.2702 121.583 61.2702 115.898C61.2702 110.212 56.6788 105.604 51.015 105.604C45.3512 105.604 40.7598 110.212 40.7598 115.898C40.7598 121.583 45.3512 126.192 51.015 126.192Z" fill="#F499AD"/>
<path d="M50.9936 127.618C48.6802 127.618 46.3568 126.934 44.3238 125.507C39.0359 121.797 37.744 114.479 41.4295 109.171C45.1149 103.863 52.4158 102.566 57.7036 106.266C62.9914 109.975 64.2833 117.294 60.5979 122.602C58.3245 125.869 54.6891 127.618 50.9936 127.618ZM45.9562 123.155C49.9521 125.949 55.4603 124.964 58.2544 120.963C61.0385 116.962 60.0571 111.423 56.0712 108.628C52.0853 105.833 46.5671 106.819 43.773 110.82C40.9888 114.821 41.9703 120.36 45.9562 123.155Z" fill="#1D1D1B"/>
<path d="M45.1366 124.334C44.9964 124.233 44.5958 124.002 44.766 124.002C51.3458 123.931 57.605 114.492 56.3432 107.163C56.3131 106.962 56.7137 107.324 56.894 107.445C61.5409 110.702 62.6726 117.116 59.4278 121.78C56.183 126.455 49.7835 127.591 45.1366 124.334Z" fill="#F68B38"/>
<path d="M50.9959 127.619C48.6825 127.619 46.3591 126.936 44.326 125.508L44.7767 124.855V124.794L44.256 125.468C43.9555 125.277 43.0441 124.684 43.3546 123.618L43.6551 122.593L44.7567 122.573C46.97 122.543 49.3936 121.145 51.3965 118.722C54.1506 115.395 55.5427 110.962 54.9318 107.413L54.7615 106.448L55.6128 105.885C56.5041 105.352 57.2852 105.955 57.6258 106.217C62.9937 109.976 64.2856 117.305 60.6002 122.613C58.3268 125.87 54.6914 127.619 50.9959 127.619ZM48.7726 124.463C52.2478 125.368 56.0835 124.081 58.2567 120.964C60.5601 117.657 60.2897 113.304 57.8761 110.308C57.5857 113.837 56.0534 117.587 53.5898 120.552C52.1276 122.321 50.4852 123.648 48.7726 124.463Z" fill="#1D1D1B"/>
<path d="M95.3212 153.153C96.339 153.153 97.164 152.324 97.164 151.303C97.164 150.281 96.339 149.453 95.3212 149.453C94.3035 149.453 93.4785 150.281 93.4785 151.303C93.4785 152.324 94.3035 153.153 95.3212 153.153Z" fill="#1D1D1B"/>
<path d="M106.007 155.154C107.025 155.154 107.85 154.326 107.85 153.305C107.85 152.283 107.025 151.455 106.007 151.455C104.989 151.455 104.164 152.283 104.164 153.305C104.164 154.326 104.989 155.154 106.007 155.154Z" fill="#1D1D1B"/>
<path d="M99.4775 162.131C100.495 162.131 101.32 161.303 101.32 160.281C101.32 159.26 100.495 158.432 99.4775 158.432C98.4598 158.432 97.6348 159.26 97.6348 160.281C97.6348 161.303 98.4598 162.131 99.4775 162.131Z" fill="#1D1D1B"/>
<path d="M150.052 155.635C151.069 155.635 151.894 154.807 151.894 153.785C151.894 152.764 151.069 151.936 150.052 151.936C149.034 151.936 148.209 152.764 148.209 153.785C148.209 154.807 149.034 155.635 150.052 155.635Z" fill="#1D1D1B"/>
<path d="M160.837 156.942C161.855 156.942 162.68 156.113 162.68 155.092C162.68 154.07 161.855 153.242 160.837 153.242C159.819 153.242 158.994 154.07 158.994 155.092C158.994 156.113 159.819 156.942 160.837 156.942Z" fill="#1D1D1B"/>
<path d="M154.78 164.33C155.798 164.33 156.623 163.502 156.623 162.481C156.623 161.459 155.798 160.631 154.78 160.631C153.763 160.631 152.938 161.459 152.938 162.481C152.938 163.502 153.763 164.33 154.78 164.33Z" fill="#1D1D1B"/>
<path d="M47.6903 88.7107C51.5233 88.7107 54.6306 85.5916 54.6306 81.744C54.6306 77.8964 51.5233 74.7773 47.6903 74.7773C43.8573 74.7773 40.75 77.8964 40.75 81.744C40.75 85.5916 43.8573 88.7107 47.6903 88.7107Z" fill="#F68B38"/>
<path d="M47.6888 90.1504C43.072 90.1504 39.3164 86.3804 39.3164 81.746C39.3164 77.1116 43.072 73.3418 47.6888 73.3418C52.3057 73.3418 56.0612 77.1116 56.0612 81.746C56.0612 86.3804 52.3057 90.1504 47.6888 90.1504ZM47.6888 76.2169C44.6543 76.2169 42.1807 78.7 42.1807 81.746C42.1807 84.7921 44.6543 87.2752 47.6888 87.2752C50.7233 87.2752 53.197 84.7921 53.197 81.746C53.197 78.7 50.7333 76.2169 47.6888 76.2169Z" fill="#1D1D1B"/>
<path d="M129.932 169.709C129.141 169.709 128.5 169.065 128.5 168.271V164.32C128.5 163.526 129.141 162.883 129.932 162.883C130.723 162.883 131.364 163.526 131.364 164.32V168.271C131.364 169.065 130.723 169.709 129.932 169.709Z" fill="#1D1D1B"/>
<path d="M219.505 1C181.674 1 151 27.8528 151 60.9813C151 82.383 163.814 101.16 183.075 111.77C182.294 113.933 171.312 144.507 172.854 143.994C174.456 143.461 214.9 120.952 214.9 120.952C214.9 120.952 217.743 120.963 219.495 120.963C257.326 120.963 288 94.1098 288 60.9813C288.01 27.8528 257.336 1 219.505 1Z" fill="#F499AD" stroke="#1D1D1B" stroke-width="2" stroke-miterlimit="10"/>
<path d="M172.243 32.7419C178.761 27.7938 184.557 23.2177 192.115 19.8586C200.684 16.0469 209.875 14.1964 218.954 12.0944C219.325 12.014 219.235 11.4507 218.864 11.4507C203.898 11.2194 179.842 18.3802 171.993 32.4905C171.913 32.6414 172.083 32.8626 172.243 32.7419Z" fill="#1D1D1B"/>
<path d="M238.868 104.992C238.768 105.042 238.788 105.223 238.898 105.243C248.278 106.651 261.683 98.8064 266.178 90.7606C266.358 90.4387 265.947 90.137 265.687 90.3784C261.883 93.8683 257.818 97.0062 253.293 99.4802C248.658 101.995 243.623 102.92 238.868 104.992Z" fill="#1D1D1B"/>
<path d="M267.737 88.8097C268.017 88.5482 268.428 88.4175 268.728 88.1761C269.119 87.8643 269.439 87.5123 269.779 87.1402C270.46 86.3758 271.021 85.6115 270.941 84.5455C270.931 84.4047 270.76 84.2538 270.62 84.3644C269.899 84.8974 269.439 85.5411 268.888 86.235C268.598 86.5971 268.278 86.929 268.007 87.3112C267.747 87.7034 267.647 88.156 267.417 88.5482C267.277 88.7594 267.557 88.9706 267.737 88.8097Z" fill="#1D1D1B"/>
<path d="M193.487 33.816C193.919 33.16 194.159 32.36 195.823 32.36H196.303V41.432C196.287 41.72 196.127 41.992 195.855 42.12C195.743 42.184 195.631 42.248 195.535 42.312C195.279 42.504 195.423 43 195.743 43H200.687C201.023 43 201.183 42.504 200.911 42.312C200.815 42.248 200.719 42.184 200.623 42.136C200.383 41.976 200.223 41.704 200.223 41.432V32.36H200.687C202.351 32.36 202.607 33.16 203.023 33.816C203.199 34.072 203.439 34.2 203.663 34.2C203.967 34.2 204.207 33.976 204.127 33.528C204.047 32.968 203.887 32.312 203.791 31.88C203.711 31.592 203.471 31.416 203.183 31.416H193.327C193.039 31.416 192.799 31.592 192.735 31.88C192.623 32.312 192.463 32.968 192.383 33.528C192.303 33.976 192.543 34.2 192.847 34.2C193.071 34.2 193.311 34.072 193.487 33.816ZM205.009 32.12C205.089 32.184 205.201 32.248 205.329 32.312C205.585 32.44 205.761 32.712 205.761 33V41.432C205.761 41.72 205.585 41.992 205.329 42.12C205.201 42.184 205.089 42.248 205.009 42.312C204.737 42.504 204.881 43 205.201 43H214.721C215.009 43 215.249 42.808 215.313 42.536C215.425 42.104 215.585 41.448 215.665 40.872C215.745 40.44 215.505 40.2 215.201 40.2C214.977 40.2 214.737 40.328 214.561 40.6C214.129 41.256 213.889 42.04 212.225 42.04H210.161C209.873 42.04 209.681 41.848 209.681 41.56V37.464H210.833C212.913 37.464 212.209 38.744 212.929 38.808C213.761 38.888 213.857 35.08 213.009 35.112C212.241 35.144 212.913 36.52 210.833 36.52H209.681V33.16V32.872C209.681 32.584 209.873 32.392 210.161 32.392H211.905C213.569 32.392 213.809 33.192 214.241 33.848C214.417 34.104 214.657 34.232 214.865 34.232C215.169 34.232 215.409 34.008 215.345 33.56C215.249 32.984 215.105 32.344 214.993 31.912C214.929 31.624 214.673 31.432 214.385 31.432H205.201C204.881 31.432 204.737 31.928 205.009 32.12ZM217.109 43H219.269C219.589 43 219.733 42.504 219.461 42.312C219.413 42.28 219.365 42.248 219.317 42.216C219.093 42.056 218.997 41.752 219.109 41.464L219.157 41.304L219.717 39.864H224.517L225.077 41.4C225.157 41.656 225.061 41.928 224.837 42.12C224.741 42.184 224.661 42.264 224.581 42.312C224.309 42.504 224.453 43 224.773 43H230.213C230.549 43 230.693 42.504 230.421 42.312C230.325 42.248 230.213 42.184 230.117 42.12C229.861 41.976 229.621 41.72 229.509 41.464L225.557 31.464C225.461 31.192 225.189 31 224.901 30.984L221.605 30.792C221.333 30.776 221.205 30.936 221.301 31.208L221.669 32.2L217.925 41.464C217.829 41.704 217.589 41.928 217.301 42.072C217.141 42.152 217.029 42.232 216.901 42.312C216.629 42.504 216.773 43 217.109 43ZM222.197 33.624L224.165 38.92H220.101L222.197 33.624ZM231.623 43H233.783C234.119 43 234.263 42.504 233.991 42.312C233.895 42.248 233.799 42.184 233.719 42.136C233.463 41.976 233.287 41.704 233.303 41.432L233.559 34.104L236.759 42.552C236.871 42.824 237.127 43 237.415 43H238.167C238.455 43 238.695 42.824 238.807 42.552L241.799 34.152L242.167 41.432C242.151 41.72 241.991 41.992 241.719 42.12C241.607 42.184 241.495 42.248 241.399 42.312C241.143 42.504 241.287 43 241.607 43H246.551C246.887 43 247.047 42.504 246.775 42.312C246.679 42.248 246.583 42.184 246.487 42.136C246.247 41.976 246.087 41.704 246.087 41.432L245.671 32.92C245.687 32.664 245.847 32.408 246.071 32.264C246.167 32.216 246.263 32.152 246.359 32.088C246.631 31.896 246.471 31.4 246.135 31.4H242.263C241.975 31.4 241.719 31.576 241.607 31.848L239.303 38.104L236.775 31.848C236.663 31.576 236.407 31.4 236.119 31.4H231.943C231.623 31.4 231.479 31.896 231.751 32.088C231.831 32.152 231.943 32.216 232.071 32.28C232.295 32.392 232.455 32.6 232.487 32.84L232.183 41.432C232.183 41.72 232.007 41.992 231.751 42.12C231.623 42.184 231.511 42.248 231.431 42.312C231.159 42.504 231.303 43 231.623 43ZM176.675 61.208C176.803 64.696 178.979 67.208 183.059 67.208C186.435 67.208 188.499 65.736 188.835 62.904C188.899 62.376 188.803 61.88 188.323 61.848C187.779 61.816 187.651 62.344 187.587 62.792C187.299 64.648 186.035 65.768 184.419 65.768C181.907 65.768 180.963 63.72 180.691 61.48C180.339 58.52 180.659 56.392 182.355 56.184C183.523 56.04 184.611 56.472 184.467 58.44C184.355 59.96 185.459 60.664 186.835 60.552C188.499 60.424 188.755 58.824 188.387 57.864C187.779 56.216 185.875 55.192 182.963 55.192C178.883 55.192 176.563 57.56 176.675 61.208ZM189.881 67H194.841C195.177 67 195.321 66.504 195.049 66.312C194.953 66.248 194.857 66.184 194.777 66.136C194.521 65.976 194.361 65.704 194.361 65.432V61.496H198.297V65.432C198.281 65.72 198.121 65.992 197.865 66.12C197.737 66.184 197.625 66.248 197.529 66.312C197.273 66.504 197.417 67 197.737 67H202.697C203.017 67 203.177 66.504 202.905 66.312C202.809 66.248 202.713 66.184 202.617 66.136C202.377 65.976 202.217 65.704 202.217 65.432V57.128V56.968C202.217 56.696 202.377 56.424 202.617 56.264C202.713 56.216 202.809 56.152 202.905 56.088C203.177 55.896 203.017 55.4 202.697 55.4H197.737C197.417 55.4 197.273 55.896 197.529 56.088C197.625 56.152 197.737 56.216 197.865 56.28C198.121 56.408 198.281 56.68 198.297 56.968V60.536H194.361V57.128V56.968C194.361 56.696 194.521 56.424 194.777 56.264C194.857 56.216 194.953 56.152 195.049 56.088C195.321 55.896 195.177 55.4 194.841 55.4H189.881C189.561 55.4 189.417 55.896 189.689 56.088C189.769 56.152 189.881 56.216 190.009 56.28C190.265 56.408 190.441 56.68 190.441 56.968V65.432C190.441 65.72 190.265 65.992 190.009 66.12C189.881 66.184 189.769 66.248 189.689 66.312C189.417 66.504 189.561 67 189.881 67ZM203.814 56.12C203.894 56.184 204.006 56.248 204.134 56.312C204.39 56.44 204.566 56.712 204.566 57V65.432C204.566 65.72 204.39 65.992 204.134 66.12C204.006 66.184 203.894 66.248 203.814 66.312C203.542 66.504 203.686 67 204.006 67H213.526C213.814 67 214.054 66.808 214.118 66.536C214.23 66.104 214.39 65.448 214.47 64.872C214.55 64.44 214.31 64.2 214.006 64.2C213.782 64.2 213.542 64.328 213.366 64.6C212.934 65.256 212.694 66.04 211.03 66.04H208.966C208.678 66.04 208.486 65.848 208.486 65.56V61.464H209.638C211.718 61.464 211.014 62.744 211.734 62.808C212.566 62.888 212.662 59.08 211.814 59.112C211.046 59.144 211.718 60.52 209.638 60.52H208.486V57.16V56.872C208.486 56.584 208.678 56.392 208.966 56.392H210.71C212.374 56.392 212.614 57.192 213.046 57.848C213.222 58.104 213.462 58.232 213.67 58.232C213.974 58.232 214.214 58.008 214.15 57.56C214.054 56.984 213.91 56.344 213.798 55.912C213.734 55.624 213.478 55.432 213.19 55.432H204.006C203.686 55.432 203.542 55.928 203.814 56.12ZM215.626 56.12C215.706 56.184 215.818 56.248 215.946 56.312C216.202 56.44 216.378 56.712 216.378 57V65.432C216.378 65.72 216.202 65.992 215.946 66.12C215.818 66.184 215.706 66.248 215.626 66.312C215.354 66.504 215.498 67 215.818 67H225.338C225.626 67 225.866 66.808 225.93 66.536C226.042 66.104 226.202 65.448 226.282 64.872C226.362 64.44 226.122 64.2 225.818 64.2C225.594 64.2 225.354 64.328 225.178 64.6C224.746 65.256 224.506 66.04 222.842 66.04H220.778C220.49 66.04 220.298 65.848 220.298 65.56V61.464H221.45C223.53 61.464 222.826 62.744 223.546 62.808C224.378 62.888 224.474 59.08 223.626 59.112C222.858 59.144 223.53 60.52 221.45 60.52H220.298V57.16V56.872C220.298 56.584 220.49 56.392 220.778 56.392H222.522C224.186 56.392 224.426 57.192 224.858 57.848C225.034 58.104 225.274 58.232 225.482 58.232C225.786 58.232 226.026 58.008 225.962 57.56C225.866 56.984 225.722 56.344 225.61 55.912C225.546 55.624 225.29 55.432 225.002 55.432H215.818C215.498 55.432 215.354 55.928 215.626 56.12ZM227.583 64.184C227.679 65.976 230.063 67.224 233.471 67.224C236.639 67.224 238.879 65.944 238.991 63.72C239.199 59.768 230.799 59.272 230.655 57.144C230.591 56.392 231.535 55.832 232.815 56.008C234.799 56.28 234.719 58.408 236.383 59.096C236.623 59.192 236.863 59.24 237.087 59.24C237.871 59.24 238.527 58.696 238.271 57.688C237.967 56.504 235.983 55.192 232.847 55.192C229.903 55.176 227.743 56.424 227.743 58.648C227.743 62.648 236.143 63.096 235.759 65.416C235.631 66.184 234.799 66.568 233.695 66.44C230.703 66.12 231.167 62.904 228.975 62.808C228.127 62.76 227.535 63.384 227.583 64.184ZM240.064 56.12C240.144 56.184 240.256 56.248 240.384 56.312C240.64 56.44 240.816 56.712 240.816 57V65.432C240.816 65.72 240.64 65.992 240.384 66.12C240.256 66.184 240.144 66.248 240.064 66.312C239.792 66.504 239.936 67 240.256 67H249.776C250.064 67 250.304 66.808 250.368 66.536C250.48 66.104 250.64 65.448 250.72 64.872C250.8 64.44 250.56 64.2 250.256 64.2C250.032 64.2 249.792 64.328 249.616 64.6C249.184 65.256 248.944 66.04 247.28 66.04H245.216C244.928 66.04 244.736 65.848 244.736 65.56V61.464H245.888C247.968 61.464 247.264 62.744 247.984 62.808C248.816 62.888 248.912 59.08 248.064 59.112C247.296 59.144 247.968 60.52 245.888 60.52H244.736V57.16V56.872C244.736 56.584 244.928 56.392 245.216 56.392H246.96C248.624 56.392 248.864 57.192 249.296 57.848C249.472 58.104 249.712 58.232 249.92 58.232C250.224 58.232 250.464 58.008 250.4 57.56C250.304 56.984 250.16 56.344 250.048 55.912C249.984 55.624 249.728 55.432 249.44 55.432H240.256C239.936 55.432 239.792 55.928 240.064 56.12ZM252.212 58.664C252.244 60.008 253.252 60.792 254.516 60.792C255.668 60.792 256.548 60.088 256.244 59.656C255.284 58.248 255.524 56.248 257.156 56.248C258.324 56.248 258.74 57.272 258.484 58.568C258.068 60.616 256.02 61.576 256.292 63.08C256.34 63.368 256.628 63.592 256.932 63.592C256.996 63.592 257.06 63.592 257.124 63.592C257.364 63.576 257.556 63.4 257.7 63.064C258.356 61.64 261.764 61.544 262.02 59.016C262.26 56.872 260.164 55.4 257.076 55.432C255.012 55.4 252.164 56.344 252.212 58.664ZM255.092 65.768C255.092 66.776 255.78 67.4 256.836 67.4C257.924 67.4 258.58 66.808 258.58 65.768C258.58 64.76 257.924 64.152 256.836 64.152C255.748 64.152 255.092 64.76 255.092 65.768ZM199.285 85.208C199.285 88.856 201.477 91.208 205.557 91.208C209.637 91.208 211.861 88.856 211.845 85.208C211.845 81.56 209.637 79.192 205.557 79.192C201.477 79.192 199.285 81.56 199.285 85.208ZM204.965 80.184C206.661 79.976 207.461 81.976 207.829 84.936C208.181 87.88 207.893 90.008 206.181 90.216C204.485 90.424 203.653 88.44 203.301 85.48C202.933 82.52 203.269 80.392 204.965 80.184ZM212.626 80.136C212.706 80.184 212.818 80.248 212.946 80.312C213.202 80.456 213.378 80.728 213.378 81.016V89.496C213.346 89.752 213.186 90.008 212.946 90.12C212.834 90.184 212.706 90.248 212.626 90.312C212.354 90.504 212.498 91 212.834 91H217.778C218.114 91 218.258 90.504 217.986 90.312C217.89 90.248 217.81 90.184 217.714 90.136C217.458 89.976 217.298 89.704 217.298 89.432V86.248H217.634C218.434 86.264 219.058 86.488 219.81 88.184L220.322 89.384H220.306L220.354 89.48C220.466 89.752 220.386 90.008 220.114 90.136C220.018 90.2 219.906 90.248 219.826 90.312C219.554 90.504 219.698 91 220.034 91H225.522C225.858 91 226.002 90.504 225.73 90.312C225.65 90.264 225.586 90.232 225.506 90.2C225.234 90.104 224.978 89.88 224.85 89.608L223.938 87.688C223.458 86.504 222.786 85.912 222.162 85.8C224.066 85.272 225.17 84.312 225.17 82.872C225.17 80.568 222.37 79.416 217.954 79.432L212.818 79.448C212.498 79.448 212.354 79.944 212.626 80.136ZM217.298 80.888C217.298 80.6 217.49 80.392 217.778 80.392C220.178 80.408 221.25 81.192 221.25 82.888C221.25 84.568 220.146 85.288 217.778 85.288C217.49 85.288 217.298 85.096 217.298 84.808V81.176V80.888ZM227.39 89.368C227.39 90.376 228.078 91 229.134 91C230.222 91 230.878 90.408 230.878 89.368C230.878 88.36 230.222 87.752 229.134 87.752C228.062 87.752 227.39 88.36 227.39 89.368ZM231.646 89.368C231.646 90.376 232.334 91 233.39 91C234.478 91 235.134 90.408 235.134 89.368C235.134 88.36 234.478 87.752 233.39 87.752C232.318 87.752 231.646 88.36 231.646 89.368ZM235.934 89.368C235.934 90.376 236.622 91 237.678 91C238.766 91 239.438 90.408 239.438 89.368C239.438 88.36 238.766 87.752 237.678 87.752C236.606 87.752 235.934 88.36 235.934 89.368Z" fill="#1D1D1B"/>
</svg>
