<svg width="541" height="522" viewBox="0 0 541 522" fill="none" xmlns="http://www.w3.org/2000/svg">
<path d="M17.2594 504.75H540L525.773 521H1V16.0122L17.2594 1V504.75Z" fill="#FBB33B"/>
<rect x="17" y="1" width="523" height="504" fill="white"/>
<path d="M17.2717 1L540 1V64.7812M17.2717 1L1 16.0312V79.8125M17.2717 1V64.7812M540 504.75L525.762 521H1M540 504.75H17.2717M540 504.75V442.594M1 521L17.2717 504.75M1 521V459.25M17.2717 504.75V442.594M17.2717 64.7812V82.25V442.594M17.2717 64.7812H540M17.2717 64.7812L1 79.8125M540 64.7812V442.594M1 79.8125V459.25M17.2717 442.594H540M17.2717 442.594L1 459.25" stroke="#171717"/>
</svg>
