<svg width="1240" height="1561" viewBox="0 0 1240 1561" fill="none" xmlns="http://www.w3.org/2000/svg">
<path d="M1198.7 1560H41.2893C19.0442 1560 1 1541.87 1 1519.5C1 1497.14 19.0319 1479 41.2893 1479H1198.71C1220.96 1479 1239 1497.13 1239 1519.5C1238.99 1541.87 1220.96 1560 1198.7 1560Z" fill="#FBB33B" stroke="black" stroke-width="2" stroke-miterlimit="10"/>
<path d="M1199 1528V2L1166.82 24.6013L1134.64 2L1102.47 24.6013L1070.3 2L1038.12 24.6013L1005.95 2L973.781 24.6013L941.612 2L909.456 24.6013L877.287 2L845.119 24.6013L812.95 2L780.781 24.6013L748.612 2L716.444 24.6013L684.275 2L652.119 24.6013L619.95 2L587.781 24.6013L555.625 2L523.456 24.6013L491.287 2L459.119 24.6013L426.962 2L394.794 24.6013L362.637 2L330.481 24.6013L298.312 2L266.156 24.6013L233.988 2L201.831 24.6013L169.663 2L137.506 24.6013L105.338 2L73.1688 24.6013L41 2V1528H1199Z" fill="#F499AD" stroke="#1D1D1B" stroke-width="2" stroke-miterlimit="10"/>
</svg>
