<svg width="345" height="609" viewBox="0 0 345 609" fill="none" xmlns="http://www.w3.org/2000/svg">
<path d="M332.834 608H12.1625C5.99932 608 1 602.629 1 596C1 589.374 5.99592 584 12.1625 584H332.837C339.001 584 344 589.371 344 596C343.997 602.629 339.001 608 332.834 608Z" fill="#FBB33B" stroke="black" stroke-miterlimit="10"/>
<path d="M327 592V2L318.413 15.0415L309.826 2L301.242 15.0415L292.658 2L284.071 15.0415L275.487 2L266.903 15.0415L258.319 2L249.738 15.0415L241.154 2L232.571 15.0415L223.987 2L215.403 15.0415L206.819 2L198.235 15.0415L189.651 2L181.071 15.0415L172.487 2L163.903 15.0415L155.322 2L146.738 15.0415L138.154 2L129.571 15.0415L120.99 2L112.406 15.0415L103.826 2L95.245 15.0415L86.6611 2L78.0806 15.0415L69.4967 2L60.9161 15.0415L52.3322 2L43.7517 15.0415L35.1678 2L26.5839 15.0415L18 2V592H327Z" fill="#F499AD" stroke="#1D1D1B" stroke-miterlimit="10"/>
</svg>
