<svg width="179" height="197" viewBox="0 0 179 197" fill="none" xmlns="http://www.w3.org/2000/svg">
<path d="M155.987 85.2349H12.6934V176.185H155.987V85.2349Z" stroke="black" stroke-width="2" stroke-miterlimit="10"/>
<path d="M50.0973 176.187H33.9414V183H50.0973V176.187Z" fill="black" stroke="black" stroke-width="0.75" stroke-miterlimit="10"/>
<path d="M134.737 176.186H118.581V182.999H134.737V176.186Z" fill="black" stroke="black" stroke-width="0.75" stroke-miterlimit="10"/>
<path d="M155.987 163.881H12.6934V169.036H155.987V163.881Z" fill="black" stroke="black" stroke-width="0.75" stroke-miterlimit="10"/>
<path d="M153.832 92.9233H14.8692C12.1765 92.9233 10 90.7493 10 88.0598C10 85.3703 12.1765 83.1963 14.8692 83.1963H153.832C156.524 83.1963 158.701 85.3703 158.701 88.0598C158.679 90.7493 156.502 92.9233 153.832 92.9233Z" fill="black" stroke="black" stroke-width="0.75" stroke-miterlimit="10"/>
<path d="M55.3705 127.842H29.207V137.502H55.3705V127.842Z" fill="#F8B33C" stroke="black" stroke-width="0.75" stroke-miterlimit="10"/>
<path d="M84.4062 98.7275V106.998" stroke="black" stroke-width="0.75" stroke-miterlimit="10"/>
<path d="M66.4561 106.886L72.3125 112.735" stroke="black" stroke-width="0.75" stroke-miterlimit="10"/>
<path d="M102.56 106.885L96.7031 112.735" stroke="black" stroke-width="0.75" stroke-miterlimit="10"/>
<path d="M66.4561 139.295L72.3125 133.445" stroke="black" stroke-width="0.75" stroke-miterlimit="10"/>
<path d="M102.56 139.295L96.7031 133.445" stroke="black" stroke-width="0.75" stroke-miterlimit="10"/>
<path d="M100.517 123.089H108.819" stroke="black" stroke-width="0.75" stroke-miterlimit="10"/>
<path d="M60.1953 123.09H68.4752" stroke="black" stroke-width="0.75" stroke-miterlimit="10"/>
<path d="M84.4059 142.028C94.9024 142.028 103.412 133.529 103.412 123.044C103.412 112.56 94.9024 104.061 84.4059 104.061C73.9094 104.061 65.4004 112.56 65.4004 123.044C65.4004 133.529 73.9094 142.028 84.4059 142.028Z" fill="#F8B33C" stroke="black" stroke-width="0.75" stroke-miterlimit="10"/>
<path d="M84.4968 139.115C93.3575 139.115 100.54 131.941 100.54 123.09C100.54 114.24 93.3575 107.065 84.4968 107.065C75.6362 107.065 68.4531 114.24 68.4531 123.09C68.4531 131.941 75.6362 139.115 84.4968 139.115Z" fill="black"/>
<path d="M71.6356 133.059L72.667 134.089L77.5697 129.192L76.5383 128.162L71.6356 133.059Z" fill="#F8B33C"/>
<path d="M139.472 127.842H113.309V137.502H139.472V127.842Z" fill="#F68B38" stroke="#1D1D1B" stroke-width="0.75" stroke-miterlimit="10"/>
<path d="M133.481 51.8711H35.1768L39.889 85.714H128.791L133.481 51.8711Z" stroke="black" stroke-width="1.5" stroke-miterlimit="10"/>
<path d="M49.7835 52.186L39.5739 80.2465L39.3496 80.8517" stroke="black" stroke-width="1.5" stroke-miterlimit="10"/>
<path d="M35.1758 52.186L49.7834 92.3269" stroke="black" stroke-width="1.5" stroke-miterlimit="10"/>
<path d="M63.8752 52.186L49.29 92.3269" stroke="black" stroke-width="1.5" stroke-miterlimit="10"/>
<path d="M49.29 52.186L63.8752 92.3269" stroke="black" stroke-width="1.5" stroke-miterlimit="10"/>
<path d="M77.9894 52.186L63.4043 92.3269" stroke="black" stroke-width="1.5" stroke-miterlimit="10"/>
<path d="M63.4043 52.186L77.9894 92.3269" stroke="black" stroke-width="1.5" stroke-miterlimit="10"/>
<path d="M92.1027 52.186L77.5176 92.3269" stroke="black" stroke-width="1.5" stroke-miterlimit="10"/>
<path d="M77.5176 52.186L92.1027 92.3269" stroke="black" stroke-width="1.5" stroke-miterlimit="10"/>
<path d="M106.216 52.186L91.6084 92.3269" stroke="black" stroke-width="1.5" stroke-miterlimit="10"/>
<path d="M91.6084 52.186L106.216 92.3269" stroke="black" stroke-width="1.5" stroke-miterlimit="10"/>
<path d="M120.308 52.186L105.723 92.3269" stroke="black" stroke-width="1.5" stroke-miterlimit="10"/>
<path d="M105.723 52.186L120.308 92.3269" stroke="black" stroke-width="1.5" stroke-miterlimit="10"/>
<path d="M118.895 92.3269L133.48 52.186" stroke="black" stroke-width="1.5" stroke-miterlimit="10"/>
<path d="M118.895 52.186L129.418 81.1431" stroke="black" stroke-width="1.5" stroke-miterlimit="10"/>
<path d="M169 33H151.431V38.2445H169V33Z" fill="black" stroke="black" stroke-width="0.75" stroke-miterlimit="10"/>
<path d="M133.479 51.2442V40.1499C133.479 37.5277 135.611 35.4209 138.214 35.4209H151.363" stroke="black" stroke-width="1.5" stroke-miterlimit="10"/>
<g clip-path="url(#clip0)">
<path d="M97.8572 21.3223H86.148L89.9852 3.72998L74.1426 30.678H85.8517L82.0145 48.2703L97.8572 21.3223Z" fill="#F8B33C" stroke="black" stroke-width="1.5" stroke-miterlimit="10"/>
</g>
<defs>
<clipPath id="clip0">
<rect width="26" height="52" fill="white" transform="translate(73)"/>
</clipPath>
</defs>
</svg>
