<svg width="1009" height="1596" viewBox="0 0 1009 1596" fill="none" xmlns="http://www.w3.org/2000/svg">
<path d="M975.218 1595H33.7717C15.6773 1595 1 1580.23 1 1562C1 1543.78 15.6673 1529 33.7717 1529H975.228C993.323 1529 1008 1543.77 1008 1562C1007.99 1580.23 993.323 1595 975.218 1595Z" fill="#FBB33B" stroke="black" stroke-width="2" stroke-miterlimit="10"/>
<path d="M968 1563V3L942.238 26.1048L916.477 3L890.725 26.1048L864.973 3L839.212 26.1048L813.46 3L787.708 26.1048L761.957 3L736.215 26.1048L710.463 3L684.712 26.1048L658.96 3L633.208 26.1048L607.457 3L581.705 26.1048L555.953 3L530.212 26.1048L504.46 3L478.708 26.1048L452.967 3L427.215 26.1048L401.463 3L375.712 26.1048L349.97 3L324.218 26.1048L298.477 3L272.735 26.1048L246.983 3L221.242 26.1048L195.49 3L169.748 26.1048L143.997 3L118.255 26.1048L92.5033 3L66.7517 26.1048L41 3V1563H968Z" fill="#F499AD" stroke="#1D1D1B" stroke-width="2" stroke-miterlimit="10"/>
</svg>
