<svg width="261" height="240" viewBox="0 0 261 240" fill="none" xmlns="http://www.w3.org/2000/svg">
<path d="M221.372 170.131H243.863V88.9938C243.863 88.5298 243.338 88.1465 242.682 88.1465H222.543C221.897 88.1465 221.362 88.5298 221.362 88.9938V170.131H221.372Z" fill="#F68B38"/>
<path d="M219.88 171.625H245.369V88.9849C245.369 87.6734 244.198 86.6445 242.694 86.6445H222.555C221.051 86.6445 219.88 87.6734 219.88 88.9849V171.625ZM242.371 168.629H222.868V89.6406H242.371V168.629Z" fill="#1D1D1B"/>
<path d="M198.884 182.066H221.375V68.7487C221.375 68.1031 220.85 67.5684 220.194 67.5684H200.055C199.409 67.5684 198.874 68.093 198.874 68.7487L198.884 182.066Z" fill="#F68B38"/>
<path d="M197.388 183.558H222.877V68.7378C222.877 67.2649 221.676 66.0645 220.202 66.0645H200.063C198.589 66.0645 197.388 67.2649 197.388 68.7378V183.558ZM219.879 180.562H200.376V69.0504H219.879V180.562Z" fill="#1D1D1B"/>
<path d="M177.523 55.4922H197.742C198.368 55.4922 198.883 55.9865 198.883 56.5917V204.49H176.392V56.5917C176.392 55.9865 176.897 55.4922 177.523 55.4922Z" fill="#F68B38"/>
<path d="M174.886 205.984H200.375V56.5925C200.375 55.1601 199.194 54 197.74 54H177.521C176.067 54 174.886 55.1601 174.886 56.5925V205.984ZM197.387 202.988H177.884V56.986H197.387V202.988Z" fill="#1D1D1B"/>
<path d="M153.892 220.977H176.383V68.65C176.383 68.0447 175.858 67.5605 175.202 67.5605H155.063C154.417 67.5605 153.882 68.0447 153.882 68.65L153.892 220.977Z" fill="#F68B38"/>
<path d="M152.396 222.479H177.885V68.6586C177.885 67.2362 176.683 66.0762 175.21 66.0762H155.071C153.597 66.0762 152.396 67.2362 152.396 68.6586V222.479ZM174.887 219.482H155.384V69.0621H174.887V219.482Z" fill="#1D1D1B"/>
<path d="M131.4 191.88H153.891V89.2157C153.891 88.6306 153.366 88.1465 152.71 88.1465H132.571C131.925 88.1465 131.39 88.6206 131.39 89.2157V191.88H131.4Z" fill="#F68B38"/>
<path d="M129.906 193.374H155.395V89.2068C155.395 87.7945 154.193 86.6445 152.719 86.6445H132.581C131.107 86.6445 129.906 87.7945 129.906 89.2068V193.374ZM152.396 190.378H132.894V89.6406H152.396V190.378Z" fill="#1D1D1B"/>
<path d="M114.764 139.001L137.144 225.616L139.062 233.03C139.889 236.258 142.756 238.498 146.017 238.498H228.016C231.286 238.498 234.143 236.248 234.981 233.03L259.279 139.001C260.48 134.351 257.038 129.791 252.313 129.791H219.768C219.203 129.791 218.749 130.265 218.749 130.84V130.85C218.749 148.716 204.546 163.202 187.021 163.202C169.497 163.202 155.294 148.716 155.294 130.85V130.84C155.294 130.265 154.84 129.791 154.274 129.791H121.729C117.005 129.791 113.563 134.351 114.764 139.001Z" fill="#F68B38"/>
<path d="M146.016 240H228.014C231.972 240 235.424 237.287 236.423 233.403L260.711 139.374C261.407 136.67 260.832 133.856 259.126 131.656C257.471 129.518 254.977 128.287 252.292 128.287H219.747C218.364 128.287 217.233 129.427 217.233 130.839C217.233 147.857 203.676 161.698 187 161.698C170.334 161.698 156.767 147.858 156.767 130.849C156.767 129.437 155.636 128.287 154.253 128.287H121.708C119.023 128.287 116.529 129.518 114.874 131.656C113.168 133.856 112.593 136.67 113.289 139.374L137.587 233.403C138.606 237.297 142.069 240 146.016 240ZM252.312 131.283C254.059 131.283 255.694 132.09 256.774 133.492C257.905 134.955 258.288 136.821 257.824 138.627L233.536 232.656C232.88 235.219 230.609 237.004 228.025 237.004H146.026C143.442 237.004 141.17 235.219 140.514 232.656L116.216 138.627C115.752 136.821 116.136 134.955 117.266 133.492C118.357 132.09 119.982 131.283 121.728 131.283H153.799C154.031 149.754 168.85 164.694 187.02 164.694C205.201 164.694 220.009 149.744 220.242 131.283H252.312Z" fill="#1D1D1B"/>
<path d="M210.372 161.126H232.863V79.9938C232.863 79.5298 232.338 79.1465 231.682 79.1465H211.543C210.897 79.1465 210.362 79.5298 210.362 79.9938V161.126H210.372Z" fill="#FBB33B"/>
<path d="M208.868 162.627H234.357V79.9925C234.357 78.6812 233.186 77.6523 231.682 77.6523H211.544C210.039 77.6523 208.868 78.6812 208.868 79.9925V162.627ZM231.369 159.631H211.867V80.6482H231.369V159.631Z" fill="#1D1D1B"/>
<path d="M187.88 173.059H210.371V59.7486C210.371 59.103 209.846 58.5684 209.19 58.5684H189.051C188.405 58.5684 187.87 59.0929 187.87 59.7486L187.88 173.059Z" fill="#FBB33B"/>
<path d="M186.38 174.551H211.869V59.7376C211.869 58.2649 210.668 57.0645 209.194 57.0645H189.055C187.581 57.0645 186.38 58.2649 186.38 59.7376V174.551ZM208.871 171.565H189.368V60.0605H208.871V171.565Z" fill="#1D1D1B"/>
<path d="M166.521 46.4922H186.74C187.366 46.4922 187.881 46.9864 187.881 47.5917V195.481H165.39V47.5917C165.38 46.9864 165.885 46.4922 166.521 46.4922Z" fill="#FBB33B"/>
<path d="M163.886 196.975H189.375V47.5924C189.375 46.16 188.194 45 186.74 45H166.521C165.067 45 163.886 46.16 163.886 47.5924V196.975ZM186.377 193.989H166.874V47.9959H186.377V193.989Z" fill="#1D1D1B"/>
<path d="M142.888 211.975H165.379V59.6579C165.379 59.0526 164.854 58.5684 164.198 58.5684H144.059C143.413 58.5684 142.878 59.0526 142.878 59.6579L142.888 211.975Z" fill="#FBB33B"/>
<path d="M141.386 213.467H166.875V59.6566C166.875 58.2343 165.674 57.0742 164.2 57.0742H144.061C142.587 57.0742 141.386 58.2343 141.386 59.6566V213.467ZM163.887 210.481H144.384V60.0701H163.887V210.481Z" fill="#1D1D1B"/>
<path d="M120.388 182.874H142.879V80.2158C142.879 79.6307 142.354 79.1465 141.698 79.1465H121.559C120.913 79.1465 120.378 79.6206 120.378 80.2158V182.874H120.388Z" fill="#FBB33B"/>
<path d="M118.894 184.366H144.383V80.2048C144.383 78.7926 143.182 77.6426 141.708 77.6426H121.569C120.095 77.6426 118.894 78.7926 118.894 80.2048V184.366ZM141.395 181.38H121.892V80.6385H141.395V181.38Z" fill="#1D1D1B"/>
<path d="M103.762 130.007L126.142 216.616L128.06 224.03C128.887 227.258 131.754 229.497 135.015 229.497H217.014C220.284 229.497 223.141 227.248 223.979 224.03L248.277 130.007C249.478 125.356 246.036 120.797 241.311 120.797H208.766C208.201 120.797 207.747 121.271 207.747 121.846V121.856C207.747 139.72 193.544 154.206 176.019 154.206C158.495 154.206 144.292 139.72 144.292 121.856V121.846C144.292 121.271 143.838 120.797 143.272 120.797H110.727C105.993 120.797 102.551 125.346 103.762 130.007Z" fill="#F499AD"/>
<path d="M135.016 231.001H217.014C220.961 231.001 224.424 228.288 225.423 224.404L249.711 130.381C250.407 127.677 249.832 124.863 248.126 122.664C246.471 120.526 243.977 119.295 241.292 119.295H208.747C207.364 119.295 206.233 120.435 206.233 121.847C206.233 138.864 192.676 152.704 176 152.704C159.324 152.704 145.767 138.864 145.767 121.857C145.767 120.445 144.636 119.295 143.253 119.295H110.708C108.023 119.295 105.529 120.526 103.874 122.664C102.168 124.863 101.593 127.677 102.289 130.381L126.587 224.404C127.606 228.288 131.059 231.001 135.016 231.001ZM241.302 122.291C243.049 122.291 244.684 123.098 245.764 124.5C246.895 125.963 247.278 127.829 246.814 129.634L222.516 223.658C221.86 226.22 219.589 228.005 217.004 228.005H135.006C132.421 228.005 130.16 226.22 129.494 223.658L105.196 129.634C104.732 127.829 105.116 125.963 106.246 124.5C107.336 123.098 108.962 122.291 110.708 122.291H142.779C143.011 140.761 157.83 155.7 176 155.7C194.18 155.7 208.989 140.75 209.221 122.291H241.302Z" fill="#1D1D1B"/>
<path d="M194.268 175.12C194.005 174.676 193.873 174.193 193.873 173.679C193.904 173.427 193.944 173.175 193.975 172.923C194.106 172.439 194.36 172.016 194.714 171.664L195.008 171.371C195.008 171.361 194.998 171.351 194.998 171.341C194.998 171.321 194.988 171.311 194.988 171.291C194.988 171.281 194.988 171.281 194.988 171.271C194.957 171.019 194.917 170.767 194.887 170.515C194.887 170.505 194.887 170.505 194.887 170.495C194.887 170.464 194.876 170.434 194.887 170.404C194.887 170.384 194.887 170.364 194.887 170.354C194.887 170.343 194.887 170.343 194.887 170.333C194.907 170.102 194.957 169.789 194.988 169.558C194.998 169.517 194.998 169.487 195.008 169.447C195.099 169.074 195.272 168.751 195.525 168.479C195.728 168.167 195.991 167.925 196.336 167.744C196.569 167.653 196.792 167.552 197.025 167.452C197.531 167.31 198.038 167.31 198.555 167.452C198.565 167.452 198.575 167.462 198.585 167.462C198.818 167.562 199.041 167.653 199.274 167.754H199.285C199.305 167.764 199.325 167.774 199.335 167.784L199.345 167.794C199.538 167.945 199.73 168.096 199.923 168.238C199.933 168.248 199.933 168.248 199.943 168.258C199.964 168.268 199.974 168.288 199.984 168.308C200.136 168.499 200.288 168.691 200.43 168.882C200.43 168.882 200.43 168.892 200.44 168.892C200.45 168.903 200.45 168.913 200.46 168.923C200.47 168.933 200.47 168.943 200.47 168.953C200.693 169.114 200.896 169.296 201.048 169.527C201.301 169.799 201.473 170.122 201.565 170.495C201.595 170.747 201.636 170.998 201.666 171.25C201.666 171.764 201.534 172.248 201.271 172.691C201.119 172.883 200.967 173.074 200.825 173.266C200.643 173.447 200.44 173.598 200.227 173.719C200.095 174.203 199.842 174.616 199.487 174.969C199.285 175.17 199.072 175.382 198.869 175.583C199.325 175.825 199.741 176.168 199.984 176.631C200.227 177.085 200.349 177.568 200.349 178.052C200.379 178.123 200.42 178.193 200.45 178.264C200.825 179.06 200.967 179.543 201.048 180.42C201.088 180.883 200.987 181.347 200.977 181.821C200.977 181.831 200.977 181.841 200.987 181.851C200.997 181.881 201.017 181.911 201.028 181.942C201.109 182.214 201.129 182.476 201.109 182.738C201.119 182.859 201.159 182.979 201.159 183.1C201.129 183.352 201.088 183.604 201.058 183.856C200.967 184.229 200.795 184.551 200.541 184.823C200.146 185.327 199.67 185.64 199.052 185.851C198.028 186.184 196.994 185.962 196.062 185.509C195.87 185.357 195.677 185.206 195.484 185.065C195.201 184.803 195.008 184.501 194.887 184.148C194.643 183.584 194.542 182.889 194.745 182.284C194.856 181.932 195.049 181.609 195.272 181.307C195.292 181.115 195.302 180.914 195.302 180.722C195.302 180.722 195.302 180.722 195.302 180.712C195.13 180.36 194.957 180.007 194.826 179.634C194.542 178.888 194.552 178.052 194.745 177.296C194.846 176.883 195.099 176.48 195.403 176.137C195.15 176.017 194.917 175.865 194.714 175.654C194.572 175.513 194.42 175.311 194.268 175.12Z" fill="#FBB33B"/>
<path d="M146.711 179.009C146.488 177.477 146.245 175.945 146.306 174.394C146.326 173.779 146.559 173.174 146.924 172.681C146.904 172.459 146.914 172.247 146.934 172.026C146.975 171.653 146.975 171.29 146.944 170.917C146.934 170.867 146.924 170.817 146.914 170.756C146.792 170.373 146.782 170 146.863 169.617C146.883 169.235 146.995 168.882 147.208 168.559C147.39 168.227 147.633 167.955 147.947 167.753C148.221 167.501 148.545 167.33 148.92 167.239C149.174 167.209 149.427 167.169 149.68 167.139C150.197 167.139 150.684 167.27 151.129 167.532C151.322 167.683 151.515 167.834 151.707 167.975C152.062 168.328 152.305 168.751 152.447 169.235C152.548 169.678 152.599 170.121 152.66 170.575C152.69 170.776 152.7 170.978 152.71 171.179C152.731 171.834 152.629 172.489 152.518 173.134C152.427 173.497 152.264 173.819 152.011 174.091C152.021 174.192 152.041 174.283 152.031 174.384C151.991 175.391 152.092 176.389 152.224 177.386C152.366 178.404 152.518 179.412 152.589 180.44C152.639 181.195 152.589 181.931 152.497 182.666C152.751 183.614 152.558 184.732 151.808 185.417C151.19 185.982 150.511 186.274 149.68 186.304C149.538 186.304 149.407 186.284 149.265 186.264C149.245 186.264 149.234 186.264 149.214 186.264C147.714 186.274 146.275 184.944 146.346 183.412C146.377 182.848 146.549 182.314 146.843 181.871C146.914 180.913 146.833 179.956 146.711 179.009Z" fill="#FBB33B"/>
<path d="M169.207 186.828C169.582 186.243 170.2 185.619 170.92 185.518C172.815 185.246 174.7 185.095 176.615 185.195C177.375 185.236 178.094 185.488 178.642 186.032C179.138 186.526 179.513 187.342 179.483 188.047C179.452 188.783 179.209 189.549 178.642 190.062C178.084 190.576 177.385 190.899 176.615 190.899L174.669 190.889C174.649 190.889 174.629 190.889 174.618 190.879C173.818 190.899 173.017 190.959 172.227 191.05C171.923 191.11 171.609 191.131 171.305 191.06C170.92 191.04 170.565 190.929 170.241 190.717C169.643 190.375 169.075 189.69 168.923 189.014C168.741 188.299 168.781 187.483 169.207 186.828Z" fill="#FBB33B"/>
<path d="M160.045 199.413C160.38 198.98 160.795 198.597 161.312 198.335C162.478 197.74 163.805 197.73 164.96 198.355C165.609 198.708 166.065 199.252 166.369 199.877C166.896 200.179 167.403 200.521 167.869 200.965C168.669 201.741 169.267 202.688 170.088 203.434C170.169 203.494 170.26 203.544 170.351 203.595C170.382 203.605 170.402 203.615 170.433 203.615C171.872 203.726 173.199 204.955 173.128 206.446C173.057 207.978 171.861 209.328 170.26 209.298C168.568 209.268 167.058 208.482 165.872 207.333C164.443 207.958 162.863 207.948 161.474 207.172C160.177 206.446 159.488 205.217 159.214 203.847C158.313 202.375 158.525 200.391 160.045 199.413Z" fill="#F68B38"/>
<path d="M190.075 180.913C190.055 179.623 190.065 178.323 190.065 177.034C190.065 174.404 190.024 171.764 189.69 169.154C189.619 168.6 189.883 168.076 190.288 167.693C190.146 166.685 190.693 165.426 191.818 165.244C191.899 165.234 191.98 165.204 192.072 165.184C192.072 165.194 192.112 165.184 192.173 165.153C192.234 165.133 192.284 165.123 192.345 165.113C192.284 165.123 192.254 165.133 192.213 165.143C192.224 165.133 192.234 165.133 192.254 165.123C192.335 165.083 192.406 165.033 192.487 164.982C192.821 164.771 193.125 164.519 193.44 164.297C194.21 163.753 195.132 163.38 196.074 163.249C198.091 162.957 200.037 163.41 201.952 164.035C202.651 164.257 203.219 164.831 203.442 165.506C203.877 165.577 204.303 165.758 204.607 166.091C205.002 166.514 205.225 167.018 205.235 167.602C205.235 167.824 205.266 168.045 205.286 168.267C205.387 168.872 205.549 169.476 205.782 170.041C205.874 170.323 205.884 170.615 205.823 170.897C205.813 171.179 205.722 171.451 205.57 171.693C205.468 171.874 205.316 172.005 205.154 172.136C205.448 172.499 205.641 172.943 205.641 173.457C205.641 173.86 205.641 174.263 205.641 174.666C205.701 175.018 205.691 175.381 205.641 175.724C205.63 178.505 205.62 181.276 205.61 184.057C205.61 185.175 204.627 186.254 203.452 186.203C202.286 186.153 201.293 185.266 201.293 184.057C201.303 181.89 201.313 179.714 201.324 177.547C199.722 176.439 199.783 173.698 201.496 172.711C201.618 172.409 201.81 172.147 202.043 171.925C201.861 171.703 201.719 171.461 201.638 171.179C201.435 170.696 201.283 170.192 201.182 169.678C201.08 169.194 201.02 168.69 200.979 168.196C200.928 168.186 200.868 168.176 200.817 168.166C200.037 167.914 199.256 167.673 198.456 167.511C198.354 167.491 198.253 167.471 198.152 167.451C197.909 167.411 197.949 167.421 198.273 167.461C198.131 167.39 197.838 167.421 197.675 167.411C197.483 167.401 197.28 167.401 197.088 167.411C197.027 167.411 196.966 167.421 196.905 167.421C196.733 167.461 196.551 167.491 196.378 167.552C196.348 167.562 196.307 167.572 196.277 167.592C196.257 167.602 196.247 167.612 196.216 167.622C195.902 167.824 195.588 168.015 195.284 168.237C194.879 168.539 194.453 168.821 193.997 169.033C194.007 169.073 194.017 169.114 194.017 169.164C194.372 171.985 194.392 174.827 194.392 177.668C194.392 179.069 194.382 180.46 194.423 181.86C194.443 182.586 194.463 183.301 194.514 184.027C194.575 184.964 194.473 185.679 193.815 186.435C193.176 187.181 192.011 187.181 191.2 186.768C190.42 186.364 190.126 185.609 190.055 184.793C190.025 184.48 190.106 184.178 190.247 183.896C190.217 182.898 190.095 181.88 190.075 180.913Z" fill="#F68B38"/>
<path d="M192.06 165.173C192.06 165.163 192.11 165.153 192.201 165.133C192.191 165.143 192.181 165.143 192.161 165.153C192.12 165.153 192.09 165.163 192.06 165.173Z" fill="#F68B38"/>
<path d="M141.685 182.656C141.685 182.636 141.695 182.606 141.695 182.585C141.746 182.072 141.776 181.558 141.806 181.054C141.857 180.066 141.857 179.079 141.837 178.091C141.786 176.066 141.614 174.051 141.452 172.035C141.381 171.189 142.029 170.363 142.83 170.04C142.688 168.972 142.719 167.904 143.134 166.886C143.337 166.393 143.55 165.919 143.864 165.486C144.31 164.881 144.755 164.438 145.363 163.984C146.275 163.319 147.36 163.007 148.464 162.896C149.417 162.795 150.349 162.987 151.221 163.329C152.052 162.825 153.116 162.977 153.866 163.642C156.429 165.909 156.642 169.466 156.652 172.65C156.663 174.625 156.673 176.6 156.683 178.585L156.693 181.548C156.693 182.323 156.642 183.059 156.926 183.795C157.686 185.76 154.666 187.493 153.329 185.881C153.207 185.739 153.085 185.588 152.964 185.447C152.467 184.853 152.254 184.077 152.427 183.382C152.285 182.162 152.386 180.872 152.386 179.704C152.386 179.119 152.376 178.535 152.376 177.95C149.944 177.708 149.944 173.97 152.366 173.718C152.386 171.653 152.589 169.113 151.464 167.42C151.403 167.441 151.342 167.471 151.271 167.491C150.785 167.602 150.349 167.551 149.913 167.4C149.934 167.41 149.954 167.41 149.964 167.42C149.721 167.32 149.468 167.269 149.224 167.209C149.042 167.199 148.86 167.199 148.677 167.209C148.495 167.249 148.312 167.299 148.13 167.36C148.008 167.42 147.897 167.491 147.785 167.561C147.674 167.662 147.562 167.773 147.461 167.894C147.37 168.025 147.299 168.166 147.218 168.307C147.157 168.478 147.106 168.66 147.076 168.841C147.066 169.083 147.046 169.325 147.076 169.577L147.015 169.133C147.096 169.708 147.106 170.222 146.792 170.746C146.559 171.139 146.134 171.501 145.678 171.663C145.708 171.794 145.759 171.915 145.779 172.056C146.144 176.368 146.407 180.651 145.728 184.953C145.495 186.415 143.671 186.787 142.567 186.233C141.239 185.558 140.894 183.795 141.685 182.656Z" fill="#F68B38"/>
<path d="M174.008 193.337C178.072 193.337 181.254 191.191 181.254 188.45C181.254 185.709 178.072 183.562 174.008 183.562C169.945 183.562 166.763 185.709 166.763 188.45C166.763 191.191 169.945 193.337 174.008 193.337ZM174.008 186.545C176.562 186.545 178.244 187.694 178.244 188.45C178.244 189.205 176.552 190.354 174.008 190.354C171.465 190.354 169.772 189.205 169.772 188.45C169.772 187.694 171.455 186.545 174.008 186.545Z" fill="#1D1D1B"/>
<path d="M205.811 189.306C206.642 189.306 207.311 188.641 207.311 187.815V170.151C207.311 165.042 203.135 160.891 197.998 160.891C192.86 160.891 188.685 165.042 188.685 170.151V187.493C188.685 188.319 189.354 188.984 190.185 188.984C191.015 188.984 191.684 188.319 191.684 187.493V170.151C191.684 166.695 194.512 163.873 197.998 163.873C201.484 163.873 204.311 166.685 204.311 170.151V187.815C204.301 188.641 204.98 189.306 205.811 189.306Z" fill="#1D1D1B"/>
<path d="M206.662 159.963C206.936 159.963 207.21 159.892 207.453 159.731C208.162 159.298 208.375 158.371 207.929 157.675C205.801 154.29 202.133 152.174 198.12 152.012C194.299 151.841 190.722 153.443 188.29 156.355C187.763 156.99 187.844 157.927 188.482 158.461C189.121 158.985 190.073 158.905 190.6 158.27C192.435 156.073 195.15 154.904 197.998 154.995C201.018 155.116 203.774 156.708 205.385 159.257C205.669 159.721 206.166 159.963 206.662 159.963Z" fill="#1D1D1B"/>
<path d="M201.676 187.816C202.507 187.816 203.176 187.151 203.176 186.325V178.495C203.176 178.002 202.933 177.538 202.527 177.266L200.652 175.986L202.618 174.414C202.973 174.132 203.176 173.699 203.176 173.245V171.331C203.176 167.794 200.804 164.912 197.896 164.912C194.988 164.912 192.616 167.794 192.616 171.331V186.113C192.616 186.939 193.285 187.604 194.116 187.604C194.947 187.604 195.616 186.939 195.616 186.113V171.331C195.616 169.477 196.66 167.905 197.896 167.905C199.132 167.905 200.166 169.477 200.166 171.331V172.53L197.187 174.918C196.822 175.21 196.609 175.664 196.629 176.137C196.65 176.611 196.893 177.044 197.278 177.316L200.166 179.281V186.315C200.176 187.141 200.845 187.816 201.676 187.816Z" fill="#1D1D1B"/>
<path d="M208.497 192.128C208.771 192.128 209.045 192.057 209.288 191.906C209.997 191.473 210.21 190.546 209.774 189.851C207.717 186.566 203.096 184.439 197.989 184.439C193.155 184.439 188.767 186.324 186.548 189.347C186.061 190.012 186.203 190.949 186.882 191.433C187.551 191.916 188.493 191.775 188.98 191.1C190.611 188.863 194.148 187.422 197.989 187.422C202.012 187.422 205.721 189.034 207.221 191.423C207.504 191.876 208.001 192.128 208.497 192.128Z" fill="#1D1D1B"/>
<path d="M201.576 195.594C200.921 195.594 200.39 195.066 200.39 194.415C200.39 193.764 200.921 193.236 201.576 193.236C202.231 193.236 202.762 193.764 202.762 194.415C202.762 195.066 202.231 195.594 201.576 195.594Z" fill="#1D1D1B"/>
<path d="M194.601 195.594C193.947 195.594 193.416 195.066 193.416 194.415C193.416 193.764 193.947 193.236 194.601 193.236C195.256 193.236 195.787 193.764 195.787 194.415C195.787 195.066 195.256 195.594 194.601 195.594Z" fill="#1D1D1B"/>
<path d="M197.894 200.723C197.24 200.723 196.709 200.195 196.709 199.544C196.709 198.893 197.24 198.365 197.894 198.365C198.549 198.365 199.08 198.893 199.08 199.544C199.08 200.195 198.549 200.723 197.894 200.723Z" fill="#1D1D1B"/>
<path d="M157.553 189.306C158.384 189.306 159.053 188.641 159.053 187.815V170.151C159.053 165.042 154.878 160.891 149.74 160.891C144.602 160.891 140.427 165.042 140.427 170.151V187.493C140.427 188.319 141.096 188.984 141.927 188.984C142.758 188.984 143.427 188.319 143.427 187.493V170.151C143.427 166.695 146.254 163.873 149.74 163.873C153.226 163.873 156.053 166.685 156.053 170.151V187.815C156.053 188.641 156.722 189.306 157.553 189.306Z" fill="#1D1D1B"/>
<path d="M141.198 159.964C141.695 159.964 142.192 159.712 142.475 159.259C144.076 156.709 146.843 155.117 149.863 154.996C152.71 154.896 155.426 156.075 157.26 158.271C157.797 158.906 158.74 158.997 159.378 158.463C160.017 157.939 160.108 156.992 159.571 156.357C157.129 153.445 153.521 151.863 149.741 152.014C145.728 152.175 142.06 154.291 139.932 157.677C139.496 158.372 139.709 159.299 140.408 159.732C140.641 159.894 140.925 159.964 141.198 159.964Z" fill="#1D1D1B"/>
<path d="M153.418 187.816C154.249 187.816 154.918 187.151 154.918 186.325V178.495C154.918 178.002 154.675 177.538 154.269 177.266L152.395 175.986L154.361 174.414C154.715 174.132 154.918 173.699 154.918 173.245V171.331C154.918 167.794 152.547 164.912 149.638 164.912C146.73 164.912 144.359 167.794 144.359 171.331V186.113C144.359 186.939 145.027 187.604 145.858 187.604C146.689 187.604 147.358 186.939 147.358 186.113V171.331C147.358 169.477 148.402 167.905 149.628 167.905C150.865 167.905 151.908 169.477 151.908 171.331V172.53L148.929 174.918C148.564 175.21 148.351 175.664 148.372 176.137C148.392 176.611 148.635 177.044 149.02 177.316L151.908 179.281V186.315C151.918 187.141 152.587 187.816 153.418 187.816Z" fill="#1D1D1B"/>
<path d="M160.248 192.127C160.522 192.127 160.795 192.056 161.039 191.905C161.748 191.472 161.961 190.545 161.515 189.85C159.458 186.565 154.827 184.438 149.729 184.438C144.896 184.438 140.508 186.323 138.288 189.346C137.802 190.011 137.944 190.948 138.623 191.432C139.292 191.915 140.234 191.764 140.72 191.099C142.352 188.862 145.889 187.421 149.729 187.421C153.753 187.421 157.461 189.033 158.961 191.422C159.255 191.875 159.742 192.127 160.248 192.127Z" fill="#1D1D1B"/>
<path d="M153.328 195.594C152.673 195.594 152.142 195.066 152.142 194.415C152.142 193.764 152.673 193.236 153.328 193.236C153.983 193.236 154.514 193.764 154.514 194.415C154.514 195.066 153.983 195.594 153.328 195.594Z" fill="#1D1D1B"/>
<path d="M146.346 195.594C145.691 195.594 145.16 195.066 145.16 194.415C145.16 193.764 145.691 193.236 146.346 193.236C147 193.236 147.531 193.764 147.531 194.415C147.531 195.066 147 195.594 146.346 195.594Z" fill="#1D1D1B"/>
<path d="M149.65 200.723C148.995 200.723 148.465 200.195 148.465 199.544C148.465 198.893 148.995 198.365 149.65 198.365C150.305 198.365 150.836 198.893 150.836 199.544C150.836 200.195 150.305 200.723 149.65 200.723Z" fill="#1D1D1B"/>
<path d="M190.388 210.568C191.178 210.568 191.837 209.953 191.888 209.167C191.938 208.341 191.31 207.635 190.479 207.585C189.618 207.535 188.949 206.789 189.01 205.933C189.03 205.62 189.142 205.328 189.334 205.076C189.841 204.421 189.719 203.484 189.05 202.98C188.392 202.476 187.449 202.607 186.942 203.262C186.385 203.988 186.061 204.844 186.01 205.751C185.858 208.26 187.784 210.417 190.297 210.568C190.327 210.568 190.358 210.568 190.388 210.568Z" fill="#1D1D1B"/>
<path d="M157.309 210.567C157.34 210.567 157.37 210.567 157.401 210.567C158.961 210.476 160.35 209.61 161.12 208.25C161.525 207.534 161.272 206.617 160.542 206.214C159.823 205.811 158.9 206.063 158.495 206.788C158.232 207.252 157.755 207.554 157.218 207.585C156.387 207.635 155.759 208.34 155.81 209.166C155.86 209.952 156.519 210.567 157.309 210.567Z" fill="#1D1D1B"/>
<path d="M173.068 211C181.6 211 187.883 208.833 188.268 208.702C189.049 208.43 189.454 207.573 189.18 206.798C188.907 206.022 188.045 205.619 187.265 205.881C187.133 205.931 174 210.425 160.319 206.122C159.519 205.87 158.688 206.314 158.435 207.1C158.181 207.886 158.627 208.722 159.417 208.974C164.221 210.486 168.913 211 173.068 211Z" fill="#1D1D1B"/>
<path d="M176.546 210.859C177.073 210.859 177.58 210.587 177.853 210.104C178.259 209.388 178.015 208.481 177.296 208.068C177.245 208.038 172.482 205.277 168.743 199.352C167.689 197.75 164.669 195.09 160.677 196.359C160.383 196.46 158.001 197.316 157.018 199.795C156.289 201.639 156.572 203.786 157.859 206.153L159.248 208.511C159.663 209.227 160.585 209.469 161.305 209.045C162.024 208.632 162.257 207.715 161.842 207L160.474 204.692C159.653 203.181 159.42 201.901 159.805 200.914C160.271 199.694 161.619 199.201 161.629 199.201C164.426 198.314 166.189 200.944 166.21 200.964C170.364 207.534 175.583 210.537 175.806 210.668C176.039 210.799 176.293 210.859 176.546 210.859Z" fill="#1D1D1B"/>
<path d="M169.156 210.859C169.795 210.859 170.392 210.446 170.585 209.811C170.828 209.025 170.392 208.189 169.602 207.937C167.575 207.302 165.174 203.503 164.13 201.256C163.785 200.511 162.893 200.178 162.133 200.521C161.384 200.863 161.049 201.75 161.394 202.496C161.728 203.211 164.738 209.549 168.7 210.789C168.852 210.839 169.004 210.859 169.156 210.859Z" fill="#1D1D1B"/>
<path d="M69.995 1C108.103 1 139 27.8528 139 60.9813C139 82.383 126.092 101.16 106.691 111.77C107.477 113.933 118.539 144.507 116.987 143.994C115.373 143.461 74.6336 120.952 74.6336 120.952C74.6336 120.952 71.7697 120.963 70.005 120.963C31.8975 120.963 1 94.1098 1 60.9813C0.989914 27.8528 31.8874 1 69.995 1Z" fill="#F499AD" stroke="#1D1D1B" stroke-width="2" stroke-miterlimit="10"/>
<path d="M117.604 32.7419C111.04 27.7938 105.201 23.2177 97.5875 19.8586C88.9555 16.0469 79.6984 14.1964 70.5522 12.0944C70.1791 12.014 70.2698 11.4507 70.6429 11.4507C85.7185 11.2194 109.95 18.3802 117.856 32.4905C117.937 32.6414 117.766 32.8626 117.604 32.7419Z" fill="#1D1D1B"/>
<path d="M50.4952 104.992C50.596 105.042 50.5758 105.223 50.4649 105.243C41.0161 106.651 27.5136 98.8064 22.9859 90.7606C22.8044 90.4387 23.2179 90.137 23.4801 90.3784C27.312 93.8683 31.4061 97.0062 35.9641 99.4802C40.633 101.995 45.7052 102.92 50.4952 104.992Z" fill="#1D1D1B"/>
<path d="M21.4125 88.8097C21.1302 88.5482 20.7168 88.4175 20.4142 88.1761C20.021 87.8643 19.6983 87.5123 19.3554 87.1402C18.6697 86.3758 18.105 85.6115 18.1857 84.5455C18.1958 84.4047 18.3672 84.2538 18.5084 84.3644C19.2344 84.8974 19.6983 85.5411 20.2529 86.235C20.5454 86.5971 20.868 86.929 21.1403 87.3112C21.4025 87.7034 21.5033 88.156 21.7352 88.5482C21.8764 88.7594 21.5941 88.9706 21.4125 88.8097Z" fill="#1D1D1B"/>
<path d="M43.1548 41.5556C43.599 40.881 43.8458 40.0583 45.557 40.0583H46.0506V49.3875C46.0342 49.6837 45.8696 49.9634 45.5899 50.095C45.4747 50.1609 45.3596 50.2267 45.2608 50.2925C44.9976 50.4899 45.1457 51 45.4747 51H50.5589C50.9045 51 51.069 50.4899 50.7893 50.2925C50.6906 50.2267 50.5918 50.1609 50.4931 50.1115C50.2463 49.947 50.0818 49.6673 50.0818 49.3875V40.0583H50.5589C52.2701 40.0583 52.5334 40.881 52.9612 41.5556C53.1422 41.8188 53.389 41.9505 53.6193 41.9505C53.9319 41.9505 54.1787 41.7201 54.0965 41.2594C54.0142 40.6835 53.8497 40.0089 53.7509 39.5647C53.6687 39.2685 53.4219 39.0875 53.1257 39.0875H42.9902C42.6941 39.0875 42.4473 39.2685 42.3814 39.5647C42.2663 40.0089 42.1017 40.6835 42.0195 41.2594C41.9372 41.7201 42.184 41.9505 42.4966 41.9505C42.727 41.9505 42.9738 41.8188 43.1548 41.5556ZM55.0036 39.8115C55.0859 39.8773 55.2011 39.9431 55.3327 40.0089C55.5959 40.1406 55.7769 40.4203 55.7769 40.7164V49.3875C55.7769 49.6837 55.5959 49.9634 55.3327 50.095C55.2011 50.1609 55.0859 50.2267 55.0036 50.2925C54.7239 50.4899 54.872 51 55.2011 51H64.991C65.2872 51 65.534 50.8026 65.5998 50.5228C65.715 50.0786 65.8795 49.404 65.9618 48.8117C66.044 48.3674 65.7972 48.1206 65.4846 48.1206C65.2543 48.1206 65.0075 48.2522 64.8265 48.5319C64.3822 49.2065 64.1354 50.0128 62.4242 50.0128H60.3017C60.0055 50.0128 59.8081 49.8153 59.8081 49.5192V45.307H60.9928C63.1317 45.307 62.4078 46.6233 63.1482 46.6891C64.0038 46.7714 64.1025 42.8554 63.2305 42.8883C62.4407 42.9212 63.1317 44.3363 60.9928 44.3363H59.8081V40.881V40.5848C59.8081 40.2886 60.0055 40.0912 60.3017 40.0912H62.0952C63.8063 40.0912 64.0531 40.9139 64.4974 41.5885C64.6784 41.8517 64.9252 41.9834 65.1391 41.9834C65.4517 41.9834 65.6985 41.753 65.6327 41.2923C65.534 40.7 65.3859 40.0418 65.2707 39.5976C65.2049 39.3014 64.9416 39.104 64.6455 39.104H55.2011C54.872 39.104 54.7239 39.614 55.0036 39.8115ZM67.4472 51H69.6685C69.9976 51 70.1456 50.4899 69.8659 50.2925C69.8166 50.2596 69.7672 50.2267 69.7178 50.1938C69.4875 50.0292 69.3888 49.7166 69.5039 49.4204L69.5533 49.2559L70.1292 47.7751H75.0653L75.6412 49.3546C75.7234 49.6179 75.6247 49.8976 75.3944 50.095C75.2956 50.1609 75.2134 50.2431 75.1311 50.2925C74.8514 50.4899 74.9995 51 75.3286 51H80.9228C81.2683 51 81.4164 50.4899 81.1367 50.2925C81.038 50.2267 80.9228 50.1609 80.8241 50.095C80.5608 49.947 80.314 49.6837 80.1988 49.4204L76.1348 39.1369C76.0361 38.8572 75.7564 38.6597 75.4602 38.6433L72.0707 38.4458C71.791 38.4294 71.6594 38.5939 71.7581 38.8736L72.1365 39.8938L68.2864 49.4204C68.1876 49.6673 67.9408 49.8976 67.6447 50.0457C67.4801 50.128 67.365 50.2102 67.2333 50.2925C66.9536 50.4899 67.1017 51 67.4472 51ZM72.6795 41.3581L74.7033 46.8043H70.5241L72.6795 41.3581ZM82.3722 51H84.5934C84.9389 51 85.087 50.4899 84.8073 50.2925C84.7086 50.2267 84.6099 50.1609 84.5276 50.1115C84.2643 49.947 84.0833 49.6673 84.0998 49.3875L84.3631 41.8517L87.6538 50.5393C87.769 50.819 88.0322 51 88.3284 51H89.1017C89.3979 51 89.6447 50.819 89.7599 50.5393L92.8367 41.9011L93.2151 49.3875C93.1987 49.6837 93.0342 49.9634 92.7544 50.095C92.6393 50.1609 92.5241 50.2267 92.4254 50.2925C92.1621 50.4899 92.3102 51 92.6393 51H97.7235C98.069 51 98.2335 50.4899 97.9538 50.2925C97.8551 50.2267 97.7564 50.1609 97.6576 50.1115C97.4108 49.947 97.2463 49.6673 97.2463 49.3875L96.8185 40.6342C96.835 40.3709 96.9995 40.1077 97.2298 39.9596C97.3286 39.9102 97.4273 39.8444 97.526 39.7786C97.8057 39.5811 97.6412 39.0711 97.2957 39.0711H93.3139C93.0177 39.0711 92.7544 39.2521 92.6393 39.5318L90.2699 45.9652L87.6702 39.5318C87.5551 39.2521 87.2918 39.0711 86.9956 39.0711H82.7012C82.3722 39.0711 82.2241 39.5811 82.5038 39.7786C82.5861 39.8444 82.7012 39.9102 82.8329 39.976C83.0632 40.0912 83.2277 40.3051 83.2607 40.5519L82.948 49.3875C82.948 49.6837 82.767 49.9634 82.5038 50.095C82.3722 50.1609 82.257 50.2267 82.1747 50.2925C81.895 50.4899 82.0431 51 82.3722 51ZM34.9507 64.8115C35.0329 64.8773 35.1481 64.9431 35.2797 65.0089C35.543 65.1406 35.724 65.4203 35.724 65.7164V74.3875C35.724 74.6837 35.543 74.9634 35.2797 75.095C35.1481 75.1609 35.0329 75.2267 34.9507 75.2925C34.671 75.4899 34.819 76 35.1481 76H40.2488C40.5943 76 40.7424 75.4899 40.4627 75.2925C40.3639 75.2267 40.2652 75.1609 40.1829 75.1115C39.9197 74.947 39.7551 74.6673 39.7551 74.3875V70.6361H40.9398C43.0788 70.6361 42.3548 71.9524 43.0952 72.0182C43.9508 72.1005 44.0496 68.1845 43.1775 68.2174C42.3877 68.2503 43.0788 69.6653 40.9398 69.6653H39.7551V65.881V65.5848C39.7551 65.2886 39.9526 65.0912 40.2488 65.0912H42.0422C43.7534 65.0912 44.0002 65.9139 44.4444 66.5885C44.6254 66.8517 44.8722 66.9834 45.0861 66.9834C45.3988 66.9834 45.6456 66.753 45.5798 66.2923C45.481 65.7 45.3329 65.0418 45.2178 64.5976C45.152 64.3014 44.8887 64.104 44.5925 64.104H35.1481C34.819 64.104 34.671 64.614 34.9507 64.8115ZM46.5197 64.8279C46.6019 64.8773 46.7171 64.9431 46.8487 65.0089C47.112 65.157 47.293 65.4367 47.293 65.7329V74.4534C47.2601 74.7166 47.0956 74.9799 46.8487 75.095C46.7336 75.1609 46.6019 75.2267 46.5197 75.2925C46.24 75.4899 46.388 76 46.7336 76H51.8178C52.1633 76 52.3114 75.4899 52.0317 75.2925C51.9329 75.2267 51.8507 75.1609 51.7519 75.1115C51.4887 74.947 51.3242 74.6673 51.3242 74.3875V71.1133H51.6697C52.4924 71.1297 53.1341 71.3601 53.9074 73.1041L54.4339 74.3382H54.4174L54.4668 74.4369C54.582 74.7166 54.4997 74.9799 54.22 75.1115C54.1213 75.1773 54.0061 75.2267 53.9238 75.2925C53.6441 75.4899 53.7922 76 54.1377 76H59.7814C60.1269 76 60.275 75.4899 59.9953 75.2925C59.913 75.2431 59.8472 75.2102 59.7649 75.1773C59.4852 75.0786 59.2219 74.8482 59.0903 74.5685L58.1524 72.5941C57.6588 71.3765 56.9678 70.7677 56.3261 70.6525C58.2841 70.1096 59.4194 69.1224 59.4194 67.6415C59.4194 65.2722 56.54 64.0875 51.9988 64.104L46.7171 64.1204C46.388 64.1204 46.24 64.6305 46.5197 64.8279ZM51.3242 65.6013C51.3242 65.3051 51.5216 65.0912 51.8178 65.0912C54.2858 65.1077 55.3882 65.9139 55.3882 67.658C55.3882 69.3856 54.2529 70.126 51.8178 70.126C51.5216 70.126 51.3242 69.9286 51.3242 69.6324V65.8974V65.6013ZM61.9651 76H67.0657C67.4112 76 67.5593 75.4899 67.2796 75.2925C67.1809 75.2267 67.0822 75.1609 66.9999 75.1115C66.7366 74.947 66.5721 74.6673 66.5721 74.3875V65.8481V65.6835C66.5721 65.4038 66.7366 65.1241 66.9999 64.9596C67.0822 64.9102 67.1809 64.8444 67.2796 64.7786C67.5593 64.5811 67.4112 64.0711 67.0657 64.0711H61.9651C61.636 64.0711 61.4879 64.5811 61.7676 64.7786C61.8499 64.8444 61.9651 64.9102 62.0967 64.976C62.36 65.1077 62.5409 65.3874 62.5409 65.6835V74.3875C62.5409 74.6837 62.36 74.9634 62.0967 75.095C61.9651 75.1609 61.8499 75.2267 61.7676 75.2925C61.4879 75.4899 61.636 76 61.9651 76ZM68.8864 64.8115C68.9687 64.8773 69.0839 64.9431 69.2155 65.0089C69.4788 65.1406 69.6597 65.4203 69.6597 65.7164V74.3875C69.6597 74.6837 69.4788 74.9634 69.2155 75.095C69.0839 75.1609 68.9687 75.2267 68.8864 75.2925C68.6067 75.4899 68.7548 76 69.0839 76H78.8738C79.17 76 79.4168 75.8026 79.4826 75.5228C79.5978 75.0786 79.7623 74.404 79.8446 73.8117C79.9268 73.3674 79.68 73.1206 79.3674 73.1206C79.1371 73.1206 78.8903 73.2522 78.7093 73.5319C78.265 74.2065 78.0182 75.0128 76.307 75.0128H74.1845C73.8883 75.0128 73.6909 74.8153 73.6909 74.5192V70.307H74.8756C77.0145 70.307 76.2906 71.6233 77.031 71.6891C77.8866 71.7714 77.9853 67.8554 77.1133 67.8883C76.3235 67.9212 77.0145 69.3363 74.8756 69.3363H73.6909V65.881V65.5848C73.6909 65.2886 73.8883 65.0912 74.1845 65.0912H75.978C77.6891 65.0912 77.936 65.9139 78.3802 66.5885C78.5612 66.8517 78.808 66.9834 79.0219 66.9834C79.3345 66.9834 79.5813 66.753 79.5155 66.2923C79.4168 65.7 79.2687 65.0418 79.1535 64.5976C79.0877 64.3014 78.8245 64.104 78.5283 64.104H69.0839C68.7548 64.104 68.6067 64.614 68.8864 64.8115ZM81.182 73.1041C81.2807 74.947 83.7323 76.2304 87.2369 76.2304C90.4948 76.2304 92.7983 74.9141 92.9134 72.627C93.1273 68.5629 84.4892 68.0529 84.3411 65.8645C84.2753 65.0912 85.246 64.5153 86.5623 64.6963C88.6026 64.976 88.5203 67.1644 90.2315 67.8719C90.4783 67.9706 90.7251 68.02 90.9555 68.02C91.7617 68.02 92.4363 67.4605 92.173 66.4239C91.8604 65.2064 89.8201 63.8572 86.5952 63.8572C83.5677 63.8407 81.3465 65.1241 81.3465 67.4112C81.3465 71.5246 89.9847 71.9853 89.5898 74.3711C89.4582 75.1609 88.6026 75.5558 87.4673 75.4241C84.3904 75.095 84.8676 71.7879 82.6134 71.6891C81.7414 71.6398 81.1326 72.2815 81.182 73.1041ZM94.3624 67.4276C94.3953 68.8097 95.4319 69.616 96.7317 69.616C97.9164 69.616 98.8214 68.892 98.5087 68.4478C97.5215 66.9998 97.7683 64.9431 99.4466 64.9431C100.648 64.9431 101.076 65.9962 100.812 67.3289C100.384 69.435 98.2784 70.4222 98.5581 71.9688C98.6075 72.265 98.9036 72.4954 99.2162 72.4954C99.2821 72.4954 99.3479 72.4954 99.4137 72.4954C99.6605 72.4789 99.8579 72.2979 100.006 71.9524C100.681 70.488 104.185 70.3893 104.449 67.7896C104.695 65.5848 102.54 64.0711 99.3643 64.104C97.2418 64.0711 94.313 65.0418 94.3624 67.4276ZM97.3241 74.7331C97.3241 75.7696 98.0316 76.4113 99.1175 76.4113C100.236 76.4113 100.911 75.8026 100.911 74.7331C100.911 73.6965 100.236 73.0712 99.1175 73.0712C97.9987 73.0712 97.3241 73.6965 97.3241 74.7331Z" fill="#1D1D1B"/>
</svg>
