<svg width="662" height="347" viewBox="0 0 662 347" fill="none" xmlns="http://www.w3.org/2000/svg">
<path d="M85.8126 224.348C85.7022 223.34 85.5814 222.326 85.3554 221.344C85.1505 220.441 84.7985 219.579 84.3781 218.749C84.1785 216.407 83.4481 214.311 82.9069 212.015C82.7703 211.438 82.5024 210.918 82.1503 210.471C82.0715 209.851 82.0085 209.226 81.9559 208.622C81.8981 205.203 81.3464 201.836 80.2535 198.59C80.2168 198.485 80.18 198.39 80.1379 198.296C80.0118 196.736 79.9225 195.176 79.8017 193.626C79.7859 193.416 79.7544 193.216 79.7123 193.022C79.6703 192.544 79.6283 192.071 79.5757 191.593C79.7176 190.79 79.6598 189.944 79.4128 189.172C79.2394 185.248 78.0993 181.377 77.6001 177.359C76.8435 171.276 75.8242 164.658 73.0341 159.137C72.7084 158.491 72.2985 157.998 71.8414 157.635C71.7206 157.472 71.5945 157.315 71.4631 157.157C70.0234 154.541 68.2055 152.172 65.552 151.027C62.6359 148.459 59.1523 146.437 55.1853 146.358C54.9804 146.352 54.7913 146.373 54.6021 146.389C54.4813 144.729 53.5985 143.143 52.038 142.234C52.8209 140.485 53.5408 138.705 54.6389 137.124C54.7282 136.992 54.7808 136.851 54.8123 136.698C54.9331 136.614 55.0487 136.525 55.1591 136.43C55.2116 136.388 55.2642 136.336 55.3062 136.278C55.4533 136.141 55.5532 135.984 55.6162 135.795C55.7108 135.616 55.7528 135.427 55.7476 135.217C55.7528 135.012 55.7108 134.818 55.6162 134.639C55.5584 134.455 55.4533 134.293 55.3062 134.156C55.2064 134.077 55.1065 133.998 55.0014 133.92C54.7703 133.783 54.5181 133.715 54.2448 133.715C54.1135 133.73 53.9821 133.751 53.8455 133.767C53.6511 133.82 53.483 133.92 53.3253 134.046C52.926 133.715 52.4163 133.51 51.8384 133.489C51.1553 133.468 50.4723 133.442 49.7944 133.421C49.7577 133.4 49.7262 133.368 49.6894 133.352C48.5177 132.785 47.1673 132.438 45.8748 132.801C45.2548 132.979 44.8554 133.337 44.351 133.715C44.6032 133.526 43.999 133.941 44.0095 133.93C43.8886 134.009 43.8624 134.035 43.8571 134.046C43.8466 134.046 43.8046 134.051 43.6522 134.109C43.5681 134.14 43.4893 134.182 43.4105 134.219C42.202 134.34 40.7991 133.92 39.785 133.463C39.68 133.415 39.5749 133.384 39.4698 133.347C39.433 133.305 39.3962 133.258 39.3542 133.226C39.1388 132.995 38.8813 132.827 38.5818 132.732C38.2981 132.58 37.9881 132.512 37.6623 132.528C37.3313 132.517 37.0265 132.585 36.7428 132.732C36.4486 132.827 36.1911 132.995 35.9704 133.226L35.5974 133.709C35.382 134.082 35.2716 134.487 35.2716 134.918C35.2979 135.128 35.3294 135.343 35.3557 135.553C35.4555 135.916 35.6342 136.236 35.8864 136.509C35.9599 136.656 36.0492 136.793 36.1648 136.914C36.333 137.176 36.5589 137.381 36.8374 137.528C36.8847 137.56 36.9372 137.57 36.9845 137.596C37.4311 139.524 38.4242 141.284 39.2701 143.08C38.771 143.316 38.3454 143.689 37.9933 144.178C37.5047 144.85 37.326 145.67 37.242 146.484C37.2105 146.778 37.2105 147.072 37.2262 147.366C36.6377 147.072 35.9862 146.904 35.2979 146.946C34.1735 147.014 33.1646 147.324 32.3345 147.923C31.394 148.065 30.4745 148.301 29.576 148.685C28.4148 149.184 26.7492 150.397 25.9768 150.654C24.8576 151.027 23.9329 151.768 23.3496 152.708C23.2971 152.761 23.2446 152.818 23.192 152.871C20.5754 155.172 18.6313 158.155 17.2862 161.569C16.7398 162.194 16.0252 163.014 15.8098 163.413C15.1582 164.59 14.8587 165.824 14.6538 167.106C14.4962 167.405 14.3333 167.699 14.1809 167.999C13.645 169.028 13.5346 170.026 13.7133 170.935C13.6608 171.098 13.6135 171.266 13.5714 171.444C12.6572 175.594 10.7131 179.528 10.4189 183.783C10.2717 185.952 10.3926 188.069 10.1246 190.233C9.87767 192.239 9.67801 194.057 9.88293 196.047C9.47835 197.739 9.17885 199.446 8.96868 201.179C8.81105 202.492 8.96868 204.042 8.70596 205.339C8.0702 206.463 7.84952 207.756 8.18054 208.948C7.88104 209.557 7.68664 210.235 7.61833 210.949C7.48697 212.383 7.06663 213.838 6.76713 215.251C6.57272 216.191 6.36781 217.914 6.08933 218.581C5.95272 218.833 5.83187 219.096 5.73204 219.369C5.6795 219.511 5.63221 219.647 5.57967 219.789C5.45882 220.131 5.38526 220.456 5.34323 220.777C4.29237 221.449 3.77744 222.526 3.71965 223.687C3.27829 223.96 2.9105 224.307 2.62676 224.737C2.23269 225.168 1.96472 225.677 1.82285 226.26C1.67048 226.754 1.62845 227.248 1.69675 227.742C1.58641 230.063 3.02608 232.469 6.02103 232.469C6.76713 232.469 7.40816 232.306 7.95986 232.044C8.17003 232.149 8.38545 232.248 8.62189 232.332C12.8358 233.803 17.2021 234.591 21.6525 234.827C22.2095 235.085 22.819 235.221 23.46 235.185C24.6264 235.122 25.7876 235.148 26.9436 235.221C27.0592 235.253 27.1748 235.279 27.2904 235.311C29.7756 236.025 32.3397 236.335 34.9196 236.24C35.2559 236.23 35.5711 236.183 35.8706 236.114C36.4328 236.409 37.0896 236.592 37.8462 236.624C42.8798 236.829 47.8871 236.687 52.905 236.193C53.1257 236.172 53.3411 236.135 53.5565 236.088C54.3972 236.366 55.3377 236.43 56.2835 236.282C60.0508 235.705 63.8812 235.568 67.6748 235.227C69.3246 235.08 70.9902 234.927 72.5875 234.47C73.3179 234.26 74.0325 233.971 74.7523 233.714C75.1569 233.714 75.5667 233.667 75.9713 233.556C76.5913 233.446 77.2113 233.336 77.826 233.225C78.0993 233.178 78.3778 233.073 78.651 232.926C79.1081 232.81 79.5127 232.632 79.87 232.401L81.7405 232.359C82.5234 232.343 83.3063 232.128 83.9893 231.739C87.1787 230.814 87.7882 226.56 85.8126 224.348Z" fill="#F499AD"/>
<path d="M54.3799 145.406C54.3588 145.27 54.3273 145.138 54.2748 145.012C54.1276 144.634 53.9648 144.282 53.7283 143.951C53.6337 143.778 53.5076 143.636 53.3448 143.531C53.2029 143.4 53.0295 143.311 52.8351 143.263C52.4778 143.163 51.9997 143.211 51.6844 143.416C51.3639 143.62 51.0854 143.93 50.9961 144.309C50.9961 144.319 50.9961 144.33 50.9908 144.335C50.7912 144.587 50.6651 144.897 50.6808 145.233C50.6861 145.286 50.6861 145.338 50.6913 145.391C49.8612 145.979 49.0678 146.625 48.3217 147.318C48.2586 147.381 48.2008 147.45 48.1483 147.528C47.4705 147.555 46.7874 147.523 46.1411 147.492C44.817 147.423 43.514 147.208 42.2319 146.861C41.6855 146.714 41.1128 146.567 40.5979 146.336C40.4507 146.273 40.3194 146.147 40.1828 146.058C40.1828 146.005 40.1933 145.953 40.1828 145.9C40.1565 145.69 40.125 145.485 40.0987 145.275C40.0094 144.608 39.6941 144.025 39.0006 143.836C38.4173 143.678 37.5661 143.925 37.3139 144.524C35.3436 149.167 42.6208 150.228 45.6367 150.454C45.6735 150.459 45.7103 150.459 45.7523 150.459C46.0203 150.806 46.4196 151.042 46.8977 151.021C47.6176 150.99 48.3322 150.953 49.0467 150.895C49.919 150.827 50.7702 150.753 51.5793 150.386C52.5776 149.929 53.3185 148.989 53.618 147.933C53.6442 147.912 53.6705 147.891 53.6915 147.87C53.8071 147.749 53.907 147.607 54.0068 147.471C54.1434 147.282 54.2327 147.045 54.3115 146.835C54.3904 146.614 54.4166 146.368 54.4376 146.142C54.4639 145.89 54.4166 145.637 54.3799 145.406Z" fill="#F68B38"/>
<path d="M43.6545 133.91C41.1745 135.107 38.3582 132.712 38.3582 132.712C35.9675 131.514 34.7695 133.91 34.7695 133.91L40.0081 144.898C40.0081 144.898 40.7542 147.666 45.5408 147.351C45.5408 147.351 49.7285 147.666 50.9317 144.898L56.3226 133.311C52.1507 135.107 48.7617 132.712 48.7617 132.712C46.6022 131.514 45.5408 132.712 45.5408 132.712" stroke="black" stroke-width="1.5" stroke-miterlimit="10" stroke-linecap="round" stroke-linejoin="round"/>
<path d="M39.0637 142.918C39.0637 142.918 34.7709 145.87 38.3596 148.859C38.3596 148.859 40.7503 151.249 49.1256 150.655" stroke="black" stroke-width="1.5" stroke-miterlimit="10" stroke-linecap="round" stroke-linejoin="round"/>
<path d="M52.0947 142.393C52.0947 142.393 54.512 143.48 54.512 145.271C54.512 145.271 55.1111 147.067 52.7148 149.457" stroke="black" stroke-width="1.5" stroke-miterlimit="10" stroke-linecap="round" stroke-linejoin="round"/>
<path d="M53.3398 151.891C53.3398 151.891 61.0952 155.436 63.4859 162.616C63.4859 162.616 65.8766 169.193 62.2879 169.792C62.2879 169.792 59.314 170.354 58.4102 167.381C58.4102 167.381 57.5065 163.215 57.5065 159.029" stroke="black" stroke-width="1.5" stroke-miterlimit="10" stroke-linecap="round" stroke-linejoin="round"/>
<path d="M37.7595 153.045C37.7595 153.045 32.1217 159.968 31.9483 164.879C31.9483 164.879 31.9378 170.473 28.5645 169.832C28.5645 169.832 24.566 169.533 26.3787 164.879C26.3787 164.879 28.1915 157.231 37.7595 153.045Z" stroke="black" stroke-width="1.5" stroke-miterlimit="10" stroke-linecap="round" stroke-linejoin="round"/>
<path d="M46.7363 154.242C46.7363 154.242 50.3255 160.225 50.3255 166.801" stroke="black" stroke-width="1.5" stroke-miterlimit="10" stroke-linecap="round" stroke-linejoin="round"/>
<path d="M36.93 146.83C36.93 146.83 23.4055 144.671 15.6292 163.806C15.6292 163.806 10.2435 177.563 9.64981 193.704C9.64981 193.704 7.85285 218.223 3.07145 224.201C3.07145 224.201 -2.91318 230.184 5.46214 231.975C5.46214 231.975 39.5887 242.737 83.8403 231.975C83.8403 231.975 89.8091 231.376 86.2205 224.201C86.2205 224.201 80.2358 204.467 79.6421 190.71C79.6421 190.71 77.2514 162.604 70.6678 155.428C70.6678 155.428 63.4904 146.457 54.5844 145.916" stroke="black" stroke-width="1.5" stroke-miterlimit="10" stroke-linecap="round" stroke-linejoin="round"/>
<path d="M42.5469 138.096L44.1812 146.831" stroke="black" stroke-width="1.5" stroke-miterlimit="10" stroke-linecap="round" stroke-linejoin="round"/>
<path d="M47.9345 136.299L46.7363 146.83" stroke="black" stroke-width="1.5" stroke-miterlimit="10" stroke-linecap="round" stroke-linejoin="round"/>
<path d="M25.1807 214.121H30.5596V215.535H28.7549V219.848H26.9854V215.535H25.1807V214.121ZM31.1416 216.988C31.1416 216.053 31.402 215.326 31.9229 214.805C32.4437 214.284 33.1689 214.023 34.0986 214.023C35.0518 214.023 35.7861 214.28 36.3018 214.793C36.8174 215.303 37.0752 216.02 37.0752 216.941C37.0752 217.611 36.9619 218.16 36.7354 218.59C36.5114 219.017 36.1859 219.35 35.7588 219.59C35.3343 219.827 34.8044 219.945 34.1689 219.945C33.5231 219.945 32.988 219.842 32.5635 219.637C32.1416 219.431 31.7992 219.105 31.5361 218.66C31.2731 218.215 31.1416 217.658 31.1416 216.988ZM32.9111 216.996C32.9111 217.574 33.0179 217.99 33.2314 218.242C33.4476 218.495 33.7406 218.621 34.1104 218.621C34.4906 218.621 34.7848 218.497 34.9932 218.25C35.2015 218.003 35.3057 217.559 35.3057 216.918C35.3057 216.379 35.1963 215.986 34.9775 215.738C34.7614 215.488 34.4671 215.363 34.0947 215.363C33.738 215.363 33.4515 215.49 33.2354 215.742C33.0192 215.995 32.9111 216.413 32.9111 216.996ZM38.0361 214.121H39.8057V216.285L41.6611 214.121H44.0127L41.9268 216.281L44.1064 219.848H41.9268L40.7197 217.492L39.8057 218.449V219.848H38.0361V214.121ZM44.6885 214.121H49.4307V215.344H46.4619V216.254H49.2158V217.422H46.4619V218.551H49.5166V219.848H44.6885V214.121ZM50.4854 214.121H52.1377L54.2939 217.289V214.121H55.9619V219.848H54.2939L52.1494 216.703V219.848H50.4854V214.121ZM56.8291 217.953L58.5127 217.848C58.5492 218.121 58.6234 218.329 58.7354 218.473C58.9176 218.704 59.1781 218.82 59.5166 218.82C59.7692 218.82 59.9632 218.762 60.0986 218.645C60.2367 218.525 60.3057 218.387 60.3057 218.23C60.3057 218.082 60.2406 217.949 60.1104 217.832C59.9801 217.715 59.6781 217.604 59.2041 217.5C58.4281 217.326 57.8747 217.094 57.5439 216.805C57.2106 216.516 57.0439 216.147 57.0439 215.699C57.0439 215.405 57.1286 215.128 57.2979 214.867C57.4697 214.604 57.7262 214.398 58.0674 214.25C58.4111 214.099 58.8812 214.023 59.4775 214.023C60.2093 214.023 60.7666 214.16 61.1494 214.434C61.5348 214.704 61.764 215.137 61.8369 215.73L60.1689 215.828C60.1247 215.57 60.0309 215.383 59.8877 215.266C59.7471 215.148 59.5518 215.09 59.3018 215.09C59.096 215.09 58.9411 215.134 58.8369 215.223C58.7327 215.309 58.6807 215.414 58.6807 215.539C58.6807 215.63 58.7236 215.712 58.8096 215.785C58.8929 215.861 59.0908 215.931 59.4033 215.996C60.1768 216.163 60.7301 216.332 61.0635 216.504C61.3994 216.673 61.6429 216.884 61.7939 217.137C61.9476 217.389 62.0244 217.672 62.0244 217.984C62.0244 218.352 61.9229 218.69 61.7197 219C61.5166 219.31 61.2327 219.546 60.8682 219.707C60.5036 219.866 60.0439 219.945 59.4893 219.945C58.5153 219.945 57.8408 219.758 57.4658 219.383C57.0908 219.008 56.8786 218.531 56.8291 217.953Z" fill="black"/>
<path d="M42.7967 202.258C50.4315 202.258 56.6207 196.071 56.6207 188.439C56.6207 180.806 50.4315 174.619 42.7967 174.619C35.1619 174.619 28.9727 180.806 28.9727 188.439C28.9727 196.071 35.1619 202.258 42.7967 202.258Z" fill="#F68B38" stroke="black" stroke-miterlimit="10"/>
<path d="M45.785 201.506C53.4198 201.506 59.609 195.319 59.609 187.687C59.609 180.054 53.4198 173.867 45.785 173.867C38.1502 173.867 31.9609 180.054 31.9609 187.687C31.9609 195.319 38.1502 201.506 45.785 201.506Z" fill="#FBB33B" stroke="black" stroke-miterlimit="10"/>
<path d="M45.7861 179.404V195.971" stroke="#1D1D1B" stroke-miterlimit="10" stroke-linecap="round" stroke-linejoin="round"/>
<path d="M43.2119 180.381L45.7869 182.939L48.4039 180.381" stroke="#1D1D1B" stroke-miterlimit="10" stroke-linecap="round" stroke-linejoin="round"/>
<path d="M43.2119 195.158L45.7869 192.6L48.4039 195.158" stroke="#1D1D1B" stroke-miterlimit="10" stroke-linecap="round" stroke-linejoin="round"/>
<path d="M38.3887 183.275L52.8642 191.958" stroke="#1D1D1B" stroke-miterlimit="10" stroke-linecap="round" stroke-linejoin="round"/>
<path d="M40.7527 181.658L41.5042 185.146L38.0674 186.491" stroke="#1D1D1B" stroke-miterlimit="10" stroke-linecap="round" stroke-linejoin="round"/>
<path d="M53.5042 189.062L49.8047 190.118L50.7558 193.879" stroke="#1D1D1B" stroke-miterlimit="10" stroke-linecap="round" stroke-linejoin="round"/>
<path d="M38.3887 192.263L52.8642 183.586" stroke="#1D1D1B" stroke-miterlimit="10" stroke-linecap="round" stroke-linejoin="round"/>
<path d="M40.7527 193.881L41.5042 190.393L38.0674 189.049" stroke="#1D1D1B" stroke-miterlimit="10" stroke-linecap="round" stroke-linejoin="round"/>
<path d="M53.5042 186.475L49.8047 185.419L50.7558 181.658" stroke="#1D1D1B" stroke-miterlimit="10" stroke-linecap="round" stroke-linejoin="round"/>
<path d="M169.843 184.79L155.002 170.146L150.317 174.772L157.158 181.525H125.878V188.069H157.158L150.317 194.822L155.002 199.448L169.843 184.79Z" fill="#F68B38" stroke="black" stroke-miterlimit="10"/>
<path d="M547.473 184.79L532.632 170.146L527.946 174.772L534.788 181.525H503.508V188.069H534.788L527.946 194.822L532.632 199.448L547.473 184.79Z" fill="#F68B38" stroke="black" stroke-miterlimit="10"/>
<path d="M596.542 199.645H584.269V155.636C584.269 155.384 584.556 155.178 584.91 155.178H595.9C596.255 155.178 596.542 155.384 596.542 155.636V199.645Z" fill="#F68B38" stroke="black" stroke-width="1.5" stroke-miterlimit="10"/>
<path d="M608.816 206.112H596.542V144.647C596.542 144.295 596.829 144.01 597.184 144.01H608.174C608.528 144.01 608.816 144.295 608.816 144.647V206.112Z" fill="#F68B38" stroke="black" stroke-width="1.5" stroke-miterlimit="10"/>
<path d="M620.473 137.463H609.436C609.095 137.463 608.814 137.728 608.814 138.06V218.277H621.088V138.06C621.095 137.735 620.814 137.463 620.473 137.463Z" fill="#F68B38" stroke="black" stroke-width="1.5" stroke-miterlimit="10"/>
<path d="M633.37 227.22H621.097V144.607C621.097 144.281 621.384 144.016 621.738 144.016H632.729C633.083 144.016 633.37 144.281 633.37 144.607V227.22Z" fill="#F68B38" stroke="black" stroke-width="1.5" stroke-miterlimit="10"/>
<path d="M645.643 211.437H633.369V155.755C633.369 155.437 633.657 155.178 634.011 155.178H645.001C645.355 155.178 645.643 155.437 645.643 155.755V211.437Z" fill="#F68B38" stroke="black" stroke-width="1.5" stroke-miterlimit="10"/>
<path d="M654.721 182.762L642.507 229.739L641.464 233.762C641.01 235.509 639.452 236.73 637.667 236.73H592.918C591.133 236.73 589.576 235.509 589.121 233.762L575.865 182.762C575.21 180.238 577.088 177.762 579.662 177.762H597.424C597.731 177.762 597.979 178.021 597.979 178.333V178.339C597.979 188.027 605.733 195.882 615.293 195.882C624.852 195.882 632.607 188.027 632.607 178.339V178.333C632.607 178.021 632.854 177.762 633.162 177.762H650.924C653.497 177.768 655.376 180.238 654.721 182.762Z" fill="#F68B38" stroke="black" stroke-width="1.5" stroke-miterlimit="10"/>
<path d="M602.758 194.354H590.484V150.345C590.484 150.093 590.772 149.887 591.126 149.887H602.116C602.47 149.887 602.758 150.093 602.758 150.345V194.354Z" fill="#FBB33B" stroke="#1D1D1B" stroke-width="1.5" stroke-miterlimit="10"/>
<path d="M615.031 200.829H602.758V139.364C602.758 139.012 603.045 138.727 603.4 138.727H614.39C614.744 138.727 615.031 139.012 615.031 139.364V200.829Z" fill="#FBB33B" stroke="#1D1D1B" stroke-width="1.5" stroke-miterlimit="10"/>
<path d="M626.684 132.18H615.647C615.306 132.18 615.025 132.445 615.025 132.777V212.994H627.299V132.777C627.306 132.445 627.032 132.18 626.684 132.18Z" fill="#FBB33B" stroke="#1D1D1B" stroke-width="1.5" stroke-miterlimit="10"/>
<path d="M639.579 221.937H627.306V139.318C627.306 138.992 627.593 138.727 627.947 138.727H638.938C639.292 138.727 639.579 138.992 639.579 139.318V221.937Z" fill="#FBB33B" stroke="#1D1D1B" stroke-width="1.5" stroke-miterlimit="10"/>
<path d="M651.853 206.154H639.579V150.472C639.579 150.153 639.867 149.895 640.221 149.895H651.211C651.565 149.895 651.853 150.153 651.853 150.472V206.154Z" fill="#FBB33B" stroke="#1D1D1B" stroke-width="1.5" stroke-miterlimit="10"/>
<path d="M660.987 177.476L648.774 224.453L647.731 228.477C647.277 230.224 645.719 231.445 643.934 231.445H599.185C597.4 231.445 595.842 230.224 595.388 228.477L582.131 177.476C581.476 174.953 583.355 172.477 585.928 172.477H603.69C603.998 172.477 604.245 172.736 604.245 173.048V173.054C604.245 182.742 612 190.597 621.559 190.597C631.119 190.597 638.873 182.742 638.873 173.054V173.048C638.873 172.736 639.121 172.477 639.428 172.477H657.19C659.764 172.477 661.649 174.953 660.987 177.476Z" fill="#F499AD" stroke="#1D1D1B" stroke-width="1.5" stroke-miterlimit="10"/>
<path d="M621.964 205.51C630.168 205.51 636.818 198.904 636.818 190.756C636.818 182.607 630.168 176.002 621.964 176.002C613.761 176.002 607.11 182.607 607.11 190.756C607.11 198.904 613.761 205.51 621.964 205.51Z" fill="#F499AD" stroke="#1D1D1B" stroke-width="1.5" stroke-miterlimit="10"/>
<path d="M624.478 183.45L622.513 182.128L624.478 180.754L626.437 182.128L624.478 183.45Z" fill="#FBB33B" stroke="black" stroke-width="0.5" stroke-miterlimit="10" stroke-linejoin="round"/>
<path d="M624.478 192.965L622.513 191.644L624.478 190.27L626.437 191.644L624.478 192.965Z" fill="#FBB33B" stroke="black" stroke-width="0.5" stroke-miterlimit="10" stroke-linejoin="round"/>
<path d="M624.479 183.45V192.965L626.437 191.644V182.129L624.479 183.45Z" fill="#FBB33B" stroke="black" stroke-width="0.5" stroke-miterlimit="10" stroke-linejoin="round"/>
<path d="M622.513 182.129V191.644L624.478 192.965V183.45L622.513 182.129Z" fill="#FBB33B" stroke="black" stroke-width="0.5" stroke-miterlimit="10" stroke-linejoin="round"/>
<path d="M622.512 184.824L620.547 183.509L622.512 182.135L624.478 183.509L622.512 184.824Z" fill="#FBB33B" stroke="black" stroke-width="0.5" stroke-miterlimit="10" stroke-linejoin="round"/>
<path d="M622.512 194.338L620.547 193.023L622.512 191.648L624.478 193.023L622.512 194.338Z" fill="#FBB33B" stroke="black" stroke-width="0.5" stroke-miterlimit="10" stroke-linejoin="round"/>
<path d="M622.512 184.824V194.339L624.477 193.025V183.51L622.512 184.824Z" fill="#F68B38" stroke="black" stroke-width="0.5" stroke-miterlimit="10" stroke-linejoin="round"/>
<path d="M620.547 183.51V193.025L622.512 194.339V184.824L620.547 183.51Z" fill="#FBB33B" stroke="black" stroke-width="0.5" stroke-miterlimit="10" stroke-linejoin="round"/>
<path d="M626.438 184.824L624.479 183.509L626.438 182.135L628.404 183.509L626.438 184.824Z" fill="#FBB33B" stroke="black" stroke-width="0.5" stroke-miterlimit="10" stroke-linejoin="round"/>
<path d="M626.437 194.338L624.479 193.023L626.437 191.648L628.403 193.023L626.437 194.338Z" fill="#FBB33B" stroke="black" stroke-width="0.5" stroke-miterlimit="10" stroke-linejoin="round"/>
<path d="M626.438 184.824V194.339L628.404 193.025V183.51L626.438 184.824Z" fill="#FBB33B" stroke="black" stroke-width="0.5" stroke-miterlimit="10" stroke-linejoin="round"/>
<path d="M624.479 183.51V193.025L626.437 194.339V184.824L624.479 183.51Z" fill="#F68B38" stroke="black" stroke-width="0.5" stroke-miterlimit="10" stroke-linejoin="round"/>
<path d="M628.402 186.172L626.437 184.851L628.402 183.477L630.368 184.851L628.402 186.172Z" fill="#FBB33B" stroke="black" stroke-width="0.5" stroke-miterlimit="10" stroke-linejoin="round"/>
<path d="M628.402 195.688L626.437 194.367L628.402 192.992L630.368 194.367L628.402 195.688Z" fill="#FBB33B" stroke="black" stroke-width="0.5" stroke-miterlimit="10" stroke-linejoin="round"/>
<path d="M628.402 186.173V195.688L630.368 194.366V184.852L628.402 186.173Z" fill="#FBB33B" stroke="black" stroke-width="0.5" stroke-miterlimit="10" stroke-linejoin="round"/>
<path d="M626.437 184.852V194.366L628.402 195.688V186.173L626.437 184.852Z" fill="#F68B38" stroke="black" stroke-width="0.5" stroke-miterlimit="10" stroke-linejoin="round"/>
<path d="M620.547 186.172L618.581 184.851L620.547 183.477L622.512 184.851L620.547 186.172Z" fill="#FBB33B" stroke="black" stroke-width="0.5" stroke-miterlimit="10" stroke-linejoin="round"/>
<path d="M620.547 195.688L618.581 194.367L620.547 192.992L622.512 194.367L620.547 195.688Z" fill="#FBB33B" stroke="black" stroke-width="0.5" stroke-miterlimit="10" stroke-linejoin="round"/>
<path d="M620.548 186.173V195.688L622.513 194.366V184.852L620.548 186.173Z" fill="#FBB33B" stroke="black" stroke-width="0.5" stroke-miterlimit="10" stroke-linejoin="round"/>
<path d="M618.581 184.852V194.366L620.547 195.688V186.173L618.581 184.852Z" fill="#FBB33B" stroke="black" stroke-width="0.5" stroke-miterlimit="10" stroke-linejoin="round"/>
<path d="M618.582 187.547L616.623 186.226L618.582 184.852L620.548 186.226L618.582 187.547Z" fill="#FBB33B" stroke="black" stroke-width="0.5" stroke-miterlimit="10" stroke-linejoin="round"/>
<path d="M618.582 197.063L616.623 195.742L618.582 194.367L620.548 195.742L618.582 197.063Z" fill="#FBB33B" stroke="black" stroke-width="0.5" stroke-miterlimit="10" stroke-linejoin="round"/>
<path d="M618.581 187.548V197.063L620.547 195.741V186.227L618.581 187.548Z" fill="#F68B38" stroke="black" stroke-width="0.5" stroke-miterlimit="10" stroke-linejoin="round"/>
<path d="M616.623 186.227V195.741L618.582 197.063V187.548L616.623 186.227Z" fill="#FBB33B" stroke="black" stroke-width="0.5" stroke-miterlimit="10" stroke-linejoin="round"/>
<path d="M616.623 188.861L614.657 187.546L616.623 186.172L618.582 187.546L616.623 188.861Z" fill="#FBB33B" stroke="black" stroke-width="0.5" stroke-miterlimit="10" stroke-linejoin="round"/>
<path d="M616.623 198.377L614.657 197.062L616.623 195.688L618.582 197.062L616.623 198.377Z" fill="#FBB33B" stroke="black" stroke-width="0.5" stroke-miterlimit="10" stroke-linejoin="round"/>
<path d="M616.623 188.862V198.377L618.582 197.062V187.547L616.623 188.862Z" fill="#F68B38" stroke="black" stroke-width="0.5" stroke-miterlimit="10" stroke-linejoin="round"/>
<path d="M614.657 187.547V197.062L616.623 198.377V188.862L614.657 187.547Z" fill="#FBB33B" stroke="black" stroke-width="0.5" stroke-miterlimit="10" stroke-linejoin="round"/>
<path d="M622.512 187.527L620.547 186.212L622.512 184.838L624.478 186.212L622.512 187.527Z" fill="#FBB33B" stroke="black" stroke-width="0.5" stroke-miterlimit="10" stroke-linejoin="round"/>
<path d="M622.512 197.043L620.547 195.728L622.512 194.354L624.478 195.728L622.512 197.043Z" fill="#FBB33B" stroke="black" stroke-width="0.5" stroke-miterlimit="10" stroke-linejoin="round"/>
<path d="M622.512 187.528V197.043L624.477 195.728V186.213L622.512 187.528Z" fill="#FBB33B" stroke="black" stroke-width="0.5" stroke-miterlimit="10" stroke-linejoin="round"/>
<path d="M620.547 186.213V195.728L622.512 197.043V187.528L620.547 186.213Z" fill="#F68B38" stroke="black" stroke-width="0.5" stroke-miterlimit="10" stroke-linejoin="round"/>
<path d="M624.478 188.881L622.513 187.56L624.478 186.186L626.437 187.56L624.478 188.881Z" fill="#FBB33B" stroke="black" stroke-width="0.5" stroke-miterlimit="10" stroke-linejoin="round"/>
<path d="M624.478 198.397L622.513 197.076L624.478 195.701L626.437 197.076L624.478 198.397Z" fill="#FBB33B" stroke="black" stroke-width="0.5" stroke-miterlimit="10" stroke-linejoin="round"/>
<path d="M624.479 188.882V198.397L626.437 197.075V187.561L624.479 188.882Z" fill="#FBB33B" stroke="black" stroke-width="0.5" stroke-miterlimit="10" stroke-linejoin="round"/>
<path d="M622.513 187.561V197.075L624.478 198.397V188.882L622.513 187.561Z" fill="#F68B38" stroke="black" stroke-width="0.5" stroke-miterlimit="10" stroke-linejoin="round"/>
<path d="M613.25 216.75H614.008V217.914H613.25V220.898H611.656V217.914H611.062V216.75H611.656V216.562C611.656 216.393 611.674 216.207 611.711 216.004C611.747 215.801 611.815 215.635 611.914 215.508C612.016 215.378 612.156 215.273 612.336 215.195C612.518 215.115 612.784 215.074 613.133 215.074C613.411 215.074 613.816 215.107 614.348 215.172L614.172 216.133C613.982 216.102 613.828 216.086 613.711 216.086C613.568 216.086 613.465 216.111 613.402 216.16C613.34 216.207 613.296 216.283 613.27 216.387C613.257 216.444 613.25 216.565 613.25 216.75ZM618.43 215.172H620.195V218.586C620.195 218.924 620.142 219.245 620.035 219.547C619.931 219.846 619.766 220.109 619.539 220.336C619.315 220.56 619.079 220.717 618.832 220.809C618.488 220.936 618.076 221 617.594 221C617.315 221 617.01 220.98 616.68 220.941C616.352 220.902 616.077 220.826 615.855 220.711C615.634 220.594 615.431 220.428 615.246 220.215C615.064 220.001 614.939 219.781 614.871 219.555C614.762 219.19 614.707 218.867 614.707 218.586V215.172H616.473V218.668C616.473 218.98 616.559 219.225 616.73 219.402C616.905 219.577 617.146 219.664 617.453 219.664C617.758 219.664 617.996 219.578 618.168 219.406C618.342 219.232 618.43 218.986 618.43 218.668V215.172ZM621.059 219.004L622.742 218.898C622.779 219.172 622.853 219.38 622.965 219.523C623.147 219.755 623.408 219.871 623.746 219.871C623.999 219.871 624.193 219.812 624.328 219.695C624.466 219.576 624.535 219.438 624.535 219.281C624.535 219.133 624.47 219 624.34 218.883C624.21 218.766 623.908 218.655 623.434 218.551C622.658 218.376 622.104 218.145 621.773 217.855C621.44 217.566 621.273 217.198 621.273 216.75C621.273 216.456 621.358 216.178 621.527 215.918C621.699 215.655 621.956 215.449 622.297 215.301C622.641 215.15 623.111 215.074 623.707 215.074C624.439 215.074 624.996 215.211 625.379 215.484C625.764 215.755 625.993 216.188 626.066 216.781L624.398 216.879C624.354 216.621 624.26 216.434 624.117 216.316C623.977 216.199 623.781 216.141 623.531 216.141C623.326 216.141 623.171 216.185 623.066 216.273C622.962 216.359 622.91 216.465 622.91 216.59C622.91 216.681 622.953 216.763 623.039 216.836C623.122 216.911 623.32 216.982 623.633 217.047C624.406 217.214 624.96 217.383 625.293 217.555C625.629 217.724 625.872 217.935 626.023 218.188C626.177 218.44 626.254 218.723 626.254 219.035C626.254 219.402 626.152 219.741 625.949 220.051C625.746 220.361 625.462 220.596 625.098 220.758C624.733 220.917 624.273 220.996 623.719 220.996C622.745 220.996 622.07 220.809 621.695 220.434C621.32 220.059 621.108 219.582 621.059 219.004ZM627.172 215.172H629.801C630.319 215.172 630.737 215.242 631.055 215.383C631.375 215.523 631.639 215.725 631.848 215.988C632.056 216.251 632.207 216.557 632.301 216.906C632.395 217.255 632.441 217.625 632.441 218.016C632.441 218.628 632.371 219.103 632.23 219.441C632.092 219.777 631.9 220.06 631.652 220.289C631.405 220.516 631.139 220.667 630.855 220.742C630.467 220.846 630.116 220.898 629.801 220.898H627.172V215.172ZM628.941 216.469V219.598H629.375C629.745 219.598 630.008 219.557 630.164 219.477C630.32 219.393 630.443 219.25 630.531 219.047C630.62 218.841 630.664 218.509 630.664 218.051C630.664 217.444 630.565 217.029 630.367 216.805C630.169 216.581 629.841 216.469 629.383 216.469H628.941Z" fill="black"/>
<path d="M459.333 166.33H196.184V333.497H459.333V166.33Z" fill="#F499AD" stroke="#1D1D1B" stroke-width="2" stroke-miterlimit="10"/>
<path d="M264.643 333.496H234.978V345.999H264.643V333.496Z" fill="black" stroke="black" stroke-miterlimit="10"/>
<path d="M420.092 333.496H390.427V345.999H420.092V333.496Z" fill="black" stroke="black" stroke-miterlimit="10"/>
<path d="M459.11 310.838H195.961V320.313H459.11V310.838Z" fill="black" stroke="black" stroke-miterlimit="10"/>
<path d="M302.01 284.836H311.114V287.396H305.708V289.477H310.325V291.883H305.708V296.752H302.01V284.836ZM313.146 296.752V284.836H319.283C320.421 284.836 321.29 284.933 321.892 285.128C322.493 285.324 322.978 285.687 323.347 286.218C323.715 286.743 323.899 287.385 323.899 288.144C323.899 288.805 323.759 289.377 323.477 289.859C323.195 290.336 322.808 290.723 322.314 291.021C322 291.211 321.569 291.368 321.022 291.493C321.461 291.639 321.781 291.786 321.981 291.932C322.117 292.029 322.312 292.238 322.566 292.558C322.827 292.877 323 293.124 323.087 293.297L324.867 296.752H320.705L318.738 293.11C318.489 292.639 318.267 292.333 318.071 292.192C317.806 292.008 317.505 291.916 317.169 291.916H316.844V296.752H313.146ZM316.844 289.664H318.397C318.565 289.664 318.89 289.61 319.372 289.501C319.616 289.453 319.814 289.328 319.965 289.128C320.123 288.927 320.201 288.697 320.201 288.437C320.201 288.052 320.079 287.757 319.835 287.551C319.591 287.345 319.134 287.242 318.462 287.242H316.844V289.664ZM324.85 284.836H328.939L331.345 288.859L333.751 284.836H337.815L333.182 291.761V296.752H329.492V291.761L324.85 284.836ZM339.002 284.836H348.87V287.38H342.692V289.274H348.423V291.704H342.692V294.053H349.049V296.752H339.002V284.836ZM351.089 296.752V284.836H357.226C358.364 284.836 359.233 284.933 359.835 285.128C360.436 285.324 360.921 285.687 361.29 286.218C361.658 286.743 361.842 287.385 361.842 288.144C361.842 288.805 361.702 289.377 361.42 289.859C361.138 290.336 360.751 290.723 360.257 291.021C359.943 291.211 359.512 291.368 358.965 291.493C359.404 291.639 359.724 291.786 359.924 291.932C360.06 292.029 360.255 292.238 360.509 292.558C360.77 292.877 360.943 293.124 361.03 293.297L362.81 296.752H358.648L356.681 293.11C356.432 292.639 356.21 292.333 356.014 292.192C355.749 292.008 355.448 291.916 355.112 291.916H354.787V296.752H351.089ZM354.787 289.664H356.34C356.508 289.664 356.833 289.61 357.315 289.501C357.559 289.453 357.757 289.328 357.908 289.128C358.066 288.927 358.144 288.697 358.144 288.437C358.144 288.052 358.022 287.757 357.778 287.551C357.534 287.345 357.077 287.242 356.405 287.242H354.787V289.664Z" fill="black"/>
<path d="M327.675 191.111V206.325" stroke="black" stroke-width="4" stroke-miterlimit="10"/>
<path d="M294.688 206.111L305.45 216.87" stroke="black" stroke-width="3" stroke-miterlimit="10"/>
<path d="M361.003 206.111L350.241 216.87" stroke="black" stroke-width="5" stroke-miterlimit="10"/>
<path d="M294.688 265.671L305.45 254.912" stroke="black" stroke-miterlimit="10"/>
<path d="M361.003 265.671L350.241 254.912" stroke="black" stroke-width="7" stroke-miterlimit="10"/>
<path d="M357.272 235.895H372.491" stroke="black" stroke-width="6" stroke-miterlimit="10"/>
<path d="M283.201 235.895H298.42" stroke="black" stroke-width="2" stroke-miterlimit="10"/>
<path d="M327.678 270.698C346.965 270.698 362.6 255.068 362.6 235.787C362.6 216.505 346.965 200.875 327.678 200.875C308.39 200.875 292.755 216.505 292.755 235.787C292.755 255.068 308.39 270.698 327.678 270.698Z" fill="#FBB33B" stroke="black" stroke-miterlimit="10"/>
<path d="M327.848 265.354C344.123 265.354 357.317 252.164 357.317 235.894C357.317 219.623 344.123 206.434 327.848 206.434C311.572 206.434 298.378 219.623 298.378 235.894C298.378 252.164 311.572 265.354 327.848 265.354Z" fill="black"/>
<path d="M304.204 254.174L306.102 256.07L315.091 247.083L313.194 245.187L304.204 254.174Z" fill="#FBB33B"/>
<path d="M461.103 180.455H193.963C192.316 180.455 190.98 179.12 190.98 177.473V165.558C190.98 163.912 192.316 162.576 193.963 162.576H461.103C462.749 162.576 464.085 163.912 464.085 165.558V177.473C464.085 179.12 462.749 180.455 461.103 180.455Z" fill="black" stroke="black" stroke-miterlimit="10"/>
<path d="M417.79 100.83H237.274L245.912 163.043H409.153L417.79 100.83Z" stroke="black" stroke-width="3" stroke-miterlimit="10"/>
<path d="M264.067 101.4L245.336 152.982L244.927 154.116" stroke="black" stroke-width="3" stroke-miterlimit="10"/>
<path d="M237.274 101.4L264.067 175.189" stroke="black" stroke-width="3" stroke-miterlimit="10"/>
<path d="M289.979 101.4L263.181 175.189" stroke="black" stroke-width="3" stroke-miterlimit="10"/>
<path d="M263.181 101.4L289.979 175.189" stroke="black" stroke-width="3" stroke-miterlimit="10"/>
<path d="M315.883 101.4L289.091 175.189" stroke="black" stroke-width="3" stroke-miterlimit="10"/>
<path d="M289.091 101.4L315.883 175.189" stroke="black" stroke-width="3" stroke-miterlimit="10"/>
<path d="M341.794 101.4L314.996 175.189" stroke="black" stroke-width="3" stroke-miterlimit="10"/>
<path d="M314.996 101.4L341.794 175.189" stroke="black" stroke-width="3" stroke-miterlimit="10"/>
<path d="M367.7 101.4L340.908 175.189" stroke="black" stroke-width="3" stroke-miterlimit="10"/>
<path d="M340.908 101.4L367.7 175.189" stroke="black" stroke-width="3" stroke-miterlimit="10"/>
<path d="M393.611 101.4L366.812 175.189" stroke="black" stroke-width="3" stroke-miterlimit="10"/>
<path d="M366.812 101.4L393.611 175.189" stroke="black" stroke-width="3" stroke-miterlimit="10"/>
<path d="M390.997 175.189L417.789 101.4" stroke="black" stroke-width="3" stroke-miterlimit="10"/>
<path d="M390.997 101.4L410.321 154.622" stroke="black" stroke-width="3" stroke-miterlimit="10"/>
<path d="M482.999 66.1523H450.754V75.7825H482.999V66.1523Z" fill="#FBB33B" stroke="black" stroke-width="3" stroke-miterlimit="10"/>
<path d="M417.79 99.6897V79.3127C417.79 74.5062 421.688 70.6035 426.502 70.6035H450.64" stroke="black" stroke-width="3" stroke-miterlimit="10"/>
<path d="M300.359 72.3599C300.359 80.0618 312.739 86.3015 328.015 86.3015C343.291 86.3015 355.671 80.0618 355.671 72.3599V62.9082C355.671 70.61 343.291 76.8498 328.015 76.8498C312.739 76.8498 300.359 70.61 300.359 62.9082V72.3599Z" fill="#FBB33B" stroke="black" stroke-miterlimit="10"/>
<path d="M328.015 76.85C343.289 76.85 355.671 70.6081 355.671 62.9084C355.671 55.2087 343.289 48.9668 328.015 48.9668C312.741 48.9668 300.359 55.2087 300.359 62.9084C300.359 70.6081 312.741 76.85 328.015 76.85Z" fill="#FBB33B" stroke="black" stroke-miterlimit="10"/>
<path d="M322.628 73.0442C311.906 71.9908 303.908 67.8521 303.908 62.9075C303.908 57.1627 314.705 52.5117 328.017 52.5117C331.345 52.5117 334.518 52.8053 337.403 53.3291" fill="#FBB33B"/>
<path d="M322.628 73.0442C311.906 71.9908 303.908 67.8521 303.908 62.9075C303.908 57.1627 314.705 52.5117 328.017 52.5117C331.345 52.5117 334.518 52.8053 337.403 53.3291" stroke="black" stroke-miterlimit="10" stroke-linecap="round"/>
<path d="M341.535 54.2969C347.926 56.1676 352.124 59.3221 352.124 62.9082C352.124 68.509 341.851 73.0795 328.982 73.2982C328.66 73.3039 328.337 73.304 328.015 73.304" fill="#FBB33B"/>
<path d="M341.535 54.2969C347.926 56.1676 352.124 59.3221 352.124 62.9082C352.124 68.509 341.851 73.0795 328.982 73.2982C328.66 73.3039 328.337 73.304 328.015 73.304" stroke="black" stroke-miterlimit="10" stroke-linecap="round"/>
<path d="M306.739 76.6113V80.4795" stroke="black" stroke-miterlimit="10" stroke-linecap="round"/>
<path d="M311.466 79.4434V83.3115" stroke="black" stroke-miterlimit="10" stroke-linecap="round"/>
<path d="M316.193 80.8672V84.7296" stroke="black" stroke-miterlimit="10" stroke-linecap="round"/>
<path d="M320.922 81.8105V85.6787" stroke="black" stroke-miterlimit="10" stroke-linecap="round"/>
<path d="M325.649 82.2832V86.1514" stroke="black" stroke-miterlimit="10" stroke-linecap="round"/>
<path d="M330.378 82.2832V86.1514" stroke="black" stroke-miterlimit="10" stroke-linecap="round"/>
<path d="M335.104 81.8105V85.6787" stroke="black" stroke-miterlimit="10" stroke-linecap="round"/>
<path d="M339.831 80.8672V84.7296" stroke="black" stroke-miterlimit="10" stroke-linecap="round"/>
<path d="M344.559 79.4434V83.3115" stroke="black" stroke-miterlimit="10" stroke-linecap="round"/>
<path d="M349.285 76.6113V80.4795" stroke="black" stroke-miterlimit="10" stroke-linecap="round"/>
<path d="M300.359 48.4322C300.359 56.134 312.739 62.3738 328.015 62.3738C343.291 62.3738 355.671 56.134 355.671 48.4322V38.9805C355.671 46.6823 343.291 52.9221 328.015 52.9221C312.739 52.9221 300.359 46.6823 300.359 38.9805V48.4322Z" fill="#FBB33B" stroke="black" stroke-miterlimit="10"/>
<path d="M328.015 52.9203C343.289 52.9203 355.671 46.6784 355.671 38.9787C355.671 31.279 343.289 25.0371 328.015 25.0371C312.741 25.0371 300.359 31.279 300.359 38.9787C300.359 46.6784 312.741 52.9203 328.015 52.9203Z" fill="#FBB33B" stroke="black" stroke-miterlimit="10"/>
<path d="M322.628 49.1165C311.906 48.0631 303.908 43.9243 303.908 38.9797C303.908 33.235 314.705 28.584 328.017 28.584C331.345 28.584 334.518 28.8776 337.403 29.4014" fill="#FBB33B"/>
<path d="M322.628 49.1165C311.906 48.0631 303.908 43.9243 303.908 38.9797C303.908 33.235 314.705 28.584 328.017 28.584C331.345 28.584 334.518 28.8776 337.403 29.4014" stroke="black" stroke-miterlimit="10" stroke-linecap="round"/>
<path d="M341.535 30.3691C347.926 32.2399 352.124 35.3943 352.124 38.9805C352.124 44.5813 341.851 49.1517 328.982 49.3705C328.66 49.3762 328.337 49.3762 328.015 49.3762" fill="#FBB33B"/>
<path d="M341.535 30.3691C347.926 32.2399 352.124 35.3943 352.124 38.9805C352.124 44.5813 341.851 49.1517 328.982 49.3705C328.66 49.3762 328.337 49.3762 328.015 49.3762" stroke="black" stroke-miterlimit="10" stroke-linecap="round"/>
<path d="M306.739 52.6855V56.5537" stroke="black" stroke-miterlimit="10" stroke-linecap="round"/>
<path d="M311.466 55.5176V59.3858" stroke="black" stroke-miterlimit="10" stroke-linecap="round"/>
<path d="M316.193 56.9395V60.8019" stroke="black" stroke-miterlimit="10" stroke-linecap="round"/>
<path d="M320.922 57.8848V61.753" stroke="black" stroke-miterlimit="10" stroke-linecap="round"/>
<path d="M325.649 58.3574V62.2256" stroke="black" stroke-miterlimit="10" stroke-linecap="round"/>
<path d="M330.378 58.3574V62.2256" stroke="black" stroke-miterlimit="10" stroke-linecap="round"/>
<path d="M335.104 57.8848V61.753" stroke="black" stroke-miterlimit="10" stroke-linecap="round"/>
<path d="M339.831 56.9395V60.8019" stroke="black" stroke-miterlimit="10" stroke-linecap="round"/>
<path d="M344.559 55.5176V59.3858" stroke="black" stroke-miterlimit="10" stroke-linecap="round"/>
<path d="M349.285 52.6855V56.5537" stroke="black" stroke-miterlimit="10" stroke-linecap="round"/>
<path d="M300.358 24.5025C300.358 32.2043 312.738 38.4441 328.014 38.4441C343.29 38.4441 355.67 32.2043 355.67 24.5025V15.0508C355.67 22.7526 343.29 28.9924 328.014 28.9924C312.738 28.9924 300.358 22.7526 300.358 15.0508V24.5025Z" fill="#FBB33B" stroke="black" stroke-miterlimit="10"/>
<path d="M328.014 28.9925C343.288 28.9925 355.67 22.7507 355.67 15.051C355.67 7.35124 343.288 1.10938 328.014 1.10938C312.74 1.10938 300.358 7.35124 300.358 15.051C300.358 22.7507 312.74 28.9925 328.014 28.9925Z" fill="#FBB33B" stroke="black" stroke-miterlimit="10"/>
<path d="M322.627 25.1868C311.905 24.1334 303.907 19.9946 303.907 15.05C303.907 9.30533 314.704 4.6543 328.016 4.6543C331.344 4.6543 334.517 4.94785 337.402 5.47167" fill="#FBB33B"/>
<path d="M322.627 25.1868C311.905 24.1334 303.907 19.9946 303.907 15.05C303.907 9.30533 314.704 4.6543 328.016 4.6543C331.344 4.6543 334.517 4.94785 337.402 5.47167" stroke="black" stroke-miterlimit="10" stroke-linecap="round"/>
<path d="M341.534 6.43945C347.925 8.31023 352.123 11.4647 352.123 15.0508C352.123 20.6516 341.85 25.222 328.981 25.4408C328.659 25.4465 328.336 25.4465 328.014 25.4465" fill="#FBB33B"/>
<path d="M341.534 6.43945C347.925 8.31023 352.123 11.4647 352.123 15.0508C352.123 20.6516 341.85 25.222 328.981 25.4408C328.659 25.4465 328.336 25.4465 328.014 25.4465" stroke="black" stroke-miterlimit="10" stroke-linecap="round"/>
<path d="M306.738 28.7559V32.624" stroke="black" stroke-miterlimit="10" stroke-linecap="round"/>
<path d="M311.465 31.5898V35.458" stroke="black" stroke-miterlimit="10" stroke-linecap="round"/>
<path d="M316.192 33.0117V36.8741" stroke="black" stroke-miterlimit="10" stroke-linecap="round"/>
<path d="M320.921 33.9551V37.8233" stroke="black" stroke-miterlimit="10" stroke-linecap="round"/>
<path d="M325.648 34.4277V38.2959" stroke="black" stroke-miterlimit="10" stroke-linecap="round"/>
<path d="M330.377 34.4277V38.2959" stroke="black" stroke-miterlimit="10" stroke-linecap="round"/>
<path d="M335.104 33.9551V37.8233" stroke="black" stroke-miterlimit="10" stroke-linecap="round"/>
<path d="M339.83 33.0117V36.8741" stroke="black" stroke-miterlimit="10" stroke-linecap="round"/>
<path d="M344.558 31.5898V35.458" stroke="black" stroke-miterlimit="10" stroke-linecap="round"/>
<path d="M349.284 28.7559V32.624" stroke="black" stroke-miterlimit="10" stroke-linecap="round"/>
<path d="M242.075 257.74C242.075 260.341 246.255 262.448 251.414 262.448C256.572 262.448 260.752 260.341 260.752 257.74V254.549C260.752 257.149 256.572 259.256 251.414 259.256C246.255 259.256 242.075 257.149 242.075 254.549V257.74Z" fill="#FBB33B" stroke="black" stroke-width="0.5" stroke-miterlimit="10"/>
<path d="M251.414 259.257C256.571 259.257 260.752 257.149 260.752 254.549C260.752 251.949 256.571 249.842 251.414 249.842C246.256 249.842 242.075 251.949 242.075 254.549C242.075 257.149 246.256 259.257 251.414 259.257Z" fill="#FBB33B" stroke="black" stroke-width="0.5" stroke-miterlimit="10"/>
<path d="M249.595 257.972C245.975 257.616 243.274 256.219 243.274 254.549C243.274 252.61 246.92 251.039 251.415 251.039C252.539 251.039 253.61 251.138 254.584 251.315" fill="#FBB33B"/>
<path d="M249.595 257.972C245.975 257.616 243.274 256.219 243.274 254.549C243.274 252.61 246.92 251.039 251.415 251.039C252.539 251.039 253.61 251.138 254.584 251.315" stroke="black" stroke-width="0.5" stroke-miterlimit="10" stroke-linecap="round"/>
<path d="M255.979 251.641C258.137 252.272 259.555 253.337 259.555 254.548C259.555 256.44 256.086 257.983 251.741 258.057C251.632 258.059 251.523 258.059 251.414 258.059" fill="#FBB33B"/>
<path d="M255.979 251.641C258.137 252.272 259.555 253.337 259.555 254.548C259.555 256.44 256.086 257.983 251.741 258.057C251.632 258.059 251.523 258.059 251.414 258.059" stroke="black" stroke-width="0.5" stroke-miterlimit="10" stroke-linecap="round"/>
<path d="M244.23 259.178V260.484" stroke="black" stroke-width="0.5" stroke-miterlimit="10" stroke-linecap="round"/>
<path d="M245.827 260.133V261.439" stroke="black" stroke-width="0.5" stroke-miterlimit="10" stroke-linecap="round"/>
<path d="M247.423 260.615V261.919" stroke="black" stroke-width="0.5" stroke-miterlimit="10" stroke-linecap="round"/>
<path d="M249.021 260.934V262.24" stroke="black" stroke-width="0.5" stroke-miterlimit="10" stroke-linecap="round"/>
<path d="M250.615 261.092V262.398" stroke="black" stroke-width="0.5" stroke-miterlimit="10" stroke-linecap="round"/>
<path d="M252.213 261.092V262.398" stroke="black" stroke-width="0.5" stroke-miterlimit="10" stroke-linecap="round"/>
<path d="M253.808 260.934V262.24" stroke="black" stroke-width="0.5" stroke-miterlimit="10" stroke-linecap="round"/>
<path d="M255.404 260.615V261.919" stroke="black" stroke-width="0.5" stroke-miterlimit="10" stroke-linecap="round"/>
<path d="M257 260.133V261.439" stroke="black" stroke-width="0.5" stroke-miterlimit="10" stroke-linecap="round"/>
<path d="M258.596 259.178V260.484" stroke="black" stroke-width="0.5" stroke-miterlimit="10" stroke-linecap="round"/>
<path d="M396.362 257.779C396.362 260.38 400.542 262.487 405.701 262.487C410.859 262.487 415.039 260.38 415.039 257.779V254.588C415.039 257.189 410.859 259.295 405.701 259.295C400.542 259.295 396.362 257.189 396.362 254.588V257.779Z" fill="#FBB33B" stroke="black" stroke-width="0.5" stroke-miterlimit="10"/>
<path d="M405.701 259.296C410.858 259.296 415.039 257.188 415.039 254.588C415.039 251.988 410.858 249.881 405.701 249.881C400.543 249.881 396.362 251.988 396.362 254.588C396.362 257.188 400.543 259.296 405.701 259.296Z" fill="#FBB33B" stroke="black" stroke-width="0.5" stroke-miterlimit="10"/>
<path d="M403.882 258.011C400.262 257.655 397.562 256.258 397.562 254.588C397.562 252.649 401.207 251.078 405.702 251.078C406.826 251.078 407.897 251.177 408.871 251.354" fill="#FBB33B"/>
<path d="M403.882 258.011C400.262 257.655 397.562 256.258 397.562 254.588C397.562 252.649 401.207 251.078 405.702 251.078C406.826 251.078 407.897 251.177 408.871 251.354" stroke="black" stroke-width="0.5" stroke-miterlimit="10" stroke-linecap="round"/>
<path d="M410.266 251.68C412.424 252.311 413.842 253.376 413.842 254.587C413.842 256.479 410.373 258.022 406.028 258.096C405.919 258.098 405.81 258.098 405.701 258.098" fill="#FBB33B"/>
<path d="M410.266 251.68C412.424 252.311 413.842 253.376 413.842 254.587C413.842 256.479 410.373 258.022 406.028 258.096C405.919 258.098 405.81 258.098 405.701 258.098" stroke="black" stroke-width="0.5" stroke-miterlimit="10" stroke-linecap="round"/>
<path d="M398.518 259.215V260.521" stroke="black" stroke-width="0.5" stroke-miterlimit="10" stroke-linecap="round"/>
<path d="M400.114 260.17V261.476" stroke="black" stroke-width="0.5" stroke-miterlimit="10" stroke-linecap="round"/>
<path d="M401.71 260.652V261.957" stroke="black" stroke-width="0.5" stroke-miterlimit="10" stroke-linecap="round"/>
<path d="M403.307 260.971V262.277" stroke="black" stroke-width="0.5" stroke-miterlimit="10" stroke-linecap="round"/>
<path d="M404.902 261.129V262.435" stroke="black" stroke-width="0.5" stroke-miterlimit="10" stroke-linecap="round"/>
<path d="M406.5 261.129V262.435" stroke="black" stroke-width="0.5" stroke-miterlimit="10" stroke-linecap="round"/>
<path d="M408.095 260.971V262.277" stroke="black" stroke-width="0.5" stroke-miterlimit="10" stroke-linecap="round"/>
<path d="M409.691 260.652V261.957" stroke="black" stroke-width="0.5" stroke-miterlimit="10" stroke-linecap="round"/>
<path d="M411.287 260.17V261.476" stroke="black" stroke-width="0.5" stroke-miterlimit="10" stroke-linecap="round"/>
<path d="M412.883 259.215V260.521" stroke="black" stroke-width="0.5" stroke-miterlimit="10" stroke-linecap="round"/>
<path d="M396.362 249.699C396.362 252.3 400.542 254.407 405.701 254.407C410.859 254.407 415.039 252.3 415.039 249.699V246.508C415.039 249.108 410.859 251.215 405.701 251.215C400.542 251.215 396.362 249.108 396.362 246.508V249.699Z" fill="#FBB33B" stroke="black" stroke-width="0.5" stroke-miterlimit="10"/>
<path d="M405.701 251.216C410.858 251.216 415.039 249.108 415.039 246.508C415.039 243.908 410.858 241.801 405.701 241.801C400.543 241.801 396.362 243.908 396.362 246.508C396.362 249.108 400.543 251.216 405.701 251.216Z" fill="#FBB33B" stroke="black" stroke-width="0.5" stroke-miterlimit="10"/>
<path d="M403.882 249.931C400.262 249.575 397.562 248.178 397.562 246.508C397.562 244.569 401.207 242.998 405.702 242.998C406.826 242.998 407.897 243.097 408.871 243.274" fill="#FBB33B"/>
<path d="M403.882 249.931C400.262 249.575 397.562 248.178 397.562 246.508C397.562 244.569 401.207 242.998 405.702 242.998C406.826 242.998 407.897 243.097 408.871 243.274" stroke="black" stroke-width="0.5" stroke-miterlimit="10" stroke-linecap="round"/>
<path d="M410.266 243.6C412.424 244.231 413.842 245.296 413.842 246.507C413.842 248.398 410.373 249.942 406.028 250.016C405.919 250.018 405.81 250.018 405.701 250.018" fill="#FBB33B"/>
<path d="M410.266 243.6C412.424 244.231 413.842 245.296 413.842 246.507C413.842 248.398 410.373 249.942 406.028 250.016C405.919 250.018 405.81 250.018 405.701 250.018" stroke="black" stroke-width="0.5" stroke-miterlimit="10" stroke-linecap="round"/>
<path d="M398.518 251.135V252.441" stroke="black" stroke-width="0.5" stroke-miterlimit="10" stroke-linecap="round"/>
<path d="M400.114 252.09V253.396" stroke="black" stroke-width="0.5" stroke-miterlimit="10" stroke-linecap="round"/>
<path d="M401.71 252.572V253.876" stroke="black" stroke-width="0.5" stroke-miterlimit="10" stroke-linecap="round"/>
<path d="M403.307 252.891V254.197" stroke="black" stroke-width="0.5" stroke-miterlimit="10" stroke-linecap="round"/>
<path d="M404.902 253.049V254.355" stroke="black" stroke-width="0.5" stroke-miterlimit="10" stroke-linecap="round"/>
<path d="M406.5 253.049V254.355" stroke="black" stroke-width="0.5" stroke-miterlimit="10" stroke-linecap="round"/>
<path d="M408.095 252.891V254.197" stroke="black" stroke-width="0.5" stroke-miterlimit="10" stroke-linecap="round"/>
<path d="M409.691 252.572V253.876" stroke="black" stroke-width="0.5" stroke-miterlimit="10" stroke-linecap="round"/>
<path d="M411.287 252.09V253.396" stroke="black" stroke-width="0.5" stroke-miterlimit="10" stroke-linecap="round"/>
<path d="M412.883 251.135V252.441" stroke="black" stroke-width="0.5" stroke-miterlimit="10" stroke-linecap="round"/>
<path d="M396.362 241.619C396.362 244.22 400.542 246.327 405.701 246.327C410.859 246.327 415.039 244.22 415.039 241.619V238.428C415.039 241.028 410.859 243.135 405.701 243.135C400.542 243.135 396.362 241.028 396.362 238.428V241.619Z" fill="#FBB33B" stroke="black" stroke-width="0.5" stroke-miterlimit="10"/>
<path d="M405.701 243.136C410.858 243.136 415.039 241.028 415.039 238.428C415.039 235.828 410.858 233.721 405.701 233.721C400.543 233.721 396.362 235.828 396.362 238.428C396.362 241.028 400.543 243.136 405.701 243.136Z" fill="#FBB33B" stroke="black" stroke-width="0.5" stroke-miterlimit="10"/>
<path d="M403.882 241.851C400.262 241.495 397.562 240.098 397.562 238.428C397.562 236.488 401.207 234.918 405.702 234.918C406.826 234.918 407.897 235.017 408.871 235.194" fill="#FBB33B"/>
<path d="M403.882 241.851C400.262 241.495 397.562 240.098 397.562 238.428C397.562 236.488 401.207 234.918 405.702 234.918C406.826 234.918 407.897 235.017 408.871 235.194" stroke="black" stroke-width="0.5" stroke-miterlimit="10" stroke-linecap="round"/>
<path d="M410.266 235.52C412.424 236.151 413.842 237.216 413.842 238.427C413.842 240.318 410.373 241.862 406.028 241.936C405.919 241.937 405.81 241.937 405.701 241.937" fill="#FBB33B"/>
<path d="M410.266 235.52C412.424 236.151 413.842 237.216 413.842 238.427C413.842 240.318 410.373 241.862 406.028 241.936C405.919 241.937 405.81 241.937 405.701 241.937" stroke="black" stroke-width="0.5" stroke-miterlimit="10" stroke-linecap="round"/>
<path d="M398.518 243.055V244.361" stroke="black" stroke-width="0.5" stroke-miterlimit="10" stroke-linecap="round"/>
<path d="M400.114 244.01V245.316" stroke="black" stroke-width="0.5" stroke-miterlimit="10" stroke-linecap="round"/>
<path d="M401.71 244.492V245.796" stroke="black" stroke-width="0.5" stroke-miterlimit="10" stroke-linecap="round"/>
<path d="M403.307 244.811V246.117" stroke="black" stroke-width="0.5" stroke-miterlimit="10" stroke-linecap="round"/>
<path d="M404.902 244.969V246.275" stroke="black" stroke-width="0.5" stroke-miterlimit="10" stroke-linecap="round"/>
<path d="M406.5 244.969V246.275" stroke="black" stroke-width="0.5" stroke-miterlimit="10" stroke-linecap="round"/>
<path d="M408.095 244.811V246.117" stroke="black" stroke-width="0.5" stroke-miterlimit="10" stroke-linecap="round"/>
<path d="M409.691 244.492V245.796" stroke="black" stroke-width="0.5" stroke-miterlimit="10" stroke-linecap="round"/>
<path d="M411.287 244.01V245.316" stroke="black" stroke-width="0.5" stroke-miterlimit="10" stroke-linecap="round"/>
<path d="M412.883 243.055V244.361" stroke="black" stroke-width="0.5" stroke-miterlimit="10" stroke-linecap="round"/>
</svg>
