<svg width="361" height="336" viewBox="0 0 361 336" fill="none" xmlns="http://www.w3.org/2000/svg">
<path d="M247.35 296.053C244.959 294.301 242.558 293.06 240.027 292.219C239.136 291.669 238.236 291.138 237.285 290.698C236.845 290.398 236.325 290.188 235.755 290.067C231.793 288.666 227.521 288.586 223.559 287.115C220.388 285.934 217.616 283.882 214.305 283.131C213.525 282.951 212.734 282.851 211.944 282.771C212.124 281.52 211.454 280.028 210.103 279.768C207.282 279.227 204.601 279.898 201.779 280.048C199.038 280.198 196.467 280.008 193.936 279.488C192.605 279.217 191.064 279.868 190.734 281.309C190.714 281.409 190.714 281.52 190.704 281.63C190.604 281.73 190.494 281.81 190.404 281.92C189.824 282.631 189.384 283.391 188.954 284.192C188.103 285.763 187.363 287.395 186.693 289.056C186.522 289.477 186.582 290.057 186.733 290.548C186.502 291.349 186.292 292.159 186.062 292.96C184.942 296.864 183.721 300.797 184.612 304.871C184.912 306.242 186.512 307.043 187.813 306.693C188.613 306.472 189.154 305.902 189.444 305.211C189.854 305.492 190.344 305.652 190.844 305.632C191.115 305.622 191.355 305.562 191.595 305.492C196.947 307.684 202.87 307.483 208.632 307.624C217.366 307.834 226.08 307.524 234.794 306.863C236.395 306.743 237.645 306.112 238.586 305.221C239.896 305.952 241.237 306.633 242.668 307.173C249.611 309.716 252.482 299.796 247.35 296.053Z" fill="#F68B38"/>
<path d="M112.182 262.482C112.182 262.492 112.182 262.492 112.182 262.492C112.182 262.482 112.172 262.482 112.172 262.482C112.772 259.93 112.662 257.047 112.202 254.745C111.632 251.852 108.47 250.121 105.739 250.391C103.168 247.318 98.2659 246.998 93.6338 246.968C85.6302 246.908 82.4588 249.93 81.0982 257.828C79.5575 266.756 76.0959 276.145 76.6861 285.263C77.2064 293.26 78.3269 303.3 86.5006 306.833C89.4319 308.104 93.0936 307.814 94.8043 304.651C97.9958 298.755 97.1454 292.139 100.347 286.254C101.017 285.033 101.217 283.832 101.097 282.721C101.998 281.93 102.808 280.949 103.638 279.758C104.509 278.517 105.209 277.176 105.809 275.784C108.36 274.633 111.522 274.053 113.393 272.031C115.894 269.338 115.834 264.284 112.182 262.482Z" fill="#F68B38"/>
<path d="M358.842 46.7026C358.172 45.6016 357.031 45.3113 355.841 45.2913C354.25 45.2613 352.649 45.2913 351.048 45.2813C349.688 45.2813 348.387 46.4824 348.447 47.8837C348.447 47.9237 348.467 47.9537 348.467 47.9938C346.957 48.7345 345.526 49.6253 344.235 50.7063C344.866 49.6253 345.476 48.5343 345.926 47.3532C346.526 45.7717 346.526 44.1302 346.556 42.4687C346.576 41.1575 346.836 39.9764 347.427 38.8653C348.087 37.6242 347.737 36.0327 346.496 35.3021C345.796 34.8917 344.926 34.8717 344.185 35.162C344.095 35.1519 343.995 35.1319 343.915 35.1219C343.795 35.1019 343.645 35.0819 343.515 35.0719C343.475 35.0719 343.435 35.0719 343.395 35.0719C343.375 35.0719 343.355 35.0719 343.345 35.0719C343.105 35.0919 342.845 35.1319 342.605 35.172C342.525 35.182 342.454 35.202 342.374 35.232C342.154 35.3121 341.934 35.4122 341.724 35.5123C341.704 35.5223 341.694 35.5223 341.674 35.5323C341.634 35.5523 341.594 35.5723 341.564 35.5923C341.534 35.6124 341.494 35.6324 341.464 35.6624C341.264 35.8126 341.054 35.9627 340.864 36.1328C340.804 36.1929 340.744 36.253 340.694 36.313C340.534 36.5132 340.374 36.7034 340.233 36.9136C340.213 36.9536 340.183 36.9836 340.173 37.0237C340.163 37.0437 340.153 37.0537 340.153 37.0737C340.053 37.2839 339.963 37.5141 339.873 37.7243C339.853 37.7643 339.843 37.8044 339.833 37.8444C339.823 37.8845 339.813 37.9345 339.803 37.9745C339.793 38.0446 339.783 38.1147 339.773 38.1847C337.432 40.5369 335.671 43.3195 334.591 46.3923C334.611 46.2021 334.631 46.022 334.651 45.8318C334.911 42.3486 335.591 36.6833 331.039 35.7124C326.387 34.7215 326.057 40.2867 325.707 43.3495C325.467 45.4414 325.127 47.5133 324.606 49.5552C324.366 50.4761 324.096 51.3869 323.776 52.2777C323.646 52.6481 323.506 53.0284 323.336 53.3887C323.326 53.3787 323.306 53.3687 323.286 53.3587C324.196 50.8964 322.696 47.193 321.765 45.2012C321.625 44.9009 321.455 44.6807 321.265 44.4805C321.045 44.0301 320.705 43.6298 320.254 43.3895C319.634 43.0592 318.944 42.9391 318.254 43.1293C316.743 43.5297 315.602 44.8809 315.302 46.4023C315.192 46.9428 315.162 47.4633 315.172 47.9938C314.522 48.5343 314.152 49.4051 314.442 50.5561C316.353 58.2833 318.274 66.0204 320.184 73.7475C320.355 74.3881 320.685 74.8285 321.105 75.1288C321.445 76.1697 322.486 76.9504 323.586 76.9504C324.306 76.9504 324.867 76.6902 325.297 76.2698C325.737 76.6602 326.307 76.9004 326.977 76.9905C329.749 77.2607 332.6 76.9905 335.271 76.1998C336.672 75.7894 338.143 75.2789 339.243 74.278C340.283 73.3271 340.814 72.0259 340.784 70.6746C341.234 70.2443 341.624 69.7738 341.914 69.2233C342.885 67.4117 343.395 65.2697 344.065 63.3279C344.155 63.0576 344.175 62.7774 344.155 62.4971C344.395 62.2169 344.655 61.9366 344.976 61.6063C345.416 61.1559 345.876 60.7255 346.346 60.3151C346.596 60.0949 346.846 59.8847 347.117 59.6845C347.187 59.6345 347.517 59.3943 347.517 59.3943C348.737 58.5335 350.028 57.7928 351.208 56.8619C352.169 56.1012 352.899 55.1804 353.679 54.2495C354.05 53.7991 354.44 53.3687 354.87 52.9784C355.1 52.7782 355.12 52.7682 354.93 52.9283C355.06 52.8382 355.19 52.7582 355.32 52.6881C355.51 52.578 355.7 52.4879 355.891 52.3978C357.101 51.7973 358.252 51.0666 358.862 49.8054C359.352 48.8346 359.442 47.7035 358.842 46.7026Z" fill="#F68B38"/>
<path d="M302.066 118.96C299.505 118.96 296.973 117.829 295.263 115.677C292.301 111.934 292.922 106.488 296.653 103.506C296.863 103.336 309.129 93.3264 313.061 79.4736C314.371 74.8694 319.163 72.1969 323.765 73.4981C328.368 74.8093 331.039 79.6037 329.738 84.208C324.226 103.606 308.118 116.538 307.428 117.078C305.847 118.349 303.947 118.96 302.066 118.96Z" fill="black"/>
<path d="M315.402 79.8033C315.102 79.8033 314.792 79.7232 314.512 79.5531C313.691 79.0626 313.421 77.9916 313.921 77.1709L316.683 72.5767C315.782 70.6349 314.041 65.8805 314.572 58.9641C313.551 56.6019 309.279 45.6419 315.502 41.2979C315.572 41.2478 315.642 41.2078 315.712 41.1677C315.962 41.0376 318.263 39.9666 320.765 41.4079C323.496 42.9794 325.156 46.883 325.707 53.0186C329.198 53.6893 337.782 56.2016 339.253 64.6994C339.413 65.6403 338.783 66.5411 337.842 66.7013C336.902 66.8614 336.001 66.2308 335.841 65.29C334.481 57.4027 324.016 56.2516 323.916 56.2416C323.076 56.1515 322.405 55.4709 322.355 54.6201C321.885 46.933 319.914 44.9412 319.084 44.4407C318.323 43.9803 317.623 44.1505 317.353 44.2406C313.851 46.933 316.553 55.0105 317.913 57.9332C318.043 58.2134 318.093 58.5137 318.073 58.824C317.353 66.9014 320.134 71.7059 320.164 71.7559C320.484 72.3064 320.494 72.997 320.164 73.5375L316.913 78.9525C316.573 79.503 315.992 79.8033 315.402 79.8033Z" fill="black"/>
<path d="M328.157 80.4947C327.247 80.4947 326.486 79.7841 326.426 78.8632C326.366 77.9124 327.097 77.0916 328.047 77.0315C328.137 77.0215 336.711 76.441 339.342 71.1361C339.392 71.036 339.452 70.9459 339.512 70.8559C339.532 70.8358 341.523 68.1534 341.893 64.9104C341.943 64.51 342.123 64.1396 342.414 63.8594L357.04 49.7764C357.3 49.0758 357.82 47.2241 356.35 46.1931C356.18 46.073 353.769 44.3714 349.357 47.7846C345.065 52.599 340.373 57.984 339.902 58.7347C339.392 59.5454 338.322 59.7857 337.511 59.2752C336.701 58.7647 336.461 57.7037 336.961 56.893C337.801 55.5517 345.365 47.0539 346.876 45.3624C346.946 45.2923 347.016 45.2222 347.096 45.1522C353.859 39.8172 358.261 43.2805 358.441 43.4306C361.682 45.6827 360.922 49.7264 360.061 51.5281C359.971 51.7182 359.851 51.8884 359.701 52.0285L345.245 65.9413C344.675 69.4245 342.834 72.1671 342.363 72.8177C338.772 79.7941 328.667 80.4647 328.237 80.4947C328.227 80.4847 328.197 80.4947 328.157 80.4947Z" fill="black"/>
<path d="M326.437 56.7029C325.597 56.7029 324.856 56.0923 324.726 55.2416C324.466 53.61 322.335 39.1868 326.657 34.3523C327.678 33.2113 328.998 32.6207 330.489 32.6207C330.499 32.6207 330.509 32.6207 330.519 32.6207C331.199 32.5006 332.8 32.4005 334.381 33.5716C336.482 35.133 337.592 38.2659 337.682 42.8902C337.702 43.8511 336.942 44.6418 335.981 44.6618C335.971 44.6618 335.961 44.6618 335.951 44.6618C335.011 44.6618 334.241 43.9111 334.221 42.9602C334.141 38.4561 333.03 36.9147 332.37 36.3942C331.759 35.9137 331.169 36.0238 331.109 36.0339C330.959 36.0639 330.739 36.0839 330.599 36.0839C330.069 36.0639 329.639 36.234 329.248 36.6644C326.817 39.3869 327.287 49.166 328.158 54.6911C328.308 55.6419 327.658 56.5227 326.717 56.6729C326.617 56.6929 326.527 56.7029 326.437 56.7029Z" fill="black"/>
<path d="M342.184 55.0608C341.894 55.0608 341.594 54.9907 341.314 54.8306C340.483 54.3501 340.203 53.2891 340.683 52.4584C345.746 43.7003 345.576 39.6266 345.015 37.9851C344.705 37.0542 344.195 36.7139 344.195 36.7139C343.895 36.5837 343.445 36.4836 342.734 36.8039C339.153 38.4354 334.881 47.7841 333.03 53.2891C332.73 54.2 331.739 54.6904 330.839 54.3801C329.928 54.0799 329.438 53.089 329.748 52.1881C330.289 50.5867 335.181 36.4436 341.294 33.651C342.714 33.0004 344.175 32.9504 345.525 33.5109C345.726 33.591 347.466 34.3817 348.307 36.874C349.627 40.7876 348.077 46.613 343.685 54.2C343.364 54.7505 342.774 55.0608 342.184 55.0608Z" fill="black"/>
<path d="M121.123 269.388C118.722 269.388 116.281 269.298 113.77 269.088C108.998 268.708 105.436 264.524 105.826 259.749C106.216 254.975 110.398 251.402 115.16 251.802C152.937 254.845 177.088 227.099 177.328 226.819C180.43 223.186 185.892 222.735 189.534 225.828C193.175 228.921 193.636 234.366 190.564 238.019C189.434 239.371 163.612 269.388 121.123 269.388Z" fill="black"/>
<path d="M288.939 319.484H134.06C131.779 319.484 129.928 317.633 129.928 315.351V309.295C129.928 307.013 131.779 305.161 134.06 305.161H288.939C291.22 305.161 293.071 307.013 293.071 309.295V315.351C293.071 317.633 291.22 319.484 288.939 319.484Z" fill="black"/>
<path d="M56.415 270.559H28.5425C23.18 270.559 18.8281 266.195 18.8281 260.84C18.8281 255.485 23.19 251.121 28.5425 251.121C29.5029 251.121 30.2733 251.902 30.2733 252.853C30.2733 253.804 29.4929 254.584 28.5425 254.584C25.1009 254.584 22.2896 257.387 22.2896 260.84C22.2896 264.283 25.0909 267.086 28.5425 267.086H56.415C57.3754 267.086 58.1458 267.867 58.1458 268.817C58.1458 269.768 57.3754 270.559 56.415 270.559Z" fill="black"/>
<path d="M18.0581 273.342H6.25281C2.81126 273.342 0 270.539 0 267.086C0 263.643 2.80126 260.83 6.25281 260.83C7.21324 260.83 7.98357 261.611 7.98357 262.562C7.98357 263.513 7.20324 264.293 6.25281 264.293C4.72212 264.293 3.47153 265.544 3.47153 267.076C3.47153 268.607 4.72212 269.858 6.25281 269.858H18.0581C19.0185 269.858 19.7889 270.639 19.7889 271.59C19.7989 272.571 19.0185 273.342 18.0581 273.342Z" fill="black"/>
<path d="M12.3055 288.957C8.864 288.957 6.05273 286.154 6.05273 282.701C6.05273 279.258 8.85399 276.445 12.3055 276.445H15.447C16.4074 276.445 17.1777 277.226 17.1777 278.177C17.1777 279.128 16.3974 279.909 15.447 279.909H12.3055C10.7749 279.909 9.52427 281.16 9.52427 282.691C9.52427 284.222 10.7749 285.474 12.3055 285.474C13.266 285.474 14.0363 286.254 14.0363 287.205C14.0363 288.156 13.256 288.957 12.3055 288.957Z" fill="black"/>
<path d="M28.5425 294.842C23.18 294.842 18.8281 290.478 18.8281 285.123C18.8281 279.768 23.19 275.404 28.5425 275.404H56.415C57.3754 275.404 58.1458 276.185 58.1458 277.136C58.1458 278.087 57.3654 278.867 56.415 278.867H28.5425C25.1009 278.867 22.2896 281.67 22.2896 285.123C22.2896 288.576 25.0909 291.369 28.5425 291.369C29.5029 291.369 30.2733 292.15 30.2733 293.101C30.2733 294.051 29.5029 294.842 28.5425 294.842Z" fill="black"/>
<path d="M108.63 270.559C102.868 270.559 98.1855 265.685 98.1855 259.689C98.1855 253.694 102.868 248.819 108.63 248.819C114.393 248.819 119.075 253.694 119.075 259.689C119.075 265.685 114.383 270.559 108.63 270.559ZM108.63 252.282C104.789 252.282 101.657 255.606 101.657 259.689C101.657 263.773 104.789 267.096 108.63 267.096C112.472 267.096 115.603 263.773 115.603 259.689C115.603 255.606 112.472 252.282 108.63 252.282Z" fill="black"/>
<path d="M89.7993 309.195C85.8975 309.195 82.3359 307.593 82.1358 307.493C81.9857 307.423 81.8557 307.343 81.7256 307.233C66.4187 294.131 80.5951 249.59 81.2054 247.708C81.3554 247.238 81.6956 246.857 82.1458 246.657C97.9429 239.571 109.268 248.819 109.738 249.22C110.469 249.83 110.569 250.931 109.958 251.662C109.338 252.393 108.248 252.493 107.517 251.882C107.077 251.522 97.6328 243.925 84.2768 249.52C83.4464 252.222 80.6051 261.971 79.0944 272.681C76.8334 288.676 78.4542 299.636 83.7966 304.431C84.837 304.861 89.4391 306.592 92.7106 305.201C94.0211 304.641 94.9616 303.63 95.5519 302.108C95.6719 299.466 96.8124 281.269 106.537 275.134C106.657 275.063 106.777 275.003 106.907 274.953C108.798 274.313 114.21 271.79 114.38 268.718C114.43 267.767 115.261 267.026 116.201 267.076C117.162 267.126 117.892 267.947 117.842 268.898C117.542 274.543 109.848 277.576 108.228 278.156C99.6637 283.781 99.0134 302.299 99.0134 302.489C99.0034 302.669 98.9734 302.849 98.9134 303.019C97.9929 305.602 96.3622 307.413 94.0611 308.384C92.6805 308.975 91.2199 309.195 89.7993 309.195Z" fill="black"/>
<path d="M201.221 288.046C199.39 288.046 197.539 287.465 195.978 286.274C192.167 283.372 191.436 277.927 194.338 274.123C197.309 270.019 203.202 245.957 206.843 226.049C207.704 221.335 212.216 218.222 216.928 219.082C221.64 219.943 224.751 224.457 223.891 229.172C221.38 242.924 214.807 275.855 208.124 284.633C206.423 286.875 203.842 288.046 201.221 288.046Z" fill="black"/>
<path d="M200.99 288.406C193.406 288.406 187.684 285.433 187.684 281.49C187.684 277.546 193.406 274.573 200.99 274.573C208.573 274.573 214.296 277.546 214.296 281.49C214.296 285.423 208.573 288.406 200.99 288.406ZM200.99 278.036C194.627 278.036 191.155 280.319 191.155 281.49C191.155 282.661 194.627 284.943 200.99 284.943C207.352 284.943 210.824 282.661 210.824 281.49C210.824 280.319 207.352 278.036 200.99 278.036Z" fill="black"/>
<path d="M249.853 307.463H184.703C183.863 307.463 183.143 306.862 182.993 306.032C182.872 305.341 180.111 288.986 188.155 280.468C188.815 279.767 189.906 279.737 190.606 280.398C191.306 281.059 191.336 282.15 190.676 282.85C185.073 288.786 185.764 300.026 186.214 304H248.612C250.573 297.043 242.739 293.63 242.389 293.48L212.006 283.301C211.095 283 210.605 282.009 210.915 281.109C211.215 280.198 212.206 279.717 213.106 280.018L243.61 290.237C247.952 292.049 255.005 297.684 251.453 306.392C251.193 307.033 250.553 307.463 249.853 307.463Z" fill="black"/>
<path d="M153.1 336C158.614 336 163.084 331.528 163.084 326.011C163.084 320.494 158.614 316.021 153.1 316.021C147.585 316.021 143.115 320.494 143.115 326.011C143.115 331.528 147.585 336 153.1 336Z" fill="black"/>
<path d="M267.45 336C272.965 336 277.435 331.528 277.435 326.011C277.435 320.494 272.965 316.021 267.45 316.021C261.936 316.021 257.466 320.494 257.466 326.011C257.466 331.528 261.936 336 267.45 336Z" fill="black"/>
<path d="M140.512 316.642L135.45 318.513C133.539 319.224 131.428 318.243 130.718 316.341L126.056 303.75C125.345 301.838 126.326 299.726 128.227 299.015L133.289 297.144C135.2 296.433 137.311 297.414 138.021 299.316L142.683 311.907C143.394 313.809 142.423 315.931 140.512 316.642Z" fill="black"/>
<path d="M266.43 69.7151C253.754 69.7151 243.479 59.4357 243.479 46.754C243.479 43.3308 244.25 40.0879 245.59 37.1752C226.432 21.791 202.121 12.5625 175.649 12.5625C113.881 12.5625 63.8086 62.6587 63.8086 124.456C63.8086 129.05 64.1188 133.564 64.659 138.008C66.91 137.267 69.3111 136.857 71.8022 136.857C84.4779 136.857 94.7525 147.136 94.7525 159.818C94.7525 169.827 88.3397 178.305 79.4156 181.458C98.9044 214.318 134.7 236.359 175.659 236.359C237.427 236.359 287.499 186.262 287.499 124.466C287.499 104.207 282.087 85.2294 272.683 68.8343C270.692 69.3949 268.601 69.7151 266.43 69.7151ZM144.225 206.621C136.231 206.621 129.758 200.145 129.758 192.148C129.758 184.151 136.231 177.675 144.225 177.675C152.218 177.675 158.691 184.151 158.691 192.148C158.691 200.145 152.208 206.621 144.225 206.621Z" fill="#F68B38"/>
<path d="M175.648 238.099C135.76 238.099 98.3027 216.74 77.9136 182.348L76.8331 180.526L78.8239 179.826C87.2978 176.843 93.0003 168.806 93.0003 159.827C93.0003 148.127 83.4861 138.608 71.7908 138.608C69.5598 138.608 67.3388 138.968 65.1878 139.669L63.1769 140.329L62.9268 138.227C62.3465 133.443 62.0664 128.939 62.0664 124.465C62.0664 61.807 113.019 10.8301 175.648 10.8301C201.759 10.8301 226.32 19.468 246.679 35.8231L247.74 36.6739L247.17 37.905C245.869 40.7276 245.219 43.7003 245.219 46.7632C245.219 58.4639 254.733 67.9827 266.428 67.9827C268.339 67.9827 270.28 67.7025 272.201 67.162L273.502 66.7916L274.172 67.9627C284.016 85.1085 289.219 104.647 289.219 124.455C289.229 187.122 238.276 238.099 175.648 238.099ZM81.9453 182.318C101.934 214.638 137.65 234.636 175.648 234.636C236.365 234.636 285.757 185.221 285.757 124.475C285.757 105.707 280.945 87.2004 271.821 70.8554C270.03 71.2657 268.219 71.4659 266.428 71.4659C252.822 71.4659 241.747 60.3857 241.747 46.7732C241.747 43.6603 242.327 40.6275 243.478 37.7248C223.949 22.4007 200.519 14.3133 175.648 14.3133C114.93 14.3133 65.538 63.7288 65.538 124.475C65.538 128.178 65.7381 131.912 66.1483 135.815C68.0091 135.375 69.8999 135.155 71.8008 135.155C85.4069 135.155 96.4819 146.235 96.4819 159.847C96.4719 169.566 90.7193 178.354 81.9453 182.318ZM144.223 208.362C135.289 208.362 128.026 201.095 128.026 192.157C128.026 183.219 135.289 175.952 144.223 175.952C153.157 175.952 160.421 183.219 160.421 192.157C160.421 201.095 153.157 208.362 144.223 208.362ZM144.223 179.415C137.2 179.415 131.488 185.131 131.488 192.157C131.488 199.184 137.2 204.899 144.223 204.899C151.247 204.899 156.959 199.184 156.959 192.157C156.959 185.131 151.247 179.415 144.223 179.415Z" fill="black"/>
<path d="M285.498 69.7151C272.822 69.7151 262.548 59.4357 262.548 46.754C262.548 43.3308 263.318 40.0879 264.659 37.1752C245.5 21.791 221.189 12.5625 194.717 12.5625C132.95 12.5625 82.877 62.6587 82.877 124.456C82.877 129.05 83.1871 133.564 83.7274 138.008C85.9784 137.267 88.3794 136.857 90.8705 136.857C103.546 136.857 113.821 147.136 113.821 159.818C113.821 169.827 107.408 178.305 98.484 181.458C117.973 214.318 153.769 236.359 194.727 236.359C256.495 236.359 306.568 186.262 306.568 124.466C306.568 104.207 301.155 85.2294 291.751 68.8343C289.76 69.3949 287.669 69.7151 285.498 69.7151ZM163.293 206.621C155.3 206.621 148.827 200.145 148.827 192.148C148.827 184.151 155.3 177.675 163.293 177.675C171.287 177.675 177.76 184.151 177.76 192.148C177.76 200.145 171.287 206.621 163.293 206.621Z" fill="#FBB33B"/>
<path d="M194.718 238.099C154.83 238.099 117.373 216.74 96.9839 182.348L95.9034 180.526L97.8943 179.826C106.368 176.843 112.071 168.806 112.071 159.827C112.071 148.127 102.556 138.608 90.8611 138.608C88.6301 138.608 86.4091 138.968 84.2581 139.669L82.2472 140.329L81.9971 138.227C81.4168 133.443 81.1367 128.939 81.1367 124.465C81.1367 61.807 132.09 10.8301 194.718 10.8301C220.83 10.8301 245.391 19.468 265.75 35.8231L266.81 36.6739L266.24 37.905C264.939 40.7276 264.289 43.7003 264.289 46.7632C264.289 58.4639 273.803 67.9827 285.499 67.9827C287.41 67.9827 289.35 67.7025 291.271 67.162L292.572 66.7916L293.242 67.9627C303.087 85.1085 308.289 104.647 308.289 124.455C308.299 187.122 257.346 238.099 194.718 238.099ZM101.026 182.318C121.015 214.638 156.731 234.636 194.728 234.636C255.445 234.636 304.837 185.221 304.837 124.475C304.837 105.707 300.025 87.2004 290.901 70.8554C289.11 71.2657 287.299 71.4659 285.509 71.4659C271.903 71.4659 260.828 60.3857 260.828 46.7732C260.828 43.6603 261.408 40.6275 262.558 37.7248C243.03 22.4007 219.599 14.3133 194.728 14.3133C134.01 14.3133 84.6183 63.7288 84.6183 124.475C84.6183 128.178 84.8184 131.912 85.2286 135.815C87.0894 135.375 88.9802 135.155 90.8811 135.155C104.487 135.155 115.562 146.235 115.562 159.847C115.552 169.566 109.79 178.354 101.026 182.318ZM163.294 208.362C154.36 208.362 147.096 201.095 147.096 192.157C147.096 183.219 154.36 175.952 163.294 175.952C172.228 175.952 179.491 183.219 179.491 192.157C179.491 201.095 172.228 208.362 163.294 208.362ZM163.294 179.415C156.271 179.415 150.558 185.131 150.558 192.157C150.558 199.184 156.271 204.899 163.294 204.899C170.317 204.899 176.029 199.184 176.029 192.157C176.029 185.131 170.317 179.415 163.294 179.415Z" fill="black"/>
<path d="M99.607 179.263L79.334 179.737L79.4153 183.209L99.6883 182.735L99.607 179.263Z" fill="black"/>
<path d="M61.418 211.365C60.9178 208.862 59.3671 206.881 57.7464 204.989C56.956 204.058 55.8555 203.547 54.695 203.347C55.2653 202.406 55.6254 201.315 55.6955 200.154C55.9356 196.191 53.7246 191.536 49.4327 190.956C49.0825 190.906 48.4822 190.836 47.892 190.826C47.7319 190.616 47.5718 190.415 47.4318 190.265C45.2008 187.853 41.259 186.952 38.0975 187.823C35.4864 188.544 34.1958 190.215 33.5755 192.257C31.4146 194.119 29.6838 196.461 27.7529 198.743C24.7416 202.286 23.0508 205.429 23.491 210.234C23.7311 212.876 25.652 215.398 28.0831 216.189C27.7429 216.97 27.5428 217.801 27.4228 218.751C27.0926 221.524 28.4232 224.597 30.4341 226.459C33.0153 228.851 36.2067 229.431 39.5782 228.831C40.0385 228.751 40.4686 228.581 40.8688 228.36C42.1194 229.982 43.9702 231.063 46.6814 231.183C50.6432 231.353 53.8046 228.621 54.565 224.797C54.7751 223.736 54.8051 222.665 54.7251 221.604C56.2458 221.604 57.7564 221.044 58.967 219.873C61.258 217.65 62.0283 214.428 61.418 211.365Z" fill="#F68B38"/>
<path d="M49.9732 197.763C48.1024 197.763 46.2215 197.092 44.7308 195.731C41.5394 192.828 41.3093 187.894 44.2006 184.701C45.2811 183.52 70.8826 155.584 96.244 149.318C100.426 148.297 104.658 150.84 105.688 155.023C106.719 159.207 104.168 163.441 99.9857 164.472C82.7179 168.736 62.1987 188.104 55.7458 195.2C54.2051 196.902 52.0942 197.763 49.9732 197.763Z" fill="black"/>
<path d="M37.5973 198.153C37.1571 198.153 36.7269 197.993 36.3868 197.663C34.9961 196.301 30.7542 192.168 32.4049 188.584C34.3258 184.43 42.7196 185.011 44.3904 185.171C45.3408 185.261 46.0411 186.112 45.9511 187.063C45.861 188.014 45.0106 188.744 44.0602 188.624C40.4986 188.284 36.1266 188.784 35.5564 190.046C35.4963 190.186 35.0361 191.507 38.8078 195.18C39.4981 195.851 39.5082 196.952 38.8379 197.633C38.4977 197.973 38.0475 198.153 37.5973 198.153Z" fill="black"/>
<path d="M52.2536 205.99C50.2927 205.99 47.9216 205.459 45.1003 204.378C44.2099 204.038 43.7597 203.037 44.0999 202.136C44.44 201.235 45.4405 200.785 46.3409 201.135C50.5128 202.727 53.4541 202.947 54.6146 201.776C56.1153 200.254 55.1149 196 54.3946 194.169C54.0444 193.278 54.4746 192.267 55.365 191.917C56.2554 191.566 57.2558 191.997 57.616 192.888C57.9261 193.678 60.5673 200.665 57.0858 204.208C55.9152 205.399 54.3145 205.99 52.2536 205.99Z" fill="black"/>
<path d="M57.1263 224.486C56.6161 224.486 56.1059 224.256 55.7657 223.816C55.1754 223.065 55.3055 221.974 56.0658 221.383C59.7075 218.531 61.5183 215.568 61.4482 212.585C61.3382 207.651 56.1759 203.917 56.1258 203.877C55.3455 203.327 55.1654 202.246 55.7157 201.465C56.2659 200.684 57.3464 200.504 58.1267 201.055C58.3969 201.245 64.7398 205.799 64.9098 212.485C65.0099 216.629 62.7588 220.553 58.1968 224.116C57.8766 224.366 57.4965 224.486 57.1263 224.486Z" fill="black"/>
<path d="M27.3632 219.973C26.953 219.973 26.5328 219.823 26.2027 219.523C22.8812 216.51 21.2204 212.937 21.2404 208.873C21.3004 199.184 31.1749 190.326 31.595 189.956C32.3154 189.325 33.4059 189.395 34.0361 190.106C34.6664 190.826 34.6064 191.917 33.8861 192.558C33.7961 192.638 24.742 200.776 24.702 208.913C24.682 211.976 25.9326 214.608 28.5237 216.961C29.234 217.601 29.2841 218.702 28.6438 219.413C28.3036 219.783 27.8334 219.973 27.3632 219.973Z" fill="black"/>
<path d="M39.0578 231.713C34.1857 231.713 30.6841 230.232 28.6432 227.309C24.5814 221.514 28.1929 212.346 28.353 211.965C28.7132 211.074 29.7136 210.644 30.604 211.004C31.4944 211.365 31.9246 212.366 31.5645 213.256C31.5345 213.336 28.5031 221.074 31.4844 225.328C32.9351 227.389 35.7263 228.36 39.7882 228.23C39.8082 228.23 39.8282 228.23 39.8482 228.23C40.7786 228.23 41.549 228.971 41.579 229.912C41.609 230.873 40.8586 231.673 39.9082 231.703C39.6281 231.713 39.338 231.713 39.0578 231.713Z" fill="black"/>
<path d="M47.6226 234.007C47.5126 234.007 47.4526 234.007 47.4326 233.997C43.3207 233.476 40.4894 231.785 38.9187 228.962C35.5472 222.906 39.5491 213.948 39.7191 213.578C40.1193 212.707 41.1397 212.327 42.0101 212.717C42.8805 213.117 43.2707 214.138 42.8705 215.009C42.8305 215.089 39.419 222.756 41.9401 227.28C42.9606 229.112 44.8714 230.183 47.7527 230.553C47.7027 230.543 49.6435 230.593 51.4143 228.692C53.2552 226.71 55.2261 222.276 54.1756 212.367C54.0755 211.416 54.7659 210.565 55.7163 210.455C56.6868 210.355 57.5271 211.045 57.6271 211.996C58.5976 221.085 57.327 227.531 53.8554 231.154C51.3043 233.826 48.393 234.007 47.6226 234.007Z" fill="black"/>
<path d="M181.093 77.0713C181.053 77.1313 181.063 77.1213 181.093 77.0713V77.0713Z" fill="#F499AD"/>
<path d="M197.289 75.5199C196.929 74.9994 196.488 74.569 195.998 74.2187C195.998 74.1586 196.008 74.0986 196.008 74.0385C195.758 70.7655 193.397 67.9629 189.935 67.9629C187.895 67.9629 185.824 69.184 184.703 70.9557C184.403 71.2359 184.173 71.4461 184.263 71.366C183.613 71.9766 183.002 72.6973 182.542 73.478C182.072 74.2787 181.772 75.2096 181.492 76.0904C181.302 76.6909 181.152 76.9812 181.092 77.0713C181.202 76.9011 181.632 76.3406 182.652 75.5999C180.801 76.9512 179.861 78.6728 179.781 80.4844C179.151 81.0349 178.62 81.6655 178.15 82.4462C176.469 85.2088 177.5 89.1624 180.331 90.7539C182.542 91.995 184.803 92.8458 187.144 93.4664C186.734 94.0169 186.424 94.6375 186.294 95.3081C185.273 95.3982 184.253 95.4783 183.232 95.5683C183.092 95.5583 182.962 95.5983 182.822 95.6084C181.752 94.5774 179.971 94.1871 178.62 94.5574C176.659 95.0979 175.639 96.8195 175.439 98.7412C175.049 102.565 175.449 106.558 176.669 110.212C177.31 112.114 177.99 114.095 179.651 115.337C179.831 115.477 180.031 115.587 180.221 115.697C180.641 116.738 181.262 117.649 182.292 118.269C184.543 119.64 187.935 120.091 190.476 119.49C194.147 118.63 195.558 115.467 196.759 112.254C199.01 106.238 200.27 99.8423 200.64 93.4364C200.99 87.4308 200.84 80.6346 197.289 75.5199Z" fill="#F499AD"/>
<path d="M250.012 100.753C250.783 94.5872 250.873 88.0211 248.522 82.1757C248.142 81.2148 247.521 80.4041 246.751 79.8235C246.591 79.4632 246.431 79.1129 246.281 78.7526L244.87 75.5596C244.42 74.5387 244.05 73.4877 243.359 72.5969C241.949 70.7752 239.598 69.9244 237.397 70.8553C235.576 71.626 234.285 73.4177 234.305 75.3594C231.624 78.2621 229.593 81.8554 228.613 85.699C228.003 86.4496 227.572 87.4906 227.612 88.4315C227.662 89.5525 228.033 90.7136 228.883 91.4943L229.763 92.1749C230.444 92.5653 231.164 92.7655 231.954 92.7655C232.014 92.7755 232.064 92.7755 232.124 92.7855C233.315 92.9557 234.505 93.1859 235.646 93.5862C235.966 93.7364 236.266 93.9165 236.566 94.1067C236.766 94.2869 236.947 94.467 237.127 94.6672C237.177 94.7473 237.237 94.8274 237.287 94.9174C237.517 95.3278 237.807 95.6681 238.137 95.9584C238.027 96.0285 237.897 96.0885 237.797 96.1686C237.197 96.3488 236.586 96.5189 235.976 96.649C235.796 96.6891 234.946 96.9593 234.806 96.8592C235.466 96.7792 235.556 96.7592 235.076 96.8192C234.926 96.8392 234.776 96.8492 234.635 96.8592C233.195 96.9893 231.764 96.9493 230.324 96.7892C228.853 96.619 227.282 97.73 226.582 98.9412C225.762 100.352 225.882 101.904 226.582 103.315C226.712 103.565 227.092 104.096 227.092 104.386C226.852 103.806 226.822 103.726 227.002 104.166C227.072 104.346 227.142 104.536 227.212 104.716C227.482 105.457 227.712 106.208 227.912 106.969C228.013 107.349 228.093 107.739 228.173 108.12C228.213 108.31 228.473 109.121 228.373 109.281C228.283 108.62 228.273 108.52 228.323 109.01C228.343 109.211 228.363 109.401 228.373 109.601C228.393 109.891 228.413 110.192 228.433 110.482C228.613 113.785 228.953 117.348 231.604 119.7C231.634 119.73 231.674 119.75 231.704 119.77C231.724 119.94 231.754 120.141 231.764 120.231C231.784 120.371 231.824 120.711 231.844 120.831C231.854 120.861 231.854 120.881 231.864 120.911C231.914 121.082 232.144 121.582 232.094 121.462C232.044 121.342 232.244 121.872 232.334 122.022C232.344 122.052 232.364 122.072 232.384 122.092C232.465 122.203 232.975 122.873 233.065 122.983C233.075 122.993 233.085 123.013 233.095 123.023C233.395 123.324 233.745 123.584 234.095 123.804C234.295 123.934 234.555 124.014 234.756 124.104C234.976 124.194 235.206 124.325 235.446 124.375C235.596 124.405 236.456 124.515 236.606 124.535C236.626 124.535 236.646 124.545 236.666 124.545C236.696 124.545 236.726 124.545 236.756 124.545C237.727 124.485 238.227 124.375 239.077 123.914C239.108 123.904 239.128 123.884 239.148 123.874C239.238 123.814 239.968 123.254 240.038 123.183C240.048 123.173 240.058 123.163 240.068 123.153C240.098 123.123 240.218 122.973 240.348 122.803C241.469 122.853 242.609 122.513 243.53 121.652C243.76 121.432 244 121.212 244.23 120.991C245.2 120.071 245.56 119.03 245.53 118.019C246.321 116.868 246.901 115.556 247.331 114.265C247.761 112.954 248.052 111.593 248.522 110.292C248.642 110.051 248.782 109.811 248.922 109.581C249.002 109.501 249.072 109.411 249.152 109.331C250.663 107.899 250.813 105.267 249.522 103.635C249.712 102.705 249.892 101.734 250.012 100.753Z" fill="#F499AD"/>
<path d="M235.505 147.346C235.375 146.785 235.115 146.285 234.725 145.875C234.415 145.404 234.015 145.034 233.504 144.754C233.164 144.603 232.814 144.463 232.474 144.313C231.704 144.103 230.933 144.103 230.173 144.313C229.823 144.463 229.483 144.603 229.142 144.754C228.492 145.144 227.972 145.654 227.592 146.305C227.392 146.585 227.192 146.875 227.002 147.156C226.681 147.656 226.511 148.187 226.491 148.767C226.361 149.348 226.391 149.918 226.571 150.499C226.661 150.869 226.831 151.189 227.032 151.5C227.012 151.6 227.002 151.69 226.982 151.79C221.919 151.8 216.847 151.81 211.785 151.82C211.695 151.82 211.605 151.84 211.515 151.85C211.455 151.36 211.344 150.879 211.144 150.439C211.194 150.108 211.224 149.788 211.204 149.458C211.174 149.188 211.194 148.917 211.204 148.647C211.244 148.507 211.264 148.357 211.314 148.217C211.495 147.636 211.525 147.066 211.395 146.485C211.365 145.905 211.194 145.374 210.884 144.874C210.614 144.373 210.244 143.963 209.764 143.653C209.344 143.272 208.853 143.012 208.293 142.872C207.913 142.822 207.523 142.772 207.143 142.722C206.362 142.722 205.632 142.922 204.952 143.312C204.661 143.542 204.371 143.763 204.071 143.993C203.531 144.533 203.161 145.174 202.961 145.905C202.681 146.685 202.591 147.536 202.521 148.347C202.45 149.168 202.591 150.018 202.731 150.819C202.781 151.049 202.871 151.26 202.971 151.46C202.961 151.54 202.961 151.62 202.951 151.7C202.881 151.8 202.831 151.91 202.761 152.01C202.27 152.611 201.78 153.211 201.35 153.862C200.73 154.803 200.29 155.864 199.909 156.915C199.269 158.686 199.029 160.728 199.269 162.6C199.249 163.201 199.369 163.751 199.639 164.271C199.809 164.812 200.109 165.272 200.54 165.663C201.29 166.413 202.521 166.984 203.601 166.934C203.891 166.924 204.181 166.884 204.471 166.824C205.022 167.094 205.622 167.234 206.272 167.144C207.663 166.964 209.053 166.884 210.454 166.954C210.774 166.974 211.084 167.014 211.405 167.024C211.425 167.024 211.425 167.024 211.445 167.024C211.485 167.034 211.515 167.034 211.565 167.054C212.185 167.174 212.795 167.304 213.395 167.484C213.686 167.575 213.966 167.675 214.256 167.775C214.346 167.815 214.466 167.865 214.606 167.935C215.146 168.215 215.676 168.535 216.167 168.896C216.237 168.966 216.357 169.066 216.467 169.166C216.697 169.386 216.907 169.616 217.127 169.837C217.197 169.917 217.247 169.957 217.287 169.997C217.317 170.037 217.327 170.067 217.377 170.137C217.547 170.397 217.717 170.657 217.887 170.928C218.047 171.198 218.198 171.468 218.348 171.748C218.368 171.788 218.478 172.019 218.568 172.199C218.638 172.369 218.788 172.739 218.808 172.799C218.938 173.16 219.058 173.52 219.168 173.89C219.558 175.172 219.818 176.493 220.028 177.814C220.048 177.924 220.048 177.964 220.058 177.984L220.098 178.284C220.148 178.765 220.198 179.235 220.238 179.716C220.308 180.516 220.349 181.317 220.379 182.118C220.429 183.88 220.369 185.641 220.229 187.393C220.048 189.665 222.349 191.827 224.56 191.727C226.271 191.647 227.562 190.776 228.272 189.465C228.622 189.455 228.972 189.425 229.283 189.325C230.333 188.984 231.343 188.334 231.874 187.333C232.444 186.262 232.554 185.181 232.314 183.99C232.264 183.739 232.224 183.489 232.184 183.239C232.644 182.558 232.924 181.728 232.994 180.807C233.314 176.192 233.635 171.568 233.955 166.954C233.995 166.333 233.845 165.733 233.584 165.172C234.235 161.149 234.885 157.125 235.525 153.111C235.685 152.1 235.685 151.179 235.305 150.259C235.485 149.878 235.605 149.478 235.625 149.057C235.715 148.497 235.685 147.926 235.505 147.346Z" fill="#F499AD"/>
<path d="M210.245 86.3198C210.225 86.1396 210.195 85.9695 210.145 85.8094C209.575 82.5764 208.734 79.3934 207.594 76.2806C207.244 75.3297 206.623 74.7091 205.893 74.3388C203.992 71.366 201.501 68.7636 198.55 66.7718C197.039 65.7509 194.638 66.4315 193.808 68.013C192.887 69.7646 193.437 71.6763 195.048 72.7573C195.248 72.8874 195.448 73.0276 195.648 73.1677C195.668 73.1877 195.769 73.2578 195.849 73.3178C195.969 73.4079 196.169 73.5681 196.199 73.5981C196.349 73.7182 196.489 73.8483 196.639 73.9785C197.289 74.559 197.899 75.1695 198.47 75.8201C198.63 76.0003 198.79 76.1805 198.94 76.3706C198.96 76.4007 199.05 76.5108 199.12 76.5908C199.21 76.711 199.34 76.8911 199.37 76.9312C199.48 77.0913 199.59 77.2515 199.7 77.4116C200.211 78.1723 200.671 78.973 201.091 79.7838C201.271 80.1341 201.431 80.4944 201.591 80.8548C201.601 80.8848 201.611 80.8948 201.621 80.9348C201.701 81.1651 201.791 81.3853 201.871 81.6155C202.161 82.4362 202.402 83.267 202.592 84.1178C202.682 84.5382 202.762 84.9686 202.842 85.399C202.842 85.419 202.842 85.429 202.852 85.449C202.872 85.6492 202.892 85.8494 202.912 86.0596C202.992 86.9704 203.002 87.8913 202.962 88.8121C202.942 89.3626 203.102 89.9031 203.362 90.3936C203.302 94.5274 203.032 98.6512 201.861 102.635C200.401 107.639 197.389 111.993 194.498 116.277C193.998 117.028 193.918 117.939 194.128 118.79C191.847 121.222 195.018 125.866 198.59 124.055C205.883 120.351 209.255 112.144 210.405 104.447C211.296 98.411 211.245 92.2953 210.245 86.3198Z" fill="#F68B38"/>
<path d="M259.597 90.2433C259.497 89.7528 259.347 89.2724 259.227 88.7819C259.517 88.2915 259.697 87.7209 259.677 87.0904C259.377 79.6035 255.025 72.4269 248.302 68.9837C246.691 68.1529 244.47 68.5132 243.56 70.2248C242.719 71.8063 243.079 74.0884 244.8 74.9692C245.46 75.3095 246.111 75.6899 246.721 76.1102C246.861 76.2003 246.991 76.3104 247.131 76.4005C247.401 76.6307 247.671 76.8509 247.941 77.1011C248.162 77.3013 248.362 77.5415 248.572 77.7517C248.512 78.1921 248.542 78.6526 248.692 79.093C250.092 83.1867 251.813 87.3005 252.784 91.5244C252.424 92.0749 252.203 92.7356 252.153 93.4362C251.863 97.7602 251.753 102.134 250.843 106.398C249.962 110.542 248.532 114.506 246.541 118.249C245.66 119.901 246.121 122.023 247.781 122.993C248.732 123.544 249.932 123.574 250.943 123.154C252.534 123.174 253.754 122.183 254.364 120.631C255.785 117.048 257.276 113.485 258.616 109.881C259.127 108.52 259.407 107.109 259.587 105.667C259.837 105.187 260.027 104.667 260.057 104.096C260.347 99.4617 260.547 94.8275 259.597 90.2433Z" fill="#F68B38"/>
<path d="M217.388 173.019C213.737 168.054 207.664 167.434 201.952 167.624C200.141 167.684 198.4 169.175 198.48 171.097C198.51 171.728 198.71 172.338 199.02 172.869C197.389 177.713 199.3 183.058 202.612 186.712C206.013 190.475 211.016 192.397 215.758 193.798C217.819 194.409 220.29 192.697 220.15 190.455C219.79 184.57 221.15 178.134 217.388 173.019Z" fill="#F68B38"/>
<path d="M196.828 127.436L195.738 124.143C203.471 121.581 209.514 110.09 210.094 96.828C210.434 89.0508 208.934 81.6841 205.852 76.0789C202.931 70.754 198.959 67.7212 194.667 67.531C194.527 67.521 194.387 67.521 194.257 67.521C187.004 67.521 180.161 75.8887 177.669 87.7797C178.76 88.2501 181.021 88.9107 182.612 89.3712C187.964 90.9226 190.655 91.7033 190.465 93.9453C190.305 95.787 189.205 95.8471 182.011 96.2675C180.341 96.3676 178.02 96.4977 176.689 96.6378C176.679 97.1083 176.679 97.5687 176.679 98.0391C176.769 105.966 178.86 113.403 182.422 118.438L179.59 120.44C175.639 114.845 173.317 106.697 173.217 98.0792C173.207 97.1283 173.227 96.1774 173.267 95.2065C173.347 93.2847 174.478 93.2247 181.821 92.8043C181.871 92.8043 181.921 92.7943 181.971 92.7943C181.861 92.7643 181.761 92.7342 181.661 92.7042C176.329 91.1628 173.658 90.3821 174.088 88.0599C176.809 73.5166 185.283 63.6274 194.827 64.0678C200.37 64.3081 205.372 67.9814 208.903 74.4074C212.285 80.553 213.936 88.5704 213.566 96.9782C212.895 111.862 206.022 124.393 196.828 127.436Z" fill="black"/>
<path d="M192.237 122.933L189.986 120.291C195.629 115.466 199.421 105.997 199.881 95.5779C200.431 83.0664 195.989 71.5858 189.086 67.6622L190.797 64.6494C198.91 69.2637 203.953 81.7552 203.342 95.738C202.852 107.078 198.59 117.508 192.237 122.933Z" fill="black"/>
<path d="M206.315 58.8736C205.824 58.8736 205.334 58.6633 204.994 58.263C202.583 55.4304 199.772 53.8589 196.85 53.7288C193.629 53.6087 190.498 55.1401 187.676 58.223C187.026 58.9236 185.925 58.9736 185.225 58.333C184.515 57.6824 184.475 56.5914 185.115 55.8808C188.657 52.0272 192.729 50.0754 197 50.2656C200.912 50.4358 204.584 52.4276 207.635 56.0109C208.256 56.7416 208.165 57.8326 207.435 58.4531C207.115 58.7434 206.715 58.8736 206.315 58.8736Z" fill="black"/>
<path d="M255.055 62.0862C254.565 62.0862 254.074 61.876 253.734 61.4757C251.323 58.6431 248.512 57.0716 245.591 56.9415C242.379 56.8314 239.238 58.3528 236.417 61.4356C235.766 62.1363 234.666 62.1863 233.965 61.5457C233.255 60.8951 233.215 59.8041 233.855 59.0935C237.397 55.2399 241.479 53.2981 245.741 53.4783C249.652 53.6484 253.324 55.6403 256.376 59.2236C256.996 59.9543 256.906 61.0452 256.175 61.6658C255.855 61.9461 255.455 62.0862 255.055 62.0862Z" fill="black"/>
<path d="M234.166 127.266C227.643 122.141 223.651 111.442 223.751 99.3304C223.761 98.6998 223.771 98.0693 223.801 97.4287C223.891 95.3868 225.792 95.2367 232.115 94.7162C232.275 94.7062 232.435 94.6861 232.595 94.6761C232.395 94.6161 232.205 94.556 232.015 94.506C226.672 92.9546 224.231 92.2439 224.651 90.0319C227.363 75.6386 235.606 65.8096 244.83 66.26C255.835 66.7404 263.839 81.1937 263.049 99.1503C262.588 109.64 259.047 119.319 253.574 125.044L251.073 122.652C255.975 117.517 259.157 108.669 259.587 99.0001C260.277 83.2556 253.594 70.1235 244.68 69.7232C237.587 69.4329 230.784 77.7405 228.263 89.6715C229.353 90.1219 231.484 90.7325 232.985 91.1729C238.347 92.7344 240.799 93.445 240.578 95.597C240.378 97.5188 238.528 97.6689 232.395 98.1693C230.754 98.2995 228.473 98.4897 227.232 98.6898C227.222 98.91 227.222 99.1302 227.222 99.3604C227.132 110.25 230.694 120.13 236.307 124.534L234.166 127.266Z" fill="black"/>
<path d="M243.64 124.615L241.139 122.223C246.041 117.088 249.223 108.24 249.653 98.5708C250.213 85.789 245.801 74.2384 238.918 70.4949L240.579 67.4521C248.702 71.8762 253.745 84.4478 253.124 98.731C252.644 109.211 249.103 118.89 243.64 124.615Z" fill="black"/>
<path d="M183.243 167.014C182.372 167.014 181.622 166.363 181.522 165.473C181.412 164.522 182.102 163.661 183.053 163.551C193.578 162.37 201.561 153.812 202.021 143.202C202.542 131.401 193.367 121.382 181.572 120.862C176.4 120.641 171.338 122.283 167.296 125.506C166.545 126.106 165.455 125.976 164.855 125.226C164.254 124.475 164.384 123.384 165.135 122.783C169.827 119.04 175.749 117.118 181.722 117.388C195.428 117.989 206.093 129.64 205.483 143.352C204.943 155.674 195.668 165.623 183.433 166.994C183.373 167.004 183.313 167.014 183.243 167.014Z" fill="black"/>
<path d="M247.612 169.677C246.712 169.677 245.951 168.986 245.881 168.075C245.811 167.125 246.522 166.284 247.482 166.214C257.887 165.413 266.07 156.935 266.53 146.486C266.771 140.96 264.85 135.676 261.118 131.602C257.386 127.528 252.294 125.146 246.772 124.906C241.459 124.685 236.327 126.467 232.315 129.95C231.595 130.581 230.494 130.501 229.874 129.78C229.244 129.059 229.324 127.958 230.044 127.338C234.726 123.264 240.719 121.192 246.932 121.453C253.375 121.733 259.327 124.515 263.679 129.27C268.041 134.034 270.282 140.2 270.002 146.646C269.472 158.837 259.897 168.746 247.752 169.677C247.702 169.677 247.652 169.677 247.612 169.677Z" fill="black"/>
<path d="M221.15 139.678C220.85 139.678 220.54 139.668 220.229 139.658C216.928 139.518 213.827 138.597 211.506 137.076C208.914 135.374 207.544 133.102 207.644 130.69C207.744 128.278 209.315 126.136 212.046 124.665C214.487 123.353 217.648 122.713 220.96 122.853C224.261 123.003 227.363 123.914 229.684 125.435C232.275 127.137 233.645 129.409 233.545 131.821C233.445 134.233 231.875 136.375 229.143 137.847C226.932 139.038 224.121 139.678 221.15 139.678ZM220.079 126.296C217.698 126.296 215.407 126.807 213.707 127.717C212.116 128.568 211.175 129.709 211.125 130.84C211.075 131.971 211.916 133.182 213.416 134.173C215.197 135.344 217.738 136.075 220.39 136.195C223.041 136.305 225.632 135.805 227.513 134.794C229.103 133.943 230.044 132.802 230.094 131.671C230.144 130.54 229.304 129.329 227.803 128.338C226.022 127.167 223.481 126.436 220.83 126.316C220.57 126.306 220.319 126.296 220.079 126.296Z" fill="black"/>
<path d="M222.33 146.874C211.505 146.874 203.552 142.681 203.041 142.4C202.201 141.94 201.891 140.899 202.341 140.048C202.791 139.207 203.842 138.897 204.692 139.338C204.872 139.438 223.15 149.016 241.349 138.106C242.169 137.616 243.239 137.876 243.73 138.707C244.22 139.528 243.96 140.599 243.129 141.089C235.826 145.463 228.593 146.874 222.33 146.874Z" fill="black"/>
<path d="M215.907 208.792C215.527 208.792 215.137 208.782 214.747 208.762C207.814 208.462 202.221 205.639 200.82 201.746C200.5 200.845 200.96 199.854 201.861 199.524C202.761 199.193 203.752 199.664 204.082 200.565C204.842 202.687 209.104 205.029 214.897 205.289C220.739 205.549 225.181 203.567 226.102 201.495C226.492 200.625 227.512 200.224 228.393 200.615C229.263 201.005 229.663 202.026 229.273 202.907C227.703 206.45 222.29 208.792 215.907 208.792Z" fill="black"/>
<path d="M216.207 195.79C215.917 195.79 215.617 195.78 215.327 195.77C204.402 195.29 195.918 186.011 196.398 175.091L197.219 156.354C197.259 155.393 198.089 154.642 199.03 154.692C199.99 154.732 200.73 155.543 200.69 156.504L199.87 175.241C199.47 184.26 206.483 191.907 215.487 192.307C219.849 192.487 224.031 190.976 227.252 188.023C230.474 185.07 232.355 181.037 232.545 176.673L234.045 142.551C234.085 141.59 234.916 140.86 235.856 140.89C236.817 140.93 237.557 141.74 237.517 142.701L236.016 176.823C235.526 187.462 226.732 195.79 216.207 195.79Z" fill="black"/>
<path d="M226.892 153.441C226.862 153.441 226.842 153.441 226.812 153.441L212.115 152.79C211.155 152.75 210.415 151.94 210.455 150.979L210.765 143.952C210.805 142.991 211.635 142.251 212.576 142.291C213.536 142.331 214.276 143.141 214.236 144.102L214.006 149.397L225.241 149.888L225.401 146.234C225.441 145.273 226.282 144.513 227.212 144.573C228.173 144.613 228.913 145.424 228.873 146.384L228.633 151.769C228.583 152.71 227.812 153.441 226.892 153.441Z" fill="black"/>
<path d="M220.259 195.33C220.179 195.33 220.099 195.32 220.019 195.31C219.069 195.18 218.409 194.299 218.549 193.348C221.02 175.882 214.627 171.038 214.557 170.998C208.024 166.614 199.05 169.216 198.96 169.246C198.039 169.516 197.079 168.996 196.799 168.085C196.529 167.164 197.039 166.203 197.959 165.923C198.389 165.793 208.584 162.8 216.508 168.135C216.848 168.365 224.781 173.96 221.97 193.839C221.85 194.71 221.11 195.33 220.259 195.33Z" fill="black"/>
<path d="M160.423 210.814C170.264 210.814 178.241 202.833 178.241 192.988C178.241 183.142 170.264 175.161 160.423 175.161C150.583 175.161 142.605 183.142 142.605 192.988C142.605 202.833 150.583 210.814 160.423 210.814Z" fill="#F499AD"/>
<path d="M160.441 212.546C154.759 212.546 149.116 210.084 145.255 205.339C138.452 196.972 139.712 184.63 148.076 177.824C156.44 171.018 168.775 172.279 175.588 180.647C178.88 184.7 180.41 189.795 179.87 194.99C179.34 200.185 176.819 204.869 172.767 208.162C169.145 211.115 164.783 212.546 160.441 212.546ZM160.411 176.903C156.84 176.903 153.248 178.084 150.267 180.507C143.394 186.112 142.343 196.261 147.946 203.147C153.548 210.024 163.693 211.065 170.576 205.47C177.449 199.864 178.49 189.715 172.897 182.829C169.726 178.925 165.083 176.903 160.411 176.903Z" fill="#1D1D1B"/>
<path d="M171.667 206.821C171.437 207.011 170.867 207.571 170.937 207.291C173.948 196.261 161.232 181.327 148.437 179.946C148.087 179.906 148.887 179.395 149.167 179.165C156.8 172.95 168.025 174.101 174.238 181.738C180.451 189.375 179.301 200.605 171.667 206.821Z" fill="#F68B38"/>
<path d="M170.948 209.113C170.658 209.113 170.358 209.033 170.038 208.833L168.947 208.142L169.287 206.821C170.358 202.898 169.137 197.963 165.946 193.279C161.604 186.913 154.671 182.359 148.268 181.668L147.087 181.538L146.687 180.347C146.347 179.096 147.327 178.375 147.908 177.935L148.078 177.805C156.442 170.998 168.777 172.259 175.59 180.627C182.393 188.995 181.133 201.336 172.769 208.142L172.639 208.253C172.299 208.573 171.688 209.113 170.948 209.113ZM152.46 179.006C158.632 180.847 164.755 185.392 168.797 191.327C171.428 195.201 172.899 199.174 173.109 202.898C177.621 197.112 177.721 188.765 172.899 182.839C167.867 176.653 159.163 175.182 152.46 179.006Z" fill="black"/>
<path d="M123.934 100.512C130.807 100.512 136.379 94.9376 136.379 88.0608C136.379 81.1841 130.807 75.6094 123.934 75.6094C117.06 75.6094 111.488 81.1841 111.488 88.0608C111.488 94.9376 117.06 100.512 123.934 100.512Z" fill="#F499AD"/>
<path d="M123.905 102.245C121.034 102.245 118.223 101.374 115.822 99.6823C112.72 97.5103 110.639 94.2673 109.979 90.5339C109.319 86.8005 110.149 83.037 112.31 79.9341C116.782 73.5182 125.636 71.9468 132.049 76.4209C138.462 80.895 140.032 89.7532 135.55 96.1691C133.379 99.2719 130.138 101.354 126.406 102.014C125.586 102.175 124.746 102.245 123.905 102.245ZM123.955 77.3517C120.574 77.3517 117.242 78.9532 115.161 81.926C113.521 84.2781 112.9 87.1208 113.4 89.9333C113.901 92.7559 115.471 95.2082 117.812 96.8397C120.164 98.4812 123.005 99.1118 125.816 98.6013C128.637 98.1009 131.088 96.5294 132.719 94.1873C134.36 91.8351 134.98 88.9925 134.48 86.1799C133.98 83.3673 132.409 80.905 130.068 79.2735C128.207 77.9723 126.066 77.3517 123.955 77.3517Z" fill="#1D1D1B"/>
<path d="M116.813 98.2603C116.643 98.1401 116.162 97.8599 116.352 97.8599C124.326 97.7698 131.919 86.3693 130.389 77.5011C130.349 77.2609 130.839 77.6913 131.049 77.8414C136.682 81.775 138.062 89.5422 134.13 95.1774C130.209 100.823 122.445 102.204 116.813 98.2603Z" fill="#F68B38"/>
<path d="M123.905 102.244C121.034 102.244 118.222 101.373 115.821 99.6816L116.372 98.8908V98.8208L115.751 99.6315C115.391 99.4013 114.281 98.6806 114.651 97.3995L115.011 96.1583L116.351 96.1283C119.033 96.0983 121.974 94.3967 124.405 91.474C127.747 87.4503 129.437 82.0854 128.697 77.8014L128.497 76.6303L129.527 75.9497C130.608 75.2991 131.568 76.0298 131.968 76.3501C138.471 80.9043 140.042 89.7624 135.57 96.1683C133.399 99.2712 130.158 101.353 126.426 102.014C125.586 102.174 124.745 102.244 123.905 102.244ZM121.214 98.4204C122.694 98.8107 124.255 98.8808 125.806 98.6006C128.627 98.1001 131.078 96.5287 132.709 94.1865C135.5 90.1828 135.18 84.918 132.249 81.3046C131.888 85.5686 130.038 90.1027 127.056 93.686C125.286 95.838 123.295 97.4295 121.214 98.4204Z" fill="black"/>
<path d="M177.678 133.092C178.91 133.092 179.909 132.093 179.909 130.86C179.909 129.627 178.91 128.628 177.678 128.628C176.446 128.628 175.447 129.627 175.447 130.86C175.447 132.093 176.446 133.092 177.678 133.092Z" fill="black"/>
<path d="M190.633 135.515C191.865 135.515 192.864 134.516 192.864 133.283C192.864 132.05 191.865 131.051 190.633 131.051C189.401 131.051 188.402 132.05 188.402 133.283C188.402 134.516 189.401 135.515 190.633 135.515Z" fill="black"/>
<path d="M182.721 143.952C183.953 143.952 184.952 142.953 184.952 141.72C184.952 140.488 183.953 139.488 182.721 139.488C181.489 139.488 180.49 140.488 180.49 141.72C180.49 142.953 181.489 143.952 182.721 143.952Z" fill="black"/>
<path d="M244.059 136.105C245.291 136.105 246.29 135.105 246.29 133.873C246.29 132.64 245.291 131.641 244.059 131.641C242.827 131.641 241.828 132.64 241.828 133.873C241.828 135.105 242.827 136.105 244.059 136.105Z" fill="black"/>
<path d="M257.145 137.687C258.377 137.687 259.376 136.687 259.376 135.455C259.376 134.222 258.377 133.223 257.145 133.223C255.913 133.223 254.914 134.222 254.914 135.455C254.914 136.687 255.913 137.687 257.145 137.687Z" fill="black"/>
<path d="M249.793 146.605C251.025 146.605 252.023 145.605 252.023 144.373C252.023 143.14 251.025 142.141 249.793 142.141C248.56 142.141 247.562 143.14 247.562 144.373C247.562 145.605 248.56 146.605 249.793 146.605Z" fill="black"/>
<path d="M119.914 55.2008C124.561 55.2008 128.328 51.432 128.328 46.783C128.328 42.134 124.561 38.3652 119.914 38.3652C115.267 38.3652 111.5 42.134 111.5 46.783C111.5 51.432 115.267 55.2008 119.914 55.2008Z" fill="#F68B38"/>
<path d="M119.912 56.933C114.32 56.933 109.758 52.3788 109.758 46.7736C109.758 41.1685 114.31 36.6143 119.912 36.6143C125.505 36.6143 130.067 41.1685 130.067 46.7736C130.067 52.3788 125.505 56.933 119.912 56.933ZM119.912 40.0975C116.231 40.0975 113.229 43.1002 113.229 46.7836C113.229 50.467 116.231 53.4698 119.912 53.4698C123.594 53.4698 126.595 50.467 126.595 46.7836C126.595 43.0902 123.594 40.0975 119.912 40.0975Z" fill="black"/>
<path d="M325.418 37.544H318.395V12.2007C318.395 12.0505 318.555 11.9404 318.765 11.9404H325.047C325.248 11.9404 325.418 12.0606 325.418 12.2007V37.544Z" fill="#FBB33B"/>
<path d="M327.148 39.2762H316.663V12.1913C316.663 11.0703 317.584 10.1895 318.764 10.1895H325.047C326.207 10.1895 327.148 11.0903 327.148 12.1913V39.2762ZM320.135 35.8131H323.686V13.6727H320.135V35.8131Z" fill="#1D1D1B"/>
<path d="M332.429 41.2678H325.416V5.87522C325.416 5.67503 325.576 5.50488 325.786 5.50488H332.069C332.269 5.50488 332.439 5.66503 332.439 5.87522L332.429 41.2678Z" fill="#FBB33B"/>
<path d="M334.17 43.0096H323.686V5.87538C323.686 4.71431 324.626 3.77344 325.786 3.77344H332.069C333.23 3.77344 334.17 4.71431 334.17 5.87538V43.0096ZM327.147 39.5364H330.699V7.23665H327.147V39.5364Z" fill="#1D1D1B"/>
<path d="M340.114 1.73242H333.801C333.601 1.73242 333.451 1.88256 333.451 2.07273V48.2753H340.474V2.07273C340.474 1.89257 340.314 1.73242 340.114 1.73242Z" fill="#FBB33B"/>
<path d="M342.204 50.0061H331.72V2.07192C331.72 0.930865 332.66 0 333.811 0H340.123C341.274 0 342.214 0.930865 342.214 2.07192V50.0061H342.204ZM335.181 46.5429H338.733V3.4732H335.181V46.5429Z" fill="#1D1D1B"/>
<path d="M347.486 53.429H340.473V5.84519C340.473 5.65502 340.633 5.50488 340.843 5.50488H347.126C347.326 5.50488 347.496 5.65502 347.496 5.84519L347.486 53.429Z" fill="#FBB33B"/>
<path d="M349.217 55.1608H338.732V5.84535C338.732 4.7043 339.673 3.77344 340.833 3.77344H347.116C348.277 3.77344 349.217 4.7043 349.217 5.84535V55.1608ZM342.204 51.6876H345.756V7.23665H342.204V51.6876Z" fill="#1D1D1B"/>
<path d="M354.51 44.3393H347.486V12.2698C347.486 12.0896 347.646 11.9395 347.857 11.9395H354.139C354.339 11.9395 354.51 12.0896 354.51 12.2698V44.3393Z" fill="#FBB33B"/>
<path d="M356.241 46.073H345.756V12.2719C345.756 11.1308 346.696 10.21 347.857 10.21H354.14C355.3 10.21 356.241 11.1408 356.241 12.2719V46.073ZM349.217 42.5998H352.769V13.6631H349.217V42.5998Z" fill="#1D1D1B"/>
<path d="M359.191 27.8262L352.208 54.8812L351.608 57.1933C351.348 58.2043 350.458 58.9049 349.437 58.9049H323.856C322.835 58.9049 321.945 58.2043 321.685 57.1933L314.101 27.8163C313.721 26.3649 314.802 24.9336 316.272 24.9336H326.427C326.607 24.9336 326.747 25.0837 326.747 25.2639C326.747 30.849 331.179 35.3732 336.651 35.3732C342.114 35.3732 346.546 30.849 346.546 25.2639C346.546 25.0837 346.686 24.9336 346.866 24.9336H357.021C358.491 24.9436 359.562 26.3649 359.191 27.8262Z" fill="#F499AD"/>
<path d="M349.438 60.6364H323.856C322.045 60.6364 320.465 59.3952 320.004 57.6236L312.431 28.2566C312.111 27.0254 312.381 25.7543 313.151 24.7533C313.912 23.7724 315.052 23.2119 316.283 23.2119H326.437C327.568 23.2119 328.488 24.1328 328.488 25.2738C328.488 29.8881 332.15 33.6415 336.652 33.6415C341.154 33.6415 344.815 29.8881 344.815 25.2738C344.815 24.1328 345.736 23.2119 346.866 23.2119H357.021C358.252 23.2119 359.392 23.7724 360.152 24.7533C360.923 25.7543 361.183 27.0254 360.873 28.2566L353.299 57.6336C352.829 59.3952 351.248 60.6364 349.438 60.6364ZM316.273 26.6751C316.073 26.6751 315.953 26.7852 315.882 26.8753C315.812 26.9554 315.712 27.1355 315.782 27.3857L323.356 56.7528C323.416 56.993 323.626 57.1632 323.846 57.1632H349.428C349.658 57.1632 349.858 56.993 349.918 56.7528L357.501 27.3758C357.561 27.1255 357.461 26.9554 357.401 26.8653C357.331 26.7752 357.211 26.6651 357.011 26.6651H348.187C347.497 32.5305 342.584 37.1047 336.632 37.1047C330.679 37.1047 325.767 32.5405 325.077 26.6651H316.273V26.6751Z" fill="#1D1D1B"/>
<path d="M219.659 153.121C218.698 153.121 217.928 152.341 217.928 151.39V146.615C217.928 145.654 218.708 144.884 219.659 144.884C220.609 144.884 221.389 145.664 221.389 146.615V151.39C221.389 152.351 220.619 153.121 219.659 153.121Z" fill="black"/>
</svg>
