<svg width="410" height="479" viewBox="0 0 410 479" fill="none" xmlns="http://www.w3.org/2000/svg">
<path d="M389.184 478H20.8157C9.87142 478 1 467.703 1 455C1 442.297 9.87142 432 20.8157 432H389.184C400.129 432 409 442.297 409 455C408.991 467.703 400.12 478 389.184 478Z" fill="#FBB33B" stroke="black" stroke-width="2" stroke-miterlimit="10"/>
<path d="M25 2L41.349 12.0002L57.7154 2L74.0643 12.0002L90.422 2L106.78 12.0002L123.146 2L139.504 12.0002L155.861 2L172.228 12.0002L188.594 2L204.952 12.0002L221.318 2L237.685 12.0002L254.051 2L270.418 12.0002L286.775 2L303.142 12.0002L319.508 2L335.883 12.0002L352.25 2L368.625 12.0002L385 2V18.7267V454H25V18.7267V2Z" fill="#F499AD" stroke="#1D1D1B" stroke-width="2" stroke-miterlimit="10"/>
</svg>
