<svg width="178" height="38" viewBox="0 0 178 38" fill="none" xmlns="http://www.w3.org/2000/svg">
<path d="M29.3945 32.6605C28.0337 34.0214 26.1285 35.3822 23.6789 36.1988C21.2294 37.0153 18.5077 37.5596 15.5138 37.5596C10.8869 37.5596 7.07646 36.1987 4.35475 33.2049C1.63303 30.4832 0 26.4006 0 21.5015V18.5076C0 14.9694 0.544345 11.9755 1.9052 9.52598C3.26606 6.80426 4.89909 4.89906 7.07646 3.53821C9.25383 2.17735 11.9755 1.36084 14.9694 1.36084C19.3242 1.36084 22.8624 2.44953 25.312 4.35472C27.7615 6.25992 29.1223 9.2538 29.6667 13.3364H21.5015C21.2294 11.4312 20.685 10.0703 19.5963 9.2538C18.5077 8.43729 17.1468 7.89295 15.5138 7.89295C13.3364 7.89295 11.7034 8.70946 10.6147 10.6147C9.526 12.5199 8.98166 14.9694 8.70949 18.2355V20.4128C8.70949 23.951 9.25383 26.6728 10.6147 28.3058C11.7034 29.9388 13.6086 31.0275 16.3303 31.0275C18.5077 31.0275 20.1407 30.4832 21.2294 29.6666V24.2232H15.2416V18.5076H29.6667V32.6605H29.3945Z" fill="#171717"/>
<path d="M34.2937 37.0153H42.4588V10.8868H34.2937V37.0153ZM34.0215 4.08257C34.0215 2.99388 34.5658 1.9052 35.3823 1.08868C36.1989 0.27217 37.2875 0 38.6484 0C40.0093 0 41.098 0.27217 41.9145 1.08868C42.731 1.9052 43.2753 2.72171 43.2753 4.08257C43.2753 5.17125 42.731 6.25994 41.9145 7.07645C41.098 7.89297 40.0093 8.16514 38.6484 8.16514C37.2875 8.16514 36.1989 7.89297 35.3823 7.07645C34.2937 6.25994 34.0215 5.44342 34.0215 4.08257Z" fill="#171717"/>
<path d="M57.1568 4.35498V10.8871H61.5115V16.6027H57.1568V28.5782C57.1568 29.6669 57.429 30.2112 57.7011 30.7556C57.9733 31.0278 58.7898 31.2999 59.8785 31.2999C60.695 31.2999 61.2393 31.2999 61.7837 31.0278V36.7433C60.4228 37.2877 58.7898 37.5599 57.1568 37.5599C54.4351 37.5599 52.2577 37.0155 50.8968 35.6547C49.536 34.2938 48.9916 32.3886 48.9916 29.6669V16.6027H45.7256V10.8871H48.9916V4.35498H57.1568Z" fill="#171717"/>
<path d="M73.4871 22.0464V30.4838H78.9305C80.5636 30.4838 81.6523 30.2116 82.4688 29.3951C83.2853 28.5786 83.8296 27.762 83.8296 26.4012C83.8296 23.4073 82.4688 22.0464 79.4749 22.0464H73.4871ZM73.4871 16.603H77.8419C79.7471 16.603 81.1079 16.3308 81.9244 15.5143C82.7409 14.97 83.0131 13.8813 83.0131 12.5204C83.0131 11.1596 82.4688 10.0709 81.6523 9.25439C80.8357 8.71005 79.4749 8.16571 77.5697 8.16571H73.4871V16.603ZM65.0498 37.0159V1.90576H77.8419C82.4688 1.90576 85.7348 2.72228 88.1844 4.35531C90.6339 5.98834 91.7226 8.43788 91.7226 11.7039C91.7226 13.6091 91.1783 14.97 90.3618 16.3308C89.5452 17.6917 88.1844 18.5082 86.5514 19.0526C88.4566 19.5969 89.8174 20.4134 90.9061 21.7743C91.9948 23.1351 92.2669 24.7682 92.2669 26.6734C92.2669 30.2116 91.1783 32.6611 89.0009 34.5663C86.8235 36.1994 83.5575 37.288 79.2027 37.288L65.0498 37.0159Z" fill="#171717"/>
<path d="M103.697 24.224C103.697 26.6735 103.97 28.3066 104.786 29.6674C105.603 30.7561 106.691 31.3005 108.052 31.3005C111.046 31.3005 112.407 29.1231 112.407 24.4962V23.6797C112.407 19.0527 110.774 16.6032 107.78 16.6032C105.058 16.6032 103.697 18.5084 103.425 22.591L103.697 24.224ZM95.5322 23.6797C95.5322 20.9579 96.0766 18.7806 97.1653 16.6032C98.254 14.698 99.6148 13.065 101.52 11.9763C103.425 10.8876 105.603 10.3433 108.324 10.3433C112.135 10.3433 115.401 11.432 117.578 13.8815C119.755 16.331 120.844 19.5971 120.844 23.6797V24.224C120.844 28.3066 119.755 31.5726 117.306 34.0222C115.129 36.4717 111.863 37.5604 108.052 37.5604C104.242 37.5604 101.248 36.4717 99.0705 34.2943C96.8931 32.117 95.5322 29.1231 95.5322 25.3127V23.6797Z" fill="#171717"/>
<path d="M131.732 24.224C131.732 26.6735 132.004 28.3066 132.82 29.6674C133.637 30.7561 134.725 31.3005 136.086 31.3005C139.08 31.3005 140.441 29.1231 140.441 24.4962V23.6797C140.441 19.0527 138.808 16.6032 135.814 16.6032C133.092 16.6032 131.732 18.5084 131.459 22.591L131.732 24.224ZM123.566 23.6797C123.566 20.9579 124.111 18.7806 125.199 16.6032C126.288 14.698 127.649 13.065 129.554 11.9763C131.459 10.8876 133.637 10.3433 136.358 10.3433C140.169 10.3433 143.435 11.432 145.612 13.8815C147.79 16.331 148.878 19.5971 148.878 23.6797V24.224C148.878 28.3066 147.79 31.5726 145.34 34.0222C143.163 36.4717 139.897 37.5604 136.086 37.5604C132.276 37.5604 129.282 36.4717 127.105 34.2943C124.927 32.117 123.566 29.1231 123.566 25.3127V23.6797Z" fill="#171717"/>
<path d="M163.031 27.4893L160.581 29.6667V37.0153H152.416V0H160.581V19.5963L161.398 18.5076L167.658 10.8868H177.456L168.202 21.7737L178 37.0153H168.746L163.031 27.4893Z" fill="#171717"/>
</svg>
