<svg width="48" height="46" viewBox="0 0 48 46" fill="none" xmlns="http://www.w3.org/2000/svg">
<path d="M41.1111 31.1981L33.6392 41.8199C30.2021 46.7074 20.3766 45.8698 11.6905 39.933C3.0044 33.9962 -1.24525 25.2337 2.19182 20.3462L10.2895 8.83154L41.1111 31.1981Z" fill="#FBB33B" stroke="black" stroke-width="2" stroke-miterlimit="10" stroke-linejoin="round"/>
<path d="M41.7763 30.3269C45.214 25.4379 40.9612 16.6675 32.2775 10.7375C23.5938 4.80744 13.7675 3.96348 10.3299 8.85241C6.89222 13.7413 11.145 22.5118 19.8287 28.4418C28.5124 34.3718 38.3387 35.2158 41.7763 30.3269Z" fill="#FBB33B" stroke="black" stroke-width="2" stroke-miterlimit="10" stroke-linejoin="round"/>
<path d="M35.1003 25.1181C36.5282 23.0873 33.9735 18.9059 29.3942 15.7788C24.8149 12.6516 19.9451 11.7629 18.5172 13.7936C17.0892 15.8244 19.6439 20.0058 24.2232 23.1329C28.8025 26.2601 33.6724 27.1489 35.1003 25.1181Z" fill="black"/>
</svg>
