<svg width="41" height="47" viewBox="0 0 41 47" fill="none" xmlns="http://www.w3.org/2000/svg">
<path d="M37.597 9.09672C37.3277 8.75834 37.4574 8.10154 37.4275 7.59397C37.3377 5.76274 37.3077 3.9315 37.1681 2.11022C37.0983 1.20456 36.4599 0.766667 35.5721 1.12495C33.7268 1.85147 31.9214 2.68744 30.0662 3.39405C29.4278 3.63291 28.6498 3.84191 28.0114 3.71253C24.0315 2.89644 20.0715 2.8865 16.0917 3.7225C15.4533 3.85188 14.6753 3.62295 14.0369 3.38409C12.1816 2.67747 10.3762 1.85142 8.52087 1.13485C7.61317 0.78652 7.00475 1.2543 6.93493 2.15001C6.79529 3.97129 6.79529 5.80253 6.68556 7.63376C6.65564 8.22094 6.63564 8.92756 6.32643 9.37542C0.710701 17.3273 5.22927 28.2052 14.8548 29.8175C15.4433 29.917 16.0318 30.0265 16.5405 30.1061C16.1016 31.2308 15.7326 32.3554 15.2239 33.4103C15.0443 33.7885 14.5655 34.1269 14.1466 34.2762C11.4036 35.2814 8.93981 34.3757 7.15434 32.007C6.33642 30.9222 5.31903 29.8971 4.18192 29.1607C3.49367 28.7029 2.41641 28.8422 1.50872 28.7128C1.33915 29.0114 1.16957 29.3 1 29.5986C1.47878 29.8573 2.07725 30.0066 2.41638 30.3848C3.44377 31.5193 4.69064 32.6042 5.2592 33.9477C6.69555 37.3415 9.15925 38.7149 12.7002 38.5357C13.3985 38.5059 14.0967 38.4561 15.0343 38.3964C15.0343 39.1329 15.0643 45.2635 15.0842 46H29.0587C29.0587 44.5768 29.0587 37.7495 29.0786 36.3264C29.1185 34.1368 28.8791 32.0369 27.3032 30.1659C28.6996 29.8772 29.8866 29.708 31.0337 29.3895C36.6394 27.8469 39.6618 23.8959 39.971 17.8747C40.1306 14.6601 39.6717 11.6843 37.597 9.09672Z" fill="#FBB33B" stroke="black" stroke-width="2" stroke-miterlimit="10" stroke-linejoin="round"/>
</svg>
