<svg width="64" height="47" viewBox="0 0 64 47" fill="none" xmlns="http://www.w3.org/2000/svg">
<path d="M52.5119 8.27512C48.7552 5.21386 44.4171 3.30476 39.8553 1.80237C40.1908 1.11331 40.638 0.955157 41.3759 1.02293C46.3066 1.48608 50.7118 3.30481 54.7257 6.16274C55.117 6.44515 55.4748 6.8631 55.6984 7.29236C58.5831 13.1551 60.5621 19.334 61.8143 25.7502C62.5522 29.5458 62.9324 33.3751 62.9995 37.2384C63.0107 37.6677 62.843 38.1647 62.5858 38.5036C59.9583 41.9828 56.4476 44.1291 52.2995 45.2023C50.6895 45.6202 49.0012 45.767 47.3465 45.9929C47.1117 46.0268 46.7538 45.9365 46.6197 45.7671C45.5351 44.4793 44.4842 43.1463 43.3661 41.7569C47.134 40.5482 50.3988 38.7069 52.9032 35.4084C39.0727 43.4739 25.3875 43.2367 11.747 35.5553C12.0265 36.3799 13.5806 37.9953 15.6267 39.2266C17.192 40.1754 18.8803 40.9097 20.5574 41.7682C20.5238 41.8247 20.4344 41.9941 20.3114 42.141C19.4058 43.2819 18.5113 44.4341 17.5722 45.5524C17.3933 45.7671 17.0466 46.0042 16.7895 45.9929C13.4465 45.8235 10.2488 45.0893 7.28587 43.4739C5.20625 42.3443 3.36145 40.8871 1.85205 39.0232C1.30419 38.3568 0.96876 37.6903 1.0023 36.764C1.293 29.1278 2.69058 21.7062 5.31805 14.5445C6.22369 12.0706 7.31945 9.66451 8.37043 7.24713C8.54933 6.82917 8.9183 6.43385 9.28726 6.16274C12.7197 3.70018 16.4876 2.00574 20.6469 1.27149C21.4407 1.13593 22.2457 1.03428 23.0395 1.00039C23.3526 0.989092 23.6769 1.22627 23.9676 1.45219C19.0369 3.09014 14.3856 5.10088 10.2264 8.46713C24.3924 1.64425 38.4354 1.31668 52.5119 8.27512ZM22.1227 32.9346C23.3191 32.9346 24.3812 32.5506 25.298 31.7824C26.841 30.506 27.3553 28.8002 27.5789 26.8347C28.0597 22.7116 23.4532 19.7181 19.8978 21.4238C17.3933 22.6325 16.0627 25.7163 16.8566 28.6194C17.5721 31.2289 19.663 32.9346 22.1227 32.9346ZM41.4654 33.0137C42.0915 32.8668 42.74 32.7991 43.3214 32.5619C46.9216 31.1385 48.0844 26.2699 45.6246 23.0279C43.668 20.4524 40.0119 20.1925 37.7646 22.5083C36.2887 24.0219 35.8303 25.8745 36.0874 27.9417C36.434 30.698 38.8044 32.9233 41.4654 33.0137Z" fill="#FBB33B" stroke="black" stroke-width="2" stroke-miterlimit="10" stroke-linejoin="round"/>
</svg>
