<svg width="703" height="642" viewBox="0 0 703 642" fill="none" xmlns="http://www.w3.org/2000/svg">
<path d="M22.1765 621H703L684.471 641H1V19.4766L22.1765 1V621Z" fill="#FBB33B"/>
<rect x="22.1768" y="1" width="680.824" height="620" fill="white"/>
<path d="M22.1765 1L702.471 1V79.5M22.1765 1L1 19.5V98M22.1765 1V79.5M702.471 621L683.941 641H1M702.471 621H22.1765M702.471 621V544.5M1 641L22.1765 621M1 641V565M22.1765 621V544.5M22.1765 79.5V101V544.5M22.1765 79.5H702.471M22.1765 79.5L1 98M702.471 79.5V544.5M1 98V565M22.1765 544.5H702.471M22.1765 544.5L1 565" stroke="#171717"/>
</svg>
