<svg width="122" height="122" viewBox="0 0 122 122" fill="none" xmlns="http://www.w3.org/2000/svg">
<path d="M61 121C94.1371 121 121 94.137 121 60.9999C121 27.8628 94.1371 1 61 1C27.8629 1 1 27.8628 1 60.9999C1 94.137 27.8629 121 61 121Z" fill="#F499AD" stroke="#1D1D1B" stroke-width="1.5" stroke-miterlimit="10"/>
<path d="M71.1538 31.2961L63.2148 25.9226L71.1538 20.333L79.0654 25.9226L71.1538 31.2961Z" fill="#FBB33B" stroke="black" stroke-width="1.5" stroke-miterlimit="10" stroke-linejoin="round"/>
<path d="M71.1538 69.9914L63.2148 64.6179L71.1538 59.0283L79.0654 64.6179L71.1538 69.9914Z" fill="#FBB33B" stroke="black" stroke-width="1.5" stroke-miterlimit="10" stroke-linejoin="round"/>
<path d="M71.1602 31.2964V69.9913L79.0718 64.6178V25.9229L71.1602 31.2964Z" fill="#FBB33B" stroke="black" stroke-width="1.5" stroke-miterlimit="10" stroke-linejoin="round"/>
<path d="M63.2148 25.9229V64.6178L71.1538 69.9913V31.2964L63.2148 25.9229Z" fill="#FBB33B" stroke="black" stroke-width="1.5" stroke-miterlimit="10" stroke-linejoin="round"/>
<path d="M63.2199 36.8882L55.2812 31.5417L63.2199 25.9521L71.1589 31.5417L63.2199 36.8882Z" fill="#FBB33B" stroke="black" stroke-width="1.5" stroke-miterlimit="10" stroke-linejoin="round"/>
<path d="M63.2199 75.5835L55.2812 70.237L63.2199 64.6475L71.1589 70.237L63.2199 75.5835Z" fill="#FBB33B" stroke="black" stroke-width="1.5" stroke-miterlimit="10" stroke-linejoin="round"/>
<path d="M63.2148 36.8855V75.5805L71.1538 70.234V31.5391L63.2148 36.8855Z" fill="#F68B38" stroke="black" stroke-width="1.5" stroke-miterlimit="10" stroke-linejoin="round"/>
<path d="M55.2812 31.5391V70.234L63.2199 75.5805V36.8855L55.2812 31.5391Z" fill="#FBB33B" stroke="black" stroke-width="1.5" stroke-miterlimit="10" stroke-linejoin="round"/>
<path d="M79.0718 36.8882L71.1602 31.5417L79.0718 25.9521L87.0107 31.5417L79.0718 36.8882Z" fill="#FBB33B" stroke="black" stroke-width="1.5" stroke-miterlimit="10" stroke-linejoin="round"/>
<path d="M79.0718 75.5835L71.1602 70.237L79.0718 64.6475L87.0107 70.237L79.0718 75.5835Z" fill="#FBB33B" stroke="black" stroke-width="1.5" stroke-miterlimit="10" stroke-linejoin="round"/>
<path d="M79.0703 36.8855V75.5805L87.0093 70.234V31.5391L79.0703 36.8855Z" fill="#FBB33B" stroke="black" stroke-width="1.5" stroke-miterlimit="10" stroke-linejoin="round"/>
<path d="M71.1602 31.5391V70.234L79.0718 75.5805V36.8855L71.1602 31.5391Z" fill="#F68B38" stroke="black" stroke-width="1.5" stroke-miterlimit="10" stroke-linejoin="round"/>
<path d="M87.0093 42.3674L79.0703 36.9939L87.0093 31.4043L94.9479 36.9939L87.0093 42.3674Z" fill="#FBB33B" stroke="black" stroke-width="1.5" stroke-miterlimit="10" stroke-linejoin="round"/>
<path d="M87.0093 81.0627L79.0703 75.689L87.0093 70.0996L94.9479 75.689L87.0093 81.0627Z" fill="#FBB33B" stroke="black" stroke-width="1.5" stroke-miterlimit="10" stroke-linejoin="round"/>
<path d="M87.0098 42.3677V81.0626L94.9484 75.6889V36.9941L87.0098 42.3677Z" fill="#FBB33B" stroke="black" stroke-width="1.5" stroke-miterlimit="10" stroke-linejoin="round"/>
<path d="M79.0703 36.9941V75.6889L87.0093 81.0626V42.3677L79.0703 36.9941Z" fill="#F68B38" stroke="black" stroke-width="1.5" stroke-miterlimit="10" stroke-linejoin="round"/>
<path d="M55.2749 42.3674L47.3359 36.9939L55.2749 31.4043L63.2136 36.9939L55.2749 42.3674Z" fill="#FBB33B" stroke="black" stroke-width="1.5" stroke-miterlimit="10" stroke-linejoin="round"/>
<path d="M55.2749 81.0627L47.3359 75.689L55.2749 70.0996L63.2136 75.689L55.2749 81.0627Z" fill="#FBB33B" stroke="black" stroke-width="1.5" stroke-miterlimit="10" stroke-linejoin="round"/>
<path d="M55.2812 42.3677V81.0626L63.2199 75.6889V36.9941L55.2812 42.3677Z" fill="#FBB33B" stroke="black" stroke-width="1.5" stroke-miterlimit="10" stroke-linejoin="round"/>
<path d="M47.3359 36.9941V75.6889L55.2749 81.0626V42.3677L47.3359 36.9941Z" fill="#FBB33B" stroke="black" stroke-width="1.5" stroke-miterlimit="10" stroke-linejoin="round"/>
<path d="M47.3433 47.9572L39.4316 42.5837L47.3433 36.9941L55.2822 42.5837L47.3433 47.9572Z" fill="#FBB33B" stroke="black" stroke-width="1.5" stroke-miterlimit="10" stroke-linejoin="round"/>
<path d="M47.3433 86.6525L39.4316 81.279L47.3433 75.6895L55.2822 81.279L47.3433 86.6525Z" fill="#FBB33B" stroke="black" stroke-width="1.5" stroke-miterlimit="10" stroke-linejoin="round"/>
<path d="M47.3359 47.9604V86.6552L55.2749 81.2817V42.5869L47.3359 47.9604Z" fill="#F68B38" stroke="black" stroke-width="1.5" stroke-miterlimit="10" stroke-linejoin="round"/>
<path d="M39.4316 42.5869V81.2817L47.3433 86.6552V47.9604L39.4316 42.5869Z" fill="#FBB33B" stroke="black" stroke-width="1.5" stroke-miterlimit="10" stroke-linejoin="round"/>
<path d="M39.4312 53.3032L31.4922 47.9568L39.4312 42.3672L47.3428 47.9568L39.4312 53.3032Z" fill="#FBB33B" stroke="black" stroke-width="1.5" stroke-miterlimit="10" stroke-linejoin="round"/>
<path d="M39.4312 91.9986L31.4922 86.6519L39.4312 81.0625L47.3428 86.6519L39.4312 91.9986Z" fill="#FBB33B" stroke="black" stroke-width="1.5" stroke-miterlimit="10" stroke-linejoin="round"/>
<path d="M39.4316 53.3064V92.0014L47.3433 86.6547V47.96L39.4316 53.3064Z" fill="#F68B38" stroke="black" stroke-width="1.5" stroke-miterlimit="10" stroke-linejoin="round"/>
<path d="M31.4922 47.96V86.6547L39.4312 92.0014V53.3064L31.4922 47.96Z" fill="#FBB33B" stroke="black" stroke-width="1.5" stroke-miterlimit="10" stroke-linejoin="round"/>
<path d="M63.2199 47.8745L55.2812 42.5281L63.2199 36.9385L71.1589 42.5281L63.2199 47.8745Z" fill="#FBB33B" stroke="black" stroke-width="1.5" stroke-miterlimit="10" stroke-linejoin="round"/>
<path d="M63.2199 86.5698L55.2812 81.2234L63.2199 75.6338L71.1589 81.2234L63.2199 86.5698Z" fill="#FBB33B" stroke="black" stroke-width="1.5" stroke-miterlimit="10" stroke-linejoin="round"/>
<path d="M63.2148 47.8777V86.5727L71.1538 81.2262V42.5312L63.2148 47.8777Z" fill="#FBB33B" stroke="black" stroke-width="1.5" stroke-miterlimit="10" stroke-linejoin="round"/>
<path d="M55.2812 42.5312V81.2262L63.2199 86.5727V47.8777L55.2812 42.5312Z" fill="#F68B38" stroke="black" stroke-width="1.5" stroke-miterlimit="10" stroke-linejoin="round"/>
<path d="M71.1538 53.3859L63.2148 48.0123L71.1538 42.4229L79.0654 48.0123L71.1538 53.3859Z" fill="#FBB33B" stroke="black" stroke-width="1.5" stroke-miterlimit="10" stroke-linejoin="round"/>
<path d="M71.1538 92.0813L63.2148 86.7077L71.1538 81.1182L79.0654 86.7077L71.1538 92.0813Z" fill="#FBB33B" stroke="black" stroke-width="1.5" stroke-miterlimit="10" stroke-linejoin="round"/>
<path d="M71.1602 53.3893V92.084L79.0718 86.7105V48.0156L71.1602 53.3893Z" fill="#FBB33B" stroke="black" stroke-width="1.5" stroke-miterlimit="10" stroke-linejoin="round"/>
<path d="M63.2148 48.0156V86.7105L71.1538 92.084V53.3893L63.2148 48.0156Z" fill="#F68B38" stroke="black" stroke-width="1.5" stroke-miterlimit="10" stroke-linejoin="round"/>
</svg>
