<svg width="480" height="757" viewBox="0 0 480 757" fill="none" xmlns="http://www.w3.org/2000/svg">
<path d="M455.785 756H24.2154C11.3935 756 1 745.703 1 733C1 720.297 11.3935 710 24.2154 710H455.785C468.607 710 479 720.297 479 733C478.99 745.703 468.597 756 455.785 756Z" fill="#FBB33B" stroke="black" stroke-width="2" stroke-miterlimit="10"/>
<path d="M34 3L52.7105 19.2171L71.4409 3L90.1514 19.2171L108.872 3L127.592 19.2171L146.323 3L165.043 19.2171L183.764 3L202.494 19.2171L221.225 3L239.945 19.2171L258.676 3L277.406 19.2171L296.136 3L314.867 19.2171L333.587 3L352.318 19.2171L371.048 3L389.789 19.2171L408.519 3L427.26 19.2171L446 3V30.1254V736H34V30.1254V3Z" fill="#F499AD" stroke="#1D1D1B" stroke-width="2" stroke-miterlimit="10"/>
</svg>
