<svg width="685" height="282" viewBox="0 0 685 282" fill="none" xmlns="http://www.w3.org/2000/svg">
<path d="M160 140.992L141.771 123L136.016 128.682L144.42 136.98H106V145.02H144.42L136.016 153.318L141.771 159L160 140.992Z" fill="#F68B38" stroke="black" stroke-width="2" stroke-miterlimit="10"/>
<path d="M578 140.992L559.771 123L554.016 128.682L562.42 136.98H524V145.02H562.42L554.016 153.318L559.771 159L578 140.992Z" fill="#F68B38" stroke="black" stroke-width="2" stroke-miterlimit="10"/>
<path d="M208.804 48.0381H475.196V77.9743H208.804V48.0381Z" stroke="black" stroke-width="3" stroke-miterlimit="10"/>
<path d="M200.245 233.054V262.99C200.245 265.352 202.158 267.264 204.521 267.264H466.637H479.472C481.835 267.264 483.748 265.352 483.748 262.99V233.054H200.245Z" fill="#FBB33B" stroke="black" stroke-width="3" stroke-miterlimit="10"/>
<path d="M200.245 82.2488V233.054H466.637H483.754V77.9688H204.521H200.245V82.2488Z" stroke="black" stroke-width="3" stroke-miterlimit="10"/>
<path d="M200.245 1V60.8665H483.754V1H200.245ZM381.074 43.7583H363.963H302.925V18.1021H363.963H381.074V43.7583Z" fill="black" stroke="black" stroke-width="2" stroke-miterlimit="10"/>
<path d="M273.565 267.397H241.287V281.001H273.565V267.397Z" fill="black" stroke="black" stroke-width="0.75" stroke-miterlimit="10"/>
<path d="M442.713 267.397H410.435V281.001H442.713V267.397Z" fill="black" stroke="black" stroke-width="0.75" stroke-miterlimit="10"/>
<path d="M260.262 15.5771H258.819V21.4983H260.262V15.5771Z" fill="#F68B38"/>
<path d="M247.091 21.0521L246.326 21.8174L250.514 26.0052L251.279 25.2399L247.091 21.0521Z" fill="#F68B38"/>
<path d="M271.866 20.777L267.678 24.9648L268.953 26.2403L273.141 22.0525L271.866 20.777Z" fill="#F68B38"/>
<path d="M250.758 40.2702L246.57 44.458L246.825 44.7131L251.013 40.5253L250.758 40.2702Z" fill="#F68B38"/>
<path d="M269.214 39.5268L267.429 41.3125L271.617 45.5003L273.402 43.7146L269.214 39.5268Z" fill="#F68B38"/>
<path d="M276.977 31.915H271.059V34.0791H276.977V31.915Z" fill="#F68B38"/>
<path d="M248.156 32.6367H242.238V33.3581H248.156V32.6367Z" fill="#F68B38"/>
<path d="M259.54 46.536C267.043 46.536 273.126 40.4562 273.126 32.9565C273.126 25.4567 267.043 19.377 259.54 19.377C252.037 19.377 245.954 25.4567 245.954 32.9565C245.954 40.4562 252.037 46.536 259.54 46.536Z" fill="#FBB33B" stroke="black" stroke-miterlimit="10"/>
<path d="M259.608 44.4561C265.938 44.4561 271.071 39.3264 271.071 32.9985C271.071 26.6707 265.938 21.541 259.608 21.541C253.277 21.541 248.145 26.6707 248.145 32.9985C248.145 39.3264 253.277 44.4561 259.608 44.4561Z" fill="black"/>
<path d="M250.412 40.109L251.152 40.8486L254.652 37.3504L253.912 36.6108L250.412 40.109Z" fill="#FBB33B"/>
<path d="M425.051 15.5781H423.608V21.4993H425.051V15.5781Z" fill="#F68B38"/>
<path d="M411.882 21.054L411.117 21.8193L415.305 26.0072L416.07 25.2419L411.882 21.054Z" fill="#F68B38"/>
<path d="M436.654 20.777L432.466 24.9648L433.741 26.2403L437.929 22.0525L436.654 20.777Z" fill="#F68B38"/>
<path d="M415.549 40.2712L411.361 44.459L411.616 44.7141L415.804 40.5263L415.549 40.2712Z" fill="#F68B38"/>
<path d="M434.006 39.5307L432.221 41.3164L436.409 45.5042L438.194 43.7185L434.006 39.5307Z" fill="#F68B38"/>
<path d="M441.764 31.915H435.846V34.0791H441.764V31.915Z" fill="#F68B38"/>
<path d="M412.944 32.6367H407.026V33.3581H412.944V32.6367Z" fill="#F68B38"/>
<path d="M424.33 46.536C431.834 46.536 437.916 40.4562 437.916 32.9565C437.916 25.4567 431.834 19.377 424.33 19.377C416.827 19.377 410.744 25.4567 410.744 32.9565C410.744 40.4562 416.827 46.536 424.33 46.536Z" fill="#FBB33B" stroke="black" stroke-miterlimit="10"/>
<path d="M424.396 44.4561C430.726 44.4561 435.859 39.3264 435.859 32.9985C435.859 26.6707 430.726 21.541 424.396 21.541C418.065 21.541 412.933 26.6707 412.933 32.9985C412.933 39.3264 418.065 44.4561 424.396 44.4561Z" fill="black"/>
<path d="M415.2 40.111L415.94 40.8506L419.44 37.3524L418.7 36.6128L415.2 40.111Z" fill="#FBB33B"/>
<path d="M345.193 20.2598L335.997 31.7413H341.362L338.679 40.6982L348.001 28.1706H343.419L345.193 20.2598Z" fill="#FBB33B" stroke="black" stroke-width="2" stroke-miterlimit="10" stroke-linecap="round" stroke-linejoin="round"/>
<path d="M318.546 22.3398H307.721V25.9466H318.546V22.3398Z" fill="#FBB33B" stroke="black" stroke-width="2" stroke-miterlimit="10"/>
<path d="M318.545 29.5547H307.72V33.1615H318.545V29.5547Z" fill="#FBB33B" stroke="black" stroke-width="2" stroke-miterlimit="10"/>
<path d="M318.545 36.7676H307.72V40.3744H318.545V36.7676Z" fill="#FBB33B" stroke="black" stroke-width="2" stroke-miterlimit="10"/>
<path d="M376.283 22.3398H365.457V25.9466H376.283V22.3398Z" fill="#FBB33B" stroke="black" stroke-width="2" stroke-miterlimit="10"/>
<path d="M376.283 29.5547H365.457V33.1615H376.283V29.5547Z" fill="#FBB33B" stroke="black" stroke-width="2" stroke-miterlimit="10"/>
<path d="M376.283 36.7676H365.457V40.3744H376.283V36.7676Z" fill="#FBB33B" stroke="black" stroke-width="2" stroke-miterlimit="10"/>
<path d="M449.528 215.951L409.076 198.513H274.924L234.473 215.951" fill="#C17285"/>
<path d="M449.528 215.951L409.076 198.513H274.924L234.473 215.951" stroke="black" stroke-width="3" stroke-miterlimit="10"/>
<path d="M432.417 94.1748H234.473V215.952H432.417H449.528V94.1748H432.417Z" stroke="black" stroke-width="3" stroke-miterlimit="10"/>
<path d="M372.726 151.271C371.337 165.962 359.639 177.66 344.935 179.049" stroke="black" stroke-width="4" stroke-miterlimit="10" stroke-linecap="round"/>
<path d="M344.941 117.617C359.64 119.006 371.344 130.698 372.733 145.395" stroke="black" stroke-width="4" stroke-miterlimit="10" stroke-linecap="round"/>
<path d="M318.665 145.391C319.994 134.757 328.426 126.329 339.065 125.007" stroke="black" stroke-width="4" stroke-miterlimit="10" stroke-linecap="round"/>
<path d="M339.059 171.655C328.42 170.326 319.988 161.898 318.665 151.271" stroke="black" stroke-width="4" stroke-miterlimit="10" stroke-linecap="round"/>
<path d="M365.336 151.271C364.006 161.904 355.58 170.332 344.941 171.655" stroke="black" stroke-width="4" stroke-miterlimit="10" stroke-linecap="round"/>
<path d="M344.941 125.007C355.58 126.335 364.012 134.763 365.336 145.391" stroke="black" stroke-width="4" stroke-miterlimit="10" stroke-linecap="round"/>
<path d="M326.099 145.391C327.307 138.821 332.486 133.645 339.059 132.437" stroke="black" stroke-width="4" stroke-miterlimit="10" stroke-linecap="round"/>
<path d="M339.065 164.224C332.492 163.015 327.313 157.84 326.099 151.275" stroke="black" stroke-width="4" stroke-miterlimit="10" stroke-linecap="round"/>
<path d="M357.902 151.271C356.693 157.841 351.515 163.017 344.941 164.225" stroke="black" stroke-width="4" stroke-miterlimit="10" stroke-linecap="round"/>
<path d="M344.935 132.437C351.508 133.645 356.686 138.821 357.901 145.385" stroke="black" stroke-width="4" stroke-miterlimit="10" stroke-linecap="round"/>
<path d="M333.683 145.391C334.567 142.884 336.551 140.9 339.059 140.017" stroke="black" stroke-width="4" stroke-miterlimit="10" stroke-linecap="round"/>
<path d="M339.059 156.643C336.557 155.76 334.579 153.776 333.688 151.281" stroke="black" stroke-width="4" stroke-miterlimit="10" stroke-linecap="round"/>
<path d="M350.318 151.271C349.434 153.777 347.443 155.761 344.941 156.645" stroke="black" stroke-width="4" stroke-miterlimit="10" stroke-linecap="round"/>
<path d="M344.928 140.017C347.436 140.9 349.426 142.89 350.316 145.397" stroke="black" stroke-width="4" stroke-miterlimit="10" stroke-linecap="round"/>
<path d="M311.272 145.377C312.668 130.686 324.365 119 339.058 117.611" stroke="black" stroke-width="4" stroke-miterlimit="10" stroke-linecap="round"/>
<path d="M339.059 179.048C324.361 177.659 312.657 165.967 311.268 151.27" stroke="black" stroke-width="4" stroke-miterlimit="10" stroke-linecap="round"/>
<path d="M461.567 110.706H440.891H222.425C216.742 110.706 212.087 114.553 212.087 119.26C212.087 123.967 216.736 127.814 222.425 127.814H440.891H461.567C467.251 127.814 471.906 123.967 471.906 119.26C471.906 114.553 467.257 110.706 461.567 110.706Z" fill="#F68B38" stroke="#1D1D1B" stroke-width="3" stroke-miterlimit="10"/>
<path d="M682.45 181.541C682.34 180.528 682.22 179.51 681.995 178.524C681.791 177.617 681.441 176.752 681.022 175.919C680.823 173.567 680.096 171.463 679.557 169.158C679.421 168.578 679.154 168.056 678.804 167.608C678.725 166.985 678.662 166.358 678.61 165.751C678.553 162.318 678.003 158.937 676.915 155.678C676.878 155.573 676.842 155.478 676.8 155.383C676.674 153.817 676.585 152.25 676.465 150.695C676.449 150.484 676.418 150.283 676.376 150.088C676.334 149.608 676.292 149.133 676.24 148.654C676.381 147.847 676.324 146.998 676.078 146.222C675.905 142.283 674.77 138.396 674.273 134.362C673.52 128.255 672.505 121.61 669.726 116.067C669.402 115.418 668.994 114.922 668.539 114.559C668.418 114.395 668.293 114.237 668.162 114.079C666.729 111.452 664.918 109.074 662.276 107.924C659.373 105.345 655.904 103.315 651.954 103.236C651.75 103.23 651.561 103.252 651.373 103.267C651.253 101.601 650.374 100.008 648.82 99.0959C649.6 97.3397 650.316 95.5518 651.41 93.9644C651.499 93.8326 651.551 93.6902 651.582 93.5373C651.703 93.4529 651.818 93.3633 651.928 93.2683C651.98 93.2261 652.032 93.1734 652.074 93.1154C652.221 92.9783 652.32 92.82 652.383 92.6302C652.477 92.4509 652.519 92.261 652.514 92.0501C652.519 91.8444 652.477 91.6493 652.383 91.47C652.325 91.2854 652.221 91.1219 652.074 90.9848C651.975 90.9057 651.875 90.8266 651.771 90.7474C651.541 90.6103 651.289 90.5418 651.017 90.5418C650.887 90.5576 650.756 90.5787 650.62 90.5945C650.426 90.6473 650.259 90.7474 650.102 90.874C649.704 90.5418 649.197 90.3361 648.621 90.315C647.941 90.2939 647.261 90.2675 646.586 90.2464C646.549 90.2253 646.518 90.1937 646.481 90.1779C645.315 89.6083 643.97 89.2602 642.683 89.6241C642.066 89.8034 641.668 90.162 641.166 90.5418C641.417 90.3519 640.815 90.7686 640.826 90.758C640.705 90.8371 640.679 90.8635 640.674 90.874C640.664 90.874 640.622 90.8793 640.47 90.9373C640.386 90.9689 640.308 91.0111 640.229 91.0481C639.026 91.1694 637.629 90.7474 636.619 90.2886C636.515 90.2412 636.41 90.2095 636.305 90.1726C636.269 90.1304 636.232 90.0829 636.19 90.0513C635.976 89.8193 635.719 89.6505 635.421 89.5556C635.139 89.4026 634.83 89.3341 634.506 89.3499C634.176 89.3393 633.873 89.4079 633.59 89.5556C633.297 89.6505 633.041 89.8193 632.821 90.0513L632.45 90.5365C632.235 90.9109 632.125 91.317 632.125 91.7495C632.151 91.9604 632.183 92.1766 632.209 92.3876C632.308 92.7515 632.486 93.0732 632.737 93.3474C632.811 93.4951 632.899 93.6322 633.015 93.7535C633.182 94.0172 633.407 94.2229 633.684 94.3705C633.731 94.4022 633.784 94.4127 633.831 94.4391C634.275 96.3746 635.264 98.1413 636.107 99.9449C635.61 100.182 635.186 100.557 634.835 101.047C634.349 101.722 634.171 102.545 634.087 103.362C634.056 103.658 634.056 103.953 634.071 104.248C633.485 103.953 632.837 103.784 632.151 103.826C631.032 103.895 630.027 104.206 629.201 104.807C628.264 104.95 627.349 105.187 626.454 105.572C625.298 106.073 623.639 107.291 622.87 107.55C621.756 107.924 620.835 108.668 620.254 109.612C620.202 109.665 620.149 109.723 620.097 109.775C617.492 112.085 615.556 115.081 614.217 118.509C613.672 119.136 612.961 119.959 612.746 120.36C612.098 121.541 611.799 122.78 611.595 124.067C611.438 124.368 611.276 124.663 611.125 124.964C610.591 125.997 610.481 126.999 610.659 127.912C610.607 128.075 610.56 128.244 610.518 128.423C609.607 132.59 607.672 136.54 607.379 140.811C607.232 142.99 607.352 145.115 607.086 147.288C606.84 149.302 606.641 151.127 606.845 153.126C606.442 154.824 606.144 156.538 605.935 158.278C605.778 159.597 605.935 161.152 605.673 162.455C605.04 163.584 604.82 164.881 605.15 166.078C604.852 166.69 604.658 167.37 604.59 168.087C604.459 169.527 604.041 170.988 603.742 172.407C603.549 173.351 603.345 175.08 603.068 175.75C602.931 176.003 602.811 176.267 602.712 176.541C602.659 176.684 602.612 176.821 602.56 176.963C602.44 177.306 602.366 177.633 602.325 177.955C601.278 178.63 600.765 179.711 600.708 180.876C600.268 181.151 599.902 181.499 599.62 181.931C599.227 182.364 598.961 182.875 598.819 183.461C598.668 183.956 598.626 184.452 598.694 184.948C598.584 187.279 600.017 189.694 602.999 189.694C603.742 189.694 604.381 189.531 604.93 189.267C605.139 189.372 605.354 189.473 605.589 189.557C609.785 191.034 614.133 191.825 618.564 192.062C619.119 192.32 619.726 192.458 620.364 192.421C621.525 192.357 622.682 192.384 623.833 192.458C623.948 192.489 624.063 192.516 624.178 192.547C626.653 193.265 629.206 193.576 631.775 193.481C632.109 193.47 632.423 193.423 632.722 193.354C633.281 193.649 633.935 193.834 634.689 193.866C639.701 194.071 644.687 193.929 649.683 193.433C649.903 193.412 650.118 193.375 650.332 193.328C651.169 193.607 652.106 193.671 653.047 193.523C656.799 192.943 660.613 192.806 664.39 192.463C666.033 192.315 667.691 192.162 669.282 191.703C670.009 191.493 670.721 191.202 671.437 190.944C671.84 190.944 672.248 190.897 672.651 190.786C673.268 190.675 673.886 190.564 674.498 190.454C674.77 190.406 675.047 190.301 675.319 190.153C675.774 190.037 676.177 189.858 676.533 189.626L678.396 189.583C679.175 189.568 679.955 189.351 680.635 188.961C683.811 188.033 684.417 183.761 682.45 181.541Z" fill="#F499AD"/>
<path d="M651.152 102.28C651.131 102.143 651.1 102.011 651.048 101.885C650.901 101.505 650.739 101.152 650.503 100.82C650.409 100.646 650.284 100.503 650.122 100.398C649.98 100.266 649.808 100.176 649.614 100.129C649.258 100.029 648.782 100.076 648.468 100.282C648.149 100.487 647.872 100.799 647.783 101.178C647.783 101.189 647.783 101.199 647.778 101.205C647.579 101.458 647.453 101.769 647.469 102.106C647.474 102.159 647.474 102.212 647.479 102.265C646.653 102.855 645.863 103.504 645.12 104.2C645.057 104.263 645 104.332 644.947 104.411C644.272 104.437 643.592 104.406 642.949 104.374C641.63 104.306 640.333 104.089 639.056 103.741C638.512 103.594 637.942 103.446 637.429 103.214C637.283 103.151 637.152 103.024 637.016 102.934C637.016 102.882 637.026 102.829 637.016 102.776C636.99 102.565 636.958 102.36 636.932 102.149C636.843 101.479 636.529 100.893 635.839 100.704C635.258 100.545 634.41 100.793 634.159 101.394C632.197 106.056 639.443 107.122 642.446 107.349C642.483 107.354 642.52 107.354 642.562 107.354C642.828 107.702 643.226 107.939 643.702 107.918C644.419 107.886 645.13 107.85 645.842 107.792C646.71 107.723 647.558 107.649 648.364 107.28C649.358 106.821 650.095 105.877 650.394 104.817C650.42 104.796 650.446 104.775 650.467 104.754C650.582 104.633 650.681 104.49 650.781 104.353C650.917 104.163 651.006 103.926 651.084 103.715C651.163 103.493 651.189 103.246 651.21 103.019C651.236 102.766 651.189 102.512 651.152 102.28Z" fill="#F68B38"/>
<path d="M640.472 90.7368C638.003 91.9392 635.198 89.5344 635.198 89.5344C632.818 88.332 631.625 90.7368 631.625 90.7368L636.841 101.77C636.841 101.77 637.584 104.549 642.35 104.232C642.35 104.232 646.52 104.549 647.718 101.77L653.086 90.1356C648.932 91.9393 645.557 89.5344 645.557 89.5344C643.407 88.332 642.35 89.5344 642.35 89.5344" stroke="black" stroke-width="1.5" stroke-miterlimit="10" stroke-linecap="round" stroke-linejoin="round"/>
<path d="M635.901 99.7812C635.901 99.7812 631.627 102.745 635.2 105.746C635.2 105.746 637.581 108.145 645.92 107.55" stroke="black" stroke-width="1.5" stroke-miterlimit="10" stroke-linecap="round" stroke-linejoin="round"/>
<path d="M648.877 99.2539C648.877 99.2539 651.284 100.346 651.284 102.144C651.284 102.144 651.88 103.948 649.494 106.347" stroke="black" stroke-width="1.5" stroke-miterlimit="10" stroke-linecap="round" stroke-linejoin="round"/>
<path d="M650.116 108.791C650.116 108.791 657.838 112.351 660.219 119.56C660.219 119.56 662.599 126.163 659.026 126.764C659.026 126.764 656.065 127.328 655.165 124.343C655.165 124.343 654.265 120.161 654.265 115.958" stroke="black" stroke-width="1.5" stroke-miterlimit="10" stroke-linecap="round" stroke-linejoin="round"/>
<path d="M634.602 109.949C634.602 109.949 628.989 116.9 628.816 121.831C628.816 121.831 628.806 127.448 625.447 126.804C625.447 126.804 621.465 126.504 623.27 121.831C623.27 121.831 625.075 114.152 634.602 109.949Z" stroke="black" stroke-width="1.5" stroke-miterlimit="10" stroke-linecap="round" stroke-linejoin="round"/>
<path d="M643.541 111.152C643.541 111.152 647.115 117.159 647.115 123.762" stroke="black" stroke-width="1.5" stroke-miterlimit="10" stroke-linecap="round" stroke-linejoin="round"/>
<path d="M633.777 103.71C633.777 103.71 620.31 101.542 612.567 120.754C612.567 120.754 607.204 134.567 606.613 150.773C606.613 150.773 604.824 175.391 600.063 181.392C600.063 181.392 594.104 187.399 602.443 189.198C602.443 189.198 636.424 200.004 680.487 189.198C680.487 189.198 686.43 188.596 682.857 181.392C682.857 181.392 676.897 161.579 676.306 147.767C676.306 147.767 673.926 119.547 667.37 112.343C667.37 112.343 660.224 103.335 651.356 102.792" stroke="black" stroke-width="1.5" stroke-miterlimit="10" stroke-linecap="round" stroke-linejoin="round"/>
<path d="M639.369 94.9395L640.996 103.71" stroke="black" stroke-width="1.5" stroke-miterlimit="10" stroke-linecap="round" stroke-linejoin="round"/>
<path d="M644.734 93.1367L643.541 103.711" stroke="black" stroke-width="1.5" stroke-miterlimit="10" stroke-linecap="round" stroke-linejoin="round"/>
<path d="M622.078 171.25H627.457V172.664H625.652V176.977H623.883V172.664H622.078V171.25ZM628.039 174.117C628.039 173.182 628.299 172.454 628.82 171.934C629.341 171.413 630.066 171.152 630.996 171.152C631.949 171.152 632.684 171.409 633.199 171.922C633.715 172.432 633.973 173.148 633.973 174.07C633.973 174.74 633.859 175.289 633.633 175.719C633.409 176.146 633.083 176.479 632.656 176.719C632.232 176.956 631.702 177.074 631.066 177.074C630.421 177.074 629.885 176.971 629.461 176.766C629.039 176.56 628.697 176.234 628.434 175.789C628.171 175.344 628.039 174.786 628.039 174.117ZM629.809 174.125C629.809 174.703 629.915 175.118 630.129 175.371C630.345 175.624 630.638 175.75 631.008 175.75C631.388 175.75 631.682 175.626 631.891 175.379C632.099 175.132 632.203 174.688 632.203 174.047C632.203 173.508 632.094 173.115 631.875 172.867C631.659 172.617 631.365 172.492 630.992 172.492C630.635 172.492 630.349 172.618 630.133 172.871C629.917 173.124 629.809 173.542 629.809 174.125ZM634.934 171.25H636.703V173.414L638.559 171.25H640.91L638.824 173.41L641.004 176.977H638.824L637.617 174.621L636.703 175.578V176.977H634.934V171.25ZM641.586 171.25H646.328V172.473H643.359V173.383H646.113V174.551H643.359V175.68H646.414V176.977H641.586V171.25ZM647.383 171.25H649.035L651.191 174.418V171.25H652.859V176.977H651.191L649.047 173.832V176.977H647.383V171.25ZM653.727 175.082L655.41 174.977C655.447 175.25 655.521 175.458 655.633 175.602C655.815 175.833 656.076 175.949 656.414 175.949C656.667 175.949 656.861 175.891 656.996 175.773C657.134 175.654 657.203 175.516 657.203 175.359C657.203 175.211 657.138 175.078 657.008 174.961C656.878 174.844 656.576 174.733 656.102 174.629C655.326 174.454 654.772 174.223 654.441 173.934C654.108 173.645 653.941 173.276 653.941 172.828C653.941 172.534 654.026 172.257 654.195 171.996C654.367 171.733 654.624 171.527 654.965 171.379C655.309 171.228 655.779 171.152 656.375 171.152C657.107 171.152 657.664 171.289 658.047 171.562C658.432 171.833 658.661 172.266 658.734 172.859L657.066 172.957C657.022 172.699 656.928 172.512 656.785 172.395C656.645 172.277 656.449 172.219 656.199 172.219C655.993 172.219 655.839 172.263 655.734 172.352C655.63 172.438 655.578 172.543 655.578 172.668C655.578 172.759 655.621 172.841 655.707 172.914C655.79 172.99 655.988 173.06 656.301 173.125C657.074 173.292 657.628 173.461 657.961 173.633C658.297 173.802 658.54 174.013 658.691 174.266C658.845 174.518 658.922 174.801 658.922 175.113C658.922 175.48 658.82 175.819 658.617 176.129C658.414 176.439 658.13 176.674 657.766 176.836C657.401 176.995 656.941 177.074 656.387 177.074C655.413 177.074 654.738 176.887 654.363 176.512C653.988 176.137 653.776 175.66 653.727 175.082Z" fill="black"/>
<path d="M639.619 159.361C647.221 159.361 653.383 153.149 653.383 145.486C653.383 137.823 647.221 131.61 639.619 131.61C632.016 131.61 625.854 137.823 625.854 145.486C625.854 153.149 632.016 159.361 639.619 159.361Z" fill="#F68B38" stroke="black" stroke-miterlimit="10"/>
<path d="M642.594 158.606C650.196 158.606 656.359 152.394 656.359 144.731C656.359 137.068 650.196 130.855 642.594 130.855C634.992 130.855 628.829 137.068 628.829 144.731C628.829 152.394 634.992 158.606 642.594 158.606Z" fill="#FBB33B" stroke="black" stroke-miterlimit="10"/>
<path d="M642.595 136.414V153.048" stroke="#1D1D1B" stroke-miterlimit="10" stroke-linecap="round" stroke-linejoin="round"/>
<path d="M640.031 137.395L642.595 139.963L645.201 137.395" stroke="#1D1D1B" stroke-miterlimit="10" stroke-linecap="round" stroke-linejoin="round"/>
<path d="M640.031 152.232L642.595 149.664L645.201 152.232" stroke="#1D1D1B" stroke-miterlimit="10" stroke-linecap="round" stroke-linejoin="round"/>
<path d="M635.229 140.301L649.643 149.018" stroke="#1D1D1B" stroke-miterlimit="10" stroke-linecap="round" stroke-linejoin="round"/>
<path d="M637.583 138.678L638.331 142.18L634.909 143.53" stroke="#1D1D1B" stroke-miterlimit="10" stroke-linecap="round" stroke-linejoin="round"/>
<path d="M650.28 146.111L646.597 147.171L647.544 150.947" stroke="#1D1D1B" stroke-miterlimit="10" stroke-linecap="round" stroke-linejoin="round"/>
<path d="M635.229 149.326L649.643 140.613" stroke="#1D1D1B" stroke-miterlimit="10" stroke-linecap="round" stroke-linejoin="round"/>
<path d="M637.583 150.951L638.331 147.449L634.909 146.099" stroke="#1D1D1B" stroke-miterlimit="10" stroke-linecap="round" stroke-linejoin="round"/>
<path d="M650.28 143.514L646.597 142.454L647.544 138.678" stroke="#1D1D1B" stroke-miterlimit="10" stroke-linecap="round" stroke-linejoin="round"/>
<path d="M21.7429 156.754H9.50781V112.556C9.50781 112.302 9.79434 112.096 10.1475 112.096H21.1032C21.4564 112.096 21.7429 112.302 21.7429 112.556V156.754Z" fill="#F68B38" stroke="black" stroke-width="1.5" stroke-miterlimit="10"/>
<path d="M33.9773 163.249H21.7422V101.52C21.7422 101.167 22.0287 100.88 22.3819 100.88H33.3376C33.6908 100.88 33.9773 101.167 33.9773 101.52V163.249Z" fill="#F68B38" stroke="black" stroke-width="1.5" stroke-miterlimit="10"/>
<path d="M45.5996 94.3057H34.5973C34.2575 94.3057 33.9775 94.5724 33.9775 94.9058V175.467H46.2127V94.9058C46.2193 94.579 45.9395 94.3057 45.5996 94.3057Z" fill="#F68B38" stroke="black" stroke-width="1.5" stroke-miterlimit="10"/>
<path d="M58.4558 184.447H46.2207V101.479C46.2207 101.152 46.5073 100.886 46.8605 100.886H57.8161C58.1693 100.886 58.4558 101.152 58.4558 101.479V184.447Z" fill="#F68B38" stroke="black" stroke-width="1.5" stroke-miterlimit="10"/>
<path d="M70.6903 168.597H58.4551V112.676C58.4551 112.356 58.7417 112.096 59.0949 112.096H70.0505C70.4037 112.096 70.6903 112.356 70.6903 112.676V168.597Z" fill="#F68B38" stroke="black" stroke-width="1.5" stroke-miterlimit="10"/>
<path d="M79.7397 139.8L67.5645 186.979L66.525 191.02C66.0718 192.773 64.519 194 62.7398 194H18.1308C16.3515 194 14.7988 192.773 14.3456 191.02L1.13092 139.8C0.477848 137.266 2.35039 134.778 4.91604 134.778H22.6224C22.9289 134.778 23.1755 135.038 23.1755 135.352V135.358C23.1755 145.088 30.9057 152.976 40.4353 152.976C49.9648 152.976 57.6951 145.088 57.6951 135.358V135.352C57.6951 135.038 57.9417 134.778 58.2482 134.778H75.9545C78.5201 134.785 80.3928 137.266 79.7397 139.8Z" fill="#F68B38" stroke="black" stroke-width="1.5" stroke-miterlimit="10"/>
<path d="M27.9402 151.442H15.7051V107.243C15.7051 106.99 15.9916 106.783 16.3448 106.783H27.3004C27.6536 106.783 27.9402 106.99 27.9402 107.243V151.442Z" fill="#FBB33B" stroke="#1D1D1B" stroke-width="1.5" stroke-miterlimit="10"/>
<path d="M40.1746 157.945H27.9395V96.2154C27.9395 95.862 28.226 95.5752 28.5792 95.5752H39.5349C39.8881 95.5752 40.1746 95.862 40.1746 96.2154V157.945Z" fill="#FBB33B" stroke="#1D1D1B" stroke-width="1.5" stroke-miterlimit="10"/>
<path d="M51.7919 89H40.7897C40.4498 89 40.1699 89.2668 40.1699 89.6002V170.161H52.4051V89.6002C52.4117 89.2668 52.1385 89 51.7919 89Z" fill="#FBB33B" stroke="#1D1D1B" stroke-width="1.5" stroke-miterlimit="10"/>
<path d="M64.6453 179.144H52.4102V96.1687C52.4102 95.8419 52.6967 95.5752 53.0499 95.5752H64.0056C64.3588 95.5752 64.6453 95.8419 64.6453 96.1687V179.144Z" fill="#FBB33B" stroke="#1D1D1B" stroke-width="1.5" stroke-miterlimit="10"/>
<path d="M76.8816 163.292H64.6465V107.371C64.6465 107.051 64.933 106.791 65.2862 106.791H76.2419C76.5951 106.791 76.8816 107.051 76.8816 107.371V163.292Z" fill="#FBB33B" stroke="#1D1D1B" stroke-width="1.5" stroke-miterlimit="10"/>
<path d="M85.7398 134.491L73.5646 181.67L72.525 185.711C72.0718 187.465 70.5191 188.692 68.7398 188.692H24.1308C22.3515 188.692 20.7989 187.465 20.3457 185.711L7.13092 134.491C6.47784 131.957 8.35047 129.47 10.9161 129.47H28.6224C28.9289 129.47 29.1756 129.73 29.1756 130.043V130.05C29.1756 139.779 36.9058 147.668 46.4353 147.668C55.9649 147.668 63.6951 139.779 63.6951 130.05V130.043C63.6951 129.73 63.9418 129.47 64.2483 129.47H81.9546C84.5202 129.47 86.3995 131.957 85.7398 134.491Z" fill="#F499AD" stroke="#1D1D1B" stroke-width="1.5" stroke-miterlimit="10"/>
<path d="M47.0848 162.645C55.2627 162.645 61.8922 156.011 61.8922 147.828C61.8922 139.645 55.2627 133.011 47.0848 133.011C38.9068 133.011 32.2773 139.645 32.2773 147.828C32.2773 156.011 38.9068 162.645 47.0848 162.645Z" fill="#F499AD" stroke="#1D1D1B" stroke-width="1.5" stroke-miterlimit="10"/>
<path d="M49.5904 140.492L47.6309 139.165L49.5904 137.784L51.5432 139.165L49.5904 140.492Z" fill="#FBB33B" stroke="black" stroke-width="0.5" stroke-miterlimit="10" stroke-linejoin="round"/>
<path d="M49.5904 150.048L47.6309 148.721L49.5904 147.341L51.5432 148.721L49.5904 150.048Z" fill="#FBB33B" stroke="black" stroke-width="0.5" stroke-miterlimit="10" stroke-linejoin="round"/>
<path d="M49.5898 140.492V150.048L51.5426 148.721V139.165L49.5898 140.492Z" fill="#FBB33B" stroke="black" stroke-width="0.5" stroke-miterlimit="10" stroke-linejoin="round"/>
<path d="M47.6309 139.165V148.721L49.5904 150.048V140.492L47.6309 139.165Z" fill="#FBB33B" stroke="black" stroke-width="0.5" stroke-miterlimit="10" stroke-linejoin="round"/>
<path d="M47.6313 141.872L45.6719 140.551L47.6313 139.171L49.5909 140.551L47.6313 141.872Z" fill="#FBB33B" stroke="black" stroke-width="0.5" stroke-miterlimit="10" stroke-linejoin="round"/>
<path d="M47.6313 151.426L45.6719 150.106L47.6313 148.726L49.5909 150.106L47.6313 151.426Z" fill="#FBB33B" stroke="black" stroke-width="0.5" stroke-miterlimit="10" stroke-linejoin="round"/>
<path d="M47.6309 141.872V151.428L49.5904 150.108V140.552L47.6309 141.872Z" fill="#F68B38" stroke="black" stroke-width="0.5" stroke-miterlimit="10" stroke-linejoin="round"/>
<path d="M45.6719 140.552V150.108L47.6313 151.428V141.872L45.6719 140.552Z" fill="#FBB33B" stroke="black" stroke-width="0.5" stroke-miterlimit="10" stroke-linejoin="round"/>
<path d="M51.5456 141.872L49.5928 140.551L51.5456 139.171L53.5051 140.551L51.5456 141.872Z" fill="#FBB33B" stroke="black" stroke-width="0.5" stroke-miterlimit="10" stroke-linejoin="round"/>
<path d="M51.5446 151.426L49.5918 150.106L51.5446 148.726L53.5041 150.106L51.5446 151.426Z" fill="#FBB33B" stroke="black" stroke-width="0.5" stroke-miterlimit="10" stroke-linejoin="round"/>
<path d="M51.5449 141.872V151.428L53.5045 150.108V140.552L51.5449 141.872Z" fill="#FBB33B" stroke="black" stroke-width="0.5" stroke-miterlimit="10" stroke-linejoin="round"/>
<path d="M49.5918 140.552V150.108L51.5446 151.428V141.872L49.5918 140.552Z" fill="#F68B38" stroke="black" stroke-width="0.5" stroke-miterlimit="10" stroke-linejoin="round"/>
<path d="M53.5025 143.226L51.543 141.899L53.5025 140.519L55.462 141.899L53.5025 143.226Z" fill="#FBB33B" stroke="black" stroke-width="0.5" stroke-miterlimit="10" stroke-linejoin="round"/>
<path d="M53.5025 152.783L51.543 151.456L53.5025 150.075L55.462 151.456L53.5025 152.783Z" fill="#FBB33B" stroke="black" stroke-width="0.5" stroke-miterlimit="10" stroke-linejoin="round"/>
<path d="M53.502 143.226V152.782L55.4614 151.455V141.899L53.502 143.226Z" fill="#FBB33B" stroke="black" stroke-width="0.5" stroke-miterlimit="10" stroke-linejoin="round"/>
<path d="M51.543 141.899V151.455L53.5025 152.782V143.226L51.543 141.899Z" fill="#F68B38" stroke="black" stroke-width="0.5" stroke-miterlimit="10" stroke-linejoin="round"/>
<path d="M45.6724 143.226L43.7129 141.899L45.6724 140.519L47.6319 141.899L45.6724 143.226Z" fill="#FBB33B" stroke="black" stroke-width="0.5" stroke-miterlimit="10" stroke-linejoin="round"/>
<path d="M45.6724 152.783L43.7129 151.456L45.6724 150.075L47.6319 151.456L45.6724 152.783Z" fill="#FBB33B" stroke="black" stroke-width="0.5" stroke-miterlimit="10" stroke-linejoin="round"/>
<path d="M45.6729 143.226V152.782L47.6323 151.455V141.899L45.6729 143.226Z" fill="#FBB33B" stroke="black" stroke-width="0.5" stroke-miterlimit="10" stroke-linejoin="round"/>
<path d="M43.7129 141.899V151.455L45.6724 152.782V143.226L43.7129 141.899Z" fill="#FBB33B" stroke="black" stroke-width="0.5" stroke-miterlimit="10" stroke-linejoin="round"/>
<path d="M43.7125 144.607L41.7598 143.28L43.7125 141.899L45.6721 143.28L43.7125 144.607Z" fill="#FBB33B" stroke="black" stroke-width="0.5" stroke-miterlimit="10" stroke-linejoin="round"/>
<path d="M43.7125 154.163L41.7598 152.836L43.7125 151.456L45.6721 152.836L43.7125 154.163Z" fill="#FBB33B" stroke="black" stroke-width="0.5" stroke-miterlimit="10" stroke-linejoin="round"/>
<path d="M43.7119 144.607V154.163L45.6714 152.836V143.28L43.7119 144.607Z" fill="#F68B38" stroke="black" stroke-width="0.5" stroke-miterlimit="10" stroke-linejoin="round"/>
<path d="M41.7598 143.28V152.836L43.7125 154.163V144.607L41.7598 143.28Z" fill="#FBB33B" stroke="black" stroke-width="0.5" stroke-miterlimit="10" stroke-linejoin="round"/>
<path d="M41.7603 145.926L39.8008 144.606L41.7603 143.226L43.7131 144.606L41.7603 145.926Z" fill="#FBB33B" stroke="black" stroke-width="0.5" stroke-miterlimit="10" stroke-linejoin="round"/>
<path d="M41.7603 155.482L39.8008 154.162L41.7603 152.781L43.7131 154.162L41.7603 155.482Z" fill="#FBB33B" stroke="black" stroke-width="0.5" stroke-miterlimit="10" stroke-linejoin="round"/>
<path d="M41.7598 145.927V155.483L43.7125 154.162V144.606L41.7598 145.927Z" fill="#F68B38" stroke="black" stroke-width="0.5" stroke-miterlimit="10" stroke-linejoin="round"/>
<path d="M39.8008 144.606V154.162L41.7603 155.483V145.927L39.8008 144.606Z" fill="#FBB33B" stroke="black" stroke-width="0.5" stroke-miterlimit="10" stroke-linejoin="round"/>
<path d="M47.6313 144.586L45.6719 143.266L47.6313 141.886L49.5909 143.266L47.6313 144.586Z" fill="#FBB33B" stroke="black" stroke-width="0.5" stroke-miterlimit="10" stroke-linejoin="round"/>
<path d="M47.6313 154.143L45.6719 152.823L47.6313 151.442L49.5909 152.823L47.6313 154.143Z" fill="#FBB33B" stroke="black" stroke-width="0.5" stroke-miterlimit="10" stroke-linejoin="round"/>
<path d="M47.6309 144.587V154.143L49.5904 152.822V143.267L47.6309 144.587Z" fill="#FBB33B" stroke="black" stroke-width="0.5" stroke-miterlimit="10" stroke-linejoin="round"/>
<path d="M45.6719 143.267V152.822L47.6313 154.143V144.587L45.6719 143.267Z" fill="#F68B38" stroke="black" stroke-width="0.5" stroke-miterlimit="10" stroke-linejoin="round"/>
<path d="M49.5904 145.947L47.6309 144.62L49.5904 143.239L51.5432 144.62L49.5904 145.947Z" fill="#FBB33B" stroke="black" stroke-width="0.5" stroke-miterlimit="10" stroke-linejoin="round"/>
<path d="M49.5904 155.502L47.6309 154.175L49.5904 152.795L51.5432 154.175L49.5904 155.502Z" fill="#FBB33B" stroke="black" stroke-width="0.5" stroke-miterlimit="10" stroke-linejoin="round"/>
<path d="M49.5898 145.947V155.503L51.5426 154.176V144.62L49.5898 145.947Z" fill="#FBB33B" stroke="black" stroke-width="0.5" stroke-miterlimit="10" stroke-linejoin="round"/>
<path d="M47.6309 144.62V154.176L49.5904 155.503V145.947L47.6309 144.62Z" fill="#F68B38" stroke="black" stroke-width="0.5" stroke-miterlimit="10" stroke-linejoin="round"/>
<path d="M37.25 173.913H38.0078V175.077H37.25V178.062H35.6562V175.077H35.0625V173.913H35.6562V173.726C35.6562 173.556 35.6745 173.37 35.7109 173.167C35.7474 172.964 35.8151 172.799 35.9141 172.671C36.0156 172.541 36.1562 172.437 36.3359 172.358C36.5182 172.278 36.7839 172.237 37.1328 172.237C37.4115 172.237 37.8164 172.27 38.3477 172.335L38.1719 173.296C37.9818 173.265 37.8281 173.249 37.7109 173.249C37.5677 173.249 37.4648 173.274 37.4023 173.323C37.3398 173.37 37.2956 173.446 37.2695 173.55C37.2565 173.607 37.25 173.728 37.25 173.913ZM42.4297 172.335H44.1953V175.749C44.1953 176.088 44.1419 176.408 44.0352 176.71C43.931 177.009 43.7656 177.272 43.5391 177.499C43.3151 177.723 43.0794 177.881 42.832 177.972C42.4883 178.099 42.0755 178.163 41.5938 178.163C41.3151 178.163 41.0104 178.144 40.6797 178.104C40.3516 178.065 40.0768 177.989 39.8555 177.874C39.6341 177.757 39.431 177.591 39.2461 177.378C39.0638 177.164 38.9388 176.944 38.8711 176.718C38.7617 176.353 38.707 176.03 38.707 175.749V172.335H40.4727V175.831C40.4727 176.144 40.5586 176.388 40.7305 176.565C40.9049 176.74 41.1458 176.827 41.4531 176.827C41.7578 176.827 41.9961 176.741 42.168 176.569C42.3424 176.395 42.4297 176.149 42.4297 175.831V172.335ZM45.0586 176.167L46.7422 176.062C46.7786 176.335 46.8529 176.543 46.9648 176.687C47.1471 176.918 47.4076 177.034 47.7461 177.034C47.9987 177.034 48.1927 176.976 48.3281 176.858C48.4661 176.739 48.5352 176.601 48.5352 176.444C48.5352 176.296 48.4701 176.163 48.3398 176.046C48.2096 175.929 47.9076 175.818 47.4336 175.714C46.6576 175.539 46.1042 175.308 45.7734 175.019C45.4401 174.729 45.2734 174.361 45.2734 173.913C45.2734 173.619 45.3581 173.341 45.5273 173.081C45.6992 172.818 45.9557 172.612 46.2969 172.464C46.6406 172.313 47.1107 172.237 47.707 172.237C48.4388 172.237 48.9961 172.374 49.3789 172.647C49.7643 172.918 49.9935 173.351 50.0664 173.944L48.3984 174.042C48.3542 173.784 48.2604 173.597 48.1172 173.479C47.9766 173.362 47.7812 173.304 47.5312 173.304C47.3255 173.304 47.1706 173.348 47.0664 173.437C46.9622 173.522 46.9102 173.628 46.9102 173.753C46.9102 173.844 46.9531 173.926 47.0391 173.999C47.1224 174.075 47.3203 174.145 47.6328 174.21C48.4062 174.377 48.9596 174.546 49.293 174.718C49.6289 174.887 49.8724 175.098 50.0234 175.351C50.1771 175.603 50.2539 175.886 50.2539 176.198C50.2539 176.565 50.1523 176.904 49.9492 177.214C49.7461 177.524 49.4622 177.759 49.0977 177.921C48.7331 178.08 48.2734 178.159 47.7188 178.159C46.7448 178.159 46.0703 177.972 45.6953 177.597C45.3203 177.222 45.1081 176.745 45.0586 176.167ZM51.1719 172.335H53.8008C54.319 172.335 54.737 172.405 55.0547 172.546C55.375 172.687 55.6393 172.888 55.8477 173.151C56.056 173.414 56.207 173.72 56.3008 174.069C56.3945 174.418 56.4414 174.788 56.4414 175.179C56.4414 175.791 56.3711 176.266 56.2305 176.604C56.0924 176.94 55.8997 177.223 55.6523 177.452C55.4049 177.679 55.1393 177.83 54.8555 177.905C54.4674 178.009 54.1159 178.062 53.8008 178.062H51.1719V172.335ZM52.9414 173.632V176.761H53.375C53.7448 176.761 54.0078 176.72 54.1641 176.64C54.3203 176.556 54.4427 176.413 54.5312 176.21C54.6198 176.004 54.6641 175.672 54.6641 175.214C54.6641 174.607 54.5651 174.192 54.3672 173.968C54.1693 173.744 53.8411 173.632 53.3828 173.632H52.9414Z" fill="black"/>
</svg>
