<svg width="162" height="21" viewBox="0 0 162 21" fill="none" xmlns="http://www.w3.org/2000/svg">
<path d="M0.832031 13.3164L5.88281 13C5.99219 13.8203 6.21484 14.4453 6.55078 14.875C7.09766 15.5703 7.87891 15.918 8.89453 15.918C9.65234 15.918 10.2344 15.7422 10.6406 15.3906C11.0547 15.0312 11.2617 14.6172 11.2617 14.1484C11.2617 13.7031 11.0664 13.3047 10.6758 12.9531C10.2852 12.6016 9.37891 12.2695 7.95703 11.957C5.62891 11.4336 3.96875 10.7383 2.97656 9.87109C1.97656 9.00391 1.47656 7.89844 1.47656 6.55469C1.47656 5.67188 1.73047 4.83984 2.23828 4.05859C2.75391 3.26953 3.52344 2.65234 4.54688 2.20703C5.57812 1.75391 6.98828 1.52734 8.77734 1.52734C10.9727 1.52734 12.6445 1.9375 13.793 2.75781C14.9492 3.57031 15.6367 4.86719 15.8555 6.64844L10.8516 6.94141C10.7188 6.16797 10.4375 5.60547 10.0078 5.25391C9.58594 4.90234 9 4.72656 8.25 4.72656C7.63281 4.72656 7.16797 4.85938 6.85547 5.125C6.54297 5.38281 6.38672 5.69922 6.38672 6.07422C6.38672 6.34766 6.51562 6.59375 6.77344 6.8125C7.02344 7.03906 7.61719 7.25 8.55469 7.44531C10.875 7.94531 12.5352 8.45312 13.5352 8.96875C14.543 9.47656 15.2734 10.1094 15.7266 10.8672C16.1875 11.625 16.418 12.4727 16.418 13.4102C16.418 14.5117 16.1133 15.5273 15.5039 16.457C14.8945 17.3867 14.043 18.0938 12.9492 18.5781C11.8555 19.0547 10.4766 19.293 8.8125 19.293C5.89062 19.293 3.86719 18.7305 2.74219 17.6055C1.61719 16.4805 0.980469 15.0508 0.832031 13.3164ZM30.2812 1.82031H35.5781V12.0625C35.5781 13.0781 35.418 14.0391 35.0977 14.9453C34.7852 15.8438 34.2891 16.6328 33.6094 17.3125C32.9375 17.9844 32.2305 18.457 31.4883 18.7305C30.457 19.1133 29.2188 19.3047 27.7734 19.3047C26.9375 19.3047 26.0234 19.2461 25.0312 19.1289C24.0469 19.0117 23.2227 18.7812 22.5586 18.4375C21.8945 18.0859 21.2852 17.5898 20.7305 16.9492C20.1836 16.3086 19.8086 15.6484 19.6055 14.9688C19.2773 13.875 19.1133 12.9062 19.1133 12.0625V1.82031H24.4102V12.3086C24.4102 13.2461 24.668 13.9805 25.1836 14.5117C25.707 15.0352 26.4297 15.2969 27.3516 15.2969C28.2656 15.2969 28.9805 15.0391 29.4961 14.5234C30.0195 14 30.2812 13.2617 30.2812 12.3086V1.82031ZM38.168 13.3164L43.2188 13C43.3281 13.8203 43.5508 14.4453 43.8867 14.875C44.4336 15.5703 45.2148 15.918 46.2305 15.918C46.9883 15.918 47.5703 15.7422 47.9766 15.3906C48.3906 15.0312 48.5977 14.6172 48.5977 14.1484C48.5977 13.7031 48.4023 13.3047 48.0117 12.9531C47.6211 12.6016 46.7148 12.2695 45.293 11.957C42.9648 11.4336 41.3047 10.7383 40.3125 9.87109C39.3125 9.00391 38.8125 7.89844 38.8125 6.55469C38.8125 5.67188 39.0664 4.83984 39.5742 4.05859C40.0898 3.26953 40.8594 2.65234 41.8828 2.20703C42.9141 1.75391 44.3242 1.52734 46.1133 1.52734C48.3086 1.52734 49.9805 1.9375 51.1289 2.75781C52.2852 3.57031 52.9727 4.86719 53.1914 6.64844L48.1875 6.94141C48.0547 6.16797 47.7734 5.60547 47.3438 5.25391C46.9219 4.90234 46.3359 4.72656 45.5859 4.72656C44.9688 4.72656 44.5039 4.85938 44.1914 5.125C43.8789 5.38281 43.7227 5.69922 43.7227 6.07422C43.7227 6.34766 43.8516 6.59375 44.1094 6.8125C44.3594 7.03906 44.9531 7.25 45.8906 7.44531C48.2109 7.94531 49.8711 8.45312 50.8711 8.96875C51.8789 9.47656 52.6094 10.1094 53.0625 10.8672C53.5234 11.625 53.7539 12.4727 53.7539 13.4102C53.7539 14.5117 53.4492 15.5273 52.8398 16.457C52.2305 17.3867 51.3789 18.0938 50.2852 18.5781C49.1914 19.0547 47.8125 19.293 46.1484 19.293C43.2266 19.293 41.2031 18.7305 40.0781 17.6055C38.9531 16.4805 38.3164 15.0508 38.168 13.3164ZM56.4609 1.82031H61.7695V7.83203H67.5703V1.82031H72.9023V19H67.5703V12.0508H61.7695V19H56.4609V1.82031ZM76.6406 1.82031H81.9609V19H76.6406V1.82031ZM84.8555 13.3164L89.9062 13C90.0156 13.8203 90.2383 14.4453 90.5742 14.875C91.1211 15.5703 91.9023 15.918 92.918 15.918C93.6758 15.918 94.2578 15.7422 94.6641 15.3906C95.0781 15.0312 95.2852 14.6172 95.2852 14.1484C95.2852 13.7031 95.0898 13.3047 94.6992 12.9531C94.3086 12.6016 93.4023 12.2695 91.9805 11.957C89.6523 11.4336 87.9922 10.7383 87 9.87109C86 9.00391 85.5 7.89844 85.5 6.55469C85.5 5.67188 85.7539 4.83984 86.2617 4.05859C86.7773 3.26953 87.5469 2.65234 88.5703 2.20703C89.6016 1.75391 91.0117 1.52734 92.8008 1.52734C94.9961 1.52734 96.668 1.9375 97.8164 2.75781C98.9727 3.57031 99.6602 4.86719 99.8789 6.64844L94.875 6.94141C94.7422 6.16797 94.4609 5.60547 94.0312 5.25391C93.6094 4.90234 93.0234 4.72656 92.2734 4.72656C91.6562 4.72656 91.1914 4.85938 90.8789 5.125C90.5664 5.38281 90.4102 5.69922 90.4102 6.07422C90.4102 6.34766 90.5391 6.59375 90.7969 6.8125C91.0469 7.03906 91.6406 7.25 92.5781 7.44531C94.8984 7.94531 96.5586 8.45312 97.5586 8.96875C98.5664 9.47656 99.2969 10.1094 99.75 10.8672C100.211 11.625 100.441 12.4727 100.441 13.4102C100.441 14.5117 100.137 15.5273 99.5273 16.457C98.918 17.3867 98.0664 18.0938 96.9727 18.5781C95.8789 19.0547 94.5 19.293 92.8359 19.293C89.9141 19.293 87.8906 18.7305 86.7656 17.6055C85.6406 16.4805 85.0039 15.0508 84.8555 13.3164ZM101.355 1.82031H106.395L108.211 11.418L110.859 1.82031H115.887L118.547 11.418L120.363 1.82031H125.379L121.594 19H116.391L113.379 8.18359L110.379 19H105.176L101.355 1.82031ZM137.695 16.1641H131.648L130.816 19H125.391L131.848 1.82031H137.637L144.094 19H138.539L137.695 16.1641ZM136.582 12.4492L134.684 6.27344L132.797 12.4492H136.582ZM145.781 1.82031H154.605C156.527 1.82031 157.965 2.27734 158.918 3.19141C159.879 4.10547 160.359 5.40625 160.359 7.09375C160.359 8.82812 159.836 10.1836 158.789 11.1602C157.75 12.1367 156.16 12.625 154.02 12.625H151.113V19H145.781V1.82031ZM151.113 9.14453H152.414C153.438 9.14453 154.156 8.96875 154.57 8.61719C154.984 8.25781 155.191 7.80078 155.191 7.24609C155.191 6.70703 155.012 6.25 154.652 5.875C154.293 5.5 153.617 5.3125 152.625 5.3125H151.113V9.14453Z" fill="#F68B38"/>
<path d="M0.832031 13.3164L0.785139 12.5679C0.583656 12.5805 0.395768 12.6738 0.263958 12.8267C0.132149 12.9796 0.0675481 13.1792 0.0847631 13.3804L0.832031 13.3164ZM5.88281 13L6.62623 12.9009C6.57418 12.5105 6.22901 12.2268 5.83592 12.2515L5.88281 13ZM6.55078 14.875L5.95992 15.3369L5.96127 15.3387L6.55078 14.875ZM10.6406 15.3906L11.1314 15.9578L11.1322 15.957L10.6406 15.3906ZM7.95703 11.957L7.79251 12.6888L7.79604 12.6895L7.95703 11.957ZM2.97656 9.87109L3.47013 9.30638L3.46793 9.30447L2.97656 9.87109ZM2.23828 4.05859L1.61044 3.64832L1.60945 3.64985L2.23828 4.05859ZM4.54688 2.20703L4.84611 2.89475L4.84858 2.89367L4.54688 2.20703ZM13.793 2.75781L13.357 3.36813L13.3618 3.37146L13.793 2.75781ZM15.8555 6.64844L15.8993 7.39716C16.1062 7.38505 16.2988 7.2879 16.4315 7.12876C16.5642 6.96962 16.6251 6.76268 16.5999 6.55702L15.8555 6.64844ZM10.8516 6.94141L10.1124 7.06834C10.177 7.44473 10.5142 7.71245 10.8954 7.69012L10.8516 6.94141ZM10.0078 5.25391L9.52765 5.8301L9.53288 5.83437L10.0078 5.25391ZM6.85547 5.125L7.33281 5.70359L7.34121 5.69645L6.85547 5.125ZM6.77344 6.8125L7.27708 6.25676C7.27103 6.25128 7.26489 6.2459 7.25867 6.24062L6.77344 6.8125ZM8.55469 7.44531L8.71268 6.71212L8.70765 6.71108L8.55469 7.44531ZM13.5352 8.96875L13.1914 9.63538L13.1977 9.63853L13.5352 8.96875ZM15.7266 10.8672L15.0828 11.2521L15.0858 11.2569L15.7266 10.8672ZM12.9492 18.5781L13.2488 19.2657L13.2529 19.2639L12.9492 18.5781ZM0.878923 14.0649L5.9297 13.7485L5.83592 12.2515L0.785139 12.5679L0.878923 14.0649ZM5.13939 13.0991C5.25799 13.9886 5.50978 14.7612 5.95993 15.3369L7.14164 14.4131C6.9199 14.1294 6.72639 13.652 6.62623 12.9009L5.13939 13.0991ZM5.96127 15.3387C6.67256 16.243 7.68738 16.668 8.89453 16.668V15.168C8.07043 15.168 7.52276 14.8976 7.14029 14.4113L5.96127 15.3387ZM8.89453 16.668C9.75926 16.668 10.5421 16.4677 11.1314 15.9578L10.1498 14.8235C9.92665 15.0166 9.54543 15.168 8.89453 15.168V16.668ZM11.1322 15.957C11.6797 15.4819 12.0117 14.8722 12.0117 14.1484H10.5117C10.5117 14.3622 10.4297 14.5806 10.149 14.8242L11.1322 15.957ZM12.0117 14.1484C12.0117 13.4519 11.695 12.8614 11.1775 12.3957L10.1741 13.5106C10.4378 13.748 10.5117 13.9543 10.5117 14.1484H12.0117ZM11.1775 12.3957C10.8743 12.1228 10.4417 11.9123 9.96114 11.7362C9.46477 11.5543 8.84715 11.3848 8.11802 11.2245L7.79604 12.6895C8.48879 12.8418 9.03523 12.9945 9.44511 13.1447C9.87079 13.3006 10.0866 13.4319 10.1741 13.5106L11.1775 12.3957ZM8.12155 11.2253C5.83122 10.7104 4.3197 10.0489 3.47013 9.30639L2.483 10.4358C3.6178 11.4276 5.4266 12.1568 7.79251 12.6888L8.12155 11.2253ZM3.46793 9.30447C2.63505 8.58221 2.22656 7.6848 2.22656 6.55469H0.726562C0.726562 8.11207 1.31808 9.4256 2.4852 10.4377L3.46793 9.30447ZM2.22656 6.55469C2.22656 5.82521 2.43377 5.13402 2.86711 4.46733L1.60945 3.64985C1.02717 4.54567 0.726562 5.51854 0.726562 6.55469H2.22656ZM2.86612 4.46886C3.28785 3.82349 3.93179 3.29259 4.84611 2.89475L4.24764 1.51931C3.11509 2.0121 2.21996 2.71558 1.61044 3.64832L2.86612 4.46886ZM4.84858 2.89367C5.7452 2.4997 7.0379 2.27734 8.77734 2.27734V0.777344C6.93866 0.777344 5.41105 1.00811 4.24517 1.52039L4.84858 2.89367ZM8.77734 2.27734C10.8972 2.27734 12.3887 2.67647 13.357 3.36811L14.2289 2.14751C12.9003 1.19853 11.0481 0.777344 8.77734 0.777344V2.27734ZM13.3618 3.37146C14.3 4.03079 14.9107 5.10844 15.1111 6.73986L16.5999 6.55702C16.3627 4.62593 15.5984 3.10984 14.2242 2.14417L13.3618 3.37146ZM15.8116 5.89972L10.8077 6.19269L10.8954 7.69012L15.8993 7.39716L15.8116 5.89972ZM11.5907 6.81448C11.4399 5.93591 11.1005 5.17889 10.4827 4.67344L9.53288 5.83437C9.77448 6.03204 9.99762 6.40002 10.1124 7.06834L11.5907 6.81448ZM10.488 4.67774C9.88916 4.17875 9.11143 3.97656 8.25 3.97656V5.47656C8.88857 5.47656 9.28272 5.62594 9.52767 5.83007L10.488 4.67774ZM8.25 3.97656C7.54148 3.97656 6.87177 4.12681 6.36973 4.55355L7.34121 5.69645C7.46417 5.59194 7.72415 5.47656 8.25 5.47656V3.97656ZM6.37818 4.54647C5.9088 4.93371 5.63672 5.45561 5.63672 6.07422H7.13672C7.13672 5.94283 7.17713 5.83192 7.33276 5.70353L6.37818 4.54647ZM5.63672 6.07422C5.63672 6.61895 5.90571 7.05984 6.2882 7.38438L7.25867 6.24062C7.18779 6.18047 7.1589 6.1371 7.14777 6.11586C7.13863 6.0984 7.13672 6.08772 7.13672 6.07422H5.63672ZM6.2698 7.36824C6.50695 7.58316 6.8318 7.73247 7.15518 7.84735C7.49599 7.96843 7.91488 8.07812 8.40172 8.17955L8.70765 6.71108C8.25699 6.61719 7.91026 6.52376 7.65732 6.4339C7.53146 6.38918 7.43773 6.34847 7.37063 6.31368C7.30113 6.27764 7.2767 6.25642 7.27708 6.25676L6.2698 7.36824ZM8.3967 8.17848C10.7074 8.67641 12.285 9.16796 13.1914 9.63535L13.8789 8.30215C12.7853 7.73829 11.0426 7.21421 8.71268 6.71214L8.3967 8.17848ZM13.1977 9.63853C14.1134 10.0999 14.7205 10.6461 15.0829 11.2521L16.3703 10.4823C15.8264 9.57268 14.9725 8.85318 13.8726 8.29897L13.1977 9.63853ZM15.0858 11.2569C15.4712 11.8905 15.668 12.602 15.668 13.4102H17.168C17.168 12.3434 16.9038 11.3595 16.3673 10.4774L15.0858 11.2569ZM15.668 13.4102C15.668 14.3642 15.4067 15.2372 14.8766 16.0459L16.1312 16.8682C16.8198 15.8175 17.168 14.6592 17.168 13.4102H15.668ZM14.8766 16.0459C14.3525 16.8455 13.6177 17.4618 12.6455 17.8924L13.2529 19.2639C14.4682 18.7257 15.4366 17.9279 16.1312 16.8682L14.8766 16.0459ZM12.6496 17.8906C11.6799 18.3131 10.4114 18.543 8.8125 18.543V20.043C10.5417 20.043 12.031 19.7963 13.2488 19.2657L12.6496 17.8906ZM8.8125 18.543C5.93901 18.543 4.1777 17.9803 3.27252 17.0751L2.21186 18.1358C3.55668 19.4806 5.84224 20.043 8.8125 20.043V18.543ZM3.27252 17.0751C2.28461 16.0872 1.71418 14.8284 1.5793 13.2525L0.0847631 13.3804C0.246756 15.2731 0.949762 16.8737 2.21186 18.1358L3.27252 17.0751ZM30.2812 1.82031V1.07031C29.867 1.07031 29.5312 1.4061 29.5312 1.82031H30.2812ZM35.5781 1.82031H36.3281C36.3281 1.4061 35.9923 1.07031 35.5781 1.07031V1.82031ZM35.0977 14.9453L34.3905 14.6954L34.3893 14.6989L35.0977 14.9453ZM31.4883 18.7305L31.229 18.0267L31.2273 18.0273L31.4883 18.7305ZM25.0312 19.1289L24.9426 19.8736L24.9433 19.8737L25.0312 19.1289ZM22.5586 18.4375L22.2077 19.1004L22.2138 19.1036L22.5586 18.4375ZM20.7305 16.9492L20.16 17.4362L20.1635 17.4402L20.7305 16.9492ZM19.6055 14.9688L20.3241 14.754L20.3238 14.7532L19.6055 14.9688ZM19.1133 1.82031V1.07031C18.6991 1.07031 18.3633 1.4061 18.3633 1.82031H19.1133ZM24.4102 1.82031H25.1602C25.1602 1.4061 24.8244 1.07031 24.4102 1.07031V1.82031ZM25.1836 14.5117L24.6453 15.0341L24.6533 15.042L25.1836 14.5117ZM30.2812 2.57031H35.5781V1.07031H30.2812V2.57031ZM34.8281 1.82031V12.0625H36.3281V1.82031H34.8281ZM34.8281 12.0625C34.8281 12.9978 34.6809 13.8739 34.3905 14.6954L35.8048 15.1952C36.155 14.2043 36.3281 13.1584 36.3281 12.0625H34.8281ZM34.3893 14.6989C34.1144 15.4893 33.6796 16.1816 33.079 16.7822L34.1397 17.8428C34.8985 17.084 35.456 16.1982 35.806 15.1917L34.3893 14.6989ZM33.079 16.7822C32.4687 17.3925 31.8509 17.7976 31.229 18.0267L31.7476 19.4342C32.61 19.1165 33.4063 18.5762 34.1397 17.8428L33.079 16.7822ZM31.2273 18.0273C30.3012 18.3711 29.1561 18.5547 27.7734 18.5547V20.0547C29.2814 20.0547 30.6129 19.8554 31.7493 19.4336L31.2273 18.0273ZM27.7734 18.5547C26.9719 18.5547 26.0876 18.4985 25.1192 18.3841L24.9433 19.8737C25.9592 19.9937 26.9031 20.0547 27.7734 20.0547V18.5547ZM25.1199 18.3842C24.1975 18.2744 23.4661 18.0628 22.9034 17.7714L22.2138 19.1036C22.9792 19.4997 23.8963 19.7491 24.9426 19.8736L25.1199 18.3842ZM22.9095 17.7747C22.3373 17.4717 21.7991 17.0376 21.2975 16.4583L20.1635 17.4402C20.7712 18.142 21.4518 18.7001 22.2077 19.1003L22.9095 17.7747ZM21.3009 16.4623C20.8093 15.8864 20.4922 15.3167 20.3241 14.754L18.8869 15.1835C19.125 15.9802 19.5579 16.7308 20.16 17.4362L21.3009 16.4623ZM20.3238 14.7532C20.0098 13.7065 19.8633 12.8127 19.8633 12.0625H18.3633C18.3633 12.9998 18.5449 14.0435 18.8871 15.1843L20.3238 14.7532ZM19.8633 12.0625V1.82031H18.3633V12.0625H19.8633ZM19.1133 2.57031H24.4102V1.07031H19.1133V2.57031ZM23.6602 1.82031V12.3086H25.1602V1.82031H23.6602ZM23.6602 12.3086C23.6602 13.3868 23.9603 14.3282 24.6454 15.0341L25.7218 13.9894C25.3757 13.6328 25.1602 13.1054 25.1602 12.3086H23.6602ZM24.6533 15.042C25.3501 15.7389 26.2824 16.0469 27.3516 16.0469V14.5469C26.577 14.5469 26.064 14.3315 25.7139 13.9814L24.6533 15.042ZM27.3516 16.0469C28.4113 16.0469 29.3365 15.7437 30.0264 15.0538L28.9658 13.9931C28.6244 14.3345 28.1199 14.5469 27.3516 14.5469V16.0469ZM30.0264 15.0538C30.7278 14.3524 31.0312 13.4008 31.0312 12.3086H29.5312C29.5312 13.1226 29.3113 13.6476 28.9658 13.9931L30.0264 15.0538ZM31.0312 12.3086V1.82031H29.5312V12.3086H31.0312ZM38.168 13.3164L38.1211 12.5679C37.9196 12.5805 37.7317 12.6738 37.5999 12.8267C37.4681 12.9796 37.4035 13.1792 37.4207 13.3804L38.168 13.3164ZM43.2188 13L43.9622 12.9009C43.9101 12.5105 43.5649 12.2268 43.1719 12.2515L43.2188 13ZM43.8867 14.875L43.2959 15.3369L43.2972 15.3387L43.8867 14.875ZM47.9766 15.3906L48.4673 15.9578L48.4682 15.957L47.9766 15.3906ZM45.293 11.957L45.1284 12.6888L45.132 12.6895L45.293 11.957ZM40.3125 9.87109L40.8061 9.30638L40.8039 9.30447L40.3125 9.87109ZM39.5742 4.05859L38.9464 3.64832L38.9454 3.64985L39.5742 4.05859ZM41.8828 2.20703L42.1821 2.89475L42.1845 2.89367L41.8828 2.20703ZM51.1289 2.75781L50.693 3.36813L50.6977 3.37146L51.1289 2.75781ZM53.1914 6.64844L53.2352 7.39716C53.4421 7.38505 53.6347 7.2879 53.7674 7.12876C53.9001 6.96962 53.9611 6.76268 53.9358 6.55702L53.1914 6.64844ZM48.1875 6.94141L47.4483 7.06834C47.513 7.44473 47.8501 7.71245 48.2313 7.69012L48.1875 6.94141ZM47.3438 5.25391L46.8636 5.8301L46.8688 5.83437L47.3438 5.25391ZM44.1914 5.125L44.6687 5.70359L44.6771 5.69645L44.1914 5.125ZM44.1094 6.8125L44.613 6.25676C44.607 6.25128 44.6008 6.2459 44.5946 6.24062L44.1094 6.8125ZM45.8906 7.44531L46.0486 6.71212L46.0436 6.71108L45.8906 7.44531ZM50.8711 8.96875L50.5274 9.63538L50.5336 9.63853L50.8711 8.96875ZM53.0625 10.8672L52.4188 11.2521L52.4217 11.2569L53.0625 10.8672ZM50.2852 18.5781L50.5847 19.2657L50.5889 19.2639L50.2852 18.5781ZM38.2149 14.0649L43.2656 13.7485L43.1719 12.2515L38.1211 12.5679L38.2149 14.0649ZM42.4753 13.0991C42.5939 13.9886 42.8457 14.7612 43.2959 15.3369L44.4776 14.4131C44.2558 14.1294 44.0623 13.652 43.9622 12.9009L42.4753 13.0991ZM43.2972 15.3387C44.0085 16.243 45.0233 16.668 46.2305 16.668V15.168C45.4064 15.168 44.8587 14.8976 44.4762 14.4113L43.2972 15.3387ZM46.2305 16.668C47.0952 16.668 47.878 16.4677 48.4673 15.9578L47.4858 14.8235C47.2626 15.0166 46.8814 15.168 46.2305 15.168V16.668ZM48.4682 15.957C49.0156 15.4819 49.3477 14.8722 49.3477 14.1484H47.8477C47.8477 14.3622 47.7656 14.5806 47.485 14.8242L48.4682 15.957ZM49.3477 14.1484C49.3477 13.4519 49.0309 12.8614 48.5134 12.3957L47.51 13.5106C47.7737 13.748 47.8477 13.9543 47.8477 14.1484H49.3477ZM48.5134 12.3957C48.2103 12.1228 47.7777 11.9123 47.2971 11.7362C46.8007 11.5543 46.1831 11.3848 45.454 11.2245L45.132 12.6895C45.8247 12.8418 46.3712 12.9945 46.7811 13.1447C47.2067 13.3006 47.4225 13.4319 47.51 13.5106L48.5134 12.3957ZM45.4575 11.2253C43.1672 10.7104 41.6556 10.0489 40.8061 9.30639L39.8189 10.4358C40.9537 11.4276 42.7625 12.1568 45.1285 12.6888L45.4575 11.2253ZM40.8039 9.30447C39.971 8.58221 39.5625 7.6848 39.5625 6.55469H38.0625C38.0625 8.11207 38.654 9.4256 39.8211 10.4377L40.8039 9.30447ZM39.5625 6.55469C39.5625 5.82521 39.7697 5.13402 40.2031 4.46733L38.9454 3.64985C38.3631 4.54567 38.0625 5.51854 38.0625 6.55469H39.5625ZM40.2021 4.46886C40.6238 3.82349 41.2677 3.29259 42.182 2.89475L41.5836 1.51931C40.451 2.0121 39.5559 2.71558 38.9464 3.64832L40.2021 4.46886ZM42.1845 2.89367C43.0811 2.4997 44.3738 2.27734 46.1133 2.27734V0.777344C44.2746 0.777344 42.747 1.00811 41.5811 1.52039L42.1845 2.89367ZM46.1133 2.27734C48.2332 2.27734 49.7247 2.67647 50.693 3.36811L51.5648 2.14751C50.2363 1.19853 48.384 0.777344 46.1133 0.777344V2.27734ZM50.6977 3.37146C51.636 4.03079 52.2467 5.10844 52.447 6.73986L53.9358 6.55702C53.6987 4.62593 52.9343 3.10984 51.5601 2.14417L50.6977 3.37146ZM53.1476 5.89972L48.1437 6.19269L48.2313 7.69012L53.2352 7.39716L53.1476 5.89972ZM48.9267 6.81448C48.7758 5.93591 48.4365 5.17889 47.8187 4.67344L46.8688 5.83437C47.1104 6.03204 47.3336 6.40002 47.4483 7.06834L48.9267 6.81448ZM47.8239 4.67774C47.2251 4.17875 46.4474 3.97656 45.5859 3.97656V5.47656C46.2245 5.47656 46.6187 5.62594 46.8636 5.83007L47.8239 4.67774ZM45.5859 3.97656C44.8774 3.97656 44.2077 4.12681 43.7057 4.55355L44.6771 5.69645C44.8001 5.59194 45.0601 5.47656 45.5859 5.47656V3.97656ZM43.7141 4.54647C43.2447 4.93371 42.9727 5.45561 42.9727 6.07422H44.4727C44.4727 5.94283 44.5131 5.83192 44.6687 5.70353L43.7141 4.54647ZM42.9727 6.07422C42.9727 6.61895 43.2416 7.05984 43.6241 7.38438L44.5946 6.24062C44.5237 6.18047 44.4948 6.1371 44.4837 6.11586C44.4746 6.0984 44.4727 6.08772 44.4727 6.07422H42.9727ZM43.6057 7.36824C43.8429 7.58316 44.1677 7.73247 44.4911 7.84735C44.8319 7.96843 45.2508 8.07812 45.7377 8.17955L46.0436 6.71108C45.5929 6.61719 45.2462 6.52376 44.9933 6.4339C44.8674 6.38918 44.7737 6.34847 44.7066 6.31368C44.6371 6.27764 44.6126 6.25642 44.613 6.25676L43.6057 7.36824ZM45.7326 8.17848C48.0433 8.67641 49.6209 9.16796 50.5274 9.63535L51.2148 8.30215C50.1213 7.73829 48.3785 7.21421 46.0486 6.71214L45.7326 8.17848ZM50.5336 9.63853C51.4494 10.0999 52.0564 10.6461 52.4188 11.2521L53.7062 10.4823C53.1623 9.57268 52.3085 8.85318 51.2086 8.29897L50.5336 9.63853ZM52.4217 11.2569C52.8071 11.8905 53.0039 12.602 53.0039 13.4102H54.5039C54.5039 12.3434 54.2398 11.3595 53.7033 10.4774L52.4217 11.2569ZM53.0039 13.4102C53.0039 14.3642 52.7427 15.2372 52.2126 16.0459L53.4671 16.8682C54.1558 15.8175 54.5039 14.6592 54.5039 13.4102H53.0039ZM52.2126 16.0459C51.6884 16.8455 50.9537 17.4618 49.9815 17.8924L50.5889 19.2639C51.8041 18.7257 52.7725 17.9279 53.4671 16.8682L52.2126 16.0459ZM49.9856 17.8906C49.0158 18.3131 47.7474 18.543 46.1484 18.543V20.043C47.8776 20.043 49.367 19.7963 50.5847 19.2657L49.9856 17.8906ZM46.1484 18.543C43.2749 18.543 41.5136 17.9803 40.6085 17.0751L39.5478 18.1358C40.8926 19.4806 43.1782 20.043 46.1484 20.043V18.543ZM40.6085 17.0751C39.6206 16.0872 39.0501 14.8284 38.9152 13.2525L37.4207 13.3804C37.5827 15.2731 38.2857 16.8737 39.5478 18.1358L40.6085 17.0751ZM56.4609 1.82031V1.07031C56.0467 1.07031 55.7109 1.4061 55.7109 1.82031H56.4609ZM61.7695 1.82031H62.5195C62.5195 1.4061 62.1837 1.07031 61.7695 1.07031V1.82031ZM61.7695 7.83203H61.0195C61.0195 8.24624 61.3553 8.58203 61.7695 8.58203V7.83203ZM67.5703 7.83203V8.58203C67.9845 8.58203 68.3203 8.24624 68.3203 7.83203H67.5703ZM67.5703 1.82031V1.07031C67.1561 1.07031 66.8203 1.4061 66.8203 1.82031H67.5703ZM72.9023 1.82031H73.6523C73.6523 1.4061 73.3166 1.07031 72.9023 1.07031V1.82031ZM72.9023 19V19.75C73.3166 19.75 73.6523 19.4142 73.6523 19H72.9023ZM67.5703 19H66.8203C66.8203 19.4142 67.1561 19.75 67.5703 19.75V19ZM67.5703 12.0508H68.3203C68.3203 11.6366 67.9845 11.3008 67.5703 11.3008V12.0508ZM61.7695 12.0508V11.3008C61.3553 11.3008 61.0195 11.6366 61.0195 12.0508H61.7695ZM61.7695 19V19.75C62.1837 19.75 62.5195 19.4142 62.5195 19H61.7695ZM56.4609 19H55.7109C55.7109 19.4142 56.0467 19.75 56.4609 19.75V19ZM56.4609 2.57031H61.7695V1.07031H56.4609V2.57031ZM61.0195 1.82031V7.83203H62.5195V1.82031H61.0195ZM61.7695 8.58203H67.5703V7.08203H61.7695V8.58203ZM68.3203 7.83203V1.82031H66.8203V7.83203H68.3203ZM67.5703 2.57031H72.9023V1.07031H67.5703V2.57031ZM72.1523 1.82031V19H73.6523V1.82031H72.1523ZM72.9023 18.25H67.5703V19.75H72.9023V18.25ZM68.3203 19V12.0508H66.8203V19H68.3203ZM67.5703 11.3008H61.7695V12.8008H67.5703V11.3008ZM61.0195 12.0508V19H62.5195V12.0508H61.0195ZM61.7695 18.25H56.4609V19.75H61.7695V18.25ZM57.2109 19V1.82031H55.7109V19H57.2109ZM76.6406 1.82031V1.07031C76.2264 1.07031 75.8906 1.4061 75.8906 1.82031H76.6406ZM81.9609 1.82031H82.7109C82.7109 1.4061 82.3752 1.07031 81.9609 1.07031V1.82031ZM81.9609 19V19.75C82.3752 19.75 82.7109 19.4142 82.7109 19H81.9609ZM76.6406 19H75.8906C75.8906 19.4142 76.2264 19.75 76.6406 19.75V19ZM76.6406 2.57031H81.9609V1.07031H76.6406V2.57031ZM81.2109 1.82031V19H82.7109V1.82031H81.2109ZM81.9609 18.25H76.6406V19.75H81.9609V18.25ZM77.3906 19V1.82031H75.8906V19H77.3906ZM84.8555 13.3164L84.8086 12.5679C84.6071 12.5805 84.4192 12.6738 84.2874 12.8267C84.1556 12.9796 84.091 13.1792 84.1082 13.3804L84.8555 13.3164ZM89.9062 13L90.6497 12.9009C90.5976 12.5105 90.2524 12.2268 89.8594 12.2515L89.9062 13ZM90.5742 14.875L89.9834 15.3369L89.9847 15.3387L90.5742 14.875ZM94.6641 15.3906L95.1548 15.9578L95.1557 15.957L94.6641 15.3906ZM91.9805 11.957L91.8159 12.6888L91.8195 12.6895L91.9805 11.957ZM87 9.87109L87.4936 9.30638L87.4914 9.30447L87 9.87109ZM86.2617 4.05859L85.6339 3.64832L85.6329 3.64985L86.2617 4.05859ZM88.5703 2.20703L88.8696 2.89475L88.872 2.89367L88.5703 2.20703ZM97.8164 2.75781L97.3805 3.36813L97.3852 3.37146L97.8164 2.75781ZM99.8789 6.64844L99.9227 7.39716C100.13 7.38505 100.322 7.2879 100.455 7.12876C100.588 6.96962 100.649 6.76268 100.623 6.55702L99.8789 6.64844ZM94.875 6.94141L94.1358 7.06834C94.2005 7.44473 94.5376 7.71245 94.9188 7.69012L94.875 6.94141ZM94.0312 5.25391L93.5511 5.8301L93.5563 5.83437L94.0312 5.25391ZM90.8789 5.125L91.3562 5.70359L91.3646 5.69645L90.8789 5.125ZM90.7969 6.8125L91.3005 6.25676C91.2945 6.25128 91.2883 6.2459 91.2821 6.24062L90.7969 6.8125ZM92.5781 7.44531L92.7361 6.71212L92.7311 6.71108L92.5781 7.44531ZM97.5586 8.96875L97.2149 9.63538L97.2211 9.63853L97.5586 8.96875ZM99.75 10.8672L99.1063 11.2521L99.1092 11.2569L99.75 10.8672ZM96.9727 18.5781L97.2722 19.2657L97.2764 19.2639L96.9727 18.5781ZM84.9024 14.0649L89.9531 13.7485L89.8594 12.2515L84.8086 12.5679L84.9024 14.0649ZM89.1628 13.0991C89.2814 13.9886 89.5332 14.7612 89.9834 15.3369L91.1651 14.4131C90.9433 14.1294 90.7498 13.652 90.6497 12.9009L89.1628 13.0991ZM89.9847 15.3387C90.696 16.243 91.7108 16.668 92.918 16.668V15.168C92.0939 15.168 91.5462 14.8976 91.1637 14.4113L89.9847 15.3387ZM92.918 16.668C93.7827 16.668 94.5655 16.4677 95.1548 15.9578L94.1733 14.8235C93.9501 15.0166 93.5689 15.168 92.918 15.168V16.668ZM95.1557 15.957C95.7031 15.4819 96.0352 14.8722 96.0352 14.1484H94.5352C94.5352 14.3622 94.4531 14.5806 94.1725 14.8242L95.1557 15.957ZM96.0352 14.1484C96.0352 13.4519 95.7184 12.8614 95.2009 12.3957L94.1975 13.5106C94.4612 13.748 94.5352 13.9543 94.5352 14.1484H96.0352ZM95.2009 12.3957C94.8978 12.1228 94.4651 11.9123 93.9846 11.7362C93.4882 11.5543 92.8706 11.3848 92.1415 11.2245L91.8195 12.6895C92.5122 12.8418 93.0587 12.9945 93.4686 13.1447C93.8942 13.3006 94.11 13.4319 94.1975 13.5106L95.2009 12.3957ZM92.145 11.2253C89.8547 10.7104 88.3431 10.0489 87.4936 9.30639L86.5064 10.4358C87.6412 11.4276 89.45 12.1568 91.8159 12.6888L92.145 11.2253ZM87.4914 9.30447C86.6585 8.58221 86.25 7.6848 86.25 6.55469H84.75C84.75 8.11207 85.3415 9.4256 86.5086 10.4377L87.4914 9.30447ZM86.25 6.55469C86.25 5.82521 86.4572 5.13402 86.8905 4.46733L85.6329 3.64985C85.0506 4.54567 84.75 5.51854 84.75 6.55469H86.25ZM86.8896 4.46886C87.3113 3.82349 87.9552 3.29259 88.8696 2.89475L88.2711 1.51931C87.1385 2.0121 86.2434 2.71558 85.6339 3.64832L86.8896 4.46886ZM88.872 2.89367C89.7686 2.4997 91.0613 2.27734 92.8008 2.27734V0.777344C90.9621 0.777344 89.4345 1.00811 88.2686 1.52039L88.872 2.89367ZM92.8008 2.27734C94.9207 2.27734 96.4122 2.67647 97.3805 3.36811L98.2523 2.14751C96.9238 1.19853 95.0715 0.777344 92.8008 0.777344V2.27734ZM97.3852 3.37146C98.3235 4.03079 98.9342 5.10844 99.1345 6.73986L100.623 6.55702C100.386 4.62593 99.6218 3.10984 98.2476 2.14417L97.3852 3.37146ZM99.8351 5.89972L94.8312 6.19269L94.9188 7.69012L99.9227 7.39716L99.8351 5.89972ZM95.6142 6.81448C95.4633 5.93591 95.124 5.17889 94.5062 4.67344L93.5563 5.83437C93.7979 6.03204 94.0211 6.40002 94.1358 7.06834L95.6142 6.81448ZM94.5114 4.67774C93.9126 4.17875 93.1349 3.97656 92.2734 3.97656V5.47656C92.912 5.47656 93.3062 5.62594 93.5511 5.83007L94.5114 4.67774ZM92.2734 3.97656C91.5649 3.97656 90.8952 4.12681 90.3932 4.55355L91.3646 5.69645C91.4876 5.59194 91.7476 5.47656 92.2734 5.47656V3.97656ZM90.4016 4.54647C89.9322 4.93371 89.6602 5.45561 89.6602 6.07422H91.1602C91.1602 5.94283 91.2006 5.83192 91.3562 5.70353L90.4016 4.54647ZM89.6602 6.07422C89.6602 6.61895 89.9291 7.05984 90.3116 7.38438L91.2821 6.24062C91.2112 6.18047 91.1823 6.1371 91.1712 6.11586C91.1621 6.0984 91.1602 6.08772 91.1602 6.07422H89.6602ZM90.2932 7.36824C90.5304 7.58316 90.8552 7.73247 91.1786 7.84735C91.5194 7.96843 91.9383 8.07812 92.4252 8.17955L92.7311 6.71108C92.2804 6.61719 91.9337 6.52376 91.6808 6.4339C91.5549 6.38918 91.4612 6.34847 91.3941 6.31368C91.3246 6.27764 91.3001 6.25642 91.3005 6.25676L90.2932 7.36824ZM92.4201 8.17848C94.7308 8.67641 96.3084 9.16796 97.2149 9.63535L97.9023 8.30215C96.8088 7.73829 95.066 7.21421 92.7361 6.71214L92.4201 8.17848ZM97.2211 9.63853C98.1368 10.0999 98.7439 10.6461 99.1063 11.2521L100.394 10.4823C99.8498 9.57268 98.996 8.85318 97.8961 8.29897L97.2211 9.63853ZM99.1092 11.2569C99.4946 11.8905 99.6914 12.602 99.6914 13.4102H101.191C101.191 12.3434 100.927 11.3595 100.391 10.4774L99.1092 11.2569ZM99.6914 13.4102C99.6914 14.3642 99.4302 15.2372 98.9001 16.0459L100.155 16.8682C100.843 15.8175 101.191 14.6592 101.191 13.4102H99.6914ZM98.9001 16.0459C98.3759 16.8455 97.6412 17.4618 96.669 17.8924L97.2764 19.2639C98.4916 18.7257 99.46 17.9279 100.155 16.8682L98.9001 16.0459ZM96.6731 17.8906C95.7033 18.3131 94.4349 18.543 92.8359 18.543V20.043C94.5651 20.043 96.0545 19.7963 97.2722 19.2657L96.6731 17.8906ZM92.8359 18.543C89.9624 18.543 88.2011 17.9803 87.296 17.0751L86.2353 18.1358C87.5801 19.4806 89.8657 20.043 92.8359 20.043V18.543ZM87.296 17.0751C86.3081 16.0872 85.7376 14.8284 85.6027 13.2525L84.1082 13.3804C84.2702 15.2731 84.9732 16.8737 86.2353 18.1358L87.296 17.0751ZM101.355 1.82031V1.07031C101.128 1.07031 100.913 1.17358 100.77 1.35106C100.628 1.52854 100.574 1.76103 100.623 1.98312L101.355 1.82031ZM106.395 1.82031L107.131 1.68085C107.064 1.3267 106.755 1.07031 106.395 1.07031V1.82031ZM108.211 11.418L107.474 11.5574C107.539 11.9002 107.832 12.153 108.18 12.1673C108.529 12.1817 108.841 11.9538 108.934 11.6175L108.211 11.418ZM110.859 1.82031V1.07031C110.522 1.07031 110.226 1.29558 110.136 1.62081L110.859 1.82031ZM115.887 1.82031L116.609 1.61999C116.519 1.29517 116.224 1.07031 115.887 1.07031V1.82031ZM118.547 11.418L117.824 11.6183C117.917 11.9543 118.23 12.1818 118.578 12.1673C118.927 12.1528 119.219 11.9001 119.284 11.5574L118.547 11.418ZM120.363 1.82031V1.07031C120.003 1.07031 119.693 1.3267 119.626 1.68085L120.363 1.82031ZM125.379 1.82031L126.111 1.98169C126.16 1.75976 126.106 1.52763 125.964 1.35049C125.821 1.17335 125.606 1.07031 125.379 1.07031V1.82031ZM121.594 19V19.75C121.946 19.75 122.25 19.5052 122.326 19.1614L121.594 19ZM116.391 19L115.668 19.2012C115.758 19.5256 116.054 19.75 116.391 19.75V19ZM113.379 8.18359L114.101 7.98242C114.011 7.65789 113.715 7.43342 113.379 7.43359C113.042 7.43376 112.746 7.65852 112.656 7.98314L113.379 8.18359ZM110.379 19V19.75C110.716 19.75 111.012 19.5252 111.102 19.2005L110.379 19ZM105.176 19L104.444 19.1628C104.52 19.5059 104.824 19.75 105.176 19.75V19ZM101.355 2.57031H106.395V1.07031H101.355V2.57031ZM105.658 1.95978L107.474 11.5574L108.948 11.2785L107.131 1.68085L105.658 1.95978ZM108.934 11.6175L111.582 2.01982L110.136 1.62081L107.488 11.2185L108.934 11.6175ZM110.859 2.57031H115.887V1.07031H110.859V2.57031ZM115.164 2.02064L117.824 11.6183L119.27 11.2176L116.609 1.61999L115.164 2.02064ZM119.284 11.5574L121.1 1.95978L119.626 1.68085L117.81 11.2785L119.284 11.5574ZM120.363 2.57031H125.379V1.07031H120.363V2.57031ZM124.646 1.65894L120.861 18.8386L122.326 19.1614L126.111 1.98169L124.646 1.65894ZM121.594 18.25H116.391V19.75H121.594V18.25ZM117.113 18.7988L114.101 7.98242L112.656 8.38477L115.668 19.2012L117.113 18.7988ZM112.656 7.98314L109.656 18.7995L111.102 19.2005L114.102 8.38404L112.656 7.98314ZM110.379 18.25H105.176V19.75H110.379V18.25ZM105.908 18.8372L102.088 1.65751L100.623 1.98312L104.444 19.1628L105.908 18.8372ZM137.695 16.1641L138.414 15.9502C138.32 15.6321 138.027 15.4141 137.695 15.4141V16.1641ZM131.648 16.1641V15.4141C131.316 15.4141 131.022 15.6335 130.929 15.9529L131.648 16.1641ZM130.816 19V19.75C131.149 19.75 131.442 19.5306 131.536 19.2111L130.816 19ZM125.391 19L124.689 18.7361C124.602 18.9665 124.634 19.2247 124.774 19.427C124.914 19.6293 125.145 19.75 125.391 19.75V19ZM131.848 1.82031V1.07031C131.535 1.07031 131.256 1.26399 131.146 1.55645L131.848 1.82031ZM137.637 1.82031L138.339 1.55645C138.229 1.26399 137.949 1.07031 137.637 1.07031V1.82031ZM144.094 19V19.75C144.34 19.75 144.57 19.6293 144.71 19.427C144.85 19.2247 144.882 18.9665 144.796 18.7361L144.094 19ZM138.539 19L137.82 19.2139C137.915 19.5319 138.207 19.75 138.539 19.75V19ZM136.582 12.4492V13.1992C136.82 13.1992 137.044 13.0863 137.185 12.8949C137.327 12.7035 137.369 12.4563 137.299 12.2288L136.582 12.4492ZM134.684 6.27344L135.4 6.05306C135.304 5.73804 135.013 5.52315 134.683 5.52344C134.353 5.52372 134.063 5.73912 133.966 6.05431L134.684 6.27344ZM132.797 12.4492L132.08 12.2301C132.01 12.4575 132.053 12.7043 132.194 12.8954C132.335 13.0865 132.559 13.1992 132.797 13.1992V12.4492ZM137.695 15.4141H131.648V16.9141H137.695V15.4141ZM130.929 15.9529L130.097 18.7889L131.536 19.2111L132.368 16.3752L130.929 15.9529ZM130.816 18.25H125.391V19.75H130.816V18.25ZM126.093 19.2639L132.55 2.08418L131.146 1.55645L124.689 18.7361L126.093 19.2639ZM131.848 2.57031H137.637V1.07031H131.848V2.57031ZM136.935 2.08418L143.392 19.2639L144.796 18.7361L138.339 1.55645L136.935 2.08418ZM144.094 18.25H138.539V19.75H144.094V18.25ZM139.258 18.7861L138.414 15.9502L136.976 16.3779L137.82 19.2139L139.258 18.7861ZM137.299 12.2288L135.4 6.05306L133.967 6.49381L135.865 12.6696L137.299 12.2288ZM133.966 6.05431L132.08 12.2301L133.514 12.6683L135.401 6.49257L133.966 6.05431ZM132.797 13.1992H136.582V11.6992H132.797V13.1992ZM145.781 1.82031V1.07031C145.367 1.07031 145.031 1.4061 145.031 1.82031H145.781ZM158.918 3.19141L158.399 3.73272L158.401 3.73483L158.918 3.19141ZM158.789 11.1602L158.277 10.6117L158.275 10.6136L158.789 11.1602ZM151.113 12.625V11.875C150.699 11.875 150.363 12.2108 150.363 12.625H151.113ZM151.113 19V19.75C151.527 19.75 151.863 19.4142 151.863 19H151.113ZM145.781 19H145.031C145.031 19.4142 145.367 19.75 145.781 19.75V19ZM151.113 9.14453H150.363C150.363 9.55874 150.699 9.89453 151.113 9.89453V9.14453ZM154.57 8.61719L155.056 9.18894L155.062 9.1836L154.57 8.61719ZM151.113 5.3125V4.5625C150.699 4.5625 150.363 4.89829 150.363 5.3125H151.113ZM145.781 2.57031H154.605V1.07031H145.781V2.57031ZM154.605 2.57031C156.421 2.57031 157.638 3.0029 158.399 3.73271L159.437 2.6501C158.292 1.55179 156.633 1.07031 154.605 1.07031V2.57031ZM158.401 3.73483C159.175 4.47111 159.609 5.55245 159.609 7.09375H161.109C161.109 5.26005 160.583 3.73983 159.435 2.64799L158.401 3.73483ZM159.609 7.09375C159.609 8.66762 159.141 9.80643 158.277 10.6117L159.301 11.7086C160.531 10.5608 161.109 8.98863 161.109 7.09375H159.609ZM158.275 10.6136C157.431 11.407 156.063 11.875 154.02 11.875V13.375C156.257 13.375 158.069 12.8664 159.303 11.7067L158.275 10.6136ZM154.02 11.875H151.113V13.375H154.02V11.875ZM150.363 12.625V19H151.863V12.625H150.363ZM151.113 18.25H145.781V19.75H151.113V18.25ZM146.531 19V1.82031H145.031V19H146.531ZM151.113 9.89453H152.414V8.39453H151.113V9.89453ZM152.414 9.89453C153.478 9.89453 154.429 9.72092 155.056 9.18891L154.085 8.04547C153.883 8.21658 153.397 8.39453 152.414 8.39453V9.89453ZM155.062 9.1836C155.642 8.67987 155.941 8.01518 155.941 7.24609H154.441C154.441 7.58638 154.326 7.83576 154.079 8.05077L155.062 9.1836ZM155.941 7.24609C155.941 6.52176 155.693 5.87645 155.194 5.35607L154.111 6.39393C154.331 6.62355 154.441 6.8923 154.441 7.24609H155.941ZM155.194 5.35607C154.609 4.74578 153.655 4.5625 152.625 4.5625V6.0625C153.579 6.0625 153.977 6.25422 154.111 6.39393L155.194 5.35607ZM152.625 4.5625H151.113V6.0625H152.625V4.5625ZM150.363 5.3125V9.14453H151.863V5.3125H150.363Z" fill="#1D1D1B"/>
</svg>
