<svg width="106" height="21" viewBox="0 0 106 21" fill="none" xmlns="http://www.w3.org/2000/svg">
<path d="M10.3945 12.7773V9.20312H18.5977V16.5273C17.0273 17.5977 15.6367 18.3281 14.4258 18.7188C13.2227 19.1016 11.793 19.293 10.1367 19.293C8.09766 19.293 6.43359 18.9453 5.14453 18.25C3.86328 17.5547 2.86719 16.5195 2.15625 15.1445C1.45312 13.7695 1.10156 12.1914 1.10156 10.4102C1.10156 8.53516 1.48828 6.90625 2.26172 5.52344C3.03516 4.13281 4.16797 3.07812 5.66016 2.35938C6.82422 1.80469 8.39062 1.52734 10.3594 1.52734C12.2578 1.52734 13.6758 1.69922 14.6133 2.04297C15.5586 2.38672 16.3398 2.92188 16.957 3.64844C17.582 4.36719 18.0508 5.28125 18.3633 6.39062L13.2422 7.30469C13.0312 6.65625 12.6719 6.16016 12.1641 5.81641C11.6641 5.47266 11.0234 5.30078 10.2422 5.30078C9.07812 5.30078 8.14844 5.70703 7.45312 6.51953C6.76562 7.32422 6.42188 8.60156 6.42188 10.3516C6.42188 12.2109 6.76953 13.5391 7.46484 14.3359C8.16797 15.1328 9.14453 15.5312 10.3945 15.5312C10.9883 15.5312 11.5547 15.4453 12.0938 15.2734C12.6328 15.1016 13.25 14.8086 13.9453 14.3945V12.7773H10.3945ZM21.9609 1.82031H27.2812V19H21.9609V1.82031ZM29.8945 1.82031H46.0312V6.0625H40.6172V19H35.3086V6.0625H29.8945V1.82031ZM48.4688 1.82031H53.7773V7.83203H59.5781V1.82031H64.9102V19H59.5781V12.0508H53.7773V19H48.4688V1.82031ZM79.6172 1.82031H84.9141V12.0625C84.9141 13.0781 84.7539 14.0391 84.4336 14.9453C84.1211 15.8438 83.625 16.6328 82.9453 17.3125C82.2734 17.9844 81.5664 18.457 80.8242 18.7305C79.793 19.1133 78.5547 19.3047 77.1094 19.3047C76.2734 19.3047 75.3594 19.2461 74.3672 19.1289C73.3828 19.0117 72.5586 18.7812 71.8945 18.4375C71.2305 18.0859 70.6211 17.5898 70.0664 16.9492C69.5195 16.3086 69.1445 15.6484 68.9414 14.9688C68.6133 13.875 68.4492 12.9062 68.4492 12.0625V1.82031H73.7461V12.3086C73.7461 13.2461 74.0039 13.9805 74.5195 14.5117C75.043 15.0352 75.7656 15.2969 76.6875 15.2969C77.6016 15.2969 78.3164 15.0391 78.832 14.5234C79.3555 14 79.6172 13.2617 79.6172 12.3086V1.82031ZM88.4414 1.82031H98.3789C100.035 1.82031 101.305 2.23047 102.188 3.05078C103.078 3.87109 103.523 4.88672 103.523 6.09766C103.523 7.11328 103.207 7.98438 102.574 8.71094C102.152 9.19531 101.535 9.57812 100.723 9.85938C101.957 10.1562 102.863 10.668 103.441 11.3945C104.027 12.1133 104.32 13.0195 104.32 14.1133C104.32 15.0039 104.113 15.8047 103.699 16.5156C103.285 17.2266 102.719 17.7891 102 18.2031C101.555 18.4609 100.883 18.6484 99.9844 18.7656C98.7891 18.9219 97.9961 19 97.6055 19H88.4414V1.82031ZM93.7969 8.55859H96.1055C96.9336 8.55859 97.5078 8.41797 97.8281 8.13672C98.1562 7.84766 98.3203 7.43359 98.3203 6.89453C98.3203 6.39453 98.1562 6.00391 97.8281 5.72266C97.5078 5.44141 96.9453 5.30078 96.1406 5.30078H93.7969V8.55859ZM93.7969 15.3086H96.5039C97.418 15.3086 98.0625 15.1484 98.4375 14.8281C98.8125 14.5 99 14.0625 99 13.5156C99 13.0078 98.8125 12.6016 98.4375 12.2969C98.0703 11.9844 97.4219 11.8281 96.4922 11.8281H93.7969V15.3086Z" fill="#F68B38"/>
<path d="M10.3945 12.7773H9.64453C9.64453 13.1916 9.98032 13.5273 10.3945 13.5273V12.7773ZM10.3945 9.20312V8.45312C9.98032 8.45312 9.64453 8.78891 9.64453 9.20312H10.3945ZM18.5977 9.20312H19.3477C19.3477 8.78891 19.0119 8.45312 18.5977 8.45312V9.20312ZM18.5977 16.5273L19.0201 17.1471C19.225 17.0074 19.3477 16.7754 19.3477 16.5273H18.5977ZM14.4258 18.7188L14.6532 19.4335L14.656 19.4325L14.4258 18.7188ZM5.14453 18.25L4.7868 18.9092L4.78848 18.9101L5.14453 18.25ZM2.15625 15.1445L1.48849 15.486L1.49003 15.489L2.15625 15.1445ZM2.26172 5.52344L2.91629 5.88955L2.91716 5.88798L2.26172 5.52344ZM5.66016 2.35938L5.33753 1.68231L5.33469 1.68367L5.66016 2.35938ZM14.6133 2.04297L14.3551 2.74713L14.357 2.74781L14.6133 2.04297ZM16.957 3.64844L16.3854 4.13403L16.3911 4.14057L16.957 3.64844ZM18.3633 6.39062L18.4951 7.12896C18.7034 7.09176 18.8864 6.96825 18.9988 6.78889C19.1112 6.60952 19.1426 6.39101 19.0852 6.18727L18.3633 6.39062ZM13.2422 7.30469L12.529 7.5367C12.6448 7.89272 13.0054 8.1088 13.374 8.04302L13.2422 7.30469ZM12.1641 5.81641L11.7392 6.43445L11.7436 6.43749L12.1641 5.81641ZM7.45312 6.51953L6.8833 6.03189L6.8829 6.03235L7.45312 6.51953ZM7.46484 14.3359L6.89972 14.829L6.90247 14.8322L7.46484 14.3359ZM13.9453 14.3945L14.3291 15.0389C14.5562 14.9037 14.6953 14.6589 14.6953 14.3945H13.9453ZM13.9453 12.7773H14.6953C14.6953 12.3631 14.3595 12.0273 13.9453 12.0273V12.7773ZM11.1445 12.7773V9.20312H9.64453V12.7773H11.1445ZM10.3945 9.95312H18.5977V8.45312H10.3945V9.95312ZM17.8477 9.20312V16.5273H19.3477V9.20312H17.8477ZM18.1752 15.9076C16.638 16.9554 15.3135 17.6443 14.1955 18.005L14.656 19.4325C15.9599 19.0119 17.4167 18.2399 19.0201 17.1471L18.1752 15.9076ZM14.1984 18.0041C13.0876 18.3575 11.7384 18.543 10.1367 18.543V20.043C11.8475 20.043 13.3577 19.8456 14.6532 19.4334L14.1984 18.0041ZM10.1367 18.543C8.1758 18.543 6.64578 18.2076 5.50058 17.5899L4.78848 18.9101C6.22141 19.683 8.01951 20.043 10.1367 20.043V18.543ZM5.50226 17.5908C4.36139 16.9717 3.46891 16.0503 2.82247 14.8001L1.49003 15.489C2.26547 16.9887 3.36518 18.1377 4.7868 18.9092L5.50226 17.5908ZM2.82401 14.8031C2.18269 13.5489 1.85156 12.091 1.85156 10.4102H0.351562C0.351562 12.2919 0.723564 13.9901 1.48849 15.486L2.82401 14.8031ZM1.85156 10.4102C1.85156 8.63977 2.216 7.14157 2.91629 5.88955L1.60715 5.15732C0.760558 6.67093 0.351562 8.43054 0.351562 10.4102H1.85156ZM2.91716 5.88798C3.61215 4.63841 4.62684 3.68957 5.98562 3.03508L5.33469 1.68367C3.7091 2.46668 2.45816 3.62722 1.60627 5.15889L2.91716 5.88798ZM5.98278 3.03644C7.00704 2.54837 8.44896 2.27734 10.3594 2.27734V0.777344C8.33229 0.777344 6.6414 1.06101 5.33753 1.68231L5.98278 3.03644ZM10.3594 2.27734C12.2343 2.27734 13.5447 2.44997 14.3551 2.74713L14.8715 1.33881C13.8069 0.94847 12.2813 0.777344 10.3594 0.777344V2.27734ZM14.357 2.74781C15.1869 3.04962 15.8572 3.51218 16.3854 4.134L17.5286 3.16288C16.8225 2.33157 15.9303 1.72382 14.8696 1.33812L14.357 2.74781ZM16.3911 4.14057C16.9298 4.76006 17.3527 5.56918 17.6414 6.59398L19.0852 6.18727C18.7489 4.99332 18.2343 3.97431 17.523 3.1563L16.3911 4.14057ZM18.2315 5.65229L13.1104 6.56636L13.374 8.04302L18.4951 7.12896L18.2315 5.65229ZM13.9554 7.07268C13.699 6.28437 13.246 5.64309 12.5845 5.19532L11.7436 6.43749C12.0978 6.67722 12.3635 7.02813 12.529 7.5367L13.9554 7.07268ZM12.589 5.19837C11.9324 4.74698 11.1317 4.55078 10.2422 4.55078V6.05078C10.9151 6.05078 11.3957 6.19833 11.7392 6.43444L12.589 5.19837ZM10.2422 4.55078C8.88091 4.55078 7.73477 5.03691 6.8833 6.03189L8.02295 7.00717C8.56211 6.37715 9.27534 6.05078 10.2422 6.05078V4.55078ZM6.8829 6.03235C6.02441 7.03717 5.67188 8.53127 5.67188 10.3516H7.17188C7.17188 8.67186 7.50684 7.61126 8.02335 7.00671L6.8829 6.03235ZM5.67188 10.3516C5.67188 12.2677 6.02309 13.8244 6.89973 14.829L8.02996 13.8428C7.51597 13.2538 7.17188 12.1541 7.17188 10.3516H5.67188ZM6.90247 14.8322C7.7734 15.8192 8.97103 16.2812 10.3945 16.2812V14.7812C9.31803 14.7812 8.56254 14.4464 8.02722 13.8397L6.90247 14.8322ZM10.3945 16.2812C11.0618 16.2812 11.7053 16.1845 12.3216 15.988L11.8659 14.5589C11.4041 14.7061 10.9148 14.7812 10.3945 14.7812V16.2812ZM12.3216 15.988C12.9329 15.7931 13.6037 15.4709 14.3291 15.0389L13.5616 13.7501C12.8963 14.1463 12.3328 14.41 11.8659 14.5589L12.3216 15.988ZM14.6953 14.3945V12.7773H13.1953V14.3945H14.6953ZM13.9453 12.0273H10.3945V13.5273H13.9453V12.0273ZM21.9609 1.82031V1.07031C21.5467 1.07031 21.2109 1.4061 21.2109 1.82031H21.9609ZM27.2812 1.82031H28.0312C28.0312 1.4061 27.6955 1.07031 27.2812 1.07031V1.82031ZM27.2812 19V19.75C27.6955 19.75 28.0312 19.4142 28.0312 19H27.2812ZM21.9609 19H21.2109C21.2109 19.4142 21.5467 19.75 21.9609 19.75V19ZM21.9609 2.57031H27.2812V1.07031H21.9609V2.57031ZM26.5312 1.82031V19H28.0312V1.82031H26.5312ZM27.2812 18.25H21.9609V19.75H27.2812V18.25ZM22.7109 19V1.82031H21.2109V19H22.7109ZM29.8945 1.82031V1.07031C29.4803 1.07031 29.1445 1.4061 29.1445 1.82031H29.8945ZM46.0312 1.82031H46.7812C46.7812 1.4061 46.4455 1.07031 46.0312 1.07031V1.82031ZM46.0312 6.0625V6.8125C46.4455 6.8125 46.7812 6.47671 46.7812 6.0625H46.0312ZM40.6172 6.0625V5.3125C40.203 5.3125 39.8672 5.64829 39.8672 6.0625H40.6172ZM40.6172 19V19.75C41.0314 19.75 41.3672 19.4142 41.3672 19H40.6172ZM35.3086 19H34.5586C34.5586 19.4142 34.8944 19.75 35.3086 19.75V19ZM35.3086 6.0625H36.0586C36.0586 5.64829 35.7228 5.3125 35.3086 5.3125V6.0625ZM29.8945 6.0625H29.1445C29.1445 6.47671 29.4803 6.8125 29.8945 6.8125V6.0625ZM29.8945 2.57031H46.0312V1.07031H29.8945V2.57031ZM45.2812 1.82031V6.0625H46.7812V1.82031H45.2812ZM46.0312 5.3125H40.6172V6.8125H46.0312V5.3125ZM39.8672 6.0625V19H41.3672V6.0625H39.8672ZM40.6172 18.25H35.3086V19.75H40.6172V18.25ZM36.0586 19V6.0625H34.5586V19H36.0586ZM35.3086 5.3125H29.8945V6.8125H35.3086V5.3125ZM30.6445 6.0625V1.82031H29.1445V6.0625H30.6445ZM48.4688 1.82031V1.07031C48.0545 1.07031 47.7188 1.4061 47.7188 1.82031H48.4688ZM53.7773 1.82031H54.5273C54.5273 1.4061 54.1916 1.07031 53.7773 1.07031V1.82031ZM53.7773 7.83203H53.0273C53.0273 8.24624 53.3631 8.58203 53.7773 8.58203V7.83203ZM59.5781 7.83203V8.58203C59.9923 8.58203 60.3281 8.24624 60.3281 7.83203H59.5781ZM59.5781 1.82031V1.07031C59.1639 1.07031 58.8281 1.4061 58.8281 1.82031H59.5781ZM64.9102 1.82031H65.6602C65.6602 1.4061 65.3244 1.07031 64.9102 1.07031V1.82031ZM64.9102 19V19.75C65.3244 19.75 65.6602 19.4142 65.6602 19H64.9102ZM59.5781 19H58.8281C58.8281 19.4142 59.1639 19.75 59.5781 19.75V19ZM59.5781 12.0508H60.3281C60.3281 11.6366 59.9923 11.3008 59.5781 11.3008V12.0508ZM53.7773 12.0508V11.3008C53.3631 11.3008 53.0273 11.6366 53.0273 12.0508H53.7773ZM53.7773 19V19.75C54.1916 19.75 54.5273 19.4142 54.5273 19H53.7773ZM48.4688 19H47.7188C47.7188 19.4142 48.0545 19.75 48.4688 19.75V19ZM48.4688 2.57031H53.7773V1.07031H48.4688V2.57031ZM53.0273 1.82031V7.83203H54.5273V1.82031H53.0273ZM53.7773 8.58203H59.5781V7.08203H53.7773V8.58203ZM60.3281 7.83203V1.82031H58.8281V7.83203H60.3281ZM59.5781 2.57031H64.9102V1.07031H59.5781V2.57031ZM64.1602 1.82031V19H65.6602V1.82031H64.1602ZM64.9102 18.25H59.5781V19.75H64.9102V18.25ZM60.3281 19V12.0508H58.8281V19H60.3281ZM59.5781 11.3008H53.7773V12.8008H59.5781V11.3008ZM53.0273 12.0508V19H54.5273V12.0508H53.0273ZM53.7773 18.25H48.4688V19.75H53.7773V18.25ZM49.2188 19V1.82031H47.7188V19H49.2188ZM79.6172 1.82031V1.07031C79.203 1.07031 78.8672 1.4061 78.8672 1.82031H79.6172ZM84.9141 1.82031H85.6641C85.6641 1.4061 85.3283 1.07031 84.9141 1.07031V1.82031ZM84.4336 14.9453L83.7265 14.6954L83.7252 14.6989L84.4336 14.9453ZM80.8242 18.7305L80.5649 18.0267L80.5632 18.0273L80.8242 18.7305ZM74.3672 19.1289L74.2785 19.8736L74.2792 19.8737L74.3672 19.1289ZM71.8945 18.4375L71.5436 19.1004L71.5498 19.1036L71.8945 18.4375ZM70.0664 16.9492L69.496 17.4362L69.4994 17.4402L70.0664 16.9492ZM68.9414 14.9688L69.66 14.754L69.6598 14.7532L68.9414 14.9688ZM68.4492 1.82031V1.07031C68.035 1.07031 67.6992 1.4061 67.6992 1.82031H68.4492ZM73.7461 1.82031H74.4961C74.4961 1.4061 74.1603 1.07031 73.7461 1.07031V1.82031ZM74.5195 14.5117L73.9813 15.0341L73.9892 15.042L74.5195 14.5117ZM79.6172 2.57031H84.9141V1.07031H79.6172V2.57031ZM84.1641 1.82031V12.0625H85.6641V1.82031H84.1641ZM84.1641 12.0625C84.1641 12.9978 84.0168 13.8739 83.7265 14.6954L85.1407 15.1952C85.491 14.2043 85.6641 13.1584 85.6641 12.0625H84.1641ZM83.7252 14.6989C83.4503 15.4893 83.0155 16.1816 82.415 16.7822L83.4756 17.8428C84.2345 17.084 84.7919 16.1982 85.142 15.1917L83.7252 14.6989ZM82.415 16.7822C81.8046 17.3925 81.1869 17.7976 80.5649 18.0267L81.0835 19.4342C81.9459 19.1165 82.7422 18.5762 83.4756 17.8428L82.415 16.7822ZM80.5632 18.0273C79.6371 18.3711 78.492 18.5547 77.1094 18.5547V20.0547C78.6174 20.0547 79.9488 19.8554 81.0852 19.4336L80.5632 18.0273ZM77.1094 18.5547C76.3078 18.5547 75.4236 18.4985 74.4552 18.3841L74.2792 19.8737C75.2952 19.9937 76.239 20.0547 77.1094 20.0547V18.5547ZM74.4558 18.3842C73.5334 18.2744 72.8021 18.0628 72.2393 17.7714L71.5498 19.1036C72.3151 19.4997 73.2322 19.7491 74.2785 19.8736L74.4558 18.3842ZM72.2454 17.7747C71.6732 17.4717 71.135 17.0376 70.6334 16.4583L69.4994 17.4402C70.1072 18.142 70.7877 18.7001 71.5436 19.1003L72.2454 17.7747ZM70.6368 16.4623C70.1452 15.8864 69.8282 15.3167 69.66 14.754L68.2228 15.1835C68.4609 15.9802 68.8938 16.7308 69.496 17.4362L70.6368 16.4623ZM69.6598 14.7532C69.3457 13.7065 69.1992 12.8127 69.1992 12.0625H67.6992C67.6992 12.9998 67.8808 14.0435 68.223 15.1843L69.6598 14.7532ZM69.1992 12.0625V1.82031H67.6992V12.0625H69.1992ZM68.4492 2.57031H73.7461V1.07031H68.4492V2.57031ZM72.9961 1.82031V12.3086H74.4961V1.82031H72.9961ZM72.9961 12.3086C72.9961 13.3868 73.2962 14.3282 73.9813 15.0341L75.0577 13.9894C74.7116 13.6328 74.4961 13.1054 74.4961 12.3086H72.9961ZM73.9892 15.042C74.686 15.7389 75.6183 16.0469 76.6875 16.0469V14.5469C75.9129 14.5469 75.3999 14.3315 75.0499 13.9814L73.9892 15.042ZM76.6875 16.0469C77.7473 16.0469 78.6725 15.7437 79.3624 15.0538L78.3017 13.9931C77.9604 14.3345 77.4559 14.5469 76.6875 14.5469V16.0469ZM79.3624 15.0538C80.0638 14.3524 80.3672 13.4008 80.3672 12.3086H78.8672C78.8672 13.1226 78.6472 13.6476 78.3017 13.9931L79.3624 15.0538ZM80.3672 12.3086V1.82031H78.8672V12.3086H80.3672ZM88.4414 1.82031V1.07031C88.0272 1.07031 87.6914 1.4061 87.6914 1.82031H88.4414ZM102.188 3.05078L101.677 3.60021L101.679 3.60244L102.188 3.05078ZM100.723 9.85938L100.477 9.15063C100.163 9.2596 99.9574 9.56311 99.9735 9.89582C99.9897 10.2285 100.223 10.5107 100.547 10.5886L100.723 9.85938ZM103.441 11.3945L102.854 11.8615L102.86 11.8684L103.441 11.3945ZM102 18.2031L101.626 17.5532L101.624 17.5541L102 18.2031ZM99.9844 18.7656L99.8874 18.0219L99.8872 18.022L99.9844 18.7656ZM88.4414 19H87.6914C87.6914 19.4142 88.0272 19.75 88.4414 19.75V19ZM93.7969 8.55859H93.0469C93.0469 8.97281 93.3827 9.30859 93.7969 9.30859V8.55859ZM97.8281 8.13672L98.323 8.7003L98.3239 8.69949L97.8281 8.13672ZM97.8281 5.72266L97.3332 6.28628L97.34 6.2921L97.8281 5.72266ZM93.7969 5.30078V4.55078C93.3827 4.55078 93.0469 4.88657 93.0469 5.30078H93.7969ZM93.7969 15.3086H93.0469C93.0469 15.7228 93.3827 16.0586 93.7969 16.0586V15.3086ZM98.4375 14.8281L98.9247 15.3984L98.9314 15.3926L98.4375 14.8281ZM98.4375 12.2969L97.9514 12.868C97.9557 12.8717 97.9601 12.8754 97.9646 12.879L98.4375 12.2969ZM93.7969 11.8281V11.0781C93.3827 11.0781 93.0469 11.4139 93.0469 11.8281H93.7969ZM88.4414 2.57031H98.3789V1.07031H88.4414V2.57031ZM98.3789 2.57031C99.9174 2.57031 100.978 2.95047 101.677 3.6002L102.698 2.50136C101.632 1.51047 100.153 1.07031 98.3789 1.07031V2.57031ZM101.679 3.60244C102.416 4.28073 102.773 5.09631 102.773 6.09766H104.273C104.273 4.67713 103.74 3.46145 102.696 2.49912L101.679 3.60244ZM102.773 6.09766C102.773 6.94287 102.516 7.63617 102.009 8.21835L103.14 9.20352C103.898 8.33258 104.273 7.28369 104.273 6.09766H102.773ZM102.009 8.21835C101.697 8.57603 101.206 8.89824 100.477 9.15063L100.968 10.5681C101.864 10.258 102.608 9.81459 103.14 9.20352L102.009 8.21835ZM100.547 10.5886C101.678 10.8606 102.413 11.3065 102.855 11.8615L104.028 10.9276C103.314 10.0295 102.236 9.45194 100.898 9.13017L100.547 10.5886ZM102.86 11.8684C103.318 12.4302 103.57 13.1598 103.57 14.1133H105.07C105.07 12.8792 104.737 11.7963 104.023 10.9206L102.86 11.8684ZM103.57 14.1133C103.57 14.8826 103.393 15.5512 103.051 16.1382L104.347 16.8931C104.834 16.0582 105.07 15.1252 105.07 14.1133H103.57ZM103.051 16.1382C102.704 16.735 102.232 17.204 101.626 17.5533L102.374 18.853C103.206 18.3741 103.867 17.7181 104.347 16.8931L103.051 16.1382ZM101.624 17.5541C101.307 17.7379 100.751 17.9093 99.8874 18.0219L100.081 19.5093C101.015 19.3876 101.803 19.1839 102.376 18.8522L101.624 17.5541ZM99.8872 18.022C98.6827 18.1794 97.9388 18.25 97.6055 18.25V19.75C98.0534 19.75 98.8955 19.6643 100.082 19.5093L99.8872 18.022ZM97.6055 18.25H88.4414V19.75H97.6055V18.25ZM89.1914 19V1.82031H87.6914V19H89.1914ZM93.7969 9.30859H96.1055V7.80859H93.7969V9.30859ZM96.1055 9.30859C96.9672 9.30859 97.785 9.1727 98.323 8.7003L97.3333 7.57314C97.2307 7.66323 96.9 7.80859 96.1055 7.80859V9.30859ZM98.3239 8.69949C98.8504 8.2357 99.0703 7.59468 99.0703 6.89453H97.5703C97.5703 7.2725 97.4621 7.45961 97.3324 7.57395L98.3239 8.69949ZM99.0703 6.89453C99.0703 6.21375 98.8375 5.60004 98.3162 5.15321L97.34 6.2921C97.475 6.40777 97.5703 6.57532 97.5703 6.89453H99.0703ZM98.323 5.15908C97.7876 4.68898 96.9857 4.55078 96.1406 4.55078V6.05078C96.905 6.05078 97.228 6.19383 97.3333 6.28624L98.323 5.15908ZM96.1406 4.55078H93.7969V6.05078H96.1406V4.55078ZM93.0469 5.30078V8.55859H94.5469V5.30078H93.0469ZM93.7969 16.0586H96.5039V14.5586H93.7969V16.0586ZM96.5039 16.0586C97.4622 16.0586 98.3382 15.8993 98.9246 15.3984L97.9504 14.2578C97.7868 14.3976 97.3737 14.5586 96.5039 14.5586V16.0586ZM98.9314 15.3926C99.4862 14.9071 99.75 14.2551 99.75 13.5156H98.25C98.25 13.8699 98.1388 14.0929 97.9436 14.2637L98.9314 15.3926ZM99.75 13.5156C99.75 12.7952 99.4708 12.1701 98.9104 11.7148L97.9646 12.879C98.1542 13.0331 98.25 13.2204 98.25 13.5156H99.75ZM98.9236 11.7257C98.3416 11.2304 97.4571 11.0781 96.4922 11.0781V12.5781C97.3867 12.5781 97.799 12.7383 97.9514 12.868L98.9236 11.7257ZM96.4922 11.0781H93.7969V12.5781H96.4922V11.0781ZM93.0469 11.8281V15.3086H94.5469V11.8281H93.0469Z" fill="#1D1D1B"/>
</svg>
