<svg width="121" height="21" viewBox="0 0 121 21" fill="none" xmlns="http://www.w3.org/2000/svg">
<path d="M0.828125 1.82031H8.71484C10.2695 1.82031 11.5234 2.03125 12.4766 2.45312C13.4375 2.875 14.2305 3.48047 14.8555 4.26953C15.4805 5.05859 15.9336 5.97656 16.2148 7.02344C16.4961 8.07031 16.6367 9.17969 16.6367 10.3516C16.6367 12.1875 16.4258 13.6133 16.0039 14.6289C15.5898 15.6367 15.0117 16.4844 14.2695 17.1719C13.5273 17.8516 12.7305 18.3047 11.8789 18.5312C10.7148 18.8438 9.66016 19 8.71484 19H0.828125V1.82031ZM6.13672 5.71094V15.0977H7.4375C8.54688 15.0977 9.33594 14.9766 9.80469 14.7344C10.2734 14.4844 10.6406 14.0547 10.9062 13.4453C11.1719 12.8281 11.3047 11.832 11.3047 10.457C11.3047 8.63672 11.0078 7.39062 10.4141 6.71875C9.82031 6.04688 8.83594 5.71094 7.46094 5.71094H6.13672ZM19.6484 1.82031H24.9688V19H19.6484V1.82031ZM27.8633 13.3164L32.9141 13C33.0234 13.8203 33.2461 14.4453 33.582 14.875C34.1289 15.5703 34.9102 15.918 35.9258 15.918C36.6836 15.918 37.2656 15.7422 37.6719 15.3906C38.0859 15.0312 38.293 14.6172 38.293 14.1484C38.293 13.7031 38.0977 13.3047 37.707 12.9531C37.3164 12.6016 36.4102 12.2695 34.9883 11.957C32.6602 11.4336 31 10.7383 30.0078 9.87109C29.0078 9.00391 28.5078 7.89844 28.5078 6.55469C28.5078 5.67188 28.7617 4.83984 29.2695 4.05859C29.7852 3.26953 30.5547 2.65234 31.5781 2.20703C32.6094 1.75391 34.0195 1.52734 35.8086 1.52734C38.0039 1.52734 39.6758 1.9375 40.8242 2.75781C41.9805 3.57031 42.668 4.86719 42.8867 6.64844L37.8828 6.94141C37.75 6.16797 37.4688 5.60547 37.0391 5.25391C36.6172 4.90234 36.0312 4.72656 35.2812 4.72656C34.6641 4.72656 34.1992 4.85938 33.8867 5.125C33.5742 5.38281 33.418 5.69922 33.418 6.07422C33.418 6.34766 33.5469 6.59375 33.8047 6.8125C34.0547 7.03906 34.6484 7.25 35.5859 7.44531C37.9062 7.94531 39.5664 8.45312 40.5664 8.96875C41.5742 9.47656 42.3047 10.1094 42.7578 10.8672C43.2188 11.625 43.4492 12.4727 43.4492 13.4102C43.4492 14.5117 43.1445 15.5273 42.5352 16.457C41.9258 17.3867 41.0742 18.0938 39.9805 18.5781C38.8867 19.0547 37.5078 19.293 35.8438 19.293C32.9219 19.293 30.8984 18.7305 29.7734 17.6055C28.6484 16.4805 28.0117 15.0508 27.8633 13.3164ZM57.5703 11.9805L62.2227 13.3867C61.9102 14.6914 61.418 15.7812 60.7461 16.6562C60.0742 17.5312 59.2383 18.1914 58.2383 18.6367C57.2461 19.082 55.9805 19.3047 54.4414 19.3047C52.5742 19.3047 51.0469 19.0352 49.8594 18.4961C48.6797 17.9492 47.6602 16.9922 46.8008 15.625C45.9414 14.2578 45.5117 12.5078 45.5117 10.375C45.5117 7.53125 46.2656 5.34766 47.7734 3.82422C49.2891 2.29297 51.4297 1.52734 54.1953 1.52734C56.3594 1.52734 58.0586 1.96484 59.293 2.83984C60.5352 3.71484 61.457 5.05859 62.0586 6.87109L57.3711 7.91406C57.207 7.39062 57.0352 7.00781 56.8555 6.76562C56.5586 6.35938 56.1953 6.04688 55.7656 5.82812C55.3359 5.60938 54.8555 5.5 54.3242 5.5C53.1211 5.5 52.1992 5.98438 51.5586 6.95312C51.0742 7.67188 50.832 8.80078 50.832 10.3398C50.832 12.2461 51.1211 13.5547 51.6992 14.2656C52.2773 14.9688 53.0898 15.3203 54.1367 15.3203C55.1523 15.3203 55.918 15.0352 56.4336 14.4648C56.957 13.8945 57.3359 13.0664 57.5703 11.9805ZM64.1445 10.4219C64.1445 7.61719 64.9258 5.43359 66.4883 3.87109C68.0508 2.30859 70.2266 1.52734 73.0156 1.52734C75.875 1.52734 78.0781 2.29688 79.625 3.83594C81.1719 5.36719 81.9453 7.51562 81.9453 10.2812C81.9453 12.2891 81.6055 13.9375 80.9258 15.2266C80.2539 16.5078 79.2773 17.5078 77.9961 18.2266C76.7227 18.9375 75.1328 19.293 73.2266 19.293C71.2891 19.293 69.6836 18.9844 68.4102 18.3672C67.1445 17.75 66.1172 16.7734 65.3281 15.4375C64.5391 14.1016 64.1445 12.4297 64.1445 10.4219ZM69.4531 10.4453C69.4531 12.1797 69.7734 13.4258 70.4141 14.1836C71.0625 14.9414 71.9414 15.3203 73.0508 15.3203C74.1914 15.3203 75.0742 14.9492 75.6992 14.207C76.3242 13.4648 76.6367 12.1328 76.6367 10.2109C76.6367 8.59375 76.3086 7.41406 75.6523 6.67188C75.0039 5.92188 74.1211 5.54688 73.0039 5.54688C71.9336 5.54688 71.0742 5.92578 70.4258 6.68359C69.7773 7.44141 69.4531 8.69531 69.4531 10.4453ZM84.875 19V1.82031H93.7227C95.3633 1.82031 96.6172 1.96094 97.4844 2.24219C98.3516 2.52344 99.0508 3.04688 99.582 3.8125C100.113 4.57031 100.379 5.49609 100.379 6.58984C100.379 7.54297 100.176 8.36719 99.7695 9.0625C99.3633 9.75 98.8047 10.3086 98.0938 10.7383C97.6406 11.0117 97.0195 11.2383 96.2305 11.418C96.8633 11.6289 97.3242 11.8398 97.6133 12.0508C97.8086 12.1914 98.0898 12.4922 98.457 12.9531C98.832 13.4141 99.082 13.7695 99.207 14.0195L101.773 19H95.7734L92.9375 13.75C92.5781 13.0703 92.2578 12.6289 91.9766 12.4258C91.5938 12.1602 91.1602 12.0273 90.6758 12.0273H90.207V19H84.875ZM90.207 8.78125H92.4453C92.6875 8.78125 93.1562 8.70312 93.8516 8.54688C94.2031 8.47656 94.4883 8.29688 94.707 8.00781C94.9336 7.71875 95.0469 7.38672 95.0469 7.01172C95.0469 6.45703 94.8711 6.03125 94.5195 5.73438C94.168 5.4375 93.5078 5.28906 92.5391 5.28906H90.207V8.78125ZM103.555 1.82031H111.441C112.996 1.82031 114.25 2.03125 115.203 2.45312C116.164 2.875 116.957 3.48047 117.582 4.26953C118.207 5.05859 118.66 5.97656 118.941 7.02344C119.223 8.07031 119.363 9.17969 119.363 10.3516C119.363 12.1875 119.152 13.6133 118.73 14.6289C118.316 15.6367 117.738 16.4844 116.996 17.1719C116.254 17.8516 115.457 18.3047 114.605 18.5312C113.441 18.8438 112.387 19 111.441 19H103.555V1.82031ZM108.863 5.71094V15.0977H110.164C111.273 15.0977 112.062 14.9766 112.531 14.7344C113 14.4844 113.367 14.0547 113.633 13.4453C113.898 12.8281 114.031 11.832 114.031 10.457C114.031 8.63672 113.734 7.39062 113.141 6.71875C112.547 6.04688 111.562 5.71094 110.188 5.71094H108.863Z" fill="#F68B38"/>
<path d="M0.828125 1.82031V1.07031C0.413911 1.07031 0.078125 1.4061 0.078125 1.82031H0.828125ZM12.4766 2.45312L12.173 3.13895L12.1751 3.13986L12.4766 2.45312ZM16.0039 14.6289L15.3113 14.3412L15.3102 14.3439L16.0039 14.6289ZM14.2695 17.1719L14.7761 17.725L14.7792 17.7221L14.2695 17.1719ZM11.8789 18.5312L11.6861 17.8065L11.6844 17.8069L11.8789 18.5312ZM0.828125 19H0.078125C0.078125 19.4142 0.413911 19.75 0.828125 19.75V19ZM6.13672 5.71094V4.96094C5.72251 4.96094 5.38672 5.29672 5.38672 5.71094H6.13672ZM6.13672 15.0977H5.38672C5.38672 15.5119 5.72251 15.8477 6.13672 15.8477V15.0977ZM9.80469 14.7344L10.149 15.4008L10.1576 15.3961L9.80469 14.7344ZM10.9062 13.4453L11.5938 13.745L11.5952 13.7418L10.9062 13.4453ZM0.828125 2.57031H8.71484V1.07031H0.828125V2.57031ZM8.71484 2.57031C10.2118 2.57031 11.3506 2.77493 12.173 3.13895L12.7801 1.7673C11.6963 1.28757 10.3273 1.07031 8.71484 1.07031V2.57031ZM12.1751 3.13986C13.0289 3.51469 13.7218 4.04624 14.2676 4.73521L15.4434 3.80385C14.7391 2.91469 13.8461 2.23531 12.7781 1.76639L12.1751 3.13986ZM14.2676 4.73521C14.8243 5.43814 15.2337 6.26219 15.4905 7.21803L16.9392 6.82885C16.6335 5.69094 16.1366 4.67905 15.4434 3.80385L14.2676 4.73521ZM15.4905 7.21803C15.7534 8.19654 15.8867 9.24011 15.8867 10.3516H17.3867C17.3867 9.11926 17.2388 7.94409 16.9392 6.82885L15.4905 7.21803ZM15.8867 10.3516C15.8867 12.1461 15.6782 13.4579 15.3113 14.3412L16.6965 14.9166C17.1734 13.7687 17.3867 12.2289 17.3867 10.3516H15.8867ZM15.3102 14.3439C14.9343 15.2589 14.4162 16.0137 13.7599 16.6217L14.7792 17.7221C15.6073 16.955 16.2454 16.0146 16.6976 14.9139L15.3102 14.3439ZM13.763 16.6188C13.0972 17.2285 12.4051 17.6152 11.6861 17.8065L12.0717 19.256C13.0558 18.9942 13.9575 18.4747 14.7761 17.725L13.763 16.6188ZM11.6844 17.8069C10.5673 18.1068 9.57939 18.25 8.71484 18.25V19.75C9.74093 19.75 10.8624 19.5807 12.0734 19.2556L11.6844 17.8069ZM8.71484 18.25H0.828125V19.75H8.71484V18.25ZM1.57812 19V1.82031H0.078125V19H1.57812ZM5.38672 5.71094V15.0977H6.88672V5.71094H5.38672ZM6.13672 15.8477H7.4375V14.3477H6.13672V15.8477ZM7.4375 15.8477C8.56239 15.8477 9.50905 15.7313 10.149 15.4007L9.46042 14.0681C9.16283 14.2218 8.53136 14.3477 7.4375 14.3477V15.8477ZM10.1576 15.3961C10.8098 15.0483 11.2779 14.4695 11.5938 13.745L10.2187 13.1456C10.0033 13.6398 9.73712 13.9204 9.45175 14.0726L10.1576 15.3961ZM11.5952 13.7418C11.9247 12.9761 12.0547 11.8495 12.0547 10.457H10.5547C10.5547 11.8145 10.4191 12.6801 10.2173 13.1488L11.5952 13.7418ZM12.0547 10.457C12.0547 8.61336 11.766 7.11601 10.9761 6.2221L9.85207 7.2154C10.2496 7.66524 10.5547 8.66007 10.5547 10.457H12.0547ZM10.9761 6.2221C10.1785 5.31961 8.93637 4.96094 7.46094 4.96094V6.46094C8.73551 6.46094 9.46211 6.77414 9.85207 7.2154L10.9761 6.2221ZM7.46094 4.96094H6.13672V6.46094H7.46094V4.96094ZM19.6484 1.82031V1.07031C19.2342 1.07031 18.8984 1.4061 18.8984 1.82031H19.6484ZM24.9688 1.82031H25.7188C25.7188 1.4061 25.383 1.07031 24.9688 1.07031V1.82031ZM24.9688 19V19.75C25.383 19.75 25.7188 19.4142 25.7188 19H24.9688ZM19.6484 19H18.8984C18.8984 19.4142 19.2342 19.75 19.6484 19.75V19ZM19.6484 2.57031H24.9688V1.07031H19.6484V2.57031ZM24.2188 1.82031V19H25.7188V1.82031H24.2188ZM24.9688 18.25H19.6484V19.75H24.9688V18.25ZM20.3984 19V1.82031H18.8984V19H20.3984ZM27.8633 13.3164L27.8164 12.5679C27.6149 12.5805 27.427 12.6738 27.2952 12.8267C27.1634 12.9796 27.0988 13.1792 27.116 13.3804L27.8633 13.3164ZM32.9141 13L33.6575 12.9009C33.6054 12.5105 33.2603 12.2268 32.8672 12.2515L32.9141 13ZM33.582 14.875L32.9912 15.3369L32.9925 15.3387L33.582 14.875ZM37.6719 15.3906L38.1627 15.9578L38.1635 15.957L37.6719 15.3906ZM34.9883 11.957L34.8238 12.6888L34.8273 12.6895L34.9883 11.957ZM30.0078 9.87109L30.5014 9.30638L30.4992 9.30447L30.0078 9.87109ZM29.2695 4.05859L28.6417 3.64832L28.6407 3.64985L29.2695 4.05859ZM31.5781 2.20703L31.8774 2.89475L31.8798 2.89367L31.5781 2.20703ZM40.8242 2.75781L40.3883 3.36813L40.393 3.37146L40.8242 2.75781ZM42.8867 6.64844L42.9306 7.39716C43.1374 7.38505 43.33 7.2879 43.4627 7.12876C43.5954 6.96962 43.6564 6.76268 43.6311 6.55702L42.8867 6.64844ZM37.8828 6.94141L37.1436 7.06834C37.2083 7.44473 37.5454 7.71245 37.9266 7.69012L37.8828 6.94141ZM37.0391 5.25391L36.5589 5.8301L36.5641 5.83437L37.0391 5.25391ZM33.8867 5.125L34.3641 5.70359L34.3725 5.69645L33.8867 5.125ZM33.8047 6.8125L34.3083 6.25676C34.3023 6.25128 34.2961 6.2459 34.2899 6.24062L33.8047 6.8125ZM35.5859 7.44531L35.7439 6.71212L35.7389 6.71108L35.5859 7.44531ZM40.5664 8.96875L40.2227 9.63538L40.2289 9.63853L40.5664 8.96875ZM42.7578 10.8672L42.1141 11.2521L42.117 11.2569L42.7578 10.8672ZM39.9805 18.5781L40.2801 19.2657L40.2842 19.2639L39.9805 18.5781ZM27.9102 14.0649L32.961 13.7485L32.8672 12.2515L27.8164 12.5679L27.9102 14.0649ZM32.1706 13.0991C32.2892 13.9886 32.541 14.7612 32.9912 15.3369L34.1729 14.4131C33.9512 14.1294 33.7576 13.652 33.6575 12.9009L32.1706 13.0991ZM32.9925 15.3387C33.7038 16.243 34.7186 16.668 35.9258 16.668V15.168C35.1017 15.168 34.554 14.8976 34.1715 14.4113L32.9925 15.3387ZM35.9258 16.668C36.7905 16.668 37.5733 16.4677 38.1627 15.9578L37.1811 14.8235C36.9579 15.0166 36.5767 15.168 35.9258 15.168V16.668ZM38.1635 15.957C38.7109 15.4819 39.043 14.8722 39.043 14.1484H37.543C37.543 14.3622 37.461 14.5806 37.1803 14.8242L38.1635 15.957ZM39.043 14.1484C39.043 13.4519 38.7263 12.8614 38.2088 12.3957L37.2053 13.5106C37.4691 13.748 37.543 13.9543 37.543 14.1484H39.043ZM38.2088 12.3957C37.9056 12.1228 37.473 11.9123 36.9924 11.7362C36.496 11.5543 35.8784 11.3848 35.1493 11.2245L34.8273 12.6895C35.52 12.8418 36.0665 12.9945 36.4764 13.1447C36.902 13.3006 37.1178 13.4319 37.2053 13.5106L38.2088 12.3957ZM35.1528 11.2253C32.8625 10.7104 31.3509 10.0489 30.5014 9.30639L29.5142 10.4358C30.649 11.4276 32.4578 12.1568 34.8238 12.6888L35.1528 11.2253ZM30.4992 9.30447C29.6663 8.58221 29.2578 7.6848 29.2578 6.55469H27.7578C27.7578 8.11207 28.3493 9.4256 29.5164 10.4377L30.4992 9.30447ZM29.2578 6.55469C29.2578 5.82521 29.465 5.13402 29.8984 4.46733L28.6407 3.64985C28.0584 4.54567 27.7578 5.51854 27.7578 6.55469H29.2578ZM29.8974 4.46886C30.3191 3.82349 30.963 3.29259 31.8774 2.89475L31.2789 1.51931C30.1463 2.0121 29.2512 2.71558 28.6417 3.64832L29.8974 4.46886ZM31.8798 2.89367C32.7764 2.4997 34.0691 2.27734 35.8086 2.27734V0.777344C33.9699 0.777344 32.4423 1.00811 31.2764 1.52039L31.8798 2.89367ZM35.8086 2.27734C37.9285 2.27734 39.42 2.67647 40.3883 3.36811L41.2601 2.14751C39.9316 1.19853 38.0793 0.777344 35.8086 0.777344V2.27734ZM40.393 3.37146C41.3313 4.03079 41.942 5.10844 42.1423 6.73986L43.6311 6.55702C43.394 4.62593 42.6296 3.10984 41.2554 2.14417L40.393 3.37146ZM42.8429 5.89972L37.839 6.19269L37.9266 7.69012L42.9306 7.39716L42.8429 5.89972ZM38.622 6.81448C38.4711 5.93591 38.1318 5.17889 37.514 4.67344L36.5641 5.83437C36.8057 6.03204 37.0289 6.40002 37.1436 7.06834L38.622 6.81448ZM37.5192 4.67774C36.9204 4.17875 36.1427 3.97656 35.2812 3.97656V5.47656C35.9198 5.47656 36.314 5.62594 36.5589 5.83007L37.5192 4.67774ZM35.2812 3.97656C34.5727 3.97656 33.903 4.12681 33.401 4.55355L34.3725 5.69645C34.4954 5.59194 34.7554 5.47656 35.2812 5.47656V3.97656ZM33.4094 4.54647C32.9401 4.93371 32.668 5.45561 32.668 6.07422H34.168C34.168 5.94283 34.2084 5.83192 34.364 5.70353L33.4094 4.54647ZM32.668 6.07422C32.668 6.61895 32.937 7.05984 33.3195 7.38438L34.2899 6.24062C34.219 6.18047 34.1901 6.1371 34.179 6.11586C34.1699 6.0984 34.168 6.08772 34.168 6.07422H32.668ZM33.301 7.36824C33.5382 7.58316 33.8631 7.73247 34.1864 7.84735C34.5272 7.96843 34.9461 8.07812 35.433 8.17955L35.7389 6.71108C35.2882 6.61719 34.9415 6.52376 34.6886 6.4339C34.5627 6.38918 34.469 6.34847 34.4019 6.31368C34.3324 6.27764 34.3079 6.25642 34.3083 6.25676L33.301 7.36824ZM35.4279 8.17848C37.7386 8.67641 39.3162 9.16796 40.2227 9.63535L40.9101 8.30215C39.8166 7.73829 38.0739 7.21421 35.7439 6.71214L35.4279 8.17848ZM40.2289 9.63853C41.1447 10.0999 41.7518 10.6461 42.1141 11.2521L43.4015 10.4823C42.8576 9.57268 42.0038 8.85318 40.9039 8.29897L40.2289 9.63853ZM42.117 11.2569C42.5024 11.8905 42.6992 12.602 42.6992 13.4102H44.1992C44.1992 12.3434 43.9351 11.3595 43.3986 10.4774L42.117 11.2569ZM42.6992 13.4102C42.6992 14.3642 42.438 15.2372 41.9079 16.0459L43.1624 16.8682C43.8511 15.8175 44.1992 14.6592 44.1992 13.4102H42.6992ZM41.9079 16.0459C41.3838 16.8455 40.649 17.4618 39.6768 17.8924L40.2842 19.2639C41.4995 18.7257 42.4678 17.9279 43.1624 16.8682L41.9079 16.0459ZM39.6809 17.8906C38.7111 18.3131 37.4427 18.543 35.8438 18.543V20.043C37.5729 20.043 39.0623 19.7963 40.2801 19.2657L39.6809 17.8906ZM35.8438 18.543C32.9703 18.543 31.2089 17.9803 30.3038 17.0751L29.2431 18.1358C30.5879 19.4806 32.8735 20.043 35.8438 20.043V18.543ZM30.3038 17.0751C29.3159 16.0872 28.7454 14.8284 28.6105 13.2525L27.116 13.3804C27.278 15.2731 27.981 16.8737 29.2431 18.1358L30.3038 17.0751ZM57.5703 11.9805L57.7873 11.2625C57.5868 11.2019 57.3701 11.2279 57.1896 11.3343C57.0092 11.4406 56.8814 11.6175 56.8372 11.8222L57.5703 11.9805ZM62.2227 13.3867L62.952 13.5614C63.0445 13.1751 62.8199 12.7837 62.4397 12.6688L62.2227 13.3867ZM58.2383 18.6367L57.9332 17.9516L57.9312 17.9525L58.2383 18.6367ZM49.8594 18.4961L49.5439 19.1766L49.5494 19.179L49.8594 18.4961ZM47.7734 3.82422L47.2404 3.29662L47.2404 3.29663L47.7734 3.82422ZM59.293 2.83984L58.8592 3.45171L58.8611 3.453L59.293 2.83984ZM62.0586 6.87109L62.2215 7.60319C62.4286 7.55712 62.6064 7.4255 62.7111 7.24095C62.8157 7.0564 62.8372 6.83618 62.7704 6.63484L62.0586 6.87109ZM57.3711 7.91406L56.6554 8.13838C56.7719 8.51013 57.1537 8.73077 57.534 8.64616L57.3711 7.91406ZM56.8555 6.76562L56.2499 7.20815L56.2531 7.21251L56.8555 6.76562ZM51.5586 6.95312L52.1806 7.37228L52.1842 7.36682L51.5586 6.95312ZM51.6992 14.2656L51.1173 14.7388L51.1199 14.742L51.6992 14.2656ZM56.4336 14.4648L55.881 13.9577L55.8773 13.9619L56.4336 14.4648ZM57.3533 12.6984L62.0057 14.1046L62.4397 12.6688L57.7873 11.2625L57.3533 12.6984ZM61.4933 13.212C61.2001 14.4359 60.7467 15.424 60.1512 16.1995L61.341 17.113C62.0893 16.1385 62.6202 14.9469 62.952 13.5614L61.4933 13.212ZM60.1512 16.1995C59.5548 16.9762 58.8182 17.5575 57.9332 17.9516L58.5434 19.3219C59.6584 18.8253 60.5936 18.0863 61.341 17.113L60.1512 16.1995ZM57.9312 17.9525C57.0669 18.3404 55.9155 18.5547 54.4414 18.5547V20.0547C56.0455 20.0547 57.4252 19.8237 58.5454 19.321L57.9312 17.9525ZM54.4414 18.5547C52.6384 18.5547 51.2269 18.2932 50.1694 17.8132L49.5494 19.179C50.8668 19.7771 52.51 20.0547 54.4414 20.0547V18.5547ZM50.1748 17.8157C49.1551 17.343 48.2367 16.5001 47.4358 15.2259L46.1658 16.0241C47.0836 17.4843 48.2042 18.5555 49.5439 19.1765L50.1748 17.8157ZM47.4358 15.2259C46.6721 14.0109 46.2617 12.4109 46.2617 10.375H44.7617C44.7617 12.6048 45.2108 14.5047 46.1658 16.0241L47.4358 15.2259ZM46.2617 10.375C46.2617 7.66212 46.9784 5.69363 48.3065 4.35181L47.2404 3.29663C45.5528 5.00168 44.7617 7.40038 44.7617 10.375H46.2617ZM48.3065 4.35182C49.6442 3.00027 51.5704 2.27734 54.1953 2.27734V0.777344C51.289 0.777344 48.9339 1.58566 47.2404 3.29662L48.3065 4.35182ZM54.1953 2.27734C56.2683 2.27734 57.7956 2.69772 58.8592 3.45171L59.7267 2.22798C58.3216 1.23197 56.4505 0.777344 54.1953 0.777344V2.27734ZM58.8611 3.453C59.9416 4.21412 60.7826 5.40761 61.3468 7.10734L62.7704 6.63484C62.1314 4.70958 61.1287 3.21557 59.7249 2.22669L58.8611 3.453ZM61.8957 6.139L57.2082 7.18196L57.534 8.64616L62.2215 7.60319L61.8957 6.139ZM58.0868 7.68975C57.9146 7.14061 57.7127 6.66238 57.4578 6.31874L56.2531 7.21251C56.3576 7.35325 56.4994 7.64064 56.6554 8.13838L58.0868 7.68975ZM57.461 6.32311C57.0978 5.82607 56.6451 5.43427 56.1059 5.15975L55.4254 6.4965C55.7455 6.65948 56.0194 6.89268 56.2499 7.20814L57.461 6.32311ZM56.1059 5.15975C55.5604 4.88206 54.9615 4.75 54.3242 4.75V6.25C54.7494 6.25 55.1115 6.33669 55.4254 6.4965L56.1059 5.15975ZM54.3242 4.75C52.8802 4.75 51.7184 5.35179 50.933 6.53943L52.1842 7.36682C52.68 6.61696 53.362 6.25 54.3242 6.25V4.75ZM50.9366 6.53399C50.326 7.44006 50.082 8.75279 50.082 10.3398H51.582C51.582 8.84877 51.8224 7.90369 52.1805 7.37226L50.9366 6.53399ZM50.082 10.3398C50.082 12.2643 50.3621 13.8101 51.1173 14.7388L52.2811 13.7924C51.8801 13.2992 51.582 12.2279 51.582 10.3398H50.082ZM51.1199 14.742C51.8628 15.6455 52.9032 16.0703 54.1367 16.0703V14.5703C53.2764 14.5703 52.6919 14.292 52.2785 13.7893L51.1199 14.742ZM54.1367 16.0703C55.2927 16.0703 56.2902 15.7417 56.9899 14.9678L55.8773 13.9619C55.5457 14.3286 55.012 14.5703 54.1367 14.5703V16.0703ZM56.9861 14.972C57.6306 14.2698 58.0525 13.3015 58.3034 12.1387L56.8372 11.8222C56.6194 12.8313 56.2835 13.5193 55.881 13.9577L56.9861 14.972ZM79.625 3.83594L79.096 4.36761L79.0974 4.36895L79.625 3.83594ZM80.9258 15.2266L80.2624 14.8768L80.2616 14.8783L80.9258 15.2266ZM77.9961 18.2266L78.3617 18.8814L78.363 18.8807L77.9961 18.2266ZM68.4102 18.3672L68.0814 19.0413L68.0831 19.0421L68.4102 18.3672ZM70.4141 14.1836L69.8413 14.6678L69.8442 14.6712L70.4141 14.1836ZM75.6523 6.67188L75.085 7.16243L75.0905 7.16868L75.6523 6.67188ZM64.8945 10.4219C64.8945 7.75982 65.6321 5.78793 67.0186 4.40142L65.958 3.34076C64.2195 5.07926 63.3945 7.47456 63.3945 10.4219H64.8945ZM67.0186 4.40142C68.4059 3.01415 70.3706 2.27734 73.0156 2.27734V0.777344C70.0826 0.777344 67.6957 1.60304 65.958 3.34076L67.0186 4.40142ZM73.0156 2.27734C75.7407 2.27734 77.7293 3.00778 79.096 4.36761L80.154 3.30427C78.427 1.58597 76.0093 0.777344 73.0156 0.777344V2.27734ZM79.0974 4.36895C80.466 5.72374 81.1953 7.65884 81.1953 10.2812H82.6953C82.6953 7.37241 81.8778 5.01064 80.1526 3.30292L79.0974 4.36895ZM81.1953 10.2812C81.1953 12.2108 80.8678 13.7285 80.2624 14.8768L81.5892 15.5764C82.3431 14.1465 82.6953 12.3673 82.6953 10.2812H81.1953ZM80.2616 14.8783C79.6582 16.0289 78.7859 16.9236 77.6292 17.5725L78.363 18.8807C79.7688 18.0921 80.8496 16.9868 81.59 15.5749L80.2616 14.8783ZM77.6305 17.5717C76.498 18.204 75.043 18.543 73.2266 18.543V20.043C75.2227 20.043 76.9473 19.671 78.3617 18.8814L77.6305 17.5717ZM73.2266 18.543C71.3628 18.543 69.8783 18.2453 68.7373 17.6923L68.0831 19.0421C69.4889 19.7235 71.2153 20.043 73.2266 20.043V18.543ZM68.7389 17.6931C67.6187 17.1468 66.6962 16.2789 65.9739 15.0561L64.6824 15.8189C65.5382 17.268 66.6704 18.3532 68.0814 19.0413L68.7389 17.6931ZM65.9739 15.0561C65.2703 13.8649 64.8945 12.3341 64.8945 10.4219H63.3945C63.3945 12.5252 63.8078 14.3382 64.6824 15.8189L65.9739 15.0561ZM68.7031 10.4453C68.7031 12.2371 69.0273 13.7049 69.8413 14.6678L70.9868 13.6994C70.5195 13.1466 70.2031 12.1223 70.2031 10.4453H68.7031ZM69.8442 14.6712C70.6522 15.6155 71.7499 16.0703 73.0508 16.0703V14.5703C72.1329 14.5703 71.4728 14.2673 70.9839 13.696L69.8442 14.6712ZM73.0508 16.0703C74.3696 16.0703 75.4798 15.6319 76.2729 14.6901L75.1255 13.7239C74.6686 14.2665 74.0132 14.5703 73.0508 14.5703V16.0703ZM76.2729 14.6901C77.0801 13.7316 77.3867 12.1619 77.3867 10.2109H75.8867C75.8867 12.1038 75.5683 13.1981 75.1255 13.7239L76.2729 14.6901ZM77.3867 10.2109C77.3867 8.51923 77.0482 7.11824 76.2142 6.17507L75.0905 7.16868C75.569 7.70989 75.8867 8.66827 75.8867 10.2109H77.3867ZM76.2197 6.18135C75.4098 5.24457 74.308 4.79688 73.0039 4.79688V6.29688C73.9341 6.29688 74.598 6.59918 75.085 7.1624L76.2197 6.18135ZM73.0039 4.79688C71.7326 4.79688 70.6583 5.2583 69.8559 6.19598L70.9956 7.1712C71.4902 6.59326 72.1346 6.29688 73.0039 6.29688V4.79688ZM69.8559 6.19598C69.031 7.16008 68.7031 8.63851 68.7031 10.4453H70.2031C70.2031 8.75212 70.5237 7.72273 70.9956 7.1712L69.8559 6.19598ZM84.875 19H84.125C84.125 19.4142 84.4608 19.75 84.875 19.75V19ZM84.875 1.82031V1.07031C84.4608 1.07031 84.125 1.4061 84.125 1.82031H84.875ZM99.582 3.8125L98.9658 4.24007L98.9679 4.24302L99.582 3.8125ZM99.7695 9.0625L100.415 9.44405L100.417 9.44086L99.7695 9.0625ZM98.0938 10.7383L98.4812 11.3804L98.4817 11.3802L98.0938 10.7383ZM96.2305 11.418L96.0639 10.6867C95.736 10.7614 95.4978 11.0453 95.4814 11.3813C95.4649 11.7173 95.6742 12.0231 95.9933 12.1295L96.2305 11.418ZM97.6133 12.0508L97.1712 12.6566L97.1751 12.6594L97.6133 12.0508ZM98.457 12.9531L97.8704 13.4205L97.8752 13.4264L98.457 12.9531ZM99.207 14.0195L98.5362 14.355L98.5403 14.3631L99.207 14.0195ZM101.773 19V19.75C102.035 19.75 102.278 19.6137 102.414 19.3904C102.55 19.1671 102.56 18.889 102.44 18.6565L101.773 19ZM95.7734 19L95.1136 19.3565C95.2445 19.5989 95.4979 19.75 95.7734 19.75V19ZM92.9375 13.75L92.2744 14.1006L92.2776 14.1065L92.9375 13.75ZM91.9766 12.4258L92.4157 11.8178C92.4119 11.815 92.408 11.8123 92.4041 11.8096L91.9766 12.4258ZM90.207 12.0273V11.2773C89.7928 11.2773 89.457 11.6131 89.457 12.0273H90.207ZM90.207 19V19.75C90.6212 19.75 90.957 19.4142 90.957 19H90.207ZM90.207 8.78125H89.457C89.457 9.19546 89.7928 9.53125 90.207 9.53125V8.78125ZM93.8516 8.54688L93.7045 7.81144C93.6987 7.8126 93.6929 7.81383 93.6871 7.81512L93.8516 8.54688ZM94.707 8.00781L94.1167 7.54508L94.109 7.55523L94.707 8.00781ZM90.207 5.28906V4.53906C89.7928 4.53906 89.457 4.87485 89.457 5.28906H90.207ZM85.625 19V1.82031H84.125V19H85.625ZM84.875 2.57031H93.7227V1.07031H84.875V2.57031ZM93.7227 2.57031C95.3369 2.57031 96.4978 2.71067 97.253 2.9556L97.7158 1.52877C96.7366 1.2112 95.3897 1.07031 93.7227 1.07031V2.57031ZM97.253 2.9556C97.9604 3.18503 98.5259 3.60603 98.9658 4.24006L100.198 3.38494C99.5757 2.48772 98.7427 1.86184 97.7158 1.52877L97.253 2.9556ZM98.9679 4.24302C99.3956 4.85305 99.6289 5.62143 99.6289 6.58984H101.129C101.129 5.37076 100.831 4.28757 100.196 3.38198L98.9679 4.24302ZM99.6289 6.58984C99.6289 7.43456 99.4497 8.12314 99.122 8.68414L100.417 9.44086C100.902 8.61124 101.129 7.65137 101.129 6.58984H99.6289ZM99.1238 8.68095C98.7832 9.25734 98.3151 9.72818 97.7058 10.0964L98.4817 11.3802C99.2943 10.889 99.9433 10.2427 100.415 9.44405L99.1238 8.68095ZM97.7063 10.0961C97.3477 10.3125 96.8118 10.5164 96.0639 10.6867L96.397 12.1492C97.2273 11.9602 97.9336 11.7109 98.4812 11.3804L97.7063 10.0961ZM95.9933 12.1295C96.6046 12.3332 96.9771 12.515 97.1712 12.6566L98.0554 11.4449C97.6713 11.1647 97.122 10.9246 96.4676 10.7065L95.9933 12.1295ZM97.1751 12.6594C97.2772 12.733 97.502 12.9579 97.8704 13.4204L99.0437 12.4858C98.6777 12.0264 98.34 11.6498 98.0515 11.4421L97.1751 12.6594ZM97.8752 13.4264C98.2453 13.8813 98.4504 14.1833 98.5362 14.3549L99.8779 13.6841C99.7137 13.3558 99.4188 12.9468 99.0388 12.4798L97.8752 13.4264ZM98.5403 14.3631L101.107 19.3435L102.44 18.6565L99.8737 13.676L98.5403 14.3631ZM101.773 18.25H95.7734V19.75H101.773V18.25ZM96.4333 18.6435L93.5974 13.3935L92.2776 14.1065L95.1136 19.3565L96.4333 18.6435ZM93.6005 13.3994C93.2375 12.7128 92.8498 12.1313 92.4157 11.8178L91.5374 13.0338C91.6658 13.1265 91.9188 13.4278 92.2745 14.1006L93.6005 13.3994ZM92.4041 11.8096C91.8906 11.4533 91.3066 11.2773 90.6758 11.2773V12.7773C91.0138 12.7773 91.2969 12.8671 91.549 13.042L92.4041 11.8096ZM90.6758 11.2773H90.207V12.7773H90.6758V11.2773ZM89.457 12.0273V19H90.957V12.0273H89.457ZM90.207 18.25H84.875V19.75H90.207V18.25ZM90.207 9.53125H92.4453V8.03125H90.207V9.53125ZM92.4453 9.53125C92.7842 9.53125 93.3335 9.432 94.016 9.27863L93.6871 7.81512C92.979 7.97425 92.5908 8.03125 92.4453 8.03125V9.53125ZM93.9986 9.28231C94.5323 9.17559 94.977 8.89392 95.3051 8.46039L94.109 7.55523C93.9995 7.69983 93.874 7.77754 93.7045 7.81144L93.9986 9.28231ZM95.2973 8.47047C95.6297 8.04641 95.7969 7.55064 95.7969 7.01172H94.2969C94.2969 7.2228 94.2375 7.39109 94.1167 7.54515L95.2973 8.47047ZM95.7969 7.01172C95.7969 6.28603 95.5584 5.63005 95.0034 5.16135L94.0356 6.3074C94.1837 6.43245 94.2969 6.62803 94.2969 7.01172H95.7969ZM95.0034 5.16135C94.7024 4.90712 94.3218 4.75782 93.9253 4.66866C93.5236 4.57833 93.0572 4.53906 92.5391 4.53906V6.03906C92.9897 6.03906 93.3378 6.07401 93.5962 6.13212C93.8598 6.1914 93.9851 6.26476 94.0356 6.3074L95.0034 5.16135ZM92.5391 4.53906H90.207V6.03906H92.5391V4.53906ZM89.457 5.28906V8.78125H90.957V5.28906H89.457ZM103.555 1.82031V1.07031C103.14 1.07031 102.805 1.4061 102.805 1.82031H103.555ZM115.203 2.45312L114.9 3.13895L114.902 3.13986L115.203 2.45312ZM118.73 14.6289L118.038 14.3412L118.037 14.3439L118.73 14.6289ZM116.996 17.1719L117.503 17.725L117.506 17.7221L116.996 17.1719ZM114.605 18.5312L114.413 17.8065L114.411 17.8069L114.605 18.5312ZM103.555 19H102.805C102.805 19.4142 103.14 19.75 103.555 19.75V19ZM108.863 5.71094V4.96094C108.449 4.96094 108.113 5.29672 108.113 5.71094H108.863ZM108.863 15.0977H108.113C108.113 15.5119 108.449 15.8477 108.863 15.8477V15.0977ZM112.531 14.7344L112.876 15.4008L112.884 15.3961L112.531 14.7344ZM113.633 13.4453L114.32 13.745L114.322 13.7418L113.633 13.4453ZM103.555 2.57031H111.441V1.07031H103.555V2.57031ZM111.441 2.57031C112.938 2.57031 114.077 2.77493 114.9 3.13895L115.507 1.7673C114.423 1.28757 113.054 1.07031 111.441 1.07031V2.57031ZM114.902 3.13986C115.755 3.51469 116.448 4.04624 116.994 4.73521L118.17 3.80385C117.466 2.91469 116.573 2.23531 115.505 1.76639L114.902 3.13986ZM116.994 4.73521C117.551 5.43814 117.96 6.26219 118.217 7.21803L119.666 6.82885C119.36 5.69094 118.863 4.67905 118.17 3.80385L116.994 4.73521ZM118.217 7.21803C118.48 8.19654 118.613 9.24011 118.613 10.3516H120.113C120.113 9.11926 119.965 7.94409 119.666 6.82885L118.217 7.21803ZM118.613 10.3516C118.613 12.1461 118.405 13.4579 118.038 14.3412L119.423 14.9166C119.9 13.7687 120.113 12.2289 120.113 10.3516H118.613ZM118.037 14.3439C117.661 15.2589 117.143 16.0137 116.486 16.6217L117.506 17.7221C118.334 16.955 118.972 16.0146 119.424 14.9139L118.037 14.3439ZM116.49 16.6188C115.824 17.2285 115.132 17.6152 114.413 17.8065L114.798 19.256C115.782 18.9942 116.684 18.4747 117.503 17.725L116.49 16.6188ZM114.411 17.8069C113.294 18.1068 112.306 18.25 111.441 18.25V19.75C112.467 19.75 113.589 19.5807 114.8 19.2556L114.411 17.8069ZM111.441 18.25H103.555V19.75H111.441V18.25ZM104.305 19V1.82031H102.805V19H104.305ZM108.113 5.71094V15.0977H109.613V5.71094H108.113ZM108.863 15.8477H110.164V14.3477H108.863V15.8477ZM110.164 15.8477C111.289 15.8477 112.236 15.7313 112.876 15.4007L112.187 14.0681C111.889 14.2218 111.258 14.3477 110.164 14.3477V15.8477ZM112.884 15.3961C113.536 15.0483 114.005 14.4695 114.32 13.745L112.945 13.1456C112.73 13.6398 112.464 13.9204 112.178 14.0726L112.884 15.3961ZM114.322 13.7418C114.651 12.9761 114.781 11.8495 114.781 10.457H113.281C113.281 11.8145 113.146 12.6801 112.944 13.1488L114.322 13.7418ZM114.781 10.457C114.781 8.61336 114.493 7.11601 113.703 6.2221L112.579 7.2154C112.976 7.66524 113.281 8.66007 113.281 10.457H114.781ZM113.703 6.2221C112.905 5.31961 111.663 4.96094 110.188 4.96094V6.46094C111.462 6.46094 112.189 6.77414 112.579 7.2154L113.703 6.2221ZM110.188 4.96094H108.863V6.46094H110.188V4.96094Z" fill="#1D1D1B"/>
</svg>
