<svg width="26" height="26" viewBox="0 0 26 26" fill="none" xmlns="http://www.w3.org/2000/svg">
<path d="M13 25C19.6274 25 25 19.6274 25 13C25 6.37258 19.6274 1 13 1C6.37258 1 1 6.37258 1 13C1 19.6274 6.37258 25 13 25Z" fill="#F499AD" stroke="#1D1D1B" stroke-width="0.5" stroke-miterlimit="10"/>
<path d="M9.36426 15.5381C9.55399 15.2149 9.88836 14.8524 10.3674 14.4523C10.4951 14.3452 10.6341 14.2344 10.7844 14.1216C11.0925 13.8887 11.3912 13.6896 11.6786 13.528C12.0412 13.3233 12.3887 13.1767 12.7174 13.0885C12.8301 13.0584 12.941 13.034 13.0499 13.0171C13.0856 13.0114 13.1213 13.0058 13.157 13.0002C13.2979 12.9814 13.435 12.9701 13.5721 12.9645C13.6924 12.9607 13.8107 12.9626 13.9272 12.9701C14.0437 12.9776 14.1601 12.9927 14.2747 13.0133C14.41 13.0377 14.5415 13.0697 14.6711 13.1091C14.9547 13.1974 15.2252 13.327 15.4845 13.4961C15.8001 13.7027 16.0274 13.9357 16.1645 14.193C16.2753 14.3997 16.3279 14.6157 16.3204 14.8392L16.4801 9.49109C16.4876 9.26754 16.435 9.05339 16.3242 8.84488C16.187 8.58752 15.9597 8.35458 15.6442 8.14795C15.3849 7.97888 15.1144 7.84926 14.8308 7.76097C14.7011 7.71964 14.5696 7.68771 14.4344 7.66516C14.3198 7.6445 14.2052 7.63136 14.0869 7.62196C13.9704 7.61445 13.852 7.61257 13.7318 7.61445C13.5966 7.6182 13.4576 7.62948 13.3167 7.65014C13.281 7.65577 13.2453 7.65953 13.2096 7.66705C13.1006 7.68395 12.9898 7.70837 12.8771 7.73843C12.5484 7.82672 12.2008 7.97324 11.8383 8.178C11.5509 8.33956 11.2522 8.5368 10.9441 8.77162C10.7957 8.88433 10.6567 8.99516 10.5271 9.10223C10.048 9.50236 9.71366 9.86492 9.52393 10.188" fill="#F68B38"/>
<path d="M9.36426 15.5381C9.55399 15.2149 9.88836 14.8524 10.3674 14.4523C10.4951 14.3452 10.6341 14.2344 10.7844 14.1216C11.0925 13.8887 11.3912 13.6896 11.6786 13.528C12.0412 13.3233 12.3887 13.1767 12.7174 13.0885C12.8301 13.0584 12.941 13.034 13.0499 13.0171C13.0856 13.0114 13.1213 13.0058 13.157 13.0002C13.2979 12.9814 13.435 12.9701 13.5721 12.9645C13.6924 12.9607 13.8107 12.9626 13.9272 12.9701C14.0437 12.9776 14.1601 12.9927 14.2747 13.0133C14.41 13.0377 14.5415 13.0697 14.6711 13.1091C14.9547 13.1974 15.2252 13.327 15.4845 13.4961C15.8001 13.7027 16.0274 13.9357 16.1645 14.193C16.2753 14.3997 16.3279 14.6157 16.3204 14.8392L16.4801 9.49109C16.4876 9.26754 16.435 9.05339 16.3242 8.84488C16.187 8.58752 15.9597 8.35458 15.6442 8.14795C15.3849 7.97888 15.1144 7.84926 14.8308 7.76097C14.7011 7.71964 14.5696 7.68771 14.4344 7.66516C14.3198 7.6445 14.2052 7.63136 14.0869 7.62196C13.9704 7.61445 13.852 7.61257 13.7318 7.61445C13.5966 7.6182 13.4576 7.62948 13.3167 7.65014C13.281 7.65577 13.2453 7.65953 13.2096 7.66705C13.1006 7.68395 12.9898 7.70837 12.8771 7.73843C12.5484 7.82672 12.2008 7.97324 11.8383 8.178C11.5509 8.33956 11.2522 8.5368 10.9441 8.77162C10.7957 8.88433 10.6567 8.99516 10.5271 9.10223C10.048 9.50236 9.71366 9.86492 9.52393 10.188" stroke="black" stroke-width="0.5" stroke-miterlimit="10" stroke-linejoin="round"/>
<path d="M9.37873 10.5024L9.21906 15.8506C9.1984 15.9182 9.18337 15.9858 9.17773 16.0497L9.3374 10.7016C9.34492 10.6377 9.35807 10.5719 9.37873 10.5024Z" fill="#945322"/>
<path d="M9.18051 16.0488C9.18051 16.0545 9.17864 16.0601 9.17864 16.0657C9.17676 16.0826 9.17676 16.0996 9.17676 16.1165L9.33643 10.7683C9.33643 10.7514 9.33831 10.7345 9.33831 10.7176C9.33831 10.712 9.33831 10.7063 9.34019 10.7007" fill="#8F5120"/>
<path d="M20.1641 9.84619L20.0044 15.1943C20.0026 15.2545 19.9988 15.3146 19.9932 15.3747L20.1528 10.0265C20.1585 9.96642 20.1622 9.9063 20.1641 9.84619Z" fill="#8F5120"/>
<path d="M20.0229 10.6524C19.9327 10.9417 19.7974 11.2385 19.619 11.5428C19.5833 11.6048 19.5457 11.6668 19.5044 11.7288L19.3447 17.0769C19.3842 17.015 19.4217 16.953 19.4593 16.891C19.6378 16.5867 19.7712 16.2898 19.8632 16.0006C19.9289 15.7883 19.9722 15.5798 19.9928 15.375L20.1525 10.0269C20.1318 10.2316 20.0886 10.4401 20.0229 10.6524Z" fill="#F68B38" stroke="black" stroke-width="0.5" stroke-miterlimit="10" stroke-linejoin="round"/>
<path d="M19.505 11.7296L19.3472 17.0777L15.9922 15.6782L16.15 10.3301L19.505 11.7296Z" fill="#F68B38" stroke="black" stroke-width="0.5" stroke-miterlimit="10" stroke-linejoin="round"/>
<path d="M14.6028 15.0005C14.2721 15.0888 13.9434 15.1564 13.6147 15.2015C13.5527 15.2109 13.4888 15.2184 13.4268 15.224C13.2239 15.2466 13.021 15.2616 12.82 15.2672C12.574 15.2748 12.3297 15.271 12.0874 15.2541C11.8357 15.2372 11.5859 15.2053 11.336 15.162C11.1782 15.1339 11.0185 15.1001 10.8626 15.0625C10.7368 15.0306 10.609 14.9967 10.4813 14.9554C9.76369 14.73 9.01416 14.3637 8.23645 13.8546C7.12436 13.1276 6.36356 12.4213 5.95405 11.7375C5.67415 11.2716 5.54265 10.7569 5.55956 10.1934L5.39988 15.5415C5.38298 16.1051 5.51447 16.6198 5.79437 17.0857C6.20389 17.7694 6.96657 18.4758 8.07678 19.2027C8.85449 19.7118 9.60401 20.0781 10.3216 20.3036C10.4493 20.343 10.5771 20.3787 10.7029 20.4106C10.8607 20.4501 11.0185 20.482 11.1763 20.5102C11.4243 20.5534 11.6741 20.5853 11.9277 20.6022C12.1701 20.6192 12.4143 20.6229 12.6604 20.6154C12.8614 20.6098 13.0643 20.5947 13.2671 20.5722C13.3291 20.5647 13.3911 20.5572 13.455 20.5496C13.7837 20.5046 14.1125 20.4369 14.4431 20.3486C14.9315 20.2172 15.4237 20.0368 15.9196 19.8058L16.0793 14.4576C15.5833 14.6887 15.0912 14.869 14.6028 15.0005Z" fill="#F68B38" stroke="black" stroke-width="0.5" stroke-miterlimit="10" stroke-linejoin="round"/>
<path d="M17.718 6.4722C19.0066 7.31566 19.7825 8.15724 20.0455 9.0007C20.3103 9.84227 20.13 10.7515 19.5045 11.7283L16.1494 10.3288C16.3335 10.0489 16.4406 9.82724 16.465 9.6563C16.5082 9.37452 16.4612 9.10589 16.3241 8.84854C16.187 8.59118 15.9597 8.35824 15.6441 8.1516C14.9284 7.68197 14.1169 7.5223 13.2095 7.6707C12.5314 7.7759 11.7762 8.14409 10.944 8.77527C9.91272 9.55674 9.37734 10.2029 9.33789 10.7195C9.30032 11.2343 9.59149 11.6945 10.2152 12.104C10.82 12.5004 11.4306 12.6807 12.0505 12.6507C12.6685 12.6187 13.3429 12.4271 14.0699 12.0721L16.078 14.4597C15.1857 14.8748 14.3009 15.1284 13.4274 15.2261C12.5539 15.3219 11.6992 15.2693 10.8651 15.0627C10.0311 14.8579 9.15568 14.454 8.23896 13.8548C7.12687 13.1278 6.36607 12.4215 5.95655 11.7377C5.54516 11.0539 5.45311 10.2649 5.68229 9.36889C5.90959 8.47471 6.60276 7.58993 7.75618 6.71641C9.29656 5.54985 10.929 4.94872 12.6572 4.91303C14.3836 4.87546 16.0705 5.39581 17.718 6.4722Z" fill="#FBB33B" stroke="black" stroke-width="0.5" stroke-miterlimit="10" stroke-linejoin="round"/>
<path d="M11.6238 16.6763C12.3334 16.6763 12.9087 16.101 12.9087 15.3914C12.9087 14.6817 12.3334 14.1064 11.6238 14.1064C10.9141 14.1064 10.3389 14.6817 10.3389 15.3914C10.3389 16.101 10.9141 16.6763 11.6238 16.6763Z" fill="#F68B38" stroke="black" stroke-width="0.5" stroke-miterlimit="10"/>
<path d="M18.7798 9.58836C18.8557 9.36653 18.6913 9.10935 18.4125 9.01395C18.1337 8.91854 17.8462 9.02103 17.7703 9.24287C17.6944 9.4647 17.8588 9.72187 18.1376 9.81728C18.4163 9.91268 18.7038 9.81019 18.7798 9.58836Z" fill="#F68B38" stroke="black" stroke-width="0.5" stroke-miterlimit="10"/>
<path d="M9.47224 8.49232C9.48163 8.07538 9.06968 7.72794 8.55214 7.71629C8.03459 7.70464 7.60743 8.0332 7.59805 8.45014C7.58866 8.86708 8.00061 9.21452 8.51815 9.22617C9.0357 9.23782 9.46286 8.90926 9.47224 8.49232Z" fill="#F68B38" stroke="black" stroke-width="0.5" stroke-miterlimit="10"/>
<path d="M12.2158 6.55981C12.2217 6.29533 11.9583 6.07489 11.6275 6.06744C11.2966 6.06 11.0236 6.26836 11.0176 6.53284C11.0117 6.79732 11.275 7.01776 11.6059 7.0252C11.9368 7.03265 12.2098 6.82429 12.2158 6.55981Z" fill="#F68B38" stroke="black" stroke-width="0.5" stroke-miterlimit="10"/>
<path d="M13.5992 18.7415C13.9302 18.7415 14.1985 18.4732 14.1985 18.1422C14.1985 17.8113 13.9302 17.543 13.5992 17.543C13.2683 17.543 13 17.8113 13 18.1422C13 18.4732 13.2683 18.7415 13.5992 18.7415Z" fill="#F68B38" stroke="black" stroke-width="0.5" stroke-miterlimit="10"/>
</svg>
