<svg width="47" height="28" viewBox="0 0 47 28" fill="none" xmlns="http://www.w3.org/2000/svg">
<path d="M46.5 14C46.5 21.4558 40.4558 27.5 33 27.5C25.5442 27.5 19.5 21.4558 19.5 14C19.5 6.54416 25.5442 0.5 33 0.5C40.4558 0.5 46.5 6.54416 46.5 14Z" fill="#F4B731" stroke="#171717"/>
<path fill-rule="evenodd" clip-rule="evenodd" d="M27.1174 7H32.8504C36.3373 7 38.9806 8.8515 39.9641 11.5448H41.75V13.1731H40.3404C40.3675 13.4304 40.3815 13.6929 40.3815 13.9589V13.9991C40.3815 14.2984 40.364 14.5941 40.329 14.8829H41.75V16.5104H39.93C38.9211 19.1669 36.2987 21 32.8512 21H27.1174V16.5104H25.125V14.8829H27.1174V13.1731H25.125V11.5456H27.1174V7ZM28.7195 16.5104V19.5396H32.8495C35.3993 19.5396 37.2928 18.326 38.1739 16.5104H28.7195ZM38.6648 14.8829H28.7195V13.1731H38.6683C38.7041 13.4418 38.7234 13.7174 38.7234 13.9991V14.0385C38.7234 14.3264 38.7033 14.6072 38.6648 14.882V14.8829ZM32.8512 8.45687C35.4115 8.45687 37.3111 9.70287 38.187 11.5439H28.7195V8.45775H32.8495L32.8512 8.45687Z" fill="white"/>
<path d="M14 28C21.732 28 28 21.732 28 14C28 6.26801 21.732 0 14 0C6.26801 0 0 6.26801 0 14C0 21.732 6.26801 28 14 28Z" fill="#201A2D"/>
<path d="M19.9654 8.38785L19.4404 8.91285C20.6931 10.2828 21.3878 12.072 21.3878 13.9284C21.3878 15.7847 20.6931 17.5739 19.4404 18.9439L19.9654 19.4689C21.3585 17.9577 22.132 15.9776 22.132 13.9222C22.132 11.8669 21.3585 9.88676 19.9654 8.3756V8.38785V8.38785ZM8.92461 8.43335C10.2946 7.18062 12.0837 6.48591 13.9401 6.48591C15.7965 6.48591 17.5857 7.18062 18.9556 8.43335L19.4806 7.90835C17.9695 6.51518 15.9894 5.7417 13.934 5.7417C11.8786 5.7417 9.89852 6.51518 8.38736 7.90835L8.92461 8.43335V8.43335ZM8.43286 18.9491C7.18161 17.5795 6.48782 15.7914 6.48782 13.9362C6.48782 12.0811 7.18161 10.293 8.43286 8.92335L7.90786 8.39835C6.51469 9.90951 5.74121 11.8896 5.74121 13.945C5.74121 16.0003 6.51469 17.9804 7.90786 19.4916L8.43286 18.9491ZM18.9486 19.4339C17.5787 20.6866 15.7895 21.3813 13.9331 21.3813C12.0767 21.3813 10.2876 20.6866 8.91761 19.4339L8.39261 19.9589C9.90377 21.352 11.8839 22.1255 13.9392 22.1255C15.9946 22.1255 17.9747 21.352 19.4859 19.9589L18.9486 19.4339ZM17.2494 12.1836C17.1444 11.0881 16.1994 10.7206 15.0041 10.6086V9.1001H14.0801V10.5806H13.3416V9.1001H12.4246V10.6191H10.5504V11.6079C10.5504 11.6079 11.2329 11.5956 11.2224 11.6079C11.3454 11.5943 11.4689 11.6291 11.5669 11.7048C11.6648 11.7805 11.7295 11.8913 11.7474 12.0139V16.1719C11.7447 16.2151 11.7335 16.2573 11.7142 16.2961C11.695 16.3348 11.6682 16.3694 11.6354 16.3976C11.6032 16.4264 11.5655 16.4483 11.5246 16.4622C11.4837 16.476 11.4404 16.4814 11.3974 16.4781C11.4096 16.4886 10.7254 16.4781 10.7254 16.4781L10.5504 17.5824H12.4071V19.1259H13.3311V17.6051H14.0696V19.1189H14.9954V17.5929C16.5564 17.4984 17.6449 17.1134 17.7814 15.6521C17.8916 14.4761 17.3386 13.9511 16.4549 13.7394C16.9921 13.4751 17.3246 12.9851 17.2494 12.1836V12.1836ZM15.9544 15.4701C15.9544 16.6181 13.9874 16.4869 13.3609 16.4869V14.4499C13.9874 14.4516 15.9544 14.2714 15.9544 15.4701ZM15.5256 12.6001C15.5256 13.6501 13.8841 13.5224 13.3626 13.5224V11.6709C13.8841 11.6709 15.5256 11.5064 15.5256 12.6001Z" fill="white"/>
<path d="M13.9335 23.4955C8.65375 23.4946 4.375 19.2141 4.375 13.9344C4.375 8.6555 8.6555 4.375 13.9344 4.375C19.2141 4.375 23.4946 8.65375 23.4955 13.9335C23.4957 15.1893 23.2486 16.4328 22.7681 17.593C22.2876 18.7532 21.5833 19.8074 20.6954 20.6954C19.8074 21.5833 18.7532 22.2876 17.593 22.7681C16.4328 23.2486 15.1893 23.4957 13.9335 23.4955V23.4955ZM13.9335 5.1205C9.06937 5.124 5.12925 9.06937 5.131 13.9335C5.13275 18.7976 9.07725 22.7395 13.9405 22.7395C18.8046 22.7395 22.7482 18.7976 22.75 13.9335C22.7505 12.7757 22.5227 11.6292 22.0798 10.5596C21.6368 9.48988 20.9873 8.518 20.1685 7.6995C19.3497 6.881 18.3776 6.23193 17.3077 5.78941C16.2379 5.34688 15.0913 5.11958 13.9335 5.1205V5.1205Z" fill="white"/>
</svg>
