<svg width="345" height="460" viewBox="0 0 345 460" fill="none" xmlns="http://www.w3.org/2000/svg">
<path d="M17.2482 442.5H343.989L329.772 458.75H1V16.0122L17.2482 1V442.5Z" fill="#FBB33B"/>
<path d="M17 1H343.774V442.5H17.5L17 1Z" fill="white"/>
<path d="M17.2604 1L344 1V64.7812M17.2604 1L1 16.0312V79.8125M17.2604 1V64.7812M17.2604 64.7812V82.25V442.594M17.2604 64.7812H344M17.2604 64.7812L1 79.8125M344 64.7812V442.594M1 79.8125V459.25M17.2604 442.594H344M17.2604 442.594L1 459.25M344 442.594L329.5 459.25H1" stroke="#171717"/>
</svg>
