<svg width="18" height="18" viewBox="0 0 18 18" fill="none" xmlns="http://www.w3.org/2000/svg">
<circle cx="8.5" cy="9.5" r="8.4" fill="#F68B38" stroke="black" stroke-width="0.2"/>
<circle cx="9.5" cy="8.5" r="8.4" fill="white" stroke="black" stroke-width="0.2"/>
<path d="M10.5996 10.3047H8.37305V10.082C8.37305 9.70312 8.41602 9.39648 8.50195 9.16211C8.58789 8.92383 8.71484 8.70703 8.88281 8.51172C9.05469 8.31641 9.4375 7.97266 10.0312 7.48047C10.3477 7.22266 10.5059 6.98633 10.5059 6.77148C10.5059 6.55664 10.4414 6.39062 10.3125 6.27344C10.1875 6.15234 9.99609 6.0918 9.73828 6.0918C9.46094 6.0918 9.23047 6.18359 9.04688 6.36719C8.86719 6.55078 8.75195 6.87109 8.70117 7.32812L6.42773 7.04688C6.50586 6.21094 6.80859 5.53906 7.33594 5.03125C7.86719 4.51953 8.67969 4.26367 9.77344 4.26367C10.625 4.26367 11.3125 4.44141 11.8359 4.79688C12.5469 5.27734 12.9023 5.91797 12.9023 6.71875C12.9023 7.05078 12.8105 7.37109 12.627 7.67969C12.4434 7.98828 12.0684 8.36523 11.502 8.81055C11.1074 9.12305 10.8574 9.375 10.752 9.56641C10.6504 9.75391 10.5996 10 10.5996 10.3047ZM8.29688 10.8965H10.6816V13H8.29688V10.8965Z" fill="#171717"/>
</svg>
