<svg width="342" height="101" viewBox="0 0 342 101" fill="none" xmlns="http://www.w3.org/2000/svg">
<path d="M324 6H13C6.37258 6 1 11.3726 1 18V88C1 94.6274 6.37259 100 13 100H324C330.627 100 336 94.6274 336 88V18C336 11.3726 330.627 6 324 6Z" fill="#F68B38" stroke="#1D1D1B" stroke-miterlimit="10"/>
<path d="M329 1H18C11.3726 1 6 6.37258 6 13V83C6 89.6274 11.3726 95 18 95H329C335.627 95 341 89.6274 341 83V13C341 6.37258 335.627 1 329 1Z" fill="white" stroke="#1D1D1B" stroke-miterlimit="10"/>
</svg>
