<svg width="562" height="630" viewBox="0 0 562 630" fill="none" xmlns="http://www.w3.org/2000/svg">
<path d="M542.77 629H19.2246C9.16216 629 1 619.601 1 608C1 596.405 9.1566 587 19.2246 587H542.775C552.838 587 561 596.399 561 608C560.994 619.601 552.838 629 542.77 629Z" fill="#FBB33B" stroke="black" stroke-width="2" stroke-miterlimit="10"/>
<path d="M529 609V2L515.216 11.2094L501.432 2L487.653 11.2094L473.875 2L460.091 11.2094L446.312 2L432.533 11.2094L418.755 2L404.981 11.2094L391.203 2L377.424 11.2094L363.645 2L349.867 11.2094L336.088 2L322.309 11.2094L308.531 2L294.757 11.2094L280.979 2L267.2 11.2094L253.427 2L239.648 11.2094L225.869 2L212.091 11.2094L198.317 2L184.539 11.2094L170.765 2L156.992 11.2094L143.213 2L129.44 11.2094L115.661 2L101.888 11.2094L88.1093 2L74.336 11.2094L60.5573 2L46.7787 11.2094L33 2V609H529Z" fill="#F499AD" stroke="#1D1D1B" stroke-width="2" stroke-miterlimit="10"/>
</svg>
