<svg width="562" height="731" viewBox="0 0 562 731" fill="none" xmlns="http://www.w3.org/2000/svg">
<path d="M542.77 730H19.2246C9.16216 730 1 720.601 1 709C1 697.405 9.1566 688 19.2246 688H542.775C552.838 688 561 697.399 561 709C560.994 720.601 552.838 730 542.77 730Z" fill="#FBB33B" stroke="black" stroke-width="2" stroke-miterlimit="10"/>
<path d="M529 710V3L515.216 13.7266L501.432 3L487.653 13.7266L473.875 3L460.091 13.7266L446.312 3L432.533 13.7266L418.755 3L404.981 13.7266L391.203 3L377.424 13.7266L363.645 3L349.867 13.7266L336.088 3L322.309 13.7266L308.531 3L294.757 13.7266L280.979 3L267.2 13.7266L253.427 3L239.648 13.7266L225.869 3L212.091 13.7266L198.317 3L184.539 13.7266L170.765 3L156.992 13.7266L143.213 3L129.44 13.7266L115.661 3L101.888 13.7266L88.1093 3L74.336 13.7266L60.5573 3L46.7787 13.7266L33 3V710H529Z" fill="#F499AD" stroke="#1D1D1B" stroke-width="2" stroke-miterlimit="10"/>
</svg>
