<svg width="182" height="72" viewBox="0 0 182 72" fill="none" xmlns="http://www.w3.org/2000/svg">
<path d="M159.311 7H17.6887C8.47122 7 1 14.4143 1 23.5615C1 32.7088 8.47122 40.1232 17.6887 40.1232H18.7271V50.7487C18.7271 54.3227 21.6479 57.2212 25.2494 57.2212C28.8508 57.2212 31.7716 54.3227 31.7716 50.7487V37.406C31.7716 33.832 34.6924 30.9334 38.2939 30.9334C41.8953 30.9334 44.8161 33.832 44.8161 37.406L44.5205 64.5236C44.5205 68.0976 47.4414 70.9961 51.0428 70.9961C54.6442 70.9961 57.565 68.0976 57.565 64.5236V40.127H57.5884C57.8256 36.7692 60.6414 34.1137 64.0873 34.1137C67.5331 34.1137 70.3489 36.7692 70.5862 40.127H70.6095V55.1099C70.6095 58.6839 73.5303 61.5825 77.1318 61.5825C80.7332 61.5825 83.654 58.6839 83.654 55.1099V37.0007C83.654 33.4267 86.5748 30.5281 90.1763 30.5281C93.7777 30.5281 96.6985 33.4267 96.6985 37.0007V48.2823C96.6985 51.8563 99.6193 54.7549 103.221 54.7549C106.297 54.7549 108.872 52.6399 109.556 49.7954V37.4098C109.556 33.8358 112.477 30.9373 116.079 30.9373C119.68 30.9373 122.601 33.8358 122.601 37.4098L122.305 64.5274C122.305 68.1014 125.226 71 128.827 71C132.429 71 135.35 68.1014 135.35 64.5274V40.1309H135.412C135.832 36.9583 138.558 34.5035 141.872 34.5035C145.473 34.5035 148.394 37.4021 148.394 40.9761V52.1458C149.036 55.0521 151.642 57.2251 154.761 57.2251C158.362 57.2251 161.283 54.3265 161.283 50.7525V40.0112C169.571 39.0425 176 32.0527 176 23.5693C176 14.4181 168.529 7 159.311 7Z" fill="#F68B38" stroke="black" stroke-miterlimit="10"/>
<path d="M164.407 1H23.5933C14.4285 1 7 8.41427 7 17.5615C7 26.7088 14.4285 34.1232 23.5933 34.1232H24.6258V44.7487C24.6258 48.3227 27.53 51.2212 31.1108 51.2212C34.6917 51.2212 37.5958 48.3227 37.5958 44.7487V31.406C37.5958 27.832 40.4999 24.9334 44.0808 24.9334C47.6616 24.9334 50.5657 27.832 50.5657 31.406L50.2718 58.5236C50.2718 62.0976 53.176 64.9961 56.7568 64.9961C60.3377 64.9961 63.2418 62.0976 63.2418 58.5236V34.127H63.265C63.5009 30.7692 66.3006 28.1137 69.7268 28.1137C73.1529 28.1137 75.9527 30.7692 76.1886 34.127H76.2118V49.1099C76.2118 52.6839 79.1159 55.5825 82.6967 55.5825C86.2776 55.5825 89.1817 52.6839 89.1817 49.1099V31.0007C89.1817 27.4267 92.0858 24.5281 95.6667 24.5281C99.2475 24.5281 102.152 27.4267 102.152 31.0007V42.2823C102.152 45.8563 105.056 48.7549 108.637 48.7549C111.695 48.7549 114.255 46.6399 114.936 43.7954V31.4098C114.936 27.8358 117.84 24.9373 121.421 24.9373C125.002 24.9373 127.906 27.8358 127.906 31.4098L127.612 58.5274C127.612 62.1014 130.516 65 134.097 65C137.678 65 140.582 62.1014 140.582 58.5274V34.1309H140.644C141.062 30.9583 143.772 28.5035 147.067 28.5035C150.648 28.5035 153.552 31.4021 153.552 34.9761V46.1458C154.19 49.0521 156.781 51.2251 159.882 51.2251C163.463 51.2251 166.367 48.3265 166.367 44.7525V34.0112C174.608 33.0425 181 26.0527 181 17.5693C181 8.41814 173.571 1 164.407 1Z" fill="#FBB33B" stroke="black" stroke-miterlimit="10"/>
</svg>
