<svg width="176" height="66" viewBox="0 0 176 66" fill="none" xmlns="http://www.w3.org/2000/svg">
<path d="M158.407 1H17.5933C8.42853 1 1 8.41427 1 17.5615C1 26.7088 8.42853 34.1232 17.5933 34.1232H18.6258V44.7487C18.6258 48.3227 21.53 51.2212 25.1108 51.2212C28.6917 51.2212 31.5958 48.3227 31.5958 44.7487V31.406C31.5958 27.832 34.4999 24.9334 38.0808 24.9334C41.6616 24.9334 44.5657 27.832 44.5657 31.406L44.2718 58.5236C44.2718 62.0976 47.176 64.9961 50.7568 64.9961C54.3377 64.9961 57.2418 62.0976 57.2418 58.5236V34.127H57.265C57.5009 30.7692 60.3006 28.1137 63.7268 28.1137C67.1529 28.1137 69.9527 30.7692 70.1886 34.127H70.2118V49.1099C70.2118 52.6839 73.1159 55.5825 76.6967 55.5825C80.2776 55.5825 83.1817 52.6839 83.1817 49.1099V31.0007C83.1817 27.4267 86.0858 24.5281 89.6667 24.5281C93.2475 24.5281 96.1517 27.4267 96.1517 31.0007V42.2823C96.1517 45.8563 99.0558 48.7549 102.637 48.7549C105.695 48.7549 108.255 46.6399 108.936 43.7954V31.4098C108.936 27.8358 111.84 24.9373 115.421 24.9373C119.002 24.9373 121.906 27.8358 121.906 31.4098L121.612 58.5274C121.612 62.1014 124.516 65 128.097 65C131.678 65 134.582 62.1014 134.582 58.5274V34.1309H134.644C135.062 30.9583 137.772 28.5036 141.067 28.5036C144.648 28.5036 147.552 31.4021 147.552 34.9761V46.1458C148.19 49.0521 150.781 51.2251 153.882 51.2251C157.463 51.2251 160.367 48.3265 160.367 44.7525V34.0112C168.608 33.0425 175 26.0527 175 17.5693C175 8.41814 167.571 1 158.407 1Z" fill="#FBB33B" stroke="black" stroke-miterlimit="10"/>
</svg>
