<svg width="32" height="32" viewBox="0 0 32 32" fill="none" xmlns="http://www.w3.org/2000/svg">
<path d="M16 32C24.8366 32 32 24.8366 32 16C32 7.16344 24.8366 0 16 0C7.16344 0 0 7.16344 0 16C0 24.8366 7.16344 32 16 32Z" fill="#201A2D"/>
<path d="M22.8182 9.58619L22.2182 10.1862C23.6499 11.7518 24.4438 13.7966 24.4438 15.9182C24.4438 18.0398 23.6499 20.0845 22.2182 21.6502L22.8182 22.2502C24.4104 20.5231 25.2944 18.2602 25.2944 15.9112C25.2944 13.5622 24.4104 11.2992 22.8182 9.57219V9.58619V9.58619ZM10.2002 9.63819C11.7658 8.20649 13.8106 7.41254 15.9322 7.41254C18.0538 7.41254 20.0985 8.20649 21.6642 9.63819L22.2642 9.03819C20.5371 7.44599 18.2742 6.56201 15.9252 6.56201C13.5762 6.56201 11.3132 7.44599 9.58619 9.03819L10.2002 9.63819V9.63819ZM9.63819 21.6562C8.20818 20.0909 7.41528 18.0474 7.41528 15.9272C7.41528 13.807 8.20818 11.7635 9.63819 10.1982L9.03819 9.59819C7.44599 11.3252 6.56201 13.5882 6.56201 15.9372C6.56201 18.2862 7.44599 20.5491 9.03819 22.2762L9.63819 21.6562ZM21.6562 22.2102C20.0905 23.6419 18.0458 24.4358 15.9242 24.4358C13.8026 24.4358 11.7578 23.6419 10.1922 22.2102L9.59219 22.8102C11.3192 24.4024 13.5822 25.2864 15.9312 25.2864C18.2802 25.2864 20.5431 24.4024 22.2702 22.8102L21.6562 22.2102ZM19.7142 13.9242C19.5942 12.6722 18.5142 12.2522 17.1482 12.1242V10.4002H16.0922V12.0922H15.2482V10.4002H14.2002V12.1362H12.0582V13.2662C12.0582 13.2662 12.8382 13.2522 12.8262 13.2662C12.9668 13.2507 13.108 13.2904 13.2199 13.377C13.3318 13.4636 13.4058 13.5902 13.4262 13.7302V18.4822C13.4232 18.5316 13.4103 18.5798 13.3883 18.6242C13.3663 18.6685 13.3357 18.7079 13.2982 18.7402C13.2614 18.7731 13.2183 18.7982 13.1716 18.814C13.1248 18.8298 13.0754 18.836 13.0262 18.8322C13.0402 18.8442 12.2582 18.8322 12.2582 18.8322L12.0582 20.0942H14.1802V21.8582H15.2362V20.1202H16.0802V21.8502H17.1382V20.1062C18.9222 19.9982 20.1662 19.5582 20.3222 17.8882C20.4482 16.5442 19.8162 15.9442 18.8062 15.7022C19.4202 15.4002 19.8002 14.8402 19.7142 13.9242V13.9242ZM18.2342 17.6802C18.2342 18.9922 15.9862 18.8422 15.2702 18.8422V16.5142C15.9862 16.5162 18.2342 16.3102 18.2342 17.6802ZM17.7442 14.4002C17.7442 15.6002 15.8682 15.4542 15.2722 15.4542V13.3382C15.8682 13.3382 17.7442 13.1502 17.7442 14.4002Z" fill="white"/>
<path d="M15.924 26.852C9.89 26.851 5 21.959 5 15.925C5 9.892 9.892 5 15.925 5C21.959 5 26.851 9.89 26.852 15.924C26.8523 17.3592 26.5698 18.7803 26.0207 20.1063C25.4716 21.4322 24.6667 22.637 23.6518 23.6518C22.637 24.6667 21.4322 25.4716 20.1063 26.0207C18.7803 26.5698 17.3592 26.8523 15.924 26.852V26.852ZM15.924 5.852C10.365 5.856 5.862 10.365 5.864 15.924C5.866 21.483 10.374 25.988 15.932 25.988C21.491 25.988 25.998 21.483 26 15.924C26.0005 14.6008 25.7402 13.2906 25.234 12.0681C24.7278 10.8456 23.9855 9.73486 23.0497 8.79943C22.1139 7.864 21.0029 7.12221 19.7802 6.61647C18.5575 6.11072 17.2472 5.85095 15.924 5.852V5.852Z" fill="white"/>
<circle cx="16" cy="16" r="15.5" stroke="black"/>
</svg>
